<svg id="Education" xmlns="http://www.w3.org/2000/svg" width="33.41" height="28.067" viewBox="0 0 33.41 28.067">
  <path id="Path_15244" data-name="Path 15244" d="M16.706,30.745a.522.522,0,0,1-.222-.05L.3,23.081a.522.522,0,0,1,0-.945L16.484,14.52a.522.522,0,0,1,.444,0l16.183,7.617a.522.522,0,0,1,0,.945L16.928,30.7A.522.522,0,0,1,16.706,30.745ZM1.749,22.609l14.956,7.048,14.956-7.048-14.956-7.04Z" transform="translate(-0.001 -14.47)" fill="#27276d"/>
  <path id="Path_15245" data-name="Path 15245" d="M22.522,61.526A.522.522,0,0,1,22,61V55.522a.522.522,0,1,1,1.044,0V61A.522.522,0,0,1,22.522,61.526Z" transform="translate(-16.258 -44.421)" fill="#27276d"/>
  <path id="Path_15246" data-name="Path 15246" d="M102.522,61.526A.522.522,0,0,1,102,61V55.522a.522.522,0,1,1,1.044,0V61A.522.522,0,0,1,102.522,61.526Z" transform="translate(-75.376 -44.421)" fill="#27276d"/>
  <path id="Path_15247" data-name="Path 15247" d="M32.963,82.4C27.059,82.4,22,79.169,22,76.522a.522.522,0,1,1,1.044,0c0,1.655,4.176,4.837,9.919,4.837s9.919-3.182,9.919-4.837a.522.522,0,1,1,1.044,0C43.926,79.169,38.867,82.4,32.963,82.4Z" transform="translate(-16.258 -59.94)" fill="#27276d"/>
  <path id="Path_15248" data-name="Path 15248" d="M70.312,58.119a.522.522,0,0,1-.522-.522V47.741l-7.541-3.772a.522.522,0,1,1,.465-.934l7.831,3.915a.522.522,0,0,1,.29.467V57.6A.522.522,0,0,1,70.312,58.119Z" transform="translate(-45.776 -35.533)" fill="#fd5c70"/>
  <path id="Path_15249" data-name="Path 15249" d="M89.566,101.132a1.566,1.566,0,1,1,1.566-1.566A1.566,1.566,0,0,1,89.566,101.132Zm0-2.088a.522.522,0,1,0,.522.522A.522.522,0,0,0,89.566,99.044Z" transform="translate(-65.03 -76.197)" fill="#fd5c70"/>
  <path id="Path_15250" data-name="Path 15250" d="M91.083,110.105H89.517a.522.522,0,0,1-.522-.566l.261-3.132a.522.522,0,0,1,1.044.039.522.522,0,0,1,1.044-.039l.261,3.132a.522.522,0,0,1-.522.566Zm-1-1.044h.433L90.3,106.5a.2.2,0,0,1,0-.039.2.2,0,0,1,0,.039Z" transform="translate(-65.764 -82.038)" fill="#fd5c70"/>
</svg>
