<svg xmlns="http://www.w3.org/2000/svg" width="229.453" height="233.659" viewBox="0 0 229.453 233.659">
  <g id="email_confirmation" data-name="email confirmation" transform="translate(-33.4 -17.114)">
    <circle id="Ellipse_265" data-name="Ellipse 265" cx="9.528" cy="9.528" r="9.528" transform="translate(33.4 201.404)" fill="#ecf3fe"/>
    <g id="Group_3506" data-name="Group 3506" transform="translate(52.162 44.921)">
      <g id="Group_3504" data-name="Group 3504">
        <path id="Path_15205" data-name="Path 15205" d="M295.146,150.667c-38.769-30.752-108.412-22.589-146.84,7.505-42.571,33.408-33.554,83.46-31.8,91.988,6.092,29.68,30.971,76.88,78.391,83.265,52.707,7.091,94.425-41.474,109.655-70.52C308.548,255.278,342.371,188.12,295.146,150.667Z" transform="translate(-113.508 -131.228)" fill="#ecf3fe"/>
        <path id="Path_15206" data-name="Path 15206" d="M317.2,405.338l-43.009-96.886a7.156,7.156,0,0,0-9.406-3.631l-77.733,34.5a7.156,7.156,0,0,0-3.631,9.406l43.009,96.886a7.156,7.156,0,0,0,9.406,3.631l77.733-34.5A7.156,7.156,0,0,0,317.2,405.338Z" transform="translate(-165.168 -262.062)" fill="#232323" opacity="0.15"/>
        <g id="Group_3497" data-name="Group 3497" transform="translate(19.792 36.159)">
          <path id="Path_15207" data-name="Path 15207" d="M322.394,390.144l-77.733,34.5a7.156,7.156,0,0,1-9.406-3.631l-43.034-96.886a7.156,7.156,0,0,1,3.631-9.406l77.733-34.5a7.156,7.156,0,0,1,9.406,3.631L326,380.738A7.125,7.125,0,0,1,322.394,390.144Z" transform="translate(-191.616 -279.616)" fill="#fff"/>
          <path id="Path_15208" data-name="Path 15208" d="M270.91,403.684,244.519,415.4a2.673,2.673,0,0,1-3.509-1.365h0a2.673,2.673,0,0,1,1.365-3.509l26.39-11.721a2.673,2.673,0,0,1,3.509,1.365h0A2.689,2.689,0,0,1,270.91,403.684Z" transform="translate(-228.806 -369.597)" fill="#f4b545"/>
          <path id="Path_15209" data-name="Path 15209" d="M358.253,380.984l-58.434,25.952a2.673,2.673,0,0,1-3.509-1.365h0a2.673,2.673,0,0,1,1.365-3.509l58.434-25.952a2.673,2.673,0,0,1,3.509,1.365h0A2.673,2.673,0,0,1,358.253,380.984Z" transform="translate(-270.631 -352.429)" fill="#e4ecf9"/>
          <path id="Path_15210" data-name="Path 15210" d="M354.295,428.184l-66.475,29.509a2.673,2.673,0,0,1-3.509-1.365h0a2.673,2.673,0,0,1,1.365-3.509l66.451-29.509a2.673,2.673,0,0,1,3.509,1.365h0A2.657,2.657,0,0,1,354.295,428.184Z" transform="translate(-261.555 -388.127)" fill="#e4ecf9"/>
          <path id="Path_15211" data-name="Path 15211" d="M375.27,475.308l-66.451,29.485a2.673,2.673,0,0,1-3.509-1.365h0a2.673,2.673,0,0,1,1.365-3.509l66.451-29.509a2.673,2.673,0,0,1,3.509,1.365h0A2.709,2.709,0,0,1,375.27,475.308Z" transform="translate(-277.438 -423.75)" fill="#e4ecf9"/>
          <path id="Path_15212" data-name="Path 15212" d="M396.195,522.484l-66.475,29.509a2.673,2.673,0,0,1-3.509-1.365h0a2.673,2.673,0,0,1,1.365-3.509l66.451-29.509a2.673,2.673,0,0,1,3.509,1.365h0A2.642,2.642,0,0,1,396.195,522.484Z" transform="translate(-293.245 -459.448)" fill="#e4ecf9"/>
          <path id="Path_15213" data-name="Path 15213" d="M417.17,569.684l-66.451,29.509a2.672,2.672,0,0,1-3.509-1.365h0a2.673,2.673,0,0,1,1.365-3.509l66.451-29.509a2.673,2.673,0,0,1,3.509,1.365h0A2.673,2.673,0,0,1,417.17,569.684Z" transform="translate(-309.127 -495.147)" fill="#e4ecf9"/>
          <path id="Path_15214" data-name="Path 15214" d="M438.095,616.884l-66.475,29.509a2.673,2.673,0,0,1-3.509-1.365h0a2.673,2.673,0,0,1,1.365-3.509l66.451-29.509a2.673,2.673,0,0,1,3.509,1.365h0A2.683,2.683,0,0,1,438.095,616.884Z" transform="translate(-324.934 -530.845)" fill="#e4ecf9"/>
          <path id="Path_15215" data-name="Path 15215" d="M459.07,664.084l-66.451,29.509a2.673,2.673,0,0,1-3.509-1.365h0a2.673,2.673,0,0,1,1.365-3.509L456.9,659.21a2.673,2.673,0,0,1,3.509,1.365h0A2.642,2.642,0,0,1,459.07,664.084Z" transform="translate(-340.817 -566.544)" fill="#e4ecf9"/>
        </g>
        <path id="Path_15216" data-name="Path 15216" d="M488.239,374.09V306.762a.675.675,0,0,0-.024-.219c0-.049-.024-.122-.024-.171s-.024-.122-.024-.171c-.024-.073-.024-.146-.049-.219a3.094,3.094,0,0,0-.146-.439h0a1.311,1.311,0,0,0-.122-.268,5.407,5.407,0,0,0-.512-.9c-.049-.073-.1-.122-.146-.195-.122-.146-.244-.292-.366-.414l-.122-.122a1.4,1.4,0,0,0-.195-.171l-.024-.024-.244-.195h0l-7.115-5.385V286.951l-7.676-7.676-4.191-4.191L456.171,264H434.508l-8.066-6.116a4.9,4.9,0,0,0-5.946,0l-7.993,6.068H374.588a8.361,8.361,0,0,0-8.334,8.334v26.78l-5.507,4.191-.244.195-.024.024a5,5,0,0,0-1.486,2.1,4.648,4.648,0,0,0-.292,1.657v66.914h0v.244h0v.682a1.845,1.845,0,0,0,.024.366v.171h0v.024c0,.073.024.146.024.219v.049a.089.089,0,0,0,.024.073c0,.024.024.049.024.1v.1c.024.073.049.171.073.244,0,.024,0,.024.024.049,0,.024.024.073.024.1s.024.073.024.1c.024.073.073.171.1.244h0a1.182,1.182,0,0,1,.073.171c0,.024.024.049.024.073.024.073.073.146.1.219l.024.024c0,.024.024.024.024.049.024.049.049.073.073.122,0,.024.024.024.024.049l.146.219c0,.024.024.024.024.049a1.349,1.349,0,0,0,.146.195c.024.024.049.073.073.1.049.049.073.1.122.146l.049.049a2.3,2.3,0,0,0,.244.244l.073.073c.024.024.073.049.1.1a4.687,4.687,0,0,0,.414.317c.024.024.049.024.073.049.049.024.073.049.122.073s.122.073.171.1.073.049.122.049l.146.073.146.073a.866.866,0,0,1,.219.1c.024,0,.024,0,.024.024.024,0,.049.024.073.024.049,0,.073.024.122.049a.085.085,0,0,1,.049.024h0l.292.073c.024,0,.049.024.073.024h.1a.537.537,0,0,0,.195.024h.122a.22.22,0,0,1,.122.024H484.048c.049,0,.073-.024.122-.024a.147.147,0,0,0,.1-.024h.024a1.058,1.058,0,0,0,.122-.024l.292-.073h0c.024,0,.049-.024.073-.024s.049-.024.1-.024c.024,0,.024,0,.049-.024.024,0,.024,0,.049-.024.024,0,.049-.024.073-.024a4.605,4.605,0,0,0,.609-.268h.024c.024-.024.073-.024.1-.049s.049-.024.1-.049c.024-.024.073-.049.1-.073.024,0,.024-.024.049-.024s.024-.024.049-.024c.049-.049.122-.073.171-.122l.024-.024c.024-.024.073-.049.1-.073s.073-.049.1-.073l.024-.024.024-.024c.024-.024.073-.049.1-.073l.073-.073.049-.049.073-.073.122-.122c.049-.049.073-.1.122-.146l.073-.073c.049-.073.122-.146.171-.219.024-.024.049-.073.073-.1s.024-.049.049-.073c.024-.049.073-.1.1-.146a217.548,217.548,0,0,1,.1-.195.185.185,0,0,0,.049-.1c.049-.1.1-.219.146-.317v-.024a.412.412,0,0,1,.049-.122c.024-.049.024-.073.049-.122h0a.147.147,0,0,0,.024-.1c0-.024.024-.073.024-.1s0-.024.024-.049v-.024a.346.346,0,0,1,.049-.146c0-.024.024-.049.024-.073v-.049c0-.024,0-.024.024-.049v-.049c0-.049.024-.122.024-.171s.024-.122.024-.171V374.09Z" transform="translate(-298.194 -226.258)" fill="#232323" opacity="0.15"/>
        <g id="Group_3500" data-name="Group 3500" transform="translate(65.258 25.695)">
          <path id="Path_15217" data-name="Path 15217" d="M508.093,427.62v68.425c0,.049-.024.122-.024.171s-.024.122-.024.171a.09.09,0,0,1-.024.073v.073a.089.089,0,0,1-.024.073.347.347,0,0,1-.049.146v.024c-.024.1-.049.171-.073.244h0c-.024.049-.024.1-.049.122-.024.049-.024.073-.049.122v.024c-.049.1-.1.219-.146.317-.024.024-.024.073-.049.1a.184.184,0,0,0-.049.1c-.024.024-.024.073-.049.1-.049.073-.073.122-.122.195-.024.049-.049.073-.073.122a2.126,2.126,0,0,1-.195.244,1.055,1.055,0,0,1-.146.171,1.131,1.131,0,0,1-.17.171l-.073.073-.073.073a.335.335,0,0,1-.1.073l-.024.024a2.126,2.126,0,0,1-.244.2.024.024,0,0,0-.024.024.852.852,0,0,1-.195.122c-.024.024-.049.024-.073.049s-.073.049-.1.073-.049.024-.1.049a.185.185,0,0,1-.1.049,4.279,4.279,0,0,1-.682.317c-.024,0-.024,0-.049.024-.024,0-.024,0-.049.024a.452.452,0,0,1-.171.049l-.292.073c-.049,0-.1.024-.146.024a.147.147,0,0,0-.1.024c-.049,0-.073.024-.122.024H383.062a.537.537,0,0,1-.195-.024.22.22,0,0,1-.122-.024.876.876,0,0,1-.268-.049.09.09,0,0,1-.073-.024l-.292-.073c-.049-.024-.122-.024-.171-.049a4.219,4.219,0,0,1-.755-.341c-.049-.024-.122-.073-.171-.1-.073-.049-.122-.073-.195-.122a4.745,4.745,0,0,1-1.023-.95,1.081,1.081,0,0,1-.195-.268,4.169,4.169,0,0,1-.536-.975c-.024-.073-.073-.171-.1-.244s-.049-.171-.073-.244c-.024-.1-.049-.171-.073-.268-.024-.073-.024-.171-.049-.244v-.049c0-.073-.024-.171-.024-.244v-.024a.536.536,0,0,0-.024-.195c0-.122-.024-.244-.024-.366V427.473a4.647,4.647,0,0,1,.292-1.657,4.739,4.739,0,0,1,1.486-2.1l.024-.024.244-.195a4.805,4.805,0,0,1,2.8-.9H503.366a1.5,1.5,0,0,1,.341.024h.073c.122,0,.219.024.341.024h.073c.1.024.195.024.268.049a.089.089,0,0,1,.073.024,1.793,1.793,0,0,1,.341.1,1.693,1.693,0,0,1,.317.122,3.174,3.174,0,0,1,.414.195.987.987,0,0,1,.219.122,3.172,3.172,0,0,1,.366.244h0l.244.195.024.024a1.225,1.225,0,0,1,.195.171c.049.049.1.073.122.122a2.966,2.966,0,0,1,.366.414c.049.073.1.122.146.195a5.405,5.405,0,0,1,.512.9c.049.1.073.171.122.268h0l.146.439c.024.073.024.146.049.219,0,.049.024.122.024.171s.024.122.024.171c0,.073.024.146.024.219v.171A1.127,1.127,0,0,0,508.093,427.62Z" transform="translate(-378.578 -377.294)" fill="#5b97ef"/>
          <path id="Path_15218" data-name="Path 15218" d="M508.254,285.344H379.3a4.74,4.74,0,0,1,1.486-2.1l.024-.024.244-.195L440.8,237.68a4.9,4.9,0,0,1,5.946,0l59.75,45.348h0l.244.195.024.024a1.221,1.221,0,0,1,.195.171c.049.049.1.073.122.122a2.958,2.958,0,0,1,.365.414c.049.073.1.122.146.195a5.4,5.4,0,0,1,.512.9.824.824,0,0,1,.146.292Z" transform="translate(-379.032 -236.675)" fill="#5b97ef"/>
          <g id="Group_3498" data-name="Group 3498" transform="translate(7.554 7.048)">
            <path id="Path_15219" data-name="Path 15219" d="M522,288.679v66.548a4.539,4.539,0,0,1-4.532,4.532H413.732a4.539,4.539,0,0,1-4.532-4.532V274.034a8.361,8.361,0,0,1,8.334-8.334H499.02l7.383,7.383,7.9,7.9Z" transform="translate(-409.2 -265.676)" fill="#fff"/>
            <path id="Path_15220" data-name="Path 15220" d="M782.5,353.6c.39.39,1.048,3.119,21.858,4.508V355.16Z" transform="translate(-691.535 -332.156)" fill="#cecece"/>
            <path id="Path_15221" data-name="Path 15221" d="M777.824,284.071a4.514,4.514,0,0,0,4.508,4.508h18.446L777.8,265.6v18.471Z" transform="translate(-687.98 -265.6)" fill="#ededed"/>
          </g>
          <g id="Group_3499" data-name="Group 3499" transform="translate(45.227 26.738)">
            <circle id="Ellipse_266" data-name="Ellipse 266" cx="18.739" cy="18.739" r="18.739" fill="#52d1bd"/>
            <path id="Path_15222" data-name="Path 15222" d="M608.741,381.024a.263.263,0,0,0-.341-.171l-.146.049a22.044,22.044,0,0,0-3.241,1.462,33.428,33.428,0,0,0-2.875,1.754,39.326,39.326,0,0,0-5.02,4.069c-.78.731-1.511,1.486-2.217,2.266s-1.389,1.584-2.047,2.388q-.731.914-1.389,1.828l-.8-.366-.828-.341a30.879,30.879,0,0,0-3.485-1.218,22.9,22.9,0,0,0-3.85-.78l-.171-.024a.268.268,0,0,0-.195.463l2.632,2.266c.877.755,1.754,1.511,2.632,2.242l2.656,2.242c.877.755,1.779,1.486,2.68,2.217h.024a.518.518,0,0,0,.755-.1h0l3.875-4.947,3.826-5c1.292-1.657,2.51-3.338,3.777-5.02s2.485-3.387,3.728-5.068A.284.284,0,0,0,608.741,381.024Z" transform="translate(-577.599 -372.446)" fill="#fff"/>
          </g>
          <path id="Path_15223" data-name="Path 15223" d="M442.97,463.872h0a3.632,3.632,0,0,1-.658.56l-58.97,36.381h-.268a4.515,4.515,0,0,1-1.413-.219.574.574,0,0,0-.2-.049,4.861,4.861,0,0,1-2-1.316c-.049-.049-.1-.122-.146-.171a4.767,4.767,0,0,1-.414-.56c-.049-.073-.073-.122-.122-.195-.024-.073-.073-.146-.1-.219a4.653,4.653,0,0,1-.487-2.1V428.173a4.647,4.647,0,0,1,.292-1.657,4.739,4.739,0,0,1,1.486-2.1L380,424.4l.244-.195a4.805,4.805,0,0,1,2.8-.9h1.1l5.19,3.192,47.737,29.461,1.8,1.1,3.436,2.12a2.434,2.434,0,0,1,.658.56h0A3.123,3.123,0,0,1,442.97,463.872Z" transform="translate(-378.2 -377.824)" fill="#3b82f4"/>
          <path id="Path_15224" data-name="Path 15224" d="M706.552,428.149v68.425c0,.049-.024.122-.024.171s-.024.122-.024.171v.024c0,.024,0,.024-.024.049v.073a.089.089,0,0,1-.024.073.346.346,0,0,1-.049.146v.024c-.024.1-.049.171-.073.244h0c-.024.049-.024.073-.049.122a.411.411,0,0,1-.049.122v.024c-.049.1-.1.219-.146.317-.024.024-.024.073-.049.1a.185.185,0,0,0-.049.1c-.024.024-.024.073-.049.1-.049.073-.073.122-.122.195-.024.049-.049.073-.073.122a2.132,2.132,0,0,1-.2.244,1.064,1.064,0,0,1-.146.171,1.127,1.127,0,0,1-.171.171l-.073.073-.073.073a.336.336,0,0,1-.1.073l-.024.024a2.125,2.125,0,0,1-.244.195.024.024,0,0,0-.024.024.853.853,0,0,1-.2.122c-.024.024-.049.024-.073.049s-.073.049-.1.073-.049.024-.1.049a.185.185,0,0,1-.1.049,4.266,4.266,0,0,1-.682.317c-.024,0-.024,0-.049.024-.024,0-.024,0-.049.024a.452.452,0,0,1-.171.049l-.292.073c-.049,0-.1.024-.146.024a.146.146,0,0,0-.1.024c-.049,0-.073.024-.122.024h0a.147.147,0,0,0-.1.024h-.9l-58.97-36.381a2.435,2.435,0,0,1-.658-.56h0a3.1,3.1,0,0,1,0-4.167h0a4.976,4.976,0,0,1,.658-.56l3.411-2.12,1.8-1.1,47.639-29.339,5.19-3.192h1.1a1.5,1.5,0,0,1,.341.024h.073c.122,0,.219.024.341.024h.073c.1.024.2.024.268.049a.09.09,0,0,1,.073.024,1.793,1.793,0,0,1,.341.1,1.688,1.688,0,0,1,.317.122,3.173,3.173,0,0,1,.414.195.991.991,0,0,1,.219.122,3.182,3.182,0,0,1,.366.244h0l.244.195.024.024a1.221,1.221,0,0,1,.2.171c.049.049.1.073.122.122a2.957,2.957,0,0,1,.365.414c.049.073.1.122.146.195a5.411,5.411,0,0,1,.512.9c.049.1.073.171.122.268h0l.146.439c.024.073.024.146.049.219,0,.049.024.122.024.171s.024.122.024.171c0,.073.024.146.024.219v.171A1.091,1.091,0,0,1,706.552,428.149Z" transform="translate(-577.037 -377.824)" fill="#3b82f4"/>
          <path id="Path_15225" data-name="Path 15225" d="M507.715,589v.707a4.959,4.959,0,0,1-4.849,5.068H383.049a4.959,4.959,0,0,1-4.849-5.068V589l61.626-40.548a5.634,5.634,0,0,1,6.263,0Z" transform="translate(-378.2 -471.759)" fill="#474747" opacity="0.29"/>
          <path id="Path_15226" data-name="Path 15226" d="M507.715,595.434v.682a4.846,4.846,0,0,1-4.849,4.849H383.049a4.846,4.846,0,0,1-4.849-4.849v-.682l61.626-38.842a5.871,5.871,0,0,1,6.263,0Z" transform="translate(-378.2 -477.951)" fill="#5b97ef"/>
        </g>
        <path id="Path_15227" data-name="Path 15227" d="M626.7,670.209l-.195-.122a3.189,3.189,0,0,0-1.243-4.167,3.245,3.245,0,0,0-4.264.9l-.195-.122a.788.788,0,0,0-1.072.268l-1.1,1.828a.775.775,0,0,0,.292,1.072l.171.1-1.121,1.876a1.179,1.179,0,0,0-1.438.512L588.1,720.041a1.215,1.215,0,0,0,.171,1.438l.365,3.338a1.641,1.641,0,0,0,2.242,1.34L594,724.891a1.228,1.228,0,0,0,1.365-.536l2.169-3.655,25-41.937,1.218-2.071a1.191,1.191,0,0,0-.244-1.535l1.121-1.876.171.1a.775.775,0,0,0,1.072-.292l.049-.073,1.048-1.755a.666.666,0,0,0,.1-.341A.707.707,0,0,0,626.7,670.209Z" transform="translate(-471.572 -535.292)" fill="#232323" opacity="0.15"/>
        <g id="Group_3501" data-name="Group 3501" transform="translate(113.836 128.469)">
          <path id="Path_15228" data-name="Path 15228" d="M580.961,883.978l4-1.438L578.5,878.3l.268,4.24A1.653,1.653,0,0,0,580.961,883.978Z" transform="translate(-578.269 -824.724)" fill="#434444"/>
          <path id="Path_15229" data-name="Path 15229" d="M712.8,679.47l-4.143-2.7a.774.774,0,0,1-.219-1.048l1.608-2.461a.774.774,0,0,1,1.048-.219l4.143,2.7a.774.774,0,0,1,.219,1.048l-1.608,2.461A.735.735,0,0,1,712.8,679.47Z" transform="translate(-676.454 -669.39)" fill="#434444"/>
          <path id="Path_15230" data-name="Path 15230" d="M719.189,665.128h0a3.222,3.222,0,0,1-.926-4.459l.512-.78a3.222,3.222,0,0,1,4.459-.926h0a3.222,3.222,0,0,1,.926,4.459l-.512.78A3.226,3.226,0,0,1,719.189,665.128Z" transform="translate(-683.575 -658.435)" fill="#434444"/>
          <path id="Path_15231" data-name="Path 15231" d="M583.119,735.286,578.1,732a1.243,1.243,0,0,1-.365-1.681l30.435-46.4a1.186,1.186,0,0,1,1.657-.341l5.02,3.29a1.214,1.214,0,0,1,.341,1.681l-1.316,2.022-26.756,40.792-2.339,3.558A1.208,1.208,0,0,1,583.119,735.286Z" transform="translate(-577.552 -677.299)" fill="#5e5e5e"/>
          <path id="Path_15232" data-name="Path 15232" d="M605.865,746.841l-3.022-1.974a1.1,1.1,0,0,1-.317-1.535l25.562-38.988a1.129,1.129,0,0,1,1.56-.317l3,1.974Z" transform="translate(-596.301 -692.777)" fill="#565555"/>
          <path id="Path_15233" data-name="Path 15233" d="M670.578,710.734l-10.259,15.644a.932.932,0,0,1-1.267.268l-.926-.609a.932.932,0,0,1-.268-1.267l10.259-15.644a.932.932,0,0,1,1.267-.268l.926.609A.937.937,0,0,1,670.578,710.734Z" transform="translate(-638.181 -696.463)" fill="#434444"/>
          <rect id="Rectangle_1960" data-name="Rectangle 1960" width="1.34" height="2.949" transform="matrix(0.548, -0.836, 0.836, 0.548, 28.405, 15.005)" fill="#383838"/>
          <path id="Path_15234" data-name="Path 15234" d="M718.11,669.412l-5.726-3.753a.816.816,0,0,1-.244-1.1l1.17-1.779a.816.816,0,0,1,1.1-.244l5.726,3.777a.792.792,0,0,1,.341.731.819.819,0,0,1-.122.341l-1.121,1.706-.049.073A.742.742,0,0,1,718.11,669.412Z" transform="translate(-679.256 -661.452)" fill="#5e5e5e"/>
          <path id="Path_15235" data-name="Path 15235" d="M729.459,675.919l-3.631-2.388a.707.707,0,0,1-.195-.975l.536-.829a.732.732,0,0,1,1-.195l3.558,2.339a.819.819,0,0,1-.122.341Z" transform="translate(-689.459 -668.252)" fill="#565555"/>
        </g>
        <path id="Path_15236" data-name="Path 15236" d="M144.8,312.093h-.1c-1.608-.171-3.217-.439-4.752-.755a.884.884,0,1,1,.366-1.73c1.486.317,3.046.56,4.581.731a.88.88,0,0,1,.78.975A.893.893,0,0,1,144.8,312.093Zm-9.26-1.949a1.037,1.037,0,0,1-.268-.049,41.245,41.245,0,0,1-4.508-1.755.883.883,0,1,1,.731-1.608,35.106,35.106,0,0,0,4.313,1.657.9.9,0,0,1,.585,1.121A.876.876,0,0,1,135.544,310.143Zm-8.577-3.948a.941.941,0,0,1-.487-.146,30.258,30.258,0,0,1-3.9-2.948.88.88,0,1,1,1.17-1.316,28.652,28.652,0,0,0,3.655,2.754.874.874,0,0,1,.268,1.218A.745.745,0,0,1,126.967,306.2ZM120,299.86a.856.856,0,0,1-.707-.366,19.967,19.967,0,0,1-2.412-4.313.887.887,0,0,1,1.657-.634,17.429,17.429,0,0,0,2.193,3.923.9.9,0,0,1-.195,1.243A1.044,1.044,0,0,1,120,299.86Zm7.481-6.409a.887.887,0,0,1-.877-.731.87.87,0,0,1,.731-1.023,11.9,11.9,0,0,0,4.094-1.56.886.886,0,1,1,.926,1.511,13.412,13.412,0,0,1-4.727,1.8Zm-4.679-.219a1.036,1.036,0,0,1-.268-.049,11.751,11.751,0,0,1-4.337-2.656.9.9,0,1,1,1.243-1.292,9.863,9.863,0,0,0,3.655,2.266.9.9,0,0,1,.585,1.121A1,1,0,0,1,122.8,293.232Zm-6.189-2.1a.876.876,0,0,1-.877-.8,22.175,22.175,0,0,1-.1-2.217c0-.366,0-.731.024-1.1a.867.867,0,0,1-.536-.39,29.4,29.4,0,0,1-2.169-4.386.887.887,0,0,1,1.657-.634,28.016,28.016,0,0,0,1.511,3.217.885.885,0,0,1,.658-.195.9.9,0,0,1,.78,1,20.947,20.947,0,0,0-.146,2.486,19.188,19.188,0,0,0,.1,2.047.9.9,0,0,1-.8.975Zm18.593-2.68a1.093,1.093,0,0,1-.463-.122.876.876,0,0,1-.292-1.218,7.341,7.341,0,0,0,.39-.755,9.347,9.347,0,0,0,.829-3.338.892.892,0,0,1,1.779.122,11.087,11.087,0,0,1-1,3.972c-.146.317-.317.609-.487.9A.868.868,0,0,1,135.2,288.456Zm-17.374-6.628a.86.86,0,0,1-.341-.073.887.887,0,0,1-.487-1.17,14.09,14.09,0,0,1,2.68-4.264.89.89,0,0,1,1.267-.024.913.913,0,0,1,.049,1.267,11.71,11.71,0,0,0-2.339,3.7A.886.886,0,0,1,117.829,281.828Zm18.057-2.51a.863.863,0,0,1-.829-.585,7.7,7.7,0,0,0-2.412-3.411.887.887,0,1,1,1.072-1.413,9.205,9.205,0,0,1,3,4.191.9.9,0,0,1-.512,1.145A.75.75,0,0,1,135.885,279.318Zm-23.539-1.023a.88.88,0,0,1-.853-.682,35,35,0,0,1-.853-4.776.883.883,0,1,1,1.754-.195,35.7,35.7,0,0,0,.828,4.557.876.876,0,0,1-.658,1.072A.675.675,0,0,1,112.346,278.294Zm11.843-3.168a.884.884,0,0,1-.8-.512.894.894,0,0,1,.439-1.17,12.091,12.091,0,0,1,4.922-1.17h.024a.877.877,0,1,1,0,1.754h-.024a10.208,10.208,0,0,0-4.191,1A.688.688,0,0,1,124.189,275.127Zm-12.915-6.214h0a.864.864,0,0,1-.877-.9,33.179,33.179,0,0,1,.341-4.216c.024-.219.073-.439.1-.658a.879.879,0,0,1,1.73.317c-.024.195-.073.39-.1.609a29.4,29.4,0,0,0-.341,3.972A.839.839,0,0,1,111.274,268.913Zm1.681-9.26a1.679,1.679,0,0,1-.317-.049.9.9,0,0,1-.536-1.145,31.342,31.342,0,0,1,2.047-4.411.895.895,0,0,1,1.56.877,29.1,29.1,0,0,0-1.925,4.167A.911.911,0,0,1,112.955,259.653Zm4.605-8.236a.733.733,0,0,1-.536-.195.89.89,0,0,1-.171-1.243,40.515,40.515,0,0,1,3.192-3.631.9.9,0,1,1,1.267,1.267,36.423,36.423,0,0,0-3.046,3.46A.9.9,0,0,1,117.561,251.417Zm6.677-6.725a.938.938,0,0,1-.707-.341.865.865,0,0,1,.146-1.243c1.243-.975,2.559-1.925,3.923-2.8a.882.882,0,0,1,.95,1.486c-1.316.853-2.583,1.754-3.777,2.7A.733.733,0,0,1,124.238,244.691Zm7.944-5.117a.852.852,0,0,1-.78-.487.888.888,0,0,1,.39-1.194c1.389-.731,2.875-1.413,4.362-2.023a.9.9,0,1,1,.682,1.657c-1.438.609-2.875,1.267-4.216,1.974A1.637,1.637,0,0,1,132.181,239.574Zm8.724-3.631a.916.916,0,0,1-.853-.609.891.891,0,0,1,.56-1.121c1.121-.366,2.291-.707,3.436-1a.9.9,0,1,1,.463,1.73c-1.121.292-2.242.634-3.338.975C141.1,235.919,141,235.943,140.905,235.943Z" transform="translate(-110.396 -208.341)" fill="#52d1bd"/>
        <g id="Group_3503" data-name="Group 3503" transform="translate(27.296 11.883)">
          <circle id="Ellipse_267" data-name="Ellipse 267" cx="12.744" cy="12.744" r="12.744" transform="matrix(0.998, -0.057, 0.057, 0.998, 0, 2.869)" fill="#232323" opacity="0.1"/>
          <g id="Group_3502" data-name="Group 3502" transform="translate(2.846 0)">
            <circle id="Ellipse_268" data-name="Ellipse 268" cx="12.744" cy="12.744" r="12.744" transform="translate(0 0.102) rotate(-0.229)" fill="#52d1bd"/>
            <path id="Path_15237" data-name="Path 15237" d="M261.914,211.354l3,2.632a1.085,1.085,0,0,0,1.8-.755l.268-3.972a1.029,1.029,0,0,1,.536-.853l3.436-2.023a1.092,1.092,0,0,0-.146-1.949l-3.7-1.486a1.067,1.067,0,0,1-.658-.78l-.877-3.9a1.1,1.1,0,0,0-1.9-.463l-2.559,3.07a1.14,1.14,0,0,1-.95.39l-3.972-.366a1.085,1.085,0,0,0-1.023,1.657l2.12,3.387a1.085,1.085,0,0,1,.073,1.023l-1.584,3.655a1.087,1.087,0,0,0,1.267,1.486l3.875-.975A1.006,1.006,0,0,1,261.914,211.354Z" transform="translate(-249.899 -193.174)" fill="#fff"/>
          </g>
        </g>
      </g>
      <path id="Path_15238" data-name="Path 15238" d="M169.145,588.372l1.876-.975a.573.573,0,0,1,.829.609l-.366,2.071a.559.559,0,0,0,.171.512l1.511,1.486a.57.57,0,0,1-.317.975l-2.1.292a.589.589,0,0,0-.439.317l-.926,1.9a.582.582,0,0,1-1.048,0l-.926-1.9a.549.549,0,0,0-.439-.317l-2.1-.292a.574.574,0,0,1-.317-.975l1.511-1.486a.559.559,0,0,0,.171-.512l-.366-2.071a.578.578,0,0,1,.829-.609l1.876.975A.573.573,0,0,0,169.145,588.372Z" transform="translate(-151.234 -476.19)" fill="#4786d1"/>
      <circle id="Ellipse_269" data-name="Ellipse 269" cx="2.973" cy="2.973" r="2.973" transform="translate(29.486 199.906)" fill="#4786d1"/>
      <circle id="Ellipse_270" data-name="Ellipse 270" cx="2.973" cy="2.973" r="2.973" transform="translate(202.282 132.078) rotate(-45)" fill="#4786d1"/>
      <path id="Path_15239" data-name="Path 15239" d="M502.813,193.707l-4.021,3.436a1.946,1.946,0,0,1-1.876.366,1.865,1.865,0,0,1-1.243-1.462l-.975-5.19a1.867,1.867,0,0,1,.634-1.8h0a1.946,1.946,0,0,1,1.876-.366l5,1.754a1.865,1.865,0,0,1,1.243,1.462A1.922,1.922,0,0,1,502.813,193.707Zm-6.994-3.046.975,5.19a.682.682,0,0,0,.487.56.69.69,0,0,0,.731-.146l4.045-3.436a.749.749,0,0,0,.244-.707.731.731,0,0,0-.487-.56l-5-1.755a.713.713,0,0,0-.731.146h0a.674.674,0,0,0-.268.707Z" transform="translate(-401.027 -174.61)" fill="#4786d1"/>
      <g id="Group_3505" data-name="Group 3505" transform="translate(189.802 27.992)">
        <path id="Path_15240" data-name="Path 15240" d="M894.271,256.042a4.971,4.971,0,1,1,4.971-4.971A4.976,4.976,0,0,1,894.271,256.042Zm0-8.577a3.606,3.606,0,1,0,3.606,3.606A3.6,3.6,0,0,0,894.271,247.465Z" transform="translate(-889.3 -246.1)" fill="#4786d1"/>
        <circle id="Ellipse_271" data-name="Ellipse 271" cx="2.534" cy="2.534" r="2.534" transform="translate(2.437 2.437)" fill="#4786d1"/>
      </g>
    </g>
    <circle id="Ellipse_272" data-name="Ellipse 272" cx="23.466" cy="23.466" r="23.466" transform="translate(161.428 64.046) rotate(-89.884)" fill="#f8fbff"/>
    <circle id="Ellipse_273" data-name="Ellipse 273" cx="14.158" cy="14.158" r="14.158" transform="translate(193.496 205.108)" fill="#f8fbff"/>
  </g>
</svg>
