<svg id="Emergencycontact" xmlns="http://www.w3.org/2000/svg" width="27.585" height="27.577" viewBox="0 0 27.585 27.577">
  <path id="Path_15868" data-name="Path 15868" d="M16.365,168.731a1.7,1.7,0,0,0-2.4,0L12.4,170.288a.133.133,0,0,1-.113.038A7.508,7.508,0,0,1,6.159,164.2a.139.139,0,0,1,.038-.119l1.557-1.557a1.716,1.716,0,0,0,0-2.4l-2.247-2.247a1.7,1.7,0,0,0-2.4,0l-1.757,1.751a4.618,4.618,0,0,0-1.094,4.764,19.2,19.2,0,0,0,8.638,10.379.4.4,0,0,0,.55-.151.4.4,0,0,0-.151-.55,18.386,18.386,0,0,1-8.272-9.948,3.806,3.806,0,0,1,.9-3.923l1.757-1.757a.891.891,0,0,1,1.256,0l2.247,2.247a.891.891,0,0,1,0,1.256L5.62,163.5a.962.962,0,0,0-.264.83A8.493,8.493,0,0,0,7.673,168.8a8.4,8.4,0,0,0,4.478,2.317.936.936,0,0,0,.824-.264l1.557-1.557a.891.891,0,0,1,1.256,0l2.247,2.247a.9.9,0,0,1,0,1.256l-1.757,1.757a3.8,3.8,0,0,1-3.923.9c-.48-.167-.965-.361-1.428-.566a.4.4,0,0,0-.329.738c.485.216.986.415,1.493.593a4.6,4.6,0,0,0,4.758-1.094l1.757-1.757a1.716,1.716,0,0,0,0-2.4Z" transform="translate(0.001 -148.898)" fill="#27276d"/>
  <path id="Path_15869" data-name="Path 15869" d="M254.19,2.085A7.208,7.208,0,0,0,247.276.334a.4.4,0,0,0,.216.776,6.353,6.353,0,0,1,8.067,6.068,6.353,6.353,0,0,1-9.36,5.647.719.719,0,0,0-.577-.049l-2.953.986.986-2.953a.742.742,0,0,0-.048-.577,6.4,6.4,0,0,1-.69-3.918,6.314,6.314,0,0,1,1.838-3.627,6.4,6.4,0,0,1,1.132-.884.4.4,0,1,0-.42-.69,7.566,7.566,0,0,0-1.288,1A7.1,7.1,0,0,0,242.109,6.2a7.194,7.194,0,0,0,.765,4.386l-1.029,3.072a.731.731,0,0,0,.921.921l3.072-1.029a7.22,7.22,0,0,0,4.36.765,7.167,7.167,0,0,0,6.165-7.151,7.089,7.089,0,0,0-2.172-5.082Z" transform="translate(-228.777 -0.074)" fill="#27276d"/>
  <path id="Path_15870" data-name="Path 15870" d="M312.656,61.951h-1.875V60.071a.77.77,0,0,0-.771-.771h-1.094a.77.77,0,0,0-.771.771v1.875h-1.875a.77.77,0,0,0-.771.771V63.81a.77.77,0,0,0,.771.771h1.875v1.875a.77.77,0,0,0,.771.771h1.094a.77.77,0,0,0,.771-.771V64.581h1.875a.77.77,0,0,0,.771-.771V62.716A.769.769,0,0,0,312.656,61.951Zm-.038,1.821H310.56a.589.589,0,0,0-.587.587v2.059h-1.018V64.36a.589.589,0,0,0-.587-.587h-2.059V62.754h2.059a.589.589,0,0,0,.587-.587V60.114h1.018v2.059a.589.589,0,0,0,.587.587h2.059Z" transform="translate(-289.037 -56.109)" fill="#fc6477"/>
</svg>
