<svg id="Employment_compensation" data-name="Employment compensation" xmlns="http://www.w3.org/2000/svg" width="28.511" height="27.597" viewBox="0 0 28.511 27.597">
  <path id="Path_15244" data-name="Path 15244" d="M45.227,52.731a.534.534,0,0,0-.534.534,4.445,4.445,0,0,1-4.44,4.44H32.945a.533.533,0,0,0-.534.534v1.107a.552.552,0,0,1-.552.552h-.707a.552.552,0,0,1-.552-.552V58.238a.533.533,0,0,0-.534-.534H22.757a4.445,4.445,0,0,1-4.44-4.44.534.534,0,1,0-1.067,0V66.938a3.031,3.031,0,0,0,3.028,3.028H42.733a3.031,3.031,0,0,0,3.028-3.028V53.265a.534.534,0,0,0-.534-.534Zm-.534,14.207A1.963,1.963,0,0,1,42.733,68.9H20.278a1.963,1.963,0,0,1-1.961-1.961V56.519a5.5,5.5,0,0,0,4.44,2.252h6.775v.574a1.621,1.621,0,0,0,1.619,1.619h.707a1.621,1.621,0,0,0,1.619-1.619v-.574h6.775a5.5,5.5,0,0,0,4.439-2.252Z" transform="translate(-17.25 -42.369)" fill="#27276d"/>
  <path id="Path_15245" data-name="Path 15245" d="M51.318,18.749H46.082a4.1,4.1,0,0,0-4.092,4.092v2.11a.533.533,0,0,0,.534.534h2.134a.533.533,0,0,0,.534-.534v-2.11a.891.891,0,0,1,.89-.89h5.236a.893.893,0,0,1,.893.89v2.11a.533.533,0,0,0,.534.534h2.134a.533.533,0,0,0,.534-.534v-2.11A4.1,4.1,0,0,0,51.318,18.749Zm3.028,5.669H53.278V22.841a1.962,1.962,0,0,0-1.961-1.958H46.082a1.96,1.96,0,0,0-1.958,1.958v1.576H43.057V22.841a3.028,3.028,0,0,1,3.025-3.025h5.236a3.03,3.03,0,0,1,3.028,3.025Z" transform="translate(-34.446 -18.749)" fill="#fd5c70"/>
  <path id="Path_15246" data-name="Path 15246" d="M43.892,37.339H19.119a1.871,1.871,0,0,0-1.869,1.869v3.357a5.513,5.513,0,0,0,5.507,5.507h7.309a.533.533,0,0,0,.534-.534v-1.11a.551.551,0,0,1,.552-.549h.707a.551.551,0,0,1,.552.549v1.11a.533.533,0,0,0,.534.534h7.309a5.513,5.513,0,0,0,5.507-5.507V39.208A1.871,1.871,0,0,0,43.892,37.339Zm.8,5.226A4.445,4.445,0,0,1,40.254,47H33.478v-.576a1.619,1.619,0,0,0-1.619-1.616h-.707a1.619,1.619,0,0,0-1.619,1.616V47H22.757a4.445,4.445,0,0,1-4.44-4.439V39.208a.8.8,0,0,1,.8-.8H43.892a.8.8,0,0,1,.8.8Z" transform="translate(-17.25 -31.67)" fill="#27276d"/>
  <path id="Path_15247" data-name="Path 15247" d="M59.857,61.852h-.707a1.619,1.619,0,0,0-1.619,1.616v2.217A1.621,1.621,0,0,0,59.149,67.3h.707a1.621,1.621,0,0,0,1.619-1.619V63.468a1.619,1.619,0,0,0-1.619-1.616Zm.552,3.833a.552.552,0,0,1-.552.552h-.707a.552.552,0,0,1-.552-.552V63.468a.551.551,0,0,1,.552-.549h.707a.551.551,0,0,1,.552.549Z" transform="translate(-45.248 -48.709)" fill="#fd5c70"/>
</svg>
