<?xml version="1.0" encoding="UTF-8"?><svg id="Layer_1" xmlns="http://www.w3.org/2000/svg" viewBox="0 0 1400.17 1264.78"><defs><style>.cls-1{opacity:.1;}.cls-2,.cls-3{fill:#fff;}.cls-4{fill:#00a4ff;}.cls-5{fill:#bbf1ff;}.cls-6{fill:#bdd9e0;}.cls-7{fill:#88dbff;}.cls-8{fill:#27bdff;}.cls-9{fill:#3b5654;}.cls-3,.cls-10{opacity:.2;}</style></defs><path class="cls-5" d="M837.97,18.31c-242.57-58.9-505.59,28.6-661.96,201.12-35.71,39.4-67.13,82.23-93.66,127.57C13.27,465.07-24.73,703.59,18.05,836.52c79.66,247.53,314.36,376.18,574.53,416.84,270.6,42.29,528.02-33.96,714.07-210.97,74.82-71.19,103.6-189.46,90.44-291.7-8.13-63.18-28.92-118.97-76.64-159.47-50.43-42.8-109.41-61.01-162.78-95.68-50.88-33.06-92.62-85.18-119.79-140.39-16.46-33.45-29.66-69.4-30.32-106.78-.82-45.96,8.07-94.47-9.77-138.19-23.1-56.62-103.36-78.15-159.82-91.86Z"/><path class="cls-7" d="M1109.55,295.96l-33.21,223.41-85.92,577.94c-2.28,15.41-9.44,28.87-19.66,39.1-15.12,15.15-37,23.18-59.81,19.79l-133.12-19.79-481.5-71.59-18.55-2.76c-38.21-5.68-64.58-41.25-58.9-79.46l77.45-520.97,39.93-268.52,1.76-11.87c5.68-38.21,41.25-64.56,79.46-58.9l430.65,64.03,116.23,17.29,86.31,12.83c38.21,5.68,64.58,41.25,58.9,79.46Z"/><path class="cls-1" d="M1076.34,315.66v203.71l-85.92,577.94c-2.28,15.41-9.44,28.87-19.66,39.1h-192.93l-481.5-71.59V256.32c0-27.89,16.32-51.96,39.93-63.19,9.1-4.33,19.27-6.74,30.01-6.74H947.06l17.29,17.29,111.99,111.99Z"/><path class="cls-2" d="M1054.22,293.54v750.83c0,38.63-31.3,69.93-69.93,69.93H344.14c-38.63,0-69.93-31.3-69.93-69.93V234.2c0-38.63,31.3-69.93,69.93-69.93H924.94l129.28,129.28Z"/><path class="cls-1" d="M1054.22,293.54v17.78h-41.57c-38.63,0-69.93-31.3-69.93-69.93v-59.34l111.5,111.5Z"/><path class="cls-1" d="M1031.21,523.15c-21.75-5.79-44.38-8.77-67.47-8.77-69.65,0-135.12,27.11-184.35,76.36-49.25,49.25-76.36,114.72-76.36,184.35,0,23.1,2.98,45.74,8.77,67.47,11.65,43.8,34.68,83.97,67.59,116.88,49.23,49.23,114.71,76.35,184.35,76.35,31.38,0,61.91-5.5,90.48-16.06v-489.29c-7.53-2.79-15.21-5.22-23.01-7.29Zm-269.04,259.73v-.34c.03,.89,.07,1.8,.12,2.7-.04-.79-.09-1.57-.12-2.36Zm1.48,17.87c-.06-.48-.12-.95-.16-1.43-.06-.36-.09-.72-.13-1.09-.07-.6-.13-1.18-.19-1.77,.09,.95,.21,1.91,.33,2.86,.1,.94,.24,1.89,.36,2.85-.06-.48-.13-.94-.19-1.42Zm4.19,22.57c-.45-1.85-.86-3.7-1.27-5.58,.63,2.86,1.3,5.71,2.03,8.52-.25-.98-.51-1.95-.76-2.94Zm3.19,11.44c-.21-.66-.39-1.28-.58-1.92,.25,.82,.51,1.63,.76,2.45-.06-.18-.12-.34-.18-.52Zm4.12,11.93c-.21-.58-.43-1.16-.66-1.74-.15-.4-.3-.81-.43-1.19-.03-.09-.06-.18-.09-.28,.52,1.45,1.06,2.89,1.63,4.32-.15-.37-.3-.73-.45-1.1Zm1.8,4.58c-.16-.4-.31-.82-.48-1.22,.31,.76,.61,1.54,.94,2.3-.16-.36-.31-.72-.46-1.07Zm9.4,19.78c-.3-.55-.61-1.12-.91-1.69-.18-.33-.34-.67-.51-1,.69,1.31,1.39,2.61,2.1,3.91-.22-.4-.46-.81-.69-1.22Zm3.59,6.34c.27,.45,.54,.89,.81,1.34,0,.03,.03,.06,.03,.07-.28-.46-.57-.94-.84-1.42Zm188.35-303.46c1.01,.06,2.03,.13,3.03,.22,1.01,.09,2.01,.18,3,.28,.12,.01,.22,.03,.34,.04-2.12-.22-4.24-.4-6.37-.55Zm10.28,.98c.27,.03,.55,.07,.82,.1,.46,.06,.94,.13,1.4,.19-.75-.1-1.48-.19-2.22-.3Zm20.61,3.65c.92,.21,1.85,.42,2.77,.66,1.01,.25,2.01,.51,3.03,.76,.58,.16,1.15,.31,1.73,.48-2.49-.67-5.01-1.31-7.53-1.89Zm9.75,2.52c.79,.21,1.57,.43,2.34,.67,.7,.21,1.4,.42,2.1,.64,.18,.06,.36,.12,.54,.18-1.66-.52-3.31-1.01-4.98-1.49Zm15.35,5.06c.34,.12,.7,.25,1.04,.39,.37,.13,.73,.28,1.1,.43-.72-.28-1.43-.55-2.15-.82Zm4.38,1.7c.42,.16,.84,.31,1.24,.49,.36,.15,.72,.3,1.07,.45-.78-.31-1.54-.63-2.31-.94Zm2.37,.95c.39,.15,.76,.31,1.13,.48,.36,.15,.73,.31,1.09,.48-.75-.31-1.48-.63-2.22-.95Z"/><g><g><polygon class="cls-6" points="1353.71 1152.56 1319.66 1186.62 1116.86 983.82 1077.09 944.06 1061.7 928.67 1095.76 894.61 1111.15 910 1150.91 949.77 1353.71 1152.56"/><g class="cls-10"><rect x="1089.92" y="918.8" width="48.16" height="56.23" transform="translate(-343.28 1065.06) rotate(-45)"/></g><path class="cls-9" d="M1323.03,1206.31l-181.45-181.45c-6.62-6.62-6.62-17.34,0-23.96l26.41-26.41c6.62-6.62,17.34-6.62,23.96,0l181.45,181.45c6.62,6.62,6.62,17.34,0,23.96l-26.41,26.41c-6.62,6.62-17.34,6.62-23.96,0Z"/><path class="cls-6" d="M1145.01,941.2l-36.72,36.72c-6.32,6.32-16.57,6.32-22.89,0l-3.62-3.64-13.25-13.25c-6.32-6.31-6.32-16.56,0-22.88l36.72-36.72c6.32-6.32,16.57-6.32,22.88,0l14.03,14.02,2.85,2.85c6.32,6.32,6.32,16.57,0,22.89Z"/><g class="cls-10"><path d="M1128.13,901.44c-6.31-6.32-16.56-6.32-22.88,0l-36.72,36.72c-6.32,6.32-6.32,16.57,0,22.88l13.25,13.25c12.38-8.68,24.08-18.51,34.99-29.42,9.26-9.26,17.73-19.09,25.38-29.41l-14.03-14.02Z"/></g><g><path class="cls-6" d="M1107.14,566.53c-32.91-32.91-73.07-55.94-116.88-67.59-21.74-5.79-44.38-8.77-67.47-8.77-69.64,0-135.11,27.11-184.35,76.36-49.25,49.24-76.36,114.71-76.36,184.35,0,23.1,2.99,45.74,8.77,67.47,11.65,43.8,34.68,83.97,67.59,116.88,49.24,49.24,114.71,76.35,184.35,76.35,54.2,0,105.88-16.43,149.36-46.93,4.95-3.48,9.81-7.14,14.55-11,7.09-5.74,13.91-11.89,20.45-18.42,4.91-4.91,9.59-9.97,14.04-15.19,3.96-4.63,7.74-9.36,11.34-14.21,33.09-44.61,50.97-98.41,50.97-154.95,0-69.64-27.11-135.11-76.35-184.35Zm-184.35,386.05c-73.3,0-137.58-39.3-172.91-97.93-.02-.05-.06-.09-.08-.14-.54-.9-1.08-1.8-1.6-2.72-.39-.67-.77-1.34-1.15-2.01-.56-.97-1.1-1.96-1.64-2.95-.3-.56-.61-1.12-.91-1.69-2.35-4.43-4.54-8.96-6.56-13.57-.33-.75-.66-1.5-.97-2.25-.33-.75-.63-1.51-.95-2.27-.62-1.51-1.22-3.05-1.8-4.58-.22-.57-.45-1.16-.66-1.75-.15-.4-.3-.8-.43-1.19-.21-.56-.41-1.12-.61-1.69-.86-2.41-1.66-4.85-2.42-7.31-.22-.7-.43-1.41-.64-2.11-.25-.8-.47-1.59-.69-2.39-.21-.73-.41-1.44-.61-2.18-.16-.57-.32-1.15-.47-1.73-.26-1.01-.52-2.01-.77-3.02-.46-1.85-.88-3.7-1.28-5.58-.15-.68-.29-1.36-.43-2.05-.35-1.7-.68-3.4-.98-5.12-.09-.54-.19-1.07-.28-1.6-.47-2.72-.87-5.46-1.22-8.22-.11-.83-.21-1.67-.3-2.52-.11-.84-.2-1.69-.28-2.54-.11-1-.2-1.99-.28-3-.11-1.16-.19-2.32-.27-3.49-.07-.98-.13-1.98-.19-2.97-.06-1.11-.12-2.23-.15-3.34-.04-.74-.06-1.48-.07-2.21-.02-.68-.04-1.35-.05-2.03-.02-1.18-.04-2.37-.04-3.55,0-111.22,90.49-201.71,201.71-201.71,1.18,0,2.37,.01,3.55,.04,.68,.01,1.35,.02,2.03,.05,.74,.01,1.48,.04,2.21,.07,1.11,.04,2.23,.09,3.34,.15,1,.06,1.99,.12,2.98,.19,1.17,.08,2.33,.16,3.49,.27,1.01,.08,2,.18,3,.28,.85,.08,1.7,.18,2.54,.28,.84,.09,1.69,.2,2.52,.3,2.76,.35,5.5,.75,8.22,1.22,.54,.09,1.07,.19,1.6,.28,1.72,.3,3.42,.63,5.12,.98,.69,.14,1.37,.28,2.05,.43,1.87,.4,3.72,.82,5.58,1.28,1.01,.26,2.01,.52,3.02,.77,.59,.15,1.16,.3,1.73,.47,.73,.2,1.45,.4,2.18,.61,.8,.22,1.59,.44,2.39,.69,.7,.21,1.41,.42,2.11,.64,2.46,.76,4.9,1.57,7.31,2.42,.56,.2,1.12,.4,1.69,.61,.4,.13,.8,.28,1.19,.43,.59,.21,1.17,.43,1.75,.66,1.53,.57,3.07,1.18,4.58,1.8,.76,.32,1.52,.62,2.27,.95,.75,.32,1.5,.64,2.25,.97,4.61,2.01,9.15,4.2,13.57,6.56,.56,.3,1.12,.61,1.69,.91,1,.54,1.98,1.08,2.95,1.64,.68,.37,1.35,.76,2.01,1.15,.91,.53,1.82,1.07,2.72,1.6,.05,.02,.09,.06,.14,.08,58.63,35.32,97.93,99.61,97.93,172.91,0,111.22-90.48,201.7-201.7,201.7Z"/><path class="cls-4" d="M1124.49,750.88c0,111.22-90.48,201.7-201.7,201.7-51.87,0-99.25-19.68-135.02-51.97-14.77-13.34-27.57-28.82-37.89-45.96-18.28-30.34-28.8-65.85-28.8-103.77,0-111.22,90.49-201.71,201.71-201.71,37.92,0,73.44,10.52,103.77,28.8,17.14,10.32,32.62,23.12,45.96,37.89,32.29,35.77,51.97,83.15,51.97,135.02Z"/><path class="cls-1" d="M1124.49,750.88c0,111.22-90.48,201.7-201.7,201.7-51.87,0-99.25-19.68-135.02-51.97-14.77-13.34-27.57-28.82-37.89-45.96-18.28-30.34-28.8-65.85-28.8-103.77,0-111.22,90.49-201.71,201.71-201.71,37.92,0,73.44,10.52,103.77,28.8,17.14,10.32,32.62,23.12,45.96,37.89,32.29,35.77,51.97,83.15,51.97,135.02Z"/><path class="cls-8" d="M1124.49,750.88c0,111.22-90.48,201.7-201.7,201.7-51.87,0-99.25-19.68-135.02-51.97-11.99-13.28-22.25-28.16-30.42-44.28-13.83-27.3-21.63-58.16-21.63-90.81,0-111.22,90.49-201.71,201.71-201.71,32.64,0,63.5,7.8,90.81,21.63,16.13,8.16,31,18.42,44.28,30.42,32.29,35.77,51.97,83.15,51.97,135.02Z"/></g><g><path class="cls-3" d="M1026.56,577.97s-.09-.06-.14-.08c-.9-.55-1.8-1.08-2.72-1.6-.67-.4-1.34-.77-2.01-1.15-.97-.56-1.96-1.1-2.95-1.64-.55-.32-1.12-.61-1.69-.91-4.43-2.35-8.96-4.54-13.57-6.56-.75-.34-1.5-.66-2.25-.97-.75-.33-1.51-.64-2.27-.95-1.51-.62-3.05-1.23-4.58-1.8-.57-.23-1.16-.45-1.75-.66-.4-.15-.8-.3-1.19-.43-.56-.22-1.12-.42-1.69-.61-2.41-.86-4.85-1.66-7.31-2.42-.7-.22-1.41-.43-2.11-.64-.8-.25-1.59-.47-2.39-.69-.73-.21-1.45-.41-2.18-.61-.57-.16-1.15-.32-1.73-.47-1.01-.27-2.01-.53-3.02-.77-1.85-.46-3.7-.88-5.58-1.28-.68-.15-1.36-.3-2.05-.43-1.7-.35-3.4-.68-5.12-.98-.54-.11-1.07-.2-1.6-.28-2.72-.47-5.46-.87-8.22-1.22-.84-.12-1.67-.21-2.52-.3-.84-.11-1.69-.2-2.54-.28-1-.11-2-.2-3-.28-1.16-.11-2.32-.2-3.49-.27-.98-.07-1.98-.14-2.98-.19-1.11-.06-2.23-.12-3.34-.15-.74-.04-1.48-.06-2.21-.07-.68-.02-1.35-.04-2.03-.05-1.18-.02-2.37-.04-3.55-.04-111.22,0-201.71,90.49-201.71,201.71,0,1.18,.01,2.37,.04,3.55,.01,.68,.02,1.35,.05,2.03,.01,.74,.04,1.48,.07,2.21,.04,1.11,.09,2.23,.15,3.34,.05,1,.12,1.99,.19,2.97,.07,1.17,.16,2.33,.27,3.49,.08,1,.18,2,.28,3,.08,.86,.18,1.7,.28,2.54,.09,.84,.19,1.67,.3,2.52,.35,2.76,.75,5.5,1.22,8.22,.08,.54,.18,1.07,.28,1.6,.3,1.72,.63,3.42,.98,5.12,.13,.69,.28,1.37,.43,2.05,.4,1.87,.82,3.72,1.28,5.58,.25,1.01,.5,2.01,.77,3.02,.15,.59,.3,1.16,.47,1.73,.2,.73,.4,1.45,.61,2.18,.22,.8,.45,1.59,.69,2.39,.21,.7,.42,1.41,.64,2.11,.76,2.46,1.57,4.9,2.42,7.31,.19,.56,.39,1.12,.61,1.69,.13,.4,.28,.8,.43,1.19,.21,.59,.42,1.17,.66,1.75,.57,1.53,1.18,3.07,1.8,4.58,.3,.76,.62,1.52,.95,2.27,.32,.75,.63,1.5,.97,2.25,2.01,4.61,4.2,9.15,6.56,13.57,.3,.56,.6,1.14,.91,1.69,.54,1,1.08,1.98,1.64,2.95,.37,.68,.75,1.35,1.15,2.01,.53,.91,1.05,1.82,1.6,2.72,.02,.05,.06,.09,.08,.14-28.41-6.86-55.18-19.14-79.03-36.3-5.79-21.74-8.77-44.38-8.77-67.47,0-69.64,27.11-135.11,76.36-184.35,49.24-49.25,114.71-76.36,184.35-76.36,23.1,0,45.74,2.99,67.47,8.77,17.16,23.86,29.43,50.62,36.3,79.04Z"/><path class="cls-3" d="M1032.99,632.2c0,49.65-15.71,96.87-44.75,136.04-3.15,4.26-6.48,8.41-9.96,12.47-3.9,4.59-8.01,9.03-12.32,13.34-5.74,5.74-11.74,11.14-17.95,16.17-4.16,3.38-8.42,6.59-12.78,9.65-38.16,26.77-83.53,41.2-131.12,41.2-15.89,0-31.54-1.6-46.76-4.76-13.83-27.3-21.63-58.16-21.63-90.81,0-111.22,90.49-201.71,201.71-201.71,32.64,0,63.5,7.8,90.81,21.63,3.15,15.21,4.76,30.86,4.76,46.76Z"/></g></g><g><path class="cls-2" d="M1002.96,849.6c-5.53,0-11.07-2.11-15.29-6.33l-145.7-145.7c-8.45-8.45-8.45-22.14,0-30.58,8.44-8.45,22.14-8.45,30.58,0l145.7,145.7c8.45,8.45,8.45,22.14,0,30.58-4.22,4.22-9.76,6.33-15.29,6.33Z"/><path class="cls-2" d="M857.25,849.6c-5.53,0-11.07-2.11-15.29-6.33-8.45-8.45-8.45-22.14,0-30.58l145.7-145.7c8.44-8.45,22.14-8.45,30.58,0,8.45,8.45,8.45,22.14,0,30.58l-145.7,145.7c-4.22,4.22-9.76,6.33-15.29,6.33Z"/></g></g><g><path class="cls-1" d="M455.04,647.83c-15.72,0-27.54-14.1-25.09-29.63,1.89-11.93,4.97-23.12,9.25-33.55,7.65-18.67,23.45-34.94,47.39-48.83,7.18-4.31,16.03-9.21,26.57-14.72,10.52-5.5,20.82-12.08,30.87-19.75,10.05-7.65,18.55-16.63,25.49-26.93,6.93-10.29,10.41-22.14,10.41-35.54,0-10.05-1.92-18.91-5.74-26.57-3.84-7.65-8.86-14.11-15.08-19.39-6.23-5.26-13.53-9.21-21.9-11.85-8.38-2.62-16.87-3.95-25.49-3.95-10.53,0-20.1,1.79-28.72,5.38-8.62,3.59-16.4,8.14-23.34,13.64-6.94,5.51-13.17,11.74-18.67,18.67l-.16,.21c-8.36,10.56-23.4,12.94-34.49,5.3l-23.38-16.12c-11.34-7.82-14.32-23.21-6.89-34.82,3.95-6.17,8.36-11.97,13.22-17.39,10.29-11.49,22.01-21.18,35.18-29.08,13.16-7.9,27.4-13.88,42.72-17.95,15.32-4.06,31.11-6.1,47.39-6.1,18.19,0,36.14,2.64,53.85,7.9,17.7,5.27,33.62,13.64,47.75,25.13,14.11,11.49,25.6,26.21,34.46,44.16,8.85,17.95,13.28,39.38,13.28,64.26,0,15.32-1.8,28.84-5.39,40.57-3.59,11.74-8.74,22.38-15.44,31.95-6.71,9.58-14.61,18.2-23.7,25.85-9.1,7.66-19.39,15.08-30.88,22.26-9.58,5.74-19.15,11.25-28.72,16.51-9.58,5.27-18.31,11.13-26.21,17.59-7.9,6.46-14.36,13.89-19.39,22.26-2.15,3.59-3.84,7.51-5.07,11.75-3.2,11.02-13.06,18.77-24.53,18.77h-29.59Zm-25.88,141.87v-48.23c0-14.04,11.38-25.43,25.43-25.43h28.84c14.04,0,25.43,11.38,25.43,25.43v48.23c0,14.04-11.38,25.43-25.43,25.43h-28.84c-14.04,0-25.43-11.38-25.43-25.43Z"/><path class="cls-5" d="M439.38,632.17c-15.72,0-27.54-14.1-25.09-29.63,1.89-11.93,4.97-23.12,9.25-33.55,7.65-18.67,23.45-34.94,47.39-48.83,7.18-4.31,16.03-9.21,26.57-14.72,10.52-5.5,20.82-12.08,30.87-19.75,10.05-7.65,18.55-16.63,25.49-26.93,6.93-10.29,10.41-22.14,10.41-35.54,0-10.05-1.92-18.91-5.74-26.57-3.84-7.65-8.86-14.11-15.08-19.39-6.23-5.26-13.53-9.21-21.9-11.85-8.38-2.62-16.87-3.95-25.49-3.95-10.53,0-20.1,1.79-28.72,5.38-8.62,3.59-16.4,8.14-23.34,13.64-6.94,5.51-13.17,11.74-18.67,18.67l-.16,.21c-8.36,10.56-23.4,12.94-34.49,5.3l-23.38-16.12c-11.34-7.82-14.32-23.21-6.89-34.82,3.95-6.17,8.36-11.97,13.22-17.39,10.29-11.49,22.01-21.18,35.18-29.08,13.16-7.9,27.4-13.88,42.72-17.95,15.32-4.06,31.11-6.1,47.39-6.1,18.19,0,36.14,2.64,53.85,7.9,17.7,5.27,33.62,13.64,47.75,25.13,14.11,11.49,25.6,26.21,34.46,44.16,8.85,17.95,13.28,39.38,13.28,64.26,0,15.32-1.8,28.84-5.39,40.57-3.59,11.74-8.74,22.38-15.44,31.95-6.71,9.58-14.61,18.2-23.7,25.85-9.1,7.66-19.39,15.08-30.88,22.26-9.58,5.74-19.15,11.25-28.72,16.51-9.58,5.27-18.31,11.13-26.21,17.59-7.9,6.46-14.36,13.89-19.39,22.26-2.15,3.59-3.84,7.51-5.07,11.75-3.2,11.02-13.06,18.77-24.53,18.77h-29.59Zm-25.88,141.87v-48.23c0-14.04,11.38-25.43,25.43-25.43h28.84c14.04,0,25.43,11.38,25.43,25.43v48.23c0,14.04-11.38,25.43-25.43,25.43h-28.84c-14.04,0-25.43-11.38-25.43-25.43Z"/></g><path class="cls-4" d="M1054.22,293.54h-59.34c-38.63,0-69.93-31.3-69.93-69.93v-59.34l129.28,129.28Z"/></svg>