<?xml version="1.0" encoding="utf-8"?>
<!-- Generator: Adobe Illustrator 26.5.0, SVG Export Plug-In . SVG Version: 6.00 Build 0)  -->
<svg version="1.1" id="Layer_1" xmlns="http://www.w3.org/2000/svg" xmlns:xlink="http://www.w3.org/1999/xlink" x="0px" y="0px"
	 viewBox="0 0 6000 4500" style="enable-background:new 0 0 6000 4500;" xml:space="preserve">
<style type="text/css">
	.st0{fill:#1977CC;}
	.st1{fill:#A2DFFF;}
	.st2{fill-rule:evenodd;clip-rule:evenodd;fill:#C5EDF9;}
	.st3{fill:#6EBDFF;}
	.st4{fill:#E0F4FC;}
	.st5{fill:#126FB5;}
	.st6{fill:#FFFFFF;}
	.st7{fill:#798884;}
	.st8{fill:#178BFF;}
	.st9{fill:#96F755;}
</style>
<g>
	<g>
		<path class="st0" d="M5807.8,3858.4H368.2c-4.5,0-8.2,3.4-8.2,7.7c0,4.2,3.7,7.7,8.2,7.7h5439.6c4.5,0,8.2-3.4,8.2-7.7
			C5816,3861.8,5812.3,3858.4,5807.8,3858.4z"/>
	</g>
	<g>
		<g>
			<g>
				<path class="st1" d="M2365.5,1169.2c-43.6-38.5-99.7-57.7-157.8-54.1c-58.1,3.6-111.3,29.7-149.9,73.3
					c-79.5,90.1-70.9,228.1,19.2,307.7c41.4,36.5,92.8,54.4,144.1,54.4c60.4,0,120.6-24.9,163.6-73.7
					c38.5-43.6,57.7-99.7,54.1-157.8C2435.2,1260.9,2409.2,1207.7,2365.5,1169.2z M2373.2,1466.7c-40,45.3-95.9,68.5-152.1,68.5
					c-47.7,0-95.5-16.7-134-50.6c-83.8-73.9-91.8-202.2-17.9-286c35.8-40.6,85.3-64.8,139.3-68.1c4.3-0.3,8.6-0.4,12.9-0.4
					c49.4,0,96.5,17.8,133.8,50.7c40.6,35.8,64.8,85.3,68.2,139.3C2426.9,1374,2409,1426.1,2373.2,1466.7z"/>
				<path class="st1" d="M2883.2,1137.5l-151.4-0.7c-13-34-29.5-66.8-49.1-97.6l98.1-109.6c2.4-2.7,2.6-6.7,0.5-9.7
					c-29.2-39.6-62.8-76.2-99.7-108.8c-37.2-32.8-77.9-61.7-121-85.8c-3-1.7-6.7-1.2-9.1,1.2l-107.6,106.6
					c-33.4-14.9-68.2-26.4-103.8-34.2l-8-146.9c-0.2-3.6-2.9-6.6-6.5-7.2c-97.4-14.6-199-8.3-293.7,18.5c-3.3,0.9-5.6,3.9-5.6,7.3
					l-0.7,151.4c-34.1,13.1-66.9,29.6-97.6,49.1l-109.6-98.1c-2.7-2.4-6.7-2.6-9.7-0.5c-39.6,29.2-76.2,62.8-108.8,99.7
					c-32.8,37.1-61.6,77.8-85.8,121c-1.7,3-1.2,6.7,1.2,9.1l106.6,107.6c-14.8,33.3-26.3,68.2-34.2,103.8l-146.9,8.1
					c-3.6,0.2-6.6,2.9-7.2,6.5c-14.6,97.4-8.2,198.9,18.5,293.7c0.9,3.3,3.9,5.6,7.3,5.6l151.5,0.7c13,34,29.5,66.8,49.1,97.6
					l-98.2,109.6c-2.4,2.7-2.6,6.7-0.5,9.7c29.2,39.5,62.7,76.2,99.7,108.8c37.2,32.8,77.9,61.7,121,85.8c3,1.7,6.7,1.2,9.1-1.2
					l107.6-106.6c33.3,14.8,68.2,26.3,103.8,34.2l8.1,146.9c0.2,3.6,2.9,6.6,6.5,7.2c34.1,5.1,68.7,7.7,103.4,7.7
					c64.3,0,128.8-8.8,190.3-26.2c3.3-0.9,5.6-3.9,5.6-7.3l0.7-151.5c34.1-13,66.9-29.5,97.6-49.1l109.6,98.2
					c2.7,2.4,6.7,2.6,9.7,0.5c39.6-29.3,76.2-62.9,108.8-99.8c32.8-37.1,61.6-77.8,85.8-121c1.7-3,1.2-6.7-1.2-9.1l-106.6-107.6
					c14.8-33.3,26.3-68.1,34.2-103.8l146.9-8.1c3.6-0.2,6.6-2.9,7.2-6.5c14.6-97.4,8.2-198.9-18.5-293.7
					C2889.6,1139.7,2886.6,1137.5,2883.2,1137.5z M2894.8,1428.3l-146.4,8c-3.5,0.2-6.4,2.7-7.1,6.1c-8.1,38.3-20.4,75.7-36.6,111.2
					c-1.3,2.9-0.7,6.3,1.5,8.6l106.2,107.2c-23,40.3-50.3,78.4-81.1,113.3c-30.5,34.6-64.6,66.1-101.4,93.9l-109.3-97.9
					c-2.6-2.3-6.4-2.6-9.3-0.7c-32.7,21.3-67.8,39-104.5,52.6c-3,1.1-5,4-5,7.2l-0.7,150.9c-89,24.3-184,30.3-275.5,17.4l-8-146.5
					c-0.2-3.5-2.7-6.4-6.1-7.1c-38.2-8-75.6-20.3-111.1-36.6c-2.9-1.3-6.3-0.7-8.6,1.5l-107.2,106.2c-40.3-23-78.4-50.2-113.3-81.1
					c-34.6-30.6-66.2-64.7-93.8-101.4l97.9-109.3c2.3-2.6,2.6-6.4,0.7-9.3c-21.4-32.7-39.1-67.9-52.7-104.5c-1.1-3-4-5-7.2-5
					l-150.9-0.7c-24.3-89.1-30.3-184.1-17.5-275.5l146.5-8c3.5-0.2,6.4-2.7,7.1-6.1c8-38.2,20.3-75.6,36.6-111.2
					c1.3-2.9,0.7-6.3-1.5-8.6l-106.2-107.2c23-40.4,50.3-78.5,81.1-113.3c30.5-34.6,64.6-66.1,101.4-93.8l109.2,97.9
					c2.6,2.3,6.4,2.6,9.3,0.7c32.7-21.3,67.8-39,104.5-52.7c3-1.1,5-4,5-7.2l0.7-150.9c89.1-24.3,184-30.3,275.5-17.4l8,146.4
					c0.2,3.5,2.7,6.4,6.1,7.1c38.2,8,75.6,20.3,111.2,36.6c2.9,1.3,6.3,0.7,8.6-1.5l107.2-106.2c40.3,23,78.4,50.3,113.3,81.1
					c34.6,30.5,66.1,64.6,93.8,101.4l-97.9,109.2c-2.3,2.6-2.6,6.4-0.7,9.3c21.4,32.8,39.1,67.9,52.7,104.5c1.1,3,4,5,7.2,5
					l150.9,0.7C2901.6,1241.8,2907.6,1336.8,2894.8,1428.3z"/>
			</g>
		</g>
		<g>
			<g>
				<path class="st2" d="M1473.2,1585.6c-2.8-8.8-6.4-17.3-10.7-25.3l41.4-52.6c-15-21.4-33.8-39.9-55.4-54.6l-51.6,42.3
					c-8.1-4.2-16.6-7.7-25.4-10.4l-8-66.5c-12.7-2.2-25.7-3.3-39-3.2c-13.3,0.1-26.2,1.4-38.8,3.8l-6.5,66.4
					c-8.8,2.8-17.3,6.4-25.3,10.7l-52.7-41.3c-21.4,15-39.9,33.8-54.7,55.3l42.3,51.6c-4.2,8.1-7.7,16.6-10.4,25.4l-66.5,8
					c-2.2,12.7-3.3,25.7-3.2,39c0.1,13.3,1.4,26.2,3.8,38.8l66.4,6.5c2.8,8.8,6.4,17.3,10.7,25.3l-41.4,52.7
					c15,21.4,33.8,39.9,55.4,54.6l51.6-42.3c8.1,4.2,16.6,7.7,25.4,10.4l8,66.5c12.7,2.2,25.7,3.3,39,3.2
					c13.3-0.1,26.2-1.4,38.8-3.7l6.6-66.4c8.8-2.8,17.2-6.4,25.3-10.7l52.7,41.4c21.4-15,39.9-33.8,54.6-55.4l-42.3-51.6
					c4.2-8.1,7.7-16.6,10.4-25.4l66.5-8c2.2-12.6,3.3-25.7,3.2-39c-0.1-13.2-1.4-26.2-3.8-38.8L1473.2,1585.6z M1326.7,1720.8
					c-48.7,0.3-88.5-38.9-88.9-87.6c-0.3-48.7,38.9-88.5,87.6-88.9c48.8-0.4,88.5,38.9,88.9,87.6
					C1414.7,1680.6,1375.4,1720.4,1326.7,1720.8z"/>
				<path class="st0" d="M1326.1,1536.6c-0.2,0-0.5,0-0.7,0h0c-25.6,0.2-49.6,10.3-67.6,28.6c-18,18.2-27.8,42.4-27.6,68
					c0.4,52.7,43.3,95.2,95.9,95.2c0.2,0,0.5,0,0.7,0c25.6-0.2,49.6-10.3,67.6-28.6c18-18.3,27.8-42.4,27.6-68
					c-0.2-25.6-10.3-49.6-28.6-67.6C1375.4,1546.4,1351.5,1536.6,1326.1,1536.6z M1325.5,1544.3L1325.5,1544.3L1325.5,1544.3z
					 M1383.5,1689.1c-15.1,15.3-35.3,23.9-56.8,24c-0.2,0-0.4,0-0.6,0c-44.2,0-80.3-35.8-80.6-80c-0.2-21.5,8.1-41.8,23.2-57.1
					c15.1-15.3,35.3-23.9,56.8-24c0,0,0,0,0,0c0.2,0,0.4,0,0.6,0c21.3,0,41.4,8.2,56.5,23.2c15.3,15.1,23.9,35.3,24,56.8
					C1406.8,1653.5,1398.6,1673.8,1383.5,1689.1z"/>
				<path class="st0" d="M1540.3,1584.5l-61.4-6.1c-2.1-5.9-4.5-11.6-7.3-17.3l38.3-48.8c2.1-2.7,2.2-6.4,0.2-9.2
					c-15.6-22.2-34.9-41.2-57.3-56.5c-2.8-1.9-6.6-1.8-9.2,0.4l-47.7,39.2c-5.7-2.7-11.5-5.1-17.4-7.1l-7.4-61.6
					c-0.4-3.4-3-6.1-6.3-6.6c-13.2-2.3-26.8-3.4-40.4-3.4c-13.6,0.1-27.1,1.4-40.2,3.9c-3.3,0.6-5.9,3.4-6.2,6.8l-6.1,61.5
					c-5.8,2.1-11.6,4.5-17.3,7.3l-48.8-38.3c-2.7-2.1-6.4-2.2-9.1-0.2c-22.2,15.6-41.2,34.8-56.6,57.3c-1.9,2.8-1.8,6.6,0.4,9.2
					l39.2,47.8c-2.7,5.7-5.1,11.5-7.1,17.4l-61.6,7.4c-3.4,0.4-6.1,3-6.6,6.3c-2.3,13.3-3.4,26.8-3.4,40.4c0.1,13.5,1.4,27,3.9,40.2
					c0.6,3.4,3.4,5.9,6.8,6.2l61.5,6c2.1,5.8,4.5,11.6,7.3,17.3l-38.3,48.8c-2.1,2.7-2.2,6.4-0.2,9.2c15.7,22.3,35,41.3,57.3,56.5
					c2.8,1.9,6.6,1.8,9.2-0.4l47.7-39.2c5.7,2.7,11.5,5.1,17.4,7.1l7.4,61.6c0.4,3.4,3,6.1,6.3,6.6c12.8,2.2,25.9,3.3,38.8,3.3
					c0.5,0,1.1,0,1.6,0c13.5-0.1,27-1.4,40.1-3.9c3.3-0.6,5.9-3.4,6.2-6.8l6.1-61.5c5.8-2.1,11.6-4.5,17.3-7.3l48.8,38.3
					c2.7,2.1,6.4,2.2,9.1,0.2c22.2-15.6,41.2-34.9,56.6-57.3c1.9-2.8,1.8-6.6-0.4-9.2l-39.2-47.7c2.7-5.7,5.1-11.5,7.1-17.4
					l61.6-7.4c3.4-0.4,6.1-3,6.6-6.3c2.3-13.1,3.4-26.7,3.3-40.4c-0.1-13.5-1.4-27-3.9-40.2
					C1546.5,1587.4,1543.7,1584.9,1540.3,1584.5z M1533.5,1663l-60.7,7.3c-3,0.4-5.5,2.5-6.4,5.4c-2.5,8.2-5.9,16.4-9.9,24.1
					c-1.4,2.7-1.1,6,0.9,8.4l38.6,47.1c-12.6,17.4-27.6,32.6-44.8,45.4l-48.1-37.8c-2.4-1.9-5.7-2.2-8.3-0.7
					c-7.8,4.2-15.9,7.6-24,10.1c-2.9,0.9-5,3.5-5.3,6.6l-6,60.6c-10.4,1.7-21.1,2.6-31.8,2.6c-10.7,0.1-21.4-0.7-32-2.2l-7.3-60.7
					c-0.4-3-2.5-5.5-5.4-6.4c-8.2-2.5-16.4-5.9-24.2-9.9c-2.7-1.4-6-1.1-8.4,0.9l-47.1,38.6c-17.3-12.5-32.6-27.6-45.4-44.8
					l37.8-48.1c1.9-2.4,2.2-5.7,0.7-8.3c-4.2-7.9-7.6-16-10.1-24c-0.9-2.9-3.5-5-6.6-5.3l-60.6-6c-1.7-10.5-2.6-21.1-2.7-31.8
					c-0.1-10.7,0.7-21.4,2.2-32l60.7-7.3c3-0.4,5.5-2.5,6.4-5.4c2.5-8.2,5.8-16.3,9.9-24.1c1.4-2.7,1.1-6-0.9-8.4l-38.6-47.1
					c12.6-17.4,27.7-32.6,44.8-45.4l48.1,37.8c2.4,1.9,5.7,2.2,8.3,0.7c7.8-4.1,15.9-7.6,24-10.2c2.9-0.9,5-3.5,5.3-6.6l6-60.6
					c10.4-1.7,21.1-2.6,31.8-2.6c10.7-0.1,21.5,0.7,32,2.2l7.3,60.7c0.4,3,2.5,5.5,5.4,6.4c8.2,2.5,16.3,5.8,24.2,9.9
					c2.7,1.4,6,1.1,8.4-0.9l47.1-38.6c17.4,12.6,32.6,27.6,45.4,44.8l-37.8,48.1c-1.9,2.4-2.2,5.6-0.7,8.3
					c4.1,7.8,7.5,15.9,10.2,24.1c0.9,2.9,3.5,5,6.6,5.3l60.6,6c1.7,10.5,2.6,21.1,2.6,31.8C1535.8,1641.8,1535,1652.5,1533.5,1663z"
					/>
			</g>
		</g>
		<g>
			<g>
				<path class="st3" d="M1303.9,852c-39.5-12.1-81.4-8.1-117.9,11.4c-36.5,19.4-63.3,51.9-75.3,91.4
					c-25,81.6,21.1,168.3,102.7,193.2c15,4.6,30.2,6.8,45.1,6.8c66.3,0,127.8-43,148.1-109.5C1431.6,963.6,1385.5,876.9,1303.9,852z
					 M1392,1040.7c-18.3,60-73.7,98.7-133.4,98.7c-13.5,0-27.1-2-40.7-6.1c-73.5-22.5-115-100.6-92.6-174.1
					c10.9-35.6,35-64.8,67.9-82.3c20.4-10.9,42.8-16.4,65.3-16.4c13.7,0,27.5,2,40.9,6.2c0,0,0,0,0,0
					C1372.9,889.1,1414.5,967.2,1392,1040.7z"/>
				<path class="st3" d="M1621.3,1035.2l-95.6-40.7c-0.3-13.1-1.5-26.2-3.7-39.2l86-59c2.8-1.9,4-5.4,3-8.7
					c-13.6-42.6-34.5-81.9-62.1-116.9c-2.1-2.7-5.7-3.6-8.9-2.4l-96.3,38.8c-9.6-9.2-19.8-17.6-30.3-25.1l19.1-102.5
					c0.6-3.3-1-6.7-4-8.2c-19.7-10.2-40.4-18.6-61.6-25.1c-21-6.4-42.9-11-64.9-13.7c-3.4-0.4-6.6,1.5-8,4.6l-40.7,95.6
					c-13.1,0.3-26.2,1.5-39.2,3.7l-59-86c-1.9-2.8-5.4-4-8.7-3c-42.6,13.6-81.9,34.5-116.9,62.1c-2.7,2.1-3.6,5.7-2.4,8.9L1066,815
					c-9.2,9.5-17.6,19.7-25.1,30.3l-102.5-19.1c-3.3-0.6-6.7,1-8.2,4c-10.2,19.7-18.6,40.5-25.1,61.7c-6.5,21.3-11.1,43.1-13.7,64.9
					c-0.4,3.4,1.5,6.6,4.6,8l95.6,40.7c0.3,13.1,1.5,26.2,3.7,39.2l-86,59c-2.8,1.9-4,5.4-3,8.7c13.6,42.5,34.5,81.9,62.1,116.9
					c2.1,2.7,5.7,3.6,8.9,2.4l96.3-38.8c9.5,9.1,19.6,17.5,30.3,25.1l-19.1,102.5c-0.6,3.3,1,6.7,4,8.2c19.7,10.1,40.5,18.6,61.7,25
					c21.1,6.5,42.9,11.1,64.9,13.7c0.3,0,0.6,0.1,0.9,0.1c3,0,5.8-1.8,7.1-4.7l40.7-95.6c13-0.3,26.2-1.5,39.2-3.7l59,86
					c1.9,2.8,5.4,4,8.7,3c42.5-13.6,81.9-34.5,116.9-62.1c2.7-2.1,3.6-5.7,2.4-8.9l-38.8-96.3c9.1-9.5,17.5-19.7,25.1-30.3
					l102.5,19.1c3.3,0.6,6.7-1,8.2-4c10.1-19.6,18.5-40.3,25.1-61.7c6.5-21.3,11.1-43.1,13.6-64.9
					C1626.3,1039.8,1624.4,1036.5,1621.3,1035.2z M1597.6,1103.5c-5.7,18.6-12.9,36.8-21.5,54.1l-101.7-18.9c-3-0.6-6,0.7-7.7,3.2
					c-8.7,12.7-18.7,24.8-29.7,35.9c-2.2,2.2-2.8,5.4-1.7,8.3l38.5,95.6c-30.9,23.6-65.3,41.8-102.1,54.3l-58.5-85.3
					c-1.7-2.5-4.8-3.8-7.7-3.2c-15.4,2.9-31,4.4-46.4,4.4c-3.1,0-5.8,1.8-7.1,4.7l-40.4,94.9c-19.1-2.6-38.1-6.8-56.5-12.4
					c-18.5-5.7-36.7-12.9-54.1-21.4l19-101.7c0.6-3-0.7-6-3.2-7.7c-12.8-8.7-24.9-18.7-35.9-29.7c-2.2-2.2-5.4-2.8-8.3-1.7L977,1215
					c-23.6-30.9-41.8-65.2-54.3-102.1l85.4-58.5c2.5-1.7,3.8-4.8,3.2-7.8c-2.9-15.2-4.4-30.8-4.4-46.4c0-3.1-1.8-5.8-4.7-7.1
					l-94.9-40.4c2.6-19,6.7-38,12.4-56.5c5.7-18.5,12.9-36.7,21.5-54.1l101.7,19c3,0.6,6-0.7,7.7-3.2c8.7-12.7,18.7-24.8,29.7-35.9
					c2.2-2.2,2.8-5.4,1.7-8.3l-38.5-95.6c30.9-23.6,65.2-41.8,102.1-54.3l58.5,85.3c1.7,2.5,4.8,3.8,7.8,3.2
					c15.2-2.9,30.8-4.4,46.4-4.4c3.1,0,5.8-1.8,7-4.7l40.4-94.9c19.2,2.6,38.2,6.8,56.5,12.4c18.5,5.7,36.7,12.9,54,21.5l-19,101.8
					c-0.6,3,0.7,6,3.2,7.8c12.6,8.6,24.7,18.6,35.9,29.7c2.2,2.2,5.4,2.8,8.3,1.7l95.6-38.5c23.6,30.9,41.8,65.2,54.3,102.2
					l-85.3,58.5c-2.5,1.7-3.8,4.8-3.2,7.8c2.9,15.3,4.4,30.9,4.4,46.4c0,3.1,1.8,5.8,4.7,7l94.9,40.3
					C1607.4,1066,1603.3,1085,1597.6,1103.5z"/>
			</g>
		</g>
		<g>
			<path class="st3" d="M3033.9,1118.7l26-23.2c2.4,1,4.7,1.8,7.2,2.6l5.5,34.6c0.5,3.3,3.2,5.9,6.5,6.4c8.1,1.1,16.4,1.4,24.7,1.1
				c8.2-0.4,16.4-1.5,24.4-3.3c3.3-0.8,5.7-3.6,5.9-7l2-34.8c2.3-1,4.6-2.1,6.9-3.2l28.4,20.6c2.7,2,6.5,1.9,9.2-0.1
				c13.1-10,24.3-22.3,33.1-36.3c1.8-2.9,1.5-6.6-0.8-9.2l-23.1-26.1c1-2.4,1.8-4.8,2.6-7.2l34.6-5.5c3.3-0.5,5.9-3.2,6.4-6.5
				c1.1-8.1,1.5-16.4,1.1-24.7c-0.4-8.3-1.5-16.5-3.3-24.4c-0.8-3.3-3.6-5.7-7-5.9l-34.8-2.1c-1-2.3-2.1-4.6-3.2-6.9l20.5-28.4
				c2-2.7,1.9-6.5-0.1-9.1c-10-13.1-22.2-24.3-36.2-33.1c-2.9-1.8-6.6-1.5-9.2,0.8l-26.1,23.2c-2.4-1-4.8-1.8-7.1-2.6l-5.6-34.6
				c-0.5-3.3-3.2-5.9-6.6-6.4c-8.1-1.1-16.4-1.4-24.7-1.1c-8.2,0.4-16.4,1.5-24.4,3.3c-3.3,0.8-5.7,3.6-5.9,7l-2,34.8
				c-2.3,1-4.6,2.1-6.9,3.2l-28.4-20.5c-2.7-2-6.5-1.9-9.2,0.1c-4.9,3.7-9.5,7.8-13.8,12.1c-7.3,7.3-13.7,15.4-19.3,24.2
				c-1.8,2.9-1.5,6.6,0.8,9.2l23.1,26.1c-1,2.4-1.8,4.7-2.6,7.1l-34.6,5.5c-3.3,0.5-5.9,3.2-6.4,6.6c-1.1,8.2-1.4,16.5-1.1,24.7
				c0.4,8.2,1.5,16.4,3.3,24.4c0.8,3.3,3.6,5.7,7,5.9l34.8,2.1c1,2.3,2.1,4.6,3.2,6.9l-20.6,28.4c-2,2.7-1.9,6.5,0.1,9.2
				c10,13.1,22.2,24.3,36.3,33.1C3027.6,1121.2,3031.4,1120.9,3033.9,1118.7z M3004.2,1081.5l20-27.6c1.8-2.5,1.9-5.7,0.4-8.4
				c-2.6-4.4-4.7-8.9-6.3-13.5c-1-2.9-3.7-4.9-6.8-5.1l-33.8-2c-0.9-5.3-1.6-10.7-1.8-16.1c-0.3-5.4-0.1-10.9,0.3-16.3l33.6-5.4
				c3-0.5,5.4-2.7,6.2-5.6c1.3-4.8,3-9.5,5.1-14.1c1.3-2.8,0.8-6.1-1.2-8.3l-22.5-25.3c6.2-8.9,13.5-16.9,21.8-23.9l27.6,20
				c2.5,1.8,5.7,1.9,8.4,0.4c4.4-2.6,9-4.7,13.5-6.4c2.9-1,4.9-3.7,5.1-6.8l2-33.8c5.3-1,10.7-1.6,16.1-1.8
				c5.4-0.2,10.9-0.1,16.3,0.3l5.4,33.6c0.5,3,2.7,5.4,5.6,6.2c4.7,1.2,9.5,3,14.1,5.1c2.8,1.3,6.1,0.8,8.3-1.2l25.3-22.5
				c8.9,6.2,16.9,13.5,23.9,21.8l-20,27.6c-1.8,2.5-1.9,5.7-0.4,8.4c2.6,4.4,4.7,8.9,6.4,13.6c1,2.9,3.7,4.9,6.8,5l33.8,2
				c0.9,5.3,1.6,10.7,1.8,16.1c0.2,5.4,0.1,10.9-0.3,16.3l-33.6,5.4c-3,0.5-5.4,2.7-6.2,5.6c-1.3,4.8-3,9.5-5.1,14.1
				c-1.3,2.8-0.8,6,1.2,8.3l22.5,25.3c-6.2,8.9-13.5,17-21.8,23.9l-27.6-20c-2.5-1.8-5.7-1.9-8.4-0.4c-4.4,2.5-8.9,4.7-13.6,6.4
				c-2.9,1-4.8,3.7-5,6.8l-2,33.8c-5.3,1-10.7,1.6-16.1,1.8c-5.5,0.3-10.9,0.1-16.3-0.3l-5.4-33.6c-0.5-3-2.7-5.4-5.6-6.2
				c-4.8-1.3-9.5-3-14.1-5.1c-2.8-1.3-6.1-0.8-8.4,1.2l-25.3,22.5C3019.2,1097.1,3011.1,1089.8,3004.2,1081.5z"/>
			<path class="st3" d="M3100.3,1063.4c16.1-0.7,30.9-7.7,41.7-19.6c10.8-11.9,16.4-27.3,15.6-43.4c-0.7-16.1-7.7-30.9-19.6-41.7
				c-11.9-10.8-27.3-16.4-43.4-15.7c-15.6,0.7-29.5,7.3-39.8,17.6c-11.6,11.6-18.4,27.8-17.6,45.4c0.7,16.1,7.7,30.9,19.6,41.7
				C3068.8,1058.6,3084.2,1064.1,3100.3,1063.4z M3150,1000.7L3150,1000.7L3150,1000.7z M3052.6,1005.3c-1.2-24.7,18-45.8,42.8-47
				c12-0.6,23.5,3.6,32.3,11.7c8.9,8.1,14.1,19.1,14.6,31.1c0,0,0,0,0,0c0.6,12-3.6,23.5-11.7,32.3c-0.5,0.5-1,1-1.5,1.5
				c-7.9,7.9-18.4,12.5-29.6,13.1c-12,0.6-23.5-3.6-32.3-11.7C3058.4,1028.3,3053.2,1017.3,3052.6,1005.3z"/>
		</g>
		<g>
			<g>
				<g>
					<path class="st2" d="M3375.4,1057.1l-12.4,63.9c11.3,5.9,23.3,11,35.9,14.9c12.5,3.9,25.2,6.7,37.8,8.3l25.9-59.5
						c9.6,0.1,19.2-0.8,28.5-2.5l36.4,54c24.8-7.7,48-19.8,68.5-35.7l-23.8-60.4c6.8-6.7,13-14,18.4-21.9l63.9,12.5
						c6-11.3,11-23.2,14.9-35.9c4-12.5,6.7-25.2,8.3-37.8l-59.5-25.9c0.1-9.6-0.8-19.2-2.5-28.5l54-36.4
						c-7.7-24.8-19.8-48-35.7-68.5l-60.4,23.8c-6.7-6.8-14-13-21.9-18.4l12.5-63.9c-11.3-5.9-23.3-11-35.9-14.9
						c-12.6-4-25.2-6.7-37.8-8.3l-25.9,59.5c-9.6-0.1-19.2,0.8-28.5,2.5l-36.4-54c-24.8,7.7-48,19.8-68.5,35.7l23.8,60.4
						c-6.8,6.6-13,14-18.5,21.9l-63.9-12.5c-5.9,11.3-10.9,23.3-14.9,35.9c-4,12.5-6.7,25.2-8.3,37.8L3309,929
						c-0.1,9.6,0.8,19.2,2.5,28.5l-54,36.4c7.7,24.8,19.8,48,35.7,68.5l60.4-23.8C3360.2,1045.4,3367.5,1051.6,3375.4,1057.1z
						 M3380,903.8c14.6-46.2,63.8-71.8,109.9-57.3c46.2,14.5,71.8,63.8,57.3,109.9c-14.5,46.2-63.8,71.8-109.9,57.3
						C3391.1,999.2,3365.4,950,3380,903.8z"/>
					<path class="st0" d="M3554.5,958.7c7.6-24.3,5.4-50.1-6.4-72.7c-11.8-22.6-31.6-39.2-55.9-46.9c-35-11-71.8-0.7-96.1,23.6
						c-10.5,10.5-18.7,23.6-23.4,38.6c-15.8,50.1,12.2,103.8,62.3,119.5C3485.1,1036.8,3538.7,1008.9,3554.5,958.7z M3547.2,956.4
						L3547.2,956.4L3547.2,956.4z M3387.3,906.1c13.3-42.1,58.3-65.5,100.3-52.3c20.4,6.4,37,20.4,46.9,39.3
						c9.9,18.9,11.8,40.6,5.4,61l0,0c-4,12.7-10.8,23.6-19.6,32.4c-20.4,20.4-51.3,29.1-80.7,19.8
						C3397.5,993.2,3374.1,948.2,3387.3,906.1z"/>
					<path class="st0" d="M3296,1069.6l55.7-21.9c4.8,4.6,9.9,8.9,15.2,12.8l-11.5,59.1c-0.6,3.3,1,6.7,4,8.3
						c11.8,6.2,24.3,11.4,37.1,15.5c12.8,4,26,6.9,39.1,8.6c3.4,0.4,6.6-1.4,8-4.5l23.9-54.9c6.6-0.2,13.3-0.7,19.9-1.7l33.6,49.9
						c1.9,2.8,5.4,4,8.6,3c25.8-8,49.7-20.4,71-36.9c2.7-2.1,3.7-5.7,2.4-8.9l-21.9-55.7c4.6-4.9,8.9-10,12.9-15.2l59.1,11.5
						c3.3,0.6,6.7-1,8.2-3.9c6.2-11.8,11.5-24.3,15.5-37.1c4-12.7,6.9-25.9,8.6-39.1c0.4-3.4-1.4-6.6-4.5-8l-55-23.9
						c-0.2-6.6-0.7-13.3-1.7-19.8l49.9-33.6c2.8-1.9,4-5.4,3-8.6c-8-25.8-20.4-49.7-36.9-70.9c-2.1-2.7-5.7-3.7-8.9-2.4l-55.7,21.9
						c-4.8-4.6-9.9-8.9-15.2-12.8l11.5-59.1c0.6-3.3-1-6.7-4-8.3c-11.9-6.2-24.3-11.4-37.1-15.5c-12.8-4-26-6.9-39.2-8.6
						c-3.4-0.4-6.6,1.4-8,4.5l-23.9,54.9c-6.6,0.2-13.3,0.7-19.8,1.7l-33.6-49.9c-1.9-2.8-5.4-4-8.6-3c-25.8,8-49.6,20.4-70.9,36.9
						c-0.3,0.2-0.5,0.4-0.7,0.6c-2.1,2.1-2.8,5.4-1.7,8.2l21.9,55.7c-4.6,4.8-8.9,9.9-12.9,15.2l-59.1-11.5c-3.3-0.6-6.7,1-8.3,4
						c-6.2,11.9-11.4,24.4-15.4,37.1c-4,12.7-6.9,25.9-8.6,39.1c-0.4,3.4,1.4,6.6,4.5,8l55,23.9c0.2,6.6,0.7,13.3,1.7,19.9
						l-49.9,33.6c-2.8,1.9-4,5.4-3,8.6c8,25.8,20.4,49.6,37,71C3289.2,1069.8,3292.8,1070.8,3296,1069.6z M3266.5,997l49.2-33.1
						c2.5-1.7,3.8-4.7,3.3-7.7c-1.6-9-2.4-18.1-2.3-27.1c0-3.1-1.8-5.9-4.6-7.1l-54.2-23.6c1.6-10.4,4-20.7,7.2-30.8
						c3.2-10.1,7.1-20,11.8-29.5l58.2,11.4c3,0.6,6-0.7,7.8-3.2c5.2-7.4,11.1-14.4,17.5-20.8c0,0,0,0,0.1-0.1
						c2.2-2.2,2.8-5.4,1.7-8.2l-21.6-54.9c17.1-12.6,36-22.4,56.1-29.2l33.1,49.2c1.7,2.5,4.7,3.8,7.7,3.3c8.9-1.6,18-2.4,27.1-2.3
						c3.1,0,5.9-1.8,7.1-4.6l23.6-54.2c10.4,1.6,20.7,4,30.8,7.2c10.1,3.2,20,7.2,29.5,11.8l-11.4,58.2c-0.6,3,0.7,6,3.2,7.8
						c7.4,5.1,14.4,11,20.8,17.5c2.2,2.2,5.4,2.9,8.3,1.8l54.9-21.6c12.6,17.1,22.4,36,29.2,56.1l-49.2,33.1
						c-2.5,1.7-3.8,4.7-3.3,7.7c1.6,8.9,2.4,18,2.3,27.1c0,3.1,1.8,5.9,4.6,7.1l54.2,23.6c-1.6,10.5-4,20.8-7.2,30.8
						c-3.2,10.1-7.1,20-11.8,29.5l-58.2-11.4c-3-0.6-6,0.7-7.8,3.2c-5.1,7.3-10.9,14.3-17.5,20.8c0,0,0,0,0,0
						c-2.2,2.2-2.8,5.4-1.7,8.2l21.6,54.9c-17.1,12.6-36,22.4-56.1,29.2l-33.1-49.2c-1.7-2.5-4.7-3.8-7.7-3.3
						c-8.9,1.6-18.1,2.4-27.1,2.3c-3.1,0-5.9,1.8-7.1,4.6l-23.6,54.2c-10.3-1.6-20.7-4-30.8-7.2c-10.2-3.2-20.1-7.2-29.5-11.8
						l11.3-58.2c0.6-3-0.7-6-3.2-7.8c-7.4-5.1-14.4-11-20.8-17.5c-2.2-2.2-5.4-2.9-8.3-1.8l-54.9,21.6
						C3283.2,1036,3273.4,1017.2,3266.5,997z"/>
				</g>
			</g>
		</g>
		<path class="st3" d="M1258.7,772.7c-125.3,0-227.2,101.9-227.2,227.2s101.9,227.2,227.2,227.2s227.2-101.9,227.2-227.2
			S1383.9,772.7,1258.7,772.7z M1258.7,1211.8c-116.8,0-211.9-95-211.9-211.9s95-211.9,211.9-211.9s211.9,95,211.9,211.9
			S1375.5,1211.8,1258.7,1211.8z"/>
		<path class="st1" d="M2221.3,1000.1c-88.8,0-172.3,34.6-235.1,97.4c-62.8,62.8-97.4,146.3-97.4,235.1
			c0,88.8,34.6,172.3,97.4,235.1c62.8,62.8,146.3,97.4,235.1,97.4c88.8,0,172.3-34.6,235.1-97.4c62.8-62.8,97.4-146.3,97.4-235.1
			c0-88.8-34.6-172.3-97.4-235.1C2393.6,1034.7,2310.1,1000.1,2221.3,1000.1z M2445.6,1556.9c-59.9,59.9-139.6,92.9-224.3,92.9
			c-84.7,0-164.4-33-224.3-92.9c-59.9-59.9-92.9-139.6-92.9-224.3c0-84.7,33-164.4,92.9-224.3c59.9-59.9,139.6-92.9,224.3-92.9
			c84.7,0,164.4,33,224.3,92.9c59.9,59.9,92.9,139.6,92.9,224.3C2538.5,1417.3,2505.5,1497,2445.6,1556.9z"/>
		<path class="st1" d="M2221.3,969.5c-97,0-188.2,37.8-256.8,106.4c-68.6,68.6-106.4,159.8-106.4,256.8c0,97,37.8,188.2,106.4,256.8
			c68.6,68.6,159.8,106.4,256.8,106.4c97,0,188.2-37.8,256.8-106.4c68.6-68.6,106.4-159.8,106.4-256.8c0-97-37.8-188.2-106.4-256.8
			S2318.3,969.5,2221.3,969.5z M2467.2,1578.5c-65.7,65.7-153,101.9-245.9,101.9c-92.9,0-180.2-36.2-245.9-101.9
			c-65.7-65.7-101.9-153-101.9-245.9c0-92.9,36.2-180.2,101.9-245.9c65.7-65.7,153-101.9,245.9-101.9c92.9,0,180.2,36.2,245.9,101.9
			c65.7,65.7,101.9,153,101.9,245.9C2569.1,1425.5,2532.9,1512.8,2467.2,1578.5z"/>
	</g>
	<g>
		<g>
			<g>
				<g>
					<polygon class="st4" points="3168,3243.4 3008.1,3243.4 2696.2,3243.4 2464.4,3798 3008.1,3798 3168,3798 3711.6,3798 
						3479.8,3243.4 					"/>
					<path class="st5" d="M3493.8,3237.6c-2.4-5.6-7.9-9.3-14-9.3H3168h-159.9h-311.8c-6.1,0-11.6,3.7-14,9.3l-231.9,554.6
						c-2,4.7-1.4,10,1.4,14.3c2.8,4.2,7.6,6.8,12.6,6.8h543.7H3168h543.7c5.1,0,9.8-2.5,12.6-6.8c2.8-4.2,3.3-9.6,1.4-14.3
						L3493.8,3237.6z M3168,3798h-159.9h-543.7l231.9-554.6h311.8H3168h311.8l231.9,554.6H3168z"/>
				</g>
			</g>
			<polygon class="st1" points="3168,3243.4 3008.1,3243.4 2696.2,3243.4 2590.8,3495.6 3585.2,3495.6 3479.8,3243.4 			"/>
			<g>
				<path class="st4" d="M3728.4,3648.5H2447.6c-36.7,0-66.4,36-66.4,80.5v136.5h1413.7V3729
					C3794.9,3684.6,3765.1,3648.5,3728.4,3648.5z"/>
				<path class="st5" d="M3728.4,3641H2447.6c-40.8,0-74,39.5-74,88v136.5c0,4.2,3.4,7.6,7.6,7.6h1413.7c4.2,0,7.6-3.4,7.6-7.6V3729
					C3802.4,3680.5,3769.2,3641,3728.4,3641z M3787.3,3858H2388.7v-129c0-40.2,26.4-72.9,58.9-72.9h1280.8
					c32.5,0,58.9,32.7,58.9,72.9V3858z"/>
			</g>
			<g>
				<path class="st6" d="M4442,1272.2H1734.1c-55,0-99.6,44.6-99.6,99.6v199.1v1473.4v199.1c0,55,44.6,99.6,99.6,99.6H4442
					c55,0,99.6-44.6,99.6-99.6v-199.1V1570.9v-199.1C4541.5,1316.8,4497,1272.2,4442,1272.2z"/>
				<path class="st0" d="M4442,1256.9H1734.1c-63.4,0-114.9,51.5-114.9,114.9v199.1v1473.4v199.1c0,63.4,51.5,114.9,114.9,114.9
					H4442c63.4,0,114.9-51.5,114.9-114.9v-199.1V1570.9v-199.1C4556.9,1308.4,4505.3,1256.9,4442,1256.9z M4541.5,1570.9v1473.4
					v199.1c0,55-44.6,99.6-99.6,99.6H1734.1c-55,0-99.6-44.6-99.6-99.6v-199.1V1570.9v-199.1c0-55,44.6-99.6,99.6-99.6H4442
					c55,0,99.6,44.6,99.6,99.6V1570.9z"/>
			</g>
			<g>
				<path class="st4" d="M4436.7,1309.9H1739.4c-33.7,0-61,27.3-61,61v225.7v1422.2v225.7c0,33.7,27.3,61,61,61h2697.3
					c33.7,0,61-27.3,61-61v-225.7V1596.5v-225.7C4497.6,1337.2,4470.3,1309.9,4436.7,1309.9z"/>
				<path class="st5" d="M4436.7,1294.7H1739.4c-42,0-76.1,34.2-76.1,76.1v225.7v1422.2v225.7c0,42,34.2,76.1,76.1,76.1h2697.3
					c42,0,76.1-34.2,76.1-76.1v-225.7V1596.5v-225.7C4512.8,1328.8,4478.6,1294.7,4436.7,1294.7z M4497.6,1596.5v1422.2v225.7
					c0,33.7-27.3,61-61,61H1739.4c-33.7,0-61-27.3-61-61v-225.7V1596.5v-225.7c0-33.7,27.3-61,61-61h2697.3c33.7,0,61,27.3,61,61
					V1596.5z"/>
			</g>
			<g>
				<rect x="1807.6" y="1426.9" class="st6" width="2560.8" height="1681.7"/>
				<path class="st0" d="M4368.4,1419.3H1807.6c-4.2,0-7.7,3.4-7.7,7.7v1681.7c0,4.2,3.4,7.7,7.7,7.7h2560.8c4.2,0,7.7-3.4,7.7-7.7
					V1426.9C4376.1,1422.7,4372.6,1419.3,4368.4,1419.3z M4360.7,3101H1815.3V1434.6h2545.4V3101z"/>
			</g>
			<g>
				<rect x="1807.6" y="1426.9" class="st1" width="2560.8" height="225.2"/>
				<path class="st0" d="M4368.4,1419.3H1807.6c-4.2,0-7.7,3.4-7.7,7.7v225.2c0,4.2,3.4,7.7,7.7,7.7h2560.8c4.2,0,7.7-3.4,7.7-7.7
					v-225.2C4376.1,1422.7,4372.6,1419.3,4368.4,1419.3z M4360.7,1644.4H1815.3v-209.8h2545.4V1644.4z"/>
			</g>
			<g>
				<path class="st1" d="M3170.9,3168.9h-165.8c-16,0-28.9,12.9-28.9,28.9s12.9,28.9,28.9,28.9h165.8c16,0,28.9-12.9,28.9-28.9
					S3186.9,3168.9,3170.9,3168.9z"/>
				<path class="st5" d="M3170.9,3153.7h-165.8c-24.3,0-44.1,19.8-44.1,44.1c0,24.3,19.8,44.1,44.1,44.1h165.8
					c24.3,0,44.1-19.8,44.1-44.1C3215,3173.5,3195.2,3153.7,3170.9,3153.7z M3170.9,3226.7h-165.8c-16,0-28.9-12.9-28.9-28.9
					s12.9-28.9,28.9-28.9h165.8c16,0,28.9,12.9,28.9,28.9S3186.9,3226.7,3170.9,3226.7z"/>
			</g>
		</g>
	</g>
	<g>
		<g>
			<g>
				<path class="st1" d="M3683.1,1498.6h-391.7c-28.5,0-53.4,19.3-60.4,46.9l-11.2,44h534.9l-11.2-44
					C3736.5,1517.9,3711.6,1498.6,3683.1,1498.6z"/>
				<path class="st6" d="M3750.3,1543.8c-7.8-30.8-35.5-52.3-67.2-52.3h-391.7c-31.7,0-59.4,21.5-67.2,52.3l-11.2,44
					c-0.5,2.1-0.1,4.3,1.3,6.1c1.3,1.7,3.4,2.7,5.6,2.7h534.9c2.2,0,4.2-1,5.6-2.7c1.3-1.7,1.8-4,1.3-6.1L3750.3,1543.8z
					 M3228.9,1582.5l9-35.3c6.2-24.5,28.3-41.6,53.6-41.6h391.7c25.3,0,47.3,17.1,53.6,41.6l9,35.3H3228.9z"/>
			</g>
			<g>
				<path class="st1" d="M3173.6,1498.6h-391.7c-28.5,0-53.4,19.3-60.4,46.9l-11.2,44h534.9l-11.2-44
					C3227,1517.9,3202.1,1498.6,3173.6,1498.6z"/>
				<path class="st6" d="M3240.8,1543.8c-7.8-30.8-35.5-52.3-67.2-52.3h-391.7c-31.7,0-59.4,21.5-67.2,52.3l-11.2,44
					c-0.5,2.1-0.1,4.3,1.3,6.1s3.4,2.7,5.6,2.7h534.9c2.2,0,4.2-1,5.6-2.7s1.8-4,1.3-6.1L3240.8,1543.8z M2719.4,1582.5l9-35.3
					c6.2-24.5,28.3-41.6,53.6-41.6h391.7c25.3,0,47.3,17.1,53.6,41.6l9,35.3H2719.4z"/>
			</g>
			<g>
				<path class="st1" d="M2664.1,1498.6h-391.7c-28.5,0-53.4,19.3-60.4,46.9l-11.2,44h534.9l-11.2-44
					C2717.4,1517.9,2692.6,1498.6,2664.1,1498.6z"/>
				<path class="st6" d="M2731.3,1543.8c-7.8-30.8-35.5-52.3-67.2-52.3h-391.7c-31.7,0-59.4,21.5-67.2,52.3l-11.2,44
					c-0.5,2.1-0.1,4.3,1.3,6.1c1.3,1.7,3.4,2.7,5.6,2.7h534.9c2.2,0,4.2-1,5.6-2.7c1.3-1.7,1.8-4,1.3-6.1L2731.3,1543.8z
					 M2209.8,1582.5l9-35.3c6.2-24.5,28.3-41.6,53.6-41.6h391.7c25.3,0,47.3,17.1,53.6,41.6l9,35.3H2209.8z"/>
			</g>
		</g>
		<g>
			<rect x="1807.6" y="1589.6" class="st1" width="2560.8" height="128.6"/>
			<path class="st0" d="M4368.4,1581.9H1807.6c-4.2,0-7.7,3.4-7.7,7.7v128.6c0,4.2,3.4,7.7,7.7,7.7h2560.8c4.2,0,7.7-3.4,7.7-7.7
				v-128.6C4376.1,1585.3,4372.6,1581.9,4368.4,1581.9z M4360.7,1710.5H1815.3v-113.2h2545.4V1710.5z"/>
		</g>
		<g>
			<g>
				<path class="st1" d="M1980.7,1498c-11,0-19.8,8.9-19.8,19.8c0,11,8.9,19.8,19.8,19.8c11,0,19.8-8.9,19.8-19.8
					C2000.5,1506.9,1991.6,1498,1980.7,1498z"/>
				<path class="st6" d="M1980.7,1483.9c-18.7,0-33.9,15.2-33.9,33.9c0,18.7,15.2,33.9,33.9,33.9s33.9-15.2,33.9-33.9
					C2014.6,1499.1,1999.4,1483.9,1980.7,1483.9z M1980.7,1537.7c-11,0-19.8-8.9-19.8-19.8c0-11,8.9-19.8,19.8-19.8
					c11,0,19.8,8.9,19.8,19.8C2000.5,1528.8,1991.6,1537.7,1980.7,1537.7z"/>
			</g>
			<g>
				<path class="st1" d="M2081,1498c-11,0-19.8,8.9-19.8,19.8c0,11,8.9,19.8,19.8,19.8c11,0,19.8-8.9,19.8-19.8
					C2100.8,1506.9,2091.9,1498,2081,1498z"/>
				<path class="st6" d="M2081,1483.9c-18.7,0-33.9,15.2-33.9,33.9c0,18.7,15.2,33.9,33.9,33.9s33.9-15.2,33.9-33.9
					C2114.9,1499.1,2099.7,1483.9,2081,1483.9z M2081,1537.7c-11,0-19.8-8.9-19.8-19.8c0-11,8.9-19.8,19.8-19.8
					c11,0,19.8,8.9,19.8,19.8C2100.8,1528.8,2091.9,1537.7,2081,1537.7z"/>
			</g>
			<g>
				<path class="st1" d="M1880.4,1498c-11,0-19.8,8.9-19.8,19.8c0,11,8.9,19.8,19.8,19.8c11,0,19.8-8.9,19.8-19.8
					C1900.2,1506.9,1891.3,1498,1880.4,1498z"/>
				<path class="st6" d="M1880.4,1483.9c-18.7,0-33.9,15.2-33.9,33.9c0,18.7,15.2,33.9,33.9,33.9c18.7,0,33.9-15.2,33.9-33.9
					C1914.3,1499.1,1899.1,1483.9,1880.4,1483.9z M1880.4,1537.7c-11,0-19.8-8.9-19.8-19.8c0-11,8.9-19.8,19.8-19.8
					c11,0,19.8,8.9,19.8,19.8C1900.2,1528.8,1891.3,1537.7,1880.4,1537.7z"/>
			</g>
		</g>
		<g>
			<path class="st6" d="M1987.8,1622.3c-20,0-36.3,16.3-36.3,36.3s16.3,36.3,36.3,36.3c20,0,36.3-16.3,36.3-36.3
				S2007.9,1622.3,1987.8,1622.3z M1987.8,1680.9c-12.3,0-22.2-10-22.2-22.2c0-12.3,10-22.2,22.2-22.2c12.3,0,22.2,10,22.2,22.2
				C2010.1,1670.9,2000.1,1680.9,1987.8,1680.9z"/>
			<path class="st6" d="M1875.4,1622.3c-20,0-36.3,16.3-36.3,36.3s16.3,36.3,36.3,36.3c20,0,36.3-16.3,36.3-36.3
				S1895.4,1622.3,1875.4,1622.3z M1875.4,1680.9c-12.3,0-22.2-10-22.2-22.2c0-12.3,10-22.2,22.2-22.2c12.3,0,22.2,10,22.2,22.2
				C1897.6,1670.9,1887.7,1680.9,1875.4,1680.9z"/>
		</g>
		<g>
			<path class="st1" d="M4252.9,1636.4H2091.7c-12.3,0-22.2,10-22.2,22.2c0,12.3,10,22.2,22.2,22.2h2161.2c12.3,0,22.2-10,22.2-22.2
				C4275.1,1646.4,4265.2,1636.4,4252.9,1636.4z"/>
			<path class="st6" d="M4252.9,1622.3H2091.7c-20,0-36.3,16.3-36.3,36.3c0,20,16.3,36.3,36.3,36.3h2161.2c20,0,36.3-16.3,36.3-36.3
				C4289.2,1638.6,4272.9,1622.3,4252.9,1622.3z M4252.9,1680.9H2091.7c-12.3,0-22.2-10-22.2-22.2c0-12.3,10-22.2,22.2-22.2h2161.2
				c12.3,0,22.2,10,22.2,22.2C4275.1,1670.9,4265.2,1680.9,4252.9,1680.9z"/>
		</g>
	</g>
	<g>
		<rect x="825.9" y="3671.2" class="st0" width="184.9" height="23.3"/>
		<path class="st0" d="M595.4,3002.7c-39,0-70.7,31.7-70.7,70.7c0,39,31.7,70.7,70.7,70.7c39,0,70.7-31.7,70.7-70.7
			C666.1,3034.4,634.4,3002.7,595.4,3002.7z M595.4,3120.8c-26.2,0-47.4-21.2-47.4-47.4c0-26.1,21.3-47.4,47.4-47.4
			c26.1,0,47.4,21.3,47.4,47.4C642.8,3099.6,621.5,3120.8,595.4,3120.8z"/>
		<path class="st0" d="M1498.9,2967.5L1375.8,2866c-28.8-23.7-70.4-21.1-96.6,4.4c-11.7-6.9-25-10.8-38.7-10.8
			c-12.4,0-24.2,3.1-34.8,8.6l-55.4-23.5c7.9-12.8,12.6-27.6,12.6-43.7c0-46.1-37.5-83.6-83.5-83.6v-0.1l-483.7-8v0
			c-0.1,0-0.1,0-0.2,0c-50,0-90.6,40.3-91.6,90.1h0l-34.5,243.3h0.1c-2.4,9.8-3.8,20.1-3.8,30.7c0,69.6,55.2,126.5,124.2,129.5
			l137,161.9c-8.6,11.3-13.9,25.3-13.9,40.6v367.2h-75.8v85.8h529.5v-85.8h-75.8v-367.2c0-37.2-30.3-67.5-67.6-67.5h-74.1
			l-237-208.2c8.3-17,13-36.1,13-56.2c0-11.7-1.7-22.9-4.6-33.7L704.3,2923l376.1-38.2v0c20.8-0.3,39.7-8.4,54.2-21.3l49.9,21.2
			c-0.9,1-2,1.7-2.8,2.7c-13,15.7-19,35.6-17.1,55.8c1.6,16.3,8.4,31.2,19.1,43.2c-20.2,30.5-14.8,71.9,14.1,95.7l123.1,101.5
			c13.1,10.8,29.2,16.6,46,16.6c2.4,0,4.7-0.1,7.1-0.3c19.2-1.9,36.7-11.1,48.9-26.1l-18-14.8c-8.3,10.2-20.1,16.4-33.2,17.7
			c-13,1.3-25.8-2.6-36-11l-123.1-101.5c-18.9-15.6-23-42.3-11-62.8c11.8,7,25.2,10.8,38.9,10.8c22.9,0,44.3-10.1,58.8-27.7
			c24.2-29.4,22.5-71.5-2.1-99.1c17.8-15.8,45-16.9,63.8-1.3l123.1,101.5c10.1,8.4,16.4,20.2,17.7,33.2c1.2,13.1-2.7,25.8-11,36
			l18,14.8c12.3-14.9,18.1-33.8,16.2-53.1C1523.2,2997.2,1513.9,2979.8,1498.9,2967.5z M595.4,2732.7L595.4,2732.7
			c37.8,0,68.4,30.7,68.4,68.4c0,37.7-30.6,68.4-68.3,68.4c-37.7,0-68.4-30.7-68.4-68.4C527,2763.4,557.7,2732.8,595.4,2732.7z
			 M519.8,2852.9c16.5,24.1,44.2,39.9,75.6,39.9c31.3,0,58.9-15.8,75.5-39.8l18.3,131.1c-23.6-24.8-56.9-40.4-93.8-40.4
			c-37.1,0-70.6,15.8-94.3,40.9L519.8,2852.9z M489,3073.4c0-58.7,47.8-106.5,106.5-106.5c49.3,0,90.5,33.9,102.5,79.6l3.8,27.4
			c-0.2,58.5-47.9,106-106.4,106C536.7,3179.9,489,3132.1,489,3073.4z M1143.3,3795.9v39.2H660.5v-39.2H1143.3z M1067.5,3588h-230
			v-90.4h230V3588z M1023.2,3361.2c24.4,0,44.3,19.9,44.3,44.2v68.9H814.2v137.1h253.3v161.2H736.2v-367.2
			c0-24.4,19.9-44.2,44.2-44.2H1023.2z M913.8,3337.9H780.5c-13.5,0-26,4.1-36.6,10.9L618.7,3201c33.2-6.1,62-24.8,81.2-51
			L913.8,3337.9z M701,2899.8l-14-100.3h0c-0.5-26-11.9-49.3-29.8-65.8l365.4,6.1c-16.6,15.3-27.2,37-27.2,61.3
			c0,26.7,12.8,50.2,32.3,65.6L701,2899.8z M1079.1,2861.5c-33.3,0-60.4-27.1-60.4-60.4c0-33.3,27.1-60.4,60.4-60.4
			c33.3,0,60.4,27.1,60.4,60.4C1139.5,2834.5,1112.4,2861.5,1079.1,2861.5z M1240.5,2882.9c8,0,15.8,2,22.9,5.4l-25.2,30.6
			L1208,2894C1217.2,2886.9,1228.5,2882.9,1240.5,2882.9z M1198.2,2967.5c-5.8-7.7-9.5-16.8-10.4-26.6c-1-10.1,1-20,5.5-28.9
			l30.2,24.8L1198.2,2967.5z M1215.9,2982.6l25.5-30.9l31.3,25.8C1256.6,2989.5,1233.9,2991.6,1215.9,2982.6z M1287.6,2959.7
			l-31.4-25.9l25.5-31C1294.7,2918.9,1296.9,2941.3,1287.6,2959.7z"/>
	</g>
	<path class="st0" d="M4797.3,2910.6v18c0,28.6-23.3,51.8-51.8,51.8H4668v22.7h77.5c40.3,0,73-32.2,74.3-72.2h125
		c5.6,42.3,41.5,75.2,85.4,75.2c21.1,0,40.2-7.9,55.2-20.5l19.5,16.6c-7,10.5-10.9,22.9-10.8,35.8c0,17,6.8,33,18.9,45l125.1,124.1
		c4.4,4.3,9.4,7.7,14.6,10.5v26.5h-365.4V3455h52l113.6,219.9c-84,9.1-149.6,80.3-149.6,166.7v17.4h687.8v-17.4
		c0-92.4-75.2-167.7-167.6-167.7h-133.7l-113-218.9h188.8v-210.8h-4.9l-26.5-44.5c18.6-25,16.7-60.6-6.1-83.2l-125.1-124.1
		c-21.7-21.5-57.5-23.4-82-6.3l-19.9-16.9c9.9-14,15.8-31.1,15.8-49.6c0-47.7-38.8-86.6-86.5-86.6c-43.9,0-79.8,32.9-85.4,75.2h-125
		c-1.2-39.9-34-72.1-74.2-72.1H4668v22.7h77.5C4774.1,2858.8,4797.3,2882.1,4797.3,2910.6z M5334.2,3244.3h-58.7V3225
		c2.5,0.3,5,0.7,7.6,0.7c12.3,0,24-3.6,34.1-10L5334.2,3244.3z M5071,3696.6h352.4c78.2,0,142.1,62.2,144.9,139.7h-642.2
		C4928.9,3758.8,4992.8,3696.6,5071,3696.6z M4964.8,3455h186.4l113,218.9h-186.3L4964.8,3455z M5342.8,3266.9v165.4H4910v-165.4
		H5342.8z M5116.8,3038c-0.1-11,4.1-21.3,11.9-29.2c7.8-7.8,18.2-12.1,29.2-12.1c10.9,0,21.2,4.2,28.9,11.9l125.1,124.1
		c16.1,15.9,16.2,42.1,0.3,58.2c-15.5,15.6-42.5,15.7-58.2,0.3L5129,3067C5121.2,3059.2,5116.8,3049,5116.8,3038z M4966.3,2919.6
		c0-35.2,28.7-63.9,63.9-63.9c35.2,0,63.9,28.7,63.9,63.9c0,35.3-28.7,63.9-63.9,63.9C4994.9,2983.6,4966.3,2954.9,4966.3,2919.6z"
		/>
	<g>
		<g>
			<rect x="2141.6" y="1834.4" class="st7" width="14.2" height="28"/>
			<rect x="2132.3" y="1881.7" class="st7" width="23.5" height="28"/>
			<rect x="2132.3" y="1928.9" class="st7" width="23.5" height="28"/>
			<rect x="2132.3" y="1976.2" class="st7" width="23.5" height="28"/>
			<rect x="2132.3" y="2023.5" class="st7" width="23.5" height="28"/>
			<rect x="2132.3" y="2070.8" class="st7" width="23.5" height="28"/>
			<rect x="2132.3" y="2118.1" class="st7" width="23.5" height="28"/>
			<rect x="2132.3" y="2165.3" class="st7" width="23.5" height="28"/>
			<rect x="2132.3" y="2212.6" class="st7" width="23.5" height="28"/>
			<rect x="2120.1" y="2259.9" class="st7" width="35.6" height="28"/>
			<rect x="2120.1" y="2307.2" class="st7" width="35.6" height="28"/>
			<rect x="2120.1" y="2354.4" class="st7" width="35.6" height="28"/>
			<rect x="2120.1" y="2401.7" class="st7" width="35.6" height="28"/>
			<rect x="2120.1" y="2449" class="st7" width="35.6" height="28"/>
			<rect x="2120.1" y="2496.3" class="st7" width="35.6" height="28"/>
			<rect x="2120.1" y="2543.6" class="st7" width="35.6" height="28"/>
			<rect x="2120.1" y="2590.8" class="st7" width="35.6" height="28"/>
			<rect x="2120.1" y="2638.1" class="st7" width="35.6" height="28"/>
			<rect x="2120.1" y="2685.4" class="st7" width="35.6" height="28"/>
			<rect x="2120.1" y="2732.7" class="st7" width="35.6" height="28"/>
			<rect x="2120.1" y="2780" class="st7" width="35.6" height="28"/>
			<rect x="2120.1" y="2827.3" class="st7" width="35.6" height="28"/>
			<rect x="2120.1" y="2874.5" class="st7" width="35.6" height="28"/>
			<rect x="2120.1" y="2921.8" class="st7" width="35.6" height="28"/>
			<rect x="2120.1" y="2969.1" class="st7" width="35.6" height="28"/>
			<path class="st8" d="M2437.9,1857.5h-227.7c-5.1,0-9.2-4.1-9.2-9.1l0,0c0-5,4.1-9.1,9.2-9.1h227.7c5.1,0,9.2,4.1,9.2,9.1l0,0
				C2447.1,1853.4,2443,1857.5,2437.9,1857.5z"/>
			<path class="st8" d="M2343.6,1904.8h-133.4c-5.1,0-9.2-4.1-9.2-9.1l0,0c0-5,4.1-9.1,9.2-9.1h133.4c5.1,0,9.2,4.1,9.2,9.1l0,0
				C2352.8,1900.7,2348.7,1904.8,2343.6,1904.8z"/>
			<path class="st8" d="M2540.2,1999.3h-183.1c-5.1,0-9.2-4.1-9.2-9.1l0,0c0-5,4.1-9.1,9.2-9.1h183.1c5.1,0,9.2,4.1,9.2,9.1l0,0
				C2549.4,1995.3,2545.3,1999.3,2540.2,1999.3z"/>
			<path class="st9" d="M2689.8,1999.3h-89.7c-5.1,0-9.2-4.1-9.2-9.1l0,0c0-5,4.1-9.1,9.2-9.1h89.7c5.1,0,9.2,4.1,9.2,9.1l0,0
				C2699,1995.3,2694.9,1999.3,2689.8,1999.3z"/>
			<path class="st8" d="M2353,2141.2h-77.2c-5.1,0-9.2-4.1-9.2-9.1l0,0c0-5,4.1-9.1,9.2-9.1h77.2c5.1,0,9.2,4.1,9.2,9.1l0,0
				C2362.2,2137.1,2358.1,2141.2,2353,2141.2z"/>
			<path class="st8" d="M2557.8,2283h-133.1c-5.1,0-9.2-4.1-9.2-9.1l0,0c0-5,4.1-9.1,9.2-9.1l133.1,0c5.1,0,9.2,4.1,9.2,9.1l0,0
				C2567,2278.9,2562.9,2283,2557.8,2283z"/>
			<path class="st6" d="M2765,2283h-149c-5.1,0-9.2-4.1-9.2-9.1l0,0c0-5,4.1-9.1,9.2-9.1h149c5.1,0,9.2,4.1,9.2,9.1l0,0
				C2774.2,2278.9,2770.1,2283,2765,2283z"/>
			<path class="st8" d="M2947.3,2283h-117.2c-5.1,0-9.2-4.1-9.2-9.1l0,0c0-5,4.1-9.1,9.2-9.1h117.2c5.1,0,9.2,4.1,9.2,9.1l0,0
				C2956.5,2278.9,2952.4,2283,2947.3,2283z"/>
			<path class="st8" d="M2640.3,2330.3H2499c-5.1,0-9.2-4.1-9.2-9.1l0,0c0-5,4.1-9.1,9.2-9.1h141.4c5.1,0,9.2,4.1,9.2,9.1l0,0
				C2649.5,2326.2,2645.4,2330.3,2640.3,2330.3z"/>
			<path class="st8" d="M2563.4,2424.8h-141.4c-5.1,0-9.2-4.1-9.2-9.1l0,0c0-5,4.1-9.1,9.2-9.1h141.4c5.1,0,9.2,4.1,9.2,9.1l0,0
				C2572.6,2420.8,2568.5,2424.8,2563.4,2424.8z"/>
			<path class="st8" d="M2529.1,2566.7h-103.5c-5.1,0-9.2-4.1-9.2-9.1l0,0c0-5,4.1-9.1,9.2-9.1h103.5c5.1,0,9.2,4.1,9.2,9.1l0,0
				C2538.2,2562.6,2534.1,2566.7,2529.1,2566.7z"/>
			<path class="st8" d="M2459.8,2613.9h-103.5c-5.1,0-9.2-4.1-9.2-9.1l0,0c0-5,4.1-9.1,9.2-9.1h103.5c5.1,0,9.2,4.1,9.2,9.1l0,0
				C2469,2609.9,2464.8,2613.9,2459.8,2613.9z"/>
			<path class="st8" d="M2459.8,2661.2h-103.5c-5.1,0-9.2-4.1-9.2-9.1l0,0c0-5,4.1-9.1,9.2-9.1h103.5c5.1,0,9.2,4.1,9.2,9.1l0,0
				C2469,2657.1,2464.8,2661.2,2459.8,2661.2z"/>
			<path class="st6" d="M2691.9,2661.2h-178.2c-5.1,0-9.2-4.1-9.2-9.1v0c0-5,4.1-9.1,9.2-9.1h178.2c5.1,0,9.2,4.1,9.2,9.1l0,0
				C2701.1,2657.1,2697,2661.2,2691.9,2661.2z"/>
			<path class="st8" d="M2864.7,2661.2h-129.3c-5.1,0-9.2-4.1-9.2-9.1l0,0c0-5,4.1-9.1,9.2-9.1h129.3c5.1,0,9.2,4.1,9.2,9.1l0,0
				C2873.8,2657.1,2869.7,2661.2,2864.7,2661.2z"/>
			<path class="st9" d="M2969.6,2661.2h-38c-5.1,0-9.2-4.1-9.2-9.1l0,0c0-5,4.1-9.1,9.2-9.1h38c5.1,0,9.2,4.1,9.2,9.1v0
				C2978.8,2657.1,2974.7,2661.2,2969.6,2661.2z"/>
			<path class="st8" d="M2534.2,2519.4h-178c-5.1,0-9.2-4.1-9.2-9.1l0,0c0-5,4.1-9.1,9.2-9.1h178c5.1,0,9.2,4.1,9.2,9.1l0,0
				C2543.4,2515.3,2539.3,2519.4,2534.2,2519.4z"/>
			<path class="st8" d="M3271.6,2566.7h-689.8c-5.1,0-9.2-4.1-9.2-9.1l0,0c0-5,4.1-9.1,9.2-9.1h689.8c5.1,0,9.2,4.1,9.2,9.1l0,0
				C3280.8,2562.6,3276.7,2566.7,3271.6,2566.7z"/>
			<path class="st6" d="M2764.9,2519.4h-178c-5.1,0-9.2-4.1-9.2-9.1l0,0c0-5,4.1-9.1,9.2-9.1h178c5.1,0,9.2,4.1,9.2,9.1l0,0
				C2774.1,2515.3,2770,2519.4,2764.9,2519.4z"/>
			<path class="st8" d="M2951.2,2519.4h-144.6c-5.1,0-9.2-4.1-9.2-9.1l0,0c0-5,4.1-9.1,9.2-9.1h144.6c5.1,0,9.2,4.1,9.2,9.1l0,0
				C2960.3,2515.3,2956.2,2519.4,2951.2,2519.4z"/>
			<path class="st8" d="M2442.6,2472.1h-85.6c-5.1,0-9.2-4.1-9.2-9.1l0,0c0-5,4.1-9.1,9.2-9.1h85.6c5.1,0,9.2,4.1,9.2,9.1l0,0
				C2451.7,2468,2447.6,2472.1,2442.6,2472.1z"/>
			<path class="st8" d="M2692.3,2377.5h-196c-5.1,0-9.2-4.1-9.2-9.1l0,0c0-5,4.1-9.1,9.2-9.1h196c5.1,0,9.2,4.1,9.2,9.1l0,0
				C2701.5,2373.5,2697.3,2377.5,2692.3,2377.5z"/>
			<path class="st6" d="M2911.7,2330.3h-222.4c-5.1,0-9.2-4.1-9.2-9.1l0,0c0-5,4.1-9.1,9.2-9.1h222.4c5.1,0,9.2,4.1,9.2,9.1l0,0
				C2920.8,2326.2,2916.7,2330.3,2911.7,2330.3z"/>
			<path class="st8" d="M3105.8,2330.3h-151.6c-5.1,0-9.2-4.1-9.2-9.1l0,0c0-5,4.1-9.1,9.2-9.1h151.6c5.1,0,9.2,4.1,9.2,9.1l0,0
				C3115,2326.2,3110.9,2330.3,3105.8,2330.3z"/>
			<path class="st9" d="M3204.2,1904.8h-57c-5.1,0-9.2-4.1-9.2-9.1l0,0c0-5,4.1-9.1,9.2-9.1h57c5.1,0,9.2,4.1,9.2,9.1l0,0
				C3213.4,1900.7,3209.3,1904.8,3204.2,1904.8z"/>
			<path class="st6" d="M3269.1,2046.6h-167.3c-5.1,0-9.2-4.1-9.2-9.1l0,0c0-5,4.1-9.1,9.2-9.1h167.3c5.1,0,9.2,4.1,9.2,9.1l0,0
				C3278.3,2042.5,3274.1,2046.6,3269.1,2046.6z"/>
			<path class="st9" d="M3058.2,2046.6h-52.1c-5.1,0-9.2-4.1-9.2-9.1l0,0c0-5,4.1-9.1,9.2-9.1h52.1c5.1,0,9.2,4.1,9.2,9.1l0,0
				C3067.4,2042.5,3063.3,2046.6,3058.2,2046.6z"/>
			<path class="st9" d="M2695.7,2235.7h-31.2c-5.1,0-9.2-4.1-9.2-9.1l0,0c0-5,4.1-9.1,9.2-9.1h31.2c5.1,0,9.2,4.1,9.2,9.1l0,0
				C2704.9,2231.6,2700.8,2235.7,2695.7,2235.7z"/>
			<path class="st9" d="M3052.5,2283h-41.6c-5.1,0-9.2-4.1-9.2-9.1l0,0c0-5,4.1-9.1,9.2-9.1h41.6c5.1,0,9.2,4.1,9.2,9.1l0,0
				C3061.7,2278.9,3057.6,2283,3052.5,2283z"/>
			<path class="st9" d="M3188.8,2330.3h-41.6c-5.1,0-9.2-4.1-9.2-9.1l0,0c0-5,4.1-9.1,9.2-9.1h41.6c5.1,0,9.2,4.1,9.2,9.1l0,0
				C3197.9,2326.2,3193.8,2330.3,3188.8,2330.3z"/>
			<path class="st9" d="M2783.9,2377.5h-41.6c-5.1,0-9.2-4.1-9.2-9.1l0,0c0-5,4.1-9.1,9.2-9.1h41.6c5.1,0,9.2,4.1,9.2,9.1l0,0
				C2793,2373.5,2788.9,2377.5,2783.9,2377.5z"/>
			<path class="st9" d="M3040.2,2519.4h-41.6c-5.1,0-9.2-4.1-9.2-9.1l0,0c0-5,4.1-9.1,9.2-9.1h41.6c5.1,0,9.2,4.1,9.2,9.1l0,0
				C3049.4,2515.3,3045.2,2519.4,3040.2,2519.4z"/>
			<path class="st8" d="M3083.4,1904.8H2950c-5.1,0-9.2-4.1-9.2-9.1l0,0c0-5,4.1-9.1,9.2-9.1h133.4c5.1,0,9.2,4.1,9.2,9.1l0,0
				C3092.6,1900.7,3088.5,1904.8,3083.4,1904.8z"/>
			<path class="st8" d="M2414.6,1952h-133.4c-5.1,0-9.2-4.1-9.2-9.1l0,0c0-5,4.1-9.1,9.2-9.1h133.4c5.1,0,9.2,4.1,9.2,9.1l0,0
				C2423.8,1948,2419.7,1952,2414.6,1952z"/>
			<path class="st8" d="M2495.3,2046.6h-133.4c-5.1,0-9.2-4.1-9.2-9.1l0,0c0-5,4.1-9.1,9.2-9.1h133.4c5.1,0,9.2,4.1,9.2,9.1l0,0
				C2504.5,2042.5,2500.4,2046.6,2495.3,2046.6z"/>
			<path class="st6" d="M2884.6,1904.8H2426c-5.1,0-9.2-4.1-9.2-9.1l0,0c0-5,4.1-9.1,9.2-9.1h458.6c5.1,0,9.2,4.1,9.2,9.1l0,0
				C2893.8,1900.7,2889.7,1904.8,2884.6,1904.8z"/>
			<path class="st6" d="M2951.9,2046.6h-393.3c-5.1,0-9.2-4.1-9.2-9.1l0,0c0-5,4.1-9.1,9.2-9.1h393.3c5.1,0,9.2,4.1,9.2,9.1l0,0
				C2961,2042.5,2956.9,2046.6,2951.9,2046.6z"/>
			<path class="st8" d="M2439.5,2188.4h-165.3c-5.1,0-9.2-4.1-9.2-9.1l0,0c0-5,4.1-9.1,9.2-9.1h165.3c5.1,0,9.2,4.1,9.2,9.1l0,0
				C2448.6,2184.4,2444.5,2188.4,2439.5,2188.4z"/>
			<path class="st8" d="M2617.3,2235.7h-260.1c-5.1,0-9.2-4.1-9.2-9.1l0,0c0-5,4.1-9.1,9.2-9.1h260.1c5.1,0,9.2,4.1,9.2,9.1l0,0
				C2626.4,2231.6,2622.3,2235.7,2617.3,2235.7z"/>
			<path class="st8" d="M2898.1,2188.4h-393.3c-5.1,0-9.2-4.1-9.2-9.1l0,0c0-5,4.1-9.1,9.2-9.1h393.3c5.1,0,9.2,4.1,9.2,9.1l0,0
				C2907.3,2184.4,2903.2,2188.4,2898.1,2188.4z"/>
			<path class="st8" d="M3271.6,2377.5H2835c-5.1,0-9.2-4.1-9.2-9.1l0,0c0-5,4.1-9.1,9.2-9.1h436.6c5.1,0,9.2,4.1,9.2,9.1l0,0
				C3280.8,2373.5,3276.7,2377.5,3271.6,2377.5z"/>
			<path class="st8" d="M2765,2093.9h-407.9c-5.1,0-9.2-4.1-9.2-9.1l0,0c0-5,4.1-9.1,9.2-9.1H2765c5.1,0,9.2,4.1,9.2,9.1l0,0
				C2774.2,2089.8,2770.1,2093.9,2765,2093.9z"/>
		</g>
		<path class="st8" d="M2557.8,2806.2h-133.1c-5.1,0-9.2-4.1-9.2-9.1l0,0c0-5,4.1-9.1,9.2-9.1l133.1,0c5.1,0,9.2,4.1,9.2,9.1l0,0
			C2567,2802.2,2562.9,2806.2,2557.8,2806.2z"/>
		<path class="st6" d="M2765,2806.2h-149c-5.1,0-9.2-4.1-9.2-9.1l0,0c0-5,4.1-9.1,9.2-9.1h149c5.1,0,9.2,4.1,9.2,9.1l0,0
			C2774.2,2802.2,2770.1,2806.2,2765,2806.2z"/>
		<path class="st8" d="M2947.3,2806.2h-117.2c-5.1,0-9.2-4.1-9.2-9.1l0,0c0-5,4.1-9.1,9.2-9.1h117.2c5.1,0,9.2,4.1,9.2,9.1l0,0
			C2956.5,2802.2,2952.4,2806.2,2947.3,2806.2z"/>
		<path class="st8" d="M2640.3,2853.5H2499c-5.1,0-9.2-4.1-9.2-9.1l0,0c0-5,4.1-9.1,9.2-9.1h141.4c5.1,0,9.2,4.1,9.2,9.1l0,0
			C2649.5,2849.5,2645.4,2853.5,2640.3,2853.5z"/>
		<path class="st8" d="M2563.4,2948.1h-141.4c-5.1,0-9.2-4.1-9.2-9.1l0,0c0-5,4.1-9.1,9.2-9.1h141.4c5.1,0,9.2,4.1,9.2,9.1l0,0
			C2572.6,2944,2568.5,2948.1,2563.4,2948.1z"/>
		<path class="st8" d="M2442.6,2995.4h-85.6c-5.1,0-9.2-4.1-9.2-9.1l0,0c0-5,4.1-9.1,9.2-9.1h85.6c5.1,0,9.2,4.1,9.2,9.1l0,0
			C2451.7,2991.3,2447.6,2995.4,2442.6,2995.4z"/>
		<path class="st8" d="M2692.3,2900.8h-196c-5.1,0-9.2-4.1-9.2-9.1l0,0c0-5,4.1-9.1,9.2-9.1h196c5.1,0,9.2,4.1,9.2,9.1l0,0
			C2701.5,2896.7,2697.3,2900.8,2692.3,2900.8z"/>
		<path class="st6" d="M2911.7,2853.5h-222.4c-5.1,0-9.2-4.1-9.2-9.1l0,0c0-5,4.1-9.1,9.2-9.1h222.4c5.1,0,9.2,4.1,9.2,9.1l0,0
			C2920.8,2849.5,2916.7,2853.5,2911.7,2853.5z"/>
		<path class="st8" d="M3105.8,2853.5h-151.6c-5.1,0-9.2-4.1-9.2-9.1l0,0c0-5,4.1-9.1,9.2-9.1h151.6c5.1,0,9.2,4.1,9.2,9.1l0,0
			C3115,2849.5,3110.9,2853.5,3105.8,2853.5z"/>
		<path class="st9" d="M2695.7,2759h-31.2c-5.1,0-9.2-4.1-9.2-9.1l0,0c0-5,4.1-9.1,9.2-9.1h31.2c5.1,0,9.2,4.1,9.2,9.1l0,0
			C2704.9,2754.9,2700.8,2759,2695.7,2759z"/>
		<path class="st9" d="M3052.5,2806.2h-41.6c-5.1,0-9.2-4.1-9.2-9.1l0,0c0-5,4.1-9.1,9.2-9.1h41.6c5.1,0,9.2,4.1,9.2,9.1l0,0
			C3061.7,2802.2,3057.6,2806.2,3052.5,2806.2z"/>
		<path class="st9" d="M3188.8,2853.5h-41.6c-5.1,0-9.2-4.1-9.2-9.1l0,0c0-5,4.1-9.1,9.2-9.1h41.6c5.1,0,9.2,4.1,9.2,9.1l0,0
			C3197.9,2849.5,3193.8,2853.5,3188.8,2853.5z"/>
		<path class="st9" d="M2783.9,2900.8h-41.6c-5.1,0-9.2-4.1-9.2-9.1l0,0c0-5,4.1-9.1,9.2-9.1h41.6c5.1,0,9.2,4.1,9.2,9.1l0,0
			C2793,2896.7,2788.9,2900.8,2783.9,2900.8z"/>
		<path class="st8" d="M2439.5,2711.7h-165.3c-5.1,0-9.2-4.1-9.2-9.1l0,0c0-5,4.1-9.1,9.2-9.1h165.3c5.1,0,9.2,4.1,9.2,9.1l0,0
			C2448.6,2707.6,2444.5,2711.7,2439.5,2711.7z"/>
		<path class="st8" d="M2617.3,2759h-260.1c-5.1,0-9.2-4.1-9.2-9.1l0,0c0-5,4.1-9.1,9.2-9.1h260.1c5.1,0,9.2,4.1,9.2,9.1l0,0
			C2626.4,2754.9,2622.3,2759,2617.3,2759z"/>
		<path class="st8" d="M2898.1,2711.7h-393.3c-5.1,0-9.2-4.1-9.2-9.1l0,0c0-5,4.1-9.1,9.2-9.1h393.3c5.1,0,9.2,4.1,9.2,9.1l0,0
			C2907.3,2707.6,2903.2,2711.7,2898.1,2711.7z"/>
		<path class="st8" d="M3271.6,2900.8H2835c-5.1,0-9.2-4.1-9.2-9.1l0,0c0-5,4.1-9.1,9.2-9.1h436.6c5.1,0,9.2,4.1,9.2,9.1l0,0
			C3280.8,2896.7,3276.7,2900.8,3271.6,2900.8z"/>
	</g>
</g>
</svg>
