<svg id="Personal_Info" data-name="Personal Info" xmlns="http://www.w3.org/2000/svg" width="27.585" height="28.081" viewBox="0 0 27.585 28.081">
  <path id="Path_15260" data-name="Path 15260" d="M14.793,1A13.918,13.918,0,0,0,1,15.041,13.918,13.918,0,0,0,14.793,29.081,13.918,13.918,0,0,0,28.585,15.041,13.934,13.934,0,0,0,14.793,1Zm0,27.175A13.02,13.02,0,0,1,1.89,15.041a13.02,13.02,0,0,1,12.9-13.135A13.02,13.02,0,0,1,27.7,15.041a13.035,13.035,0,0,1-12.9,13.135Z" transform="translate(-1 -1)" fill="#27276d"/>
  <path id="Path_15261" data-name="Path 15261" d="M29.309,41.964a13.444,13.444,0,0,0-19.066,0,.461.461,0,0,0-.009.64.434.434,0,0,0,.624.009,12.577,12.577,0,0,1,17.834,0,.434.434,0,0,0,.624-.009.461.461,0,0,0-.009-.64Z" transform="translate(-5.984 -21.242)" fill="#fd5c70"/>
  <path id="Path_15262" data-name="Path 15262" d="M25.435,20.87A5.435,5.435,0,1,0,20,15.435,5.435,5.435,0,0,0,25.435,20.87Zm0-9.964a4.529,4.529,0,1,1-4.529,4.529A4.529,4.529,0,0,1,25.435,10.906Z" transform="translate(-11.642 -5.924)" fill="#fd5c70"/>
</svg>
