<svg id="tax-information" xmlns="http://www.w3.org/2000/svg" width="27.585" height="27.585" viewBox="0 0 27.585 27.585">
  <path id="Path_15878" data-name="Path 15878" d="M13.46,14.356A.46.46,0,0,1,13,13.9V7.46a.46.46,0,1,1,.92,0V13.9A.46.46,0,0,1,13.46,14.356Z" transform="translate(-7.943 -4.701)" fill="#27276d"/>
  <path id="Path_15879" data-name="Path 15879" d="M32.67,55.517H15.759A2.761,2.761,0,0,1,13,52.759V50.919a.46.46,0,0,1,.92,0v1.839a1.839,1.839,0,1,0,3.489-.814,1.311,1.311,0,0,1,.069-1.28A1.393,1.393,0,0,1,18.666,50h14.1a2.759,2.759,0,0,1,2.746,3.028A2.833,2.833,0,0,1,32.67,55.517ZM17.8,54.6H32.67A1.908,1.908,0,0,0,34.6,52.942a1.839,1.839,0,0,0-1.832-2.023h-14.1a.485.485,0,0,0-.407.23.389.389,0,0,0-.026.388A2.727,2.727,0,0,1,17.8,54.6Z" transform="translate(-7.943 -27.932)" fill="#27276d"/>
  <path id="Path_15880" data-name="Path 15880" d="M34.2,30.92H29.46a.46.46,0,0,1,0-.92H34.2a.46.46,0,0,1,0,.92Z" transform="translate(-16.587 -17.127)" fill="#27276d"/>
  <path id="Path_15881" data-name="Path 15881" d="M38.276,36.92H30.46a.46.46,0,1,1,0-.92h7.816a.46.46,0,1,1,0,.92Z" transform="translate(-17.127 -20.368)" fill="#27276d"/>
  <path id="Path_15882" data-name="Path 15882" d="M38.276,42.92H30.46a.46.46,0,1,1,0-.92h7.816a.46.46,0,1,1,0,.92Z" transform="translate(-17.127 -23.61)" fill="#27276d"/>
  <path id="Path_15883" data-name="Path 15883" d="M30.068,24.988a.46.46,0,0,1-.46-.46V4.759A1.839,1.839,0,0,0,27.769,2.92H8.46a.46.46,0,0,1,0-.92h19.31a2.761,2.761,0,0,1,2.759,2.759V24.528A.46.46,0,0,1,30.068,24.988Z" transform="translate(-5.241 -2)" fill="#27276d"/>
  <path id="Path_15884" data-name="Path 15884" d="M8.057,7.517h-2.3A2.759,2.759,0,1,1,8.517,4.759a.46.46,0,0,1-.92,0A1.839,1.839,0,1,0,5.759,6.6h2.3a.46.46,0,1,1,0,.92Z" transform="translate(-2.54 -2)" fill="#27276d"/>
  <path id="Path_15885" data-name="Path 15885" d="M26.46,17.6a.46.46,0,0,1-.46-.46V13.46a.46.46,0,1,1,.92,0v3.678A.46.46,0,0,1,26.46,17.6Z" transform="translate(-14.966 -7.943)" fill="#fd5c70"/>
  <path id="Path_15886" data-name="Path 15886" d="M26.218,13.92H23.46a.46.46,0,0,1,0-.92h2.759a.46.46,0,0,1,0,.92Z" transform="translate(-13.345 -7.943)" fill="#fd5c70"/>
  <path id="Path_15887" data-name="Path 15887" d="M30.459,17.6a.473.473,0,0,1-.161-.029.46.46,0,0,1-.269-.593L31.408,13.3a.46.46,0,0,1,.862.322L30.89,17.3A.46.46,0,0,1,30.459,17.6Z" transform="translate(-17.126 -7.941)" fill="#fd5c70"/>
  <path id="Path_15888" data-name="Path 15888" d="M34.839,17.6a.46.46,0,0,1-.431-.3l-1.379-3.678a.46.46,0,0,1,.862-.322l1.379,3.678a.46.46,0,0,1-.269.593A.473.473,0,0,1,34.839,17.6Z" transform="translate(-18.747 -7.944)" fill="#fd5c70"/>
  <path id="Path_15889" data-name="Path 15889" d="M42.218,17.6a.46.46,0,0,1-.368-.184l-2.759-3.678a.46.46,0,1,1,.736-.552l2.759,3.678a.46.46,0,0,1-.368.736Z" transform="translate(-21.989 -7.943)" fill="#fd5c70"/>
  <path id="Path_15890" data-name="Path 15890" d="M39.46,17.6a.46.46,0,0,1-.368-.736l2.759-3.678a.46.46,0,1,1,.736.552l-2.759,3.678A.46.46,0,0,1,39.46,17.6Z" transform="translate(-21.989 -7.943)" fill="#fd5c70"/>
  <path id="Path_15891" data-name="Path 15891" d="M33.3,19.92H31.46a.46.46,0,1,1,0-.92H33.3a.46.46,0,0,1,0,.92Z" transform="translate(-17.667 -11.184)" fill="#fd5c70"/>
  <path id="Path_15892" data-name="Path 15892" d="M7.977,35.954a5.977,5.977,0,1,1,5.977-5.977,5.977,5.977,0,0,1-5.977,5.977Zm0-11.034a5.057,5.057,0,1,0,5.057,5.057A5.057,5.057,0,0,0,7.977,24.92Z" transform="translate(-2 -13.885)" fill="#27276d"/>
  <path id="Path_15893" data-name="Path 15893" d="M12.839,36.437A1.839,1.839,0,0,1,11,34.6a.46.46,0,0,1,.92,0,.92.92,0,1,0,.92-.919,1.839,1.839,0,1,1,1.839-1.839.46.46,0,0,1-.92,0,.92.92,0,1,0-.92.92,1.839,1.839,0,1,1,0,3.678Z" transform="translate(-6.862 -17.127)" fill="#fd5c70"/>
  <path id="Path_15894" data-name="Path 15894" d="M14.46,29.839a.46.46,0,0,1-.46-.46v-.92a.46.46,0,0,1,.92,0v.92A.46.46,0,0,1,14.46,29.839Z" transform="translate(-8.483 -16.046)" fill="#fd5c70"/>
  <path id="Path_15895" data-name="Path 15895" d="M14.46,43.839a.46.46,0,0,1-.46-.46v-.92a.46.46,0,0,1,.92,0v.92A.46.46,0,0,1,14.46,43.839Z" transform="translate(-8.483 -23.61)" fill="#fd5c70"/>
</svg>
