<svg id="work-eligibility" xmlns="http://www.w3.org/2000/svg" width="24.818" height="24.818" viewBox="0 0 24.818 24.818">
  <g id="Group_3856" data-name="Group 3856" transform="translate(3.102 14.477)">
    <path id="Path_15909" data-name="Path 15909" d="M9.722,15.034h-6.2a.517.517,0,0,1,0-1.034h6.2a.517.517,0,0,1,0,1.034Z" transform="translate(-3 -14)" fill="#27276d"/>
  </g>
  <g id="Group_3857" data-name="Group 3857" transform="translate(3.102 17.579)">
    <path id="Path_15910" data-name="Path 15910" d="M8.687,18.034H3.517a.517.517,0,0,1,0-1.034h5.17a.517.517,0,1,1,0,1.034Z" transform="translate(-3 -17)" fill="#27276d"/>
  </g>
  <g id="Group_3858" data-name="Group 3858" transform="translate(6.722 3.102)">
    <path id="Path_15911" data-name="Path 15911" d="M8.568,7.136a2.068,2.068,0,1,1,2.068-2.068A2.07,2.07,0,0,1,8.568,7.136Zm0-3.1A1.034,1.034,0,1,0,9.6,5.068,1.036,1.036,0,0,0,8.568,4.034Z" transform="translate(-6.5 -3)" fill="#fd5c70"/>
  </g>
  <g id="Group_3859" data-name="Group 3859" transform="translate(4.653 8.273)">
    <path id="Path_15912" data-name="Path 15912" d="M12.256,12.136a.517.517,0,0,1-.517-.517V10.585a1.553,1.553,0,0,0-1.551-1.551h-3.1a1.553,1.553,0,0,0-1.551,1.551v1.034a.517.517,0,1,1-1.034,0V10.585A2.589,2.589,0,0,1,7.085,8h3.1a2.589,2.589,0,0,1,2.585,2.585v1.034A.517.517,0,0,1,12.256,12.136Z" transform="translate(-4.5 -8)" fill="#fd5c70"/>
  </g>
  <g id="Group_3860" data-name="Group 3860">
    <path id="Path_15913" data-name="Path 15913" d="M9.824,21.716H2.585A2.589,2.589,0,0,1,0,19.131V2.585A2.589,2.589,0,0,1,2.585,0H14.994a2.589,2.589,0,0,1,2.585,2.585V8.852a.517.517,0,1,1-1.034,0V2.585a1.553,1.553,0,0,0-1.551-1.551H2.585A1.553,1.553,0,0,0,1.034,2.585V19.131a1.553,1.553,0,0,0,1.551,1.551H9.824a.517.517,0,1,1,0,1.034Z" fill="#27276d"/>
  </g>
  <g id="Group_3861" data-name="Group 3861" transform="translate(11.375 11.375)">
    <path id="Path_15914" data-name="Path 15914" d="M17.722,24.443a6.722,6.722,0,1,1,6.722-6.722A6.729,6.729,0,0,1,17.722,24.443Zm0-12.409a5.687,5.687,0,1,0,5.687,5.687A5.694,5.694,0,0,0,17.722,12.034Z" transform="translate(-11 -11)" fill="#27276d"/>
  </g>
  <g id="Group_3862" data-name="Group 3862" transform="translate(14.477 15.511)">
    <path id="Path_15915" data-name="Path 15915" d="M16.585,20.17a.523.523,0,0,1-.366-.151l-2.068-2.068a.517.517,0,0,1,.731-.731L16.559,18.9l3.255-3.721a.517.517,0,1,1,.779.681l-3.619,4.136a.516.516,0,0,1-.372.176Z" transform="translate(-14 -14.999)" fill="#fd5c70"/>
  </g>
</svg>
