<?xml version="1.0" encoding="utf-8"?>
<!-- Generator: Adobe Illustrator 26.0.1, SVG Export Plug-In . SVG Version: 6.00 Build 0)  -->
<svg version="1.1" id="Layer_1" xmlns="http://www.w3.org/2000/svg" xmlns:xlink="http://www.w3.org/1999/xlink" x="0px" y="0px"
	 viewBox="0 0 100 100" style="enable-background:new 0 0 100 100;" xml:space="preserve">
<style type="text/css">
	.st0{fill:#071640;}
	.st1{fill:url(#SVGID_1_);}
	.st2{fill:#8FBBFD;}
</style>
<g>
	<g>
		<path class="st0" d="M33.4,91.7c-1,2.3,0.1,4.9,2.3,5.9c2.3,1,4.9-0.1,5.9-2.3c1-2.3-0.1-4.9-2.3-5.9C37,88.4,34.4,89.5,33.4,91.7
			z"/>
		<g>
			<linearGradient id="SVGID_1_" gradientUnits="userSpaceOnUse" x1="20.0047" y1="62.0889" x2="64.3457" y2="62.0889">
				<stop  offset="0" style="stop-color:#FF8C6D"/>
				<stop  offset="1" style="stop-color:#FF5C60"/>
			</linearGradient>
			<path class="st1" d="M21.1,85.3L40,93.5c0.5,0.2,1.1,0,1.4-0.5l22.9-52.7c0.2-0.5,0-1.1-0.5-1.4l-18.9-8.2c-1-0.4-2.1,0-2.5,1
				L20.2,82.8C19.7,83.8,20.2,84.9,21.1,85.3z"/>
			<path class="st2" d="M58.2,39.8l1.8,0.9c0.1,0,0.2,0,0.2-0.1L78.4,5.1c0-0.1,0-0.2-0.1-0.2L76.5,4c-0.1,0-0.2,0-0.2,0.1
				L58.1,39.6C58.1,39.7,58.1,39.8,58.2,39.8z"/>
			
				<rect x="44.3" y="33.3" transform="matrix(-0.9172 -0.3984 0.3984 -0.9172 60.6116 138.836)" class="st0" width="1" height="59.5"/>
			<path class="st0" d="M40.9,67.4l3.2,1.4c0.1,0,0.2,0,0.3-0.1l4.2-9.6c0-0.1,0-0.2-0.1-0.3l-3.2-1.4c-0.1,0-0.2,0-0.3,0.1
				l-4.2,9.6C40.8,67.3,40.8,67.4,40.9,67.4z"/>
		</g>
		<path class="st0" d="M74.3,5c0,1.7,1.3,3,2.8,3C78.7,8,80,6.7,80,5c0-1.7-1.3-3-2.8-3C75.6,2,74.3,3.3,74.3,5z"/>
	</g>
</g>
</svg>
