<svg xmlns="http://www.w3.org/2000/svg" width="67.833" height="72.902" viewBox="0 0 67.833 72.902">
  <path id="Path_4514" data-name="Path 4514" d="M87.6,89.1a18.082,18.082,0,0,1,1-1.7,2.854,2.854,0,0,0,.4-2.6c-2.1-5.5-7.8-21.4-7.8-21.4-.4-1-.4-1.3.2-1.8,1.3-1,4.8-5.1,5-5.2a1.141,1.141,0,0,0,.3-.6c.1-.1-.5-1-1.5-1.8-1-.9-1.8-1.4-2-1.3-.3.1-.3.1-.5.4-.1.2-2.3,2.5-3.8,4.2,0,0-1.7-4.4-2.2-6A4.3,4.3,0,0,1,78,47.8c6.1-6.7,10.8-12,11-12.2,1.5-1.7,4.8-7,4.4-10.1a1.389,1.389,0,0,0-.5-1A.957.957,0,0,0,92,24c-3.1-.1-8.1,3.7-9.6,5.4-.2.2-5,5.5-11,12.2A4.6,4.6,0,0,1,68,43.3c-1.7-.3-6.2-1.6-6.2-1.6,1.6-1.6,3.7-4,3.8-4.2a1.141,1.141,0,0,0,.3-.6c.1-.1-.5-1-1.5-1.8-1-.9-1.8-1.4-2-1.3-.3.1-.3.1-.5.4a69.146,69.146,0,0,0-4.7,5.5c-.4.6-.7.7-1.8.4,0,0-16.4-4.1-22.1-5.6a3.113,3.113,0,0,0-2.6.6c-.4.3-1.4,1-1.6,1.2-.5.4-.5.8.2,1.2,5,2.6,19.1,10.2,19.1,10.2s2.4,1.5,3.2,2.2c1.7,1.5,4.5,4.1,5.7,5.1.7.7.9,1.1.2,1.8-7.3,8.1-9.3,10.3-9.6,10.6a72.014,72.014,0,0,0-8.7,11.2L27.1,76.3,25.6,78l10.2,6.3c-1.4,2.5-2.1,4.5-1.5,5.1s2.5-.4,4.9-2l7.3,9.5,1.6-1.8L44.5,83.3a64.292,64.292,0,0,0,10.2-9.8c.2-.3,2.3-2.5,9.6-10.6.7-.8,1.1-.6,1.8,0,1.2,1.1,4,3.6,5.7,5.1a31.459,31.459,0,0,1,2.5,2.9s8.9,13.3,12,18C86.8,89.7,87.3,89.6,87.6,89.1Z" transform="translate(-25.6 -23.998)" fill="#515e67"/>
</svg>
