<?xml version="1.0" encoding="utf-8"?>
<!-- Generator: Adobe Illustrator 26.0.1, SVG Export Plug-In . SVG Version: 6.00 Build 0)  -->
<svg version="1.1" id="Layer_1" xmlns="http://www.w3.org/2000/svg" xmlns:xlink="http://www.w3.org/1999/xlink" x="0px" y="0px"
	 viewBox="0 0 100 100" style="enable-background:new 0 0 100 100;" xml:space="preserve">
<style type="text/css">
	.st0{fill:#BDC3C7;}
	.st1{fill:#FAC60E;}
	.st2{fill:#E15C3A;}
	.st3{fill:#F57D62;}
</style>
<g>
	<g>
		<path class="st0" d="M94,39.7c-2.1-3.1-5.7-4.5-9.2-4C74,36.5,68.3,46.6,55.5,58.8c-3.1,1.5-8.3,4.3-9.1,4.9
			c-2.1,1.8-3.2,4-3.5,5.5c-3.3,2.4-7.1,4.8-11.2,7.2c-0.6,0.3-1.2,0.6-1.8,1c-0.2,0.1-0.3,0.2-0.5,0.3c-4.8,3.7-6,10.5-2.5,15.6
			c3.6,5.2,10.7,6.6,15.9,3c3.9-2.7,9.2-5.7,15-9c0.2,0,0.3-0.1,0.5-0.1c1.6,0,4.9-1.2,7.4-3.2c2.2-1.7,3.8-2.9,5.3-4.4
			c4.9-2.9,9.9-6,14.7-9.3C99.6,60.9,99.6,48,94,39.7z M44,68.4L44,68.4C44,68.4,44,68.4,44,68.4C44,68.4,44,68.4,44,68.4z"/>
		<path class="st0" d="M23.4,70.1c0.4-0.5,0.8-1.1,1.2-1.7c2.8-3.9,5.6-7.4,8.3-10.4c1.5-0.2,3.8-1,5.8-2.9c0.7-0.7,4.1-5.6,5.8-8.5
			c13.4-11.6,24-16.2,26-26.8c0.8-3.4-0.2-7.1-3.1-9.5c-7.7-6.5-20.5-7.7-31.3,5c-3.7,4.4-7.3,9.1-10.7,13.6c-1.6,1.4-3,2.9-4.9,4.8
			c-2.2,2.3-3.7,5.5-3.9,7.1c-0.1,0.2-0.1,0.3-0.2,0.5c-3.9,5.5-7.5,10.4-10.5,14c-4.1,4.8-3.5,12.1,1.4,16.2
			c4.7,4,11.6,3.5,15.8-0.9C23.1,70.5,23.3,70.3,23.4,70.1z M33.8,57L33.8,57C33.8,57,33.8,57.1,33.8,57
			C33.7,57.1,33.8,57.1,33.8,57z"/>
	</g>
	<g>
		<path class="st1" d="M29.3,73.6c0.6-0.4,1.2-0.7,1.8-1c32.5-18.5,37.3-39.5,53.1-40.7c3.5-0.5,7.1,1,9.2,4
			c5.7,8.3,5.6,21.2-8.2,30.6c-15.5,10.6-33.3,19.4-42.9,26c-5.2,3.6-12.4,2.2-15.9-3c-3.5-5.1-2.3-11.9,2.5-15.6
			C28.9,73.8,29.1,73.7,29.3,73.6z"/>
		<path class="st2" d="M45.9,61.1c0,0,5.6-2.9,7.9-0.9c-4.7,2-7.3,5-7.7,6.5l0,0c0,0.7-0.3,1.4-0.9,1.8c-1,0.7-2.2,0.4-2.9-0.5
			c-0.6-0.9-0.4-2.2,0.5-2.9c0,0,0,0,0.1,0L45.9,61.1z"/>
		<path class="st2" d="M79.5,49.4c0.7-0.9,1.7-1.7,2.2-2.8c0.5-1.1,0.3-1.7-0.3-2.1c-0.6-0.3-1.2,0.1-1.7,1
			c-0.5,0.8-0.7,1.2-1.4,2.1C77.6,48.5,79.5,49.4,79.5,49.4z"/>
		<path class="st3" d="M57.2,83.3c1.3,0.3,5.1-0.9,7.9-3.1c2.8-2.2,4.7-3.6,6.7-5.8c2.1-2.2,5.4-7.4,7.6-13.8
			c1.5-4.2,1.7-6.2,2.1-8.5c0.6-3.5-1.7-6.9-6-5.9c-1.7,0.4-2,0.3-7.4,2.7c-5.4,2.4-9.4,4.4-12,5.4c-2.6,1-9.6,4.8-10.5,5.6
			c-2.5,2.1-3.5,4.8-3.6,6.2c2.4-4,7.3-3.9,11.1-5.6c3.9-1.6,5-2,8.6-3.5c2.5-1,6.4-2.8,9.6-4.4c1.8-0.9,4-2.5,4.9-1.5
			c0.5,0.6,0.6,1.9-0.5,4.9c-1.9,5.4-4.8,10.9-6.5,14.5c-1.7,3.6-4.4,8.5-6.8,8.9C59.7,80.8,57.2,83.3,57.2,83.3z"/>
		<path class="st2" d="M55,78.5L55,78.5C55,78.5,55,78.5,55,78.5C55.1,78.5,55.1,78.5,55,78.5c2.8,0.9,6.9,2.3,11.9-3.2
			c-5.7,9.4-12,8.8-13.4,7.9c-0.5-0.2-0.9-0.5-1.2-0.9c-0.8-1.1-0.5-2.7,0.6-3.5C53.6,78.4,54.4,78.3,55,78.5z"/>
	</g>
	<g>
		<path class="st1" d="M22.7,66.3c0.4-0.5,0.8-1.1,1.2-1.7C45.6,34.2,67,31.6,69.8,16c0.8-3.4-0.2-7.1-3.1-9.5
			c-7.7-6.5-20.5-7.7-31.3,5C23.3,25.8,12.7,42.6,5.2,51.5c-4.1,4.8-3.5,12.1,1.3,16.2c4.7,4,11.6,3.5,15.8-0.9
			C22.5,66.6,22.6,66.5,22.7,66.3z"/>
		<path class="st2" d="M36.8,51c0,0,3.5-5.3,1.7-7.8c-2.5,4.5-5.7,6.7-7.2,7l0,0c-0.7-0.1-1.4,0.1-1.9,0.7c-0.7,0.9-0.6,2.2,0.2,2.9
			c0.9,0.7,2.2,0.6,2.9-0.2c0,0,0,0,0-0.1L36.8,51z"/>
		<path class="st2" d="M51.9,18.8c1-0.6,1.8-1.5,3-1.9c1.1-0.4,1.7-0.1,2,0.5c0.3,0.6-0.2,1.2-1.1,1.6c-0.9,0.5-1.3,0.6-2.2,1.2
			C52.7,20.8,51.9,18.8,51.9,18.8z"/>
		<path class="st3" d="M15.9,37.5c-0.2-1.3,1.5-5,3.9-7.6c2.4-2.6,4.1-4.3,6.4-6.1c2.4-1.8,8-4.6,14.5-6.2c4.3-1,6.3-1.1,8.7-1.2
			c3.6-0.2,6.7,2.4,5.2,6.6c-0.6,1.7-0.5,2-3.5,7.1c-2.9,5.1-5.3,8.9-6.6,11.4c-1.3,2.5-5.8,9.1-6.6,9.8c-2.3,2.2-5.2,3-6.5,2.9
			c4.2-2,4.7-6.8,6.7-10.5c2-3.7,2.5-4.8,4.3-8.2c1.2-2.4,3.4-6.1,5.4-9.1c1.1-1.7,2.9-3.8,2-4.7c-0.6-0.6-1.8-0.8-4.9,0
			c-5.6,1.4-11.3,3.7-15.1,5c-3.8,1.3-8.9,3.5-9.6,5.9C18.6,35.3,15.9,37.5,15.9,37.5z"/>
		<path class="st2" d="M20.5,40.2L20.5,40.2C20.5,40.2,20.5,40.2,20.5,40.2C20.5,40.2,20.5,40.1,20.5,40.2
			c-0.6-2.9-1.6-7.1,4.4-11.5c-9.9,4.7-10,11-9.2,12.5c0.1,0.5,0.4,1,0.8,1.3c1,0.9,2.6,0.8,3.5-0.3C20.4,41.6,20.6,40.9,20.5,40.2z
			"/>
	</g>
</g>
</svg>
