<?xml version="1.0" encoding="utf-8"?>
<!-- Generator: Adobe Illustrator 26.0.1, SVG Export Plug-In . SVG Version: 6.00 Build 0)  -->
<svg version="1.1" id="Layer_1" xmlns="http://www.w3.org/2000/svg" xmlns:xlink="http://www.w3.org/1999/xlink" x="0px" y="0px"
	 viewBox="0 0 100 57.2" style="enable-background:new 0 0 100 57.2;" xml:space="preserve">
<style type="text/css">
	.st0{fill:url(#SVGID_1_);}
	.st1{fill:url(#SVGID_00000011033681689208735470000004757766799549724555_);}
	.st2{fill:#E15C3A;}
	.st3{fill:#E74C3C;}
</style>
<g>
	
		<linearGradient id="SVGID_1_" gradientUnits="userSpaceOnUse" x1="119.3863" y1="-45.8599" x2="119.3863" y2="-1.7942" gradientTransform="matrix(0.9465 0.3227 -0.3227 0.9465 -49.8262 22.4557)">
		<stop  offset="0" style="stop-color:#424242"/>
		<stop  offset="1" style="stop-color:#222222"/>
	</linearGradient>
	<path class="st0" d="M76.4,24.9c-12.7-4.3-17.3-2.2-19.5,0c-2.7,2.7-4.2,13-1.9,17.5c1.9,3.8,4.8,7.9,11.7,10.3
		c14.7,4.9,20.2-5,22.3-11.3C92.1,32.3,86.1,28.1,76.4,24.9z"/>
	
		<linearGradient id="SVGID_00000161633879522246508170000007201853367174835617_" gradientUnits="userSpaceOnUse" x1="68.4219" y1="-45.862" x2="68.4219" y2="-1.7955" gradientTransform="matrix(0.9465 0.3227 -0.3227 0.9465 -49.8262 22.4557)">
		<stop  offset="0" style="stop-color:#424242"/>
		<stop  offset="1" style="stop-color:#222222"/>
	</linearGradient>
	<path style="fill:url(#SVGID_00000161633879522246508170000007201853367174835617_);" d="M41.9,19.8c-0.4-3.1-2.8-7.5-15.5-11.8
		c-9.7-3.3-17-3.6-20,5.4C4.2,19.8,2.6,31,17.3,36c7,2.3,11.8,0.8,15.6-1.1C37.3,32.7,42.4,23.6,41.9,19.8z"/>
	<path class="st2" d="M8.5,5.6c0.2-0.5-0.4-1.1-1.3-1.4C6.3,3.9,5.4,4,5.2,4.5C5.1,5,5.7,5.7,6.6,6C7.5,6.3,8.3,6.1,8.5,5.6z"/>
	<path class="st3" d="M96.9,33.9c0.5-1.4,0.3-1.8-0.9-2.3c-2.6-1.1-12.4-6.1-18.8-8.3c-14-4.7-18-2.2-26.4-5
		c-8.4-2.9-10-7.3-24.1-12c-6.4-2.2-17.2-4.1-20-4.8C5.4,1.3,5,1.5,4.6,2.8C4.1,4.2,3.6,5,3,6.8C2.8,7.6,2.8,8.1,3.4,8.5
		C4,8.9,4.9,9.7,4.4,12.4C2.9,19.7,0.2,32,16.6,37.5c15,5.1,21.9-4.7,25-8.9c3.1-4.2,4.5-5,7.2-4.2c2.6,0.9,3.2,2.5,3.2,7.6
		c-0.1,5.2-0.5,17.1,14.5,22.2c16.4,5.5,21.7-5.9,24.9-12.6c1.2-2.4,2.4-2.6,3.1-2.5c0.7,0.1,1.1-0.3,1.3-1.1
		C96.3,36.2,96.5,35.3,96.9,33.9z M17.3,36C2.6,31,4.2,19.8,6.4,13.4c3-9,10.3-8.6,20-5.4c12.7,4.3,15.1,8.7,15.5,11.8
		c0.5,3.7-4.5,12.8-9,15.1C29.1,36.8,24.3,38.3,17.3,36z M5.2,4.5c0.2-0.5,1-0.6,1.9-0.3c0.9,0.3,1.5,0.9,1.3,1.4
		C8.3,6.1,7.5,6.3,6.6,6C5.7,5.7,5.1,5,5.2,4.5z M66.7,52.6c-7-2.3-9.9-6.5-11.7-10.3c-2.2-4.5-0.8-14.8,1.9-17.5
		c2.2-2.2,6.8-4.3,19.5,0c9.7,3.3,15.7,7.4,12.7,16.4C87,47.6,81.4,57.5,66.7,52.6z M93.4,35.2c-0.9-0.3-1.5-0.9-1.3-1.4
		c0.2-0.5,1-0.6,1.9-0.3c0.9,0.3,1.5,1,1.3,1.4C95.2,35.4,94.3,35.5,93.4,35.2z"/>
	<path class="st2" d="M94,33.4c-0.9-0.3-1.8-0.2-1.9,0.3c-0.2,0.5,0.4,1.1,1.3,1.4c0.9,0.3,1.8,0.2,1.9-0.3
		C95.5,34.4,94.9,33.7,94,33.4z"/>
</g>
</svg>
