<?xml version="1.0" encoding="utf-8"?>
<!-- Generator: Adobe Illustrator 26.0.1, SVG Export Plug-In . SVG Version: 6.00 Build 0)  -->
<svg version="1.1" id="Layer_1" xmlns="http://www.w3.org/2000/svg" xmlns:xlink="http://www.w3.org/1999/xlink" x="0px" y="0px"
	 viewBox="0 0 100 100" style="enable-background:new 0 0 100 100;" xml:space="preserve">
<style type="text/css">
	.st0{fill:#00D5C8;}
	.st1{fill:#49DEE3;}
	.st2{fill:#04A2C9;}
</style>
<g>
	<g>
		<g>
			<g>
				<path class="st0" d="M58,59.4c0.4,1.1,0.8,2.1,1.1,3.2c0.1,0.3,0.1,0.5,0.2,0.8c0.1,0.3,0.1,0.5,0.2,0.8
					c0.1,0.5,0.2,1.1,0.3,1.6c0.2,1.1,0.2,2.1,0.3,3.1l0,0.8l0,0.4l0,0.4l0,0.8c0,0.2-0.1,0.5-0.1,0.7c0,0.1-0.1,0.2-0.1,0.4
					c-0.1-0.3-0.1-0.4-0.1-0.5c-0.2-1.5-0.6-3-1.1-4.5c-0.5-1.7-1.1-3.4-1.6-5.1c-0.3-0.9-0.6-1.7-0.8-2.6c-0.1-0.4-0.3-0.9-0.4-1.3
					l-0.2-0.6c-0.1-0.2-0.1-0.4-0.2-0.6c-0.3-0.7-0.5-1.5-0.7-2.3c-0.2-0.8-0.4-1.5-0.7-2.3c-0.2-0.7-0.5-1.4-0.7-2.1
					c-0.1-0.4-0.3-0.7-0.4-1.1c-0.1-0.4-0.3-0.7-0.4-1.1c0.3,0.3,0.6,0.6,0.8,0.9c0.3,0.3,0.5,0.6,0.8,0.8c0.4,0.4,0.8,0.9,1.1,1.3
					l0.6,0.6c0.2,0.2,0.4,0.4,0.6,0.6c0.7,0.9,1.5,1.7,2.3,2.6l0.3,0.3l0.1,0.2l0.1,0.2l0.5,0.7c0.4,0.4,0.7,0.9,1.1,1.3l1.1,1.3
					c0.4,0.5,0.7,0.9,1.1,1.4c1.2,1.6,2.4,3.3,3.5,5.2c0.1,0.3,0.3,0.5,0.4,0.8l0.2,0.4c0.1,0.1,0.1,0.3,0.2,0.4
					c0.1,0.3,0.2,0.6,0.4,0.8c0.1,0.3,0.2,0.6,0.3,0.9c0.2,0.6,0.4,1.2,0.6,1.8c0.1,0.3,0.2,0.6,0.3,0.9c0.1,0.3,0.2,0.6,0.3,0.9
					c0.1,0.2,0,0.5,0.1,0.8c-0.4-0.4-1.1-2-2.1-3.7c-0.1-0.2-0.3-0.4-0.4-0.7c-0.1-0.2-0.3-0.5-0.4-0.7c-0.1-0.2-0.3-0.5-0.4-0.7
					c-0.1-0.1-0.1-0.2-0.2-0.3c-0.1-0.1-0.1-0.2-0.2-0.3c-0.1-0.2-0.3-0.5-0.4-0.7c-0.1-0.2-0.3-0.4-0.5-0.7
					c-0.2-0.2-0.3-0.4-0.4-0.7c-0.1-0.2-0.3-0.4-0.4-0.6c-1-1.4-2-2.8-3-4.2c-0.2-0.4-0.5-0.7-0.7-1L59,58c-0.3-0.3-0.5-0.7-0.8-1
					l-0.4-0.5l-0.2-0.3l-0.2-0.2L57.4,56l0.2,0.2l0.1,0.3L58,57c0.2,0.3,0.4,0.7,0.6,1l0.9,1.5l0.2,0.4l0.2,0.4l0.4,0.8
					c0.6,1,1.1,2.1,1.7,3.2c1,2.2,2,4.4,2.7,6.8c0,0.2,0.1,0.3,0.1,0.5c0,0.2,0.1,0.3,0.1,0.5c0,0.2,0.1,0.3,0.1,0.5
					c0,0.2,0.1,0.3,0.1,0.5c0,0.3,0.1,0.6,0.1,1c0,0.2,0,0.3,0,0.5l0,0.5l0,0.5c0,0.2,0,0.3,0,0.5c0,0.3,0,0.6-0.1,1
					c0,0.3-0.1,0.6-0.1,1l0,0.2c0,0.1,0,0.2,0,0.2l-0.1,0.5c0,0.2-0.1,0.4-0.3,0.6l-0.1-1.2l0-0.1l0-0.1l0-0.3L64.4,77
					c0-0.3-0.1-0.6-0.1-0.8l-0.1-0.4c0-0.1,0-0.3-0.1-0.4c-0.1-0.5-0.2-1.1-0.3-1.6c-0.2-1.1-0.6-2.1-0.9-3.1
					c-0.7-2-1.5-3.9-2.4-5.7c-0.4-0.9-0.9-1.9-1.3-2.8c-0.2-0.5-0.4-0.9-0.6-1.4c-0.2-0.5-0.4-1-0.6-1.4c0-0.1-0.4-1-0.9-2.1
					c-0.1-0.1-0.1-0.3-0.2-0.4c-0.1-0.1-0.1-0.3-0.2-0.4c-0.1-0.3-0.3-0.6-0.4-0.8c-0.3-0.5-0.5-1-0.8-1.4c0.3,0.8,0.7,1.5,1.1,2.3
					c0.2,0.4,0.3,0.8,0.5,1.1l0.5,1.2C57.8,58.9,57.9,59.2,58,59.4z"/>
				<path class="st0" d="M45.6,38.6c0.6,1.3,1,2.4,1.6,3.6c0.1,0.2,0.1,0.3,0.2,0.5c0.1,0.2,0.1,0.3,0.2,0.5c0.1,0.3,0.3,0.7,0.4,1
					c0.2,0.7,0.4,1.3,0.6,2c0,0.2,0.1,0.3,0.1,0.5c0,0.2,0.1,0.3,0.1,0.5c0.1,0.3,0.1,0.7,0.2,1c0.1,0.7,0.2,1.3,0.3,2
					c0,0.2,0,0.4,0.1,0.6c0,0.2,0,0.4,0.1,0.6c0,0.4,0.1,0.8,0.1,1.2c0.1,0.8,0.2,1.6,0.3,2.3l0.1,0.6c0,0.2,0,0.4,0.1,0.6l0.1,1.2
					c0.1,0.8,0.2,1.6,0.3,2.3c0,0.3,0,0.5,0.1,0.8c0,0.3,0,0.5,0,0.8l-0.1,0c-0.1-0.2-0.2-0.5-0.3-0.7L50,60l-0.1-0.3
					c-0.1-0.2-0.1-0.5-0.2-0.7c-0.1-0.5-0.3-0.9-0.4-1.4c-0.1-0.5-0.2-0.9-0.4-1.4c-0.1-0.5-0.2-0.9-0.4-1.4
					c-0.2-0.9-0.5-1.8-0.7-2.8c-0.2-0.9-0.5-1.8-0.7-2.8c-0.1-0.5-0.2-1-0.4-1.5c-0.3-0.9-0.5-1.8-0.7-2.7c-0.1-0.4-0.2-0.9-0.3-1.3
					c-0.1-0.4-0.2-0.9-0.2-1.3c-0.2-1-0.4-2-0.8-3.1c-0.4-1-0.9-2-1.4-3.1c-0.1-0.1-0.1-0.3-0.3-0.6c0.8,0.6,1.4,1.1,2.1,1.7
					c0.3,0.3,0.6,0.5,0.9,0.7c0.1,0.1,0.3,0.2,0.4,0.3c0.1,0.1,0.3,0.2,0.4,0.3c0.6,0.4,1.2,0.8,1.8,1.2c0.5,0.3,0.9,0.6,1.4,0.9
					c0.5,0.3,0.9,0.6,1.4,1c0.5,0.3,0.9,0.7,1.4,1l0.7,0.5l0.3,0.2l0.3,0.3c0.6,0.5,1.2,0.9,1.8,1.4l0.9,0.7
					c0.3,0.2,0.6,0.5,0.9,0.7c0.6,0.5,1.2,1,1.8,1.5l0.9,0.7l0.5,0.4c0.2,0.1,0.3,0.3,0.5,0.4c0.9,0.8,1.8,1.7,2.7,2.6l0.3,0.4
					c0.1,0.1,0.2,0.2,0.3,0.4c0.2,0.2,0.4,0.5,0.6,0.7c0.4,0.5,0.8,1,1.3,1.6c0.3,0.4,0.6,0.8,0.9,1.3c-0.2,0-0.3,0-0.4,0
					c-0.2-0.1-0.4-0.3-0.5-0.4c-0.9-0.8-1.7-1.5-2.6-2.3c-0.2-0.2-0.4-0.4-0.7-0.6L63,52.5l-1.3-1.1l-1.3-1.1L60,50.1l-0.3-0.3
					L59,49.3c-0.9-0.7-1.8-1.4-2.7-2.1c-1.3-0.9-2.5-1.8-3.7-2.8c-0.6-0.5-1.3-1-1.9-1.5c-0.6-0.5-1.2-1-1.8-1.6
					c-0.9-0.8-1.8-1.6-2.7-2.4C46,38.9,45.9,38.8,45.6,38.6z"/>
				<path class="st0" d="M69.2,63.6c-0.3-0.3-0.5-0.6-0.8-0.8c-0.2-0.2-0.5-0.5-0.7-0.7c-0.4-0.5-0.9-0.9-1.3-1.4l-0.6-0.7l-0.7-0.6
					c-0.4-0.4-0.9-0.8-1.3-1.2c-0.4-0.4-0.9-0.8-1.3-1.2c-0.4-0.4-0.9-0.8-1.3-1.2c-0.2-0.2-0.4-0.4-0.7-0.6
					c-0.1-0.1-0.2-0.2-0.3-0.3l-0.3-0.3c-0.9-0.8-1.8-1.6-2.6-2.4l-0.4-0.4l-0.4-0.4c-0.3-0.2-0.5-0.5-0.8-0.7c-0.5-0.5-1-1-1.5-1.5
					l-0.4-0.4c-0.1-0.1-0.2-0.3-0.4-0.4c-0.2-0.3-0.5-0.5-0.7-0.8c-0.5-0.5-1-1-1.5-1.6c-0.1-0.1-0.3-0.3-0.4-0.4
					c-0.1-0.1-0.3-0.3-0.5-0.4c0.1,0.2,0.1,0.3,0.2,0.5c2.3,5,3.6,10,3.6,14.9c0,0.5,0,1,0,1.5c0,0.5,0,1,0,1.5
					c0,0.5-0.1,0.9-0.2,1.3c-0.1-0.3-0.2-0.7-0.3-1c-0.1-0.3-0.2-0.7-0.2-1c-0.6-4.9-1.7-9.9-3.5-14.9c-0.4-1-0.6-2-1-3
					c-0.2-0.6-0.4-1.1-0.7-1.7c-0.1-0.3-0.2-0.6-0.3-0.9c-0.1-0.2-0.1-0.3-0.2-0.5c-0.1-0.2-0.1-0.3-0.2-0.5
					c0.2,0.1,0.3,0.2,0.4,0.3c0.1,0.1,0.3,0.2,0.4,0.3c0.3,0.2,0.5,0.4,0.8,0.7c0.5,0.4,0.9,0.8,1.4,1.2c0.2,0.2,0.5,0.4,0.7,0.6
					c0.2,0.2,0.5,0.4,0.7,0.6c0.9,0.8,1.9,1.6,2.8,2.4c0.9,0.8,1.8,1.6,2.8,2.4l0.7,0.6c0.2,0.2,0.5,0.4,0.7,0.6
					c0.5,0.4,0.9,0.8,1.4,1.2c1.5,1.3,2.9,2.8,4.3,4.3c0.2,0.2,0.3,0.4,0.5,0.6c0.2,0.2,0.3,0.4,0.5,0.6l0.3,0.3l0.2,0.3
					c0.2,0.2,0.3,0.4,0.5,0.7c0.2,0.2,0.3,0.5,0.5,0.7c0.2,0.2,0.3,0.5,0.5,0.7c0.2,0.2,0.3,0.5,0.5,0.7l0.2,0.4l0.2,0.4
					c0.1,0.2,0.2,0.3,0.3,0.6c0,0.1,0.1,0.2,0.1,0.3C69.2,63.3,69.2,63.5,69.2,63.6z"/>
				<path class="st0" d="M65.7,49.2c-0.3-0.2-0.5-0.3-0.8-0.5l-0.7-0.4c-0.2-0.1-0.4-0.3-0.7-0.4c-0.5-0.3-0.9-0.5-1.4-0.8
					c-0.9-0.5-1.8-1.1-2.7-1.6c-0.2-0.1-0.5-0.3-0.7-0.4l-0.7-0.4c-0.5-0.3-0.9-0.5-1.4-0.8c-0.9-0.5-1.8-1.1-2.7-1.6
					c-0.6-0.3-1.2-0.7-1.7-1c-0.3-0.2-0.6-0.4-0.8-0.6c-0.1-0.1-0.3-0.2-0.4-0.3c-0.1-0.1-0.3-0.2-0.4-0.3c-1.2-0.8-2.3-1.6-3.4-2.4
					c-0.2-0.1-0.4-0.3-0.6-0.4c-0.2-0.1-0.4-0.3-0.6-0.4c-0.4-0.3-0.8-0.6-1.2-0.9c-0.4-0.3-0.8-0.6-1.2-0.9
					c-0.1-0.1-0.2-0.1-0.3-0.2L43,34.7l-0.6-0.4c-0.2-0.1-0.3-0.2-0.6-0.4c0.1,0.2,0.1,0.3,0.2,0.4c0.2,0.4,0.5,0.8,0.7,1.3
					c0.2,0.4,0.4,0.9,0.5,1.3c0.3,0.8,0.6,1.7,0.9,2.5c0.1,0.4,0.2,0.8,0.3,1.3c0.1,0.4,0.2,0.8,0.3,1.3c0.1,0.4,0.2,0.8,0.2,1.2
					l0.1,0.6c0,0.2,0.1,0.4,0.1,0.6c0.1,0.9,0.3,1.8,0.4,2.6l0.2,1.3l0,0.3l0,0.3l0.1,0.7c0.2,1.7,0.4,3.4,0.5,5.2
					c0,0.2,0,0.4-0.1,0.6c-0.1-0.2-0.2-0.3-0.2-0.5c-0.1-0.4-0.3-0.9-0.4-1.3c-0.1-0.2-0.1-0.4-0.2-0.6c-0.1-0.2-0.1-0.4-0.2-0.6
					c-0.2-0.8-0.4-1.7-0.7-2.6c0-0.1-0.1-0.3-0.1-0.4c0-0.1-0.1-0.3-0.1-0.4c-0.1-0.3-0.1-0.5-0.2-0.8c-0.1-0.5-0.2-1-0.4-1.5
					c-0.1-0.5-0.2-1-0.3-1.5c-0.1-0.5-0.2-1-0.3-1.5c-0.2-1-0.4-2-0.6-3c-0.2-1-0.4-2-0.6-3c-0.1-0.3-0.1-0.7-0.2-1
					c0-0.2-0.1-0.3-0.1-0.5c0-0.2-0.1-0.3-0.1-0.5c-0.2-0.7-0.4-1.3-0.6-2c-0.1-0.5-0.2-0.9-0.3-1.5c0.5,0.7,1.1,1,1.7,1.3
					c0.3,0.2,0.7,0.4,1,0.5c0.3,0.2,0.7,0.4,1,0.6c0.7,0.4,1.3,0.8,2,1.1c0.3,0.2,0.7,0.4,1,0.6c0.2,0.1,0.3,0.2,0.5,0.3
					c0.2,0.1,0.3,0.2,0.5,0.3c0.6,0.4,1.3,0.7,2,1.1c0.5,0.2,1,0.5,1.5,0.7l0.7,0.4l0.7,0.4c1,0.5,1.9,1,2.9,1.5
					c0.3,0.2,0.7,0.4,1,0.6c0.3,0.2,0.7,0.4,1,0.6c0.7,0.4,1.3,0.9,2,1.3c0.2,0.1,0.4,0.3,0.6,0.5c0.1,0.1,0.2,0.2,0.3,0.2
					c0.1,0.1,0.2,0.2,0.3,0.3c0.4,0.4,0.8,0.7,1.2,1.1c0.4,0.4,0.8,0.8,1.2,1.2c0.2,0.2,0.4,0.4,0.6,0.6c0.2,0.2,0.4,0.4,0.6,0.6
					c0.2,0.3,0.5,0.6,0.7,0.9C65.7,49.1,65.7,49.1,65.7,49.2z"/>
				<path class="st0" d="M55.2,28.7c-0.4-0.1-0.6-0.1-0.8-0.2c-0.6-0.2-1.2-0.4-1.9-0.5c-0.6-0.2-1.3-0.3-1.9-0.5
					c-1.3-0.3-2.5-0.6-3.7-0.9c-1.1-0.2-2.2-0.4-3.2-0.5c-0.8-0.1-1.6-0.1-2.4-0.2c-0.2,0-0.4,0-0.6-0.1c-0.2,0-0.4-0.1-0.6-0.1
					c-0.4-0.1-0.8-0.1-1.2-0.2c-0.8-0.1-1.7-0.3-2.5-0.5c-0.2,0-0.4-0.1-0.6-0.1c-0.2,0-0.4-0.1-0.6-0.1c-0.4-0.1-0.9-0.2-1.3-0.3
					c-0.5-0.1-1-0.2-1.6-0.6c0.3-0.3,0.8-0.3,1.2-0.4c1.2-0.2,2.4-0.4,3.6-0.5c0.3,0,0.6-0.1,0.9-0.1c0.3,0,0.6,0,0.9,0.1
					c0.9,0.1,1.9,0.3,2.8,0.4c0.9,0.1,1.9,0.2,2.8,0.3c0.2,0,0.5,0,0.7,0.1c0.8,0.2,1.6,0.5,2.4,0.7c0.4,0.1,0.8,0.3,1.2,0.4
					c0.4,0.2,0.8,0.3,1.2,0.5c0.8,0.4,1.6,0.8,2.4,1.2c0.4,0.2,0.8,0.5,1.2,0.7c0.4,0.3,0.8,0.5,1.2,0.8
					C54.7,28.2,54.9,28.4,55.2,28.7z"/>
				<path class="st0" d="M36.3,27.8c0.2,0,0.3-0.1,0.5-0.1c0.6,0,1.3,0,1.9,0.1c0.6,0,1.2,0.1,1.9,0.1c1.3,0.1,2.6,0.1,3.9,0.1
					c0.3,0,0.7,0,1,0c0.3,0,0.6,0.1,1,0.1c0.7,0.1,1.3,0.2,2,0.4c0.7,0.2,1.4,0.4,2.1,0.6c0.4,0.1,0.7,0.3,1.1,0.4
					c0.4,0.1,0.7,0.3,1.1,0.5c1,0.4,1.9,0.9,2.9,1.4c1,0.5,1.9,1,2.9,1.5c0.6,0.3,1.2,0.7,1.8,1.3c-0.1,0.1-0.3,0.1-0.5,0.1
					c-0.2,0-0.4-0.1-0.5-0.1c-1.7-0.6-3.3-1.1-5-1.7c-1.5-0.5-2.8-0.8-4.2-1.1c-0.3-0.1-0.6-0.1-0.9-0.2L48.6,31l-0.5-0.1
					c-0.6-0.1-1.2-0.2-1.9-0.4c-0.7-0.2-1.3-0.3-2-0.5c-0.3-0.1-0.7-0.2-1-0.3c-0.3-0.1-0.7-0.2-1-0.2c-1.3-0.3-2.7-0.6-4-0.9
					c-0.1,0-0.2-0.1-0.3-0.1c-0.1,0-0.2-0.1-0.4-0.1c-0.2-0.1-0.5-0.1-0.7-0.2c-0.2,0-0.3-0.1-0.5-0.2L36.3,27.8z"/>
				<path class="st0" d="M38.6,30.4c0.1-0.2,0.4-0.1,0.7,0c0.5,0.1,1,0.2,1.6,0.4l0.8,0.2c0.3,0.1,0.5,0.1,0.8,0.2
					c1,0.3,2.1,0.5,3.1,0.8c1.5,0.3,3,0.8,4.5,1.4c0.4,0.1,0.8,0.3,1.1,0.5c0.4,0.2,0.8,0.3,1.1,0.5c0.8,0.4,1.5,0.8,2.3,1.2
					c0.4,0.2,0.8,0.5,1.2,0.7c0.2,0.1,0.4,0.2,0.6,0.4L57,37c0.8,0.5,1.6,1,2.4,1.5c0.3,0.2,0.5,0.3,0.8,0.5
					c0.1,0.1,0.3,0.2,0.4,0.3l0.4,0.3c0.5,0.4,1,0.8,1.5,1.2c0.2,0.2,0.4,0.4,0.6,0.7c-0.1,0-0.3,0-0.4-0.1l-1.9-1l-1-0.5
					c-0.3-0.2-0.7-0.3-1-0.5c-1.3-0.6-2.6-1.2-3.9-1.8c-1.1-0.5-2.1-0.9-3.2-1.3c-0.5-0.2-1-0.4-1.6-0.7c-0.5-0.2-1.1-0.4-1.6-0.6
					c-0.7-0.3-1.4-0.6-2-0.9c-0.3-0.2-0.7-0.3-1-0.5c-0.3-0.2-0.7-0.3-1-0.4c-0.7-0.3-1.4-0.6-2.1-0.9c-0.3-0.2-0.7-0.3-1-0.5
					c-0.2-0.1-0.3-0.2-0.5-0.2l-0.5-0.2C39.7,31.1,39.1,30.9,38.6,30.4L38.6,30.4z"/>
				<path class="st0" d="M29.3,21.6c0.1-0.3,0.1-0.4,0.1-0.4c0.9-1.1,2-2,3.7-2.1c0.8,0,1.6-0.2,2.2-0.6c0.3-0.2,0.6-0.3,0.9-0.4
					c0.3-0.1,0.6-0.2,1-0.2c0.7-0.1,1.4-0.1,2.2,0c1,0.1,1.9,0.2,2.9,0.4c1,0.2,2,0.4,3,0.8c0.2,0.1,0.5,0.2,0.9,0.4
					c-0.2,0.1-0.3,0.2-0.5,0.3c-1,0.2-2,0.4-2.9,0.5c-0.4,0.1-0.8,0.1-1.3,0.1c-0.4,0-0.7,0-1.1,0c-0.3,0-0.7,0-1,0.1
					c-0.6,0.1-1.2,0.3-1.8,0.5c-1.2,0.6-2.7,0.7-4.2,0.7c-0.2,0-0.4,0-0.7,0c-0.2,0-0.4,0-0.7,0c-0.4,0-0.9,0.1-1.3,0.1
					C30.4,21.7,29.9,21.7,29.3,21.6z"/>
				<path class="st0" d="M32.3,44c-0.8-5.6-1.1-10.8-0.4-15.8c0.1-1.2,0.2-2.4,0.3-3.6c0-0.2,0.1-0.5,0.1-0.7
					c0.4,0.2,0.4,0.5,0.5,0.7c0.2,0.5,0.3,0.9,0.4,1.4c0.1,0.2,0.1,0.5,0.1,0.7c0,0.2,0.1,0.5,0.1,0.7c0.1,0.9,0.2,1.8,0.1,2.7
					c0,0.6,0,1.2,0,1.8c0,0.6,0,1.2-0.1,1.8c0,0.8,0,1.7,0.1,2.6c0,0.3,0,0.7,0.1,1c0,0.3,0,0.6,0,1c0,0.6-0.1,1.3-0.1,1.9
					c-0.1,1.2-0.4,2.4-0.7,3.4c-0.1,0.2-0.1,0.3-0.2,0.5C32.4,44,32.3,44,32.3,44z"/>
				<path class="st0" d="M38.6,30.3c0.2,0.5,0.4,1.1,0.6,1.6c0.1,0.3,0.2,0.5,0.3,0.8c0.1,0.3,0.2,0.6,0.2,0.8c0.2,1,0.4,2,0.6,3
					c0,0.2,0.1,0.5,0.1,0.7c0,0.2,0.1,0.5,0.1,0.7c0,0.5,0.1,1,0.1,1.4c0,0.7,0.1,1.5,0.2,2.2c0.1,0.4,0.1,0.9,0.2,1.3
					c0.1,0.4,0.1,0.9,0.2,1.3c0.2,1.3,0.3,2.3,0.2,3.4c-0.1,1-0.3,2.1-0.6,3.2c-0.1-0.2-0.2-0.4-0.2-0.5c-0.2-0.9-0.4-1.7-0.6-2.6
					c0-0.2-0.1-0.4-0.1-0.6c0-0.2-0.1-0.4-0.1-0.6c-0.1-0.4-0.2-0.8-0.3-1.3c-0.1-0.4-0.1-0.8-0.2-1.3c0-0.2-0.1-0.4-0.1-0.6
					c0-0.2-0.1-0.4-0.1-0.6c-0.1-0.8-0.2-1.7-0.2-2.5c0-0.4,0-0.8-0.1-1.1l0-0.6l0-0.6c-0.1-0.8-0.1-1.5-0.2-2.3l-0.1-1.2l-0.1-0.6
					l0-0.3l0-0.3c-0.1-0.8-0.2-1.5-0.3-2.3c-0.1-0.7-0.2-1.4-0.4-2.1C38.2,29.4,38.4,29.9,38.6,30.3C38.6,30.4,38.6,30.3,38.6,30.3z
					"/>
				<path class="st0" d="M35.5,26.9c0.2,0.5,0.4,1,0.5,1.4c0.1,0.6,0.3,1.1,0.4,1.7c0.1,0.6,0.2,1.1,0.3,1.7
					c0.2,1.1,0.3,2.2,0.4,3.2c0,0.4,0,0.7-0.1,1c-0.1,0.9-0.2,1.9-0.2,2.8c0,0.5,0,1,0,1.4c0,0.5,0,1,0.1,1.5c0,0.6,0,1.3,0,1.9
					c0,0.3,0,0.6,0,0.9c0,0.3,0,0.6-0.1,0.9c-0.1,1.2-0.3,2.4-0.5,3.5c0,0,0,0-0.1,0.1c-0.1-0.3-0.1-0.6-0.2-0.9
					c-0.1-0.4-0.2-0.8-0.2-1.3c0-0.2,0-0.4-0.1-0.6l0-0.3l0-0.3c-0.1-0.8-0.1-1.6-0.2-2.5c-0.1-0.5-0.1-1-0.2-1.6l0-0.2l0-0.2
					c0-0.1,0-0.3,0-0.4c0-0.3,0-0.5-0.1-0.8c-0.1-1-0.1-2-0.1-3c0-0.5,0-1,0-1.5c0-0.5,0-1,0-1.5c0-1,0-1.9,0.1-2.9
					c0-0.7,0-1.4,0.1-2.2c0-0.7,0-1.5,0.1-2.2L35.5,26.9z"/>
				<path class="st0" d="M29.5,37.8c-0.4-0.1-0.4-0.4-0.5-0.6L29,36.7c0-0.2-0.1-0.3-0.1-0.5c-0.1-0.3-0.2-0.7-0.2-1
					c-0.2-0.7-0.3-1.4-0.5-2.1c-0.1-0.3-0.1-0.7-0.2-1c-0.1-0.3-0.1-0.7-0.2-1c-0.1-0.7-0.2-1.3-0.3-2c-0.1-0.7-0.1-1.4-0.1-2
					c0-0.6,0-1.3,0.1-1.9c0.1-1.2,0.4-2.4,0.9-3.5c0-0.1,0.1-0.2,0.1-0.3c0,0,0.1-0.1,0.2-0.2c0.1,0.2,0.2,0.3,0.3,0.5
					c0.4,0.8,0.6,1.6,0.8,2.4c0,0.2,0.1,0.4,0.1,0.6c0,0.2,0,0.4,0,0.6c0,0.4,0,0.7,0,1.1c-0.1,1.4-0.2,2.7-0.2,4.1
					c0,1.3,0.1,2.6,0.1,3.8c0,0.5,0,1-0.1,1.5c0,0.5-0.1,1-0.1,1.5C29.7,37.6,29.6,37.7,29.5,37.8z"/>
				<path class="st0" d="M25.2,29.7c-0.1-0.8-0.3-1.5-0.4-2.3c0-0.3-0.1-0.5-0.2-0.8c-0.2-0.6-0.3-1.1-0.3-1.6c0-0.3,0-0.5,0-0.7
					c0-0.2,0-0.5,0-0.7c0.2-1.7,0.5-3.2,1.5-4.5c0.1,0.2,0.2,0.3,0.2,0.5c0.3,0.9,0.4,1.7,0.4,2.5c0,0.4,0,0.8-0.1,1.2
					c-0.1,0.4-0.1,0.8-0.2,1.1c-0.2,0.9-0.3,2-0.4,3c0,0.7-0.1,1.3-0.2,2c0,0.2-0.1,0.3-0.1,0.4L25.2,29.7z"/>
				<path class="st0" d="M36.5,16.7c-0.5,0.1-1,0.3-1.5,0.4c-1.1,0.3-2.1,0.6-3.1,0.9c-0.5,0.2-1,0.3-1.6,0.4
					c-0.1,0-0.3,0.1-0.4,0.1c-0.1,0-0.3,0.1-0.4,0.1c-0.3,0.1-0.6,0.1-0.8,0.2c-0.5,0.1-1.1,0.2-1.7,0.2c-0.2,0-0.5,0-0.9-0.1
					c0.1-0.2,0.1-0.3,0.2-0.4c0.5-0.4,1.1-0.8,1.5-1.3c0.5-0.4,1-0.7,1.8-0.7c1.2-0.1,2.3-0.3,3.5-0.4c1-0.1,2.2,0.2,3.3,0.3
					L36.5,16.7z"/>
			</g>
			<g>
				<path class="st0" d="M18.3,13.6c0.7,0.6,1.4,1.2,2.2,1.7l0.6,0.4c0.2,0.1,0.4,0.3,0.5,0.4c0.4,0.3,0.7,0.6,1.1,0.8
					c0.4,0.3,0.8,0.6,1.2,0.9l0.6,0.4l0.6,0.5c0.8,0.6,1.6,1.2,2.4,1.8c0.4,0.3,0.8,0.6,1.3,1c0.5,0.4,1,0.8,1.5,1.2
					c0.3,0.2,0.6,0.4,0.8,0.7c0.3,0.2,0.6,0.5,0.8,0.7c0.6,0.5,1.1,1,1.7,1.5c0.6,0.5,1.1,1,1.7,1.6c0.5,0.5,1.1,1,1.6,1.5
					c0.1,0.1,0.2,0.2,0.4,0.4c0.1,0.1,0.2,0.2,0.3,0.4c0.2,0.2,0.4,0.5,0.7,0.7c0.4,0.5,0.8,0.9,1.2,1.2l0.5,0.5l0.2,0.2
					c0.1,0.1,0.2,0.2,0.2,0.3l0.9,1c0.6,0.7,1.2,1.4,1.8,2.1c0.6,0.7,1.1,1.4,1.7,2.1c0.3,0.3,0.6,0.7,0.8,1
					c0.3,0.4,0.5,0.7,0.8,1.1c0.5,0.7,1,1.4,1.5,2.1c0.3,0.3,0.5,0.7,0.7,1c0.2,0.3,0.5,0.7,0.7,1c0.2,0.3,0.5,0.7,0.7,1
					c0.1,0.2,0.2,0.3,0.3,0.5c0.1,0.2,0.2,0.3,0.3,0.5c0.4,0.6,0.8,1.3,1.2,1.9c0.2,0.3,0.4,0.6,0.6,0.9c0.1,0.1,0.2,0.3,0.3,0.4
					c0,0.1,0.1,0.1,0.1,0.2c0,0.1,0.1,0.1,0.1,0.2c0.3,0.6,0.6,1.1,0.9,1.6c0.6,1,1.1,1.9,1.5,2.6c0.8,1.5,1.3,2.3,1.3,2.3
					s-0.6-1.3-1.3-2.9c0-0.1-0.1-0.2-0.1-0.3c0-0.1-0.1-0.2-0.1-0.3c-0.1-0.2-0.2-0.4-0.3-0.6c-0.2-0.4-0.4-0.8-0.6-1.2
					c-0.2-0.4-0.4-0.8-0.6-1.1c-0.1-0.2-0.2-0.3-0.3-0.5c-0.1-0.2-0.2-0.3-0.3-0.4c-0.7-1.1-1.4-2.1-2-3.2c-0.7-1-1.4-2-2-3L48.7,42
					l-0.1-0.2l-0.1-0.2c-0.2-0.2-0.4-0.5-0.5-0.7c-0.4-0.5-0.7-0.9-1.1-1.4c-0.2-0.2-0.4-0.5-0.5-0.7l-0.3-0.4
					c-0.1-0.1-0.2-0.2-0.3-0.3c-0.4-0.5-0.7-0.9-1.1-1.4c-0.4-0.5-0.7-0.9-1.1-1.4c-0.2-0.2-0.4-0.5-0.6-0.7
					c-0.2-0.2-0.4-0.5-0.6-0.7c-0.4-0.5-0.8-0.9-1.2-1.4c-0.2-0.2-0.4-0.5-0.6-0.7c-0.2-0.2-0.4-0.5-0.7-0.7c-0.4-0.5-0.9-1-1.4-1.5
					c-0.2-0.2-0.5-0.5-0.7-0.7c-0.2-0.2-0.5-0.5-0.7-0.7c-0.5-0.5-1-1-1.5-1.5c-0.3-0.3-0.5-0.5-0.8-0.8c-0.3-0.3-0.6-0.5-0.8-0.8
					c-0.4-0.4-0.9-0.8-1.4-1.3c-0.3-0.2-0.5-0.5-0.8-0.7c-0.3-0.2-0.6-0.5-0.9-0.7c-0.6-0.5-1.2-1-1.8-1.5c-0.2-0.1-0.3-0.2-0.5-0.4
					l-0.2-0.2l-0.2-0.2c-0.3-0.2-0.6-0.5-1-0.7c-0.6-0.5-1.3-1-1.9-1.5c-0.1-0.1-0.2-0.1-0.2-0.2c-0.1-0.1-0.2-0.1-0.2-0.2
					c-0.2-0.1-0.3-0.2-0.5-0.3c-0.3-0.2-0.6-0.5-0.9-0.7c-0.3-0.2-0.6-0.5-0.9-0.7c-0.3-0.2-0.5-0.4-0.8-0.7
					c-0.1-0.1-0.3-0.2-0.4-0.3c-0.1-0.1-0.2-0.2-0.4-0.3c-0.2-0.2-0.5-0.4-0.7-0.6c-0.6-0.5-1.1-1-1.5-1.4c-0.1-0.1-0.2-0.2-0.3-0.3
					c-0.1-0.1-0.2-0.2-0.3-0.3c-0.2-0.2-0.4-0.3-0.5-0.5c-0.3-0.3-0.6-0.6-0.9-0.8c-0.3-0.3-0.5-0.5-0.8-0.7
					c-0.9-0.7-0.7-0.1-0.8,0.1c0,0.2,0.2,0.6,0.8,1.1c0.3,0.3,0.6,0.6,1.1,0.9c0.2,0.2,0.4,0.4,0.7,0.6c0.1,0.1,0.3,0.2,0.4,0.3
					C18,13.3,18.2,13.4,18.3,13.6z"/>
			</g>
		</g>
		<g>
			<g>
				<path class="st1" d="M39,81.4c1.5,4.2,2.3,8.5,3,12.8c0,0.1,0,0.2,0,0.5c-0.2-0.2-0.3-0.4-0.3-0.5c-0.4-0.7-0.7-1.5-1.1-2.2
					c-0.2-0.4-0.4-0.7-0.5-1.1l-0.5-1.1c-1.6-3.4-2.7-6.9-3.5-10.5l-0.1-0.6c0-0.2-0.1-0.4-0.1-0.6c-0.1-0.4-0.1-0.8-0.2-1.2
					c-0.1-0.4-0.1-0.8-0.2-1.2l-0.2-1.2c-0.1-0.7-0.2-1.5-0.3-2.2c-0.1-0.4-0.1-0.8-0.2-1.1c-0.1-0.4-0.1-0.8-0.2-1.2
					c0.2,0.3,0.5,0.7,0.7,1c0.2,0.3,0.4,0.6,0.6,0.9c2.6,3.7,5.5,7,8.5,10.1c0.3,0.3,0.6,0.7,1,1c0.3,0.3,0.7,0.7,1,1
					c0.3,0.3,0.6,0.7,1,1c0.3,0.3,0.6,0.7,0.9,1c1.3,1.5,2.6,3.1,3.9,4.6c0.1,0.1,0.2,0.3,0.3,0.5c-0.3-0.1-0.7-0.3-1.2-0.6
					c-0.5-0.3-1.2-0.8-1.9-1.3c-0.7-0.5-1.4-1.1-2.2-1.8c-0.4-0.3-0.7-0.6-1.1-1c-0.4-0.3-0.7-0.7-1.1-1c-2.3-2.2-4.2-5-6.2-7.6
					L38.7,78c0.4,0.7,0.7,1.3,1.1,2l0.9,1.5c0.1,0.2,0.3,0.5,0.4,0.7l0.4,0.7l0.9,1.4l0.9,1.4l0.5,0.7c0.2,0.2,0.3,0.5,0.5,0.7
					l0.9,1.4c0.3,0.5,0.6,0.9,1,1.4c0.3,0.5,0.6,0.9,1,1.4c0.3,0.5,0.7,0.9,0.9,1.4c0.1,0.2,0.3,0.5,0.4,0.7
					c0.1,0.2,0.3,0.5,0.4,0.7c0.1,0.3,0.3,0.5,0.4,0.8c0.1,0.3,0.2,0.5,0.4,0.8c0.2,0.5,0.5,1,0.7,1.6c0.1,0.2,0.1,0.4,0,0.6
					c-0.5-0.5-0.9-1-1.4-1.6c-0.3-0.4-0.7-0.8-1-1.2L47,94l-1.9-2.5c-2.5-3.2-4.6-6.6-6.1-10.4c-0.1-0.1-1.3-3.6-2.1-5.2
					c0.1,0.4,0.3,0.8,0.4,1.2c0.1,0.4,0.3,0.8,0.4,1.2c0.3,0.8,0.6,1.5,0.9,2.3C38.8,80.9,38.9,81.2,39,81.4z"/>
				<path class="st1" d="M30.9,59c0,1.4,0.1,2.6,0.1,3.9c0.2,2.9,0.1,5.8-0.4,8.6c-0.5,3.2-0.5,6.7-0.5,10.2c0,0.6,0,1.2-0.1,1.8
					l-0.2,0c-0.1-0.3-0.2-0.6-0.3-0.8c-0.9-4.2-1.2-8.4-1.1-12.4c0-0.6,0.1-1.1,0.1-1.7c0-0.5,0-1,0.1-1.5c0-0.5,0.1-1,0.1-1.5
					c0.1-1,0.3-1.9,0.5-2.8c0.2-1.1,0.4-2.1,0.5-3.2c0-0.6,0.1-1.1,0.1-1.7c0-0.6,0-1.1-0.1-1.7c0-0.2,0-0.3,0-0.7
					c0.5,0.9,1,1.5,1.4,2.3c0.4,0.7,0.8,1.3,1.2,1.8c0.2,0.3,0.5,0.6,0.7,0.8c0.2,0.3,0.5,0.5,0.7,0.8c0.8,0.8,1.5,1.6,2.3,2.4
					l0.6,0.6l0.6,0.6c0.4,0.4,0.8,0.8,1.2,1.1l0.4,0.4l0.4,0.4l0.8,0.7l0.8,0.7c0.3,0.2,0.5,0.5,0.8,0.7c0.5,0.5,1.1,1,1.6,1.4
					l1.6,1.4c0.4,0.4,0.9,0.7,1.3,1.1c0.4,0.4,0.8,0.8,1.2,1.2c0.4,0.4,0.8,0.8,1.2,1.2l0.6,0.6c0.2,0.2,0.4,0.4,0.6,0.6
					c0.3,0.3,0.5,0.6,0.8,1c-0.2,0-0.3,0.1-0.4,0c-0.2-0.1-0.4-0.2-0.5-0.3c-3.5-2.4-6.9-5-10.2-7.8c-2.3-2-4.4-4.1-6.3-6.7
					c-0.3-0.5-0.6-1-0.9-1.5c-0.3-0.5-0.6-1-0.9-1.5C31.2,59.5,31.1,59.3,30.9,59z"/>
				<path class="st1" d="M51.6,83.4c-0.6-0.3-1.1-0.6-1.6-0.9c-3.7-2.4-7.3-5.1-10.7-8.3c-1.9-1.9-3.6-4-5.1-6.4
					c-0.2-0.3-0.4-0.7-0.7-0.9c0,0.2,0,0.4,0,0.5c0.1,0.7,0.2,1.3,0.3,2c0.1,0.7,0.2,1.3,0.3,2c0.1,0.7,0.2,1.3,0.2,2
					c0.1,0.7,0.1,1.3,0.2,2c0,0.3,0,0.7,0.1,1c0,0.3,0,0.6,0.1,1c0,0.6,0,1.3,0,1.9c0,0.6,0,1.3,0,1.9c0,0.3,0,0.6,0,1
					c0,0.3,0,0.6,0,1c-0.1,1.1-0.1,2.2-0.1,3.3c0,0.5-0.1,1-0.2,1.5c-0.3-0.7-0.5-1.5-0.6-2.2c-0.5-5.4-1-10.7-1.4-16
					c-0.1-1.1-0.1-2.1-0.1-3.2c0-0.3,0-0.6,0-0.9c0-0.3,0-0.6,0-0.9c0-0.6-0.1-1.3-0.1-2c0.5,0.6,0.9,1.1,1.3,1.7
					c3,3.9,6.2,7.4,9.7,10.4c2.8,2.4,5.5,5,8.1,7.8c0.1,0.1,0.2,0.2,0.3,0.4C51.5,83,51.5,83.1,51.6,83.4z"/>
				<path class="st1" d="M49.5,71.3c-0.3-0.1-0.5-0.2-0.8-0.4c-3.5-1.8-6.8-4-10.1-6.5c-0.3-0.2-0.5-0.4-0.8-0.6
					c-0.2-0.2-0.5-0.4-0.7-0.7c-0.5-0.4-1-0.9-1.4-1.4c-0.5-0.5-0.9-1-1.3-1.5c-0.2-0.3-0.4-0.5-0.7-0.8l-0.6-0.8
					c-0.3-0.4-0.6-0.8-0.9-1.2c-0.3-0.4-0.6-0.8-0.9-1.2l-0.9-1.2l-0.9-1.2c-0.1-0.2-0.2-0.3-0.4-0.5c0,0.2-0.1,0.3-0.1,0.4
					c0.1,3.8-0.7,7.3-1.4,10.8c-0.2,0.9-0.4,1.9-0.5,2.8l-0.5,2.8l-0.4,2.9C26.2,74,26.1,75,26,76c0,0.2-0.1,0.4-0.2,0.7
					c0-0.2-0.1-0.4-0.1-0.6c-0.1-0.5-0.1-1-0.2-1.5c0-0.5-0.1-1-0.1-1.5c0-0.5,0-1,0-1.5c0-0.5,0-1,0-1.5c0-4.7,1-9,2.2-13.2
					c0.4-1.3,0.6-2.8,1-4.1c0.1-0.5,0.3-1,0.5-1.5c0,0.4,0.2,0.8,0.4,1.1c0.2,0.3,0.4,0.5,0.7,0.8c0.5,0.6,1,1.1,1.5,1.7
					c0.5,0.6,1,1.1,1.5,1.7c0.5,0.6,1,1.1,1.6,1.6c0.3,0.3,0.5,0.5,0.8,0.8c0.3,0.2,0.6,0.5,0.8,0.7c0.8,0.7,1.7,1.3,2.5,2
					c0.9,0.6,1.7,1.2,2.6,1.9c0.6,0.4,1.2,0.9,1.8,1.3c0.6,0.5,1.2,0.9,1.8,1.4c0.4,0.3,0.8,0.6,1.1,0.9c0.4,0.3,0.7,0.7,1,1
					c0.7,0.7,1.3,1.5,1.9,2.2c0.2,0.2,0.4,0.5,0.6,0.7C49.5,71.2,49.5,71.2,49.5,71.3z"/>
				<path class="st1" d="M46.2,53c-0.3-0.1-0.6-0.2-0.8-0.3c-0.5-0.3-1.1-0.6-1.6-0.9c-0.5-0.3-1.1-0.6-1.6-0.9l-1.6-0.9l-1.6-1
					c-0.5-0.3-1-0.6-1.5-0.8c-0.5-0.3-1-0.5-1.5-0.8c-0.8-0.4-1.5-0.8-2.3-1.2c-0.7-0.4-1.5-0.9-2.2-1.4c-0.7-0.5-1.4-1-2.1-1.6
					c-0.7-0.6-1.4-1.2-2-1.9c-0.4-0.4-0.8-0.7-1-1.4c0.5,0,1,0.2,1.4,0.4c1.3,0.5,2.5,1,3.7,1.5c0.6,0.2,1.2,0.5,1.8,0.9
					c0.4,0.3,0.8,0.6,1.2,0.8c0.4,0.3,0.8,0.5,1.2,0.8c0.8,0.5,1.7,1,2.5,1.4c0.2,0.1,0.4,0.2,0.6,0.4c0.6,0.5,1.3,0.9,1.9,1.4
					c0.6,0.5,1.2,1,1.8,1.5c0.6,0.5,1.2,1.1,1.7,1.6c0.3,0.3,0.5,0.6,0.8,0.9c0.3,0.3,0.5,0.6,0.8,0.9C45.9,52.5,46,52.7,46.2,53z"
					/>
				<path class="st1" d="M27.5,45.4c0.2,0.1,0.4,0.1,0.6,0.2c1.2,0.6,2.4,1.3,3.6,1.9c0.6,0.3,1.3,0.6,1.9,0.9
					c0.3,0.1,0.6,0.3,1,0.4c0.3,0.1,0.6,0.3,1,0.4c0.6,0.3,1.3,0.5,1.9,0.8c0.3,0.2,0.6,0.3,0.9,0.5c0.3,0.2,0.6,0.3,0.9,0.5
					c0.6,0.4,1.2,0.7,1.8,1.1c0.6,0.4,1.2,0.8,1.7,1.3c0.4,0.3,0.8,0.6,1.1,0.9l1.2,0.9l1.2,0.9l1.2,0.9c0.2,0.2,0.5,0.4,0.7,0.6
					c0.2,0.2,0.4,0.4,0.6,0.7c-0.4,0.1-0.7,0-1.1-0.2c-1.5-0.7-3-1.4-4.5-2.3c-0.6-0.4-1.3-0.7-1.9-1c-0.6-0.3-1.3-0.6-2-0.9
					c-0.6-0.3-1.2-0.5-1.7-0.8c-0.6-0.3-1.1-0.6-1.7-1c-1.2-0.7-2.3-1.5-3.5-2.4c-0.6-0.4-1.1-0.8-1.7-1.3L28.9,47
					c-0.4-0.3-0.8-0.6-1.1-1c-0.1-0.1-0.2-0.3-0.3-0.4L27.5,45.4z"/>
				<path class="st1" d="M28.1,48.8c0.3-0.1,0.5,0.1,0.7,0.3c0.9,0.7,1.8,1.3,2.7,2c0.9,0.6,1.8,1.3,2.7,1.8
					c1.3,0.8,2.7,1.7,3.9,2.6c0.6,0.5,1.3,0.9,1.9,1.4c0.3,0.2,0.6,0.5,0.9,0.8c0.3,0.3,0.6,0.5,0.9,0.8c0.3,0.3,0.7,0.6,1,0.9
					c0.3,0.3,0.7,0.6,1,0.8c0.7,0.5,1.3,1.1,2,1.6c0.9,0.7,1.7,1.5,2.5,2.2c0.2,0.1,0.3,0.4,0.4,0.7c-0.1,0-0.3-0.1-0.4-0.1
					c-0.6-0.3-1.2-0.7-1.8-1c-0.6-0.3-1.2-0.7-1.8-1c-1.2-0.7-2.3-1.4-3.5-2.2c-0.9-0.6-1.9-1.2-2.8-1.8c-0.9-0.6-1.8-1.3-2.7-2
					c-0.6-0.4-1.1-0.9-1.7-1.4c-0.3-0.2-0.6-0.5-0.8-0.7c-0.3-0.2-0.5-0.5-0.8-0.8c-0.6-0.5-1.1-1.1-1.7-1.6
					c-0.5-0.5-1.1-1.1-1.6-1.7C28.7,49.9,28.2,49.5,28.1,48.8L28.1,48.8z"/>
				<path class="st1" d="M25.4,36.4c0.3-0.2,0.3-0.2,0.4-0.3c0.8-0.2,1.7-0.2,2.5-0.1c0.8,0.1,1.7,0.3,2.5,0.8
					c0.8,0.4,1.6,0.7,2.4,0.8c0.8,0,1.5,0.2,2.2,0.5c0.7,0.3,1.4,0.6,2.1,1.1c0.8,0.5,1.6,1.1,2.4,1.6c0.4,0.3,0.8,0.6,1.2,0.9
					c0.4,0.3,0.8,0.6,1.1,1c0.2,0.1,0.3,0.3,0.6,0.6c-0.3,0-0.5,0.1-0.6,0c-1.1-0.3-2.1-0.5-3.2-0.8c-0.4-0.1-0.9-0.3-1.3-0.5
					c-1.3-0.7-2.7-1.2-4.1-1.4c-1.5-0.2-3-0.8-4.4-1.7c-0.8-0.5-1.7-0.9-2.5-1.5C26.4,37.1,26,36.8,25.4,36.4z"/>
				<path class="st1" d="M13.7,59.2c0.2-0.8,0.5-1.6,0.8-2.4c0.1-0.4,0.3-0.8,0.4-1.2c0.1-0.4,0.3-0.8,0.5-1.1
					c0.3-0.7,0.6-1.5,1-2.2c0.4-0.7,0.7-1.4,1.1-2c1.5-2.6,3.3-4.9,5.4-6.9c1-0.9,1.9-1.9,2.9-2.9c0.2-0.2,0.4-0.3,0.6-0.5
					c0.2,0.4,0,0.6-0.1,0.9c-0.2,0.5-0.4,0.9-0.7,1.4c-0.2,0.4-0.5,0.9-0.7,1.3c-0.3,0.4-0.5,0.8-0.8,1.2c-0.1,0.2-0.3,0.4-0.4,0.6
					c-0.1,0.2-0.3,0.4-0.4,0.6l-1.2,1.6c-0.4,0.5-0.8,1.1-1.2,1.7c-0.5,0.8-1.1,1.6-1.5,2.5c-0.7,1.3-1.4,2.6-2.2,3.8
					c-0.8,1.2-1.7,2.3-2.6,3.3c-0.2,0.2-0.3,0.3-0.5,0.4C13.9,59.3,13.8,59.2,13.7,59.2z"/>
				<path class="st1" d="M28.1,48.7c-0.1,0.3-0.1,0.6-0.2,0.9L27.8,50l-0.1,0.4c-0.1,0.6-0.3,1.2-0.4,1.7c-0.6,2.1-1.3,4.1-2.2,5.9
					c-0.2,0.4-0.3,0.8-0.5,1.1c-0.1,0.4-0.3,0.8-0.4,1.2c-0.3,0.9-0.5,1.9-0.7,2.8c-0.2,0.7-0.3,1.3-0.5,2c-0.2,0.6-0.4,1.2-0.6,1.7
					c-0.2,0.6-0.5,1.1-0.8,1.7c-0.3,0.6-0.6,1.1-1,1.7c0-0.3-0.1-0.5,0-0.7c0.2-4.1,0.8-8.1,2.2-11.5l0.5-1.2l0.3-0.6L24,56l1-2.3
					c0.3-0.8,0.7-1.5,1.1-2.3l0.5-1.1l0.6-1.1c0.3-0.6,0.6-1.3,1-2C28.3,47.7,28.2,48.2,28.1,48.7C28.1,48.8,28.1,48.7,28.1,48.7z"
					/>
				<path class="st1" d="M27.3,44.2c-0.2,0.5-0.3,1-0.5,1.5l-0.7,1.6L25.3,49c-0.2,0.5-0.5,1.1-0.8,1.6c-0.3,0.5-0.5,1.1-0.8,1.6
					c-0.2,0.3-0.4,0.7-0.6,1c-0.6,0.8-1.2,1.7-1.7,2.7c-0.3,0.5-0.5,1-0.8,1.5c-0.2,0.5-0.5,1-0.7,1.6c-0.3,0.7-0.6,1.4-0.9,2
					c-0.3,0.7-0.6,1.3-0.9,1.9c-0.7,1.3-1.3,2.5-2,3.7c0,0,0,0-0.1,0c0-0.4,0.1-0.7,0.1-1.1c0.1-1,0.4-2,0.7-2.9
					c0.1-0.5,0.3-0.9,0.4-1.4c0.2-0.5,0.3-0.9,0.4-1.4c1.4-4.7,3.7-8.5,6.3-11.9c0.5-0.6,1-1.3,1.5-1.9c0.5-0.6,1-1.2,1.5-1.8
					L27.3,44.2z"/>
				<path class="st1" d="M14.2,51.1c-0.3-0.4-0.2-0.6-0.1-0.9c0.3-0.8,0.5-1.6,0.8-2.4c0.1-0.4,0.3-0.8,0.4-1.2
					c0.2-0.4,0.3-0.8,0.5-1.1c0.3-0.7,0.7-1.5,1-2.2c0.4-0.7,0.8-1.4,1.2-2c0.2-0.3,0.5-0.6,0.7-0.9c0.2-0.3,0.5-0.6,0.7-0.9
					c0.5-0.6,1-1.1,1.6-1.5c1.1-0.9,2.3-1.7,3.5-2.2c0.1,0,0.2-0.1,0.3-0.1c0.1,0,0.1,0,0.3,0c-0.1,0.2-0.1,0.4-0.1,0.6
					c-0.2,0.4-0.3,0.8-0.5,1.2c-0.2,0.4-0.4,0.8-0.6,1.1c-0.2,0.4-0.5,0.7-0.7,1c-0.3,0.3-0.5,0.6-0.8,0.9c-1.1,1.1-2.2,2.3-3.1,3.5
					c-0.4,0.6-0.8,1.2-1.2,1.8c-0.4,0.6-0.8,1.2-1.2,1.8c-0.7,1-1.4,1.9-2.1,2.9C14.6,50.9,14.4,51,14.2,51.1z"/>
				<path class="st1" d="M15.4,40.3c0.5-0.8,0.9-1.5,1.4-2.3c0.2-0.3,0.3-0.5,0.5-0.8c0.5-1.2,1.3-2.1,2.2-2.8
					c1.5-1.2,3.1-2.1,5-2.4c-0.1,0.2-0.1,0.4-0.2,0.5c-0.5,0.8-1.2,1.6-1.8,2.2c-0.7,0.6-1.4,1.2-2.1,1.6c-0.5,0.3-0.9,0.7-1.4,1
					c-0.4,0.4-0.9,0.8-1.3,1.2c-0.6,0.5-1.1,1.1-1.7,1.6c-0.1,0.1-0.3,0.2-0.4,0.3L15.4,40.3z"/>
				<path class="st1" d="M35.8,36.9c-0.6-0.2-1.1-0.3-1.7-0.5c-1.2-0.4-2.4-0.7-3.5-1.1c-1.2-0.4-2.3-0.8-3.5-1.4
					c-0.5-0.3-1.1-0.6-1.6-0.9c-0.2-0.1-0.4-0.3-0.7-0.6c0.3-0.1,0.4-0.1,0.5-0.1c0.8,0,1.6,0.1,2.4,0.1c0.7,0,1.4,0.2,2.1,0.6
					c1.1,0.6,2.2,1.3,3.3,1.8c0.5,0.3,0.9,0.6,1.4,0.9c0.4,0.4,0.9,0.7,1.3,1.1L35.8,36.9z"/>
			</g>
			<g>
				<path class="st1" d="M23.5,22.8c0,0.5,0,0.9,0,1.4c0,0.5,0,0.9,0,1.4c0,0.5,0,0.9,0.1,1.4c0,0.5,0.1,0.9,0.1,1.4
					c0,0.5,0.1,1,0.2,1.5c0.1,0.5,0.1,1,0.2,1.5c0.2,1,0.3,2,0.5,2.9c0.4,2,1.1,4.9,1.7,7.9c0.7,3,1.4,5.9,1.9,7.9
					c0.9,3.5,1.9,7,2.9,10.3c1,3.3,2.1,6.3,3.1,8.9c0.1,0.3,0.2,0.6,0.4,1c0.1,0.3,0.2,0.6,0.4,0.9c0.2,0.6,0.5,1.1,0.7,1.7
					c0.4,1,0.8,2,1.1,2.7c0.3,0.7,0.6,1.3,0.8,1.7c0.1,0.2,0.2,0.4,0.2,0.5c0,0.1,0.1,0.2,0.1,0.2s-0.4-1.3-1-2.9
					c-0.3-0.8-0.5-1.7-0.8-2.5c-0.3-0.8-0.5-1.6-0.7-2.1c-0.2-0.6-0.4-1.2-0.7-1.7c-0.1-0.3-0.2-0.6-0.3-0.9
					c-0.1-0.3-0.2-0.6-0.3-0.8c-0.2-0.6-0.4-1.1-0.6-1.7c-0.2-0.6-0.4-1.1-0.6-1.7c-0.1-0.3-0.2-0.5-0.3-0.8
					c-0.1-0.3-0.2-0.5-0.3-0.8c-0.2-0.5-0.3-1.1-0.5-1.6c-0.2-0.5-0.3-1.1-0.5-1.6c-0.2-0.6-0.3-1.1-0.5-1.7
					c-0.2-0.6-0.3-1.1-0.5-1.7c-0.2-0.6-0.3-1.1-0.5-1.7c-0.3-1.2-0.6-2.4-1-3.6c-0.6-2.5-1.3-5.1-1.9-8.1c-0.1-0.6-0.3-1.2-0.4-1.8
					c-0.2-0.7-0.3-1.4-0.5-2.1c-0.1-0.4-0.2-0.7-0.3-1.1c-0.1-0.4-0.2-0.8-0.2-1.1c-0.2-0.8-0.3-1.6-0.5-2.4
					c-0.1-0.4-0.1-0.8-0.2-1.2c0-0.2-0.1-0.4-0.1-0.6c0-0.2-0.1-0.4-0.1-0.6c-0.1-0.8-0.2-1.5-0.3-2.3c0-0.4-0.1-0.7-0.1-1.1
					c0-0.4,0-0.7,0-1c0-0.2,0-0.3,0-0.5c0-0.2,0-0.3,0-0.5c0-0.3,0-0.6,0-0.9c0-0.4,0-0.7,0.1-1.1c0-0.3,0.1-0.7,0.1-0.9
					c0.1-0.6,0.1-1.1,0.2-1.6c0.1-0.5,0.1-0.9,0.2-1.2c0.1-0.4,0.1-0.7,0.1-1.1c0.1-1.1-0.5-0.6-0.6-0.6c-0.2,0.1-0.4,0.5-0.5,1.3
					c-0.1,0.4-0.1,0.9-0.2,1.4c0,0.3,0,0.6-0.1,0.9C23.6,22.1,23.5,22.5,23.5,22.8z"/>
			</g>
		</g>
	</g>
	<g>
		<g>
			<path class="st2" d="M74.1,30.6c0.5,0.7,0.9,1.4,1.3,2.2c0.4,0.8,0.7,1.5,1,2.3c0.3,0.8,0.5,1.6,0.6,2.3c0.1,0.4,0.1,0.8,0.2,1.2
				c0,0.2,0,0.4,0,0.6c0,0.2,0,0.4,0,0.6c0,0.1,0,0.1-0.1,0.3c-0.1-0.2-0.2-0.3-0.2-0.3c-0.4-1-0.9-2-1.5-3c-0.7-1.1-1.4-2.3-2-3.4
				c-0.2-0.3-0.4-0.6-0.5-0.9l-0.3-0.4l-0.3-0.4c-0.2-0.3-0.3-0.6-0.5-0.9c-0.2-0.3-0.4-0.6-0.5-0.9c-0.2-0.3-0.3-0.5-0.5-0.8
				c-0.2-0.3-0.3-0.5-0.5-0.8c-0.3-0.5-0.6-1-0.9-1.5l-0.2-0.4c-0.1-0.1-0.2-0.2-0.2-0.4c-0.2-0.2-0.3-0.5-0.5-0.7
				c-0.2-0.2-0.3-0.5-0.5-0.7c-0.2-0.2-0.4-0.5-0.5-0.8c0.3,0.1,0.6,0.3,0.8,0.4c0.3,0.1,0.5,0.3,0.8,0.4c3.2,1.6,6.3,3.3,9.4,5.3
				c0.7,0.4,1.3,0.9,2,1.4c0.6,0.5,1.3,1.1,1.9,1.7c0.7,0.7,1.3,1.4,1.9,2.2l0.4,0.6c0.1,0.2,0.3,0.4,0.4,0.6
				c0.3,0.4,0.5,0.9,0.8,1.4c0.1,0.2,0.1,0.4,0.2,0.6c-0.1-0.1-0.2-0.2-0.4-0.3c-0.2-0.2-0.4-0.3-0.6-0.6c-0.1-0.1-0.2-0.2-0.3-0.4
				c-0.1-0.1-0.3-0.2-0.4-0.4c-0.1-0.1-0.3-0.3-0.4-0.4c-0.1-0.1-0.3-0.3-0.4-0.4c-0.2-0.1-0.3-0.3-0.5-0.4
				c-0.2-0.1-0.3-0.3-0.5-0.4c-0.3-0.3-0.7-0.6-1-0.8c-0.2-0.1-0.3-0.3-0.5-0.4c-0.2-0.1-0.3-0.3-0.5-0.4c-0.2-0.1-0.3-0.3-0.5-0.4
				C80.1,33,80,33,80,32.9c-0.1-0.1-0.2-0.1-0.2-0.2c-1.1-0.8-2.2-1.6-3.2-2.4c-0.5-0.4-1.1-0.8-1.6-1.2l-0.8-0.6
				c-0.3-0.2-0.6-0.4-0.8-0.5l-0.1,0.1l0.7,0.6c0.2,0.2,0.4,0.4,0.7,0.6l0.5,0.5c0.2,0.2,0.3,0.3,0.5,0.5c0.3,0.3,0.7,0.6,1,0.9
				c0.7,0.6,1.3,1.3,1.9,2c0.6,0.7,1.2,1.4,1.8,2.2c0.6,0.8,1.1,1.6,1.6,2.4c0.5,0.9,0.9,1.8,1.1,2.8l0.1,0.4l0,0.2l0,0.2
				c0,0.3,0.1,0.5,0.1,0.8c0,0.5,0.1,1,0,1.5c0,0.2-0.1,0.3-0.2,0.5c-0.1-0.3-0.2-0.6-0.3-0.9c-0.1-0.3-0.2-0.6-0.3-0.9
				c-0.1-0.2-0.2-0.4-0.2-0.6l-0.1-0.3c0-0.1-0.1-0.2-0.1-0.3l-0.3-0.6l-0.3-0.6l-0.1-0.3l-0.2-0.3c-0.1-0.2-0.2-0.4-0.3-0.5
				c-0.2-0.4-0.4-0.7-0.7-1c-0.5-0.7-1-1.3-1.4-1.9c-0.3-0.3-0.5-0.6-0.7-0.9l-0.4-0.5L77.1,34l-0.8-0.9c-0.3-0.3-0.5-0.6-0.8-0.9
				c-0.2-0.3-0.5-0.6-0.7-0.9c-0.1-0.2-0.2-0.3-0.4-0.5c-0.1-0.2-0.2-0.3-0.4-0.5c0,0-0.1-0.2-0.3-0.4c-0.1-0.1-0.2-0.3-0.3-0.4
				c-0.1-0.2-0.3-0.3-0.4-0.5c-0.3-0.3-0.6-0.7-0.9-1.1c-0.3-0.3-0.6-0.6-0.9-0.9c0.4,0.5,0.8,1,1.2,1.5l0.6,0.7l0.6,0.7
				C73.9,30.2,74,30.5,74.1,30.6z"/>
			<path class="st2" d="M60.3,18.5c0.4,0.4,0.7,0.8,1,1.2c0.2,0.2,0.3,0.4,0.5,0.6c0.2,0.2,0.3,0.4,0.5,0.6c1.4,1.7,2.5,3.6,3.1,5.6
				c0.7,2.4,1.5,4.6,2.1,6.9c0,0.2,0.1,0.4,0.1,0.6c0,0.1,0,0.2,0.1,0.3c0,0.1,0,0.2,0,0.3l-0.1,0c-0.1-0.2-0.2-0.3-0.3-0.5
				c-0.2-0.3-0.3-0.6-0.5-0.9c-0.2-0.3-0.3-0.6-0.5-0.9L66,31.9l-0.2-0.5c-0.2-0.3-0.3-0.6-0.5-0.9c-0.2-0.3-0.3-0.6-0.5-1L64.6,29
				l-0.2-0.5c-0.2-0.3-0.3-0.6-0.5-1c-0.2-0.3-0.3-0.6-0.5-1c-0.1-0.2-0.2-0.4-0.3-0.5c-0.1-0.2-0.2-0.4-0.3-0.5
				c-0.2-0.3-0.3-0.6-0.5-1c-0.2-0.3-0.3-0.6-0.5-1c-0.1-0.2-0.1-0.3-0.2-0.5c-0.1-0.2-0.1-0.3-0.2-0.5c-0.1-0.3-0.3-0.7-0.4-1
				c-0.1-0.2-0.2-0.4-0.2-0.6c-0.1-0.2-0.2-0.4-0.3-0.5c-0.2-0.4-0.4-0.7-0.7-1.1c-0.2-0.3-0.5-0.7-0.8-1c-0.3-0.3-0.6-0.6-0.9-0.9
				c-0.1-0.1-0.2-0.2-0.4-0.4c0.4,0.1,0.7,0.2,1.1,0.2c0.3,0.1,0.6,0.1,1,0.2c0.6,0.2,1.1,0.3,1.7,0.4c0.6,0.1,1.1,0.2,1.7,0.2
				c0.4,0.1,0.9,0.1,1.3,0.2c0.2,0,0.4,0.1,0.7,0.1l0.7,0.1l0.7,0.1c0.2,0,0.4,0.1,0.7,0.1c0.4,0.1,0.9,0.2,1.3,0.3
				c2.4,0.5,4.9,1.2,7.4,2c1.9,0.7,3.9,1.6,5.7,2.9c0.3,0.2,0.6,0.5,1,0.8c-0.2,0.1-0.3,0.1-0.4,0.1c-0.2,0-0.4-0.1-0.5-0.2
				c-0.4-0.2-0.9-0.4-1.4-0.5L79.7,24c-0.2-0.1-0.5-0.2-0.7-0.3l-1.4-0.5c-0.2-0.1-0.5-0.2-0.7-0.2l-0.7-0.2
				c-0.9-0.3-1.8-0.5-2.7-0.8c-0.5-0.1-0.9-0.2-1.4-0.4l-0.7-0.2l-0.7-0.2c-2.5-0.6-4.9-1.1-7.3-1.8c-0.2-0.1-0.4-0.1-0.7-0.2
				c-0.2-0.1-0.4-0.1-0.7-0.2c-0.4-0.1-0.9-0.3-1.3-0.4C60.7,18.6,60.6,18.6,60.3,18.5z"/>
			<path class="st2" d="M85,30.4c-0.3-0.2-0.6-0.3-0.8-0.4c-0.3-0.1-0.5-0.2-0.8-0.4c-0.2-0.1-0.5-0.3-0.7-0.4
				c-0.2-0.1-0.5-0.2-0.7-0.4c-0.5-0.2-0.9-0.4-1.4-0.6c-0.2-0.1-0.5-0.2-0.7-0.3l-0.7-0.3l-0.7-0.3c-0.2-0.1-0.4-0.2-0.7-0.3
				c-0.5-0.2-0.9-0.4-1.4-0.5c-0.4-0.2-0.9-0.3-1.4-0.5l-0.7-0.3l-0.7-0.3l-0.7-0.3c-0.2-0.1-0.4-0.2-0.7-0.3c-2-0.8-4.1-1.7-6-2.6
				c-0.3-0.1-0.5-0.3-0.9-0.3c0.1,0.1,0.2,0.2,0.3,0.3c2.8,3.1,4.6,6.8,5.2,10.5c0.1,0.4,0.1,0.8,0.2,1.2l0.1,0.6
				c0,0.2,0.1,0.4,0.1,0.6c0,0.4,0,0.7,0,1.1c-0.1-0.2-0.3-0.4-0.4-0.6c-0.1-0.2-0.2-0.5-0.3-0.7l-0.2-0.7c-0.1-0.2-0.1-0.5-0.2-0.7
				c-0.1-0.4-0.3-0.9-0.5-1.3c-0.2-0.4-0.3-0.9-0.5-1.3c-0.2-0.4-0.4-0.9-0.6-1.3c-0.8-1.8-1.8-3.5-2.9-5.1c-0.2-0.3-0.4-0.7-0.7-1
				c-0.2-0.3-0.4-0.7-0.7-1c-0.1-0.2-0.3-0.4-0.4-0.6c-0.1-0.2-0.3-0.4-0.4-0.6c-0.3-0.4-0.6-0.8-0.9-1.2c0.3,0.1,0.6,0.1,0.8,0.2
				c0.3,0.1,0.5,0.1,0.8,0.2l0.7,0.2c0.2,0.1,0.5,0.1,0.7,0.2l1.4,0.4l1.4,0.4l0.4,0.1l0.3,0.1l0.7,0.2c1.9,0.6,3.7,1.3,5.6,2
				c0.2,0.1,0.4,0.1,0.6,0.2c0.2,0.1,0.4,0.2,0.6,0.2c0.4,0.2,0.8,0.3,1.1,0.5c0.4,0.2,0.7,0.4,1.1,0.6l0.6,0.3
				c0.2,0.1,0.4,0.2,0.5,0.3c0.4,0.2,0.7,0.4,1.1,0.7c0.2,0.1,0.4,0.2,0.5,0.4c0.2,0.1,0.4,0.2,0.5,0.4c0.4,0.3,0.7,0.5,1.1,0.8
				c0.2,0.1,0.4,0.3,0.5,0.4c0.2,0.2,0.4,0.3,0.5,0.5C84.6,29.7,84.9,29.9,85,30.4z"/>
			<path class="st2" d="M79.5,19.6c-0.3,0-0.5-0.1-0.8-0.1c-3.6-0.6-7.1-1.1-10.6-1.4c-2.2-0.2-4.4-0.6-6.6-1
				c-0.4-0.1-0.8-0.1-1.2-0.2c-0.2,0-0.4-0.1-0.6-0.1l-0.6-0.1c-0.8-0.1-1.6-0.2-2.3-0.3c-0.2,0-0.3,0-0.5,0
				c0.1,0.1,0.1,0.2,0.2,0.3c0.3,0.3,0.5,0.5,0.8,0.8c0.1,0.1,0.2,0.3,0.4,0.4c0.1,0.1,0.2,0.3,0.3,0.4c0.2,0.3,0.4,0.6,0.6,0.8
				c0.2,0.3,0.4,0.6,0.6,0.9c0.2,0.3,0.3,0.6,0.5,0.9c0.2,0.3,0.3,0.6,0.5,0.9c0.3,0.6,0.5,1.2,0.8,1.8c1,2.6,1.8,5.2,2.4,7.8
				c0,0.1,0.1,0.3,0,0.5c-0.1-0.1-0.2-0.2-0.2-0.3c-0.1-0.1-0.2-0.3-0.2-0.4l-0.2-0.4c-0.2-0.3-0.3-0.6-0.4-0.9
				c-0.3-0.6-0.6-1.2-0.9-1.7c-0.2-0.4-0.4-0.7-0.5-1.1c-0.2-0.4-0.3-0.7-0.5-1.1L60,25.4l-0.2-0.5c-0.2-0.4-0.3-0.7-0.5-1.1
				c-0.2-0.4-0.3-0.7-0.5-1.1l-0.2-0.6l-0.2-0.6c-0.2-0.4-0.3-0.7-0.5-1.1c-0.2-0.4-0.3-0.7-0.5-1.1c-0.1-0.2-0.2-0.5-0.4-0.7
				c-0.1-0.2-0.3-0.5-0.4-0.7l-0.4-0.7c-0.1-0.2-0.3-0.5-0.4-0.7c-0.2-0.3-0.4-0.7-0.6-1.1c0.6,0.4,1.1,0.3,1.7,0.3
				c2.4,0,4.9,0.3,7.3,0.3l0.7,0l0.7,0c0.5,0,0.9,0,1.4,0c0.5,0,0.9,0,1.4,0.1l0.7,0c0.2,0,0.5,0,0.7,0.1c0.3,0,0.7,0.1,1,0.1
				c0.3,0,0.7,0.1,1,0.1c0.3,0.1,0.7,0.1,1,0.2c0.3,0.1,0.7,0.1,1,0.2c0.9,0.2,1.7,0.5,2.6,0.9c0.2,0.1,0.4,0.2,0.6,0.3l0.3,0.2
				l0.3,0.2c0.4,0.2,0.8,0.4,1.3,0.7c0.3,0.1,0.5,0.3,0.8,0.5C79.5,19.5,79.5,19.5,79.5,19.6z"/>
			<path class="st2" d="M66.1,6.1c-0.3,0.1-0.5,0.2-0.7,0.2C64.3,6.5,63.1,6.7,62,7c-0.6,0.1-1.1,0.3-1.7,0.4
				c-0.5,0.1-1.1,0.3-1.6,0.4c-0.9,0.3-1.8,0.6-2.7,1c-2.7,1.2-5.3,2.4-8.2,3.2c-0.4,0.1-0.8,0.3-1.3,0.2c0.2-0.4,0.5-0.6,0.8-0.9
				c0.4-0.4,0.8-0.7,1.3-1.1c0.4-0.4,0.9-0.7,1.3-1c0.2-0.2,0.4-0.3,0.7-0.5c0.1-0.1,0.2-0.1,0.4-0.2c0.1-0.1,0.3-0.1,0.4-0.2
				c0.8-0.3,1.5-0.6,2.3-0.9c0.8-0.3,1.5-0.6,2.3-1c0.2-0.1,0.4-0.2,0.6-0.2c2.7-0.6,5.7-1,8.9-0.3C65.6,5.9,65.8,6,66.1,6.1z"/>
			<path class="st2" d="M50.7,13.6c0.1-0.1,0.2-0.2,0.4-0.3c0.5-0.3,1-0.5,1.5-0.8l0.7-0.4l0.7-0.4c0.5-0.3,1-0.5,1.5-0.8
				c0.5-0.3,1-0.5,1.5-0.8c2.1-1.1,4.5-1.7,7.2-1.8c0.5,0,0.9,0,1.4,0l1.4,0l0.7,0c0.2,0,0.5,0,0.7,0c0.5,0,0.9,0,1.4,0.1
				c0.6,0,1.2,0.1,1.8,0.4C71.4,9,71.1,9,70.8,9.1c-0.4,0-0.8,0.1-1.2,0.1c-0.4,0-0.8,0.1-1.2,0.2c-0.8,0.1-1.5,0.2-2.3,0.3
				c-0.7,0.1-1.3,0.2-1.9,0.4c-0.6,0.2-1.2,0.3-1.8,0.5c-0.5,0.2-1.1,0.3-1.6,0.5c-0.5,0.2-1.1,0.3-1.6,0.4
				c-2.3,0.6-4.6,1.2-6.8,1.9c-0.4,0.1-0.8,0.2-1.2,0.3c-0.1,0-0.3,0-0.4,0L50.7,13.6z"/>
			<path class="st2" d="M53.1,14.7c0.1-0.2,0.3-0.3,0.5-0.3c0.4-0.1,0.9-0.3,1.3-0.4c0.4-0.1,0.9-0.2,1.3-0.4
				c0.4-0.1,0.9-0.2,1.3-0.4c0.4-0.1,0.9-0.2,1.3-0.4c0.6-0.2,1.3-0.3,2-0.5c0.7-0.1,1.3-0.2,2-0.3c0.7-0.1,1.4-0.1,2.1-0.1
				c0.4,0,0.7,0,1.1,0c0.4,0,0.7,0,1.1,0.1c0.8,0.1,1.6,0.2,2.4,0.3c0.8,0.1,1.6,0.2,2.4,0.3c0.5,0.1,1,0.2,1.6,0.3
				c0.5,0.1,1,0.3,1.6,0.4c0.2,0.1,0.4,0.2,0.7,0.4c-0.1,0-0.3,0.1-0.4,0.1c-2.6-0.2-5.1-0.3-7.5-0.2c-0.5,0-1,0-1.5,0.1
				c-0.5,0-1,0.1-1.5,0.1c-1,0.1-1.9,0.1-2.9,0.2c-1.2,0.1-2.5,0.2-3.7,0.3c-0.3,0-0.6,0-0.9,0.1l-0.9,0.1l-0.9,0.1l-0.9,0.1
				C54.1,14.9,53.6,15,53.1,14.7L53.1,14.7z"/>
			<path class="st2" d="M43.9,11.8c0-0.2-0.1-0.3,0-0.4c0.2-0.7,0.4-1.4,0.7-2c0.2-0.3,0.4-0.6,0.6-0.9c0.1-0.1,0.3-0.3,0.4-0.4
				C45.7,8,45.9,7.9,46,7.8c0.6-0.4,1.1-0.9,1.5-1.5c0.3-0.6,0.7-1,1.2-1.5c0.5-0.4,1.1-0.8,1.7-1.1c0.2-0.1,0.4-0.2,0.6-0.3
				c0.2-0.1,0.4-0.2,0.6-0.3c0.4-0.2,0.8-0.3,1.2-0.5c0.4-0.2,0.8-0.3,1.3-0.4c0.4-0.1,0.9-0.2,1.4-0.3C55.7,2,56,2,56.4,2
				c-0.1,0.2-0.2,0.3-0.3,0.4c-0.7,0.6-1.5,1.2-2.2,1.8c-0.3,0.2-0.6,0.5-1,0.6c-0.6,0.3-1.1,0.6-1.6,1c-0.5,0.4-0.9,0.8-1.2,1.3
				c-0.2,0.3-0.4,0.5-0.6,0.7c-0.2,0.2-0.5,0.5-0.7,0.7C48.1,9,47.6,9.4,47,9.7c-0.7,0.4-1.3,0.9-1.9,1.4c-0.2,0.1-0.3,0.2-0.5,0.3
				C44.3,11.5,44.1,11.6,43.9,11.8z"/>
			<path class="st2" d="M50.7,28.9c-0.2-0.5-0.4-1-0.5-1.5c-0.2-0.5-0.3-1-0.5-1.6c-0.2-0.5-0.3-1-0.5-1.6L49,23.5
				c-0.1-0.3-0.1-0.5-0.2-0.8c-0.1-0.3-0.1-0.5-0.2-0.8c-0.1-0.3-0.1-0.5-0.2-0.8c-0.1-0.5-0.2-1.1-0.4-1.6
				c-0.1-0.5-0.2-1.1-0.3-1.6c0-0.3-0.1-0.6-0.1-0.8c0-0.3-0.1-0.6-0.1-0.8c-0.2-1.1-0.4-2.1-0.7-3.2c0-0.2-0.1-0.4-0.1-0.6
				c0.4,0,0.4,0.2,0.5,0.4c0.2,0.3,0.4,0.7,0.6,1c0.2,0.3,0.4,0.7,0.5,1c0.3,0.7,0.5,1.4,0.7,2.2c0.1,0.5,0.2,1,0.4,1.5
				c0.1,0.5,0.2,1,0.3,1.5c0.1,0.4,0.2,0.7,0.3,1.1c0.1,0.4,0.2,0.7,0.3,1c0.2,0.5,0.3,1,0.4,1.6c0.1,0.5,0.2,1.1,0.2,1.6
				c0.1,1,0.1,2.1,0,3.1C50.9,28.5,50.8,28.7,50.7,28.9C50.8,28.9,50.7,28.9,50.7,28.9z"/>
			<path class="st2" d="M53,14.7c0.1,0.2,0.3,0.4,0.4,0.5l0.4,0.6c0.1,0.2,0.3,0.4,0.4,0.6c0.1,0.2,0.2,0.4,0.4,0.6
				c0.4,0.7,0.8,1.4,1.1,2.2c0.2,0.4,0.3,0.7,0.4,1.1c0.1,0.4,0.2,0.8,0.3,1.1c0.1,0.3,0.2,0.6,0.3,0.9c0.1,0.3,0.2,0.6,0.3,0.9
				c0.1,0.3,0.3,0.6,0.4,1c0.1,0.3,0.3,0.6,0.4,1c0.2,0.5,0.3,0.9,0.4,1.4c0.1,0.2,0.1,0.4,0.1,0.6c0,0.2,0.1,0.4,0.1,0.6
				c0,0.4,0.1,0.9,0.1,1.3c0,0.2,0,0.5,0,0.7c0,0.2,0,0.5-0.1,0.8c-0.1-0.1-0.2-0.2-0.2-0.3c-1.1-2.4-2.2-4.8-2.9-7.4
				c-0.6-2.4-1.5-4.8-2.5-7.2c-0.1-0.3-0.2-0.5-0.4-0.8c-0.1-0.3-0.3-0.5-0.4-0.8c0.2,0.1,0.4,0.2,0.6,0.3
				C52.8,14.5,52.9,14.6,53,14.7C53.1,14.7,53,14.7,53,14.7z"/>
			<path class="st2" d="M49.9,13.3c0.2,0.3,0.5,0.6,0.7,1c0.2,0.4,0.4,0.8,0.7,1.2l0.2,0.3l0.2,0.3c0.1,0.2,0.2,0.4,0.3,0.6
				c0.4,0.8,0.7,1.7,1,2.5c0,0.1,0.1,0.3,0.1,0.4c0,0.1,0,0.3,0.1,0.4c0,0.4,0.1,0.8,0.2,1.2c0.1,0.4,0.1,0.8,0.2,1.2
				c0.1,0.4,0.2,0.8,0.3,1.2l0.1,0.6c0,0.2,0.1,0.4,0.2,0.6c0.6,2,0.6,4.1,0.6,6c0,0,0,0-0.1,0.1c-0.1-0.2-0.2-0.4-0.3-0.6
				c-0.1-0.3-0.2-0.6-0.3-0.9c-0.1-0.3-0.2-0.6-0.3-0.9c-0.1-0.3-0.2-0.6-0.2-0.9c-0.1-0.3-0.2-0.6-0.3-0.9
				c-0.3-0.8-0.5-1.6-0.7-2.3c-0.1-0.4-0.2-0.8-0.3-1.2c-0.1-0.4-0.2-0.8-0.3-1.2c-0.2-0.8-0.4-1.6-0.6-2.4
				c-0.2-0.8-0.4-1.6-0.6-2.5c-0.1-0.6-0.3-1.2-0.4-1.9c-0.1-0.3-0.1-0.6-0.2-0.9c-0.1-0.3-0.2-0.6-0.2-0.9L49.9,13.3z"/>
			<path class="st2" d="M47.7,25.2c-0.3,0.1-0.4-0.1-0.4-0.3c-0.9-2-2-3.9-2.8-6c-0.1-0.3-0.2-0.6-0.3-0.8c0-0.1-0.1-0.3-0.1-0.4
				c0-0.1-0.1-0.3-0.1-0.4c-0.2-0.6-0.3-1.1-0.4-1.7c-0.1-0.3-0.1-0.6-0.1-0.8c0-0.3-0.1-0.6-0.1-0.8c0-0.6-0.1-1.1,0-1.7
				c0-0.1,0-0.2,0-0.3c0-0.1,0-0.1,0.1-0.2c0.1,0.1,0.3,0.2,0.3,0.3c0.5,0.5,0.9,1.1,1.2,1.7c0.3,0.6,0.5,1.2,0.7,1.8
				c0.1,0.3,0.1,0.6,0.2,0.9c0.1,0.3,0.1,0.6,0.2,0.9c0.1,0.6,0.3,1.2,0.4,1.8c0,0.1,0.1,0.3,0.1,0.4l0.1,0.4l0.2,0.8
				c0.2,0.5,0.3,1,0.4,1.5c0.2,0.9,0.3,1.7,0.4,2.6C47.8,24.9,47.7,25.1,47.7,25.2z"/>
			<path class="st2" d="M42.9,20.6c-0.3-0.6-0.5-1.2-0.8-1.7c-0.1-0.2-0.2-0.4-0.3-0.6c-0.3-0.4-0.5-0.8-0.6-1.2
				c-0.2-0.4-0.3-0.8-0.4-1.3c-0.2-0.8-0.3-1.5-0.3-2.3c-0.1-0.8,0-1.5,0.1-2.3c0.1,0.1,0.2,0.2,0.3,0.3c0.9,1.3,1.3,2.7,1.4,4.1
				c0.1,0.9,0.3,1.8,0.5,2.7c0.1,0.6,0.2,1.2,0.3,1.8c0,0.1,0,0.3,0,0.4C43,20.6,43,20.6,42.9,20.6z"/>
			<path class="st2" d="M47.9,4.1c-0.3,0.4-0.7,0.7-1,1.1c-0.4,0.4-0.7,0.7-1.1,1.1c-0.3,0.4-0.7,0.8-1,1.2
				c-0.3,0.4-0.7,0.8-1.1,1.1C43.3,9,43,9.3,42.6,9.7c-0.4,0.3-0.7,0.7-1.1,1c-0.1,0.1-0.3,0.2-0.6,0.4c0-0.2,0-0.3,0-0.4
				c0.2-0.6,0.5-1.2,0.7-1.9c0.2-0.6,0.6-1.1,1.1-1.5c0.4-0.3,0.8-0.7,1.2-1l0.6-0.5l0.6-0.5c0.7-0.6,1.7-0.9,2.6-1.3L47.9,4.1z"/>
		</g>
		<g>
			<path class="st2" d="M33.7,10.3c0.3,0.1,0.7,0.1,1,0.2c0.3,0.1,0.7,0.1,1,0.2c0.7,0.1,1.4,0.2,2,0.3l1.1,0.2
				c0.4,0.1,0.7,0.1,1.1,0.2c0.4,0.1,0.7,0.1,1.1,0.2c0.4,0.1,0.7,0.1,1.1,0.2c0.2,0,0.4,0.1,0.6,0.1c0.2,0,0.4,0.1,0.6,0.1
				c0.2,0,0.5,0.1,0.7,0.1c0.2,0,0.5,0.1,0.7,0.2c0.5,0.1,1.1,0.2,1.6,0.4c0.3,0.1,0.5,0.1,0.8,0.2c0.3,0.1,0.6,0.2,0.8,0.2
				c0.3,0.1,0.6,0.2,0.8,0.3c0.3,0.1,0.5,0.2,0.8,0.3c0.3,0.1,0.5,0.2,0.8,0.3c0.3,0.1,0.5,0.2,0.8,0.3c0.2,0.1,0.5,0.2,0.7,0.3
				c0.2,0.1,0.5,0.2,0.7,0.3c0.4,0.2,0.8,0.3,1.2,0.5c2.5,1.1,5,2.4,7.2,3.9c2.2,1.4,4.3,2.9,5.9,4.2c1.7,1.3,3,2.6,4,3.4
				c0.5,0.4,0.8,0.8,1.1,1c0.1,0.1,0.2,0.2,0.3,0.3c0.1,0.1,0.1,0.1,0.1,0.1s0-0.1-0.1-0.2c-0.1-0.1-0.2-0.2-0.3-0.4
				c-0.1-0.2-0.3-0.4-0.5-0.6c-0.1-0.1-0.2-0.2-0.3-0.3c-0.1-0.1-0.2-0.2-0.3-0.4c-0.2-0.2-0.5-0.5-0.7-0.8
				c-0.2-0.3-0.5-0.5-0.7-0.7c-0.2-0.2-0.5-0.5-0.7-0.7c-0.2-0.2-0.4-0.4-0.6-0.5c-1.5-1.3-3-2.4-4.5-3.4c-1.5-1-3-2-4.6-2.9
				c-0.4-0.2-0.8-0.5-1.2-0.7c-0.4-0.2-0.8-0.4-1.2-0.7c-0.4-0.2-0.8-0.4-1.3-0.6c-0.2-0.1-0.4-0.2-0.7-0.3
				c-0.2-0.1-0.4-0.2-0.7-0.3c-1.8-0.8-3.8-1.6-6-2.3c-0.4-0.1-0.9-0.3-1.4-0.4c-0.3-0.1-0.5-0.1-0.8-0.2c-0.3-0.1-0.5-0.1-0.8-0.2
				c-0.6-0.1-1.1-0.2-1.7-0.4c-0.1,0-0.3-0.1-0.4-0.1c-0.1,0-0.3-0.1-0.4-0.1c-0.3-0.1-0.6-0.1-0.9-0.2C41.3,11,41,11,40.7,10.9
				c-0.3,0-0.6-0.1-0.9-0.2c-0.6-0.1-1.2-0.2-1.7-0.3c-0.3,0-0.5-0.1-0.8-0.1c-0.3,0-0.5-0.1-0.8-0.2c-0.1,0-0.2,0-0.4-0.1
				c-0.1,0-0.2-0.1-0.3-0.1c-0.2-0.1-0.4-0.1-0.7-0.2c-0.6-0.1-1.1-0.3-1.5-0.4c-0.2-0.1-0.4-0.1-0.6-0.2c-0.2-0.1-0.4-0.1-0.5-0.2
				c-0.3-0.1-0.6-0.2-0.9-0.3c-0.3-0.1-0.5-0.1-0.8-0.2C30,8.5,30.3,9,30.4,9.2c0.1,0.2,0.4,0.4,0.9,0.5c0.1,0,0.3,0.1,0.5,0.1
				c0.2,0,0.4,0.1,0.6,0.1c0.2,0.1,0.4,0.1,0.7,0.2c0.1,0,0.2,0.1,0.4,0.1C33.5,10.3,33.6,10.3,33.7,10.3z"/>
		</g>
	</g>
</g>
</svg>
