<?xml version="1.0" encoding="utf-8"?>
<!-- Generator: Adobe Illustrator 26.0.1, SVG Export Plug-In . SVG Version: 6.00 Build 0)  -->
<svg version="1.1" id="Layer_1" xmlns="http://www.w3.org/2000/svg" xmlns:xlink="http://www.w3.org/1999/xlink" x="0px" y="0px"
	 viewBox="0 0 100 100" style="enable-background:new 0 0 100 100;" xml:space="preserve">
<style type="text/css">
	.st0{fill:#FFFFFF;}
	.st1{fill:#77AABA;}
</style>
<g>
	<path class="st0" d="M74,59.3c-2.6-2-6.3-2.6-9.3-1.2c2-2.2,0.6-6.3-1.9-7.6c-2.4-1.3-5.9-0.8-7.6,1.5c0.2-1.6-0.5-4.7-2.7-6
		c-5.4-3.1-11.9-0.3-14.2,6.3c0.1-2-0.1-4.2-1.8-5.6c-1.5-1.2-3.7-1.3-5.3-0.4c1.4-2.1,1-5.2-1-6.9c-1.9-1.6-5.1-1.5-6.9,0.2
		c0.6-3.1-1.7-6.1-4.5-7.6c-3.2-1.7-7.2-2-10.7-0.8c-1.5,0.5-3.6,1.3-4.6,2.5c-2.6,3.1-1,11.1-1,14.9c0,3.7,0.1,7.3,0.1,11
		c0,3.1-0.7,6.6-0.5,9.6c8.1,0.4,16.5-0.7,24.6-1.1c8.2-0.3,16.5-0.6,24.7-0.5c9,0,18,0,27,0.1C78.2,64.5,76.6,61.3,74,59.3z"/>
	<path class="st1" d="M38.3,63.1c0,0,19.2-1.5,23.2-2.5c4-1,7.5-2,13.6-1.7c6.2,0.2,15,2.9,15,2.9l7.9,1.8l-38.3,1.2L38.3,63.1z"/>
</g>
</svg>
