<?xml version="1.0" encoding="utf-8"?>
<!-- Generator: Adobe Illustrator 26.0.1, SVG Export Plug-In . SVG Version: 6.00 Build 0)  -->
<svg version="1.1" id="Layer_1" xmlns="http://www.w3.org/2000/svg" xmlns:xlink="http://www.w3.org/1999/xlink" x="0px" y="0px"
	 viewBox="0 0 100 100" style="enable-background:new 0 0 100 100;" xml:space="preserve">
<style type="text/css">
	.st0{fill:#40BBAA;}
	.st1{fill:#038EA3;}
	.st2{fill:#49DEE3;}
</style>
<g>
	<g>
		<g>
			<path class="st0" d="M36.1,49.6c-1.1,1.5-2.3,2.9-3.5,4.3l-0.2,0.3l-0.2,0.3L31.6,55l-0.5,0.5c-0.2,0.2-0.3,0.4-0.5,0.5l-0.5,0.6
				c-0.2,0.2-0.3,0.4-0.5,0.6c-0.2,0.2-0.3,0.4-0.5,0.6c-0.2,0.2-0.3,0.4-0.5,0.6c-0.1,0.1-0.2,0.1-0.3,0.3c0-0.3,0.1-0.4,0.1-0.5
				c0.5-1.5,1.1-2.8,1.7-4.1c0.7-1.5,1.6-2.8,2.6-4.1c0.2-0.3,0.5-0.6,0.7-0.9c0.3-0.3,0.5-0.6,0.8-0.9c0.5-0.6,1-1.1,1.6-1.7
				c0.1-0.1,0.2-0.2,0.4-0.4l0.4-0.3c0.2-0.2,0.5-0.4,0.7-0.7l0.8-0.7l0.4-0.3l0.2-0.2l0.2-0.2c0.5-0.4,1-0.8,1.4-1.2
				c0.2-0.2,0.5-0.4,0.7-0.6c0.1-0.1,0.2-0.2,0.4-0.3c0.1-0.1,0.3-0.2,0.4-0.3c-0.1,0.2-0.1,0.3-0.2,0.5c-0.1,0.2-0.1,0.3-0.1,0.5
				c-0.1,0.3-0.2,0.6-0.3,0.9c-0.1,0.4-0.3,0.9-0.4,1.3l-0.2,0.7c-0.1,0.2-0.1,0.5-0.2,0.7c-0.2,0.9-0.4,1.8-0.6,2.7
				c-0.2,0.9-0.3,1.8-0.5,2.7c-0.1,0.4-0.1,0.9-0.2,1.3c0,0.2-0.1,0.4-0.1,0.7l-0.1,0.7c-0.1,1.5-0.2,3-0.3,4.3c0,0.2,0,0.4,0,0.5
				c0,0.2,0,0.4,0,0.5l0,0.3c0,0.1,0,0.2,0,0.3l0,0.5c0,0.2,0,0.3,0,0.5c0,0.2,0,0.3,0,0.5l0,0.5l0,0.2l0,0.2c0,0.1-0.1,0.2-0.1,0.3
				c-0.1-0.1-0.2-0.2-0.3-0.3c-0.1-0.1-0.1-0.1-0.2-0.2c-0.1-0.1-0.1-0.2-0.2-0.3c-0.1-0.2-0.2-0.4-0.3-0.7
				c-0.1-0.3-0.2-0.5-0.3-0.9c-0.1-0.3-0.2-0.6-0.3-1c-0.1-0.4-0.1-0.7-0.2-1.1C37,57.4,37,56.6,37,55.9c0-1.3,0.2-2.6,0.5-3.9
				c0.1-0.7,0.3-1.3,0.5-2c0.2-0.7,0.4-1.3,0.5-2l-0.1,0c-0.3,0.6-0.5,1.1-0.8,1.7l-0.6,1.3c-0.2,0.4-0.3,0.9-0.5,1.3
				c-0.3,0.9-0.6,1.7-0.9,2.6c-0.3,0.9-0.5,1.7-0.7,2.6l-0.1,0.6c0,0.1,0,0.2-0.1,0.3l-0.1,0.3c0,0.2-0.1,0.4-0.1,0.6L34.6,60l0,0.2
				l0,0.2c0,0.1,0,0.2,0,0.3c0,0.2-0.1,0.4-0.1,0.6c0,0.2-0.1,0.4-0.1,0.6c0,0.2-0.1,0.4-0.1,0.6c0,0.1-0.1,0.2-0.1,0.3
				c0,0.1,0,0.2-0.1,0.3c0,0.1,0,0.2-0.1,0.3c0,0.1-0.1,0.2-0.1,0.3c0,0.2-0.1,0.4-0.1,0.6l0,0.2l0,0.2l-0.1,0.3
				c0,0.1-0.1,0.3-0.3,0.4l-0.2-0.8c0-0.1-0.1-0.3-0.1-0.4c0-0.1,0-0.3-0.1-0.4c0-0.1,0-0.2,0-0.3l0-0.3c0-0.2,0-0.4-0.1-0.6l0-0.6
				l0-0.3l0-0.3l0-0.6l0-0.6c0-0.4,0.1-0.8,0.1-1.3c0.2-1.6,0.6-3.3,1.1-4.8c0.1-0.2,0.2-0.4,0.2-0.6c0.1-0.2,0.2-0.4,0.2-0.6
				c0.2-0.4,0.4-0.8,0.6-1.1c0.1-0.2,0.2-0.4,0.3-0.6c0.1-0.2,0.2-0.4,0.3-0.5c0.2-0.4,0.5-0.7,0.7-1.1c0,0,0.5-0.7,1-1.5
				c0.1-0.2,0.3-0.4,0.4-0.6c0.1-0.2,0.3-0.4,0.4-0.6c0.3-0.4,0.5-0.8,0.7-1.1c-0.4,0.5-0.8,1.1-1.2,1.6c-0.4,0.6-0.8,1.1-1.1,1.7
				C36.4,49.2,36.2,49.5,36.1,49.6z"/>
			<path class="st0" d="M47.9,33.9c-1,0.6-1.9,1.1-2.8,1.7c-1,0.7-2.1,1.3-3.2,1.8c-1.1,0.6-2.2,1.1-3.4,1.5
				C38.3,38.9,38.1,39,38,39c-0.2,0.1-0.3,0.1-0.5,0.2c-0.3,0.1-0.7,0.3-1,0.4c-0.7,0.3-1.3,0.6-2,1c-0.2,0.1-0.3,0.2-0.5,0.3
				l-0.5,0.3l-1,0.6c-0.7,0.4-1.3,0.8-2,1.1c-0.5,0.3-0.9,0.6-1.4,0.8L29,43.6c0.2-0.2,0.3-0.4,0.5-0.6c0.2-0.2,0.3-0.3,0.5-0.5
				c0.2-0.2,0.3-0.3,0.5-0.5c0.3-0.3,0.7-0.6,1-0.9c0.7-0.6,1.4-1.2,2.1-1.7c0.7-0.5,1.5-1,2.2-1.5l0.3-0.2c0.1-0.1,0.2-0.1,0.3-0.2
				l0.6-0.3c0.4-0.2,0.8-0.4,1.2-0.6c0.4-0.2,0.9-0.4,1.3-0.7c0.2-0.1,0.4-0.2,0.6-0.3c0.2-0.1,0.4-0.2,0.6-0.3
				c0.4-0.2,0.8-0.3,1.2-0.5c0.8-0.3,1.6-0.6,2.4-0.8c0.9-0.2,1.8-0.5,2.7-0.9c0.2-0.1,0.4-0.2,0.6-0.3c0.2-0.1,0.4-0.2,0.6-0.3
				c0.4-0.2,0.8-0.5,1.2-0.7c0.1-0.1,0.2-0.1,0.5-0.3c-0.3,0.8-0.6,1.4-0.9,2c-0.1,0.3-0.3,0.6-0.4,0.9c-0.1,0.3-0.2,0.6-0.3,0.9
				c-0.2,0.6-0.3,1.2-0.4,1.8l-0.1,0.7l-0.1,0.3l-0.1,0.4l-0.2,1.4l-0.2,1.4l-0.1,0.7l-0.1,0.7c-0.1,0.6-0.1,1.3-0.2,1.9
				c0,0.6-0.1,1.2-0.1,1.9l-0.1,1.8l0,0.9c0,0.2,0,0.3,0,0.5l0,0.5c0,1,0,1.9-0.1,2.8l0,0.2l0,0.2l0,0.4c0,0.2,0,0.5-0.1,0.7
				c0,0.5-0.1,0.9-0.2,1.4c0,0.3-0.1,0.6-0.2,1c-0.1-0.1-0.3-0.2-0.3-0.3c-0.1-0.2-0.1-0.3-0.1-0.5c-0.1-0.9-0.2-1.8-0.3-2.7
				l-0.1-0.7c0-0.1,0-0.2,0-0.3l0-0.3l-0.1-1.4c0-0.5,0-0.9-0.1-1.4l0-0.7l0-0.7c0-0.9,0-1.8,0-2.8c0-0.2,0-0.3,0-0.5l0-0.5
				c0-0.3,0-0.6,0.1-1c0.1-0.6,0.1-1.3,0.2-1.9c0-0.2,0-0.3,0.1-0.5l0.1-0.5c0.1-0.3,0.1-0.6,0.2-1c0.2-0.6,0.3-1.3,0.6-1.9l0.1-0.2
				l0.1-0.2l0.1-0.3c0.1-0.2,0.2-0.4,0.3-0.7c0.2-0.4,0.4-0.9,0.6-1.4C47.7,34.3,47.8,34.1,47.9,33.9z"/>
			<path class="st0" d="M42.9,59.4c-0.1-0.1-0.1-0.2-0.2-0.4c-0.1-0.1-0.1-0.2-0.1-0.3c-0.1-0.2-0.2-0.4-0.2-0.7
				c-0.1-0.2-0.1-0.4-0.2-0.6c0-0.2-0.1-0.4-0.1-0.6l-0.1-0.7l-0.1-0.3l-0.1-0.3l-0.1-0.7c0-0.2-0.1-0.5-0.1-0.7
				c-0.1-0.5-0.1-0.9-0.1-1.4c-0.1-1-0.1-1.9-0.1-2.9c0-1,0.1-1.9,0.2-2.9c0-0.3,0.1-0.6,0.1-0.8c0-0.3,0.1-0.6,0.1-0.8
				c0.1-0.6,0.2-1.1,0.4-1.7c0.1-0.3,0.1-0.6,0.2-0.8c0-0.1,0.1-0.3,0.1-0.4l0.1-0.4c0.2-0.5,0.4-1.1,0.6-1.6c0.1-0.3,0.2-0.6,0.3-1
				c-0.1,0.1-0.2,0.2-0.4,0.3c-0.4,0.4-0.8,0.7-1.3,1.1c-0.2,0.2-0.4,0.4-0.7,0.5L41,41.2l-0.3,0.3c-0.9,0.7-1.8,1.3-2.7,2
				c-0.9,0.6-1.8,1.3-2.8,1.8l-0.4,0.2l-0.4,0.2c-0.2,0.1-0.5,0.3-0.7,0.4c-0.5,0.3-1,0.5-1.5,0.8c-0.9,0.4-1.7,0.9-2.5,1.4
				c-0.2,0.1-0.4,0.2-0.6,0.3c-0.2,0.1-0.4,0.2-0.7,0.3c0.1-0.2,0.2-0.3,0.3-0.4c0.1-0.1,0.2-0.3,0.3-0.4c0.2-0.3,0.4-0.5,0.7-0.7
				c0.2-0.2,0.5-0.4,0.7-0.5l0.7-0.5l1.4-1.1l0.7-0.5c0.1-0.1,0.2-0.2,0.3-0.3l0.4-0.3c0.5-0.3,0.9-0.7,1.4-1l0.7-0.5l0.3-0.3
				c0.1-0.1,0.2-0.2,0.3-0.3c0.5-0.3,0.9-0.7,1.4-1c0.5-0.3,0.9-0.7,1.4-1c0.5-0.3,0.9-0.7,1.4-1c0.4-0.3,0.8-0.5,1.1-0.7l0.6-0.4
				c0.2-0.1,0.4-0.2,0.6-0.3c0.4-0.3,0.9-0.5,1.3-0.8c0.2-0.1,0.5-0.3,0.7-0.4c0.1-0.1,0.2-0.1,0.4-0.2c0.1,0,0.1-0.1,0.2-0.1
				c0.1,0,0.1-0.1,0.2-0.1c0,0.1,0,0.2-0.1,0.2c0,0.1,0,0.2-0.1,0.2c0,0.2-0.1,0.3-0.1,0.4c-0.1,0.3-0.1,0.6-0.2,0.9
				c-0.6,2-1,4-1.3,6c-0.1,1-0.3,2-0.4,3l0,0.4c0,0.1,0,0.2,0,0.4l0,0.7c0,0.5,0,1,0,1.5c0,0.4,0,0.8,0,1.2c0,0.4,0,0.8,0,1.2
				c0,0.8-0.1,1.6-0.1,2.3c-0.1,1.5-0.2,3-0.2,4.3c0,0.1,0,0.2,0,0.3C43.1,59.2,43,59.3,42.9,59.4z"/>
			<path class="st0" d="M49.9,53.4c-0.1-0.2-0.1-0.5-0.2-0.7c-0.1-0.4-0.2-0.8-0.3-1.3c-0.1-0.2-0.1-0.4-0.1-0.6l-0.1-0.6
				c-0.2-0.8-0.3-1.7-0.4-2.6c0-0.2-0.1-0.4-0.1-0.7l-0.1-0.6c0-0.4-0.1-0.9-0.1-1.3c0-0.4-0.1-0.9-0.1-1.3c0-0.4,0-0.9,0-1.3
				c0-1.1,0.1-2.2,0.3-3.4c0.2-1.1,0.5-2.2,0.7-3.4c0.1-0.4,0.2-0.8,0.4-1.2c0.1-0.4,0.3-0.8,0.4-1.2c0.3-0.8,0.6-1.6,0.9-2.4
				c0.1-0.2,0.1-0.3,0.2-0.5c-0.2,0-0.3,0.1-0.4,0.1c-0.2,0.1-0.4,0.2-0.5,0.3c-0.2,0.1-0.4,0.2-0.5,0.3c-0.3,0.2-0.7,0.3-1.1,0.5
				c-0.7,0.3-1.4,0.6-2.2,0.8c-0.7,0.3-1.5,0.5-2.2,0.7c-0.4,0.1-0.8,0.2-1.1,0.3l-0.6,0.2c-0.2,0.1-0.4,0.1-0.6,0.2
				c-0.8,0.2-1.6,0.5-2.4,0.8c-0.4,0.1-0.8,0.3-1.2,0.4l-1.2,0.4c-0.8,0.3-1.6,0.6-2.4,0.9c-0.4,0.2-0.8,0.3-1.2,0.5l-1.2,0.5
				c-0.2,0.1-0.4,0.1-0.6,0.1c0.1-0.1,0.2-0.3,0.4-0.4c0.3-0.3,0.7-0.5,1-0.8c0.2-0.1,0.3-0.3,0.5-0.4c0.2-0.1,0.4-0.2,0.5-0.4
				c0.7-0.5,1.5-0.9,2.2-1.3c0.2-0.1,0.4-0.3,0.7-0.4c0.2-0.1,0.5-0.2,0.7-0.3c0.5-0.2,0.9-0.4,1.4-0.6c0.5-0.2,0.9-0.4,1.4-0.6
				c0.2-0.1,0.5-0.2,0.7-0.2c0.2-0.1,0.5-0.2,0.7-0.2c0.9-0.3,1.9-0.5,2.8-0.8c0.9-0.2,1.9-0.4,2.8-0.6c0.3-0.1,0.6-0.1,0.9-0.2
				c0.3-0.1,0.6-0.2,0.9-0.2c0.6-0.1,1.2-0.3,1.8-0.4c0.4-0.1,0.9-0.1,1.3-0.2c-0.6,0.4-0.7,1-0.8,1.6l-0.2,1c0,0.2-0.1,0.3-0.1,0.5
				l-0.1,0.5c-0.1,0.6-0.3,1.3-0.4,1.9c-0.1,0.3-0.1,0.6-0.2,0.9l-0.1,0.5c0,0.2,0,0.3-0.1,0.5c-0.1,0.6-0.1,1.3-0.1,1.9
				c0,0.5,0,0.9,0,1.4l0,0.3c0,0.1,0,0.2,0,0.4l0,0.7l0.1,2.8l0,0.5l0,0.5l0,1c0,0.6,0.1,1.3,0.1,1.9c0,0.2,0,0.4,0,0.6
				c0,0.2,0,0.4,0,0.6c0,0.4-0.1,0.8-0.1,1.2c-0.1,0.8-0.3,1.5-0.4,2.3c0,0.3-0.1,0.5-0.2,0.7C50,53.4,50,53.4,49.9,53.4z"/>
			<path class="st0" d="M60.8,44.1c-0.1-0.3-0.2-0.5-0.2-0.7c-0.1-0.6-0.2-1.1-0.3-1.7l-0.1-0.4l-0.1-0.4L60,40
				c-0.2-1.1-0.3-2.3-0.4-3.4c0-0.3-0.1-0.5-0.1-0.8c0-0.3-0.1-0.5-0.1-0.8c-0.1-0.5-0.1-1-0.2-1.5c-0.1-0.8-0.3-1.6-0.3-2.4
				c0-0.2,0-0.4-0.1-0.6c0-0.2,0-0.4,0-0.6c0-0.4,0-0.8,0-1.2c0-1.6,0.1-3.3,0.4-4.9c0.1-0.5,0.1-0.9,0.5-1.4
				c0.3,0.4,0.3,0.9,0.4,1.4c0.3,1.3,0.6,2.5,0.8,3.8c0.1,0.6,0.2,1.2,0.2,1.8c0,0.9,0,1.8,0.1,2.7c0,0.4,0.1,0.9,0.1,1.3
				c0.1,0.4,0.1,0.9,0.2,1.3c0,0.2,0.1,0.5,0.1,0.7c0,0.7,0,1.4,0,2.1c0,0.3,0,0.7,0,1c0,0.3,0,0.7,0,1c0,0.7-0.1,1.3-0.2,2
				c0,0.2,0,0.3-0.1,0.5l0,0.2l0,0.2c-0.1,0.3-0.1,0.7-0.2,1C61,43.7,60.9,43.8,60.8,44.1z"/>
			<path class="st0" d="M56.1,25.7c0.1,0.2,0.2,0.4,0.2,0.5c0.1,0.6,0.1,1.3,0.2,1.9c0.1,0.6,0.2,1.3,0.3,1.9
				c0.2,1.3,0.5,2.6,0.8,3.8c0,0.2,0.1,0.3,0.1,0.5c0,0.2,0.1,0.3,0.1,0.5c0.1,0.3,0.1,0.6,0.2,1c0.1,0.6,0.2,1.3,0.3,1.9
				c0.1,0.6,0.1,1.3,0.2,1.9c0,0.6,0.1,1.3,0.1,1.9c0,0.4,0,0.8,0,1.3l0,0.6c0,0.2,0,0.4,0,0.6c0,0.8,0.1,1.7,0.1,2.5
				c0,0.3,0,0.5,0,0.8c0,0.1,0,0.3-0.1,0.4c0,0.1-0.1,0.3-0.1,0.4c-0.3-0.3-0.4-0.6-0.5-0.9c-0.4-1.5-0.7-2.9-1-4.5
				c-0.1-0.3-0.1-0.6-0.2-1c-0.1-0.3-0.1-0.6-0.2-1c-0.1-0.6-0.3-1.3-0.4-2c-0.1-0.6-0.3-1.2-0.4-1.7c-0.1-0.6-0.2-1.2-0.2-1.8
				c0-0.6-0.1-1.3-0.1-1.9c0-0.3,0-0.6,0-1c0-0.2,0-0.3,0-0.5l0-0.5c0-1.3,0-2.6,0-3.9c0-0.2,0-0.5,0-0.7c0-0.2,0.1-0.4,0.1-0.7
				c0-0.2,0.1-0.3,0.2-0.5L56.1,25.7z"/>
			<path class="st0" d="M54,27.5c0.2,0.2,0.2,0.4,0.2,0.7c0,0.5,0,1,0,1.5c0,0.3,0,0.5,0,0.8l0,0.8c0,1,0.1,2,0.2,3
				c0,0.4,0.1,0.7,0.1,1.1c0,0.4,0.1,0.7,0.1,1.1c0.1,0.7,0.1,1.4,0.1,2.1c0,0.4,0,0.7,0,1c0,0.3,0,0.7,0,1c0,0.7,0,1.4-0.1,2.1
				c0,0.4,0,0.7,0,1.1c0,0.2,0,0.4,0,0.6l0,0.6c0,0.7,0,1.5,0,2.2c0,0.2,0,0.5,0,0.7c0,0.2,0,0.5,0,0.7c0,0.5,0,0.9,0,1.4
				c0,0.2-0.1,0.4-0.2,0.5c-0.1-0.1-0.1-0.2-0.2-0.4c-0.1-0.6-0.2-1.2-0.4-1.8l-0.2-0.9L53.5,47l-0.1-0.4c-0.2-1.2-0.4-2.4-0.5-3.6
				l0-0.4l0-0.4l-0.1-0.7c0-0.5-0.1-1-0.1-1.5c-0.1-1-0.1-2-0.1-3c0-0.6,0-1.3,0.1-1.9c0-0.3,0-0.7,0.1-1c0-0.2,0-0.3,0-0.5l0.1-0.5
				c0.1-0.7,0.2-1.3,0.3-2c0.1-0.3,0.1-0.7,0.2-1c0.1-0.3,0.1-0.7,0.2-1C53.5,28.5,53.5,27.9,54,27.5L54,27.5z"/>
			<path class="st0" d="M61.8,20.5c0.2,0.2,0.3,0.2,0.4,0.3c1.1,1.3,1.8,2.8,2,4.6c0.1,0.8,0.3,1.6,0.6,2.4c0.4,0.7,0.6,1.4,0.8,2.1
				c0.2,0.7,0.3,1.5,0.3,2.2c0,0.9,0.1,1.8,0.1,2.6c0,0.9,0,1.8-0.1,2.6c0,0.2-0.1,0.4-0.1,0.7c-0.2-0.3-0.3-0.4-0.3-0.5
				c-0.4-1-0.8-2-1.1-3C64.1,34,64,33.6,64,33.2c-0.2-1.4-0.5-2.7-1.1-4c-0.7-1.4-1-2.9-1-4.5c0-0.9-0.1-1.8-0.2-2.7
				C61.7,21.5,61.7,21.1,61.8,20.5z"/>
			<path class="st0" d="M38.3,19.7c0.2,0,0.4-0.1,0.6-0.1c0.2,0,0.4-0.1,0.6-0.1c0.4-0.1,0.8-0.1,1.1-0.2c0.8-0.1,1.5-0.2,2.2-0.3
				c0.2,0,0.4,0,0.5,0c0.2,0,0.4,0,0.5,0c0.4,0,0.7,0,1.1,0c0.7,0,1.4,0,2.1,0.1c0.7,0.1,1.4,0.1,2.1,0.2c0.7,0.1,1.4,0.2,2,0.4
				c1.3,0.3,2.6,0.7,3.9,1.2c1.2,0.5,2.4,0.9,3.6,1.4c0.2,0.1,0.5,0.2,0.7,0.3c-0.2,0.4-0.5,0.2-0.7,0.2c-0.5,0-0.9,0-1.4-0.1
				c-0.5,0-0.9-0.1-1.3-0.1c-0.9-0.1-1.8-0.3-2.6-0.5c-0.6-0.1-1.2-0.3-1.9-0.4l-0.5-0.1c-0.2,0-0.3-0.1-0.5-0.1
				c-0.3-0.1-0.6-0.1-0.9-0.2c-0.9-0.1-1.8-0.2-2.7-0.3c-1.4,0-2.7-0.1-4.1-0.3c-0.7-0.1-1.3-0.2-2-0.3c-0.3-0.1-0.7-0.1-1-0.2
				c-0.3-0.1-0.7-0.2-1-0.2c-0.2-0.1-0.4-0.1-0.6-0.2C38.4,19.8,38.4,19.8,38.3,19.7z"/>
			<path class="st0" d="M54,27.5c-1,0.2-2,0.5-3,0.7c-0.9,0.1-1.9,0.3-2.8,0.4c-0.5,0-0.9,0.1-1.4,0.1c-0.5,0-0.9,0.1-1.4,0.1
				c-0.7,0-1.5,0.1-2.2,0.3c-0.8,0.2-1.7,0.4-2.5,0.6c-0.6,0.2-1.2,0.3-1.8,0.4c-0.6,0.1-1.1,0.2-1.7,0.3c-1.1,0.1-2.2,0.1-3.6,0.1
				c0.2-0.1,0.3-0.3,0.5-0.3c0.8-0.4,1.6-0.8,2.5-1.2c0.2-0.1,0.4-0.2,0.6-0.3c0.2-0.1,0.4-0.2,0.6-0.2c0.4-0.2,0.8-0.3,1.3-0.4
				c0.4-0.1,0.8-0.3,1.3-0.4c0.2-0.1,0.4-0.1,0.6-0.2c0.2-0.1,0.4-0.1,0.6-0.1c0.8-0.2,1.7-0.3,2.5-0.3l1.1-0.1l0.6,0l0.3,0l0.3,0
				c0.8,0,1.5,0,2.3-0.1c0.8,0,1.5,0,2.3,0c0.8,0,1.5,0,2.3,0c0.6,0,1.3,0,2,0C54.8,27.3,54.4,27.3,54,27.5C54,27.5,54,27.5,54,27.5
				z"/>
			<path class="st0" d="M56.9,25.1c-0.4,0.1-0.9,0.2-1.3,0.2l-0.8,0c-0.3,0-0.5,0-0.8,0c-0.5,0-1.1,0-1.6,0c-0.5,0-1.1,0-1.6,0
				c-0.3,0-0.5,0-0.8,0c-0.3,0-0.5,0-0.8,0c-0.4,0-0.7-0.1-1.1-0.1c-1-0.2-2-0.3-3-0.3c-0.3,0-0.5,0-0.8,0l-0.4,0
				c-0.1,0-0.3,0-0.4,0c-0.5,0-1,0.1-1.5,0.1c-0.7,0.1-1.3,0.1-2,0.1c-0.3,0-0.7,0-1,0l-1,0c-1.3,0-2.6,0-4,0c0,0,0,0-0.1-0.1
				c0.3-0.1,0.6-0.3,0.9-0.4c0.9-0.4,1.8-0.6,2.6-0.8c0.9-0.2,1.8-0.3,2.6-0.4c2.2-0.5,4.3-0.5,6.4-0.4c0.3,0,0.5,0,0.8,0
				c0.3,0,0.5,0,0.8,0.1c0.5,0.1,1,0.1,1.5,0.2c1,0.1,2,0.3,3,0.5l0.6,0.1l0.6,0.1c0.4,0.1,0.7,0.2,1.1,0.3c0.7,0.2,1.5,0.4,2.2,0.6
				L56.9,25.1z"/>
			<path class="st0" d="M44.9,16.7c0.1-0.4,0.4-0.4,0.6-0.5c3-0.4,6-0.7,8.8-0.1c0.7,0.1,1.4,0.3,2.1,0.5c0.7,0.2,1.3,0.5,1.9,0.8
				c1.2,0.6,2.4,1.3,3.4,2.2c0.1,0.1,0.2,0.2,0.2,0.2c0,0.1,0.1,0.1,0.1,0.2c-0.2,0-0.3,0.1-0.5,0.1c-0.8,0.1-1.6,0-2.3-0.1
				c-0.1,0-0.2,0-0.3-0.1c-0.1,0-0.2,0-0.3-0.1c-0.2,0-0.4-0.1-0.6-0.1c-0.4-0.1-0.7-0.2-1.1-0.3c-0.7-0.2-1.4-0.5-2.1-0.7
				c-0.4-0.1-0.7-0.2-1.1-0.3c-0.4-0.1-0.7-0.2-1.1-0.3c-1.3-0.3-2.7-0.4-4-0.6c-0.3,0-0.6-0.1-0.8-0.1l-0.8-0.2
				c-0.6-0.1-1.1-0.2-1.7-0.3C45.2,16.9,45.1,16.7,44.9,16.7z"/>
			<path class="st0" d="M53.8,13.3l0.3,0l0.3,0l0.6,0.1l1.2,0.2c0.3,0,0.5,0.1,0.8,0.1c1.2,0,2.2,0.3,3.2,0.8
				c1.7,0.9,3.1,1.9,4.2,3.5c-0.2,0-0.3,0-0.5,0c-0.9-0.2-1.7-0.4-2.5-0.8c-0.8-0.3-1.5-0.7-2.3-1.2c-0.9-0.6-2-1-3-1.4
				c-0.7-0.3-1.4-0.5-2.1-0.8c-0.2-0.1-0.3-0.2-0.4-0.3L53.8,13.3z"/>
			<path class="st0" d="M66.5,29.6c-0.2-0.5-0.3-1.1-0.5-1.6c-0.3-1.2-0.6-2.3-0.9-3.5c-0.3-1.2-0.6-2.4-0.6-3.6
				c0-0.6-0.1-1.2-0.1-1.7c0-0.2,0.1-0.4,0.1-0.8c0.2,0.2,0.3,0.3,0.3,0.4c0.4,0.7,0.7,1.5,1.1,2.1c0.4,0.7,0.5,1.3,0.6,2.1
				c0,0.6,0.1,1.2,0.1,1.8c0,0.3,0.1,0.6,0.1,0.9l0.1,0.9c0.1,1-0.1,2-0.1,3L66.5,29.6z"/>
		</g>
		<g>
			<path class="st0" d="M70.9,13.7c-0.7,0.3-1.4,0.7-2.1,1c-0.2,0.1-0.3,0.2-0.5,0.3c-0.2,0.1-0.3,0.2-0.5,0.3
				c-0.3,0.2-0.7,0.4-1,0.6c-0.3,0.2-0.7,0.5-1,0.7c-0.2,0.1-0.3,0.2-0.5,0.4l-0.5,0.4c-0.7,0.5-1.3,1-1.9,1.6
				c-0.1,0.1-0.2,0.1-0.2,0.2c-0.1,0.1-0.2,0.1-0.3,0.2c-0.2,0.2-0.4,0.3-0.6,0.5c-0.4,0.3-0.8,0.7-1.2,1.1
				c-0.1,0.1-0.2,0.2-0.3,0.3c-0.1,0.1-0.2,0.2-0.3,0.3c-0.2,0.2-0.4,0.4-0.7,0.6c-0.5,0.4-0.9,0.9-1.4,1.3l-0.4,0.3
				c-0.1,0.1-0.2,0.2-0.3,0.3c-0.2,0.2-0.5,0.4-0.7,0.6c-0.5,0.4-0.9,0.8-1.3,1.2c-0.2,0.2-0.4,0.4-0.6,0.6
				c-0.2,0.2-0.4,0.4-0.6,0.6c-0.4,0.4-0.7,0.7-1,1c-4.2,4.2-8.1,8.9-10.8,12.7c-0.7,0.9-1.3,1.8-1.8,2.6c-0.3,0.4-0.5,0.8-0.7,1.1
				c-0.2,0.3-0.4,0.7-0.6,1c-0.7,1.2-1.1,1.8-1.1,1.8s0.7-0.9,1.6-2c0.1-0.1,0.2-0.3,0.3-0.4c0.1-0.1,0.2-0.3,0.3-0.4
				c0.2-0.3,0.5-0.6,0.7-0.8c0.4-0.6,0.8-1.1,1.1-1.5c0.6-0.8,1.2-1.6,1.8-2.4c0.1-0.1,0.1-0.2,0.2-0.3c0.1-0.1,0.2-0.2,0.2-0.3
				c0.2-0.2,0.3-0.4,0.5-0.6c0.3-0.4,0.6-0.8,0.9-1.1c0.1-0.2,0.3-0.4,0.4-0.6c0.1-0.2,0.3-0.4,0.5-0.5c0.3-0.4,0.6-0.7,0.9-1.1
				c0.3-0.4,0.6-0.7,0.9-1.1c0.3-0.4,0.6-0.7,1-1.1c0.3-0.4,0.6-0.7,1-1.1c0.1-0.1,0.2-0.2,0.2-0.3c0.1-0.1,0.2-0.2,0.3-0.3
				c0.2-0.2,0.3-0.4,0.5-0.5c0.3-0.4,0.7-0.7,1.1-1.1c0.2-0.2,0.4-0.4,0.5-0.6c0.2-0.2,0.4-0.4,0.6-0.6c0.4-0.4,0.8-0.8,1.2-1.1
				c0.4-0.4,0.8-0.8,1.2-1.2c0.4-0.4,0.8-0.8,1.3-1.2c0.2-0.2,0.4-0.4,0.7-0.6c0.1-0.1,0.2-0.2,0.3-0.3c0.1-0.1,0.2-0.2,0.3-0.3
				c0.4-0.3,0.7-0.7,1.2-1.1c0.2-0.2,0.4-0.4,0.6-0.6c0.1-0.1,0.1-0.1,0.2-0.2c0.1,0,0.1-0.1,0.2-0.2c0.1-0.1,0.2-0.2,0.3-0.3
				c0.5-0.4,0.9-0.8,1.4-1.3c0.2-0.2,0.5-0.4,0.7-0.7c0.3-0.2,0.5-0.4,0.8-0.6c0.5-0.4,1-0.8,1.6-1.2c0.3-0.2,0.5-0.4,0.8-0.6
				c0.3-0.2,0.5-0.4,0.8-0.5c0.3-0.2,0.5-0.3,0.8-0.5c0.3-0.2,0.5-0.3,0.7-0.4c0.1-0.1,0.2-0.1,0.4-0.2c0.1-0.1,0.2-0.1,0.4-0.2
				c0.2-0.1,0.5-0.2,0.7-0.3c0.6-0.3,1.1-0.5,1.6-0.6c0.1,0,0.2-0.1,0.3-0.1c0.1,0,0.2-0.1,0.3-0.1c0.2-0.1,0.4-0.1,0.6-0.2
				c0.4-0.1,0.7-0.2,1-0.3c0.3-0.1,0.6-0.2,0.9-0.3c0.9-0.3,0.3-0.6,0.1-0.8c-0.2-0.2-0.6-0.2-1.2,0c-0.3,0.1-0.7,0.2-1.1,0.4
				c-0.2,0.1-0.5,0.2-0.7,0.3C71.5,13.5,71.2,13.6,70.9,13.7z"/>
		</g>
	</g>
	<g>
		<g>
			<path class="st1" d="M19.1,26.9c-2.8,1.8-5.9,3.1-9,4.4c-0.1,0-0.2,0-0.4,0.1C9.9,31.2,10,31.1,10,31c0.5-0.4,1-0.8,1.4-1.2
				l0.4-0.3l0.4-0.3l0.7-0.6c2.2-1.8,4.6-3.2,7.2-4.4c0.5-0.3,1.1-0.5,1.7-0.7l0.8-0.3c0.3-0.1,0.6-0.2,0.9-0.3
				c0.3-0.1,0.5-0.2,0.8-0.3c0.1,0,0.3-0.1,0.4-0.1c0.1,0,0.3-0.1,0.4-0.1c0.5-0.2,1.1-0.4,1.7-0.5c-0.4,0.5-0.8,0.9-1.1,1.4
				c-0.3,0.3-0.5,0.7-0.8,1c-0.3,0.3-0.5,0.7-0.8,1c-0.2,0.3-0.5,0.7-0.7,1c-0.2,0.3-0.5,0.7-0.7,1c-0.5,0.7-0.9,1.4-1.3,2.1
				c-0.2,0.4-0.4,0.7-0.6,1.1c-0.2,0.4-0.4,0.7-0.6,1.1c-0.3,0.6-0.7,1.2-1,1.9c-0.2,0.3-0.3,0.6-0.5,0.9c-0.2,0.3-0.3,0.6-0.5,0.9
				c-0.8,1.3-1.6,2.5-2.3,3.8c-0.1,0.1-0.2,0.2-0.3,0.3c0-0.1,0-0.3,0-0.4c0-0.2,0.1-0.4,0.1-0.6c0.1-0.5,0.2-1.1,0.4-1.7
				c0.2-0.6,0.4-1.3,0.7-2c0.1-0.3,0.3-0.7,0.4-1c0.1-0.3,0.3-0.7,0.5-1c1.1-2.2,2.6-4.2,4.1-6.1l-0.1-0.1L21,26.8
				c-0.2,0.2-0.4,0.4-0.6,0.6c-0.6,0.6-1.2,1.2-1.8,1.8c-0.3,0.3-0.6,0.6-0.9,0.9l-0.8,1l-0.4,0.5l-0.4,0.5l-0.8,1
				c-0.3,0.3-0.5,0.7-0.8,1c-0.3,0.3-0.5,0.7-0.8,1c-0.3,0.3-0.5,0.7-0.8,1c-0.1,0.2-0.3,0.3-0.4,0.5c-0.1,0.1-0.3,0.3-0.5,0.4
				c-0.2,0.1-0.3,0.3-0.5,0.4c-0.2,0.1-0.3,0.3-0.5,0.4c-0.3,0.3-0.7,0.5-1,0.8c-0.1,0.1-0.3,0.1-0.5,0.1c0.3-0.5,0.5-0.9,0.8-1.4
				c0.2-0.3,0.4-0.7,0.6-1l0.6-1c0.4-0.6,0.9-1.3,1.3-1.9c1.7-2.5,3.8-4.8,6.3-6.5c0,0,0.6-0.4,1.4-0.9c0.4-0.2,0.7-0.5,1.1-0.8
				c0.4-0.3,0.7-0.5,1-0.7c-1.1,0.6-2.1,1.3-3.1,2C19.5,26.7,19.2,26.8,19.1,26.9z"/>
			<path class="st1" d="M34.3,17.5c-0.3,0-0.5,0.1-0.8,0.1c-0.2,0-0.5,0.1-0.7,0.1c-0.5,0.1-1,0.2-1.4,0.2c-2.2,0.4-4.4,0.7-6.6,0.7
				c-2.6,0-5.3,0.4-8,0.9c-0.5,0.1-1,0.2-1.4,0.2l0-0.1c0.2-0.1,0.4-0.2,0.6-0.3c3.1-1.4,6.3-2.2,9.4-2.6c0.2,0,0.4-0.1,0.7-0.1
				c0.2,0,0.4,0,0.7-0.1c1.6-0.2,3.1-0.2,4.6,0c0.4,0.1,0.9,0.1,1.3,0.1c0.2,0,0.4,0,0.6,0c0.2,0,0.4,0,0.6,0c0.4,0,0.9,0,1.3-0.1
				c0.2,0,0.4-0.1,0.6-0.1c0.2,0,0.4-0.1,0.6-0.1c0.1,0,0.3,0,0.5-0.1c-0.3,0.3-0.5,0.5-0.8,0.7c-0.1,0.1-0.2,0.2-0.4,0.3
				c-0.1,0.1-0.2,0.2-0.4,0.3c-0.4,0.4-0.8,0.8-1.2,1.2c-0.3,0.4-0.6,0.9-0.9,1.4c-0.1,0.2-0.2,0.4-0.3,0.5l-0.3,0.5
				c-0.2,0.4-0.4,0.7-0.7,1.1c-0.2,0.4-0.4,0.7-0.6,1.1c-0.2,0.4-0.4,0.7-0.6,1.1c-1,2-1.9,4.1-2.8,6.1c-0.2,0.4-0.3,0.8-0.5,1.2
				c-0.1,0.2-0.2,0.4-0.3,0.6l-0.1,0.3l-0.1,0.3c-0.4,0.8-0.8,1.5-1.2,2.3c-0.1,0.3-0.3,0.5-0.5,0.8c-0.1-0.2-0.2-0.3-0.1-0.4
				c0-0.2,0.1-0.3,0.1-0.5c0.8-3.1,1.9-6.2,3.2-9.3c0.1-0.3,0.2-0.5,0.4-0.8c0.1-0.3,0.3-0.5,0.4-0.8c0.1-0.3,0.3-0.5,0.4-0.8
				l0.2-0.4c0.1-0.1,0.1-0.3,0.2-0.4c0.3-0.5,0.6-1,1-1.5c0.4-0.5,0.7-1,1.1-1.4c0.3-0.3,0.6-0.6,0.9-1c0.3-0.3,0.6-0.6,1-0.9
				C34,17.8,34.1,17.7,34.3,17.5z"/>
			<path class="st1" d="M21.1,37.5c0-0.3,0.1-0.5,0.1-0.8c0-0.2,0.1-0.5,0.1-0.7c0.8-3.3,1.8-6.7,3.4-9.9c0.2-0.5,0.5-0.9,0.8-1.3
				c0.1-0.2,0.3-0.4,0.4-0.7c0.1-0.2,0.3-0.4,0.5-0.6c0.2-0.2,0.3-0.4,0.5-0.6c0.2-0.2,0.3-0.4,0.5-0.6c0.3-0.4,0.7-0.8,1.1-1.2
				c0.2-0.2,0.4-0.4,0.6-0.7c-0.1,0-0.3,0.1-0.4,0.1c-3.8,1.4-7.7,2.4-11.8,2.9c-0.4,0.1-0.9,0.1-1.3,0.2c-0.4,0.1-0.9,0.1-1.3,0.2
				c-0.4,0.1-0.8,0.1-1.2,0.1c0.5-0.4,1-0.7,1.5-0.8c0.5-0.1,1-0.3,1.5-0.4c0.3-0.1,0.5-0.2,0.8-0.2c0.3-0.1,0.5-0.1,0.8-0.2
				c0.5-0.1,1-0.3,1.5-0.4c0.5-0.1,1-0.3,1.5-0.4l0.7-0.2l0.8-0.2c0.5-0.1,1-0.3,1.5-0.4c1-0.3,2-0.5,3-0.8c0.4-0.1,0.8-0.2,1.2-0.3
				c0.4-0.1,0.8-0.1,1.2-0.2c0.2,0,0.5-0.1,0.7-0.1c0.2,0,0.5-0.1,0.7-0.1c0.5-0.1,1-0.2,1.5-0.3c-0.4,0.5-0.7,0.9-1,1.3
				c-0.3,0.4-0.6,0.7-0.8,1.1c-0.3,0.4-0.5,0.7-0.8,1.1c-0.3,0.4-0.5,0.8-0.8,1.2L28,24l-0.4,0.6c-0.2,0.4-0.5,0.8-0.7,1.2
				c-0.2,0.4-0.4,0.8-0.6,1.2c-0.1,0.2-0.2,0.4-0.3,0.6L26,27.9l-0.1,0.3c-0.2,0.4-0.4,0.8-0.5,1.2C24.2,32,23,34.5,21.6,37
				C21.5,37.2,21.4,37.4,21.1,37.5z"/>
			<path class="st1" d="M29.4,34.4c0-0.2,0-0.4,0.1-0.7c0.4-3,1.2-6.1,2.4-9.1c0.1-0.2,0.2-0.5,0.3-0.7c0.1-0.1,0.1-0.2,0.2-0.3
				c0.1-0.1,0.1-0.2,0.2-0.3c0.2-0.5,0.5-0.9,0.7-1.3c0.1-0.1,0.1-0.2,0.2-0.3l0.2-0.3c0.1-0.2,0.3-0.4,0.4-0.6
				c0.3-0.4,0.6-0.9,0.9-1.3c0.2-0.3,0.5-0.6,0.7-0.9c0.1-0.1,0.2-0.3,0.4-0.4l0.4-0.4c0.5-0.6,1-1.1,1.6-1.7
				c0.1-0.1,0.2-0.2,0.4-0.4c-0.1,0-0.3,0-0.4,0c-0.4,0-0.7,0.1-1.1,0.1c-0.4,0-0.7,0.1-1.1,0.1c-0.4,0-0.7,0-1.1,0
				c-0.4,0-0.7,0-1.1,0c-0.4,0-0.7,0-1.1-0.1c-0.4,0-0.7,0-1.1-0.1c-0.7-0.1-1.4-0.1-2.1-0.2c-3-0.2-6.1-0.3-9.3-0.1
				c-0.2,0-0.4,0-0.6-0.1c0.1-0.1,0.3-0.2,0.4-0.2c0.8-0.2,1.5-0.5,2.3-0.6c0.8-0.2,1.5-0.3,2.3-0.4c3.7-0.6,7.3-0.2,10.7,0.5
				c0.5,0.1,1.1,0.2,1.7,0.3c0.6,0.1,1.1,0.2,1.7,0.2c0.4,0.1,0.8,0.2,1.2,0.3c-0.7,0.1-0.9,0.6-1.3,1.1c-0.7,0.9-1.4,1.9-2.1,2.9
				c-0.6,1-1.2,2-1.7,3c-0.2,0.4-0.3,0.8-0.5,1.2c-0.2,0.4-0.3,0.8-0.4,1.2c-0.1,0.4-0.3,0.8-0.4,1.2c-0.1,0.4-0.3,0.8-0.4,1.2
				c-0.1,0.3-0.2,0.5-0.3,0.8L32.6,28l-0.1,0.4c-0.2,0.5-0.4,1.1-0.6,1.6c-0.2,0.7-0.6,1.4-0.9,2c-0.2,0.3-0.4,0.6-0.5,0.9
				c-0.2,0.3-0.4,0.6-0.6,0.9c-0.1,0.2-0.3,0.4-0.4,0.6C29.5,34.4,29.5,34.4,29.4,34.4z"/>
			<path class="st1" d="M41.5,30.1c0-0.3,0-0.5,0.1-0.7c0.1-0.5,0.2-1,0.3-1.5l0.1-0.4l0.1-0.4l0.2-0.7c0.1-0.5,0.2-1,0.4-1.5
				c0.1-0.5,0.3-1,0.4-1.5c0.3-0.9,0.5-1.7,0.7-2.6c0.2-0.7,0.3-1.4,0.6-2.1c0.2-0.7,0.5-1.3,0.7-2c0.1-0.3,0.3-0.7,0.5-1
				c0.2-0.3,0.3-0.6,0.5-1c0.2-0.3,0.4-0.6,0.6-0.9c0.1-0.2,0.2-0.3,0.3-0.5c0.1-0.2,0.2-0.3,0.3-0.5c0.2-0.3,0.5-0.7,1-0.9
				c0,0.5-0.1,0.9-0.2,1.3c-0.1,0.6-0.3,1.1-0.4,1.7c-0.1,0.6-0.2,1.1-0.4,1.7c-0.1,0.5-0.3,1.1-0.5,1.6c-0.2,0.4-0.3,0.7-0.5,1.1
				c-0.1,0.4-0.3,0.7-0.4,1.1c-0.3,0.7-0.5,1.5-0.6,2.3c0,0.2-0.1,0.4-0.2,0.6c-1,2.3-1.9,4.5-3.2,6.4C41.8,29.9,41.7,30,41.5,30.1z
				"/>
			<path class="st1" d="M44.1,13.5c0,0.2,0,0.3-0.1,0.5c-0.2,0.5-0.3,1.1-0.5,1.6c-0.2,0.5-0.3,1.1-0.5,1.6
				c-0.1,0.6-0.3,1.1-0.4,1.7c-0.1,0.3-0.1,0.6-0.2,0.9c-0.1,0.3-0.1,0.6-0.1,0.9c-0.2,1.2-0.4,2.2-0.7,3.3
				c-0.2,0.5-0.3,1.1-0.5,1.6c-0.2,0.5-0.4,1.1-0.6,1.6c-0.3,0.7-0.5,1.4-0.8,2.1l-0.2,0.5l-0.1,0.3l-0.1,0.3l-0.3,1.1
				c-0.1,0.4-0.3,0.8-0.6,1.2c-0.2-0.3-0.1-0.6-0.1-0.9c0.1-0.7,0.2-1.3,0.3-2c0.1-0.3,0.1-0.7,0.2-1c0.1-0.3,0.1-0.7,0.2-1
				c0.1-0.6,0.2-1.1,0.3-1.7c0.1-0.6,0.2-1.2,0.3-1.7c0.1-0.5,0.2-1,0.3-1.6c0.1-0.5,0.2-1,0.4-1.5c0.1-0.3,0.2-0.5,0.3-0.8
				c0.1-0.3,0.2-0.5,0.3-0.8c0.2-0.5,0.4-1.1,0.6-1.6c0.1-0.3,0.2-0.5,0.3-0.8l0.4-0.8c0.2-0.5,0.5-1,0.7-1.6
				c0.2-0.4,0.4-0.7,0.6-1.1c0.1-0.1,0.2-0.2,0.3-0.3L44.1,13.5z"/>
			<path class="st1" d="M41.6,14.3c0.1,0.2,0,0.4-0.1,0.6c-0.8,1.7-1.5,3.3-2,5c-0.1,0.3-0.2,0.6-0.3,0.9c-0.1,0.3-0.2,0.6-0.3,0.9
				c-0.2,0.6-0.4,1.2-0.6,1.8c-0.2,0.6-0.4,1.2-0.7,1.7c-0.1,0.3-0.2,0.6-0.4,0.9c-0.1,0.3-0.3,0.6-0.4,0.9
				c-0.1,0.3-0.3,0.6-0.4,0.9c-0.1,0.3-0.3,0.6-0.4,0.9c-0.1,0.3-0.2,0.6-0.4,0.9c-0.1,0.3-0.2,0.6-0.4,0.9
				c-0.2,0.4-0.3,0.8-0.5,1.1c-0.2,0.4-0.3,0.8-0.5,1.1c-0.1,0.1-0.2,0.3-0.4,0.4c0-0.1,0-0.2,0-0.4c0.1-0.5,0.2-1,0.3-1.6
				c0-0.3,0.1-0.5,0.2-0.8l0.2-0.8l0.2-0.8c0.1-0.3,0.1-0.5,0.2-0.8c0.1-0.5,0.3-1.1,0.4-1.6c0.5-1.7,1-3.4,1.7-5
				c0.2-0.5,0.5-1.1,0.7-1.6c0.1-0.3,0.3-0.5,0.4-0.8l0.2-0.4l0.2-0.4c0.3-0.5,0.6-1,0.9-1.6c0.3-0.5,0.7-1,1-1.5
				c0.1-0.2,0.3-0.4,0.4-0.6C41.2,14.5,41.4,14.3,41.6,14.3L41.6,14.3z"/>
			<path class="st1" d="M50.8,11.3c0.1,0.2,0.2,0.3,0.2,0.4c0.2,0.7,0.3,1.5,0.2,2.2c0,0.4,0,0.7-0.1,1.1c-0.1,0.4-0.2,0.7-0.3,1.1
				c-0.3,0.7-0.4,1.4-0.4,2.1c0,0.7,0,1.3-0.2,2c-0.1,0.6-0.3,1.3-0.6,1.9c-0.1,0.4-0.3,0.7-0.4,1.1c-0.1,0.4-0.3,0.7-0.4,1.1
				c-0.3,0.7-0.6,1.4-1,2.1c-0.1,0.1-0.2,0.3-0.3,0.5c0-0.3-0.1-0.4-0.1-0.5c0-0.9,0.1-1.9,0.1-2.8c0-0.4,0.1-0.8,0.2-1.1
				c0.4-1.2,0.5-2.4,0.5-3.6c0-1.4,0.3-2.7,0.9-4c0.3-0.7,0.6-1.5,0.9-2.2c0.1-0.2,0.2-0.4,0.3-0.6C50.5,11.8,50.6,11.6,50.8,11.3z"
				/>
			<path class="st1" d="M31.3,2.6l0.5,0.1l0.5,0.1c0.4,0.1,0.7,0.1,1,0.2c0.7,0.2,1.3,0.3,2,0.5c0.7,0.2,1.3,0.4,1.9,0.7
				c0.6,0.2,1.2,0.5,1.8,0.8c0.3,0.1,0.6,0.3,0.9,0.4c0.1,0.1,0.3,0.2,0.4,0.2c0.1,0.1,0.3,0.2,0.4,0.2c0.5,0.3,1.1,0.7,1.6,1
				c1,0.7,2,1.5,2.8,2.4c0.2,0.2,0.4,0.4,0.6,0.6c0.2,0.2,0.4,0.4,0.6,0.6c0.4,0.4,0.8,0.8,1.2,1.2c0.2,0.2,0.3,0.3,0.4,0.5
				c-0.3,0.2-0.5,0-0.7-0.1c-0.4-0.2-0.8-0.4-1.1-0.5c-0.4-0.2-0.7-0.4-1.1-0.6c-0.3-0.2-0.7-0.4-1-0.7c-0.2-0.1-0.3-0.2-0.5-0.3
				c-0.2-0.1-0.3-0.2-0.5-0.3c-0.5-0.3-0.9-0.7-1.4-1c-0.2-0.2-0.5-0.3-0.7-0.5c-0.2-0.2-0.5-0.3-0.7-0.5C39.7,7.3,39,7,38.2,6.6
				c-0.6-0.2-1.2-0.5-1.7-0.8c-0.6-0.3-1.1-0.6-1.6-0.8c-0.5-0.3-1.1-0.6-1.6-0.9c-0.3-0.2-0.5-0.3-0.8-0.5
				c-0.1-0.1-0.2-0.2-0.4-0.3c-0.1-0.1-0.2-0.2-0.4-0.3c-0.2-0.1-0.3-0.2-0.4-0.4C31.3,2.7,31.3,2.7,31.3,2.6z"/>
			<path class="st1" d="M41.7,14.3c-0.2,0-0.5-0.1-0.7-0.1c-0.2,0-0.5-0.1-0.7-0.1c-0.5-0.1-0.9-0.1-1.4-0.3l-0.3-0.1l-0.3-0.1
				c-0.2-0.1-0.4-0.1-0.6-0.2c-0.4-0.1-0.8-0.2-1.2-0.3c-0.4-0.1-0.8-0.2-1.2-0.4c-0.4-0.1-0.8-0.3-1.2-0.4c-0.6-0.2-1.3-0.4-2-0.5
				c-0.4-0.1-0.8-0.1-1.2-0.2c-0.4,0-0.8-0.1-1.2-0.1c-0.6-0.1-1.1-0.1-1.6-0.2c-0.5-0.1-1-0.2-1.5-0.3c-0.5-0.1-1-0.3-1.5-0.4
				c-0.5-0.2-1-0.4-1.6-0.6c0.2-0.1,0.4-0.1,0.5-0.1c3.3-0.4,6.6-0.3,9.5,0.6c2.7,0.8,5.3,1.8,7.7,2.9c0.5,0.2,1.1,0.5,1.7,0.7
				C42.5,14.3,42,14.2,41.7,14.3C41.6,14.3,41.7,14.3,41.7,14.3z"/>
			<path class="st1" d="M45,13.3c-0.4-0.1-0.8-0.2-1.2-0.3c-0.4-0.2-0.9-0.4-1.3-0.6c-0.5-0.2-0.9-0.4-1.4-0.5
				c-0.5-0.2-0.9-0.4-1.4-0.6c-0.4-0.2-0.9-0.4-1.3-0.6c-0.3-0.1-0.6-0.3-0.9-0.5c-0.4-0.2-0.8-0.5-1.2-0.7
				c-0.4-0.2-0.8-0.4-1.2-0.6c-0.8-0.4-1.7-0.7-2.6-0.9c-2.4-0.7-4.6-1.5-6.8-2.4c0,0,0,0-0.1-0.1c0.3,0,0.6,0,0.9,0
				c0.4,0,0.9,0,1.3,0c0.4,0,0.8,0.1,1.2,0.2c0.8,0.1,1.6,0.3,2.4,0.5c1,0.2,2,0.4,2.9,0.7c0.5,0.1,0.9,0.3,1.4,0.5
				c0.2,0.1,0.4,0.2,0.7,0.3c0.2,0.1,0.4,0.2,0.7,0.3c0.4,0.2,0.8,0.4,1.3,0.6c0.4,0.2,0.8,0.4,1.2,0.7c0.8,0.5,1.6,1,2.3,1.5
				c0.6,0.4,1.1,0.8,1.6,1.2c0.3,0.2,0.5,0.4,0.8,0.6c0.3,0.2,0.5,0.4,0.8,0.6L45,13.3z"/>
			<path class="st1" d="M38.1,2.2C38.3,1.9,38.5,2,38.8,2l0.5,0.1c0.2,0,0.3,0.1,0.5,0.1c0.3,0.1,0.7,0.2,1,0.3
				c0.7,0.2,1.3,0.4,2,0.6C43.4,3.5,44,3.7,44.6,4c0.6,0.3,1.2,0.6,1.7,1c1.1,0.7,2.1,1.6,2.9,2.5c0.4,0.5,0.8,1,1.1,1.5
				c0.3,0.5,0.6,1.1,0.8,1.6c0,0.1,0.1,0.2,0.1,0.3c0,0.1,0,0.1,0,0.2c-0.2,0-0.3-0.1-0.4-0.1c-0.1,0-0.2-0.1-0.3-0.1
				c-0.1,0-0.2-0.1-0.2-0.1c-0.2-0.1-0.3-0.1-0.5-0.2c-0.3-0.2-0.6-0.3-0.9-0.5c-0.3-0.2-0.6-0.4-0.8-0.6c-0.3-0.2-0.5-0.4-0.8-0.7
				c-0.5-0.5-1-0.9-1.5-1.3c-0.1-0.1-0.3-0.2-0.4-0.3C45.3,7,45.2,6.9,45,6.8c-0.3-0.2-0.5-0.4-0.8-0.6c-0.5-0.4-1-0.7-1.6-1
				c-0.5-0.3-1.1-0.6-1.6-0.9c-0.4-0.3-0.9-0.5-1.3-0.8c-0.4-0.3-0.9-0.5-1.3-0.8C38.3,2.5,38.2,2.3,38.1,2.2z"/>
			<path class="st1" d="M47,2.6c0.7,0.4,1.3,0.8,2,1.1c0.2,0.1,0.4,0.3,0.7,0.4c1,0.4,1.7,1.1,2.3,1.9c1,1.4,1.8,2.8,2.1,4.4
				c-0.1-0.1-0.3-0.1-0.4-0.2c-1.3-1-2.3-2.1-3.2-3.4c-0.3-0.4-0.6-0.8-0.9-1.2c-0.3-0.4-0.7-0.7-1-1.1c-0.5-0.5-1-0.9-1.4-1.4
				C47,3,46.9,2.9,46.8,2.7L47,2.6z"/>
			<path class="st1" d="M51.1,20.5c0.1-0.5,0.2-1,0.2-1.5c0.1-0.5,0.2-1.1,0.3-1.6c0.1-0.5,0.2-1,0.3-1.6c0.2-1,0.5-2.1,0.9-3.1
				c0.2-0.5,0.4-0.9,0.6-1.4c0.1-0.2,0.2-0.3,0.5-0.6C54,11,54,11.1,54,11.2c0,0.7,0,1.4,0,2.1c0,0.7-0.1,1.3-0.4,1.9
				c-0.4,1-0.8,2-1.2,3c-0.2,0.4-0.4,0.8-0.6,1.2c-0.2,0.4-0.5,0.8-0.7,1.2L51.1,20.5z"/>
		</g>
		<g>
			<path class="st1" d="M61.1,9.7c-0.2,0-0.4,0-0.5-0.1c-0.2,0-0.4,0-0.5,0c-0.4,0-0.7,0-1.1,0c-0.4,0-0.7,0-1.1,0
				c-0.4,0-0.7,0.1-1.1,0.1c-0.1,0-0.2,0-0.3,0l-0.3,0l-0.6,0.1c-0.4,0.1-0.8,0.1-1.1,0.2c-0.4,0.1-0.7,0.2-1.1,0.2l-0.6,0.1
				c-0.2,0-0.4,0.1-0.6,0.1c-1.5,0.4-3.7,1-5.9,1.8c-2.2,0.7-4.4,1.5-5.8,2.1c-2.5,1-5,2.2-7.3,3.4c-0.6,0.3-1.1,0.6-1.7,0.9
				c-0.5,0.3-1.1,0.6-1.6,0.9c-0.5,0.3-1,0.6-1.5,0.9c-0.2,0.1-0.5,0.3-0.7,0.4c-0.2,0.1-0.5,0.3-0.7,0.4c-0.2,0.1-0.4,0.3-0.6,0.4
				c-0.2,0.1-0.4,0.3-0.6,0.4c-0.4,0.3-0.8,0.5-1.1,0.8c-0.3,0.2-0.7,0.5-1,0.7c-0.3,0.2-0.6,0.4-0.8,0.6c-0.5,0.4-0.9,0.7-1.1,0.9
				c-0.1,0.1-0.2,0.2-0.3,0.2c-0.1,0.1-0.1,0.1-0.1,0.1s0.2-0.1,0.6-0.3c0.4-0.2,0.9-0.5,1.4-0.8c0.6-0.3,1.2-0.7,1.7-1
				c0.6-0.3,1.1-0.6,1.5-0.9c1.6-1,3.1-2,4.6-2.8c0.2-0.1,0.4-0.2,0.6-0.3l0.3-0.2l0.3-0.2c0.4-0.2,0.8-0.4,1.1-0.6l0.3-0.2
				c0.1,0,0.2-0.1,0.3-0.1c0.2-0.1,0.4-0.2,0.6-0.3c0.2-0.1,0.4-0.2,0.6-0.3c0.2-0.1,0.4-0.2,0.6-0.3c0.8-0.4,1.6-0.8,2.4-1.1
				c0.2-0.1,0.4-0.2,0.6-0.3c0.2-0.1,0.4-0.2,0.6-0.3c0.4-0.2,0.9-0.4,1.3-0.5c1.8-0.7,3.7-1.4,5.9-2.1c0.4-0.1,0.9-0.3,1.4-0.4
				c0.1,0,0.2-0.1,0.4-0.1c0.1,0,0.3-0.1,0.4-0.1c0.3-0.1,0.5-0.2,0.8-0.2c0.3-0.1,0.5-0.2,0.8-0.3c0.3-0.1,0.6-0.2,0.9-0.2
				c0.6-0.2,1.2-0.3,1.8-0.4c0.3-0.1,0.6-0.1,0.9-0.2c0.1,0,0.3-0.1,0.4-0.1c0.1,0,0.3,0,0.4-0.1c0.6-0.1,1.2-0.2,1.7-0.2
				c0.3,0,0.6,0,0.8-0.1c0.3,0,0.5,0,0.8,0c0.1,0,0.3,0,0.4,0c0.1,0,0.2,0,0.4,0c0.2,0,0.5,0,0.7,0c0.3,0,0.6,0.1,0.8,0.1
				c0.3,0,0.5,0.1,0.7,0.1c0.4,0.1,0.8,0.2,1.2,0.2c0.1,0,0.2,0,0.2,0.1c0.1,0,0.2,0,0.2,0.1c0.2,0,0.3,0.1,0.4,0.1
				c0.3,0.1,0.5,0.1,0.8,0.2c0.8,0.2,0.5-0.4,0.5-0.5c-0.1-0.2-0.4-0.4-0.9-0.6c-0.3-0.1-0.7-0.2-1.1-0.2c-0.2,0-0.4-0.1-0.7-0.1
				C61.7,9.8,61.4,9.7,61.1,9.7z"/>
		</g>
	</g>
	<g>
		<g>
			<path class="st2" d="M51.7,74.7c-1,2.5-2.1,4.8-3.3,7c-0.6,1.1-1.2,2.3-1.8,3.4L46.1,86l-0.2,0.4l-0.2,0.4l-0.4,0.9l-0.4,0.9
				c-0.1,0.1-0.1,0.2-0.3,0.4c0.1-0.4,0.1-0.5,0.1-0.7c0.5-2,1-3.9,1.7-5.8c0.7-2.1,1.5-4.2,2.4-6.1c0.9-2,1.8-3.9,2.7-5.8
				c0.8-1.7,1.7-3.3,2.6-4.9c0.4-0.8,0.8-1.5,1.3-2.3c0.2-0.4,0.4-0.8,0.6-1.2c0.2-0.4,0.4-0.8,0.7-1.2c-0.1,1-0.3,1.8-0.4,2.7
				c-0.4,2.6-0.7,5.2-0.9,7.8c-0.1,1.3-0.2,2.6-0.3,3.9c-0.1,1.3-0.2,2.6-0.3,3.9c-0.2,2.2-0.3,4.4-0.5,6.5
				c-0.1,1.1-0.2,2.3-0.3,3.4c0,0.6-0.1,1.1-0.1,1.7c0,0.3,0,0.5,0,0.8c0,0.3,0,0.5,0,0.8c0,0.2-0.1,0.4-0.1,0.6
				c-0.3-0.4-0.7-1.8-0.9-3.7c-0.1-0.5-0.1-1-0.2-1.5c0-0.5-0.1-1.1-0.1-1.6c0-0.3,0-0.6,0-0.8c0-0.3,0-0.6,0-0.8c0-0.6,0-1.1,0-1.7
				c0.1-1.9,0.3-3.8,0.6-5.7c0.3-1.9,0.6-3.9,0.9-5.8l-0.1,0c-0.2,0.9-0.5,1.7-0.7,2.6c-1.3,5.3-2.6,10.5-3.2,15.7
				c0,0.2,0,0.3-0.1,0.5c0,0.2,0,0.3-0.1,0.5c0,0.3-0.1,0.6-0.1,1c0,0.3-0.1,0.6-0.1,1c0,0.2,0,0.3-0.1,0.5l-0.1,0.5L49.4,94
				l-0.1,0.5c0,0.3-0.1,0.6-0.2,0.9c0,0.3-0.1,0.6-0.1,0.9l0,0.2c0,0.1,0,0.2,0,0.2l-0.1,0.5c0,0.2-0.1,0.4-0.3,0.6l-0.2-1.2
				c0-0.1,0-0.2,0-0.3l0-0.3c0-0.2,0-0.4-0.1-0.6c0-0.3,0-0.6,0-0.9c0-0.3,0-0.6,0-0.9c0-0.6,0-1.2,0-1.8c0-1.2,0.1-2.4,0.2-3.6
				c0.2-2.3,0.6-4.7,1.2-7c0.6-2.3,1.3-4.6,2.2-6.9c0-0.1,1.6-4.3,2.2-6.2c-0.7,1.8-1.4,3.6-2.1,5.5C51.9,74.1,51.7,74.5,51.7,74.7z
				"/>
			<path class="st2" d="M61.4,48.3c-0.5,0.7-0.9,1.3-1.3,1.9c-0.4,0.6-0.8,1.2-1.2,1.9c-1.9,2.9-3.8,5.6-5.9,7.8
				c-2.5,2.7-4.7,5.9-7,8.9c-0.4,0.5-0.8,1.1-1.2,1.5l-0.1-0.1c0.1-0.3,0.2-0.6,0.4-0.9c1.1-2.1,2.3-4.2,3.5-6.2
				c0.3-0.5,0.6-1,0.9-1.5c0.3-0.5,0.6-1,1-1.5c0.7-1,1.3-1.9,2-2.8c0.4-0.5,0.8-1,1.2-1.5c0.7-0.9,1.4-1.8,2.1-2.6
				c0.4-0.4,0.7-0.8,1.1-1.2c0.4-0.4,0.7-0.8,1.1-1.1c0.8-0.8,1.7-1.8,2.5-2.8c0.8-1,1.6-2.1,2.3-3.2c0.1-0.2,0.2-0.3,0.5-0.7
				c-0.2,1.1-0.4,2.1-0.6,3c-0.2,0.9-0.4,1.7-0.4,2.5c-0.1,0.8-0.1,1.6-0.1,2.4c0,1.2-0.1,2.5-0.1,3.7c0,0.6,0,1.2,0,1.9
				c0,0.6,0,1.2,0,1.9c0,3.4,0.2,6.7,0.3,10.1c0.1,2.7,0,5.4-0.3,8.3c-0.1,0.5-0.1,1-0.2,1.7c-0.1-0.1-0.3-0.2-0.3-0.3
				c-0.1-0.2-0.1-0.5-0.1-0.7c-0.4-5-0.8-9.9-1-14.9c-0.2-3.4-0.1-6.9,0.4-10.6c0.1-0.7,0.2-1.3,0.3-2c0.1-0.7,0.3-1.3,0.4-2
				C61.3,48.9,61.3,48.6,61.4,48.3z"/>
			<path class="st2" d="M57.9,85.8c-0.1-0.4-0.1-0.7-0.2-1c-0.1-0.3-0.1-0.6-0.2-1c-0.1-0.6-0.1-1.2-0.2-1.9L57.2,81l-0.1-1
				c-0.1-1.3-0.2-2.6-0.2-3.9c-0.1-2.6-0.2-5.3-0.2-8c0.1-3.1,0.4-6.3,1-9.5c0.1-0.4,0.2-0.9,0.2-1.4c-0.1,0.2-0.2,0.3-0.3,0.5
				c-1.5,2.8-3,5.5-4.6,8.1c-1.6,2.5-3.3,4.9-5.2,7.1c-0.8,0.9-1.5,1.9-2.3,2.8c-0.4,0.4-0.7,0.8-1.2,1.2c0.2-0.4,0.3-0.8,0.5-1.2
				c0.2-0.4,0.4-0.8,0.6-1.1c3.3-5,6.6-10.2,9.7-15.5c0.6-1.1,1.3-2.1,2-3.1c0.2-0.3,0.4-0.6,0.6-0.9c0.2-0.3,0.4-0.6,0.6-0.9
				c0.4-0.6,0.8-1.3,1.3-1.9c-0.1,0.9-0.1,1.7-0.2,2.5c-0.3,2.8-0.5,5.6-0.6,8.3c-0.1,2.8-0.1,5.5,0,8.2c0.1,2.2,0,4.4-0.1,6.7
				c-0.1,2.3-0.3,4.5-0.5,6.7c0,0.2,0,0.4-0.1,0.6C58.2,85.4,58.1,85.6,57.9,85.8z"/>
			<path class="st2" d="M65.2,72.6c-0.1-0.3-0.1-0.6-0.2-0.9c-0.9-4.3-1.6-8.7-2-13.3c-0.3-2.9-0.1-6,0.2-9.1
				c0.1-0.6,0.1-1.1,0.2-1.7c0.1-0.6,0.1-1.1,0.2-1.7c0.1-0.6,0.2-1.1,0.3-1.7c0.1-0.6,0.2-1.1,0.3-1.7c0-0.2,0.1-0.5,0.1-0.8
				c-0.2,0.2-0.3,0.3-0.4,0.4c-0.3,0.5-0.7,0.9-1,1.3c-0.3,0.4-0.7,0.9-1,1.3c-0.7,0.8-1.4,1.6-2,2.4c-0.4,0.4-0.7,0.8-1,1.1
				c-0.3,0.4-0.7,0.7-1.1,1.1c-0.7,0.7-1.4,1.5-2.1,2.2c-2.9,3-5.8,6.2-8.6,9.4c-0.2,0.2-0.3,0.4-0.6,0.5c0.1-0.2,0.2-0.4,0.3-0.6
				c0.3-0.5,0.6-1,0.9-1.5c0.3-0.5,0.6-0.9,0.9-1.4c0.6-0.9,1.2-1.8,1.9-2.7c0.4-0.5,0.8-1.1,1.2-1.6c0.2-0.3,0.4-0.5,0.6-0.8
				c0.2-0.3,0.4-0.5,0.6-0.8c0.4-0.5,0.8-1,1.2-1.5c0.4-0.5,0.8-0.9,1.3-1.4c0.4-0.5,0.9-0.9,1.3-1.3c0.4-0.4,0.9-0.9,1.3-1.3
				c0.9-0.8,1.8-1.7,2.7-2.4c0.6-0.5,1.2-1.1,1.7-1.6c0.3-0.3,0.6-0.6,0.9-0.8c0.1-0.1,0.3-0.3,0.4-0.4c0.1-0.1,0.3-0.3,0.4-0.4
				c0.4-0.4,0.9-0.7,1.3-1.1c-0.3,0.4-0.4,0.9-0.5,1.3c-0.1,0.4-0.1,0.8-0.1,1.2c-0.3,3.4-0.6,6.9-0.4,10.1c0.2,2.4,0.5,4.7,0.8,7
				c0,0.4,0.1,0.8,0.1,1.2c0,0.4,0.1,0.8,0.1,1.3c0.1,0.8,0.2,1.7,0.2,2.5c0.2,2.2-0.1,4.6-0.3,7c0,0.4-0.1,0.8-0.1,1.2
				C65.3,72.5,65.3,72.6,65.2,72.6z"/>
			<path class="st2" d="M75.6,52.1c-0.1-0.4-0.2-0.6-0.3-0.8c-0.2-0.6-0.3-1.3-0.5-1.9l-0.4-1.9l-0.2-1l-0.2-1
				c-0.1-0.6-0.3-1.3-0.4-1.9c-0.1-0.6-0.2-1.1-0.4-1.7c-0.1-0.3-0.1-0.5-0.2-0.8c-0.1-0.3-0.1-0.5-0.2-0.8
				c-0.2-0.8-0.4-1.7-0.6-2.5c-0.2-0.9-0.3-1.7-0.4-2.7c-0.2-1.8-0.2-3.7,0-5.8c0-0.6,0.1-1.1,0.4-1.9c0.3,0.3,0.5,0.8,0.6,1.2
				l0.3,0.9c0.1,0.3,0.2,0.6,0.3,0.9c0.2,0.6,0.4,1.2,0.6,1.9c0.1,0.3,0.2,0.6,0.3,0.9c0.1,0.3,0.1,0.7,0.2,1c0.1,1,0.2,2,0.4,3
				c0.1,0.5,0.2,1,0.3,1.4c0.1,0.2,0.1,0.5,0.2,0.7c0.1,0.2,0.1,0.5,0.2,0.7c0.1,0.2,0.1,0.5,0.2,0.7c0,0.4,0.1,0.8,0.1,1.2
				c0,0.4,0.1,0.8,0.1,1.2c0,0.4,0.1,0.8,0.1,1.3c0,0.4,0,0.8,0.1,1.3c0,0.4,0,0.9,0,1.3c0,0.4,0,0.9,0,1.3c0,0.4,0,0.9-0.1,1.3
				c0,0.5-0.1,0.9-0.1,1.4C75.8,51.5,75.7,51.7,75.6,52.1z"/>
			<path class="st2" d="M68.8,33.3c0.1,0.2,0.2,0.3,0.3,0.5c0.2,0.7,0.3,1.3,0.5,2c0.2,0.7,0.3,1.3,0.5,2c0.1,0.3,0.2,0.7,0.3,1
				l0.2,0.5l0.2,0.5c0.2,0.7,0.4,1.3,0.7,1.9c0.1,0.3,0.2,0.6,0.3,1c0.1,0.3,0.2,0.7,0.3,1c0.2,0.7,0.4,1.4,0.5,2.1
				c0.2,0.7,0.3,1.4,0.4,2.2c0,0.4,0.1,0.8,0.1,1.1c0,0.4,0.1,0.8,0.1,1.2l0.1,0.8l0.1,0.8l0.2,1.6l0.2,1.6c0.1,0.5,0.1,1.1,0.2,1.6
				c0.1,0.7,0.1,1.3,0,2.1c-0.4-0.1-0.5-0.5-0.6-0.9c-0.3-0.8-0.5-1.7-0.8-2.5c-0.2-0.8-0.5-1.7-0.7-2.6c-0.2-0.8-0.4-1.5-0.6-2.2
				c-0.1-0.4-0.2-0.7-0.3-1.1c-0.1-0.4-0.2-0.7-0.3-1.1c-0.4-1.3-0.8-2.5-1-3.9c-0.5-2.9-0.8-5.9-1-8.9c0-0.5,0-1.1,0-1.6
				c0-0.2,0.1-0.4,0.1-0.6L68.8,33.3z"/>
			<path class="st2" d="M66.7,36.8c0.3,0.1,0.2,0.4,0.3,0.7c0.1,0.6,0.1,1.2,0.2,1.8c0.1,0.6,0.1,1.2,0.2,1.8
				c0.1,1.2,0.3,2.3,0.5,3.4c0.6,3.2,1.1,6.6,1.3,10.3c0.1,2,0.3,3.9,0.4,5.9c0,0.6,0.1,1.3,0.1,1.9c0,0.7,0,1.3,0,2
				c0,0.3-0.1,0.6-0.2,0.9c-0.1-0.1-0.1-0.3-0.2-0.4c-0.6-2.9-1.2-5.9-1.8-8.8l-0.3-1.8L67,53.5l-0.1-0.9c-0.1-0.6-0.2-1.2-0.3-1.8
				c-0.1-0.6-0.1-1.2-0.2-1.8c0-0.4-0.1-0.8-0.1-1.2c0-0.4-0.1-0.8-0.1-1.2c0-0.4,0-0.8,0-1.2c0-0.4,0-0.8,0-1.2c0-0.4,0-0.8,0-1.3
				c0-0.4,0-0.9,0-1.3c0-0.9,0.1-1.7,0.1-2.6c0-0.3,0-0.7,0.1-1C66.4,37.6,66.5,37.2,66.7,36.8L66.7,36.8z"/>
			<path class="st2" d="M74.4,23.9c0.3,0,0.4,0,0.5,0c0.6,0.4,1.2,0.9,1.6,1.5c0.2,0.3,0.4,0.7,0.6,1c0.1,0.4,0.3,0.8,0.3,1.3
				c0.1,0.9,0.4,1.6,0.9,2.2c0.2,0.3,0.4,0.5,0.6,0.9c0.2,0.3,0.3,0.6,0.4,1c0.2,0.7,0.4,1.5,0.5,2.3c0.1,1,0.3,2,0.3,2.9
				c0,0.5,0.1,1,0.1,1.5c0,0.5,0,1,0,1.6c0,0.2,0,0.5-0.1,0.9c-0.2-0.2-0.3-0.2-0.4-0.4c-0.3-0.4-0.5-0.9-0.8-1.3
				c-0.3-0.5-0.5-0.9-0.7-1.4c-0.2-0.4-0.4-0.8-0.5-1.2c-0.1-0.4-0.2-0.7-0.3-1.1c-0.1-0.3-0.2-0.7-0.3-1c-0.3-0.6-0.6-1.2-1-1.7
				c-0.4-0.6-0.8-1.2-1-2c-0.2-0.7-0.4-1.5-0.5-2.4c0-0.2-0.1-0.5-0.1-0.7c0-0.2-0.1-0.5-0.1-0.7c-0.1-0.5-0.2-0.9-0.2-1.4
				C74.4,25.1,74.4,24.6,74.4,23.9z"/>
			<path class="st2" d="M49.9,37.7c0.7-0.6,1.5-1.3,2.2-1.8c0.7-0.6,1.5-1.1,2.2-1.6c0.2-0.1,0.4-0.3,0.5-0.4
				c0.2-0.1,0.4-0.2,0.6-0.4c0.4-0.2,0.7-0.5,1.1-0.7c0.4-0.2,0.7-0.4,1.1-0.7c0.4-0.2,0.7-0.4,1.1-0.6c0.4-0.2,0.7-0.4,1.1-0.6
				c0.2-0.1,0.4-0.2,0.5-0.3c0.2-0.1,0.4-0.2,0.5-0.2c0.7-0.3,1.5-0.6,2.2-0.9c0.4-0.1,0.7-0.2,1.1-0.4c0.4-0.1,0.7-0.2,1.1-0.3
				c0.4-0.1,0.7-0.2,1.1-0.3c0.4-0.1,0.7-0.1,1.1-0.2c0.7-0.1,1.4-0.3,2-0.4c0.3-0.1,0.7-0.1,1-0.2c0.3-0.1,0.7-0.1,1-0.2
				c0.3,0,0.5,0,0.8-0.1c-0.2,0.5-0.5,0.6-0.7,0.7c-0.5,0.3-1,0.6-1.5,0.8c-0.2,0.1-0.5,0.2-0.7,0.4c-0.2,0.1-0.5,0.2-0.7,0.3
				c-1,0.4-1.9,0.8-2.9,1.1c-0.7,0.2-1.3,0.5-2,0.7c-0.3,0.1-0.7,0.2-1,0.4c-0.3,0.1-0.7,0.3-1,0.4c-0.9,0.4-1.9,0.9-2.8,1.4
				c-2.8,1.7-5.5,3-8.2,3.7c-0.2,0.1-0.4,0.1-0.6,0.1C50,37.8,50,37.7,49.9,37.7z"/>
			<path class="st2" d="M66.7,36.8c-0.1,0.1-0.3,0.2-0.4,0.3c-0.1,0.1-0.2,0.2-0.4,0.4c-0.2,0.2-0.5,0.5-0.7,0.7
				c-0.3,0.2-0.5,0.5-0.8,0.7c-0.2,0.2-0.5,0.4-0.7,0.7c-0.5,0.4-0.9,0.8-1.4,1.1c-0.5,0.4-0.9,0.7-1.4,1.1
				c-0.2,0.2-0.5,0.4-0.7,0.5c-0.2,0.2-0.5,0.3-0.7,0.5c-0.5,0.3-0.9,0.7-1.4,1c-0.4,0.2-0.7,0.5-1.1,0.8c-0.4,0.3-0.7,0.6-1.1,0.9
				c-0.4,0.4-0.8,0.7-1.2,1.1c-0.4,0.4-0.8,0.8-1.2,1.2c-1.1,1.1-2.1,2-3.2,2.8c-0.5,0.4-1,0.7-1.6,1.1c-0.6,0.3-1.1,0.7-1.8,1
				c0.2-0.3,0.3-0.5,0.4-0.6c2.8-3.7,5.8-7.1,9.1-9.4c3-2.1,6-4.2,9.1-6c0.7-0.4,1.4-0.8,2.1-1.3C67.6,35.9,67.1,36.3,66.7,36.8
				C66.7,36.8,66.7,36.8,66.7,36.8z"/>
			<path class="st2" d="M69.5,32.1c-0.2,0.2-0.5,0.4-0.7,0.5c-0.2,0.2-0.5,0.4-0.7,0.5c-0.6,0.4-1.1,0.7-1.7,1.1
				c-0.6,0.4-1.1,0.7-1.7,1.1c-0.3,0.2-0.6,0.4-0.8,0.5c-0.3,0.2-0.5,0.3-0.8,0.5c-0.5,0.3-1.1,0.7-1.7,1c-0.4,0.2-0.7,0.4-1.1,0.5
				c-0.5,0.2-1,0.4-1.5,0.7c-0.5,0.2-1,0.5-1.5,0.8c-0.5,0.3-1,0.6-1.5,0.9c-0.5,0.3-1,0.7-1.5,1.1c-0.3,0.2-0.7,0.5-1,0.7
				c-0.3,0.2-0.6,0.5-1,0.7c-0.6,0.4-1.3,0.8-1.9,1.2c-1.3,0.8-2.5,1.5-3.8,2.2c0,0,0,0-0.1-0.1c0.3-0.3,0.5-0.6,0.8-0.9
				c0.4-0.5,0.8-0.9,1.2-1.2c0.4-0.4,0.8-0.7,1.2-1.1c0.4-0.3,0.8-0.7,1.2-1c0.2-0.2,0.4-0.3,0.6-0.5c0.2-0.2,0.4-0.3,0.6-0.5
				c0.5-0.4,1-0.9,1.5-1.3c0.5-0.4,1-0.8,1.6-1.2c1-0.7,2.1-1.4,3.1-2c0.5-0.3,1-0.6,1.6-0.8c0.5-0.3,1-0.5,1.6-0.8
				c1-0.5,2.1-0.9,3.1-1.3c0.8-0.3,1.6-0.6,2.4-0.8c0.4-0.1,0.8-0.3,1.2-0.4c0.4-0.1,0.8-0.2,1.2-0.4L69.5,32.1z"/>
			<path class="st2" d="M56,30.3c0.1-0.5,0.3-0.7,0.6-0.9l0.6-0.4l0.6-0.4c0.4-0.3,0.8-0.6,1.1-0.8c0.8-0.6,1.5-1.1,2.3-1.6
				c0.4-0.2,0.8-0.5,1.2-0.7c0.4-0.2,0.8-0.4,1.2-0.6c0.4-0.2,0.8-0.4,1.2-0.6c0.2-0.1,0.4-0.2,0.6-0.3c0.2-0.1,0.4-0.2,0.6-0.2
				c0.8-0.3,1.6-0.5,2.3-0.7c0.8-0.2,1.5-0.3,2.2-0.4c0.4,0,0.7,0,1,0c0.2,0,0.3,0,0.5,0c0.2,0,0.3,0,0.5,0c0.7,0.1,1.3,0.2,1.9,0.4
				c0.1,0,0.2,0.1,0.3,0.1c0.1,0,0.1,0.1,0.2,0.2c-0.2,0.2-0.4,0.3-0.5,0.4c-0.2,0.1-0.5,0.3-0.7,0.4c-0.2,0.1-0.4,0.2-0.7,0.4
				c-0.4,0.2-0.9,0.4-1.3,0.6c-0.2,0.1-0.4,0.2-0.6,0.2c-0.2,0.1-0.4,0.1-0.6,0.2c-0.4,0.1-0.8,0.2-1.2,0.3L67.9,26
				c-0.4,0.1-0.8,0.2-1.2,0.3c-0.8,0.2-1.6,0.4-2.4,0.7c-0.7,0.2-1.4,0.6-2.1,0.9c-0.4,0.2-0.7,0.3-1.1,0.5
				c-0.4,0.2-0.7,0.3-1.1,0.5c-0.6,0.3-1.2,0.5-1.8,0.7c-0.6,0.2-1.2,0.5-1.7,0.7C56.4,30.3,56.2,30.2,56,30.3z"/>
			<path class="st2" d="M65,21c0.9-0.4,1.8-0.8,2.7-1.2c0.3-0.1,0.6-0.2,0.9-0.4c0.7-0.4,1.3-0.6,1.9-0.8c0.3-0.1,0.6-0.1,0.9-0.2
				c0.3,0,0.6-0.1,0.9-0.1c1,0,1.9,0,2.7,0.2c0.9,0.2,1.6,0.5,2.3,1c-0.2,0.1-0.4,0.2-0.6,0.3c-1,0.4-2,0.6-2.9,0.7
				c-0.5,0.1-0.9,0.1-1.3,0.1c-0.4,0-0.9,0-1.3,0c-0.5,0-1.1,0-1.7,0c-0.6,0.1-1.2,0.2-1.8,0.3c-0.8,0.1-1.6,0.3-2.4,0.4
				c-0.2,0-0.3,0-0.5,0L65,21z"/>
			<path class="st2" d="M80.4,31c-0.2-0.5-0.4-1-0.6-1.5c-0.4-1.1-0.9-2.1-1.3-3.2c-0.4-1.1-0.8-2.2-1-3.5c-0.1-0.6-0.2-1.2-0.2-1.8
				c0-0.1,0-0.3,0-0.4c0-0.2,0.1-0.3,0.1-0.6c0.2,0.1,0.3,0.1,0.4,0.2c0.4,0.6,0.9,1.2,1.3,1.7c0.2,0.2,0.4,0.5,0.5,0.8
				c0.1,0.3,0.2,0.7,0.3,1.1c0.1,0.6,0.2,1.3,0.2,1.9l0.1,0.5l0.1,0.5l0.2,0.9c0.1,0.5,0.1,1.1,0.1,1.7c0,0.6,0,1.2,0,1.8L80.4,31z"
				/>
		</g>
		<g>
			<path class="st2" d="M85,11.5c-0.4,0.3-0.9,0.7-1.3,1c-0.4,0.4-0.8,0.7-1.3,1.1l-0.6,0.6c-0.2,0.2-0.4,0.4-0.6,0.6
				c-0.4,0.4-0.8,0.8-1.2,1.2c-0.4,0.4-0.8,0.9-1.2,1.3c-0.2,0.2-0.4,0.4-0.6,0.7l-0.6,0.7l-0.6,0.7l-0.3,0.3
				c-0.1,0.1-0.2,0.2-0.3,0.4c-0.3,0.5-0.7,1-1,1.4c-0.4,0.5-0.7,1-1.1,1.6c-0.2,0.3-0.4,0.6-0.6,0.9c-0.2,0.3-0.4,0.7-0.7,1
				c-0.2,0.3-0.5,0.7-0.7,1.1c-0.2,0.4-0.5,0.7-0.7,1.1c-0.2,0.4-0.5,0.8-0.7,1.1c-0.2,0.4-0.5,0.8-0.7,1.2
				c-0.5,0.8-0.9,1.6-1.3,2.3c-0.1,0.2-0.2,0.4-0.3,0.6c-0.1,0.2-0.2,0.4-0.3,0.6c-0.2,0.4-0.4,0.8-0.6,1.1
				c-0.1,0.2-0.2,0.4-0.3,0.5c-0.1,0.2-0.2,0.4-0.3,0.5c-0.2,0.3-0.4,0.7-0.5,1c-0.2,0.3-0.3,0.6-0.5,0.9c-0.1,0.3-0.3,0.6-0.4,0.8
				c-1,1.9-1.8,3.9-2.7,5.8c-0.2,0.5-0.4,1-0.6,1.5c-0.1,0.2-0.2,0.5-0.3,0.7c-0.1,0.2-0.2,0.5-0.3,0.7c-0.2,0.5-0.4,1-0.6,1.4
				c-0.2,0.5-0.4,1-0.6,1.4c-1.5,3.8-2.8,7.4-3.9,10.5c-1.1,3.1-1.9,5.7-2.5,7.6c-0.6,1.8-0.9,2.9-0.9,2.9s0.6-1.5,1.4-3.4
				c0.4-0.9,0.8-2,1.2-2.9c0.4-1,0.7-1.8,0.9-2.5c1-2.8,1.9-5.5,2.9-8c1-2.6,2-5.1,3.1-7.6c1.1-2.5,2.3-5.1,3.6-7.8
				c1.4-2.7,2.9-5.6,4.7-8.7c0.2-0.3,0.4-0.6,0.5-0.9c0.2-0.3,0.4-0.7,0.6-1c0.2-0.3,0.4-0.7,0.6-1.1c0.2-0.4,0.5-0.7,0.7-1.1
				c0.2-0.4,0.5-0.8,0.7-1.1c0.3-0.4,0.5-0.8,0.8-1.2c0.1-0.2,0.3-0.4,0.4-0.6l0.2-0.3l0.2-0.3c0.3-0.4,0.6-0.8,0.8-1.2
				c0.1-0.2,0.3-0.4,0.4-0.6c0.1-0.2,0.3-0.4,0.4-0.6c0.3-0.4,0.6-0.7,0.9-1.1c0.1-0.1,0.1-0.2,0.2-0.3c0.1-0.1,0.2-0.2,0.2-0.3
				c0.2-0.2,0.3-0.3,0.5-0.5c0.3-0.3,0.6-0.7,0.9-1c0.3-0.3,0.6-0.6,0.9-0.9c0.3-0.3,0.6-0.6,0.9-0.9c0.1-0.1,0.3-0.3,0.4-0.4
				c0.1-0.1,0.3-0.2,0.4-0.4c0.3-0.2,0.6-0.5,0.8-0.7c0.1-0.1,0.2-0.1,0.3-0.2c0.1-0.1,0.2-0.1,0.3-0.2c0.2-0.1,0.3-0.3,0.5-0.4
				c0.3-0.2,0.6-0.5,0.9-0.7c0.1-0.1,0.3-0.2,0.4-0.3c0.1-0.1,0.3-0.2,0.4-0.3c0.3-0.2,0.5-0.3,0.7-0.5c0.2-0.1,0.5-0.3,0.7-0.4
				c0.1-0.1,0.2-0.1,0.3-0.2c0.1-0.1,0.2-0.1,0.3-0.2c0.4-0.2,0.8-0.4,1.1-0.6c1.1-0.7,0.4-0.8,0.2-0.8c-0.2-0.1-0.7,0.1-1.5,0.5
				c-0.2,0.1-0.4,0.2-0.7,0.4c-0.2,0.2-0.5,0.3-0.8,0.5c-0.3,0.2-0.6,0.4-0.9,0.6c-0.2,0.1-0.3,0.2-0.5,0.4
				C85.4,11.2,85.2,11.3,85,11.5z"/>
		</g>
	</g>
</g>
</svg>
