<?xml version="1.0" encoding="utf-8"?>
<!-- Generator: Adobe Illustrator 26.0.1, SVG Export Plug-In . SVG Version: 6.00 Build 0)  -->
<svg version="1.1" id="Layer_1" xmlns="http://www.w3.org/2000/svg" xmlns:xlink="http://www.w3.org/1999/xlink" x="0px" y="0px"
	 viewBox="0 0 100 100" style="enable-background:new 0 0 100 100;" xml:space="preserve">
<style type="text/css">
	.st0{fill:#FFFFFF;}
	.st1{fill:#77AABA;}
</style>
<g>
	<path class="st0" d="M88.9,15.7c-2.9-2.2-7-2.5-10.6-1.8c-4,0.7-8,2.5-10.5,5.7c-2.5,3.2-3,8.1-0.5,11.4c-1.9-0.7-4.3-0.2-5.8,1.2
		c-1.5,1.4-2.2,3.7-1.7,5.7c-4.8-0.6-10,0.7-13.5,4.1c-3.4,3.5-4.5,9.3-1.9,13.4c-2.1-1-4.9-0.7-6.7,0.9c-1.8,1.5-2.5,4.2-1.8,6.5
		c-8.1-2-17.2,3.4-19.4,11.5c-4.8-1.7-10.6,2.6-10.5,7.7c27.7-0.2,55.5-0.5,83.2-0.7c0.4,0,0.8,0,1.1-0.2c0.4-0.2,0.5-0.7,0.6-1.1
		c2.9-9.2,5.2-18.5,7-27.9L88.9,15.7z"/>
	<path class="st1" d="M91.8,68.7c-9,0.9-17.9,1.8-26.9,2.7c-1.6,0.2-3.3,0.3-4.8,0.9c-1.7,0.6-3.1,2.1-4.7,2.7
		c-0.4,0.1-12.2,0.1-13.2,0.5c-1.7,0.7-3.4,1.2-5,1.9C31.9,79.8,8,83.1,2,83.5l32.2,2.9c19.3,0,38.5,0,57.8,0
		C92,80.5,91.9,74.6,91.8,68.7z"/>
</g>
</svg>
