<?xml version="1.0" encoding="utf-8"?>
<!-- Generator: Adobe Illustrator 26.0.1, SVG Export Plug-In . SVG Version: 6.00 Build 0)  -->
<svg version="1.1" id="Layer_1" xmlns="http://www.w3.org/2000/svg" xmlns:xlink="http://www.w3.org/1999/xlink" x="0px" y="0px"
	 viewBox="0 0 100 100" style="enable-background:new 0 0 100 100;" xml:space="preserve">
<style type="text/css">
	.st0{fill:#BDC3C7;}
	.st1{fill:none;}
	.st2{fill:#DCD6CA;}
	.st3{fill:#F39C12;}
</style>
<g>
	<g>
		<path class="st0" d="M10.2,18.6C10.2,18.2,10.3,18.9,10.2,18.6L10.2,18.6z"/>
		<path class="st0" d="M17.7,12c-0.5,0.3-3.2,2.9-3.1,3.1c-1.2,0.3-4.7,1.7-4.4,3.5c0.1,0.4,0.6,0.3,0.9,0.3
			c-0.4,0.6-1.8,3.6-1.8,3.6c-1.4,0.9-5.6,4.1-2,4.9c-0.3,0.5,0.2,2.2-0.2,3c-0.4,0.8-0.4,2-1.3,2.3c-1.4,0.6-1.8,2.7-1.8,4
			c0,2.1,0.5,1.9,2,2.3c-0.2,0.3,0.7,2.9,0.6,3.6c-0.1,1.4-0.2,3-1,4c-1.4,1.7-1.4,4.2-1,6.3c0.1,0.6,0.3,1.5,0.7,2
			c0.6,0.8,1,0,1.7,0c-0.1,0.2,0,0.4,0.2,0.5c1.3,0.9,1.6,3.6,1.4,5c0,0.3,0.1,0.4,0.3,0.5c-0.2,0.5-0.5,1.1-0.9,1.6
			c-0.5,1-0.3,1.9,0,2.9c0.4,1.1,1,2.1,1.9,2.8c1.1,0.9,1.7-0.1,2.9-0.2c0,0.5,0.7,0.5,1,0.7c1.2,0.7,2.2,1.9,2.7,3.2
			c0.1,0.3,0.1,1.2,0.7,1.2c-0.1,1.2-0.9,1.8-0.4,3.1c0.6,1.6,2.2,3,3.8,3.5c0.9,0.2,1.6,0.1,2.3-0.5c1.6-1.4,0.4,0.5,1.4,0
			c1.8,0.1,6.1,3.1,5.1,4.5c-1.8,2.7,4.9,4.8,6.6,3.9c1.4-0.8,1-1,2.5-0.9c0.8,0,1.5,0.1,2.3,0.3c0.9,0.3,2,1.5,2.8,1.6
			c0.2,0,0.4,2.5,1.8,3c2,0.7,4.3,0.3,5.6-1.4c0.6-0.7,1.2-0.5,2.1-0.9c0.8-0.3,1.8-0.5,2.7-0.5c0.5,0,1.5,0.7,1.9,0.4
			c0.2,0.7-0.6,1.5,0.8,1.6c1.5,0.1,3.2-0.5,4.5-1.1c0.8-0.4,1.6-0.9,2.1-1.7c0.6-0.8,1.1-1,1.5-1.4c1-0.8,2.1-1.5,3.4-1.9
			c0.5-0.2,1.7,0,2.1-0.4c0.7,1.1,0.7,1.6,2.4,0.8c1.4-0.6,3-1.8,3.3-3.4c0.2-1,0.7-0.8,1.4-1.6c0.8-1,2.6-1.4,3.2-2.1
			c1.5,2.8,3.6-2.7,3.9-4.1c0-0.1,0.1-0.2,0.2-0.4c0,0,0,0,0,0c0,0,0,0,0,0c0.6-1,2.2-2.3,2.8-3.2c1.4,2.1,2.6-3.8,2.6-4.9
			c0.2,0,1.8-3.6,1.9-4c0.9,1.3,1.7-2.3,1.8-2.8c0.3-1.8-0.3-3.4-1-5c0.3,0.7,0.6,1.3,0.9,2c0-0.4,0-0.8,0.1-1.2
			c0.3-1.6-0.1-1.9-0.8-3.4c-1-2-2-4-3-6.1c-1.4-2.9-3.5-6.1-3.7-9.5c-0.1-3.7,3.6-5.5,3.8-8.9c0.3-4.1-4.7-6.1-7.5-8
			c-0.8-0.5-2.8-1.4-2.8-2.4c0-0.9-0.2-1.6-0.7-2.2c-0.4-0.6-0.9-1.2-1.5-1.6c-0.7-0.6-1.8-1.8-2.9-1.9c-0.8-1-3.1,0.1-4.1-0.7
			c-2.6-2.1-5.8-6-9-7c-4.3-1.3-5.4,3.1-8.2,5.1c-2.6,1.9-5.9,1.8-9,1.4c-4.5-0.5-8.9-1.1-13.4-1.6C31,7.4,29.2,7.3,27.4,7
			c-1.9-0.3-2.7,0.6-4.3,1.2C22.4,8.5,15.2,11.2,17.7,12z"/>
	</g>
	<g>
		<path class="st1" d="M8.2,50.1c0.6-0.3,1.1-0.6,1.6-0.9C9.3,49.5,8.8,49.8,8.2,50.1z"/>
		<path class="st1" d="M22.5,29.6c-0.2,0-0.4,0.1-0.6,0.1c1.1-0.3,2.3-0.5,3.4-0.8C24.4,29.1,23.4,29.3,22.5,29.6z"/>
		<path class="st1" d="M11.9,24.8c-0.1,0-0.2,0-0.3,0C11.7,24.8,11.8,24.8,11.9,24.8C11.9,24.8,11.9,24.8,11.9,24.8z"/>
		<path class="st1" d="M12.5,24.7c-0.1,0-0.1,0-0.2,0c1.5-0.2,2.9-0.4,4.4-0.6C15.3,24.3,13.9,24.5,12.5,24.7z"/>
		<path class="st1" d="M26.7,22.9c1.6-0.2,3.2-0.3,4.8-0.5C29.9,22.6,28.3,22.7,26.7,22.9z"/>
		<path class="st1" d="M19.7,23.7c-0.1,0-0.2,0-0.2,0c1.2-0.2,2.4-0.3,3.7-0.4C22,23.5,20.8,23.6,19.7,23.7z"/>
		<path class="st1" d="M15.5,26.9c1.3-0.2,2.5-0.5,3.8-0.7C18,26.5,16.7,26.7,15.5,26.9z"/>
		<path class="st1" d="M28.3,17.8c1.2,0,2.3,0,3.5,0C30.6,17.8,29.4,17.8,28.3,17.8z"/>
		<path class="st1" d="M22.7,17.9c-1.3,0-2.5,0-3.8,0.1c-0.2,0-0.3,0-0.5,0c1.9-0.1,3.9-0.1,5.8-0.1C23.7,17.9,23.2,17.9,22.7,17.9z
			"/>
		<path class="st1" d="M12.9,42.1c-1.1,0.5-2.3,1-3.4,1.5c-0.5,0.2-1,0.5-1.6,0.7c-0.1,0-0.2,0.1-0.4,0.2c2.3-1,4.5-2.1,6.8-3
			C13.8,41.7,13.4,41.9,12.9,42.1z"/>
		<path class="st1" d="M15,31.4c1-0.3,2-0.5,3-0.7C17,30.9,16,31.1,15,31.4z"/>
		<path class="st1" d="M20.5,33.2c-2.1,0.6-4.2,1.3-6.2,1.9c2.5-0.8,5-1.6,7.5-2.3C21.4,33,21,33.1,20.5,33.2z"/>
		<path class="st2" d="M10.4,24.3c0.1,0.4,0.6,0.3,0.9,0.3c-0.4,0.6-1.8,3.6-1.8,3.6c-1.4,0.9-5.6,4.1-2,4.9c-0.3,0.5,0.2,2.2-0.2,3
			C7,37,7,38.1,6.1,38.5c-1.4,0.6-1.8,2.7-1.8,4c0,2.1,0.5,1.9,2,2.3C6,45.1,7,47.6,6.9,48.3c-0.1,1.4-0.2,3-1,4
			c-1.4,1.7-1.4,4.2-1,6.3c0.1,0.6,0.3,1.5,0.7,2c0.6,0.8,1,0,1.7,0c-0.1,0.2,0,0.4,0.2,0.5c1.3,0.9,1.6,3.6,1.4,5
			c0,0.3,0.1,0.4,0.3,0.5c-0.2,0.5-0.5,1.1-0.9,1.6c-0.5,1-0.3,1.9,0,2.9c0.4,1.1,1,2.1,1.9,2.8c1.1,0.9,1.7-0.1,2.9-0.2
			c0,0.5,0.7,0.5,1,0.7c1.2,0.7,2.2,1.9,2.7,3.2c0.1,0.3,0.1,1.2,0.7,1.2c-0.1,1.2-0.9,1.8-0.4,3.1c0.6,1.6,2.2,3,3.8,3.5
			c0.9,0.2,1.6,0.1,2.3-0.5c1.6-1.4,0.4,0.5,1.4,0c1.8,0.1,6.1,3.1,5.1,4.5c-1.8,2.7,4.9,4.8,6.6,3.9c1.4-0.8,1-1,2.5-0.9
			c0.8,0,1.5,0.1,2.3,0.3c0.9,0.3,2,1.5,2.7,1.6c0.2,0,0.4,2.5,1.8,3c2,0.7,4.3,0.3,5.6-1.4c0.6-0.7,1.2-0.5,2.1-0.9
			c0.8-0.3,1.8-0.5,2.7-0.5c0.5,0,1.5,0.7,1.9,0.4c0.2,0.7-0.6,1.5,0.8,1.6c1.5,0.1,3.2-0.5,4.5-1.1c0.8-0.4,1.6-0.9,2.1-1.7
			c0.6-0.8,1.1-0.9,1.5-1.4c1-0.8,2.1-1.5,3.4-1.9c0.5-0.2,1.7,0,2.1-0.4c0.7,1.1,0.7,1.6,2.4,0.8c1.4-0.6,3-1.8,3.3-3.4
			c0.2-1,0.7-0.8,1.4-1.6c0.8-1,2.6-1.4,3.2-2.1c1.5,2.8,3.6-2.7,3.9-4.1c0.3-1.1,2.3-2.6,2.9-3.6c1.4,2.1,2.6-3.8,2.6-4.9
			c0.2,0,1.8-3.6,1.9-4c0.9,1.3,1.7-2.3,1.8-2.8c0.3-1.8-0.3-3.4-1-5c0.3,0.7,0.6,1.3,0.9,2c0-0.4,0-0.8,0.1-1.2
			c0.3-1.6-0.1-1.9-0.8-3.4c-1-2-2-4-3-6.1c-1.4-2.9-3.5-6.1-3.7-9.5c-0.1-3.7,3.6-5.5,3.8-8.9c0.3-4.1-4.7-6.1-7.5-8
			c-0.8-0.5-2.8-1.4-2.8-2.4c0-0.9-0.2-1.6-0.7-2.2c-0.4-0.6-0.9-1.2-1.5-1.6c-0.7-0.6-1.8-1.8-2.9-1.9c-0.8-1-3.1,0.1-4.1-0.7
			c-2.6-2.1-5.8-6-9-7c-4.3-1.3-5.4,3.1-8.2,5.1c-2.6,1.9-5.9,1.8-9,1.4c-4.5-0.5-8.9-1.1-13.4-1.6c-1.8-0.2-3.7-0.3-5.5-0.6
			c-1.9-0.3-2.7,0.6-4.3,1.2c-0.7,0.3-7.8,3-5.3,3.7c-0.5,0.3-3.2,2.9-3.1,3.1C13.6,21.1,10,22.5,10.4,24.3
			C10.4,24.6,10.3,24,10.4,24.3z"/>
		<g>
			<path class="st3" d="M81.4,26.1c1.1,12,4.6,23.6,7.9,35.2c0.1,0.3,0.2,0.6,0.3,1c0.2,0.7,0.4,1.4,0.6,2.1
				c0.6,2.2,1.2,4.4,1.8,6.6c0,0-4.2-16.3,0,0c-0.1-0.3,0.2-1.1,0.4-1.4c0.1-0.4,0.3-0.8,0.5-1.1c0.1-0.2,0.2-0.4,0.4-0.6
				c0.3-0.5,0.5-0.4,0.3-0.9c0,0,0,0,0-0.1c-0.3-0.8-0.5-1.5-0.8-2.3c-0.5-1.4-0.9-2.7-1.4-4.1c0,0,0,0,0,0c-0.6-1.7-1.1-3.3-1.7-5
				c-0.3-1-0.7-2-1-2.9c-0.4-1.2-0.8-2.4-1.2-3.7c-0.2-0.5-0.3-1-0.5-1.4c-0.1-0.4-0.2-0.8-0.4-1.2c-0.4-1.2-0.8-2.5-1.1-3.7
				c-0.3-0.9-0.5-1.8-0.8-2.6c-0.3-1.2-0.6-2.5-0.9-3.7c-0.2-0.6-0.3-1.3-0.5-2c-0.1-0.4-0.2-0.8-0.3-1.2c-0.1-0.3-0.1-0.5-0.2-0.8
				c-0.3-1.6-0.6-3.1-0.9-4.7c0-0.2,0-0.4-0.1-0.5c-0.1-0.6-0.2-1.1-0.2-1.7c0-0.3-0.1-0.7-0.1-1c0-0.1,0-0.2,0-0.4
				c0-0.1,0-0.2,0-0.3c0-0.3-0.1-0.7-0.1-1c0-0.4,0-0.9-0.1-1.3c0-0.2-0.1-0.3-0.1-0.4c0,0,0-0.1-0.1-0.1c0,0,0,0,0,0
				c0,1.5,0.1,3.1,0.3,4.6C81.4,25.6,81.4,25.9,81.4,26.1z"/>
			<path class="st3" d="M80.6,26c0,0.7,0,1.3,0,2c0,1.9,0.1,3.8,0.2,5.6c0,0.7,0.1,1.4,0.2,2.1c0.1,1.2,0.2,2.3,0.3,3.5
				c0.2,1.7,0.3,3.4,0.5,5c0.1,0.6,0.1,1.2,0.2,1.7c0.2,1.9,0.5,3.9,0.8,5.8c0,0.2,0.1,0.5,0.1,0.7c0.7,4.9,1.5,9.8,2.2,14.8
				c0.1,1,0.3,2,0.4,2.9c0.2,1.6,0.4,3.1,0.6,4.7c0,0.2,0,0.3,0.1,0.5c0,0.1,0,0.3,0,0.4c0.1,0.9,0.2,1.9,0.3,2.8
				c0,0.2,0,0.4,0.1,0.7c0-0.3,0.4-0.9,0.6-1.2c0.2-0.3,0.4-0.7,0.6-1c0.2-0.2,0.3-0.4,0.5-0.6c0.2-0.2,0.3-0.3,0.5-0.4
				c0.1,0,0.1-0.1,0.1-0.1c0-0.1,0-0.3-0.1-0.5c0,0,0,0,0,0c-0.4-2.1-0.8-4.3-1.2-6.4c0-0.1,0-0.2-0.1-0.3c0-0.1,0-0.2-0.1-0.3
				c-0.3-1.8-0.7-3.5-1.1-5.3c-0.5-2.6-1.1-5.3-1.6-7.9c-1.8-9-3.5-18.1-4-27.3c0,0,0,0,0,0c0,0,0,0,0,0c-0.1-1.4-0.1-2.9-0.1-4.3
				c0,0,0,0,0-0.1c0-0.7,0-1.5,0-2.2c0-0.1,0-0.2,0-0.3c0-0.2,0-0.4,0-0.5c0-0.2,0-0.4-0.2-0.5c0,0.2,0,0.4,0,0.5c0,0.2,0,0.4,0,0.6
				C80.6,22.8,80.6,24.4,80.6,26z"/>
			<path class="st3" d="M78.8,33.2c-0.1,1.2-0.1,2.4-0.1,3.5c0,1.1-0.1,2.3-0.1,3.4c0,1.5,0,3,0,4.5c0,0.8,0,1.6,0,2.4
				c0,1.8,0,3.6,0.1,5.3c0,0.6,0,1.1,0,1.7c0,2.4,0.1,4.7,0.2,7.1c0,0.4,0,0.8,0,1.2c0,1.9,0.1,3.8,0.1,5.8c0,0.8,0,1.5,0,2.3
				c0,1.6,0,3.2,0,4.7c0,0.1,0,0.2,0,0.2c0,2.9-0.1,5.8-0.2,8.6c0,0.8-0.1,1.5-0.1,2.3c0,0,0,0,0,0c0.6-0.9,2.4-2.9,3.7-2.7
				c0,0,0,0,0,0c0.1-2.2-0.1-4.5-0.2-6.7c0-0.4,0-0.7-0.1-1.1c0-1.1-0.1-2.2-0.2-3.3c0-0.9-0.1-1.7-0.1-2.6c0-0.3,0-0.6-0.1-0.9
				c-0.3-4.4-0.6-8.7-1-13.1c0-0.1,0-0.2,0-0.2c-0.1-1.3-0.2-2.6-0.3-3.9c-0.1-1.2-0.2-2.3-0.2-3.4c-0.1-1.2-0.1-2.4-0.2-3.5
				c-0.1-1.2-0.1-2.4-0.2-3.6c0-1.1-0.1-2.2-0.1-3.3c0-1.2-0.1-2.5-0.1-3.7c0-1.1,0-2.2,0.1-3.3c0-1,0-1.9,0.1-2.9
				c0-0.4,0.1-0.7,0.1-1.1c0.1-0.9,0.1-1.9,0.2-2.8c0-0.3,0-0.6,0.1-0.8c0-0.1,0-0.2,0-0.4c0.1-0.6,0.1-1.2,0.2-1.9
				c0.1-0.5,0.3-1.2,0-1.6c-0.4,2.2-0.7,4.4-0.9,6.7c-0.1,1.2-0.2,2.4-0.3,3.6C79,30.9,78.9,32.1,78.8,33.2z"/>
			<path class="st3" d="M75.8,36c-0.3,1.6-0.6,3.3-0.9,4.9c-0.2,1.1-0.4,2.2-0.5,3.4c-0.2,1.5-0.5,2.9-0.7,4.4
				c-0.2,1.4-0.4,2.7-0.6,4.1c-0.1,1-0.3,2.1-0.4,3.1c-0.3,2-0.5,4.1-0.8,6.1c-0.2,1.1-0.3,2.2-0.5,3.4c-0.2,1.3-0.4,2.7-0.6,4
				c-0.2,1.1-0.3,2.2-0.5,3.3c-0.1,0.8-0.2,1.5-0.3,2.3c0,0.3-0.1,0.5-0.2,0.8c-0.9,5.5-2.1,10.8-3.3,16.2c0,0.1,0,0.2-0.1,0.2
				c0.8-0.7,1.8-1.2,2.8-1.7c0.7-0.3,1.8-0.8,2.6-0.5c0,0,0-0.1,0-0.1c2.9-15.9,2.9-32.1,4.4-48.1c0-0.3,0-0.6,0.1-0.9
				c0.2-1.5,0.3-3,0.5-4.5c0.1-0.7,0.2-1.5,0.3-2.2c0-0.2,0.1-0.3,0.1-0.5c0.3-2.1,0.6-4.2,1-6.4c0.1-0.4,0.1-0.8,0.2-1.2
				c0-0.1,0-0.1,0-0.2c0.2-1.3,0.5-2.6,0.8-3.8c0,0,0-0.1,0-0.1c0-0.2,0.1-0.4,0.1-0.6c0.1-0.3,0.1-0.6,0.2-0.8
				c0-0.2,0.1-0.3,0.1-0.5c0.1-0.4,0.3-0.7,0-1c-0.7,2.2-1.3,4.5-1.9,6.7c-0.6,2.5-1.2,5-1.7,7.5C76.1,34.1,75.9,35,75.8,36z"/>
			<path class="st3" d="M76.8,24.4c-0.2,0.6-0.5,1.1-0.7,1.7c-0.3,0.7-0.6,1.4-0.8,2.1c-0.9,2.4-1.9,4.9-2.7,7.4
				c-0.2,0.7-0.5,1.4-0.7,2.1c-1,3-2,5.9-3,8.9c-0.1,0.2-0.1,0.3-0.2,0.5c-0.9,2.9-1.8,5.8-2.7,8.7c-0.7,2.1-1.3,4.3-2,6.4
				c-0.3,0.9-0.6,1.8-0.9,2.7c-0.5,1.5-0.9,2.9-1.4,4.4c-0.3,1.1-0.7,2.1-1,3.2c-0.3,0.8-0.5,1.6-0.8,2.4c-0.1,0.3-0.2,0.7-0.4,1
				c-1,3.1-2.1,6.1-3.2,9.2c-0.6,1.7-1.3,3.4-1.9,5c-0.2,0.5-0.4,1-0.6,1.6c-0.1,0.3-0.2,0.6-0.4,0.9c0,0,0,0,0,0
				c-0.3,0.8-0.6,1.8-1,2.5c0.4-0.2,0,0,0,0c1.3-0.7,4.1-1.4,5.4-0.4c0.6-1.7,1.2-3.4,1.8-5c0.5-1.4,1-2.9,1.4-4.3c0,0,0,0,0,0
				C65,72.4,67.7,59.1,71,46c0.1-0.4,0.2-0.8,0.3-1.2c0.5-1.9,1-3.7,1.5-5.6c0-0.1,0-0.2,0.1-0.3c0.5-2,1.1-4,1.7-5.9
				c0.2-0.5,0.3-1,0.5-1.6c0.3-1,0.6-2.1,1-3.1c0.2-0.6,0.4-1.1,0.6-1.7c0.2-0.6,0.4-1.2,0.6-1.8c0.2-0.6,0.4-1.1,0.6-1.7
				c0.3-0.9,0.7-1.8,1-2.7c0.2-0.5,0.4-0.9,0.5-1.4c0.1-0.2,0.1-0.3,0-0.3c0,0-0.1-0.1-0.2-0.2c0,0,0,0.1,0,0.1
				c-0.1,0.2-0.2,0.4-0.2,0.5C78.3,20.9,77.5,22.6,76.8,24.4z"/>
			<path class="st3" d="M71.7,30.5c-0.6,1.1-1.2,2.1-1.8,3.2c-1.2,2.2-2.4,4.4-3.6,6.6c-2.4,4.4-4.8,8.8-7.1,13.3
				c-1.5,2.8-3,5.7-4.5,8.5c-1.5,2.9-3.1,5.8-4.6,8.6c-0.6,1.1-1.1,2.1-1.7,3.2c-1.3,2.5-2.7,4.9-4.1,7.4c-0.3,0.5-0.6,1-0.9,1.6
				c-0.2,0.3-0.4,0.7-0.6,1c-1.6,2.8-3.1,5.6-4.7,8.3c0.2-0.2,1.3-0.1,1.6-0.1c0.5,0,1,0.1,1.5,0.3c1,0.3,2.1,0.7,2.7,1.6l0,0
				c0.1-0.2,0.2-0.3,0.2-0.5c0.6-1.2,1.1-2.4,1.7-3.5c0.5-0.9,0.9-1.8,1.4-2.7c0.3-0.6,0.6-1.2,0.9-1.9c0.4-0.9,0.9-1.8,1.3-2.7
				c0.4-0.8,0.8-1.6,1.1-2.4c0.3-0.7,0.7-1.5,1-2.2c1.4-3,2.7-6,4-9c0.4-1,0.9-2,1.4-3c0.7-1.6,1.4-3.2,2.1-4.7
				c1.6-3.8,3.3-7.5,4.9-11.3c1.1-2.4,2.2-4.8,3.2-7.3c0.8-1.8,1.5-3.5,2.3-5.3c0.5-1.2,1.1-2.3,1.7-3.5c0.7-1.6,1.5-3.1,2.2-4.7
				c0.3-0.6,0.5-1.1,0.8-1.7c0.3-0.6,0.6-1.1,0.8-1.7c0.5-0.9,0.9-1.9,1.4-2.8c0.1-0.2,0.2-0.4,0.3-0.5c0.1-0.2,0.2-0.4,0.3-0.7
				c0.1-0.3,0.3-0.6,0.4-0.8c0.2-0.3,0.3-0.7,0.5-1c0.2-0.4,0.4-0.7,0.6-1.1c0.1-0.1,0.2-0.3,0.2-0.4c0.1-0.1,0.1-0.3,0.1-0.4
				c0,0,0-0.1-0.1-0.1c0,0,0-0.1-0.1-0.1c0,0,0,0,0,0l0,0c0,0.1-0.1,0.1-0.1,0.2C76.3,22.3,73.9,26.4,71.7,30.5z M44,82
				c-0.3,0.4-0.6,1.1-1.2,2C43.3,83.1,43.8,82.4,44,82z M42.3,84.9c0,0.1-0.1,0.1-0.1,0.2C42.3,85,42.3,84.9,42.3,84.9z M41.6,86.2
				c-0.2,0.3-0.3,0.6-0.5,0.9C41.2,86.8,41.4,86.5,41.6,86.2z M40.9,87.3c-0.4,0.7-0.9,1.5-1.4,2.3C39.9,89,40.4,88.2,40.9,87.3z
				 M38.8,91c0,0.1-0.1,0.1-0.1,0.2c0,0,0,0.1-0.1,0.1c0,0,0-0.1,0.1-0.1C38.7,91.1,38.7,91,38.8,91z M38.4,91.6
				c-0.1,0.1-0.1,0.3-0.2,0.4C38.2,91.9,38.3,91.8,38.4,91.6z"/>
			<path class="st3" d="M65.8,33.4c-1.4,1.7-2.8,3.4-4.1,5.1c-2.9,3.6-5.8,7.2-8.8,10.8c-2.6,3.2-5.3,6.5-7.9,9.7
				c-1.7,2.1-3.5,4.3-5.2,6.4c-0.6,0.8-1.3,1.6-1.9,2.4c-0.6,0.7-1.2,1.5-1.8,2.2c-3.9,4.9-7.8,9.7-11.7,14.6
				c0.1-0.2,1.4,0.3,1.6,0.4c0.5,0.2,0.9,0.4,1.3,0.7c1,0.6,2,1.4,2.4,2.5c0.1-0.1,0.2-0.2,0.2-0.3c3.1-4.1,5.9-8.4,8.8-12.6
				c0.7-0.9,1.3-1.9,2-2.8c1.1-1.6,2.2-3.2,3.4-4.8c1.3-1.9,2.6-3.7,3.8-5.6c4.5-6.5,9-13,13.4-19.5c1.6-2.3,3.2-4.7,4.8-7
				c2.2-3.2,4.4-6.3,6.6-9.5c1.1-1.6,2.2-3.2,3.3-4.7c0.6-0.8,1.1-1.6,1.7-2.4c0,0,0,0,0,0c0.2-0.3,0.6-0.6,0.6-0.9
				c0-0.1,0-0.2-0.1-0.3c0,0,0,0,0,0l0,0C74.2,22.9,70,28.2,65.8,33.4z"/>
			<path class="st3" d="M20.9,66.7c0.3-0.3,0.6-0.6,0.8-0.8C21.5,66.1,21.2,66.4,20.9,66.7z"/>
			<path class="st3" d="M21.7,65.9c0.1-0.1,0.1-0.1,0.2-0.2C21.9,65.8,21.8,65.8,21.7,65.9z"/>
			<path class="st3" d="M13.7,73.7C13.7,73.7,13.6,73.7,13.7,73.7c-0.1,0.1-0.1,0.1-0.2,0.1C13.5,73.8,13.6,73.8,13.7,73.7
				C13.6,73.7,13.7,73.7,13.7,73.7z"/>
			<path class="st3" d="M16.8,70.7c1.1-1.1,2.4-2.3,3.5-3.3C19.4,68.2,18.2,69.3,16.8,70.7z"/>
			<path class="st3" d="M21.9,65.7C22.8,64.9,23,64.7,21.9,65.7L21.9,65.7z"/>
			<path class="st3" d="M77.3,17.7c-0.1,0.1-0.1,0.2-0.2,0.2c-0.4,0.4-0.9,0.9-1.3,1.3c-0.5,0.5-1.1,1-1.6,1.5
				c-0.3,0.3-0.6,0.5-0.8,0.8c-0.2,0.2-0.3,0.3-0.5,0.5c-0.2,0.2-0.4,0.4-0.6,0.6c-1.1,1-2.1,2-3.2,3c-0.6,0.6-1.2,1.1-1.8,1.7
				c-1.5,1.3-2.9,2.6-4.4,3.9c-0.3,0.3-0.7,0.6-1,0.9c-2.1,1.8-4.2,3.6-6.3,5.4c-0.2,0.2-0.5,0.4-0.7,0.6c-3.8,3.2-7.6,6.4-11.4,9.6
				c-3.6,3-7.2,6-10.8,9.1c-0.3,0.3-0.6,0.5-0.9,0.8c-0.3,0.3-0.6,0.6-1,0.8c-2.5,2.1-4.9,4.3-7.4,6.4c-0.3,0.3-0.7,0.6-1,0.9
				c-2.7,2.4-5.3,4.8-7.8,7.3c-0.2,0.2-0.5,0.5-0.7,0.7c0,0-0.1,0.1-0.2,0.1c0.1-0.1,1.2,0.6,1.3,0.7c0.4,0.3,0.7,0.6,1,1
				c0.8,0.9,1.4,1.9,1.6,3.1c0.6-0.8,1.4-1.5,2.1-2.2c0.1-0.1,0.2-0.2,0.3-0.3c0.9-1,1.9-2,2.8-3c1.3-1.3,2.6-2.6,3.9-4
				c0.6-0.6,1.1-1.1,1.7-1.7c0.7-0.7,1.4-1.3,2-2c3-3,6-5.9,9-8.9c0.1-0.1,0.1-0.1,0.2-0.2c0.8-0.8,1.5-1.5,2.3-2.3
				c3.1-3,6.2-6,9.3-9.1c3.6-3.5,7.2-7,10.8-10.6c0.1-0.1,0.1-0.1,0.2-0.2c0.2-0.2,0.4-0.4,0.6-0.6c2.2-2.2,4.3-4.4,6.4-6.6
				c0.6-0.6,1.2-1.2,1.8-1.9c2.4-2.5,4.8-5,7.2-7.6c0,0,0,0,0,0c0,0,0,0,0,0c-0.1,0-0.1,0-0.2,0C77.6,17.4,77.5,17.5,77.3,17.7z"/>
			<path class="st3" d="M20.2,67.3c0.2-0.2,0.5-0.5,0.7-0.6C20.7,66.9,20.5,67.1,20.2,67.3z"/>
			<path class="st3" d="M13.7,73.7c1.2-1.1,2.2-2.1,3.1-3C15.3,72.1,14.1,73.3,13.7,73.7z"/>
			<path class="st3" d="M7.7,61c0.1,0,0.1-0.1,0.2-0.1C7.7,60.9,7.7,61,7.7,61z"/>
			<path class="st3" d="M72.3,20.6c-0.3,0.2-0.5,0.4-0.8,0.6c-1.4,1-2.9,2-4.4,3c-0.3,0.2-0.5,0.4-0.8,0.6c-0.2,0.1-0.4,0.2-0.6,0.4
				c-1.7,1.2-3.5,2.3-5.3,3.4c-2.2,1.4-4.3,2.7-6.5,4c-0.4,0.2-0.8,0.5-1.2,0.7c-3.8,2.2-7.6,4.4-11.4,6.6c-4,2.2-7.9,4.5-11.8,6.8
				c-0.3,0.2-0.6,0.4-0.9,0.5c-1.2,0.7-2.3,1.4-3.4,2.1c-0.4,0.3-0.9,0.5-1.3,0.8c-3.9,2.4-7.8,4.9-11.6,7.6
				c-1.3,0.9-2.5,1.8-3.7,2.7c-0.2,0.2-0.5,0.3-0.7,0.5c-0.1,0.1-0.1,0.1-0.2,0.1C8,60.7,8.9,63,9,63.4c0.3,1,0.4,2,0.3,3
				c2.1-1.7,4.3-3.4,6.4-5.1c0.1-0.1,0.2-0.2,0.3-0.3c1.5-1.1,3-2.3,4.5-3.4c0.4-0.3,0.8-0.6,1.2-0.8c1.8-1.3,3.5-2.5,5.3-3.8
				c0.1-0.1,0.2-0.1,0.3-0.2c1.9-1.3,3.9-2.7,5.8-4c0.1-0.1,0.3-0.2,0.4-0.3c4.4-3,8.8-5.9,13.3-8.9c0.5-0.4,1.1-0.7,1.6-1.1
				c1.5-1,2.9-2,4.4-3c0.9-0.6,1.7-1.2,2.6-1.8c1-0.7,1.9-1.3,2.9-2c0.3-0.2,0.5-0.4,0.8-0.6c0.6-0.4,1.2-0.8,1.7-1.2
				c1.3-0.9,2.6-1.9,3.9-2.8c0.7-0.5,1.3-1,2-1.5c1.3-0.9,2.5-1.9,3.7-2.9c0.6-0.5,1.2-0.9,1.8-1.4c1.8-1.4,3.6-2.9,5.3-4.4l0,0
				c0,0,0,0,0,0c-0.3-0.2-0.4,0-0.7,0.2c-0.5,0.4-0.9,0.7-1.4,1.1c-0.8,0.6-1.7,1.3-2.5,1.9C72.6,20.4,72.5,20.5,72.3,20.6z"/>
			<path class="st3" d="M17,53.9C17.6,53.5,17.5,53.6,17,53.9L17,53.9z"/>
			<path class="st3" d="M16.3,54.5c0.1,0,0.1-0.1,0.2-0.2C16.4,54.4,16.4,54.4,16.3,54.5z"/>
			<path class="st3" d="M8.1,60.6c-0.1,0.1-0.2,0.1-0.2,0.2c0,0,0,0,0,0c0,0,0,0,0,0C7.9,60.8,8,60.7,8.1,60.6z"/>
			<path class="st3" d="M16.5,54.3c0.2-0.2,0.4-0.3,0.5-0.4C16.9,54,16.7,54.2,16.5,54.3z"/>
			<path class="st3" d="M11.3,58.3c0.1-0.1,0.3-0.2,0.4-0.3C11.5,58.1,11.4,58.2,11.3,58.3z"/>
			<path class="st3" d="M8.3,60.5c0.7-0.5,1.7-1.3,2.9-2.2C10.4,58.9,9.4,59.7,8.3,60.5z"/>
			<path class="st3" d="M14.9,55.5c0.5-0.4,1-0.7,1.4-1C15.9,54.7,15.5,55.1,14.9,55.5z"/>
			<path class="st3" d="M8.1,60.6c0.1-0.1,0.2-0.1,0.2-0.2C8.2,60.5,8.1,60.6,8.1,60.6z"/>
			<path class="st3" d="M12.4,57.4c1-0.7,1.8-1.4,2.5-1.9C14.1,56.1,13.3,56.7,12.4,57.4z"/>
			<path class="st3" d="M11.7,58c0.3-0.2,0.5-0.4,0.8-0.6C12.2,57.6,11.9,57.8,11.7,58z"/>
			<path class="st3" d="M76.4,16.9c-0.1,0-0.1,0.1-0.2,0.1c-0.5,0.3-1,0.5-1.5,0.8c-1.1,0.6-2.2,1.1-3.4,1.7
				c-0.4,0.2-0.8,0.3-1.2,0.5c-0.9,0.4-1.8,0.8-2.7,1.2c-0.9,0.4-1.8,0.8-2.6,1.2c-0.6,0.3-1.2,0.5-1.8,0.7c-1,0.4-1.9,0.8-2.9,1.2
				c-1.4,0.6-2.9,1.2-4.3,1.7c-1,0.4-2.1,0.8-3.2,1.2c-0.4,0.2-0.8,0.3-1.2,0.5c-0.9,0.3-1.8,0.7-2.7,1c-1.3,0.5-2.5,0.9-3.8,1.4
				c-0.8,0.3-1.5,0.6-2.3,0.8c-2.2,0.8-4.5,1.6-6.7,2.4c-1.2,0.4-2.3,0.8-3.5,1.3c-1.2,0.4-2.3,0.9-3.5,1.3
				c-1.2,0.4-2.3,0.9-3.5,1.3c-0.4,0.1-0.7,0.3-1.1,0.4c-0.4,0.2-0.9,0.4-1.3,0.5c-2,0.8-4,1.6-6,2.4c-0.6,0.2-1.2,0.5-1.7,0.7
				c-0.3,0.1-0.6,0.3-1,0.4c-2.3,1-4.5,2-6.8,3.1C7.3,44.9,7.1,45,6.9,45c-0.1,0-0.2,0.1-0.3,0.1c1.2,1.4,0.7,4.4,0.2,6c0,0,0,0,0,0
				c0.5-0.3,1-0.6,1.5-0.9c0.5-0.3,1.1-0.6,1.6-0.9c1-0.5,2-1.1,3-1.6c0.2-0.1,0.4-0.2,0.6-0.3c0.1-0.1,0.3-0.1,0.4-0.2
				c1.5-0.8,3.1-1.6,4.6-2.3c0.3-0.1,0.6-0.3,0.8-0.4c0.2-0.1,0.3-0.2,0.5-0.2c1.9-0.9,3.8-1.8,5.8-2.7c1.6-0.7,3.1-1.4,4.7-2.1
				c0.6-0.3,1.2-0.5,1.8-0.8c0.1-0.1,0.3-0.1,0.4-0.2c1.9-0.8,3.8-1.7,5.7-2.5c0.2-0.1,0.4-0.2,0.6-0.3c2.2-1,4.4-1.9,6.6-2.9
				c1.1-0.5,2.2-1,3.4-1.5c1.1-0.5,2.1-1,3.2-1.4c1.1-0.5,2.1-1,3.2-1.5c1.1-0.5,2.3-1.1,3.4-1.6c0.1,0,0.2-0.1,0.3-0.1
				c1.8-0.9,3.6-1.8,5.4-2.7c0.5-0.2,0.9-0.5,1.4-0.7c1.5-0.8,3-1.6,4.5-2.4c0.7-0.4,1.3-0.7,2-1.1c0.4-0.2,0.8-0.4,1.1-0.7
				c1.3-0.8,2.6-1.5,3.8-2.3c0,0,0,0,0,0c0,0,0,0,0,0c0,0,0,0,0,0c0,0,0,0-0.1,0c-0.1,0-0.2,0-0.3,0C76.5,16.8,76.4,16.8,76.4,16.9z
				"/>
			<path class="st3" d="M74.4,17.1c-0.2,0.1-0.3,0.1-0.4,0.2c-1.2,0.4-2.4,0.8-3.6,1.2c-0.1,0-0.2,0-0.3,0.1
				c-2.2,0.7-4.4,1.3-6.6,1.9c0,0-0.1,0-0.1,0c-0.7,0.2-1.3,0.3-2,0.5c-1.5,0.4-3.1,0.8-4.7,1.2c-1.1,0.3-2.1,0.5-3.2,0.7
				c-1.2,0.3-2.4,0.6-3.5,0.8c-0.2,0.1-0.5,0.1-0.7,0.2c-1.3,0.3-2.6,0.6-3.9,0.9c-0.8,0.2-1.7,0.4-2.5,0.5c-2,0.4-3.9,0.8-5.9,1.3
				c-1.4,0.3-2.7,0.6-4.1,0.9c-1.3,0.3-2.6,0.5-3.8,0.8c-1.2,0.3-2.5,0.6-3.7,0.8c-1.1,0.3-2.3,0.5-3.4,0.8C21.6,30,21.3,30,21,30.1
				c-1,0.2-2,0.5-3.1,0.8c-1,0.2-2,0.5-3,0.7c-0.2,0.1-0.4,0.1-0.7,0.2c-2.1,0.6-4.3,1-6.4,1.8c0,0,0,0,0,0c0.9,1.1-0.2,3.3-0.8,4.2
				c2.1-0.9,4.4-1.5,6.6-2.2c0.1,0,0.1,0,0.2-0.1c0.2,0,0.3-0.1,0.5-0.1c2.1-0.7,4.2-1.3,6.2-1.9c0.4-0.1,0.9-0.2,1.3-0.4
				c1.1-0.3,2.2-0.6,3.2-0.9c1.2-0.3,2.5-0.7,3.7-1c1.3-0.4,2.6-0.7,4-1.1c0.6-0.2,1.2-0.3,1.7-0.5c0.5-0.1,0.9-0.2,1.4-0.4
				c2.1-0.6,4.2-1.1,6.3-1.7c1.1-0.3,2.2-0.6,3.3-0.9c1.3-0.3,2.5-0.7,3.8-1c1.2-0.3,2.3-0.7,3.5-1c1.2-0.3,2.4-0.7,3.6-1
				c1.1-0.3,2.2-0.7,3.3-1c0.9-0.3,1.8-0.6,2.8-0.8c0.3-0.1,0.6-0.2,0.9-0.3c1.3-0.4,2.5-0.9,3.8-1.3c1.1-0.4,2.1-0.7,3.2-1.1
				c1.6-0.6,3.2-1.2,4.9-1.9c0.4-0.2,0.8-0.3,1.3-0.5c0.1,0,0.1,0,0.2-0.1c-0.1,0-0.3,0-0.4,0C75.4,16.7,74.8,16.9,74.4,17.1z"/>
			<path class="st3" d="M74.4,16.4C74.3,16.4,74.3,16.4,74.4,16.4c-0.5,0.1-0.9,0.1-1.3,0.2c-0.2,0-0.3,0.1-0.5,0.1
				c-0.4,0.1-0.8,0.1-1.3,0.2c-0.6,0.1-1.1,0.1-1.7,0.2c-0.3,0-0.5,0.1-0.8,0.1c-0.3,0-0.5,0-0.7,0.1c-0.7,0.1-1.4,0.2-2.1,0.2
				c-0.8,0.1-1.6,0.1-2.3,0.1c-0.7,0-1.3,0.1-2,0.2c-0.5,0-1,0-1.6,0.1c-1.2,0.1-2.4,0.1-3.7,0.1C55.2,18,54,18,52.8,18
				c-1.2,0-2.4,0-3.6,0c-0.6,0-1.3,0-1.9,0c-0.6,0-1.2,0-1.9,0c-1.2,0-2.5,0-3.7,0c-1.9,0-3.8,0-5.6,0c-1.4,0-2.9,0-4.3,0
				c-1.2,0-2.3,0-3.5,0c-1.3,0-2.7,0-4,0c-1.9,0-3.9,0-5.8,0.1c0,0-0.1,0-0.1,0c-0.4,0-0.6,0.7-1,1.1c-0.6,0.7-1.4,1.2-2.2,1.6
				c0.3,0,0.7,0,1-0.1c12.4-0.9,24.8-1,37.2-1.8c0.2,0,0.4,0,0.5,0c2-0.1,3.9-0.3,5.9-0.5c0.9-0.1,1.7-0.2,2.6-0.3
				c1.4-0.1,2.8-0.3,4.3-0.5c1.1-0.1,2.2-0.3,3.4-0.5c0.8-0.1,1.7-0.2,2.5-0.4c0.9-0.1,1.7-0.3,2.6-0.5c0,0,0,0,0,0c0,0,0,0,0,0
				C74.9,16.4,74.7,16.4,74.4,16.4C58,18.9,71.5,16.8,74.4,16.4z"/>
			<path class="st3" d="M75.1,16.4C75.1,16.4,75.1,16.4,75.1,16.4L75.1,16.4C74.8,16.4,55.4,20,75.1,16.4z"/>
			<path class="st3" d="M73.7,16.8c-0.2,0-0.3,0.1-0.5,0.1c-1.2,0.3-2.5,0.5-3.7,0.8c0,0-0.1,0-0.1,0c-2.2,0.4-4.5,0.8-6.8,1.2
				c-0.1,0-0.2,0-0.3,0.1c-1.3,0.2-2.6,0.4-3.9,0.6c-1,0.1-2,0.3-3.1,0.4c-1.3,0.2-2.7,0.3-4,0.5c-1.1,0.1-2.1,0.3-3.2,0.4
				c-0.1,0-0.2,0-0.2,0c-1.5,0.2-2.9,0.3-4.4,0.5c-0.9,0.1-1.7,0.2-2.6,0.3c-2.4,0.2-4.7,0.5-7.1,0.7c-0.8,0.1-1.6,0.2-2.5,0.3
				c-1.6,0.2-3.2,0.3-4.8,0.5c-1.2,0.1-2.4,0.3-3.6,0.4c-1.2,0.1-2.4,0.3-3.7,0.4c-0.1,0-0.2,0-0.4,0c-0.8,0.1-1.6,0.2-2.5,0.3
				c-1.5,0.2-2.9,0.4-4.4,0.6c-0.1,0-0.2,0-0.3,0c-0.1,0-0.2,0-0.3,0c0.2,0-0.2,1.1-0.2,1.2c-0.4,0.7-1,1.4-1.6,1.9
				c0.1,0,0.2,0,0.3,0c1.8-0.4,3.6-0.7,5.4-1c1.3-0.2,2.5-0.5,3.8-0.7c0.6-0.1,1.2-0.2,1.8-0.3c8-1.3,16.1-2.4,24.2-3.6
				c0.1,0,0.3,0,0.4-0.1c1.9-0.3,3.7-0.6,5.6-0.9c0.8-0.1,1.6-0.3,2.4-0.4c1.4-0.2,2.9-0.5,4.3-0.7c1.1-0.2,2.1-0.4,3.2-0.6
				c1.2-0.2,2.5-0.5,3.7-0.8c0.6-0.1,1.3-0.2,1.9-0.4c0.9-0.2,1.8-0.4,2.7-0.6c0.4-0.1,0.8-0.2,1.2-0.3c0.2,0,0.4-0.1,0.6-0.1
				c0.1,0,0.3-0.1,0.4-0.1c1.2-0.3,2.3-0.7,3.5-0.9c0.1,0,0.2-0.1,0.3-0.1c0.1,0,0.1,0,0.2,0c-0.1,0-0.3,0-0.4,0
				C74.8,16.5,74.2,16.7,73.7,16.8z"/>
			<path class="st3" d="M11.9,25c-0.2,0-0.3,0-0.3,0C11.7,25,11.8,25,11.9,25C31.2,22,14.4,24.6,11.9,25z"/>
		</g>
	</g>
</g>
</svg>
