<?xml version="1.0" encoding="utf-8"?>
<!-- Generator: Adobe Illustrator 26.0.1, SVG Export Plug-In . SVG Version: 6.00 Build 0)  -->
<svg version="1.1" id="Layer_1" xmlns="http://www.w3.org/2000/svg" xmlns:xlink="http://www.w3.org/1999/xlink" x="0px" y="0px"
	 viewBox="0 0 100 100" style="enable-background:new 0 0 100 100;" xml:space="preserve">
<style type="text/css">
	.st0{fill:#BDC3C7;}
	.st1{fill:#E74C3C;}
	.st2{fill:#F57D62;}
</style>
<g>
	<path class="st0" d="M83.6,53.5c1-0.5,1.9-1,2.9-1.5c3-1.5,6.2-2.8,8.6-5.1c1.3-1.2,4.9-6.4,1.4-7.1c-2.6-0.5-5.4,2.9-7.6,3.9
		c-3.6,1.6-7.1,1.3-10.8,0.4c-2-0.5-4.2-1-5.9-1.9c-4.4-2.4-9.1-4.1-12.1-8.5c-3.1-4.5-4.4-10.2-3.4-15.5c0.4-1.9,2-6.5-0.7-8
		c-1.2-0.7-2.4-0.1-3.3,0.5c-3.1,2.2-4.3,10.7-5.1,13.4c-1.4,4.4-2.2,9.6-5.7,12.6C34,43.5,7.1,50.8,5.6,46.9
		C8,47,9.9,44.2,7.9,42.2c-2-2-5,0.6-5.6,2.9c-2.1,7.8,7.4,10.3,13,11.5c2.5,0.5,5.3,0.9,7.9,1.2c2.6,0.3,5.8-0.4,8,1.1
		c5.8,4.1-0.4,14.7-2.6,19.4c-1.3,2.7-7.2,12.1-2.8,14.5c2.6,1.4,6.6-5.5,16.5-12.6c2.8-2,7-3.8,9.9-3.8c5.5,0,7.8,2.2,12.2,5.7
		c3.8,3.1,19.1,15.4,20.1,7.6c0.4-3.6-4.8-8.7-6.6-11.4c-2.2-3.4-4.8-7.5-4.6-11.7c0.2-4.1,3.2-7.9,6.4-10.3
		C80.8,55.1,82.2,54.3,83.6,53.5z"/>
	<g>
		<path class="st1" d="M48.9,7.9c0.9-0.6,2.1-1.2,3.3-0.5c2.7,1.5,1.1,6.1,0.7,8c-1.6,8.4,2.6,16.8,8.3,20.3c3.7,2.3,8.2,3,12.4,2.7
			c13.6-0.9,13.2-6.9,17.1-6.1c4.2,0.9-2.1,10.8-11.2,16.6c-3.7,2.4-8.1,5.1-9.7,9.3c-4.3,11.2,11.4,24,10.8,28.5
			c-0.9,7.8-16.2-4.5-20.1-7.6c-4.4-3.5-6.7-5.7-12.2-5.7c-2.9,0-7.1,1.8-9.9,3.8c-9.9,7.1-13.9,14-16.5,12.6
			c-6.4-3.4,10.5-22.3,7.1-31.6c-1.9-5.3-9.4-6.9-14.4-11.5c-3.1-2.8-7.9-8.3-6.6-12.9c0.6-2.2,3.6-4.9,5.6-2.9
			c2.1,2.1,0.1,4.9-2.3,4.8c1.5,3.8,18.9,4.9,26.8-1.8c3.5-3,4.3-8.2,5.7-12.6C44.7,18.6,45.8,10.1,48.9,7.9z"/>
		<g>
			<path class="st2" d="M48.9,38.3c2.3,0.1,4.1,2,4,4.2c-0.1,2.3-2,4.1-4.2,4c-2.3-0.1-4.1-2-4-4.2C44.7,40,46.6,38.3,48.9,38.3z"/>
			<path class="st2" d="M47.9,28.8c1.9,0.1,3.3,1.6,3.2,3.5c-0.1,1.9-1.6,3.3-3.5,3.2c-1.9-0.1-3.3-1.6-3.2-3.5
				C44.5,30.2,46,28.7,47.9,28.8z"/>
			<path class="st2" d="M47.8,20.8c1.4,0,2.6,1.3,2.5,2.7c0,1.4-1.3,2.6-2.7,2.5c-1.4,0-2.6-1.3-2.5-2.7
				C45.2,21.9,46.4,20.8,47.8,20.8z"/>
			<path class="st2" d="M48.8,14.1c1,0,1.8,0.9,1.8,1.9c0,1-0.9,1.8-1.9,1.8c-1,0-1.8-0.9-1.8-1.9C47,14.9,47.8,14.1,48.8,14.1z"/>
			<path class="st2" d="M50.9,8.6c0.6,0,1.1,0.5,1.1,1.1c0,0.6-0.5,1.1-1.1,1.1c-0.6,0-1.1-0.5-1.1-1.1C49.8,9,50.3,8.6,50.9,8.6z"
				/>
		</g>
		<g>
			<path class="st2" d="M57.7,45.8c2.2,0.1,3.8,1.9,3.8,4c-0.1,2.2-1.9,3.8-4,3.8c-2.2-0.1-3.8-1.9-3.8-4
				C53.8,47.4,55.6,45.7,57.7,45.8z"/>
			<path class="st2" d="M67.6,42.9c1.7,0.1,3.1,1.5,3,3.2c-0.1,1.7-1.5,3.1-3.2,3c-1.7-0.1-3.1-1.5-3-3.2
				C64.4,44.2,65.9,42.9,67.6,42.9z"/>
			<path class="st2" d="M77.6,40.5c1.3,0,2.3,1.1,2.3,2.4c0,1.3-1.1,2.3-2.4,2.3c-1.3,0-2.3-1.1-2.3-2.4
				C75.3,41.5,76.4,40.5,77.6,40.5z"/>
			<path class="st2" d="M85.7,37.8c0.9,0,1.5,0.7,1.5,1.6c0,0.9-0.7,1.5-1.6,1.5c-0.9,0-1.5-0.7-1.5-1.6
				C84.1,38.4,84.8,37.8,85.7,37.8z"/>
			<path class="st2" d="M89.5,34.1c0.4,0,0.8,0.4,0.7,0.8c0,0.4-0.4,0.8-0.8,0.8c-0.4,0-0.8-0.4-0.8-0.8
				C88.7,34.4,89.1,34,89.5,34.1z"/>
		</g>
		<g>
			<path class="st2" d="M40.1,45.7c2.2,0.1,3.9,1.9,3.8,4.1c-0.1,2.2-1.9,3.9-4.1,3.8c-2.2-0.1-3.9-1.9-3.8-4.1
				C36.1,47.3,37.9,45.6,40.1,45.7z"/>
			<path class="st2" d="M30.1,42.8c1.8,0.1,3.2,1.5,3.1,3.3c-0.1,1.8-1.5,3.2-3.3,3.1c-1.8-0.1-3.2-1.5-3.1-3.3
				C26.8,44.1,28.3,42.7,30.1,42.8z"/>
			<path class="st2" d="M19.4,40.9c1.4,0,2.4,1.2,2.4,2.6c0,1.4-1.2,2.4-2.6,2.4c-1.4,0-2.4-1.2-2.4-2.6
				C16.9,42,18.1,40.9,19.4,40.9z"/>
			<path class="st2" d="M11.8,38c1,0,1.7,0.8,1.7,1.8c0,1-0.8,1.7-1.8,1.7c-1,0-1.7-0.8-1.7-1.8C10.1,38.7,10.9,37.9,11.8,38z"/>
			<path class="st2" d="M10.9,31.7c0.6,0,1,0.5,1,1c0,0.6-0.5,1-1,1c-0.6,0-1-0.5-1-1C9.8,32.1,10.3,31.7,10.9,31.7z"/>
		</g>
		<g>
			<path class="st2" d="M59.3,60c-0.1,2.2-1.9,3.9-4.1,3.9c-2.2-0.1-3.9-1.9-3.9-4.1c0.1-2.2,1.9-3.9,4.1-3.9
				C57.6,56,59.4,57.8,59.3,60z"/>
			<path class="st2" d="M65.6,66.9c-0.1,1.8-1.6,3.2-3.4,3.2c-1.8-0.1-3.2-1.6-3.2-3.4c0.1-1.8,1.6-3.2,3.4-3.2
				C64.3,63.6,65.7,65.1,65.6,66.9z"/>
			<path class="st2" d="M70.1,74.6c0,1.4-1.2,2.5-2.6,2.5c-1.4,0-2.5-1.2-2.5-2.6c0-1.4,1.2-2.5,2.6-2.5
				C69.1,72,70.2,73.2,70.1,74.6z"/>
			<path class="st2" d="M74,81.6c0,1-0.9,1.8-1.9,1.7c-1,0-1.8-0.9-1.7-1.9c0-1,0.9-1.8,1.9-1.7C73.2,79.8,74,80.6,74,81.6z"/>
			<path class="st2" d="M78.3,86.5c0,0.6-0.5,1.1-1.1,1c-0.6,0-1.1-0.5-1-1.1c0-0.6,0.5-1.1,1.1-1C77.9,85.4,78.4,85.9,78.3,86.5z"
				/>
		</g>
		<g>
			<path class="st2" d="M43.6,64.4c-2.3-0.1-4.1-2-4-4.3c0.1-2.3,2-4.1,4.3-4c2.3,0.1,4.1,2,4,4.3C47.8,62.6,45.9,64.4,43.6,64.4z"
				/>
			<path class="st2" d="M39.4,71.8c-1.9-0.1-3.3-1.6-3.3-3.5c0.1-1.9,1.6-3.3,3.5-3.3c1.9,0.1,3.3,1.6,3.3,3.5
				C42.8,70.4,41.2,71.9,39.4,71.8z"/>
			<path class="st2" d="M33.3,77.6c-1.5,0-2.6-1.3-2.6-2.7c0-1.5,1.3-2.6,2.7-2.5c1.5,0,2.6,1.3,2.6,2.7
				C36,76.5,34.8,77.7,33.3,77.6z"/>
			<path class="st2" d="M27.3,82.8c-1,0-1.9-0.9-1.8-1.9c0-1,0.9-1.9,1.9-1.8c1,0,1.9,0.9,1.8,1.9C29.2,82,28.3,82.8,27.3,82.8z"/>
			<path class="st2" d="M22.9,88.3c-0.6,0-1.1-0.5-1.1-1.2c0-0.6,0.5-1.1,1.2-1.1c0.6,0,1.1,0.5,1.1,1.2
				C24.1,87.8,23.6,88.3,22.9,88.3z"/>
		</g>
	</g>
</g>
</svg>
