<?xml version="1.0" encoding="utf-8"?>
<!-- Generator: Adobe Illustrator 26.0.1, SVG Export Plug-In . SVG Version: 6.00 Build 0)  -->
<svg version="1.1" id="Layer_1" xmlns="http://www.w3.org/2000/svg" xmlns:xlink="http://www.w3.org/1999/xlink" x="0px" y="0px"
	 viewBox="0 0 100 100" style="enable-background:new 0 0 100 100;" xml:space="preserve">
<style type="text/css">
	.st0{fill:#BDC3C7;}
	.st1{fill:#E74C3C;}
	.st2{fill:#FFFFFF;}
	.st3{fill:#EA6872;}
	.st4{fill:#ECF0F1;}
</style>
<g>
	<path class="st0" d="M50,50L50,50l20.4,46.6c8.1-12.2,14.7-19.4,27.1-27.9L50,50z"/>
	<path class="st1" d="M50,50L50,50l20.4,46.6c-14.6-2.4-24.3-2.5-39,0.7L50,50z"/>
	<path class="st2" d="M50,50L50,50L29.6,3.4C21.4,15.6,14.8,22.8,2.5,31.4L50,50z"/>
	<path class="st3" d="M50,50L50,50L29.6,3.4c14.6,2.4,24.3,2.5,39-0.7L50,50z"/>
	<path class="st4" d="M50,50L50,50l46.7-20.2c-12.3-8.1-19.5-14.7-28.1-27L50,50z"/>
	<path class="st1" d="M50,50L50,50l46.7-20.2c-2.4,14.5-2.4,24.2,0.8,38.9L50,50z"/>
	<path class="st4" d="M50,50L50,50L3.3,70.2c12.3,8.1,19.5,14.7,28.2,27L50,50z"/>
	<path class="st3" d="M50,50L50,50L3.3,70.2C5.6,55.8,5.7,46,2.5,31.4L50,50z"/>
</g>
</svg>
