<?xml version="1.0" encoding="UTF-8"?><svg xmlns="http://www.w3.org/2000/svg" xmlns:xlink="http://www.w3.org/1999/xlink" viewBox="0 0 320.6 256.98"><defs><style>.cls-1{fill:url(#linear-gradient);}.cls-2{fill:#fff;}.cls-3{fill:#fff5d9;}.cls-4{fill:#dd8678;}.cls-5{fill:#d9eafe;}.cls-6{fill:#d7cfbb;}.cls-6,.cls-7,.cls-8{opacity:.5;}.cls-6,.cls-8{mix-blend-mode:multiply;}.cls-9{fill:url(#linear-gradient-4);}.cls-9,.cls-10,.cls-7{mix-blend-mode:screen;}.cls-10{fill:url(#linear-gradient-6);}.cls-11{fill:url(#linear-gradient-8);}.cls-12{fill:url(#linear-gradient-9);}.cls-13{fill:url(#linear-gradient-3);}.cls-14{fill:url(#linear-gradient-2);}.cls-15{fill:url(#linear-gradient-7);}.cls-16{fill:url(#linear-gradient-5);}.cls-17{fill:url(#linear-gradient-41);}.cls-18{fill:url(#linear-gradient-40);}.cls-19{fill:url(#linear-gradient-43);}.cls-20{fill:url(#linear-gradient-42);}.cls-21{fill:url(#linear-gradient-45);}.cls-22{fill:url(#linear-gradient-46);}.cls-23{fill:url(#linear-gradient-44);}.cls-24{fill:url(#linear-gradient-47);}.cls-25{fill:url(#linear-gradient-48);}.cls-26{fill:url(#linear-gradient-14);}.cls-27{fill:url(#linear-gradient-18);}.cls-28{fill:url(#linear-gradient-22);}.cls-29{fill:url(#linear-gradient-20);}.cls-30{fill:url(#linear-gradient-21);}.cls-31{fill:url(#linear-gradient-23);}.cls-32{fill:url(#linear-gradient-15);}.cls-33{fill:url(#linear-gradient-19);}.cls-34{fill:url(#linear-gradient-16);}.cls-35{fill:url(#linear-gradient-17);}.cls-36{fill:url(#linear-gradient-13);}.cls-37{fill:url(#linear-gradient-12);}.cls-38{fill:url(#linear-gradient-10);}.cls-39{fill:url(#linear-gradient-11);}.cls-40{fill:url(#linear-gradient-27);}.cls-41{fill:url(#linear-gradient-24);}.cls-42{fill:url(#linear-gradient-26);}.cls-43{fill:url(#linear-gradient-38);}.cls-44{fill:url(#linear-gradient-35);}.cls-45{fill:url(#linear-gradient-37);}.cls-46{fill:url(#linear-gradient-34);}.cls-47{fill:url(#linear-gradient-39);}.cls-48{fill:url(#linear-gradient-36);}.cls-49{fill:url(#linear-gradient-25);}.cls-50{fill:url(#linear-gradient-28);}.cls-51{fill:url(#linear-gradient-29);}.cls-52{fill:url(#linear-gradient-33);}.cls-53{fill:url(#linear-gradient-30);}.cls-54{fill:url(#linear-gradient-32);}.cls-55{fill:url(#linear-gradient-31);}.cls-56{isolation:isolate;}</style><linearGradient id="linear-gradient" x1="294.35" y1="246.73" x2="21.44" y2="246.73" gradientTransform="matrix(1, 0, 0, 1, 0, 0)" gradientUnits="userSpaceOnUse"><stop offset="0" stop-color="#e2f4ff"/><stop offset="1" stop-color="#d7ecff"/></linearGradient><linearGradient id="linear-gradient-2" x1="275.81" y1="116.8" x2="262.3" y2="160.4" gradientTransform="matrix(1, 0, 0, 1, 0, 0)" gradientUnits="userSpaceOnUse"><stop offset=".02" stop-color="#45d8c3"/><stop offset="1" stop-color="#34c8be"/></linearGradient><linearGradient id="linear-gradient-3" x1="262.02" y1="193.5" x2="314.89" y2="193.5" xlink:href="#linear-gradient"/><linearGradient id="linear-gradient-4" x1="267.35" y1="196.36" x2="306.15" y2="196.36" gradientTransform="matrix(1, 0, 0, 1, 0, 0)" gradientUnits="userSpaceOnUse"><stop offset="0" stop-color="#8ad3ff"/><stop offset="1" stop-color="#5f9cff"/></linearGradient><linearGradient id="linear-gradient-5" x1="236.27" y1="197.34" x2="297.65" y2="197.34" gradientTransform="matrix(1, 0, 0, 1, 0, 0)" gradientUnits="userSpaceOnUse"><stop offset=".04" stop-color="#ffd744"/><stop offset="1" stop-color="#f5c144"/></linearGradient><linearGradient id="linear-gradient-6" x1="2133.04" y1="452.6" x2="2194.71" y2="452.6" gradientTransform="translate(2480.22 273.66) rotate(-166.19) scale(1 -1)" xlink:href="#linear-gradient-2"/><linearGradient id="linear-gradient-7" x1="105.23" y1="155.45" x2="266.52" y2="155.45" gradientTransform="matrix(1, 0, 0, 1, 0, 0)" gradientUnits="userSpaceOnUse"><stop offset=".02" stop-color="#20b09e"/><stop offset="1" stop-color="#28baab"/></linearGradient><linearGradient id="linear-gradient-8" x1="160.19" y1="71.34" x2="160.19" y2="120.81" xlink:href="#linear-gradient-5"/><linearGradient id="linear-gradient-9" x1="150.73" y1="147.6" x2="185.98" y2="281.47" xlink:href="#linear-gradient-2"/><linearGradient id="linear-gradient-10" x1="449.43" y1="-100.04" x2="464.61" y2="-100.04" gradientTransform="translate(-250.03 602.82) rotate(-37.85)" gradientUnits="userSpaceOnUse"><stop offset="0" stop-color="#294698"/><stop offset="1" stop-color="#0e4ba6"/></linearGradient><linearGradient id="linear-gradient-11" x1="-243.52" y1="241.4" x2="-225.01" y2="241.4" gradientTransform="translate(264.44)" xlink:href="#linear-gradient-10"/><linearGradient id="linear-gradient-12" x1="40.73" y1="126.06" x2="43.09" y2="231" gradientTransform="matrix(1, 0, 0, 1, 0, 0)" gradientUnits="userSpaceOnUse"><stop offset="0" stop-color="#263884"/><stop offset="1" stop-color="#193f92"/></linearGradient><linearGradient id="linear-gradient-13" x1="25.4" y1="126.56" x2="27.76" y2="230.88" gradientTransform="matrix(1, 0, 0, 1, 0, 0)" xlink:href="#linear-gradient-10"/><linearGradient id="linear-gradient-14" x1="37.19" y1="71.79" x2="56.5" y2="71.79" xlink:href="#linear-gradient-5"/><linearGradient id="linear-gradient-15" x1="41.04" y1="73.67" x2="55.54" y2="70" xlink:href="#linear-gradient-5"/><linearGradient id="linear-gradient-16" x1="40.31" y1="72.61" x2="55.14" y2="68.86" xlink:href="#linear-gradient-5"/><linearGradient id="linear-gradient-17" x1="32.66" y1="157.52" x2="25.64" y2="69.78" xlink:href="#linear-gradient-5"/><linearGradient id="linear-gradient-18" x1="12.24" y1="73.42" x2="43.34" y2="73.42" xlink:href="#linear-gradient-5"/><linearGradient id="linear-gradient-19" x1="13.56" y1="86.38" x2="44.58" y2="86.38" xlink:href="#linear-gradient-5"/><linearGradient id="linear-gradient-20" x1="14.44" y1="100.78" x2="45.42" y2="100.78" xlink:href="#linear-gradient-5"/><linearGradient id="linear-gradient-21" x1="14.2" y1="115.29" x2="46.39" y2="115.29" xlink:href="#linear-gradient-5"/><linearGradient id="linear-gradient-22" x1="12.89" y1="128.72" x2="48.38" y2="128.72" xlink:href="#linear-gradient-5"/><linearGradient id="linear-gradient-23" x1="23.74" y1="49.22" x2="40.71" y2="49.22" gradientTransform="matrix(1, 0, 0, 1, 0, 0)" xlink:href="#linear-gradient-10"/><linearGradient id="linear-gradient-24" x1="11.34" y1="81.17" x2="26.49" y2="81.17" xlink:href="#linear-gradient-5"/><linearGradient id="linear-gradient-25" x1="23.72" y1="73.09" x2="8.29" y2="77.97" xlink:href="#linear-gradient-5"/><linearGradient id="linear-gradient-26" x1="27.43" y1="85.56" x2="11.9" y2="90.48" xlink:href="#linear-gradient-5"/><linearGradient id="linear-gradient-27" x1="70.57" y1="2.19" x2="70.57" y2="33.37" xlink:href="#linear-gradient"/><linearGradient id="linear-gradient-28" x1="212.38" y1="23.89" x2="212.38" y2="46.76" xlink:href="#linear-gradient"/><linearGradient id="linear-gradient-29" x1="733.56" y1="98.64" x2="749.88" y2="98.64" gradientTransform="translate(-494.1 438.09) rotate(-40.29)" xlink:href="#linear-gradient"/><linearGradient id="linear-gradient-30" x1="734.9" y1="89.45" x2="738.55" y2="89.45" gradientTransform="translate(-494.1 438.09) rotate(-40.29)" xlink:href="#linear-gradient"/><linearGradient id="linear-gradient-31" x1="737.55" y1="92.01" x2="746.76" y2="92.01" gradientTransform="translate(-494.1 438.09) rotate(-40.29)" xlink:href="#linear-gradient"/><linearGradient id="linear-gradient-32" x1="737.43" y1="93.9" x2="746.64" y2="93.9" gradientTransform="translate(-494.1 438.09) rotate(-40.29)" xlink:href="#linear-gradient"/><linearGradient id="linear-gradient-33" x1="737.3" y1="95.8" x2="746.51" y2="95.8" gradientTransform="translate(-494.1 438.09) rotate(-40.29)" xlink:href="#linear-gradient"/><linearGradient id="linear-gradient-34" x1="737.18" y1="97.69" x2="746.39" y2="97.69" gradientTransform="translate(-494.1 438.09) rotate(-40.29)" xlink:href="#linear-gradient"/><linearGradient id="linear-gradient-35" x1="737.05" y1="99.59" x2="746.26" y2="99.59" gradientTransform="translate(-494.1 438.09) rotate(-40.29)" xlink:href="#linear-gradient"/><linearGradient id="linear-gradient-36" x1="736.92" y1="101.48" x2="746.13" y2="101.48" gradientTransform="translate(-494.1 438.09) rotate(-40.29)" xlink:href="#linear-gradient"/><linearGradient id="linear-gradient-37" x1="736.8" y1="103.38" x2="746.01" y2="103.38" gradientTransform="translate(-494.1 438.09) rotate(-40.29)" xlink:href="#linear-gradient"/><linearGradient id="linear-gradient-38" x1="736.67" y1="105.27" x2="745.88" y2="105.27" gradientTransform="translate(-494.1 438.09) rotate(-40.29)" xlink:href="#linear-gradient"/><linearGradient id="linear-gradient-39" x1="-267.34" y1="469.61" x2="-251.19" y2="469.61" gradientTransform="translate(782.5 -141.53) rotate(38.26)" xlink:href="#linear-gradient"/><linearGradient id="linear-gradient-40" x1="-267.12" y1="459.68" x2="-263.72" y2="459.68" gradientTransform="translate(782.5 -141.53) rotate(38.26)" xlink:href="#linear-gradient"/><linearGradient id="linear-gradient-41" x1="-264.33" y1="462.9" x2="-255.16" y2="462.9" gradientTransform="translate(782.5 -141.53) rotate(38.26)" xlink:href="#linear-gradient"/><linearGradient id="linear-gradient-42" x1="-264.2" y1="464.81" x2="-255.04" y2="464.81" gradientTransform="translate(782.5 -141.53) rotate(38.26)" xlink:href="#linear-gradient"/><linearGradient id="linear-gradient-43" x1="-264.08" y1="466.71" x2="-254.91" y2="466.71" gradientTransform="translate(782.5 -141.53) rotate(38.26)" xlink:href="#linear-gradient"/><linearGradient id="linear-gradient-44" x1="-263.95" y1="468.61" x2="-254.79" y2="468.61" gradientTransform="translate(782.5 -141.53) rotate(38.26)" xlink:href="#linear-gradient"/><linearGradient id="linear-gradient-45" x1="-263.83" y1="470.52" x2="-254.66" y2="470.52" gradientTransform="translate(782.5 -141.53) rotate(38.26)" xlink:href="#linear-gradient"/><linearGradient id="linear-gradient-46" x1="-263.71" y1="472.42" x2="-254.54" y2="472.42" gradientTransform="translate(782.5 -141.53) rotate(38.26)" xlink:href="#linear-gradient"/><linearGradient id="linear-gradient-47" x1="-263.58" y1="474.33" x2="-254.42" y2="474.33" gradientTransform="translate(782.5 -141.53) rotate(38.26)" xlink:href="#linear-gradient"/><linearGradient id="linear-gradient-48" x1="-263.46" y1="476.23" x2="-254.29" y2="476.23" gradientTransform="translate(782.5 -141.53) rotate(38.26)" xlink:href="#linear-gradient"/></defs><g class="cls-56"><g id="Layer_2"><g id="obj"><g><ellipse class="cls-1" cx="160.3" cy="246.73" rx="160.3" ry="10.25"/><g><path class="cls-14" d="M263.55,165.3c2.79-.57,2.78-4.25,2.78-4.25-2.7,1.48-2.78,4.25-2.78,4.25Zm6.93-6.06c-2.59-3.81-5.87-3.76-5.87-3.76,1.54,3.99,5.87,3.76,5.87,3.76Zm2.01-6.81c-2.58-6.22-7.45-6.41-7.45-6.41,.99,6.43,7.45,6.41,7.45,6.41Zm-30.9,4.35c3.7,1.81,6.19-2.59,6.19-2.59-4.21-.64-6.19,2.59-6.19,2.59Zm21.94-2.42c-3.03,2.65-1.82,7.42-1.82,7.42,2.63-3.77,1.82-7.42,1.82-7.42Zm11.62-10.06c-1.55-6.66-6.31-7.86-6.31-7.86-.05,6.53,6.31,7.86,6.31,7.86Zm-16.66,5c-2.69,3.77-1.33,7.4-1.33,7.4,3.29-2.66,1.33-7.4,1.33-7.4Zm-6.92-.84c-1.13,3.18,.44,5.29,.44,5.29,1.73-2.57-.44-5.29-.44-5.29Zm36.12-27.64c.59-3.36-1.3-5.1-1.3-5.1-1.28,2.9,1.3,5.1,1.3,5.1Zm7.22-4.65c-4.23,.46-5.52,4.12-5.52,4.12,3.96,.81,5.52-4.12,5.52-4.12Zm-12.32,.71c-1.32,4.1,1.93,7.39,1.93,7.39,.46-4.8-1.93-7.39-1.93-7.39Zm-2.2,15.76c-1.55-6.66-6.31-7.86-6.31-7.86-.05,6.53,6.31,7.86,6.31,7.86Zm2.36-4.58c-1.47-4.52-4.62-5.6-4.62-5.6,.43,4.34,4.62,5.6,4.62,5.6Zm-4.8,8.36c-2.59-3.81-5.87-3.76-5.87-3.76,1.54,3.99,5.87,3.76,5.87,3.76Zm6.62-3.36c3.02,2.66,6.73,.08,6.73,.08-3.86-1.93-6.73-.08-6.73-.08Zm-3.44,6.23c3.86,4.8,9.29,.77,9.29,.77-5.11-3.63-9.29-.77-9.29-.77Zm-2.67,7.84c3.86,4.8,9.29,.77,9.29,.77-5.11-3.63-9.29-.77-9.29-.77Zm-1.56,7.82c3.1,2.95,6.57-.46,6.57-.46-3.88-2-6.57,.46-6.57,.46Zm-4.58,14.81c4.75,3.6,9.18-1.8,9.18-1.8-5.72-2.12-9.18,1.8-9.18,1.8Zm15.26-42.39c1.24,2.92,4.33,1.9,4.33,1.9-1.98-2.57-4.33-1.9-4.33-1.9Zm3.22-3.94c2.61,1.27,4.35-1.83,4.35-1.83-2.97-.45-4.35,1.83-4.35,1.83Zm-10.19,39.18c-3.86-1.93-6.73-.08-6.73-.08,3.02,2.66,6.73,.08,6.73,.08Zm-33.87-.28c3.97,.75,5.47-4.2,5.47-4.2-4.23,.52-5.47,4.2-5.47,4.2Zm8.31,12.15c3.52,2.24,6.39-1.84,6.39-1.84-4.13-1.14-6.39,1.84-6.39,1.84Zm.71-12.82c-2.99-.16-4.2,2.25-4.2,2.25,2.69,1.01,4.2-2.25,4.2-2.25Zm3.58,4.72c-4.23,.52-5.47,4.2-5.47,4.2,3.97,.75,5.47-4.2,5.47-4.2Zm29.31-43.26l-.43-.41c-12.88,17.84-18.29,40.83-20.57,56.97-.29,2.08-.54,4.11-.75,6.06-.4-2.94-1.26-7.94-2.91-13.08-3.42-10.63-8.68-17-15.21-18.4l-.1,.63c14.76,3.17,17.74,31.05,17.96,33.41-1.25,13.09-.85,22.32-.84,22.43l.56-.03c0-.11-.41-9.28,.84-22.29h.02s0-.04,0-.11c.26-2.69,.59-5.55,1.01-8.52,2.26-16.06,7.64-38.93,20.44-56.66Zm-34.46,54.93c3.38,5.25,9.16,1.93,9.16,1.93-4.73-4.25-9.16-1.93-9.16-1.93Z"/><g><path class="cls-13" d="M285.93,219.2c-16.1,.91-19.65,12.21-23.08,8.84-.18-.17-.32-.35-.44-.54-2.07-3.27,4.65-8.59,4.62-26.24-.01-11.17-.55-31.82,6.46-33.77,6-1.66,3.91,15.18,12.46,13.47,6.22-1.24-2.02-14.24,3.51-16.76,6.13-2.79,5.97,10.76,11.14,7.04,5.16-3.72,6.82-15.61,11.49-12.36,.07,.05,.14,.11,.2,.16,4.31,3.34-.19,11.09-3.36,16-3.22,4.99-4.48,6.26-3.06,7.27,1.42,1.01,9.48-.36,8.97,5.54-.51,5.9-14.18,4.85-18.45,11.1-4.28,6.25,8.98,3.17,6.16,10.29-1.63,4.09-8.65,9.52-16.65,9.97Z"/><polygon class="cls-9" points="296.61 208.58 280.02 207.27 291.62 191.21 291.62 191.24 305.05 188.67 292.6 189.85 306.15 171.1 297.75 181.63 293.86 173.04 296.96 182.62 284.16 198.69 275.18 180.9 283.41 199.63 267.35 219.94 269.04 221.63 279.18 208.44 296.61 208.58"/></g><g><path class="cls-16" d="M237.17,210.65c.04,.17,.08,.34,.12,.52,1.63,6.32,5.34,13.7,12.03,21.28,4.42,5.02,9.29,7.67,13.9,8.95,.12,.03,.23,.07,.35,.09,.42,.11,.83,.21,1.25,.3,9.07,1.95,18.38-1.72,24.81-9.31,4.42-5.21,9-11.66,7.82-14.9-.04-.13-.1-.25-.17-.37,0-.02-.02-.03-.02-.05-2.95-5.06-9.26-3.88-11.58-5.19-.11-.07-.22-.13-.31-.21-.08-.07-.16-.14-.23-.22-1.68-2.01,5.96-6.34,5.85-12.97,0-.42-.04-.81-.1-1.18-.02-.16-.05-.31-.08-.45-1.01-4.75-6.04-4.03-6.56-6.2-.03-.11-.05-.22-.05-.34,0-.12,0-.26,0-.41,.08-2.37,1.14-7.24,2.08-12.7,.03-.16,.06-.33,.08-.49,.84-4.96,1.56-10.36,1.34-14.81,0-.14-.02-.28-.03-.42-.27-4.2-1.42-7.51-4.16-8.69-.08-.04-.17-.08-.26-.11-.03-.01-.06-.02-.09-.03-2.83-1.02-5.68,.12-8.34,2.48-.14,.13-.29,.26-.43,.4h0c-5.16,4.9-9.51,14.34-11.34,21.43-.06,.23-.11,.46-.17,.68-.26,1.06-.45,2.06-.58,2.98-.7,5.01-2.13,10.27-3.7,14.43-.06,.18-.14,.37-.21,.55-1.5,3.88-3.1,6.68-4.27,7.2-.08,.03-.16,.06-.24,.07-.04,0-.07,0-.11,0-2.22,0-9.27-10.52-13.66-9.33-.11,.03-.23,.07-.34,.12-.53,.23-1.02,.64-1.45,1.3-2.06,3.16-2.86,8.73-1.19,15.59Z"/><path class="cls-10" d="M237.17,210.65c.04,.17,.08,.34,.12,.52,2.53,1.4,5.36,2.4,7.79,3.08,3.33,.94,5.91,1.3,5.96,1.3v-.09c6.16,6.9,12.54,10.37,13.87,11.05-1.03,7.9-1.57,13.49-1.7,14.88-.02,.2-.03,.31-.03,.33l.35,.04s.01-.12,.03-.28c.08-.84,.33-3.51,.79-7.46,2.03-.64,24.22-7.76,33.1-16.44-.04-.13-.1-.25-.17-.37-3.9,3.84-10.45,7.38-16.7,10.19,.42-1.87,2.66-11.58,5.09-15.42l-.31-.21c-2.66,4.25-5.01,14.97-5.19,15.81-7.4,3.3-14.29,5.54-15.78,6.01,.78-6.71,2.1-16.9,4.08-28.16,.29,.1,.58,.2,.87,.28,9.67,2.72,19.31-6.09,21.55-8.31-.02-.16-.05-.31-.08-.45-1.17,1.18-5.34,5.2-10.26,7.3,.35-1.82,1.96-9.77,3.7-13.5-.03-.11-.05-.22-.05-.34,0-.12,0-.26,0-.41-1.88,3.97-3.83,13.28-4.05,14.42-3.48,1.41-7.52,2.06-11.6,.61,1.5-8.49,3.36-17.57,5.64-26.19,1.36,.05,8.4,.23,12.09-1.55,.03-.16,.06-.33,.08-.49-3.42,1.79-10.5,1.68-12.06,1.63,1.33-5,2.8-9.83,4.42-14.32l.03,.05s3.64-2.8,8.95-2.18c0-.14-.02-.28-.03-.42-4.46-.49-7.73,1.33-8.77,2.01,1.42-3.89,2.96-7.5,4.61-10.7-.08-.04-.17-.08-.26-.11-.03-.01-.06-.02-.09-.03-2.33,4.54-4.44,9.89-6.32,15.69-.47-1.41-2.94-9.11-2.02-13.21-.14,.13-.29,.26-.43,.4h0c-.74,4.75,2.06,12.79,2.2,13.2l.15-.07c-2.41,7.48-4.46,15.69-6.17,23.81-.95-1.46-5.51-8.73-7.53-15.51-.06,.23-.11,.46-.17,.68,2.36,7.46,7.53,15.25,7.58,15.34h0c-1.15,5.49-2.15,10.93-3.01,16.08-1.27-1.3-6.8-7.2-8.86-14.01-.06,.18-.14,.37-.21,.55,2.29,7.06,8.09,13.04,8.98,13.93-1,6.04-1.81,11.67-2.43,16.47-1.21-.62-5.57-3.04-10.39-7.56,.08-.86,.79-8.51-.43-15.64-.08,.03-.16,.06-.24,.07-.04,0-.07,0-.11,0,1.12,6.6,.59,13.64,.45,15.25-5.52-5.27-11.56-13.31-14.11-24.58-.11,.03-.23,.07-.34,.12,2.07,9.14,6.41,16.17,10.93,21.34-1.6-.25-8.31-1.45-13.56-4.45Z"/></g></g><g><path class="cls-15" d="M266.52,74.52l-.04,9.09-.12,153.74c0,2.11-1.5,3.82-3.34,3.81l-157.79-.74V89.3c0-3.54,2.51-6.41,5.6-6.4l54.34,.26,61.92,.29,2.35-4.99,3.01-6.38c.68-1.45,2.01-2.38,3.48-2.36l26.54,.11c2.25,.02,4.04,2.1,4.04,4.69Z"/><rect class="cls-11" x="118.68" y="66.88" width="83.02" height="99.92" rx="27.86" ry="27.86"/><path class="cls-2" d="M143.51,80.94c-1.55,0-2.81,1.44-2.81,3.22s1.26,3.22,2.81,3.22,2.81-1.44,2.81-3.22-1.26-3.22-2.81-3.22Zm33.36,0c-1.55,0-2.81,1.44-2.81,3.22s1.26,3.22,2.81,3.22,2.81-1.44,2.81-3.22-1.26-3.22-2.81-3.22Zm-16.68,18.99c-5.21,0-9.95,1.91-12.69,5.11-.44,.51-.43,1.33,.02,1.82,.22,.25,.5,.37,.79,.37s.58-.13,.8-.39c2.29-2.67,6.53-4.33,11.08-4.33s8.8,1.66,11.08,4.33c.43,.51,1.15,.52,1.59,.02,.44-.5,.45-1.32,.02-1.82-2.74-3.2-7.48-5.11-12.69-5.11Z"/><path class="cls-12" d="M261.1,243.39l-169.87,.79c-2.28,.01-4.3-1.65-5.03-4.12l-27.37-93.62-6.36-21.76c-1.15-3.91,1.38-7.96,4.98-7.97l4.1-.02,165.78-.78c2.27-.01,4.3,1.65,5.02,4.13l31.88,109.01,.82,2.78,1.05,3.59c1.14,3.91-1.39,7.95-4.98,7.97Z"/></g><g><ellipse class="cls-2" cx="222.39" cy="122.16" rx="23.22" ry="26.62"/><g><path class="cls-5" d="M213.85,134.39c-.34,0-.68-.15-.93-.44-.51-.59-.51-1.55,0-2.14l17.89-20.51c.51-.59,1.35-.59,1.86,0,.51,.59,.51,1.55,0,2.14l-17.89,20.51c-.26,.29-.6,.44-.93,.44Z"/><path class="cls-5" d="M231.73,134.39c-.34,0-.68-.15-.93-.44l-17.89-20.51c-.51-.59-.51-1.55,0-2.14,.51-.59,1.35-.59,1.86,0l17.89,20.51c.51,.59,.51,1.55,0,2.14-.26,.29-.6,.44-.93,.44Z"/></g></g><g><g><path class="cls-4" d="M35.43,122.23c-3.52,.16-6.24,3.93-5.94,8.18,.24,3.38,.97,7.83,2.74,13.27,4.43,13.59,6.48,30.75,11.36,31.96,4.88,1.21,8.52-8.16,6.38-22.15-1.93-12.65-2.76-28.79-6.19-30.47-1.74-.85-5.28-.92-8.36-.78Z"/><g><path class="cls-4" d="M46.79,172.3c-9.83-7-6.07,46.59-2.72,60.87,3.35,14.29,5.45,2.13,5.94-21.14,.49-23.28,.65-36.98-3.21-39.73Z"/><polygon class="cls-4" points="42.68 228.38 43.22 237.53 49.42 237.59 49.82 229.01 42.68 228.38"/><path class="cls-38" d="M49.71,235.87s1.37,2.88,5.88,6.58c4.51,3.7,5.64,2.83,5.78,4.26,.14,1.43-18.32,.82-18.32,.82l-.03-11.8s6.68-.16,6.69,.15Z"/></g><path class="cls-4" d="M22.35,121.56c-3.82-.61-7.27,2.66-7.52,7.07-.2,3.51,0,8.23,1.18,14.2,2.96,14.89,2.87,32.92,7.98,35.24,5.12,2.31,10.31-6.49,9.88-21.29-.39-13.38,.89-30.1-2.59-32.57-1.76-1.26-5.59-2.11-8.93-2.64Z"/><g><path class="cls-4" d="M28.28,170.78c-9.77-7.89-8.58,45.42-5.88,60.39,2.71,14.96,5.38,4.77,7.11-19.2,1.73-23.96,2.61-38.08-1.23-41.19Z"/><polygon class="cls-4" points="21.12 229.6 21.28 235.45 28.01 235.92 28.04 229.94 21.12 229.6"/><path class="cls-39" d="M28.21,235.55s1.05,2.98,5.5,6.87c4.45,3.89,5.62,3.05,5.72,4.5,.1,1.45-18.51,.19-18.51,.19l.28-11.91s7,.04,7,.35Z"/></g><path class="cls-37" d="M30.03,127.78s-3.38,8.8,7.97,50.34c0,0-.6,14.68,1.93,52.7h11.35s1.32-44.68,1.85-53.8c.54-9.28-6.08-51.09-6.08-51.09l-17.03,1.86Z"/><path class="cls-36" d="M15.06,127.78s-5.07,13.88,3.86,49.64c0,0-.72,27,.24,53.39h11.35s3.69-44.26,4.23-53.39c.54-9.28,2.78-51.14,2.78-51.14l-22.47,1.49Z"/><g><path class="cls-4" d="M37.34,77.67c.98,1.05,2.45,1.24,3.69,.69,5.59-2.46,28.15-11.8,26.8-16.62-1.59-5.67-21.43,4.39-25.8,7.6-3.64,2.67-7.06,5.79-4.7,8.33Z"/><path class="cls-4" d="M68.21,58.29c-.24-1.46-1.23-2.6-2.44-3.12-5.66-2.43-25.88-10.9-27.69-8.74-2.11,2.51,26.71,16.34,28.05,15.3,1-.78,2.41-1.45,2.09-3.44Z"/><path class="cls-4" d="M50.94,62.96s7.8-2.37,7.8-2.7c0-1.07-14.59-8.13-14.59-8.13l2.27-5.1s14.79,5.77,17.71,7.08,6.02,2.7,5.91,8.09c-.11,5.39-15.42,12.69-15.42,12.69l-3.67-11.93Z"/><polyline class="cls-4" points="43.82 45.64 46.41 47.04 44.14 52.14 41.57 50.33"/></g><path class="cls-26" d="M56.5,75.49c-1.16,.59-2.34,1.18-3.48,1.72-1.77,.85-3.45,1.62-4.88,2.28-2.59,1.17-4.37,1.97-4.37,2.12l-2.61-5.93h0l-3.96-9.03s.62-.21,1.6-.54c1.49-.49,3.8-1.27,6.07-2.03,1.86-.61,3.69-1.21,5.02-1.63,.66-.2,1.2-.36,1.54-.46l5.07,13.51Z"/><g class="cls-8"><path class="cls-32" d="M48.14,79.49c-2.59,1.17-4.37,1.97-4.37,2.12l-2.61-5.93h0c-.55-3.14-1.32-6.4-2.36-9.58,1.49-.49,3.8-1.27,6.07-2.03,.62,1.94,1.15,3.89,1.6,5.82,.77,3.32,1.31,6.57,1.67,9.6Z"/></g><g class="cls-8"><path class="cls-34" d="M56.5,75.49c-1.16,.59-2.34,1.18-3.48,1.72-.54-4.6-1.49-9.79-3.13-14.77,.66-.2,1.2-.36,1.54-.46l5.07,13.51Z"/></g><path class="cls-4" d="M41.88,49.83l-.31,.5h0l-2.13,.23c-.55,.05-1.09-.04-1.6-.29l-1.94-1.67s-.11-.85,1.16-.25c.33,.16,.9,.05,1.36-.07l-1.18-.78-2.77-2.16c-.71-.55-1.21-1.88-.68-2.87,0,0,.84-1.33,2.43-.97l2.25,.28c1.14,.38,2.09,.43,3.01,1.28l2.34,2.58-1.93,4.19Z"/><path class="cls-35" d="M48.66,131.56c-1.4,3.56-35.85,5.03-35.84,4.18,0-.8,.04-1.6,.08-2.4,.11-2.4,.35-4.82,.62-7.23,.21-1.95,.43-3.89,.62-5.83,.03-.29,.05-.59,.08-.89,.21-2.42,.34-4.85,.4-7.28,.08-2.37,.09-4.74,.05-7.12-.03-2.47-.11-4.94-.22-7.41-.1-2.46-.24-4.92-.38-7.38-.04-.7-.08-1.38-.12-2.08-.02-.29-.04-.58-.05-.88-.1-1.6-.2-3.05-.3-4.23,0-.1-.02-.2-.03-.29-.08-.92-.16-1.63-.23-2.11-.06-.31-.11-.62-.17-.94-.2-1.3-.39-2.48-.55-3.54-.23-1.56-.39-2.83-.38-3.71,.02-1.37,.8-2.47,1.95-3.33,2.72-2.03,7.54-2.76,9.56-2.84,.81-.02,1.33,0,1.35,.01,.04,.02,10.54,.73,10.54,.73,0-.13,.74-.32,.74-.32,1.38-.35,2.95,.8,4.13,2.22,.44,.53,.83,1.1,1.13,1.64,.69,1.24,1.27,3.13,1.69,4.96,.29,1.26,.5,2.5,.61,3.46,.04,.38,.1,1.12,.17,2.16,.12,1.76,.28,4.38,.47,7.52,.11,2.03,.25,4.27,.39,6.63,.14,2.44,.3,5.01,.46,7.6,.14,2.28,.29,4.59,.43,6.82,.18,2.65,.36,5.23,.54,7.6,.04,.61,.1,1.23,.14,1.81,.1,1.19,.24,2.36,.41,3.48,.45,3.02,1.09,5.66,1.44,7.29,.21,.93,.33,1.52,.27,1.67Z"/><g class="cls-7"><path class="cls-27" d="M43.34,75.52c-2.77,.96-5.6,1.57-8.4,1.95-8.92,1.18-17.44-.19-22.32-1.3-.23-1.56-.39-2.83-.38-3.71,.02-1.37,.8-2.47,1.95-3.33,5.71,1.25,16.54,2.81,26.33-.21,.44,.53,.83,1.1,1.13,1.64,.69,1.24,1.27,3.13,1.69,4.96Z"/><path class="cls-33" d="M44.58,88.65c-4.63,1.85-9.5,2.69-14.13,2.91-6.32,.31-12.18-.48-16.39-1.34-.04-.7-.08-1.38-.12-2.08-.02-.29-.04-.58-.05-.88-.1-1.6-.2-3.05-.3-4.23,0-.1-.02-.2-.03-.29,6.58,1.49,19.81,3.43,30.55-1.61,.12,1.76,.28,4.38,.47,7.52Z"/><path class="cls-29" d="M45.42,102.88c-4.88,2.11-10.05,3.04-14.95,3.31-6.03,.32-11.66-.38-15.81-1.18-.03-2.47-.11-4.94-.22-7.41,7.02,1.47,20.11,3.05,30.52-2.32,.14,2.44,.3,5.01,.46,7.6Z"/><path class="cls-30" d="M46.39,117.31c-5.05,2.28-10.46,3.26-15.56,3.51-6.44,.31-12.4-.53-16.62-1.41,.21-2.42,.34-4.85,.4-7.28,7.07,1.52,20.62,3.29,31.24-2.42,.18,2.65,.36,5.23,.54,7.6Z"/><path class="cls-28" d="M48.38,129.89c-5.59,3.11-11.76,4.46-17.56,4.84-7.12,.47-13.68-.48-17.92-1.38,.11-2.4,.35-4.82,.62-7.23,7.03,1.5,22.26,3.56,33.43-3.52,.45,3.02,1.09,5.66,1.44,7.29Z"/></g><g><path class="cls-4" d="M24.99,66.36c5.69,4.08,11.63,.45,11.63,.45-.69-.55-1.21-1.11-1.6-1.65-1.26-1.73-1.18-3.22-1.18-3.22,3.79-.15,4.88-9.54,5.03-11.61,.1-1.37,.27-5.1-1.92-7.2-.13-.12-.26-.24-.41-.35-.15,.13-.35,.07-.6-.08-.09-.04-.18-.1-.26-.17-.41-.02-.52-.03-.7-.28-.06-.09-.14-.2-.23-.35-.07-.01-.15-.01-.24,.01-.08,.02-.17,.04-.26,.08-.56,.19-1.31,.57-1.88,.09-.11-.1-.22-.24-.31-.4-.36-.26-1.14-.08-.91,.1-.12,.01-.23,.03-.35,.06-7.77,1.42-5.47,12.15-4.68,16.46,.8,4.37-1.52,7.76-1.1,8.06Z"/><path class="cls-6" d="M29.39,60.4l5.28,6.52,.34-1.77c-1.26-1.73-1.18-3.22-1.18-3.22,0,0-2.93-.17-4.44-1.54Z"/><path class="cls-31" d="M40.03,49.6s-8.09-3.32-9.05-.83c-.96,2.49-.58,4.74-1.22,4.83-.65,.1-1.49-4.37-2.88-3.12-1.4,1.25,.45,5.11-.8,7.44-.46,.86-3.18-7.84-2.06-11.76,1.16-4.07,3.06-5.54,8.16-5.7,2.3-.07,5.06,.5,6.68,1.7,2.13,1.57,2.3,5.86,1.19,7.44Z"/></g><path class="cls-3" d="M34.46,64.07l-2.17,3.87,2.85,3.2s2.27-4.43,2.05-4.5c-.22-.06-2.73-2.58-2.73-2.58Z"/><polygon class="cls-3" points="32.29 67.94 25.58 64.13 23.07 66.34 30.91 72.2 32.29 67.94"/><g><path class="cls-4" d="M14.53,70.37c-1.22,1.16-1.65,3.1-1.28,4.86,1.63,7.9,7.48,34.25,12.61,33.18,6.03-1.26-.36-24.26-2.95-30.63-2.15-5.31-5.42-10.2-8.38-7.4Z"/><path class="cls-4" d="M15.85,90.74s3.44,15.05,8.89,20.05c5.45,5,30.65,10.26,30.65,10.26l1.9-6.39s-26.02-11.63-27.17-13.14c-1.15-1.51-4.19-14.72-4.19-14.72l-10.09,3.94Z"/><g><path class="cls-4" d="M25.65,108.51c.42,1.54,1.57,2.67,2.91,3.15,6.65,2.34,30.81,10.61,32.79,7.95,2.3-3.09-32.06-16.84-33.55-15.52-1.16,1.03-2.83,1.95-2.16,4.43Z"/><polygon class="cls-4" points="57.29 114.66 59.49 115.7 57.88 121.78 55.39 121.05 57.29 114.66"/><path class="cls-4" d="M59.14,116.3l.25-.68h0l2.46-.92c.63-.23,1.3-.28,1.94-.14l2.66,1.38s.33,.96-1.31,.64c-.43-.08-1.07,.22-1.58,.49l1.57,.56,3.75,1.71c.96,.43,1.85,1.84,1.45,3.17,0,0-.69,1.81-2.64,1.87l-2.71,.35c-1.43-.1-2.55,.13-3.83-.6l-3.34-2.33,1.31-5.51Z"/></g><path class="cls-41" d="M26.49,87.91s-11.69,5.51-11.69,5.51c-.84-2.27-1.56-4.59-2.11-6.84-.49-2-.86-3.95-1.09-5.79-.35-2.85-.35-5.42,.07-7.43,.45-2.12,1.36-3.6,2.84-4.12,2.07-.74,3.76-.22,5.15,1.09,1.45,1.36,2.58,3.56,3.53,6.08h0c.72,1.92,1.32,4,1.86,6.04,.52,1.93,.98,3.81,1.44,5.46Z"/></g></g><g class="cls-8"><path class="cls-49" d="M23.18,76.41h0c-3.73,2.1-7.69,3.48-11.59,4.38-.35-2.85-.35-5.42,.07-7.43,2.72-.71,5.42-1.68,7.99-3.03,1.45,1.36,2.58,3.56,3.53,6.08Z"/></g><g class="cls-8"><path class="cls-42" d="M26.49,87.91s-11.69,5.51-11.69,5.51c-.84-2.27-1.56-4.59-2.11-6.84,4.13-.73,8.43-2,12.36-4.13,.52,1.93,.98,3.81,1.44,5.46Z"/></g></g><path class="cls-40" d="M70.52,0c4.85,0,8.18,3.35,8.18,8.74,0,6.2-3.74,8.74-8.92,8.74l-.11,4.03h-2.92l-.15-6.71h1.07c4.22,0,7.81-.93,7.81-6.07,0-3.4-1.93-5.52-4.92-5.52s-4.92,1.99-4.92,5.31h-3.18c-.04-5.14,3.22-8.53,8.07-8.53Zm-2.33,30.22c-1.3,0-2.3-1.15-2.3-2.63s1-2.63,2.3-2.63c1.22,0,2.22,1.15,2.22,2.63s-1,2.63-2.22,2.63Z"/><path class="cls-50" d="M210.09,25.69c2.84-1.65,5.65-.81,7.04,2.34,1.6,3.62,.07,6.38-2.96,8.14l.98,2.4-1.71,.99-1.82-3.87,.63-.36c2.47-1.43,4.33-3.2,3-6.2-.88-1.99-2.55-2.57-4.3-1.56-1.78,1.03-2.37,2.84-1.51,4.77l-1.86,1.08c-1.35-2.99-.32-6.08,2.52-7.73Zm6.43,18.47c-.76,.44-1.64,.11-2.02-.76-.38-.87-.09-1.88,.66-2.32,.72-.41,1.6-.08,1.98,.79,.38,.87,.09,1.88-.62,2.29Z"/><g><path class="cls-51" d="M146.03,39.53l-7.31,7.1c-.98,.95-2.45,.81-3.27-.31l-10.09-13.65,.32-5.47,6.54-6.36c.98-.95,2.45-.81,3.28,.31l10.81,14.62c.83,1.12,.71,2.81-.27,3.75Zm-20.26-7.01l9.98,13.51c.68,.92,1.89,1.04,2.7,.26l7.31-7.1c.81-.78,.91-2.17,.22-3.1l-10.81-14.62c-.68-.92-1.89-1.04-2.7-.26l-6.41,6.23-.3,5.08Z"/><polygon class="cls-53" points="125.87 27.32 128.01 30.21 125.56 32.6 125.87 27.32"/><g><polygon class="cls-55" points="134.91 25.32 128.3 31.73 128.12 31.48 134.72 25.06 134.91 25.32"/><polygon class="cls-54" points="136.04 26.84 129.43 33.26 129.25 33.01 135.85 26.59 136.04 26.84"/><polygon class="cls-52" points="137.17 28.37 130.56 34.79 130.37 34.53 136.98 28.12 137.17 28.37"/><polygon class="cls-46" points="138.3 29.9 131.69 36.32 131.5 36.06 138.11 29.64 138.3 29.9"/><polygon class="cls-44" points="139.42 31.42 132.82 37.84 132.63 37.59 139.24 31.17 139.42 31.42"/><polygon class="cls-48" points="140.55 32.95 133.95 39.37 133.76 39.12 140.37 32.7 140.55 32.95"/><polygon class="cls-45" points="141.68 34.48 135.08 40.9 134.89 40.64 141.49 34.22 141.68 34.48"/><polygon class="cls-43" points="142.81 36.01 136.21 42.42 136.02 42.17 142.62 35.75 142.81 36.01"/></g></g><g><path class="cls-47" d="M285.29,79.62l-7.52-6.8c-1.01-.91-1.18-2.59-.39-3.74l9.66-14.05,4.74-.72,6.73,6.09c1.01,.91,1.18,2.59,.39,3.74l-10.35,15.05c-.79,1.15-2.26,1.35-3.26,.44Zm1.97-24.16l-9.56,13.9c-.65,.95-.51,2.34,.32,3.09l7.52,6.8c.83,.75,2.04,.59,2.69-.36l10.35-15.05c.65-.95,.51-2.34-.32-3.09l-6.6-5.97-4.41,.67Z"/><polygon class="cls-18" points="291.72 54.55 289.67 57.53 287.15 55.24 291.72 54.55"/><g><polygon class="cls-17" points="295.23 64.31 288.43 58.16 288.61 57.9 295.41 64.05 295.23 64.31"/><polygon class="cls-20" points="294.15 65.88 287.35 59.73 287.53 59.47 294.33 65.62 294.15 65.88"/><polygon class="cls-19" points="293.07 67.45 286.27 61.3 286.45 61.04 293.25 67.19 293.07 67.45"/><polygon class="cls-23" points="291.99 69.02 285.19 62.88 285.37 62.61 292.17 68.76 291.99 69.02"/><polygon class="cls-21" points="290.91 70.6 284.11 64.45 284.29 64.19 291.09 70.33 290.91 70.6"/><polygon class="cls-22" points="289.82 72.17 283.03 66.02 283.21 65.76 290 71.91 289.82 72.17"/><polygon class="cls-24" points="288.74 73.74 281.94 67.59 282.12 67.33 288.92 73.48 288.74 73.74"/><polygon class="cls-25" points="287.66 75.31 280.86 69.16 281.04 68.9 287.84 75.05 287.66 75.31"/></g></g></g></g></g></g></svg>