<svg xmlns="http://www.w3.org/2000/svg" width="18.222" height="20.235" viewBox="0 0 18.222 20.235">
  <g id="Icon_feather-package" data-name="Icon feather-package" transform="translate(-4 -2.478)">
    <path id="Path_15856" data-name="Path 15856" d="M19.861,11.281,11.25,6.315" transform="translate(-2.445 -1.199)" fill="none" stroke="#008acc" stroke-linecap="round" stroke-linejoin="round" stroke-width="1"/>
    <path id="Path_15857" data-name="Path 15857" d="M21.722,16.4V8.742a1.914,1.914,0,0,0-.957-1.655l-6.7-3.827a1.914,1.914,0,0,0-1.914,0l-6.7,3.827A1.914,1.914,0,0,0,4.5,8.742V16.4a1.914,1.914,0,0,0,.957,1.655l6.7,3.827a1.914,1.914,0,0,0,1.914,0l6.7-3.827a1.914,1.914,0,0,0,.957-1.655Z" fill="none" stroke="#008acc" stroke-linecap="round" stroke-linejoin="round" stroke-width="1"/>
    <path id="Path_15858" data-name="Path 15858" d="M4.9,10.44l8.353,4.832L21.61,10.44" transform="translate(-0.147 -2.693)" fill="none" stroke="#008acc" stroke-linecap="round" stroke-linejoin="round" stroke-width="1"/>
    <path id="Path_15859" data-name="Path 15859" d="M18,27.644V18" transform="translate(-4.889 -5.431)" fill="none" stroke="#008acc" stroke-linecap="round" stroke-linejoin="round" stroke-width="1"/>
  </g>
</svg>
