<?xml version="1.0" encoding="utf-8"?>
<!-- Generator: Adobe Illustrator 26.5.0, SVG Export Plug-In . SVG Version: 6.00 Build 0)  -->
<svg version="1.1" id="Layer_1" xmlns="http://www.w3.org/2000/svg" xmlns:xlink="http://www.w3.org/1999/xlink" x="0px" y="0px"
	 viewBox="0 0 512 512" style="enable-background:new 0 0 512 512;" xml:space="preserve">
<style type="text/css">
	.st0{fill:#EAEAEA;}
	.st1{fill:#44546C;}
	.st2{fill:#7EB457;}
	.st3{fill:#FFFFFF;}
</style>
<g id="Flat">
	<path class="st0" d="M96,296V40c0-8.8,7.2-16,16-16h208l96,96v176"/>
	<path class="st0" d="M416,456v16c0,8.8-7.2,16-16,16H112c-8.8,0-16-7.2-16-16v-16"/>
	<path class="st1" d="M320,24v96h96"/>
	<path class="st2" d="M88,296h336c8.8,0,16,7.2,16,16v128c0,8.8-7.2,16-16,16H88c-8.8,0-16-7.2-16-16V312C72,303.2,79.2,296,88,296z
		"/>
	<path class="st1" d="M368,208H144c-4.4,0-8-3.6-8-8s3.6-8,8-8h224c4.4,0,8,3.6,8,8S372.4,208,368,208z"/>
	<path class="st1" d="M368,256H144c-4.4,0-8-3.6-8-8s3.6-8,8-8h224c4.4,0,8,3.6,8,8S372.4,256,368,256z"/>
	<g>
		<path class="st3" d="M196.6,361.9c0.1-1.1,0.1-2.1,0-3.2c-0.2-1.3-0.7-2.6-1.4-3.8c-0.8-1.2-1.9-2.2-3.2-3c-2-1-4.2-1.5-6.4-1.4
			c-3.2-0.2-6.3,0.9-8.6,3.1c-2.2,2.7-3.3,6.2-3,9.8v34.1c-0.3,3.5,0.8,7,3,9.8c4.2,3.4,9.9,4.1,14.7,1.8c2.7-1.5,4.5-4.3,4.8-7.4
			c0.2-1.4,0.4-2.8,0.5-4.2c0-2.1,1.2-4,3.2-4.8c2.1-0.9,4.4-1.3,6.7-1.3c2.8-0.3,5.6,0.4,8,1.9c2,2.1,2.9,5.1,2.4,8
			c0.1,4-0.7,7.9-2.4,11.5c-1.6,3.3-4,6.2-6.9,8.4c-3,2.4-6.5,4.1-10.2,5.2c-4.1,1.3-8.5,1.9-12.8,1.8c-4,0-8-0.5-11.9-1.6
			c-3.6-1.1-6.9-2.9-9.8-5.3c-2.9-2.6-5.2-5.8-6.6-9.4c-1.8-4.5-2.6-9.3-2.5-14.1v-34.7c-0.1-4.8,0.7-9.6,2.5-14.1
			c1.4-3.6,3.7-6.9,6.6-9.4c2.8-2.5,6.2-4.3,9.8-5.3c3.9-1.1,7.9-1.6,11.9-1.6c4.3,0,8.6,0.5,12.8,1.7c3.7,1,7.2,2.7,10.2,5
			c2.9,2.1,5.2,4.8,6.9,8c1.7,3.4,2.5,7.2,2.4,11c0.5,2.9-0.4,5.8-2.4,8c-2.3,1.4-4.9,2-7.6,1.8c-2.4,0.1-4.8-0.3-7-1.3
			C198.1,366.4,196.6,364.3,196.6,361.9L196.6,361.9z"/>
		<path class="st3" d="M253,410.2c1.5,0,3-0.2,4.4-0.5c1.4-0.2,2.8-0.7,4.1-1.4c1.1-0.7,2.1-1.6,2.9-2.6c0.8-1.2,1.2-2.5,1.1-3.9
			c0-2.5-1.1-4.9-3-6.6c-2.3-1.9-4.8-3.6-7.5-4.9l-9.8-4.6c-3.5-1.5-6.8-3.5-9.8-5.8c-3-2.3-5.6-5.2-7.5-8.5
			c-2.2-3.8-3.2-8.2-3-12.6c-0.3-8.2,3.6-15.9,10.4-20.5c3.2-2.2,6.8-3.8,10.6-4.6c3.9-1,8-1.5,12-1.5c1.7,0,4,0,6.9,0.4
			c2.9,0.3,5.7,0.8,8.5,1.5c2.6,0.7,5,1.9,7.2,3.4c2,1.4,3.1,3.6,3,6c0,1-0.2,2.1-0.5,3c-0.3,1.2-0.7,2.4-1.4,3.5
			c-0.6,1.1-1.5,2.1-2.6,2.8c-1,0.8-2.3,1.2-3.6,1.2c-1.1,0-2.3-0.3-3.3-0.8l-3.4-1.7c-1.4-0.6-2.9-1.2-4.4-1.7
			c-2.1-0.5-4.4-0.8-6.6-0.7c-3.5-0.3-7,0.5-9.9,2.3c-1.8,1.2-2.9,3.2-3,5.4c0,2.2,1.2,4.2,3,5.4c2.4,1.7,4.9,3.1,7.5,4.2l9.8,4.4
			c3.6,1.6,6.9,3.7,9.8,6.2c3.1,2.5,5.6,5.6,7.5,9.1c2.2,4.3,3.3,9,3,13.8c0.1,4.2-0.7,8.4-2.4,12.3c-1.5,3.4-3.8,6.5-6.6,9
			c-3,2.4-6.5,4.3-10.2,5.4c-4.2,1.2-8.5,1.9-12.9,1.8c-4,0-8.1-0.4-12-1.4c-3.4-0.9-6.8-2.1-9.9-3.8c-2.6-1.4-4.8-3.2-6.7-5.4
			c-1.5-1.7-2.4-3.9-2.4-6.2c0-1.2,0.3-2.4,0.7-3.5c0.5-1.3,1.1-2.4,1.8-3.5c0.8-1,1.7-1.9,2.8-2.6c1-0.7,2.1-1.1,3.4-1.1
			c1.6,0,3.1,0.5,4.3,1.4l4.4,3.3c1.7,1.3,3.6,2.4,5.5,3.3C247.8,410,250.4,410.4,253,410.2L253,410.2z"/>
		<path class="st3" d="M289.4,342.5c0-0.5,0-0.9,0-1.4c0-1.2,0.4-2.4,1.2-3.3c0.9-1.1,1.9-1.9,3.1-2.6c1.3-0.8,2.7-1.4,4.2-1.8
			c1.4-0.4,2.9-0.7,4.3-0.6c1.4,0,2.8,0.2,4.2,0.8c1.2,0.6,2,1.6,2.4,2.9l18,66.1l17.9-66.1c0.3-1.2,1.2-2.3,2.3-2.9
			c1.3-0.6,2.8-0.9,4.2-0.8c1.5,0,2.9,0.2,4.3,0.6c1.5,0.4,2.9,1,4.2,1.8c1.2,0.6,2.3,1.5,3.1,2.6c0.8,0.9,1.3,2.1,1.3,3.3
			c0,0.5,0,0.9,0,1.4l-24,78.6c-0.7,2.3-2.5,4.2-4.8,5c-2.5,1.1-5.2,1.7-8,1.7c-2.8,0-5.5-0.6-8-1.7c-2.3-0.9-4.1-2.7-4.8-5
			L289.4,342.5z"/>
	</g>
</g>
</svg>
