<svg xmlns="http://www.w3.org/2000/svg" width="19" height="19" viewBox="0 0 19 19">
  <g id="department" transform="translate(0.5 0.5)">
    <path id="Rectangle_2264" data-name="Rectangle 2264" d="M0-.5H6a.5.5,0,0,1,.5.5V5a.5.5,0,0,1-.5.5H0A.5.5,0,0,1-.5,5V0A.5.5,0,0,1,0-.5ZM5.5.5H.5v4h5Z" transform="translate(6.429)" fill="#008acc"/>
    <path id="Rectangle_2265" data-name="Rectangle 2265" d="M0-.5H5a.5.5,0,0,1,.5.5V5a.5.5,0,0,1-.5.5H0A.5.5,0,0,1-.5,5V0A.5.5,0,0,1,0-.5ZM4.5.5H.5v4h4Z" transform="translate(13 13)" fill="#008acc"/>
    <path id="Rectangle_2266" data-name="Rectangle 2266" d="M0-.5H5a.5.5,0,0,1,.5.5V5a.5.5,0,0,1-.5.5H0A.5.5,0,0,1-.5,5V0A.5.5,0,0,1,0-.5ZM4.5.5H.5v4h4Z" transform="translate(0 13)" fill="#008acc"/>
    <path id="Line_325" data-name="Line 325" d="M12.53.5H0A.5.5,0,0,1-.5,0,.5.5,0,0,1,0-.5H12.53a.5.5,0,0,1,.5.5A.5.5,0,0,1,12.53.5Z" transform="translate(2.8 8.026)" fill="#008acc"/>
    <path id="Line_326" data-name="Line 326" d="M0,5.853a.5.5,0,0,1-.5-.5V0A.5.5,0,0,1,0-.5.5.5,0,0,1,.5,0V5.353A.5.5,0,0,1,0,5.853Z" transform="translate(2.8 7.7)" fill="#008acc"/>
    <path id="Line_327" data-name="Line 327" d="M0,5.853a.5.5,0,0,1-.5-.5V0A.5.5,0,0,1,0-.5.5.5,0,0,1,.5,0V5.353A.5.5,0,0,1,0,5.853Z" transform="translate(15.33 7.7)" fill="#008acc"/>
    <path id="Line_328" data-name="Line 328" d="M0,4.191a.75.75,0,0,1-.75-.75V0A.75.75,0,0,1,0-.75.75.75,0,0,1,.75,0V3.441A.75.75,0,0,1,0,4.191Z" transform="translate(9.45 4.815)" fill="#008acc"/>
  </g>
</svg>
