<svg xmlns="http://www.w3.org/2000/svg" width="17" height="17" viewBox="0 0 17 17">
  <g id="employment" transform="translate(0.5 0.5)">
    <path id="Rectangle_2269" data-name="Rectangle 2269" d="M0-.5H7a.5.5,0,0,1,.5.5V7a.5.5,0,0,1-.5.5H0A.5.5,0,0,1-.5,7V0A.5.5,0,0,1,0-.5ZM6.5.5H.5v6h6Z" fill="#008acc"/>
    <path id="Rectangle_2270" data-name="Rectangle 2270" d="M0-.5H7a.5.5,0,0,1,.5.5V7a.5.5,0,0,1-.5.5H0A.5.5,0,0,1-.5,7V0A.5.5,0,0,1,0-.5ZM6.5.5H.5v6h6Z" transform="translate(9)" fill="#008acc"/>
    <path id="Rectangle_2271" data-name="Rectangle 2271" d="M0-.5H7a.5.5,0,0,1,.5.5V7a.5.5,0,0,1-.5.5H0A.5.5,0,0,1-.5,7V0A.5.5,0,0,1,0-.5ZM6.5.5H.5v6h6Z" transform="translate(9 9)" fill="#008acc"/>
    <path id="Rectangle_2272" data-name="Rectangle 2272" d="M0-.5H7a.5.5,0,0,1,.5.5V7a.5.5,0,0,1-.5.5H0A.5.5,0,0,1-.5,7V0A.5.5,0,0,1,0-.5ZM6.5.5H.5v6h6Z" transform="translate(0 9)" fill="#008acc"/>
  </g>
</svg>
