<svg xmlns="http://www.w3.org/2000/svg" width="19" height="17.2" viewBox="0 0 19 17.2">
  <g id="employment_type" data-name="employment type" transform="translate(0.5 0.5)">
    <path id="Rectangle_2267" data-name="Rectangle 2267" d="M2-.5H16A2.5,2.5,0,0,1,18.5,2v8.2A2.5,2.5,0,0,1,16,12.7H2A2.5,2.5,0,0,1-.5,10.2V2A2.5,2.5,0,0,1,2-.5ZM16,11.7a1.5,1.5,0,0,0,1.5-1.5V2A1.5,1.5,0,0,0,16,.5H2A1.5,1.5,0,0,0,.5,2v8.2A1.5,1.5,0,0,0,2,11.7Z" transform="translate(0 4)" fill="#008acc"/>
    <path id="Path_15794" data-name="Path 15794" d="M16,19.7a.5.5,0,0,1-.5-.5V4.8A1.412,1.412,0,0,0,14,3.5H10A1.412,1.412,0,0,0,8.5,4.8V19.2a.5.5,0,0,1-1,0V4.8A2.409,2.409,0,0,1,10,2.5h4a2.409,2.409,0,0,1,2.5,2.3V19.2A.5.5,0,0,1,16,19.7Z" transform="translate(-3.5 -3)" fill="#008acc"/>
  </g>
</svg>
