<svg xmlns="http://www.w3.org/2000/svg" width="15.222" height="18" viewBox="0 0 15.222 18">
  <g id="hr_manager" data-name="hr manager" transform="translate(0.5 0.5)">
    <path id="Path_15795" data-name="Path 15795" d="M18.222,21.5a.5.5,0,0,1-.5-.5V19a3.3,3.3,0,0,0-3.056-3.5H7.556A3.3,3.3,0,0,0,4.5,19v2a.5.5,0,1,1-1,0V19a4.3,4.3,0,0,1,4.056-4.5h7.111A4.3,4.3,0,0,1,18.722,19v2A.5.5,0,0,1,18.222,21.5Z" transform="translate(-4 -4)" fill="#008acc"/>
    <path id="Ellipse_197" data-name="Ellipse 197" d="M4-.5A4.5,4.5,0,1,1-.5,4,4.505,4.505,0,0,1,4-.5Zm0,8A3.5,3.5,0,1,0,.5,4,3.5,3.5,0,0,0,4,7.5Z" transform="translate(3.111)" fill="#008acc"/>
  </g>
</svg>
