<svg xmlns="http://www.w3.org/2000/svg" width="20" height="14.2" viewBox="0 0 20 14.2">
  <g id="jobtitle" transform="translate(0.5 0.5)">
    <g id="Group_3697" data-name="Group 3697" transform="translate(2.541 2.93)">
      <g id="Group_3742" data-name="Group 3742" transform="translate(0 0)">
        <g id="user">
          <path id="Path_15795" data-name="Path 15795" d="M10.14,18.09a.5.5,0,0,1-.5-.5v-.863A1.145,1.145,0,0,0,8.605,15.5H5.535a.951.951,0,0,0-.712.338,1.331,1.331,0,0,0-.323.889v.863a.5.5,0,1,1-1,0v-.863a2.329,2.329,0,0,1,.576-1.553A1.938,1.938,0,0,1,5.535,14.5h3.07a2.14,2.14,0,0,1,2.035,2.227v.863A.5.5,0,0,1,10.14,18.09Z" transform="translate(-4 -10.251)" fill="#008acc"/>
          <path id="Ellipse_197" data-name="Ellipse 197" d="M1.727-.5A2.227,2.227,0,1,1-.5,1.727,2.229,2.229,0,0,1,1.727-.5Zm0,3.454A1.227,1.227,0,1,0,.5,1.727,1.228,1.228,0,0,0,1.727,2.954Z" transform="translate(1.343)" fill="#008acc"/>
        </g>
      </g>
      <path id="Line_342" data-name="Line 342" d="M5,.5H0A.5.5,0,0,1-.5,0,.5.5,0,0,1,0-.5H5a.5.5,0,0,1,.5.5A.5.5,0,0,1,5,.5Z" transform="translate(8.459 2.67)" fill="#008acc"/>
      <path id="Line_343" data-name="Line 343" d="M3,.5H0A.5.5,0,0,1-.5,0,.5.5,0,0,1,0-.5H3a.5.5,0,0,1,.5.5A.5.5,0,0,1,3,.5Z" transform="translate(8.459 4.67)" fill="#008acc"/>
    </g>
    <path id="Rectangle_2278" data-name="Rectangle 2278" d="M2-.5H17A2.5,2.5,0,0,1,19.5,2v9.2A2.5,2.5,0,0,1,17,13.7H2A2.5,2.5,0,0,1-.5,11.2V2A2.5,2.5,0,0,1,2-.5ZM17,12.7a1.5,1.5,0,0,0,1.5-1.5V2A1.5,1.5,0,0,0,17,.5H2A1.5,1.5,0,0,0,.5,2v9.2A1.5,1.5,0,0,0,2,12.7Z" fill="#008acc"/>
  </g>
</svg>
