<svg xmlns="http://www.w3.org/2000/svg" width="15.501" height="19.245" viewBox="0 0 15.501 19.245">
  <g id="pdf_icon" data-name="pdf icon" transform="translate(0.45 0.45)">
    <path id="Path_15846" data-name="Path 15846" d="M13.126,2h-7.3A1.83,1.83,0,0,0,4,3.834V18.51a1.83,1.83,0,0,0,1.825,1.834H16.776A1.83,1.83,0,0,0,18.6,18.51V7.5Z" transform="translate(-4 -2)" fill="rgba(0,0,0,0)"/>
    <path id="Path_15846_-_Outline" data-name="Path 15846 - Outline" d="M5.825,1.55h7.3a.45.45,0,0,1,.319.133l5.475,5.5a.45.45,0,0,1,.131.317V18.51a2.282,2.282,0,0,1-2.275,2.284H5.825A2.282,2.282,0,0,1,3.55,18.51V3.834A2.282,2.282,0,0,1,5.825,1.55Zm7.113.9H5.825A1.381,1.381,0,0,0,4.45,3.834V18.51a1.381,1.381,0,0,0,1.375,1.384H16.776a1.381,1.381,0,0,0,1.375-1.384V7.689Z" transform="translate(-4 -2)" fill="#27276d"/>
    <path id="Path_15847" data-name="Path 15847" d="M19.521,7.971H14a.45.45,0,0,1-.45-.45V2a.45.45,0,1,1,.9,0V7.071h5.071a.45.45,0,0,1,0,.9Z" transform="translate(-4.92 -2)" fill="#27276d"/>
    <path id="Path_15848" data-name="Path 15848" d="M102.7,103.7a2.246,2.246,0,0,0-1.589-.419,10.4,10.4,0,0,0-1.5.14,7.053,7.053,0,0,1-1.476-1.928,7.711,7.711,0,0,0,.482-2.263c0-.475-.17-1.23-.851-1.23a.587.587,0,0,0-.482.279,3.631,3.631,0,0,0,.369,2.794,24.891,24.891,0,0,1-1.419,3.269c-1.5.615-2.5,1.285-2.583,1.816-.057.251.114.671.709.671.88,0,1.845-1.257,2.583-2.543a17.991,17.991,0,0,1,2.611-.671,3.864,3.864,0,0,0,2.469,1.062C102.928,104.678,103.013,104.036,102.7,103.7Zm-5.279-5.337c.227-.335.738-.224.738.447a7.02,7.02,0,0,1-.426,2.012A3.285,3.285,0,0,1,97.423,98.363Zm-3.6,7.824c.085-.447.937-1.062,2.27-1.593-.738,1.229-1.476,2.012-1.93,2.012A.343.343,0,0,1,93.818,106.187Zm5.591-2.738a16.492,16.492,0,0,0-2.356.615,12.555,12.555,0,0,0,1.022-2.347A9.153,9.153,0,0,0,99.409,103.449Zm.369.112a7.229,7.229,0,0,1,2.015-.056c.823.168.539,1.146-.369.922A4.023,4.023,0,0,1,99.778,103.561Z" transform="translate(-91.629 -90.879)" fill="#fd5c70"/>
    <path id="Path_15848_-_Outline" data-name="Path 15848 - Outline" d="M94.357,107.13a1.011,1.011,0,0,1-.836-.356.817.817,0,0,1-.169-.672c.136-.784,1.5-1.51,2.661-1.995a24.682,24.682,0,0,0,1.312-3.021,3.776,3.776,0,0,1-.307-2.955l.013-.021a.884.884,0,0,1,.731-.411c.85,0,1.151.824,1.151,1.53a7.593,7.593,0,0,1-.457,2.236,6.73,6.73,0,0,0,1.251,1.638,10.1,10.1,0,0,1,1.4-.122,2.441,2.441,0,0,1,1.811.517.859.859,0,0,1,.177.923,1.057,1.057,0,0,1-1.079.557,4.082,4.082,0,0,1-2.553-1.042,17.76,17.76,0,0,0-2.324.6C96.139,106.257,95.2,107.13,94.357,107.13Zm-.244-.89a.1.1,0,0,0,.013.062.081.081,0,0,0,.032,0c.167,0,.565-.281,1.1-1C94.491,105.709,94.151,106.063,94.114,106.24Zm6.487-2.466a2.979,2.979,0,0,0,.886.36l.009,0a.782.782,0,0,0,.185.024c.185,0,.29-.086.3-.171s-.086-.156-.241-.189a4.57,4.57,0,0,0-.665-.041C100.947,103.759,100.787,103.763,100.6,103.774Zm-2.837-2.134a25.316,25.316,0,0,1-1.029,2.375h0l.055-.1a12.28,12.28,0,0,0,1-2.291l.028-.087,0-.009-.043.126Zm.393.759q-.22.59-.5,1.158c.385-.113.775-.212,1.167-.3A9.474,9.474,0,0,1,98.157,102.4Zm-.478-3.879a2.23,2.23,0,0,0,.032,1.311,4.709,4.709,0,0,0,.15-1.022c0-.23-.08-.33-.12-.33A.088.088,0,0,0,97.679,98.521Z" transform="translate(-91.629 -90.879)" fill="#fd5c70"/>
  </g>
</svg>
