<svg xmlns="http://www.w3.org/2000/svg" width="17" height="18.778" viewBox="0 0 17 18.778">
  <g id="start_date" data-name="start date" transform="translate(0.5 0.5)">
    <path id="Rectangle_2268" data-name="Rectangle 2268" d="M2-.5H14A2.5,2.5,0,0,1,16.5,2V13.778a2.5,2.5,0,0,1-2.5,2.5H2a2.5,2.5,0,0,1-2.5-2.5V2A2.5,2.5,0,0,1,2-.5ZM14,15.278a1.5,1.5,0,0,0,1.5-1.5V2A1.5,1.5,0,0,0,14,.5H2A1.5,1.5,0,0,0,.5,2V13.778a1.5,1.5,0,0,0,1.5,1.5Z" transform="translate(0 2)" fill="#008acc"/>
    <path id="Line_329" data-name="Line 329" d="M0,4.5A.5.5,0,0,1-.5,4V0A.5.5,0,0,1,0-.5.5.5,0,0,1,.5,0V4A.5.5,0,0,1,0,4.5Z" transform="translate(11.556)" fill="#008acc"/>
    <path id="Line_330" data-name="Line 330" d="M0,4.5A.5.5,0,0,1-.5,4V0A.5.5,0,0,1,0-.5.5.5,0,0,1,.5,0V4A.5.5,0,0,1,0,4.5Z" transform="translate(4.444)" fill="#008acc"/>
    <path id="Line_331" data-name="Line 331" d="M15,.5H0A.5.5,0,0,1-.5,0,.5.5,0,0,1,0-.5H15a.5.5,0,0,1,.5.5A.5.5,0,0,1,15,.5Z" transform="translate(0.468 7.111)" fill="#008acc"/>
  </g>
</svg>
