<svg xmlns="http://www.w3.org/2000/svg" width="17.364" height="21" viewBox="0 0 17.364 21">
  <g id="work_location" data-name="work location" transform="translate(0.5 0.5)">
    <path id="Path_15798" data-name="Path 15798" d="M11.182.5a8.692,8.692,0,0,1,8.682,8.682,9.987,9.987,0,0,1-1.339,4.771,18.831,18.831,0,0,1-2.888,3.869,27.127,27.127,0,0,1-4.177,3.595.5.5,0,0,1-.555,0,27.127,27.127,0,0,1-4.177-3.595,18.831,18.831,0,0,1-2.888-3.869A9.987,9.987,0,0,1,2.5,9.182,8.692,8.692,0,0,1,11.182.5Zm0,19.89a27.3,27.3,0,0,0,3.742-3.271c1.8-1.9,3.94-4.82,3.94-7.937a7.682,7.682,0,0,0-15.364,0c0,3.117,2.143,6.036,3.94,7.937A27.306,27.306,0,0,0,11.182,20.39Z" transform="translate(-3 -1)" fill="#008acc"/>
    <path id="Ellipse_199" data-name="Ellipse 199" d="M3-.5A3.5,3.5,0,1,1-.5,3,3.5,3.5,0,0,1,3-.5Zm0,6A2.5,2.5,0,1,0,.5,3,2.5,2.5,0,0,0,3,5.5Z" transform="translate(5.182 5.25)" fill="#008acc"/>
  </g>
</svg>
