<svg id="Character" xmlns="http://www.w3.org/2000/svg" width="185.063" height="114.623" viewBox="0 0 185.063 114.623">
  <g id="_Group_" data-name="&lt;Group&gt;" transform="translate(0 0)">
    <g id="_Group_2" data-name="&lt;Group&gt;" transform="translate(39.427)">
      <g id="_Group_3" data-name="&lt;Group&gt;">
        <g id="_Group_4" data-name="&lt;Group&gt;">
          <g id="_Group_5" data-name="&lt;Group&gt;">
            <g id="_Group_6" data-name="&lt;Group&gt;">
              <path id="_Compound_Path_" data-name="&lt;Compound Path&gt;" d="M531.526,428.54a46.4,46.4,0,0,1,11.507-5l2.349-11.388,19.238-.357,2.765,11.3a47.259,47.259,0,0,1,11.685,4.579l9.723-6.363,13.826,13.38-6.006,9.931a47.526,47.526,0,0,1,5,11.507l11.358,2.349.357,19.238-11.3,2.765a47.262,47.262,0,0,1-4.579,11.685l6.363,9.723-13.351,13.826-9.961-6.006a47.528,47.528,0,0,1-11.507,5L566.641,526.1l-19.238.327-2.765-11.3a47.259,47.259,0,0,1-11.685-4.579l-9.723,6.363L509.4,503.558l6.036-9.961a47.62,47.62,0,0,1-5.025-11.507l-11.358-2.349L498.7,460.5l11.3-2.765a47.254,47.254,0,0,1,4.579-11.685l-6.363-9.723,13.38-13.826Zm10.228,25.63a20.639,20.639,0,1,0,29.2-.535A20.624,20.624,0,0,0,541.754,454.171Z" transform="translate(-498.7 -411.8)" fill="#e0e0e0" fill-rule="evenodd"/>
            </g>
          </g>
        </g>
      </g>
    </g>
    <g id="_Group_7" data-name="&lt;Group&gt;" transform="translate(145.249 7.136)">
      <g id="_Group_8" data-name="&lt;Group&gt;">
        <g id="_Group_9" data-name="&lt;Group&gt;">
          <g id="_Group_10" data-name="&lt;Group&gt;">
            <g id="_Group_11" data-name="&lt;Group&gt;">
              <path id="_Compound_Path_2" data-name="&lt;Compound Path&gt;" d="M858.436,452.719a16.582,16.582,0,0,1,1.338-4.1L857.4,445.4l4.282-5.025,3.568,1.844a16.013,16.013,0,0,1,3.836-1.933l.595-3.984,6.6-.505,1.189,3.806a16.248,16.248,0,0,1,4.1,1.368l3.211-2.408,5.055,4.311-1.873,3.538a16.3,16.3,0,0,1,1.962,3.865l3.955.565.535,6.631-3.836,1.16a16.4,16.4,0,0,1-1.338,4.133l2.379,3.211L887.337,471l-3.568-1.873a15.08,15.08,0,0,1-3.836,1.962l-.595,3.984-6.6.505-1.189-3.836a15.09,15.09,0,0,1-4.1-1.338l-3.211,2.408-5.055-4.311,1.873-3.538a16.307,16.307,0,0,1-1.962-3.865l-3.954-.565-.535-6.631Zm8.98,2.022a7.107,7.107,0,1,0,5.828-6.363A7.1,7.1,0,0,0,867.415,454.74Z" transform="translate(-854.6 -435.8)" fill="#e0e0e0" fill-rule="evenodd"/>
            </g>
          </g>
        </g>
      </g>
    </g>
    <g id="_Group_12" data-name="&lt;Group&gt;" transform="translate(0 67.525)">
      <g id="_Group_13" data-name="&lt;Group&gt;">
        <g id="_Group_14" data-name="&lt;Group&gt;">
          <g id="_Group_15" data-name="&lt;Group&gt;">
            <g id="_Group_16" data-name="&lt;Group&gt;">
              <path id="_Compound_Path_3" data-name="&lt;Compound Path&gt;" d="M370.352,661.854a20.421,20.421,0,0,1,.833-5.055l-3.36-3.33,4.133-6.631,4.46,1.546a18.737,18.737,0,0,1,4.133-2.973l-.03-4.728,7.642-1.784,2.052,4.222a20.187,20.187,0,0,1,5.025.833l3.33-3.36,6.66,4.133-1.546,4.46a18.919,18.919,0,0,1,2.973,4.163l4.728-.06,1.784,7.642-4.252,2.052a19.33,19.33,0,0,1-.833,5.055l3.39,3.3L407.341,678l-4.49-1.546a18.736,18.736,0,0,1-4.133,2.973l.03,4.728-7.612,1.784-2.081-4.252a17.785,17.785,0,0,1-5.025-.833l-3.33,3.39-6.631-4.133,1.546-4.46a20.078,20.078,0,0,1-3-4.163l-4.728.03-1.784-7.612ZM381.383,664a8.4,8.4,0,1,0,6.274-10.08A8.422,8.422,0,0,0,381.383,664Z" transform="translate(-366.1 -638.9)" fill="#e0e0e0" fill-rule="evenodd"/>
            </g>
          </g>
        </g>
      </g>
    </g>
    <g id="_Group_17" data-name="&lt;Group&gt;" transform="translate(15.075 14.153)">
      <g id="_Group_18" data-name="&lt;Group&gt;">
        <g id="_Group_19" data-name="&lt;Group&gt;">
          <g id="_Group_20" data-name="&lt;Group&gt;">
            <g id="_Group_21" data-name="&lt;Group&gt;">
              <path id="_Compound_Path_4" data-name="&lt;Compound Path&gt;" d="M419.684,472.186a11.3,11.3,0,0,1,1.011-3.122l-1.814-2.408,3.241-3.806,2.676,1.4a12.722,12.722,0,0,1,2.914-1.457l.416-3,5-.387.892,2.884a11.794,11.794,0,0,1,3.092,1.011l2.438-1.814,3.776,3.271-1.4,2.676a11.04,11.04,0,0,1,1.487,2.884l2.973.446.416,4.966-2.914.922a12.493,12.493,0,0,1-.981,3.092l1.784,2.409-3.241,3.806-2.676-1.4a12.721,12.721,0,0,1-2.914,1.457l-.416,3-5,.386-.892-2.884a12.162,12.162,0,0,1-3.092-1.011l-2.438,1.814-3.776-3.241,1.4-2.676a11.716,11.716,0,0,1-1.487-2.914l-2.973-.446-.387-4.966Zm6.75,2.408a5.353,5.353,0,1,0,4.906-5.768A5.338,5.338,0,0,0,426.434,474.594Z" transform="translate(-416.8 -459.4)" fill="#ebebeb" fill-rule="evenodd"/>
            </g>
          </g>
        </g>
      </g>
    </g>
    <g id="_Group_22" data-name="&lt;Group&gt;" transform="translate(146.855 69.636)">
      <g id="_Group_23" data-name="&lt;Group&gt;">
        <g id="_Group_24" data-name="&lt;Group&gt;">
          <g id="_Group_25" data-name="&lt;Group&gt;">
            <g id="_Group_26" data-name="&lt;Group&gt;">
              <path id="_Compound_Path_5" data-name="&lt;Compound Path&gt;" d="M862.468,656.972a10.119,10.119,0,0,1,.892-2.676l-1.576-2.081,2.795-3.271,2.319,1.219a10.216,10.216,0,0,1,2.468-1.279l.386-2.557,4.282-.327.773,2.468a11.483,11.483,0,0,1,2.646.862l2.081-1.546,3.271,2.795-1.219,2.289a9.918,9.918,0,0,1,1.279,2.5l2.587.387.327,4.282-2.5.743a9.1,9.1,0,0,1-.862,2.676l1.546,2.081-2.765,3.271-2.319-1.219a9.889,9.889,0,0,1-2.5,1.279l-.357,2.557-4.282.327-.773-2.468a12.222,12.222,0,0,1-2.676-.862l-2.081,1.546-3.241-2.795,1.189-2.29a10.9,10.9,0,0,1-1.249-2.5L860.327,662,860,657.715Zm5.8,2.081a4.608,4.608,0,1,0,4.252-4.936,4.58,4.58,0,0,0-4.252,4.936Z" transform="translate(-860 -646)" fill="#ebebeb" fill-rule="evenodd"/>
            </g>
          </g>
        </g>
      </g>
    </g>
    <g id="_Group_27" data-name="&lt;Group&gt;" transform="translate(57.211 15.952)">
      <g id="_Group_28" data-name="&lt;Group&gt;">
        <path id="_Path_" data-name="&lt;Path&gt;" d="M598.053,536.558H568.438a9.948,9.948,0,0,1-8.593-14.9l14.807-25.63L589.43,470.4a9.959,9.959,0,0,1,17.216,0l14.778,25.63,14.807,25.63a9.938,9.938,0,0,1-8.593,14.9Z" transform="translate(-558.51 -465.45)" fill="#ff725e"/>
      </g>
      <g id="_Group_29" data-name="&lt;Group&gt;" transform="translate(7.031 5.898)">
        <g id="_Group_30" data-name="&lt;Group&gt;">
          <path id="_Path_2" data-name="&lt;Path&gt;" d="M646.514,538.544l.208.476a3.943,3.943,0,0,1,.327,1.487,4.077,4.077,0,0,1-.714,2.319,3.531,3.531,0,0,1-1.1,1.1,3.294,3.294,0,0,1-1.695.565c-5.055.059-12.34.059-21.349.059-9.009.03-19.714.03-31.607.059h-4.52a3.965,3.965,0,0,1-3.657-2.646,4.426,4.426,0,0,1-.149-2.408q.089-.3.178-.565c.089-.208.178-.387.268-.565l.565-1.041q1.16-2.081,2.319-4.222c3.092-5.679,6.333-11.566,9.6-17.6,3.3-6.006,6.542-11.893,9.634-17.573q2.349-4.282,4.579-8.385c.387-.654.743-1.338,1.16-2.022a4.269,4.269,0,0,1,1.665-1.665,4.917,4.917,0,0,1,4.46-.178,4.757,4.757,0,0,1,1.754,1.4,15.981,15.981,0,0,1,1.13,1.9q1.041,1.933,2.052,3.776,2.022,3.717,3.925,7.2c2.557,4.638,4.906,8.98,7.047,12.934,4.311,7.909,7.79,14.3,10.2,18.732,1.189,2.2,2.141,3.925,2.765,5.084q.476.862.714,1.338l.238.446-.268-.446q-.268-.446-.743-1.308c-.654-1.16-1.576-2.854-2.795-5.055-2.438-4.43-5.947-10.793-10.288-18.7-2.17-3.925-4.549-8.266-7.077-12.9q-1.933-3.479-3.955-7.2-1.011-1.843-2.052-3.746a19.322,19.322,0,0,0-1.1-1.873,4.609,4.609,0,0,0-1.665-1.338,4.7,4.7,0,0,0-4.222.208,4.526,4.526,0,0,0-1.546,1.546c-.386.654-.743,1.338-1.13,2.022q-2.23,4.1-4.579,8.385c-3.092,5.679-6.333,11.566-9.6,17.573-3.3,6.036-6.541,11.923-9.634,17.6q-1.16,2.141-2.319,4.222a9.009,9.009,0,0,0-.981,2.111,3.825,3.825,0,0,0,.149,2.23,3.572,3.572,0,0,0,3.36,2.438h4.519c11.893,0,22.6.03,31.607.03s16.294.03,21.319.03a3.449,3.449,0,0,0,1.665-.535,3.783,3.783,0,0,0,1.1-1.07,3.738,3.738,0,0,0,.684-2.26A4.546,4.546,0,0,0,646.514,538.544Z" transform="translate(-582.157 -485.288)" fill="#263238"/>
        </g>
      </g>
      <g id="_Group_31" data-name="&lt;Group&gt;" transform="translate(34.726 26.835)">
        <path id="_Compound_Path_6" data-name="&lt;Compound Path&gt;" d="M675.3,582.55c0-2.617,2.111-4.579,5.084-4.579s5.025,1.962,5.025,4.579a4.73,4.73,0,0,1-5.025,4.668A4.783,4.783,0,0,1,675.3,582.55Zm.059-26.85h10.05l-1.695,19.773h-6.72Z" transform="translate(-675.3 -555.7)" fill="#fff"/>
      </g>
      <g id="_Group_32" data-name="&lt;Group&gt;" transform="translate(31.091 1.391)">
        <g id="_Group_33" data-name="&lt;Group&gt;">
          <path id="_Path_3" data-name="&lt;Path&gt;" d="M672.924,470.743a8.239,8.239,0,0,0-1.873-.387,6.757,6.757,0,0,0-4.282,1.427,10.791,10.791,0,0,0-2.854,3.657c-.535,1.07-.773,1.784-.833,1.754-.03,0,.03-.178.119-.505a11.219,11.219,0,0,1,.535-1.338,9.9,9.9,0,0,1,2.825-3.806,6.652,6.652,0,0,1,4.49-1.4,4.494,4.494,0,0,1,1.427.357A1.3,1.3,0,0,1,672.924,470.743Z" transform="translate(-663.074 -470.127)" fill="#fff"/>
        </g>
      </g>
      <g id="_Group_34" data-name="&lt;Group&gt;" transform="translate(28.564 10.239)">
        <g id="_Group_35" data-name="&lt;Group&gt;">
          <path id="_Path_4" data-name="&lt;Path&gt;" d="M654.582,502.536a4.772,4.772,0,0,1,.654-1.4c.446-.743.833-1.308.922-1.249a4.262,4.262,0,0,1-.654,1.4C655.058,502.031,654.671,502.566,654.582,502.536Z" transform="translate(-654.574 -499.886)" fill="#fff"/>
        </g>
      </g>
      <g id="_Group_36" data-name="&lt;Group&gt;" transform="translate(2.316 15.774)" opacity="0.3">
        <g id="_Group_37" data-name="&lt;Group&gt;">
          <path id="_Path_5" data-name="&lt;Path&gt;" d="M621.6,524.149l-55.3,33.123,5.976-10.377,46.087-28.4Z" transform="translate(-566.3 -518.5)" fill="#fff"/>
        </g>
      </g>
      <g id="_Group_38" data-name="&lt;Group&gt;" transform="translate(0.562 28.351)" opacity="0.3">
        <g id="_Group_39" data-name="&lt;Group&gt;">
          <path id="_Path_6" data-name="&lt;Path&gt;" d="M622.544,562.673l-60.835,36.721a6.551,6.551,0,0,1-1.308-2.557L621.473,560.8Z" transform="translate(-560.4 -560.8)" fill="#fff"/>
        </g>
      </g>
    </g>
  </g>
</svg>
