<svg xmlns="http://www.w3.org/2000/svg" xmlns:xlink="http://www.w3.org/1999/xlink" width="232.471" height="223.699" viewBox="0 0 232.471 223.699">
  <defs>
    <linearGradient id="linear-gradient" y1="0.471" x2="1" y2="0.5" gradientUnits="objectBoundingBox">
      <stop offset="0" stop-color="#d6d6ef"/>
      <stop offset="0.498" stop-color="#f4f4f8"/>
      <stop offset="1" stop-color="#d6d6ef"/>
    </linearGradient>
    <filter id="Rectangle_2331" x="56.188" y="67.753" width="123.455" height="87.504" filterUnits="userSpaceOnUse">
      <feOffset dy="3" input="SourceAlpha"/>
      <feGaussianBlur stdDeviation="3" result="blur"/>
      <feFlood flood-opacity="0.078"/>
      <feComposite operator="in" in2="blur"/>
      <feComposite in="SourceGraphic"/>
    </filter>
    <linearGradient id="linear-gradient-2" x1="0.5" y1="0.568" x2="0.5" y2="1" gradientUnits="objectBoundingBox">
      <stop offset="0" stop-color="#fff"/>
      <stop offset="1" stop-color="#e5f3f7"/>
    </linearGradient>
    <filter id="Polygon_3" x="51.394" y="93.317" width="133.041" height="61.939" filterUnits="userSpaceOnUse">
      <feOffset dy="3" input="SourceAlpha"/>
      <feGaussianBlur stdDeviation="3" result="blur-2"/>
      <feFlood flood-opacity="0.039"/>
      <feComposite operator="in" in2="blur-2"/>
      <feComposite in="SourceGraphic"/>
    </filter>
    <linearGradient id="linear-gradient-3" x1="0.5" x2="0.5" y2="1" gradientUnits="objectBoundingBox">
      <stop offset="0" stop-color="#fee411"/>
      <stop offset="0" stop-color="#ebd242"/>
      <stop offset="0.138" stop-color="#fec125"/>
      <stop offset="0.248" stop-color="#fe983d"/>
      <stop offset="0.376" stop-color="#fe5f5e"/>
      <stop offset="0.5" stop-color="#fe2181"/>
      <stop offset="1" stop-color="#9000dc"/>
    </linearGradient>
    <filter id="Polygon_7" x="52.188" y="68.551" width="131.444" height="75.392" filterUnits="userSpaceOnUse">
      <feOffset dy="3" input="SourceAlpha"/>
      <feGaussianBlur stdDeviation="3" result="blur-3"/>
      <feFlood flood-opacity="0.039"/>
      <feComposite operator="in" in2="blur-3"/>
      <feComposite in="SourceGraphic"/>
    </filter>
    <filter id="Polygon_2" x="52.992" y="67.753" width="129.846" height="74.722" filterUnits="userSpaceOnUse">
      <feOffset dy="3" input="SourceAlpha"/>
      <feGaussianBlur stdDeviation="3" result="blur-4"/>
      <feFlood flood-opacity="0.039"/>
      <feComposite operator="in" in2="blur-4"/>
      <feComposite in="SourceGraphic"/>
    </filter>
    <filter id="Rectangle_2332" x="145.569" y="117.476" width="59.734" height="53.618" filterUnits="userSpaceOnUse">
      <feOffset dy="3" input="SourceAlpha"/>
      <feGaussianBlur stdDeviation="3" result="blur-5"/>
      <feFlood flood-opacity="0.078"/>
      <feComposite operator="in" in2="blur-5"/>
      <feComposite in="SourceGraphic"/>
    </filter>
  </defs>
  <g id="Group_4215" data-name="Group 4215" transform="translate(-280.438 -248.495)">
    <g id="Polygon_4" data-name="Polygon 4" transform="translate(365.337 268.882) rotate(30)" fill="none">
      <path d="M108.45,0,144.6,62.314l-36.15,62.314H36.15L0,62.314,36.15,0Z" stroke="none"/>
      <path d="M 36.72611236572266 0.9999923706054688 L 1.156082153320312 62.3140754699707 L 36.72611236572266 123.6281585693359 L 107.87451171875 123.6281585693359 L 143.4445495605469 62.3140754699707 L 107.87451171875 0.9999923706054688 L 36.72611236572266 0.9999923706054688 M 36.15015411376953 -7.62939453125e-06 L 108.4504776000977 -7.62939453125e-06 L 144.6006317138672 62.3140754699707 L 108.4504776000977 124.6281585693359 L 36.15015411376953 124.6281585693359 L 0 62.3140754699707 L 36.15015411376953 -7.62939453125e-06 Z" stroke="none" fill="#57b3fc"/>
    </g>
    <g id="Polygon_6" data-name="Polygon 6" transform="translate(357.931 248.495) rotate(30)" fill="none">
      <path d="M134.215,0l44.738,77.493-44.738,77.493H44.738L0,77.493,44.738,0Z" stroke="none"/>
      <path d="M 45.31568908691406 0.9999847412109375 L 1.154693603515625 77.49314880371094 L 45.31568908691406 153.9862823486328 L 133.6375885009766 153.9862823486328 L 177.798583984375 77.49314880371094 L 133.6375885009766 0.9999847412109375 L 45.31568908691406 0.9999847412109375 M 44.73832702636719 -1.52587890625e-05 L 134.2149658203125 -1.52587890625e-05 L 178.9532775878906 77.49314880371094 L 134.2149658203125 154.9862823486328 L 44.73832702636719 154.9862823486328 L 0 77.49314880371094 L 44.73832702636719 -1.52587890625e-05 Z" stroke="none" fill="#cae6fc"/>
    </g>
    <g id="Polygon_5" data-name="Polygon 5" transform="translate(373.326 288.411) rotate(30)" fill="none">
      <path d="M84.484,0l28.161,48.733L84.484,97.466H28.161L0,48.733,28.161,0Z" stroke="none"/>
      <path d="M 28.73826599121094 1 L 1.154960632324219 48.73280334472656 L 28.73825073242188 96.46560668945312 L 83.90641784667969 96.46560668945312 L 111.4897232055664 48.73280334472656 L 83.90641784667969 1 L 28.73826599121094 1 M 28.16117095947266 0 L 84.48351287841797 0 L 112.6446838378906 48.73280334472656 L 84.48351287841797 97.46560668945312 L 28.16115570068359 97.46560668945312 L 0 48.73280334472656 L 28.16117095947266 0 Z" stroke="none" fill="#c7dfff"/>
    </g>
    <g id="Group_4213" data-name="Group 4213" transform="translate(340.832 322.248)">
      <g transform="matrix(1, 0, 0, 1, -60.39, -73.75)" filter="url(#Rectangle_2331)">
        <rect id="Rectangle_2331-2" data-name="Rectangle 2331" width="105.455" height="69.504" rx="3" transform="translate(65.19 73.75)" fill="url(#linear-gradient)"/>
      </g>
      <g transform="matrix(1, 0, 0, 1, -60.39, -73.75)" filter="url(#Polygon_3)">
        <path id="Polygon_3-2" data-name="Polygon 3" d="M55.7,1.391a3,3,0,0,1,3.642,0l48.651,37.164a3,3,0,0,1-1.821,5.384H8.869a3,3,0,0,1-1.821-5.384Z" transform="translate(60.39 99.32)" fill="url(#linear-gradient-2)"/>
      </g>
      <g transform="matrix(1, 0, 0, 1, -60.39, -73.75)" filter="url(#Polygon_7)">
        <path id="Polygon_7-2" data-name="Polygon 7" d="M54.588,2.159a3,3,0,0,1,4.267,0l49.539,50.124a3,3,0,0,1-2.134,5.109H7.183a3,3,0,0,1-2.134-5.109Z" transform="translate(174.63 131.94) rotate(180)" fill="url(#linear-gradient-3)"/>
      </g>
      <g transform="matrix(1, 0, 0, 1, -60.39, -73.75)" filter="url(#Polygon_2)">
        <path id="Polygon_2-2" data-name="Polygon 2" d="M53.787,2.167a3,3,0,0,1,4.273,0l48.752,49.449a3,3,0,0,1-2.136,5.106H7.171a3,3,0,0,1-2.136-5.106Z" transform="translate(173.84 130.47) rotate(180)" fill="#fff"/>
      </g>
      <ellipse id="Ellipse_366" data-name="Ellipse 366" cx="12.158" cy="12.158" rx="12.158" ry="12.158" transform="translate(45.357 14.38)" fill="#299cd3"/>
      <path id="Icon_awesome-arrow-up" data-name="Icon awesome-arrow-up" d="M1.2,9.345.592,8.733a.659.659,0,0,1,0-.934L5.947,2.441a.659.659,0,0,1,.934,0L12.237,7.8a.659.659,0,0,1,0,.934l-.612.612a.662.662,0,0,1-.945-.011L7.518,6.013v7.922a.66.66,0,0,1-.662.662H5.975a.66.66,0,0,1-.662-.662V6.013L2.149,9.334A.657.657,0,0,1,1.2,9.345Z" transform="translate(51.232 18.284)" fill="#fff"/>
      <g transform="matrix(1, 0, 0, 1, -60.39, -73.75)" filter="url(#Rectangle_2332)">
        <rect id="Rectangle_2332-2" data-name="Rectangle 2332" width="36.104" height="27.707" rx="5" transform="matrix(0.97, 0.24, -0.24, 0.97, 161.27, 123.48)" fill="#fff"/>
      </g>
      <path id="Icon_metro-profile" data-name="Icon metro-profile" d="M25.017,2.887H23.133V.06L19.244,0l.02,2.887H7.577L7.657,0,3.849.06V2.946l-1.924-.06A1.925,1.925,0,0,0,0,4.811v13.47a1.925,1.925,0,0,0,1.924,1.924H25.017a1.925,1.925,0,0,0,1.924-1.924V4.811A1.925,1.925,0,0,0,25.017,2.887ZM20.206.962H22.13V4.811H20.206ZM7.7,7.517C8.86,7.517,9.8,8.755,9.8,10.283S8.86,13.049,7.7,13.049s-2.105-1.238-2.105-2.766S6.535,7.517,7.7,7.517ZM4.811.962H6.735V4.811H4.811ZM3.528,16.307s.228-1.83.747-2.175a7.379,7.379,0,0,1,2.011-.575s.968,1.034,1.38,1.034,1.379-1.034,1.379-1.034a7.357,7.357,0,0,1,2.012.575c.609.406.761,2.175.761,2.175H3.528Zm19.564-.912h-8.66v-.962h8.66Zm0-1.924h-8.66v-.962h8.66Zm0-1.924h-8.66v-.962h8.66Zm0-1.924h-8.66V8.66h8.66Z" transform="matrix(0.97, 0.242, -0.242, 0.97, 104.41, 53.597)" fill="#299cd3"/>
    </g>
  </g>
</svg>
