<svg xmlns="http://www.w3.org/2000/svg" width="167.054" height="119.971" viewBox="0 0 167.054 119.971">
  <g id="_лой_1" data-name="‘лой_1" transform="translate(-325.386 -154.752)">
    <g id="_Group_" data-name="&lt;Group&gt;" transform="translate(325.386 154.752)">
      <path id="_Path_" data-name="&lt;Path&gt;" d="M485.232,330.9c-10.538,0-153-.313-153-.327-.057-.135-18.083-22.229,4.615-45.332,11.249-11.449-10.332-26.275,0-39,17.692-21.809,35.2-9.529,49.783-15.665a23.43,23.43,0,0,0,7.751-5.5,28.9,28.9,0,0,1,4.757-3.954q.4-.263.8-.512a32.609,32.609,0,0,1,3.179-1.728q1.1-.519,2.247-.96a37.856,37.856,0,0,1,3.719-1.209,41.8,41.8,0,0,1,5.546-1.088q1.237-.164,2.5-.256c16.291-1.223,34.63,5.667,44.095,15.736a23.893,23.893,0,0,1,3.74,26.943c-4.309,9.109,13.752,17.806,20.174,28.2C501.445,312.685,485.382,330.547,485.232,330.9Z" transform="translate(-325.386 -210.924)" fill="#ebf3fa"/>
      <g id="_Group_2" data-name="&lt;Group&gt;" transform="translate(82.788 30.705)" opacity="0.8">
        <path id="_Path_2" data-name="&lt;Path&gt;" d="M1529.816,614.351a21.768,21.768,0,0,1-1.593,3.392,20.717,20.717,0,0,1-37.346-17.55,20.889,20.889,0,0,1,1.948-3.982l.029-.043a20.828,20.828,0,0,1,11.8-8.818q.761-.213,1.536-.377a20.592,20.592,0,0,1,11.228.832q.747.27,1.451.59a20.644,20.644,0,0,1,10.908,11.712,20.141,20.141,0,0,1,.8,2.738q.192.868.306,1.749a20.46,20.46,0,0,1,.107,4.331A20.8,20.8,0,0,1,1529.816,614.351Z" transform="translate(-1489.627 -586.551)" fill="#d7e5ff"/>
        <g id="_Group_3" data-name="&lt;Group&gt;" transform="translate(3.198 0.423)">
          <path id="_Path_3" data-name="&lt;Path&gt;" d="M1548.672,601.68c-1.223.946-.9,3.484-3.015,2.055s-3.449-2.211-4.046-.96,1.273,1.927.782,3.292-1.5,1.5-2.56.384-1.095-2.19-2.809-2.155-2.453-.668-2.368-1.963a1.76,1.76,0,0,0-.057-.6l.028-.043a20.829,20.829,0,0,1,11.8-8.817q.761-.213,1.536-.377a2.722,2.722,0,0,1,1.586,1.728c.747,2.176,1.955,1.664.924,3.491s-.6,2.268.519,2.6,2.418.811,2.247,1.7S1549.9,600.727,1548.672,601.68Z" transform="translate(-1534.6 -592.5)" fill="#aec3ff"/>
          <path id="_Path_4" data-name="&lt;Path&gt;" d="M1864.036,828.351a21.762,21.762,0,0,1-1.593,3.392,20.589,20.589,0,0,1-5.788,6.35,2.385,2.385,0,0,1-1.543-.611c-2.069-1.849.676-3.819,2.126-4.779s-1.237-1.273-2.6-3.143,1.821-4.395-.22-4.53-4.523-.27-4.935-2.453,1.728-1.735,1.351-3.577,1.4-2.183,3.3-1.657,2.133-.875,4.487-.242,1.245,3.527,3.84,4.252,2.269,1.266,2.269,1.266a1.184,1.184,0,0,1,.484.306A20.8,20.8,0,0,1,1864.036,828.351Z" transform="translate(-1827.045 -800.974)" fill="#aec3ff"/>
          <path id="_Path_5" data-name="&lt;Path&gt;" d="M1931.267,712.5c-2.467.263-2.3-2.823-4.4-2.638s-1.209-1.323-2.254-2.873-4.579-.711-3.861-2.283,2.688-.341,3.612-1.472,2.88-.057,2.88-.057a1.723,1.723,0,0,1,.405.05h0a20.638,20.638,0,0,1,2.51,4.786,20.144,20.144,0,0,1,.8,2.738Q1931.153,711.621,1931.267,712.5Z" transform="translate(-1893.203 -694.882)" fill="#aec3ff"/>
          <path id="_Path_6" data-name="&lt;Path&gt;" d="M1784.594,625.617c-1.351.839-1.38-1.664-1.977-3.186s.313-2.375,1.621-1.735,1.493.014,3.072,1.116-.1,2.29-.1,2.29C1786.087,623.825,1785.938,624.778,1784.594,625.617Z" transform="translate(-1764.804 -618.492)" fill="#aec3ff"/>
        </g>
      </g>
      <path id="_Path_7" data-name="&lt;Path&gt;" d="M485.163,1732.887a8.371,8.371,0,0,0,1.408-.114c-.533-.4-1.664-1.216-2.588-1.792-1.252-.782-1.97-2.1-.192-2.333,1.508-.192,2.7,3.1,3.008,4.082q.313-.057.6-.121a33.55,33.55,0,0,0-1.273-3.2c-.683-1.394-3.086-3.74-.683-4,2.14-.242,2.709,5.7,2.809,7.018a4.192,4.192,0,0,1,1.1-.135c.683.05,1.337.8.953,1.124h-7.225A3.087,3.087,0,0,1,485.163,1732.887Z" transform="translate(-471.537 -1613.712)" fill="#a8d29f"/>
      <path id="_Path_8" data-name="&lt;Path&gt;" d="M2015.632,1740.854h-6.713c-.356-.306.249-1,.882-1.038a3.921,3.921,0,0,1,1.031.121c.085-1.23.619-6.741,2.6-6.521,2.233.249,0,2.425-.633,3.719a30.539,30.539,0,0,0-1.187,2.972l.562.114c.3-.91,1.4-3.968,2.8-3.79,1.643.206.981,1.436-.185,2.162-.853.533-1.906,1.294-2.4,1.664a7.3,7.3,0,0,0,1.315.107A2.864,2.864,0,0,1,2015.632,1740.854Z" transform="translate(-1889.107 -1621.153)" fill="#a8d29f"/>
      <g id="_Group_4" data-name="&lt;Group&gt;" transform="translate(31.104 52.148)">
        <path id="_Path_9" data-name="&lt;Path&gt;" d="M1271.993,1204.6s-4.1,41.9-4.131,43.305c-.028,1.195,2.318,1.728,2.318,1.728s-12.408.007-15.53,0c-1.9-.007-1.529-2.553-1.529-2.553l3.541-42.082Z" transform="translate(-1218.227 -1182.094)" fill="#7599ea"/>
        <path id="_Path_10" data-name="&lt;Path&gt;" d="M1284.719,1238.855c-.611,0-12.629.021-15.665-.014-1.323-.021-1.557-1.18-1.564-1.927a3.991,3.991,0,0,1,.036-.633l.092-1.088.235-2.788.206-2.467.27-3.164.22-2.674,2.517-29.9,15.331-.4s-1.728,17.536-2.951,30.3c-.135,1.422-.263,2.787-.384,4.06q-.057.612-.114,1.195c-.114,1.209-.213,2.311-.306,3.292q-.071.775-.128,1.436c-.156,1.721-.249,2.823-.249,3.029a1.915,1.915,0,0,0,.028.341C1282.543,1238.8,1284.492,1238.855,1284.719,1238.855Z" transform="translate(-1231.601 -1172.062)" fill="#90aff4"/>
        <path id="_Path_11" data-name="&lt;Path&gt;" d="M853.312,888.1l14.8,55.5H793.516L789.5,927.473l-1.18-4.743L779.7,888.1Z" transform="translate(-778.498 -888.1)" fill="#aec3ff"/>
        <path id="_Path_12" data-name="&lt;Path&gt;" d="M777.818,943.6l-1.593,1.209L762.8,888.5l1.2-.4Z" transform="translate(-762.8 -888.1)" fill="#90aff4"/>
        <path id="_Path_13" data-name="&lt;Path&gt;" d="M953.193,1668.6h74.593l-2.048,1.209H951.6Z" transform="translate(-938.175 -1613.1)" fill="#7599ea"/>
        <path id="_Path_14" data-name="&lt;Path&gt;" d="M1317.7,1827.4h16.056v.761H1317.7Z" transform="translate(-1278.242 -1760.608)" fill="#aec3ff"/>
        <path id="_Path_15" data-name="&lt;Path&gt;" d="M1287.782,1685.6l-.085.583-15.1,3.051.206-2.468.1-1.166Z" transform="translate(-1236.349 -1628.891)" fill="#5888dd"/>
        <path id="_Path_16" data-name="&lt;Path&gt;" d="M1284.73,1765.071c-.612,0-12.629.021-15.665-.014-1.323-.021-1.557-1.18-1.564-1.927l15.025-2.83c-.156,1.721-.249,2.823-.249,3.029a1.9,1.9,0,0,0,.028.341C1282.554,1765.014,1284.5,1765.071,1284.73,1765.071Z" transform="translate(-1231.611 -1698.279)" fill="#5888dd" opacity="0.4"/>
        <path id="_Path_17" data-name="&lt;Path&gt;" d="M779.7,888.1h73.612l11.939,44.607H790.8Z" transform="translate(-778.498 -888.1)" fill="#aec3ff"/>
        <path id="_Path_18" data-name="&lt;Path&gt;" d="M901.537,961.983H832.612l-2.46-9.813-.953-3.79-.391-1.55-2.531-10.083-.128-.526-1.337-5.333-.6-2.382-.5-2.034-1.2-4.771h67.93l1.316,4.771.562,2.034.661,2.382L897.3,946.6l.363,1.33.171.619,2.994,10.844Z" transform="translate(-818.255 -919.311)" fill="#739af0"/>
        <path id="_Path_19" data-name="&lt;Path&gt;" d="M891.746,926.471H823.7l-1.2-4.771h67.93Z" transform="translate(-818.255 -919.311)" fill="#607cf4"/>
        <g id="_Group_5" data-name="&lt;Group&gt;" transform="translate(7.041 3.954)">
          <path id="_Path_20" data-name="&lt;Path&gt;" d="M861.842,944.29a.443.443,0,0,1,.441-.59.8.8,0,0,1,.747.59.447.447,0,0,1-.448.6A.8.8,0,0,1,861.842,944.29Z" transform="translate(-861.822 -943.7)" fill="#e9f3fe"/>
          <path id="_Path_21" data-name="&lt;Path&gt;" d="M889.678,944.29a.449.449,0,0,1,.448-.59.819.819,0,0,1,.747.59.452.452,0,0,1-.448.6A.817.817,0,0,1,889.678,944.29Z" transform="translate(-887.682 -943.7)" fill="#e9f3fe"/>
          <path id="_Path_22" data-name="&lt;Path&gt;" d="M919.678,944.29a.449.449,0,0,1,.448-.59.819.819,0,0,1,.747.59.452.452,0,0,1-.448.6A.817.817,0,0,1,919.678,944.29Z" transform="translate(-915.548 -943.7)" fill="#e9f3fe"/>
        </g>
      </g>
      <path id="_Path_23" data-name="&lt;Path&gt;" d="M1534.3,181.058l3.541-9.742-5.952.74a.668.668,0,0,1-.619-1.06l12-16.063a.439.439,0,0,1,.754.441l-4.964,11.221h5.262a1.071,1.071,0,0,1,.818,1.764c-2.894,3.363-7.189,9.934-9.977,13.2A.51.51,0,0,1,1534.3,181.058Z" transform="translate(-1445.396 -154.752)" fill="#f77d48"/>
      <path id="_Path_24" data-name="&lt;Path&gt;" d="M1153.116,537.452l-1.287-7.794-3.683,2.716a.506.506,0,0,1-.8-.469l1.963-15.16a.336.336,0,0,1,.668.007l.9,9.315,3.5-1.97a.811.811,0,0,1,1.195.867c-.661,3.314-1.052,9.287-1.678,12.5A.39.39,0,0,1,1153.116,537.452Z" transform="translate(-1088.889 -490.73)" fill="#aec3ff"/>
      <g id="_Group_6" data-name="&lt;Group&gt;" transform="translate(48.726 29.789)">
        <path id="_Path_25" data-name="&lt;Path&gt;" d="M1109.035,669.379l-59.895,5.042a5.994,5.994,0,0,1-5.973-8.419l25.372-56.78a6,6,0,0,1,10.46-.882l34.516,51.739A6,6,0,0,1,1109.035,669.379Z" transform="translate(-1040.36 -603.395)" fill="#e6efff"/>
        <g id="_Group_7" data-name="&lt;Group&gt;">
          <path id="_Compound_Path_" data-name="&lt;Compound Path&gt;" d="M1079.48,641.916l-59.888,5.049a8.267,8.267,0,0,1-8.241-11.612l25.372-56.787a8.271,8.271,0,0,1,14.428-1.216l34.516,51.739a8.267,8.267,0,0,1-6.187,12.828Zm-35.519-63.685a3.666,3.666,0,0,0-3.086,2.19L1015.5,637.208a3.722,3.722,0,0,0,3.7,5.227l59.895-5.049a3.722,3.722,0,0,0,2.78-5.774l-34.516-51.739A3.669,3.669,0,0,0,1043.962,578.231Z" transform="translate(-1010.62 -573.671)" fill="#f77d48" fill-rule="evenodd"/>
        </g>
        <g id="_Group_8" data-name="&lt;Group&gt;" transform="translate(28.862 16.883)">
          <g id="_Group_9" data-name="&lt;Group&gt;">
            <path id="_Compound_Path_2" data-name="&lt;Compound Path&gt;" d="M1419.572,851.511a5.6,5.6,0,0,1,.235-2.176,5.1,5.1,0,0,1,1.024-1.8,5.39,5.39,0,0,1,1.721-1.273,6.6,6.6,0,0,1,2.361-.6,6.8,6.8,0,0,1,2.439.2,5.306,5.306,0,0,1,1.927.967,5.016,5.016,0,0,1,1.315,1.6,5.6,5.6,0,0,1,.59,2.1,5.328,5.328,0,0,1-.234,2.162,5.117,5.117,0,0,1-1.024,1.785,5.331,5.331,0,0,1-1.742,1.273,6.732,6.732,0,0,1-2.375.6,6.656,6.656,0,0,1-2.418-.2,5.4,5.4,0,0,1-1.913-.967,5.085,5.085,0,0,1-1.308-1.586A5.361,5.361,0,0,1,1419.572,851.511Zm9.266-10.837-8.633.732-3.7-29.375,11.072-.931Z" transform="translate(-1416.5 -811.1)" fill="#f77d48"/>
          </g>
        </g>
      </g>
    </g>
  </g>
</svg>
