<svg xmlns="http://www.w3.org/2000/svg" xmlns:xlink="http://www.w3.org/1999/xlink" width="344" height="269" viewBox="0 0 344 269">
  <defs>
    <clipPath id="clip-path">
      <rect id="Rectangle_2333" data-name="Rectangle 2333" width="344" height="269" transform="translate(88 442)" fill="#fff" stroke="#707070" stroke-width="1"/>
    </clipPath>
    <linearGradient id="linear-gradient" x1="-0.853" y1="-1.329" x2="0.349" y2="-1.329" gradientUnits="objectBoundingBox">
      <stop offset="0" stop-color="#ea00ff"/>
      <stop offset="1" stop-color="#0087d4"/>
    </linearGradient>
  </defs>
  <g id="Mask_Group_567" data-name="Mask Group 567" transform="translate(-88 -442)" clip-path="url(#clip-path)">
    <path id="Union_1" data-name="Union 1" d="M499.338,348.885c-23.923-11.794-53.705-8.258-85.236-4.515-3.617.429-7.356.874-11.039,1.286-20,2.262-36.272,2.485-49.745.683-11.713-1.568-21.5-4.635-29.614-9.307a55.456,55.456,0,0,1-9.412-6.8q-1.748-1.582-3.38-3.278a231.5,231.5,0,0,1-41.534,2.766,97.425,97.425,0,0,1-45.82-12.889c-16.631-9.578-30.868-24.3-42.166-43.595q-2.341-3.308-4.529-6.8-2.533-3.356-4.889-6.9-2.6-3.257-5.019-6.7-2.668-3.159-5.146-6.5-2.721-3.052-5.241-6.281-2.784-2.964-5.355-6.1-2.826-2.862-5.433-5.9-2.533-2.445-4.888-5.028-3.253-2.939-6.206-6.1-2.927-2.575-5.6-5.334-2.939-2.481-5.624-5.153-2.963-2.4-5.663-5-2.98-2.329-5.689-4.858-2.778-2.1-5.317-4.37-3.008-2.169-5.734-4.554a74.313,74.313,0,0,1-5.922-4.615q-2.99-2.054-5.693-4.341a69.161,69.161,0,0,1-5.677-4.227,66.864,66.864,0,0,1-5.677-4.133,64.641,64.641,0,0,1-5.673-4.045,62.706,62.706,0,0,1-5.551-3.874,61.042,61.042,0,0,1-5.679-3.9,59.388,59.388,0,0,1-5.627-3.806,58,58,0,0,1-5.623-3.746,55.582,55.582,0,0,1-9.483-6.866C20.549,126.03,12.114,96.568,3.185,65.377c-1.061-3.7-2.156-7.531-3.258-11.291l.509-.219c1.1,3.761,2.2,7.59,3.26,11.293,8.908,31.119,17.324,60.513,37.125,78.491a55.41,55.41,0,0,0,5.574,4.408q-.6-.532-1.176-1.081C26.625,128.161,18.331,99.37,9.551,68.889,7.946,63.317,6.285,57.555,4.576,51.93l.507-.226c1.71,5.63,3.371,11.393,4.976,16.967C18.824,99.087,27.1,127.817,45.6,146.539a56.415,56.415,0,0,0,4.742,4.016q.448.258.9.511-.639-.6-1.259-1.214C32.562,130.371,24.447,102.1,15.855,72.179c-2.118-7.38-4.31-15.011-6.631-22.406l.507-.231c2.324,7.4,4.515,15.037,6.635,22.419,8.573,29.868,16.673,58.077,34.01,77.466q1.459,1.45,3.011,2.772.791.4,1.6.776l-.237-.247C38.379,132.643,30.1,103.49,22.093,75.3c-2.6-9.146-5.283-18.6-8.218-27.681l.505-.235C17.318,56.47,20,65.932,22.6,75.081c8.36,29.438,16.256,57.243,32.551,77.234q.652.681,1.322,1.334,1.134.5,2.3.957c-14.945-20.558-22.862-48.9-30.522-76.323-3.04-10.881-6.182-22.131-9.732-32.824l.5-.239c3.554,10.705,6.7,21.963,9.739,32.85,7.745,27.727,15.753,56.392,31,76.918q1.4.527,2.851,1.006c-13.506-20.856-21.007-48.276-28.27-74.829-3.445-12.6-7.009-25.621-11.176-37.864l.5-.241c4.175,12.257,7.74,25.291,11.187,37.895,7.329,26.792,14.9,54.469,28.617,75.317q1.479.468,3.016.889c-12.19-21-19.266-47.508-26.123-73.2-3.815-14.3-7.763-29.082-12.549-42.818l.5-.245c4.793,13.755,8.743,28.55,12.561,42.856,6.91,25.887,14.042,52.607,26.384,73.615q1.546.408,3.151.768c-10.99-21-17.642-46.61-24.093-71.446C42.176,70.7,37.882,54.165,32.475,38.984l.5-.25c5.415,15.2,9.714,31.751,13.869,47.752,6.494,25,13.191,50.783,24.3,71.807q1.6.347,3.263.648c-9.9-20.881-16.132-45.587-22.181-69.573-4.459-17.678-9.069-35.959-15.1-52.542l.5-.253c6.038,16.609,10.651,34.9,15.114,52.594,6.085,24.129,12.354,48.986,22.343,69.894q1.651.288,3.362.531C69.53,138.947,63.709,115.137,58.052,92c-4.734-19.363-9.63-39.386-16.277-57.334l.5-.255c6.659,17.977,11.558,38.016,16.3,57.394,5.687,23.26,11.54,47.2,20.52,67.877q1.7.231,3.451.42c-8.017-20.311-13.439-43.22-18.714-65.5-4.981-21.047-10.132-42.811-17.4-62.089l.5-.26C54.2,51.561,59.357,73.343,64.342,94.406c5.3,22.393,10.748,45.415,18.818,65.761q1.735.178,3.528.314c-7.2-19.884-12.239-41.889-17.143-63.314-5.2-22.734-10.583-46.24-18.472-66.815l.5-.262c7.9,20.611,13.288,44.138,18.494,66.889C74.99,118.5,80.047,140.6,87.293,160.526q1.772.127,3.6.214c-6.466-19.377-11.129-40.468-15.674-61.028-5.4-24.42-10.982-49.671-19.493-71.518l.494-.265c8.527,21.886,14.114,47.159,19.518,71.6,4.564,20.644,9.248,41.824,15.746,61.239q1.8.079,3.662.12c-5.8-18.8-10.1-38.969-14.3-58.652C75.268,76.126,69.5,49.128,60.373,26.034l.494-.266C70.015,48.9,75.782,75.925,81.359,102.055c4.218,19.759,8.54,40.008,14.363,58.843,1.224.023,2.459.033,3.719.031-5.187-18.152-9.149-37.392-13.021-56.189-5.726-27.8-11.646-56.547-21.4-80.864l.493-.27c9.769,24.362,15.694,53.134,21.426,80.957,3.885,18.864,7.863,38.175,13.071,56.364q1.858-.008,3.772-.051c-4.634-17.449-8.268-35.746-11.823-53.644-5.859-29.5-11.917-60-22.289-85.515l.493-.271C80.554,47.015,86.619,77.54,92.484,107.06c3.567,17.957,7.214,36.319,11.864,53.8q1.885-.047,3.82-.129c-4.129-16.691-7.452-34.039-10.7-51.025C91.49,78.518,85.313,46.263,74.322,19.559l.491-.273C85.824,46.04,92.007,78.323,97.986,109.542c3.263,17.04,6.6,34.44,10.74,51.17,1.273-.056,2.557-.123,3.864-.2-3.671-15.889-6.694-32.27-9.658-48.33C96.86,79.285,90.582,45.272,78.972,17.4l.491-.275c11.631,27.923,17.915,61.966,23.992,94.889,2.973,16.107,6.006,32.539,9.689,48.461q1.928-.119,3.905-.269c-3.252-15.043-5.993-30.447-8.682-45.569-6.154-34.6-12.518-70.376-24.746-99.4l.49-.278c12.251,29.077,18.62,64.884,24.779,99.513,2.7,15.164,5.445,30.612,8.708,45.688q1.947-.151,3.943-.332c-2.871-14.159-5.342-28.576-7.769-42.744-6.221-36.305-12.655-73.847-25.5-104.006l.488-.279C101.631,43.02,108.07,80.594,114.3,116.931c2.434,14.207,4.911,28.661,7.791,42.852,1.312-.121,2.635-.251,3.979-.392-2.524-13.241-4.738-26.657-6.918-39.859C112.873,81.518,106.385,42.207,92.92,10.924l.488-.28C106.9,41.985,113.392,81.33,119.673,119.379c2.185,13.235,4.4,26.686,6.936,39.956.842-.089,1.694-.182,2.549-.279l1.461-.164c-2.206-12.292-4.179-24.7-6.121-36.919C117.892,80.413,111.652,41.159,97.57,8.767l.486-.284c14.109,32.456,20.646,73.574,26.967,113.339,1.948,12.252,3.925,24.688,6.138,37.009,1.348-.153,2.7-.31,4.046-.467-1.919-11.327-3.663-22.72-5.383-33.958-6.637-43.353-12.906-84.3-27.6-117.8l.487-.285c14.727,33.558,21,74.543,27.644,117.935,1.725,11.267,3.473,22.688,5.4,34.042,1.368-.16,2.731-.322,4.078-.482-1.658-10.35-3.188-20.731-4.7-30.984-6.655-45.153-12.941-87.8-28.258-122.385l.486-.286c15.345,34.65,21.637,77.335,28.3,122.526,1.516,10.281,3.05,20.689,4.712,31.065l.126-.015,3.983-.471c-1.422-9.366-2.752-18.74-4.068-28.011C133.743,82.3,127.45,37.951,111.519,2.291L112,2c15.962,35.731,22.26,80.12,28.928,127.113,1.319,9.3,2.654,18.7,4.079,28.089q2.074-.244,4.138-.481c-1.207-8.379-2.351-16.755-3.484-25.047-6.66-48.758-12.95-94.814-29.5-131.547l.485-.289c16.578,36.8,22.874,82.9,29.54,131.7,1.136,8.316,2.284,16.718,3.495,25.123,28.077-3.2,54.414-5.03,76.05,5.6,11.474,5.7,21.188,15.694,29.7,30.554a167.25,167.25,0,0,1,10.636,22.8q1.43,3.162,2.827,6.542c1.194,2.477,2.321,4.946,3.385,7.384q1.689,3.342,3.366,6.942,1.7,3.142,3.389,6.512c1.357,2.343,2.649,4.668,3.883,6.953,1.382,2.217,2.7,4.409,3.96,6.55,1.467,2.165,2.865,4.291,4.2,6.354q1.289,1.735,2.509,3.419l1.636,2.327.78.949,1.789,2.258q1.094,1.382,2.185,2.757,2.666,2.975,5.315,5.9,2.872,2.8,5.751,5.532,2.85,2.383,5.766,4.727,3.522,2.47,7.017,4.775,3.417,1.956,6.874,3.788,3.344,1.515,6.778,2.931,3.931,1.346,8.063,2.588,3.83.916,7.807,1.725,3.95.581,8.082,1.06,3.961.258,7.9.412,4.052-.034,8.124-.152,4.192-.309,8.445-.689,4.021-.534,8.165-1.126,4.109-.76,8.093-1.518,3.993-.923,8.03-1.861c23.25-6.338,46.975-12.545,69.926-16.63,69.51-12.316,122.331,9.3,144.92,59.314l-.485.289c-22.492-49.8-75.123-71.316-144.4-59.039-17.771,3.163-36.015,7.6-54.141,12.387,16.7-3.864,33.731-7.662,50.428-10.533,4.2-.724,8.414-1.342,12.52-1.839,30.963-3.745,57.835-.857,79.871,8.581,24.136,10.334,42.01,28.3,53.128,53.391l-.486.286c-11.067-24.977-28.859-42.856-52.882-53.144-21.958-9.4-48.749-12.28-79.625-8.546-4.1.5-8.3,1.113-12.494,1.834-19.45,3.345-39.355,7.948-58.663,12.448,3.484-.7,6.965-1.406,10.389-2.1,14.605-2.962,29.709-6.026,44.561-8.493,4.24-.707,8.487-1.321,12.622-1.818,31.739-3.824,58.846-1.012,80.565,8.359a96.723,96.723,0,0,1,31.043,21.282,109.5,109.5,0,0,1,21.89,33.131l-.487.282c-11.162-25.676-28.888-43.9-52.687-54.162-21.642-9.338-48.665-12.139-80.318-8.325-4.128.5-8.368,1.108-12.6,1.815-14.844,2.465-29.942,5.528-44.542,8.49-6.223,1.263-12.635,2.563-18.9,3.791,9.217-1.511,18.7-3.226,27.929-4.894,10.416-1.882,21.186-3.83,31.807-5.533,4.3-.7,8.581-1.3,12.723-1.8,32.51-3.9,59.85-1.165,81.26,8.138,23.359,10.145,41.595,29.315,52.737,55.433l-.489.28c-11.091-26-29.242-45.082-52.49-55.181-21.331-9.268-48.589-12-81.012-8.1-4.136.5-8.41,1.1-12.7,1.8-10.616,1.7-21.384,3.65-31.8,5.531-11.3,2.043-22.984,4.156-34.094,5.879l-.913.139-.4.109c13.541-1.646,27.455-3.938,42.133-6.357,6.994-1.152,14.224-2.343,21.36-3.449,4.334-.679,8.65-1.278,12.825-1.778,33.746-4.037,60.554-1.448,81.954,7.918,23.15,10.125,41.319,29.647,52.54,56.454l-.489.277c-11.174-26.691-29.258-46.124-52.295-56.2-21.321-9.33-48.047-11.909-81.705-7.881-4.17.5-8.479,1.1-12.807,1.776-7.133,1.106-14.363,2.3-21.356,3.448-15.673,2.582-30.479,5.022-44.894,6.685l-.867.1-1.155.317c16.429-1.336,33.683-3.979,51.91-6.772q6.313-.967,12.659-1.923c4.38-.666,8.729-1.257,12.926-1.759,34.52-4.114,61.555-1.6,82.648,7.7,22.945,10.107,41.047,29.98,52.346,57.476l-.492.273c-11.249-27.376-29.271-47.16-52.1-57.218-21.015-9.26-47.969-11.765-82.4-7.661-4.192.5-8.535,1.092-12.91,1.757q-6.34.948-12.658,1.924c-18.978,2.907-36.9,5.653-53.952,6.931l-.837.059-1.652.452c18.727-.75,38.874-3.67,60.169-6.757l5.228-.757c4.448-.655,8.833-1.241,13.027-1.74,35.781-4.251,62.265-1.876,83.344,7.476a89.008,89.008,0,0,1,30.8,22.907c8.566,9.737,15.748,21.712,21.348,35.59l-.492.271c-11.321-28.063-29.27-48.2-51.9-58.237-21-9.316-47.4-11.679-83.093-7.439-4.191.5-8.569,1.083-13.015,1.738l-5.229.758c-21.886,3.172-42.559,6.168-61.742,6.819l-.822.023-2.01.549c20.594.04,43.723-3.181,66.1-6.3,4.514-.642,8.93-1.221,13.129-1.718,36.556-4.329,63.26-2.024,84.039,7.254A87.433,87.433,0,0,1,582.259,331.8c8.472,9.876,15.609,22.058,21.214,36.206l-.494.266c-11.55-29.156-28.946-49.095-51.706-59.255-20.7-9.243-47.323-11.536-83.789-7.217-4.194.5-8.608,1.075-13.117,1.718-22.818,3.176-46.413,6.461-67.33,6.3l-.822-.012-2.285.621c20.122.9,43.054-1.874,66.74-5.054,4.675-.644,9-1.2,13.231-1.7,37.84-4.465,63.972-2.3,84.732,7.033,22.683,10.2,40.1,30.565,51.759,60.541l-.5.262c-11.612-29.851-28.944-50.129-51.509-60.273-20.679-9.293-46.734-11.451-84.482-7-4.225.5-8.549,1.056-13.221,1.7-24.049,3.229-47.322,6.041-67.691,5.018l-.836-.049-2.5.673c20.816,1.846,45.65-.984,67.328-3.791,4.761-.633,9.122-1.182,13.332-1.679,26-3.059,59.2-5.048,85.428,6.811,22.493,10.181,39.84,30.891,51.562,61.561l-.5.261c-11.672-30.544-28.938-51.169-51.314-61.292-26.117-11.812-59.239-9.826-85.174-6.774-4.208.5-8.566,1.047-13.326,1.679-21.918,2.837-47.059,5.7-68.051,3.737l-.867-.089-2.664.712c20.241,2.707,44.586.4,67.891-2.51,4.917-.632,9.311-1.175,13.433-1.659,28.168-3.3,60.428-5.1,86.122,6.589,22.307,10.162,39.591,31.218,51.367,62.582l-.5.257c-11.728-31.238-28.931-52.2-51.12-62.311-25.589-11.645-57.766-9.848-85.868-6.552-4.121.485-8.513,1.028-13.428,1.659-23.491,2.929-48.038,5.256-68.413,2.457l-.912-.134c-.937.249-1.868.5-2.8.741,20.517,3.695,45.014,1.6,68.439-1.214,3.7-.458,8.585-1.059,13.534-1.641,30.167-3.526,61.561-5.194,86.817,6.37,22.127,10.144,39.344,31.544,51.171,63.6l-.5.254c-11.779-31.93-28.909-53.238-50.923-63.33-25.151-11.514-56.468-9.848-86.562-6.33-4.949.58-9.831,1.181-13.533,1.639-23.534,2.829-48.154,4.928-68.773,1.177q-.487-.092-.971-.187-1.462.383-2.921.762l.012,0c20.742,4.716,46.5,2.694,68.967.1l1.864-.223q5.882-.7,11.772-1.4c35.527-4.139,64-4.679,87.512,6.148,21.954,10.134,39.1,31.874,50.974,64.624l-.5.252c-11.824-32.622-28.891-54.275-50.726-64.348-23.409-10.781-51.812-10.239-87.257-6.109q-5.883.687-11.771,1.4l-1.866.222c-22.507,2.6-48.318,4.626-69.133-.1-.351-.083-.7-.166-1.048-.251q-1.51.39-3.017.775l.205.058c20.81,5.691,46.713,3.887,69.308,1.372q4.706-.542,9.429-1.1l4.31-.5c29.172-3.388,62.451-6,88.207,5.928,21.78,10.117,38.863,32.2,50.778,65.645l-.5.249c-11.868-33.314-28.871-55.308-50.53-65.367-25.645-11.88-58.844-9.268-87.95-5.887l-4.31.5q-4.719.55-9.431,1.1c-22.64,2.52-48.6,4.326-69.493-1.386-.381-.107-.759-.216-1.136-.327q-1.553.395-3.1.783l.4.132c20.952,6.715,48.229,4.942,69.651,2.648,4.341-.48,8.672-.979,13.841-1.58,31.066-3.6,63.52-6.12,88.9,5.705,21.611,10.1,38.627,32.53,50.581,66.668l-.5.246C569.5,356.9,552.567,334.568,531.076,324.52c-25.27-11.773-57.646-9.255-88.644-5.665-5.168.6-9.5,1.1-13.843,1.58-21.472,2.3-48.814,4.074-69.852-2.668q-.624-.205-1.242-.418-1.592.4-3.175.784l.594.226c20.935,7.71,48.4,6.147,70,3.925,4.015-.427,8.313-.908,13.941-1.562,32.932-3.8,64.565-6.242,89.595,5.485,11.381,5.351,21.562,14.29,30.256,26.562,7.709,10.881,14.482,24.718,20.132,41.125l-.5.244c-11.946-34.7-28.818-57.374-50.14-67.406-24.918-11.674-56.478-9.236-89.338-5.443-5.627.653-9.929,1.134-13.946,1.561-21.644,2.229-49.185,3.793-70.212-3.95q-.687-.259-1.364-.527-1.621.395-3.24.782c.265.116.532.231.8.345,16.3,6.8,37.989,8.4,70.337,5.2,4.181-.427,8.643-.917,14.044-1.541,34.79-4,65.6-6.37,90.29,5.263,21.585,10.219,38,32.688,50.191,68.709l-.5.241C563.1,361.488,546.77,339.1,525.3,328.949c-24.581-11.581-55.316-9.216-90.031-5.221-5.4.625-9.867,1.115-14.05,1.541-32.434,3.208-54.2,1.595-70.572-5.232q-.756-.322-1.5-.656c-1.1.261-2.2.52-3.3.775q.5.248,1.012.49c16.242,7.575,38.041,9.572,70.68,6.474,4.3-.421,8.923-.919,14.146-1.521,30.315-3.479,64.674-7.419,90.984,5.041,21.417,10.2,37.772,33.008,49.994,69.731l-.5.238C559.99,364.02,543.716,341.3,522.42,331.166c-26.189-12.4-60.475-8.472-90.726-5-5.226.6-9.855,1.1-14.154,1.522-32.731,3.108-54.606,1.1-70.93-6.516q-.834-.4-1.651-.808-1.679.387-3.35.763.611.335,1.231.662c15.955,8.247,38.526,10.709,71.025,7.749,4.366-.41,9.027-.9,14.248-1.5,32.327-3.7,65.758-7.521,91.678,4.822,21.256,10.184,37.55,33.327,49.8,70.75l-.5.236c-12.206-37.287-28.415-60.343-49.552-70.461-25.8-12.286-59.158-8.47-91.419-4.779-5.223.6-9.887,1.091-14.258,1.5-32.6,2.969-55.248.49-71.289-7.8q-.916-.483-1.816-.988c-1.133.253-2.269.5-3.4.747q.722.44,1.46.866c15.876,9.02,38.555,11.888,71.37,9.024,4.451-.4,9.144-.885,14.349-1.482l1.269-.145c33.714-3.848,65.56-7.482,91.1,4.744,21.1,10.167,37.329,33.648,49.6,71.772l-.506.233c-12.229-37.986-28.372-61.364-49.355-71.48-25.421-12.168-57.2-8.542-90.843-4.7l-1.27.145c-5.208.6-9.905,1.083-14.36,1.483-32.917,2.873-55.684-.013-71.648-9.084q-1.014-.585-2-1.2-1.723.37-3.437.726.839.562,1.7,1.1c15.78,9.8,38.575,13.069,71.715,10.3,4.493-.385,9.219-.864,14.449-1.462l3.23-.369c33.236-3.8,64.63-7.38,89.838,4.747,11.484,5.571,21.282,14.921,29.952,28.593,7.337,11.569,13.7,26.028,19.455,44.2l-.506.232c-12.251-38.687-28.329-62.4-49.159-72.5-25.087-12.069-56.411-8.492-89.576-4.7l-3.231.369c-5.235.6-9.967,1.077-14.465,1.463-32.136,2.687-54.589-.3-70.393-9.4q-.819-.471-1.612-.962-1.115-.7-2.2-1.44-1.742.358-3.475.7.959.7,1.946,1.379c15.686,10.578,38.592,14.251,72.06,11.572,4.552-.371,9.311-.843,14.552-1.442q2.517-.285,5.029-.575c32.82-3.762,63.818-7.316,88.733,4.732,21.089,10.284,36.727,33.741,49.211,73.814l-.507.229c-12.441-39.933-28-63.293-48.965-73.518-24.793-11.989-55.723-8.443-88.47-4.69q-2.515.289-5.031.574c-5.247.6-10.012,1.072-14.569,1.443-31.251,2.5-53.335-.532-68.971-9.536q-1.75-1.007-3.391-2.113-1.225-.836-2.4-1.718c-1.171.23-2.345.455-3.51.673q1.083.868,2.206,1.7c15.595,11.351,38.6,15.433,72.406,12.846,4.617-.361,9.411-.826,14.653-1.423q3.353-.378,6.7-.768c32.452-3.741,63.1-7.276,87.759,4.7,20.936,10.27,36.515,34.051,49.016,74.834l-.507.226c-12.457-40.641-27.949-64.33-48.769-74.538-24.532-11.921-55.117-8.395-87.5-4.66q-3.346.386-6.7.768c-5.249.6-10.048,1.063-14.672,1.424-30.45,2.331-52.188-.744-67.666-9.656a56.364,56.364,0,0,1-5.054-3.279q-1.344-.99-2.628-2.036-1.775.329-3.543.641,1.21,1.055,2.475,2.058c15.485,12.13,38.6,16.616,72.75,14.12,4.64-.342,9.467-.8,14.756-1.4q4.125-.466,8.241-.949c32.132-3.735,62.482-7.264,86.909,4.664,20.788,10.255,36.307,34.363,48.82,75.856l-.508.223c-12.471-41.35-27.909-65.361-48.571-75.556-24.3-11.868-54.587-8.347-86.647-4.619q-4.115.479-8.242.947c-5.3.6-10.13,1.062-14.776,1.405-29.724,2.172-51.136-.939-66.461-9.763a56.019,56.019,0,0,1-6.615-4.454q-1.47-1.165-2.867-2.4c-1.192.207-2.385.409-3.572.6q1.341,1.269,2.754,2.469c15.373,12.905,38.6,17.8,73.1,15.393,4.688-.329,9.549-.781,14.858-1.383q4.847-.545,9.684-1.12c31.851-3.739,61.936-7.271,86.162,4.615,11.458,5.684,21.176,15.572,29.707,30.217,6.953,11.935,13.14,27.2,18.916,46.659l-.509.223c-7.853-26.465-21.42-63.191-48.377-76.577-24.1-11.824-54.117-8.3-85.895-4.57q-4.836.568-9.687,1.121c-5.316.6-10.184,1.057-14.878,1.386-29.061,2.025-50.17-1.119-65.351-9.861a56.034,56.034,0,0,1-8.083-5.641q-1.605-1.362-3.118-2.814-1.8.291-3.6.562,1.476,1.512,3.043,2.933c22.2,19.911,58.905,18.64,88.4,15.3,3.682-.413,7.42-.857,11.036-1.286,31.6-3.752,61.457-7.3,85.5,4.559,11.454,5.718,21.153,15.733,29.647,30.622,6.856,12.017,13,27.481,18.781,47.275l-.51.219C538.995,397.294,525.8,362.093,499.338,348.885ZM269.449,329.153a230.269,230.269,0,0,0,40.988-2.693q-1.8-1.906-3.471-3.947a253.851,253.851,0,0,1-38.867.857,120.682,120.682,0,0,1-12.177-1.4,107.012,107.012,0,0,1-36.176-12.824,115.727,115.727,0,0,1-31.126-26.562q-1.709-2.02-3.351-4.125C205.7,310.1,234.693,327.965,269.449,329.153Zm41.687-2.8c1.19-.178,2.377-.362,3.573-.553q-1.827-1.788-3.528-3.7-1.775.185-3.522.35Q309.332,324.468,311.136,326.357Zm4.287-.669c1.182-.192,2.359-.389,3.547-.594q-1.847-1.668-3.574-3.459-1.766.2-3.505.389Q313.594,323.92,315.423,325.688Zm4.276-.721q1.755-.307,3.516-.631-1.863-1.549-3.611-3.212-1.754.222-3.483.426Q317.852,323.32,319.7,324.967Zm4.263-.769q1.737-.323,3.482-.663-1.873-1.429-3.637-2.966-1.741.239-3.458.46Q322.1,322.671,323.962,324.2Zm4.25-.813q1.719-.338,3.444-.691-1.876-1.309-3.653-2.72-1.726.253-3.429.49Q326.341,321.977,328.212,323.385ZM189.033,282.177c18.041,21.648,40.59,34.845,67.023,39.227a120.584,120.584,0,0,0,12.127,1.4,252.769,252.769,0,0,0,38.354-.817q-1.609-2-3.1-4.119a290.658,290.658,0,0,1-36.614-.849c-4.043-.382-8.136-.948-12.165-1.681a120.684,120.684,0,0,1-39.195-14.14,122.123,122.123,0,0,1-29.317-23.732q-2.426-2.584-4.725-5.314c.145.251.289.5.436.749Q185.28,277.741,189.033,282.177Zm143.417,40.354c1.131-.233,2.268-.472,3.4-.715q-1.876-1.191-3.659-2.478l-.027,0q-1.7.264-3.369.513Q330.575,321.244,332.449,322.531Zm-25.224-.61q1.735-.161,3.5-.342-1.646-1.886-3.178-3.883-1.725.081-3.428.145Q305.616,319.939,307.226,321.921Zm29.445-.28c1.115-.24,2.24-.486,3.36-.734l-.035-.02q-1.844-1.062-3.606-2.209-1.687.273-3.369.534Q334.8,320.472,336.671,321.641Zm-25.243-.135q1.727-.181,3.479-.382-1.674-1.766-3.243-3.643-1.718.1-3.416.181Q309.783,319.641,311.427,321.506Zm4.2-.465q1.714-.2,3.454-.418-1.7-1.647-3.3-3.4-1.71.116-3.4.216Q313.951,319.293,315.627,321.041Zm25.252-.323q1.653-.369,3.31-.749-1.629-.844-3.2-1.748l-.411-.238q-1.667.283-3.331.556Q339.022,319.671,340.878,320.718Zm-21.058-.189c1.135-.145,2.275-.295,3.427-.451q-1.72-1.527-3.347-3.154-1.7.132-3.38.248Q318.121,318.9,319.82,320.529Zm4.189-.555q1.685-.232,3.394-.48-1.737-1.407-3.384-2.907-1.688.146-3.356.278Q322.291,318.469,324.01,319.974Zm21.063-.209q1.625-.375,3.254-.76-1.817-.839-3.567-1.749-1.641.291-3.281.573Q343.238,318.834,345.073,319.765Zm-16.88-.387q1.669-.246,3.359-.507-1.748-1.287-3.41-2.659-1.675.16-3.329.306Q326.459,317.994,328.193,319.378Zm21.061-.593q1.591-.378,3.189-.766-1.787-.728-3.511-1.519-1.613.3-3.222.586Q347.449,317.97,349.254,318.785Zm-16.886-.04q1.664-.256,3.328-.523-1.749-1.164-3.421-2.408-1.275.126-2.547.244l-.764.075Q330.625,317.481,332.368,318.745Zm4.177-.66q1.642-.266,3.286-.544-1.741-1.041-3.411-2.155-1.643.177-3.283.342Q334.8,316.945,336.545,318.085Zm16.874-.3c1.036-.253,2.078-.509,3.118-.767q-1.748-.622-3.44-1.3-1.58.3-3.158.6Q351.649,317.078,353.42,317.782Zm-12.7-.392q1.612-.275,3.229-.56-1.726-.92-3.389-1.907c-1.079.125-2.154.246-3.232.364Q338.992,316.374,340.723,317.39ZM186.538,277.042a118.842,118.842,0,0,0,68.255,37.731c4.017.732,8.1,1.3,12.126,1.677a289.449,289.449,0,0,0,36.125.861q-1.45-2.086-2.8-4.274c-12.127-.256-23.618-1.044-34.7-2.372-4-.5-8.092-1.161-12.158-1.961a137.35,137.35,0,0,1-42.81-15.693,128.953,128.953,0,0,1-26.911-20.666q-2.506-2.4-4.883-4.942.5.938,1.008,1.861Q183.029,273.3,186.538,277.042Zm117.186,40.245c1.128-.041,2.26-.087,3.4-.14q-1.491-1.973-2.884-4.045-1.668-.019-3.32-.051Q302.275,315.22,303.724,317.287Zm4.1-.172q1.682-.08,3.388-.176-1.529-1.857-2.962-3.811c-1.108,0-2.214-.009-3.311-.019Q306.334,315.161,307.824,317.115Zm49.744-.356q1.516-.378,3.038-.763-1.7-.518-3.351-1.084-1.545.3-3.087.6Q355.841,316.161,357.568,316.759Zm-45.641.139q1.675-.1,3.369-.21-1.562-1.738-3.033-3.57-1.656.012-3.3.011Q310.4,315.062,311.927,316.9Zm32.964-.234q1.58-.281,3.164-.571-1.706-.8-3.354-1.664-1.588.2-3.174.382Q343.178,315.769,344.891,316.664Zm-28.861-.026q1.664-.113,3.347-.241-1.591-1.619-3.1-3.326-1.648.026-3.283.04Q314.471,314.921,316.03,316.639Zm4.105-.3q1.648-.128,3.319-.271-1.615-1.5-3.149-3.078-1.638.04-3.263.068Q318.548,314.742,320.136,316.339Zm4.106-.338q1.633-.142,3.289-.3-1.633-1.373-3.192-2.827-1.629.053-3.24.094Q322.631,314.527,324.241,316Zm24.808-.09q1.544-.285,3.092-.579-1.675-.688-3.3-1.428-1.554.2-3.11.4Q347.364,315.134,349.049,315.91Zm12.654-.193q1.47-.374,2.941-.753-1.649-.42-3.255-.879c-.995.2-1.992.4-2.984.6C359.491,315.044,360.588,315.388,361.7,315.717Zm-33.357-.092,1.39-.135q.935-.087,1.872-.178-1.648-1.251-3.224-2.574l-1.1.034q-1.065.041-2.124.077Q326.719,314.276,328.346,315.625Zm4.115-.4q1.613-.16,3.232-.332-1.646-1.121-3.227-2.308-1.611.066-3.212.12Q330.824,314,332.461,315.228Zm20.736-.1q1.5-.288,3.012-.583-1.633-.578-3.222-1.2c-1.013.139-2.03.276-3.044.411Q351.547,314.469,353.2,315.13Zm-16.6-.33q1.586-.171,3.175-.353-1.635-.992-3.214-2.044-1.587.079-3.164.146Q334.963,313.708,336.594,314.8Zm29.23-.14q1.414-.366,2.832-.736-1.58-.327-3.129-.686-1.446.3-2.886.594Q364.213,314.264,365.824,314.66Zm-8.482-.335q1.444-.285,2.891-.576-1.586-.47-3.138-.979-1.455.209-2.913.412Q355.742,313.775,357.342,314.325Zm-16.62.013q1.554-.18,3.109-.37-1.281-.686-2.528-1.4-.328-.189-.653-.38c-1.041.06-2.075.117-3.108.17Q339.1,313.374,340.722,314.338Zm4.124-.494q1.516-.187,3.034-.383-1.587-.742-3.129-1.531-1.527.1-3.043.192Q343.253,313.009,344.846,313.844Zm25.083-.253c.9-.236,1.8-.473,2.7-.711-1-.16-1.995-.329-2.98-.506q-1.379.292-2.755.58Q368.4,313.287,369.93,313.59Zm-8.467-.089q1.387-.281,2.779-.568-1.522-.369-3.014-.769-1.409.211-2.82.417C359.416,312.9,360.432,313.206,361.463,313.5Zm-12.5-.182c.987-.129,1.97-.26,2.957-.394q-1.543-.623-3.049-1.284-1.5.111-2.98.212Q347.408,312.607,348.967,313.319Zm4.132-.555c.936-.129,1.869-.259,2.8-.392q-1.494-.507-2.959-1.049c-.944.077-1.881.151-2.817.223Q351.6,312.175,353.1,312.765Zm12.486-.109q1.309-.272,2.625-.549-1.442-.274-2.856-.572-1.333.207-2.671.41C363.643,312.191,364.607,312.428,365.585,312.655Zm8.435-.145,2.541-.677q-1.406-.16-2.792-.342-1.3.281-2.606.559C372.109,312.212,373.059,312.365,374.02,312.51Zm-62.21.04q-1.435-1.814-2.791-3.71-1.595-.089-3.184-.187,1.315,1.995,2.709,3.9Q310.17,312.56,311.81,312.551Zm.732,0q1.616-.012,3.248-.036-1.468-1.692-2.863-3.466-1.588-.077-3.172-.163Q311.11,310.754,312.542,312.546Zm-4.709.011q-1.4-1.931-2.711-3.948-1.6-.1-3.195-.212,1.271,2.113,2.624,4.137Q306.183,312.551,307.833,312.556Zm8.714-.059q1.6-.026,3.223-.063-1.5-1.571-2.928-3.216-1.579-.064-3.153-.138Q315.082,310.827,316.547,312.5Zm-12.689.028q-1.354-2.043-2.624-4.178c-1.07-.076-2.135-.155-3.2-.237q1.224,2.225,2.532,4.361Q302.2,312.505,303.858,312.526Zm16.7-.11q1.591-.039,3.2-.089-1.525-1.447-2.982-2.962-1.569-.052-3.132-.114Q319.065,310.871,320.558,312.416ZM184.043,271.906c18.772,18.774,42.15,30.963,69.487,36.235,4.056.8,8.135,1.457,12.125,1.958,10.941,1.31,22.28,2.094,34.236,2.358q-1.309-2.153-2.531-4.4c-11.28-.887-22.345-2.138-33.1-3.744-3.933-.614-8.019-1.369-12.147-2.242a157.931,157.931,0,0,1-47.165-17.525,135.8,135.8,0,0,1-23.765-17.321q-2.4-2.068-4.679-4.245.61,1.23,1.236,2.442Q180.784,268.779,184.043,271.906ZM324.574,312.3q1.37-.045,2.753-.1l.411-.012q-1.545-1.321-3.029-2.709-1.552-.04-3.1-.09Q323.058,310.881,324.574,312.3Zm32.619-.112q1.347-.194,2.691-.393-1.426-.4-2.824-.823-1.368.122-2.724.236Q355.751,311.715,357.193,312.188Zm-28.593-.025c1.047-.034,2.1-.072,3.155-.114q-1.553-1.189-3.05-2.439-1.56-.044-3.115-.1Q327.064,310.869,328.6,312.163Zm4.071-.151q1.545-.064,3.1-.138-1.551-1.057-3.052-2.169-1.535-.029-3.068-.07Q331.132,310.853,332.67,312.013Zm37.025-.22,2.448-.522q-1.329-.187-2.64-.392-1.254.2-2.51.4C367.885,311.457,368.788,311.629,369.7,311.793Zm-32.951.034q1.511-.075,3.033-.161-1.543-.927-3.038-1.9-1.508-.015-3.009-.041Q335.213,310.8,336.744,311.827Zm24.567-.243q1.255-.188,2.509-.38-1.335-.3-2.648-.611-1.277.123-2.546.239Q359.955,311.219,361.311,311.583Zm-20.489.023q1.471-.086,2.955-.181-1.521-.8-3-1.637-1.473,0-2.943-.014Q339.305,310.713,340.822,311.606Zm37.275-.184,2.343-.63c-.862-.059-1.721-.123-2.572-.192l-2.4.524Q376.774,311.282,378.1,311.422Zm-33.193-.07q1.434-.1,2.877-.2-1.483-.671-2.93-1.377c-.963.007-1.921.011-2.88.013Q343.419,310.591,344.9,311.352Zm4.109-.289q1.339-.1,2.689-.207-1.431-.548-2.839-1.128-1.346.022-2.688.036Q347.578,310.43,349.013,311.063Zm16.409-.107c.77-.12,1.542-.241,2.31-.362q-1.2-.2-2.394-.417-1.19.123-2.37.24Q364.187,310.695,365.422,310.956Zm8.381-.042,2.189-.475q-1.2-.108-2.383-.229l-2.237.367C372.178,310.695,372.986,310.807,373.8,310.914Zm-20.736-.167q1.278-.1,2.566-.216-1.361-.43-2.7-.885-1.293.032-2.581.057Q351.7,310.238,353.067,310.746Zm29.09-.418,2.09-.566c-.769-.018-1.532-.04-2.292-.065l-2.147.476C380.588,310.229,381.369,310.28,382.157,310.328Zm-24.991.068q1.167-.1,2.343-.214-1.259-.318-2.5-.655-1.183.039-2.363.073Q355.895,310.008,357.166,310.4Zm12.39-.093,1.958-.317q-1.046-.117-2.081-.244c-.669.073-1.332.145-2,.216Q368.489,310.135,369.556,310.3Zm8.33-.277,1.866-.411q-1.022-.043-2.035-.093l-1.915.324Q376.838,309.94,377.885,310.025Zm-16.623-.009q1.051-.1,2.11-.207-1.1-.213-2.194-.438c-.723.03-1.441.059-2.161.086C359.762,309.648,360.507,309.834,361.262,310.016Zm12.382-.38,1.527-.254c-.547-.033-1.089-.067-1.633-.1l-1.565.18Q372.806,309.549,373.645,309.635Zm-8.232-.034,1.618-.169c-.6-.08-1.2-.164-1.788-.248l-1.637.079C364.2,309.378,364.808,309.491,365.413,309.6Zm20.794-.372,1.747-.476c-.645.013-1.288.024-1.931.033l-1.793.4C384.885,309.2,385.546,309.218,386.207,309.229Zm-16.719-.062,1-.111-1.161-.094-1.009.058C368.709,309.07,369.1,309.119,369.488,309.167Zm12.475-.044,1.392-.31q-.782,0-1.561.006l-1.421.247Q381.166,309.1,381.964,309.123Zm-38.25.089q-1.385-.695-2.739-1.42-1.374-.088-2.752-.185,1.349.822,2.734,1.61Q342.333,309.22,343.714,309.213Zm1.3-.008q1.266-.01,2.536-.026-1.319-.562-2.619-1.153-1.267-.068-2.538-.145Q343.691,308.557,345.015,309.2Zm-5.235.01q-1.426-.83-2.818-1.7-1.409-.1-2.821-.217,1.38.968,2.8,1.9Q338.358,309.21,339.78,309.215Zm9.231-.058q1.19-.019,2.384-.045-1.23-.435-2.444-.89-1.2-.052-2.4-.112Q347.773,308.645,349.011,309.157Zm-13.153.027q-1.451-.967-2.861-1.977-1.444-.12-2.892-.25,1.392,1.114,2.828,2.181C333.907,309.156,334.881,309.172,335.858,309.184Zm17.207-.111q1.048-.026,2.1-.057-1.1-.313-2.186-.639c-.706-.024-1.415-.049-2.121-.077Q351.954,308.695,353.065,309.073Zm-21.133.045q-1.459-1.1-2.874-2.256-1.472-.136-2.952-.283,1.394,1.26,2.831,2.466C329.933,309.072,330.934,309.1,331.932,309.118Zm45.811-.17.829-.141-.974-.01-.833.1Zm-20.621.007q.9-.03,1.807-.064c-.59-.13-1.179-.262-1.763-.4q-.934-.021-1.868-.047Q356.2,308.706,357.122,308.955Zm-29.12.063q-1.457-1.241-2.866-2.536-1.36-.138-2.728-.285l-.268-.025q1.379,1.4,2.809,2.743Q326.472,308.972,328,309.017Zm33.275-.219,1.092-.047q-.582-.092-1.159-.186l-1.114-.015C360.489,308.634,360.881,308.716,361.277,308.8Zm-37.193.094q-1.442-1.373-2.831-2.8-1.488-.142-2.979-.291,1.352,1.531,2.76,3C322.049,308.834,323.067,308.864,324.084,308.892Zm-3.876-.12q-1.416-1.5-2.777-3.06-1.5-.152-3.008-.313,1.32,1.66,2.7,3.257Q318.663,308.719,320.208,308.772Zm45.115-.16.1-.005-.129-.013h-.1Zm-48.991.012q-1.387-1.622-2.712-3.31-1.512-.163-3.029-.333,1.284,1.786,2.629,3.5Q314.773,308.558,316.331,308.624Zm68.831-.4.858-.011.725-.163-.842.043Zm-72.7.22q-1.352-1.743-2.637-3.553-1.52-.173-3.047-.353,1.243,1.908,2.549,3.743Q310.89,308.37,312.46,308.447Zm76.312-.282c.489-.011.976-.023,1.466-.036l1.282-.351-1.43.087Zm-80.179.077q-1.311-1.858-2.555-3.79c-1.018-.122-2.036-.246-3.059-.373q1.2,2.026,2.463,3.974Q307.015,308.152,308.594,308.242Zm48.936-.311-.325-.059-.232-.018.311.072Zm-3.062-.079q-.645-.159-1.286-.321c-.47-.043-.937-.087-1.407-.132q.668.207,1.342.41Zm-49.735.156q-1.267-1.971-2.466-4.018-1.531-.192-3.069-.392,1.151,2.136,2.37,4.2Q303.148,307.906,304.733,308.008Zm46.14-.28q-.946-.3-1.884-.608-.884-.092-1.771-.189.937.368,1.886.724C349.694,307.681,350.284,307.705,350.873,307.728Zm-49.994.018q-1.222-2.08-2.372-4.238-1.534-.2-3.076-.41,1.1,2.245,2.274,4.41Q299.289,307.632,300.878,307.746Zm46.369-.176q-1.115-.435-2.216-.886c-.712-.083-1.424-.168-2.139-.255q1.1.526,2.212,1.032C345.82,307.5,346.533,307.536,347.247,307.57Zm-3.73-.2q-1.222-.573-2.428-1.17-1.171-.15-2.35-.308,1.2.679,2.423,1.335Q342.34,307.3,343.517,307.373Zm-161.97-40.6c18.972,17.283,42.763,28.97,70.719,34.741,4.121.872,8.2,1.624,12.122,2.236,10.608,1.584,21.521,2.823,32.644,3.707q-1.174-2.184-2.275-4.449c-10.272-1.4-20.81-3.079-31.777-5.046-3.878-.727-7.847-1.551-12.135-2.52-19.65-4.322-37.189-10.912-52.4-19.672a141.948,141.948,0,0,1-19.74-13.662q-2.183-1.694-4.282-3.472.657,1.422,1.333,2.82Q178.567,264.2,181.547,266.771ZM393.54,307.08l.708-.048.6-.163-.7.073Zm-53.771.059q-1.3-.715-2.574-1.455-1.285-.178-2.58-.367,1.262.836,2.551,1.64Q338.469,307.052,339.769,307.139Zm-3.843-.275q-1.344-.857-2.656-1.746-1.327-.2-2.667-.408,1.294.987,2.62,1.939Q334.577,306.762,335.926,306.864Zm13.794-.247-.445-.122-.628-.1.5.166Zm-17.625-.062q-1.366-1-2.7-2.035-1.367-.218-2.747-.448,1.308,1.138,2.65,2.235Q330.7,306.435,332.095,306.555Zm14.378-.286c-.459-.16-.92-.322-1.376-.485l-1.251-.226q.677.286,1.361.566Zm-18.207-.058q-1.372-1.139-2.706-2.321-1.4-.237-2.814-.485,1.306,1.287,2.65,2.526C326.352,306.027,327.312,306.12,328.265,306.21Zm14.821-.339q-.927-.4-1.846-.8-.9-.173-1.791-.35.914.47,1.835.926Q342.188,305.762,343.086,305.872Zm-20.576-.242c.643.069,1.283.136,1.924.2q-1.367-1.278-2.692-2.605-.886-.158-1.778-.32l-1.067-.177q1.29,1.429,2.621,2.806Zm17.017-.211q-1.07-.547-2.134-1.113-1.067-.22-2.118-.443c.706.429,1.415.851,2.133,1.269Q338.469,305.278,339.527,305.418Zm-18.887.034q-1.347-1.411-2.649-2.873-1.42-.238-2.841-.483,1.261,1.56,2.568,3.067Q319.181,305.311,320.64,305.452Zm-3.758-.374q-1.32-1.538-2.589-3.13c-.956-.165-1.916-.333-2.873-.5q1.227,1.688,2.5,3.321Q315.4,304.926,316.881,305.077Zm19.014-.159q-1.178-.7-2.335-1.426-1.194-.261-2.369-.527,1.143.814,2.307,1.6Q334.7,304.747,335.895,304.918Zm6.005-.312-.726-.278-.389-.1.65.289Zm-28.775.075q-1.285-1.66-2.519-3.379-1.447-.257-2.9-.519,1.189,1.814,2.429,3.567Q311.636,304.519,313.126,304.681Zm19.049-.312q-1.234-.855-2.445-1.737-1.256-.29-2.489-.583,1.191.978,2.408,1.927C330.5,304.109,331.336,304.24,332.175,304.368Zm-22.8-.106q-1.247-1.779-2.44-3.62-1.455-.265-2.914-.535,1.145,1.932,2.346,3.8Q307.876,304.09,309.378,304.262Zm29.547-.239q-.73-.337-1.455-.681-.641-.175-1.279-.353.709.388,1.419.767Zm-10.464-.24q-1.267-1.006-2.506-2.044-1.3-.315-2.584-.633,1.214,1.138,2.456,2.241Q327.15,303.571,328.461,303.783Zm-22.825.039q-1.2-1.893-2.354-3.853-1.463-.272-2.928-.549,1.1,2.047,2.256,4.031Q304.128,303.641,305.636,303.823Zm29.974-.484q-.936-.515-1.864-1.043-.906-.262-1.8-.527.92.6,1.853,1.18C334.4,303.08,335,303.21,335.61,303.339Zm-33.709.024q-1.16-2.006-2.262-4.077-1.469-.279-2.939-.561,1.053,2.158,2.162,4.248Q300.386,303.172,301.9,303.363Zm22.846-.2q-1.279-1.153-2.528-2.345-1.343-.337-2.659-.676,1.215,1.292,2.465,2.546Q323.394,302.932,324.748,303.164Zm-26.574-.282q-1.112-2.111-2.165-4.291-1.472-.284-2.947-.572,1,2.261,2.064,4.455Q296.653,302.682,298.174,302.882Zm33.944-.3q-1.074-.69-2.13-1.394-1.05-.318-2.091-.641,1.034.785,2.083,1.55Q331.041,302.337,332.119,302.578Zm-12.016-.235.932.169q-1.276-1.3-2.518-2.638l-.993-.258-1.682-.407q1.2,1.437,2.44,2.832ZM179.052,261.637c19,15.74,43.209,26.922,71.952,33.244,4.285.969,8.248,1.792,12.118,2.516,10.809,1.94,21.2,3.594,31.334,4.985q-1.063-2.212-2.065-4.495c-10.131-1.986-20.349-4.111-30.688-6.281-3.646-.8-7.612-1.714-12.126-2.8-22.782-5.319-42.018-12.538-58.288-21.908a148.153,148.153,0,0,1-15.061-9.913q-1.9-1.325-3.747-2.708.673,1.563,1.368,3.1Q176.385,259.567,179.052,261.637Zm155.474,40.277-.711-.355-.482-.174.654.375Zm-17.144-.025q-1.256-1.432-2.474-2.908-1.343-.328-2.69-.66,1.174,1.57,2.386,3.094Q315.993,301.654,317.382,301.889Zm11.165-.129q-1.141-.85-2.263-1.722-1.137-.359-2.264-.723,1.1.96,2.21,1.894Q327.377,301.485,328.546,301.759Zm-14.794-.493q-1.226-1.557-2.412-3.163l-2.727-.678q1.138,1.7,2.319,3.346Q312.344,301.022,313.752,301.267Zm17.871-.2q-.7-.41-1.388-.827-.69-.26-1.372-.521c.458.313.921.626,1.384.935Q330.933,300.861,331.623,301.066Zm-6.661-.166q-1.178-1.006-2.334-2.038-1.2-.392-2.386-.788,1.123,1.123,2.269,2.219Q323.726,300.6,324.962,300.9Zm-14.836-.273q-1.19-1.679-2.338-3.409l-2.752-.692q1.1,1.819,2.242,3.588Q308.7,300.374,310.126,300.628Zm18.216-.558q-.906-.621-1.8-1.252c-.583-.229-1.161-.458-1.738-.689q.871.7,1.752,1.383Q327.446,299.793,328.342,300.07Zm-6.966-.063q-1.192-1.156-2.357-2.342-1.247-.42-2.48-.841,1.128,1.28,2.284,2.529Q320.087,299.681,321.376,300.008Zm-14.869-.033q-1.15-1.8-2.256-3.645l-2.775-.7q1.056,1.935,2.157,3.819Q305.071,299.712,306.508,299.975Zm-3.611-.666q-1.107-1.909-2.167-3.872l-2.791-.712q1.01,2.049,2.065,4.04Q301.452,299.039,302.9,299.308Zm14.8-.248.1.025q-1.189-1.3-2.348-2.637l-.359-.124-2.13-.688q1.119,1.429,2.266,2.823Q316.46,298.762,317.694,299.06Zm7.281-.051q-1.011-.8-2.007-1.621-1.006-.409-2-.819.971.9,1.954,1.776Q323.945,298.68,324.975,299.01Zm2.547-.435-.635-.4-.728-.345.662.47Zm-28.229.055q-1.059-2.015-2.073-4.089l-2.8-.718q.961,2.154,1.97,4.251Q297.841,298.354,299.293,298.63Zm15-.4q-1.169-1.436-2.309-2.911l-2.528-.822q1.091,1.561,2.216,3.087Q312.986,297.913,314.295,298.233Zm7.262-.336q-1.069-.972-2.122-1.966-1.087-.455-2.16-.911,1.021,1.08,2.057,2.135Q320.439,297.528,321.556,297.9Zm-25.86.043q-1.012-2.118-1.976-4.3l-2.816-.723q.912,2.254,1.873,4.451Q294.239,297.658,295.7,297.94Zm28.875-.533c-.46-.334-.915-.669-1.371-1.006-.422-.207-.842-.413-1.262-.622q.66.553,1.325,1.1Q323.913,297.143,324.571,297.407Zm-13.768-.035q-1.14-1.562-2.247-3.165l-2.572-.839q1.059,1.689,2.15,3.339ZM176.557,256.5c19.062,14.315,43,24.7,73.185,31.745,4.512,1.086,8.476,2,12.116,2.8,10.19,2.139,20.264,4.234,30.251,6.2q-.962-2.215-1.875-4.492l-.323-.083c-9.58-2.462-19.486-5.007-29.487-7.413q-4.758-1.193-9.532-2.419l-2.584-.659c-27.145-6.706-47.654-14.328-64.767-24.185-3.388-1.951-6.642-3.988-9.789-6.124q-1.571-.978-3.1-1.991c.449,1.117.907,2.229,1.371,3.324Q174.241,254.893,176.557,256.5Zm141.568,40.244q-1.1-1.134-2.173-2.291-1.149-.491-2.279-.98,1.039,1.247,2.1,2.467Q316.942,296.347,318.124,296.748Zm-10.81-.246q-1.1-1.684-2.174-3.409l-1.859-.607-.745-.243q1.021,1.812,2.074,3.579Zm14.153-.359q-.86-.722-1.712-1.455-.832-.42-1.661-.842.824.8,1.656,1.584Q320.6,295.787,321.467,296.143Zm-6.765-.554q-1.107-1.293-2.191-2.612l-2.291-.937q1.038,1.4,2.1,2.777Zm-10.87.035q-1.063-1.8-2.091-3.642l-2.631-.859q.978,1.927,1.99,3.808Zm14.41-.828q-.952-.914-1.893-1.845-.947-.488-1.891-.98.907,1,1.824,1.992Q317.255,294.379,318.242,294.8Zm-17.886-.055q-1.02-1.909-2-3.865l-2.652-.863q.933,2.036,1.9,4.025Zm20.3-.255c-.266-.2-.533-.409-.8-.613l-.5-.3.712.616Zm-9.3.019q-1.087-1.424-2.151-2.88l-2.355-.963q1.016,1.538,2.054,3.045Zm-14.471-.651q-.974-2.015-1.91-4.077l-2.669-.864q.884,2.139,1.806,4.231ZM312.88,292.5q1.042.452,2.1.907-1-1.088-1.98-2.195-1.026-.537-2.049-1.078.944,1.186,1.9,2.354Zm-4.868.919q-1.06-1.55-2.094-3.135l-2.409-.983q.985,1.666,1.994,3.3Zm9.933-.3q-.672-.592-1.34-1.19l-1.2-.728c.422.425.848.849,1.273,1.269Zm-24.523-.146q-.927-2.114-1.813-4.279-1.339-.432-2.683-.863.835,2.237,1.71,4.426Zm10.061-1.029,1.183.387q-1.024-1.67-2.024-3.378l-2.449-.994q.948,1.788,1.922,3.539Zm6.36-.683,1.894.775q-1.02-1.257-2.025-2.538l-2.084-1.042q.956,1.355,1.929,2.688ZM174.06,251.37c19,12.9,41.951,22.228,74.418,30.248l2.585.66q4.779,1.221,9.529,2.418c9.961,2.4,19.828,4.932,29.374,7.384q-.877-2.209-1.715-4.47c-9.479-3.031-19.174-6.01-29.107-8.711-3.856-1.089-7.989-2.247-12.106-3.356-28.305-7.376-51.6-14.821-72.149-26.653-1.217-.7-2.418-1.413-3.616-2.145q-1.19-.659-2.355-1.337.663,1.774,1.351,3.513Q172.134,250.172,174.06,251.37Zm140.914,40.21q-.814-.819-1.622-1.648-.776-.479-1.553-.962.772.888,1.548,1.762Q314.161,291.157,314.974,291.581Zm-13.649-.348q-.986-1.786-1.944-3.609-1.239-.5-2.483-1,.907,1.9,1.841,3.766Zm7.229-.505q-1.007-1.393-2-2.812l-2.169-1.079q.94,1.5,1.9,2.965Zm-10.567-.584q-.943-1.893-1.858-3.829-1.251-.5-2.51-1,.863,2.011,1.755,3.981Zm12.485-.927,1.443.762q-.886-1.012-1.763-2.038l-1.78-1.118q.845,1.1,1.7,2.193Zm3.814.6-.761-.7-.5-.356.678.7Zm-8.925-.4q-.983-1.521-1.947-3.07-1.121-.555-2.237-1.1.915,1.626,1.847,3.222Zm-10.709-.363q-.9-2-1.767-4.039-1.263-.5-2.532-1,.817,2.114,1.664,4.185Zm14.223-.642q-.933-1.2-1.856-2.424l-1.856-1.109q.875,1.288,1.76,2.558Zm2.825-.2q-.629-.658-1.254-1.32l-1.108-.807q.589.7,1.178,1.387Zm-9.538-.1q-.952-1.642-1.883-3.313-1.146-.563-2.289-1.12.881,1.747,1.781,3.464Zm-10.84-.137q-.853-2.1-1.673-4.237-1.272-.5-2.551-.992.77,2.209,1.57,4.377Zm14.542-1.067q-.93-1.346-1.849-2.715-.982-.584-1.971-1.169.871,1.44,1.752,2.857Zm-134.3-40.678c21.384,13.074,45.709,20.947,75.65,28.75,4.121,1.109,8.257,2.27,12.112,3.358,9.779,2.66,19.329,5.588,28.668,8.571q-.805-2.193-1.577-4.424c-9.242-3.561-18.729-6.964-28.552-9.947-4.466-1.4-8.422-2.594-12.1-3.636l-2.421-.663c-25.522-6.991-51.913-14.219-74.552-26.624q-.763-.375-1.515-.755.645,1.857,1.316,3.678Q170.065,245.407,171.565,246.238Zm127.4,40.587q-.915-1.756-1.808-3.544-1.167-.567-2.332-1.127.842,1.861,1.706,3.692Q297.749,286.335,298.963,286.825Zm9.1-.886.834.525q-.753-.893-1.5-1.794l-1.455-1.072q.723.974,1.453,1.94Zm-12.3-.4q-.874-1.865-1.727-3.763-1.184-.568-2.366-1.128.8,1.969,1.625,3.908Q294.533,285.047,295.764,285.539Zm7.065-.128q-.915-1.483-1.816-2.986c-.685-.4-1.369-.8-2.058-1.207q.852,1.576,1.717,3.13C301.39,284.7,302.107,285.055,302.829,285.411Zm3.26-.653q-.837-1.118-1.667-2.25-.8-.564-1.6-1.12.781,1.186,1.569,2.359Zm2.216-.145-.646-.7-.476-.4.588.709Zm-15.74-.346q-.832-1.969-1.64-3.971-1.2-.566-2.395-1.123.757,2.071,1.539,4.112Q291.32,283.774,292.565,284.267Zm7.217-.355q-.889-1.608-1.763-3.239-1.058-.616-2.124-1.228.824,1.7,1.663,3.382Q298.668,283.366,299.782,283.912Zm3.478-.838q-.848-1.273-1.688-2.56c-.585-.407-1.172-.814-1.753-1.215q.791,1.348,1.59,2.682Q302.337,282.527,303.26,283.074Zm-13.893-.065q-.787-2.068-1.55-4.169-1.211-.562-2.42-1.113.714,2.171,1.45,4.3Q288.11,282.519,289.367,283.01Zm16.287-.349.214.158c-.382-.466-.765-.936-1.146-1.4l-1.038-.887q.56.77,1.122,1.536Zm-8.926-.237q-.857-1.726-1.7-3.475-1.084-.62-2.177-1.239.79,1.82,1.6,3.615Q295.587,281.871,296.728,282.424Zm-127.66-41.319c22.6,12.383,48.966,19.6,74.463,26.588l2.422.663c3.681,1.044,7.641,2.234,12.108,3.639,9.669,2.936,19.008,6.278,28.11,9.776q-.742-2.162-1.458-4.356a293.008,293.008,0,0,0-28.125-11.225c-4.3-1.492-8.253-2.772-12.085-3.913-5.253-1.511-10.6-2.991-15.773-4.421-21.166-5.852-43.052-11.9-62.408-21.353l-.585-.255q.622,1.93,1.272,3.825Q168.029,240.594,169.068,241.105ZM300.39,281.382q-.839-1.412-1.671-2.84-.936-.643-1.866-1.276.782,1.492,1.573,2.968Q299.411,280.807,300.39,281.382Zm2.961-.339q-.725-1-1.446-2l-1.29-1.05c.449.7.9,1.391,1.35,2.083Zm-9.683-.091q-.818-1.835-1.62-3.7-1.1-.621-2.22-1.24.751,1.931,1.519,3.833Q292.506,280.4,293.668,280.951Zm3.828-1.257q-.82-1.54-1.63-3.1-.979-.662-1.951-1.312.762,1.625,1.532,3.229Q296.474,279.1,297.5,279.694Zm-6.892-.2q-.778-1.938-1.538-3.9-1.123-.619-2.256-1.234.71,2.03,1.437,4.036Q289.424,278.942,290.6,279.5Zm10.125-.28q-.761-1.175-1.519-2.362-.753-.607-1.511-1.213.71,1.239,1.426,2.468Q299.925,278.66,300.729,279.217Zm2.042-.219-.655-.817-.421-.412.607.846Zm-15.235-.932q-.734-2.035-1.45-4.1-1.138-.614-2.287-1.221.667,2.127,1.351,4.225Q286.344,277.515,287.536,278.067Zm7.052-.044q-.793-1.661-1.575-3.339-1.011-.672-2.019-1.332.733,1.746,1.476,3.472Q293.533,277.421,294.588,278.023Zm3.449-.657q-.771-1.332-1.537-2.678-.827-.656-1.661-1.311.718,1.4,1.443,2.8Q297.156,276.764,298.037,277.365Zm2.582-.12q-.58-.812-1.158-1.628l-.9-.846q.529.835,1.059,1.664ZM166.572,235.974c19.326,9.436,41.192,15.483,62.338,21.329,5.173,1.43,10.521,2.91,15.779,4.422,3.842,1.144,7.8,2.425,12.106,3.92a292.058,292.058,0,0,1,27.671,11.017q-.689-2.124-1.361-4.281a232.033,232.033,0,0,0-27.8-12.545c-4.219-1.6-8.168-2.973-12.076-4.191-8.654-2.607-17.523-4.975-26.1-7.266-17.785-4.748-36.17-9.658-52.849-16.811q.593,1.984,1.214,3.935C165.855,235.662,166.212,235.818,166.572,235.974Zm125.1,40.4q-.76-1.773-1.508-3.566-1.039-.677-2.073-1.34.7,1.86,1.411,3.7Q290.587,275.766,291.668,276.372Zm3.635-.86q-.761-1.472-1.519-2.96-.88-.686-1.77-1.37.709,1.547,1.424,3.081Q294.367,274.882,295.3,275.511Zm2.933-.185q-.654-1.031-1.308-2.068-.61-.563-1.229-1.13.609,1.077,1.218,2.147Q297.578,274.8,298.236,275.327Zm-9.5-.58q-.723-1.88-1.435-3.78-1.059-.674-2.117-1.336.663,1.966,1.338,3.911Q287.638,274.142,288.739,274.747Zm3.8-1.077q-.741-1.6-1.478-3.215-.921-.7-1.853-1.4c.458,1.116.919,2.232,1.381,3.337C291.241,272.813,291.889,273.238,292.542,273.67Zm3.191-.331q-.687-1.212-1.371-2.429-.712-.645-1.434-1.293.64,1.269,1.282,2.528Q294.974,272.741,295.733,273.339Zm2.085-.047-.734-1.042-.367-.392.627,1Zm-12.015-.139q-.685-1.981-1.356-3.983-1.08-.67-2.155-1.324.624,2.068,1.26,4.11Q284.682,272.55,285.8,273.152Zm3.958-1.3q-.714-1.718-1.42-3.448-.954-.711-1.921-1.418.658,1.792,1.324,3.57Q288.751,271.2,289.761,271.85ZM164.076,230.843c16.775,7.247,35.308,12.2,53.234,16.982,8.581,2.291,17.454,4.66,26.116,7.269,3.92,1.221,7.877,2.594,12.1,4.2a231.217,231.217,0,0,1,27.332,12.3q-.643-2.075-1.274-4.174a189.3,189.3,0,0,0-27.556-13.936c-4.166-1.721-8.112-3.183-12.068-4.468-11.334-3.569-23.072-6.5-34.425-9.329-14.911-3.721-30.314-7.563-44.614-12.845.371,1.343.753,2.681,1.142,4ZM295.753,271.39l-1.038-1.655c-.293-.308-.586-.616-.882-.925q.478.853.955,1.7Zm-2.588-.056q-.692-1.365-1.382-2.739-.783-.695-1.576-1.39.645,1.429,1.292,2.848Q292.336,270.693,293.165,271.334Zm-6.2-1.275q-.68-1.822-1.353-3.664-.983-.714-1.975-1.419.625,1.9,1.256,3.783Q285.929,269.4,286.966,270.059Zm3.589-.723q-.682-1.5-1.361-3.013-.835-.724-1.682-1.446.634,1.569,1.269,3.126Q289.672,268.667,290.555,269.336Zm2.915-.013-1.186-2.12c-.388-.4-.781-.8-1.174-1.2q.552,1.1,1.1,2.2Q292.847,268.763,293.471,269.323Zm-9.314-1.021q-.642-1.923-1.278-3.864-1-.709-2.021-1.41.587,2,1.182,3.98Q283.1,267.648,284.157,268.3Zm3.76-.941q-.661-1.625-1.32-3.261-.876-.74-1.765-1.477.612,1.693,1.227,3.376Q286.992,266.676,287.917,267.36Zm5.287-.04-.619-.988-.411-.49.546.977Zm-2.121-.12q-.623-1.244-1.248-2.5-.677-.682-1.365-1.366.582,1.3,1.165,2.6Q290.363,266.567,291.083,267.2Zm-83.374-28.072c11.359,2.833,23.1,5.763,34.455,9.337,3.968,1.291,7.925,2.756,12.1,4.482a188.8,188.8,0,0,1,27.074,13.638q-.6-2.016-1.2-4.051a165.63,165.63,0,0,0-27.385-15.406c-4.06-1.814-8.115-3.411-12.058-4.747-13.5-4.432-27.664-7.644-41.361-10.748-12.53-2.839-25.457-5.769-37.686-9.612q.529,2.082,1.087,4.128C177.132,231.5,192.67,235.377,207.708,239.128ZM177.74,266.647c-.149-.284-.3-.57-.445-.855-.18-.2-.359-.4-.538-.6q.27.438.543.873Q177.52,266.358,177.74,266.647Zm107.516-1.23q-.633-1.737-1.264-3.487-.909-.747-1.831-1.488.585,1.809,1.172,3.6Q284.3,264.727,285.256,265.417Zm5.947-.151-.924-1.654c-.285-.333-.572-.667-.86-1l.018.036.837,1.677Q290.74,264.8,291.2,265.266Zm-2.573-.2q-.63-1.4-1.261-2.815-.744-.731-1.5-1.46.587,1.464,1.174,2.923Q287.842,264.39,288.63,265.067Zm-6.054-1.555q-.6-1.841-1.2-3.7-.936-.745-1.887-1.485.552,1.912,1.108,3.812Q281.593,262.823,282.576,263.512Zm-106.306.261c-.322-.644-.639-1.288-.955-1.941q-.671-.656-1.333-1.322.532.936,1.076,1.86Q175.659,263.076,176.27,263.773Zm112.746-.71-.054-.107-1.015-2.034q-.56-.637-1.127-1.273l.31.692.687,1.536Q288.419,262.47,289.015,263.063Zm-2.881-.113q-.62-1.543-1.241-3.095-.8-.759-1.6-1.515.576,1.606,1.153,3.207Q285.295,262.246,286.135,262.95Zm-86.641-31.876c13.708,3.107,27.884,6.318,41.407,10.76,3.957,1.342,8.026,2.943,12.1,4.763a165.158,165.158,0,0,1,26.884,15.055q-.567-1.94-1.13-3.894a148.049,148.049,0,0,0-27.276-16.985,120.434,120.434,0,0,0-12.046-5.025c-15.283-5.226-31.557-8.487-47.3-11.64-10.49-2.1-21.3-4.268-31.681-7,.332,1.424.677,2.848,1.028,4.247C173.8,225.252,186.852,228.208,199.493,231.074Zm89.394,30.049-.49-.873-.46-.6.455.91Zm-5.279-.26q-.6-1.669-1.2-3.346-.835-.773-1.683-1.54.556,1.735,1.112,3.458Q282.728,260.146,283.608,260.863Zm3.119-.05-.083-.185q-.522-1.171-1.047-2.342-.647-.716-1.3-1.43l.469,1.17.583,1.457Q286.04,260.146,286.727,260.813Zm-112.152-.529q-.589-1.249-1.166-2.519-.911-.788-1.806-1.593.638,1.208,1.294,2.4Q173.726,259.434,174.575,260.284Zm-1.623-.449q-.246-.439-.489-.881c-.206-.214-.408-.427-.613-.642q.279.427.561.851C172.59,259.388,172.772,259.613,172.952,259.836Zm114-.908q-.4-.793-.8-1.585-.418-.535-.845-1.073l.743,1.659Q286.5,258.428,286.948,258.928Zm-5.894-.113q-.573-1.781-1.147-3.573-.869-.778-1.75-1.547.529,1.846,1.058,3.685Q280.141,258.093,281.054,258.815Zm3.322-.252-.107-.267q-.516-1.291-1.034-2.583-.71-.762-1.432-1.522l.544,1.518.515,1.438Q283.626,257.854,284.377,258.563Zm-92.1-35.017c15.753,3.157,32.043,6.42,47.355,11.657a120.555,120.555,0,0,1,12.093,5.045,147.522,147.522,0,0,1,26.749,16.566q-.542-1.885-1.085-3.782a134.379,134.379,0,0,0-27.2-18.613,106.193,106.193,0,0,0-12.037-5.3c-16.768-5.961-34.918-9.083-52.469-12.1-8.7-1.5-17.654-3.035-26.363-4.913q.4,1.838.817,3.666c.054.236.106.465.16.7C170.778,219.237,181.691,221.424,192.28,223.546ZM284.843,256.6q-.468-1.043-.938-2.087-.537-.665-1.084-1.333.438,1.089.873,2.177Q284.273,255.98,284.843,256.6Zm-113.451.377q-.505-.949-1-1.911-.706-.652-1.4-1.315.548.908,1.107,1.807C170.522,256.035,170.957,256.51,171.393,256.979Zm110.591-.642-.135-.377-.987-2.754q-.758-.787-1.53-1.57l.561,1.749c.159.5.318,1,.477,1.491Q281.183,255.6,281.984,256.337Zm-109.145.158c-.424-.955-.845-1.925-1.257-2.9q-1.085-.828-2.147-1.677.683,1.388,1.388,2.756Q171.821,255.6,172.839,256.495ZM284.8,254.71q-.24-.461-.483-.925l-.354-.505q.2.443.4.887Zm-2.154-.469q-.5-1.238-1-2.475-.619-.741-1.25-1.484.464,1.287.926,2.575Q281.991,253.547,282.646,254.24Zm-3.088-.09-.17-.532q-.456-1.423-.913-2.848-.8-.8-1.609-1.592l.538,1.88.46,1.609Q278.717,253.4,279.557,254.15Zm-109.939-.6q-.616-1.224-1.214-2.464-.942-.77-1.869-1.556.657,1.173,1.331,2.329Q168.732,252.713,169.618,253.552Zm-1.678-.443q-.252-.426-.5-.856c-.21-.207-.423-.418-.632-.626.19.275.38.547.572.82C167.565,252.669,167.752,252.889,167.941,253.109Zm115.023-.66c-.259-.559-.519-1.118-.777-1.669q-.377-.523-.758-1.045l.066.162q.309.761.616,1.523C282.4,251.764,282.681,252.106,282.964,252.449Zm-111.84.06c-.437-1.048-.87-2.113-1.293-3.18q-1.223-.823-2.42-1.669.7,1.528,1.423,3.027Q169.966,251.609,171.124,252.509Zm14.7-36.058c17.572,3.021,35.742,6.146,52.549,12.122a106.558,106.558,0,0,1,12.089,5.325A133.767,133.767,0,0,1,277.1,252.012l-.211-.737q-.407-1.423-.821-2.868a124.465,124.465,0,0,0-27.153-20.343,95.451,95.451,0,0,0-12.027-5.58c-18.021-6.653-37.867-9.476-57.062-12.207-7.113-1.012-14.412-2.05-21.589-3.282q.467,2.251.952,4.484C167.985,213.384,177.03,214.938,185.824,216.451Zm94.564,35.438q-.5-1.4-1.008-2.8-.68-.786-1.371-1.569.468,1.451.933,2.9Q279.671,251.152,280.389,251.889Zm.562-1.849q-.45-1.1-.9-2.172-.5-.672-1.012-1.346l.036.1q.387,1.064.772,2.13Q280.4,249.394,280.951,250.04Zm-114.619.287c-.346-.614-.691-1.234-1.03-1.855q-.722-.629-1.435-1.271.56.88,1.131,1.747Q165.66,249.642,166.332,250.327Zm111.757-.756q-.495-1.538-.991-3.076-.727-.811-1.468-1.618.46,1.6.914,3.183Q277.323,248.813,278.089,249.571Zm-110.28.271q-.664-1.4-1.308-2.832-1.113-.8-2.2-1.623.7,1.353,1.43,2.684Q166.756,248.966,167.809,249.843Zm113.062-1.833c-.151-.314-.3-.625-.452-.936l-.275-.424c.124.293.247.586.37.882Zm-111.417.358q-.658-1.687-1.293-3.4-1.341-.791-2.652-1.607.7,1.638,1.422,3.244Q168.178,247.5,169.454,248.368Zm109.382-.783-.259-.713q-.333-.909-.68-1.841-.586-.758-1.185-1.514.431,1.319.858,2.64Q278.207,246.87,278.836,247.586ZM179.95,209.711c19.219,2.733,39.091,5.562,57.16,12.232a95.739,95.739,0,0,1,12.086,5.606A124.073,124.073,0,0,1,275.754,247.3q-.476-1.658-.957-3.325c-7.8-8.37-16.785-16.3-27.008-22.183l-.149-.086a88.088,88.088,0,0,0-12.019-5.858c-19.087-7.306-40.491-9.7-61.191-12.02-5.677-.637-11.485-1.287-17.246-2.039q.455,2.306.927,4.6C165.37,207.636,172.754,208.687,179.95,209.711ZM164.5,246.99q-.634-1.19-1.251-2.4-.963-.742-1.905-1.5.674,1.141,1.365,2.265Q163.6,246.182,164.5,246.99Zm-1.7-.4q-.258-.413-.514-.827-.324-.3-.645-.606.288.395.578.786C162.421,246.159,162.614,246.373,162.809,246.589Zm116.329-.883q-.362-.849-.723-1.682-.34-.508-.685-1.017.323.855.635,1.693C278.625,245.036,278.882,245.37,279.138,245.706Zm-113.115.237q-.682-1.539-1.341-3.1-1.247-.79-2.47-1.6.72,1.487,1.464,2.947Q164.836,245.073,166.024,245.943Zm110.638-.792q-.256-.787-.513-1.574-.214-.654-.429-1.3-.649-.807-1.312-1.61.434,1.484.865,2.976Q275.974,244.394,276.662,245.151ZM167.843,244.1q-.649-1.781-1.272-3.592-1.445-.741-2.854-1.505.684,1.726,1.4,3.422Q166.462,243.273,167.843,244.1Zm-6.686-.214c-.357-.6-.709-1.2-1.058-1.807q-.737-.608-1.462-1.226.574.855,1.159,1.7Q160.471,243.221,161.158,243.883Zm116.067-.643q-.408-1.08-.834-2.185c-.313-.45-.63-.9-.949-1.352q.377,1.112.752,2.244Q276.715,242.593,277.225,243.24Zm-114.587.133q-.684-1.368-1.346-2.759-1.132-.769-2.241-1.558.722,1.316,1.466,2.609Q161.566,242.529,162.638,243.373Zm11.9-40.111c20.728,2.322,42.163,4.722,61.308,12.049a88.163,88.163,0,0,1,12.082,5.888l.149.087c9.942,5.726,18.711,13.365,26.365,21.468q-.36-1.239-.72-2.472l-.2-.685c-7.695-9.174-16.692-17.869-27.16-24.245a80.046,80.046,0,0,0-12.009-6.135c-20.005-7.927-42.855-9.791-64.953-11.592-4.357-.356-8.8-.718-13.237-1.128q.443,2.355.9,4.7C162.9,201.96,168.788,202.619,174.539,203.263ZM164.29,241.9q-.681-1.645-1.336-3.315-1.119-.616-2.214-1.247l-.477-.276q.713,1.584,1.454,3.142Q162.99,241.063,164.29,241.9Zm112.868-.739q-.208-.467-.416-.93l-.208-.345q.166.426.329.85Zm-1.955-.434q-.439-1.307-.881-2.587-.55-.759-1.109-1.513.4,1.311.789,2.65Q274.608,240,275.2,240.725Zm-115.924-.093q-.649-1.158-1.283-2.335-.977-.712-1.937-1.441.689,1.109,1.4,2.2Q158.357,239.852,159.279,240.632Zm-1.708-.356c-.178-.27-.353-.538-.529-.809-.221-.2-.442-.391-.661-.588.2.258.395.512.595.768C157.173,239.858,157.371,240.066,157.57,240.275Zm8.728-.569q-.632-1.862-1.238-3.757-1.539-.684-3.04-1.392.667,1.813,1.363,3.594Q164.821,238.941,166.3,239.707Zm-5.5-.133q-.7-1.489-1.369-3-1.262-.747-2.5-1.515.727,1.425,1.48,2.827Q159.593,238.741,160.8,239.574Zm114.725-.742q-.328-.832-.666-1.676c-.216-.345-.434-.692-.653-1.037.2.565.4,1.13.593,1.7Q275.165,238.327,275.526,238.832ZM169.495,197.057c22.133,1.8,45.017,3.67,65.088,11.625a80.7,80.7,0,0,1,12.078,6.169c10.147,6.182,18.915,14.527,26.456,23.377q-.436-1.465-.876-2.9c-7.543-9.976-16.5-19.449-27.156-26.328a74.874,74.874,0,0,0-12-6.413c-20.8-8.524-45-9.764-68.406-10.962-3.133-.161-6.314-.323-9.5-.5q.432,2.4.879,4.793C160.558,196.329,165.071,196.7,169.495,197.057Zm-6.873,40.673q-.673-1.742-1.318-3.513-1.464-.7-2.892-1.427.705,1.689,1.442,3.352Q161.22,236.948,162.622,237.73Zm-6.745-.091q-.547-.873-1.082-1.757-.751-.587-1.489-1.183.585.83,1.181,1.648Q155.177,237,155.877,237.639Zm1.489-.526q-.689-1.31-1.356-2.639-1.142-.726-2.256-1.468.717,1.244,1.456,2.466Q156.276,236.3,157.367,237.113Zm116.312-.823c-.262-.745-.526-1.487-.789-2.218-.285-.437-.575-.876-.865-1.311q.35,1.115.7,2.253Q273.2,235.651,273.678,236.29Zm-114.653-.641q-.7-1.612-1.381-3.252-1.379-.712-2.725-1.446.739,1.562,1.506,3.094Q157.709,234.859,159.025,235.649Zm5.8-.446q-.611-1.936-1.195-3.906-1.625-.619-3.21-1.263.642,1.886,1.316,3.74Q163.258,234.5,164.822,235.2Zm108.835-.995c-.092-.224-.184-.444-.278-.669l-.259-.459c.082.227.165.454.247.682Zm-119.7.274q-.641-1.088-1.264-2.191-.98-.669-1.938-1.352.664,1.019,1.348,2.024Q153.023,233.731,153.959,234.482Zm-1.724-.32c-.182-.263-.361-.524-.541-.789q-.341-.286-.681-.575c.2.247.4.5.6.741Q151.923,233.851,152.235,234.162Zm12.523-43.109c23.446,1.2,47.69,2.442,68.561,11a75.32,75.32,0,0,1,12.074,6.452c10.278,6.636,18.979,15.667,26.357,25.237q-.41-1.316-.822-2.6c-7.378-10.809-16.283-21.1-27.122-28.493a70.18,70.18,0,0,0-11.991-6.69c-21.485-9.1-46.966-9.641-71.607-10.167-1.98-.042-3.982-.085-5.994-.132q.42,2.446.856,4.884C158.323,190.723,161.566,190.889,164.758,191.053Zm-9.254,42.4q-.725-1.472-1.422-2.966-.827-.46-1.641-.928-.445-.257-.886-.515.759,1.42,1.546,2.815Q154.286,232.668,155.5,233.456Zm5.515-.025q-.655-1.821-1.28-3.675-1.558-.642-3.075-1.31.686,1.772,1.4,3.51Q159.522,232.705,161.019,233.43Zm111.031-1.657c-.194-.526-.388-1.045-.583-1.564q-.283-.482-.567-.959.256.784.511,1.58Q271.733,231.3,272.051,231.773Zm-121.537-.165q-.516-.787-1.023-1.582-.739-.542-1.466-1.093.531.718,1.072,1.425Q149.8,230.987,150.514,231.608Zm6.786-.049q-.692-1.7-1.355-3.432-1.481-.662-2.925-1.348.723,1.651,1.477,3.271Q155.88,230.817,157.3,231.559Zm-5.25-.423q-.724-1.311-1.424-2.642-1.155-.692-2.284-1.4.761,1.262,1.549,2.5Q150.956,230.374,152.049,231.136Zm11.371-.543q-.579-1.977-1.13-3.99l-.923-.347q-1.241-.408-2.459-.83.615,1.955,1.261,3.874Q161.774,229.961,163.42,230.593Zm-3.147-45.378c24.687.526,50.214,1.07,71.782,10.2a70.726,70.726,0,0,1,12.07,6.733c10.382,7.086,18.993,16.8,26.191,27.091q-.35-1.07-.7-2.125c-8.518-13.875-17.269-23.765-27.083-30.831a66.482,66.482,0,0,0-11.982-6.969c-22.088-9.653-48.784-9.437-74.6-9.23l-2.666.021q.41,2.489.834,4.969C156.184,185.129,158.241,185.173,160.274,185.216Zm-6.611,44.368q-.722-1.573-1.414-3.174-1.395-.674-2.755-1.372.753,1.522,1.537,3.018Q152.331,228.831,153.663,229.583Zm5.829-.563q-.632-1.9-1.233-3.821-1.641-.577-3.242-1.18.659,1.843,1.351,3.655Q157.911,228.362,159.492,229.021Zm-10.855-.358q-.692-1.118-1.362-2.252-.994-.641-1.965-1.3.735,1.076,1.491,2.136Q147.708,227.963,148.637,228.663Zm-1.815-.407c-.138-.192-.275-.381-.412-.574q-.3-.234-.593-.47l.383.449Q146.509,227.959,146.821,228.256ZM270.3,227.146c-.114-.292-.227-.581-.341-.871l-.112-.211q.128.379.256.76ZM150.1,227.5q-.739-1.434-1.451-2.894-1.294-.677-2.556-1.376.771,1.383,1.575,2.744Q148.873,226.743,150.1,227.5Zm5.545-.142q-.672-1.781-1.315-3.592-1.573-.6-3.105-1.23.7,1.73,1.433,3.429Q154.137,226.669,155.65,227.353Zm-10.443-1.383q-.593-.861-1.171-1.731-.747-.52-1.481-1.049.651.842,1.318,1.67Q144.534,225.42,145.207,225.97Zm16.372-.257.522.2c-.366-1.352-.721-2.71-1.068-4.085q-1.074-.341-2.142-.692-.7-.2-1.4-.4.584,2.017,1.2,4Q160.12,225.234,161.579,225.713Zm-9.684-.127q-.708-1.663-1.386-3.354-1.5-.623-2.954-1.272.736,1.611,1.505,3.193Q150.459,224.882,151.9,225.586Zm-5.281-.306q-.738-1.277-1.45-2.577-.4-.226-.8-.454-.764-.44-1.516-.889.774,1.231,1.575,2.438Q145.508,224.55,146.614,225.28Zm84.179-36.49a66.845,66.845,0,0,1,12.065,7.014c9.384,6.756,17.794,16.072,25.954,28.955q-.287-.831-.574-1.651c-8.329-15.011-17.041-25.64-26.985-33.178a63.393,63.393,0,0,0-11.971-7.245c-22.477-10.128-50.126-9.179-76.906-8.194q.4,2.528.814,5.05L156,179.52q4.339-.035,8.7-.057C187.791,179.386,211.093,180.179,230.793,188.79Zm-72.75,35.716q-.605-1.963-1.178-3.956-1.721-.507-3.4-1.042.63,1.912,1.292,3.79Q156.38,223.916,158.043,224.506Zm-9.819-.792q-.737-1.538-1.443-3.1-1.41-.638-2.783-1.3.765,1.485,1.563,2.944Q146.876,223,148.225,223.713Zm5.856-.676q-.647-1.853-1.264-3.738-1.656-.536-3.27-1.1.672,1.8,1.379,3.574Q152.482,222.419,154.081,223.037Zm-10.916-.128q-.7-1.09-1.384-2.2-1-.614-1.986-1.243.745,1.049,1.513,2.08C141.921,222.009,142.538,222.46,143.165,222.909Zm-1.573-.032c-.223-.293-.446-.588-.666-.884-.2-.152-.406-.306-.608-.459q.46.518.926,1.03Zm3.042-1.15q-.752-1.4-1.475-2.824-1.308-.644-2.584-1.31.783,1.35,1.6,2.674Q143.385,221.008,144.634,221.727Zm5.573-.254q-.688-1.743-1.342-3.513-1.587-.563-3.134-1.153.712,1.691,1.459,3.351Q148.678,220.828,150.207,221.472Zm8.877-.89q.888.292,1.783.578c-.348-1.393-.685-2.793-1.013-4.211q-1.728-.459-3.438-.94l-.252-.06q.552,2.079,1.137,4.12C157.89,220.243,158.486,220.414,159.084,220.583Zm70.445-38.424a63.6,63.6,0,0,1,12.061,7.3c9.367,7.1,17.643,16.924,25.531,30.537-.077-.212-.153-.419-.231-.63-6.775-13.431-15.548-26.733-26.914-35.787a60.481,60.481,0,0,0-11.964-7.523c-22.151-10.284-48.534-9.047-76.523-7.251q.392,2.563.8,5.124c7.589-.279,15.25-.557,22.844-.583C194.428,173.28,213.3,174.845,229.529,182.159ZM139.7,220.324q-.6-.838-1.189-1.687-.759-.5-1.505-1.014.659.819,1.334,1.623Q139.018,219.79,139.7,220.324Zm16.972-.438q-.575-2.024-1.118-4.082-1.793-.434-3.541-.9c.4,1.315.808,2.624,1.228,3.917Q154.938,219.369,156.675,219.886Zm-10.255-.08q-.722-1.626-1.411-3.278-1.511-.587-2.982-1.2.746,1.572,1.529,3.118Q144.97,219.14,146.421,219.806Zm-5.311-.2q-.749-1.245-1.471-2.512-1.182-.631-2.335-1.283.784,1.2,1.595,2.374Q139.99,218.91,141.11,219.611Zm11.484-1q-.618-1.919-1.205-3.873-1.734-.467-3.423-.961.64,1.869,1.317,3.709Q150.918,218.064,152.594,218.613Zm-9.874-.58q-.749-1.5-1.464-3.029-1.424-.6-2.811-1.233.775,1.451,1.583,2.873Q141.357,217.351,142.721,218.033Zm-6.663-.686c-.229-.288-.453-.575-.678-.865q-.485-.347-.965-.7.319.348.64.692Q135.552,216.914,136.058,217.346Zm1.573-.006q-.711-1.06-1.4-2.139-1.016-.59-2.01-1.195.752,1.02,1.529,2.022Q136.679,216.692,137.631,217.34Zm10.972-.1q-.661-1.814-1.287-3.659-1.671-.5-3.3-1.023.682,1.764,1.4,3.5Q146.989,216.666,148.6,217.245Zm7.986-1.791q1.551.437,3.117.854l-.081-.355q-.45-1.983-.885-3.98-1.9-.413-3.782-.85c.137.589.274,1.174.414,1.761q.306,1.22.623,2.428Zm-17.489.688q-.763-1.366-1.494-2.758-1.321-.612-2.607-1.247.791,1.317,1.615,2.608Q137.84,215.456,139.1,216.143Zm5.6-.364q-.7-1.7-1.363-3.437-1.6-.526-3.159-1.08.721,1.654,1.478,3.276Q143.157,215.172,144.7,215.779Zm10.689-.613q-.271-1.039-.534-2.085t-.492-2.1l-.426-.1q-1.661-.325-3.279-.67.563,2.036,1.16,4.038C153,214.567,154.183,214.871,155.389,215.166Zm-21.245-.307q-.609-.816-1.2-1.645-.88-.554-1.741-1.12.615.742,1.244,1.472Q133.285,214.219,134.144,214.859Zm94.121-39.331a60.975,60.975,0,0,1,12.057,7.578c9.991,7.96,17.984,19.174,24.381,30.879-7.75-16.654-16.25-28.612-26-36.764a58.144,58.144,0,0,0-11.956-7.8c-21.823-10.429-48.139-8.891-76.123-6.378q.385,2.6.782,5.2c9.756-.626,19.323-1.187,28.583-1.218C197.389,166.964,213.719,168.774,228.265,175.528ZM140.888,214.21q-.733-1.59-1.429-3.206-1.524-.551-3.008-1.13.754,1.538,1.545,3.047Q139.422,213.579,140.888,214.21Zm10.306-.126q-.57-1.922-1.107-3.877c-.01-.04-.02-.081-.03-.122q-1.81-.393-3.566-.811.6,1.931,1.246,3.83C148.876,213.441,150.025,213.767,151.194,214.084Zm-15.645.038q-.758-1.216-1.488-2.452-1.195-.6-2.359-1.228.79,1.167,1.61,2.314Q134.416,213.45,135.549,214.123Zm11.539-1.213q-.629-1.879-1.222-3.787-1.747-.424-3.444-.875.645,1.824,1.328,3.615Q145.4,212.4,147.088,212.91Zm-9.928-.379q-.757-1.468-1.48-2.96-1.437-.571-2.833-1.168.782,1.417,1.6,2.806Q135.784,211.882,137.16,212.531Zm-5.112-.582q-.72-1.036-1.417-2.088-.883-.486-1.748-.984l-.425-.247q.732.968,1.487,1.917Q130.982,211.258,132.048,211.949Zm-1.88-.209c-.2-.246-.4-.491-.594-.739q-.384-.264-.764-.529c.216.227.431.451.649.676C129.695,211.347,129.93,211.543,130.168,211.74Zm12.9-.1q-.667-1.768-1.3-3.565-1.683-.455-3.316-.938.683,1.71,1.4,3.392Q141.444,211.1,143.07,211.639Zm15.535-.288q-.481-2.22-.944-4.456-1.916-.332-3.817-.683c.317,1.431.64,2.862.968,4.282Q156.7,210.934,158.6,211.351Zm-25.09-.617q-.771-1.335-1.509-2.694-1.332-.581-2.63-1.187.8,1.286,1.628,2.545Q132.243,210.079,133.515,210.734Zm20.58-.409.124.029q-.487-2.116-.958-4.251-.9-.169-1.8-.343-.988-.154-1.962-.316.491,2.081,1,4.144Q152.273,209.969,154.094,210.325Zm-14.95-.057q-.7-1.653-1.366-3.334-1.612-.485-3.177-1,.717,1.6,1.472,3.163Q137.588,209.7,139.144,210.268Zm10.758-.81q-.5-2.048-.989-4.112-1.879-.318-3.705-.664.309,1.221.624,2.438.227.758.459,1.509Q148.071,209.058,149.9,209.458Zm-21.555-.029q-.589-.771-1.163-1.553-.814-.49-1.614-.993.621.724,1.256,1.436Q127.579,208.88,128.347,209.429Zm6.959-.638q-.729-1.533-1.422-3.093-1.532-.512-3.021-1.052.746,1.476,1.529,2.924Q133.828,208.195,135.306,208.791Zm-5.363.016q-.766-1.188-1.5-2.4-1.252-.6-2.472-1.221.778,1.126,1.584,2.225Q128.733,208.124,129.943,208.807Zm15.723-.33q-.175-.57-.347-1.144-.357-1.378-.706-2.765-1.859-.358-3.665-.746l.112.415q.549,1.688,1.128,3.349Q143.9,208.046,145.666,208.478ZM227,168.9a58.623,58.623,0,0,1,12.051,7.861c8.5,7.1,16.048,17.072,22.976,30.491-10.095-23.023-21.851-37.153-36.552-44.46-21.5-10.566-47.732-8.755-75.708-5.568q.38,2.632.769,5.263c10.942-.984,21.632-1.82,31.9-1.855C198.533,160.575,213.6,162.491,227,168.9Zm-85.462,38.514q-.507-1.465-.99-2.951c-.07-.257-.139-.512-.208-.769q-1.779-.389-3.507-.807.655,1.8,1.35,3.569Q139.84,206.947,141.541,207.411Zm-9.985-.208q-.748-1.406-1.462-2.839-1.442-.534-2.844-1.095.767,1.351,1.569,2.674Q130.168,206.587,131.556,207.2Zm-5.258-.554q-.707-.995-1.391-2.008-1.06-.556-2.1-1.131.736.944,1.5,1.869Q125.29,206.023,126.3,206.649Zm-1.752-.084c-.2-.242-.4-.483-.6-.727q-.391-.257-.779-.517c.218.222.436.441.657.661C124.061,206.177,124.3,206.371,124.546,206.565Zm32.989-.279q-.469-2.278-.92-4.57-1.932-.255-3.854-.526.465,2.213.948,4.408Q155.614,205.953,157.535,206.286Zm-20.025-.036q-.681-1.748-1.32-3.524-1.692-.417-3.336-.863.7,1.7,1.433,3.365Q135.875,205.754,137.51,206.251ZM151.6,205.2q.762.148,1.527.291-.478-2.182-.939-4.381-1.607-.23-3.2-.474l-.61-.074q.482,2.147.98,4.273Q150.468,205.021,151.6,205.2Zm-23.707.3q-.757-1.272-1.479-2.565-1.365-.559-2.693-1.144.763,1.206,1.558,2.387Q126.565,204.849,127.892,205.5Zm5.681-.505q-.717-1.641-1.394-3.311-1.619-.448-3.194-.924.734,1.591,1.509,3.154Q132.011,204.465,133.573,204.991Zm15.2-.255q-.494-2.114-.971-4.245-1.9-.237-3.746-.5.491,2.046,1,4.076Q146.887,204.414,148.77,204.736Zm-26.059-.426q-.594-.753-1.172-1.518l-.082-.047q-.782-.451-1.549-.912.624.706,1.264,1.4Q121.933,203.776,122.71,204.309Zm21.747-.36q-.5-2.014-.989-4.046-1.878-.275-3.706-.579.5,1.943,1.015,3.868C141.986,203.455,143.215,203.707,144.458,203.949Zm-14.729-.322q-.75-1.531-1.459-3.09-1.539-.475-3.035-.979.768,1.484,1.577,2.935Q128.248,203.073,129.729,203.627Zm-5.5-.011q-.729-1.11-1.432-2.242-1.224-.553-2.415-1.129.75,1.053,1.527,2.082Q123.048,202.983,124.224,203.616Zm15.95-.555q-.51-1.909-1-3.836-1.856-.315-3.663-.661.386,1.4.781,2.792c.1.291.206.583.31.873Q138.36,202.661,140.174,203.061Zm-14.193-.908q-.775-1.413-1.512-2.856-1.463-.5-2.883-1.035.787,1.363,1.612,2.695Q124.568,201.568,125.981,202.153Zm9.974-.082c-.057-.16-.114-.322-.171-.483q-.444-1.563-.876-3.139-1.837-.359-3.619-.75.115.388.23.775.517,1.366,1.06,2.713Q134.243,201.644,135.955,202.07Zm-15.306-.475q-.678-.927-1.335-1.872-1.058-.527-2.091-1.073.7.868,1.418,1.719Q119.631,200.991,120.649,201.6Zm-1.751-.044q-.31-.357-.615-.718c-.267-.168-.534-.338-.8-.508q.331.326.667.649Q118.523,201.265,118.9,201.551Zm37.6-.431q-.456-2.331-.9-4.674-1.948-.182-3.891-.377.455,2.27.925,4.522Q154.56,200.865,156.5,201.12ZM131.9,201q-.453-1.136-.888-2.286c-.115-.384-.228-.766-.341-1.151q-1.751-.392-3.451-.815.7,1.667,1.437,3.3Q130.258,200.538,131.9,201Zm17.2-.93q1.473.226,2.957.439-.468-2.243-.918-4.5-1.933-.2-3.853-.412.468,2.189.953,4.366Zm-26.823.471q-.779-1.282-1.524-2.593-1.352-.518-2.666-1.062.8,1.237,1.642,2.444Q120.988,199.948,122.281,200.541Zm25.385-.647q-.483-2.172-.949-4.359l-.21-.024q-1.811-.153-3.579-.331.482,2.111.981,4.205Q145.764,199.653,147.666,199.893Zm-19.717-.066q-.72-1.609-1.4-3.249-1.63-.415-3.211-.859.734,1.562,1.512,3.092C125.87,199.16,126.9,199.5,127.949,199.827Zm15.376-.528q-.495-2.082-.971-4.179-1.9-.2-3.748-.421.492,2.013,1,4.013Q141.441,199.021,143.325,199.3Zm-26.275.048q-.556-.684-1.1-1.38-.816-.447-1.614-.9.57.623,1.154,1.238Q116.264,198.83,117.051,199.348Zm1.633-.543q-.772-1.14-1.515-2.306-1.223-.52-2.413-1.064.8,1.1,1.637,2.166Q117.521,198.214,118.684,198.8Zm20.331-.192q-.5-1.984-.991-3.984-1.878-.234-3.705-.5.5,1.914,1.019,3.812Q137.15,198.292,139.015,198.612Zm-14.925-.065q-.752-1.5-1.463-3.03-1.553-.446-3.062-.922.763,1.452,1.566,2.87Q122.587,198.021,124.09,198.547Zm10.647-.723q-.512-1.882-1.007-3.78-1.856-.274-3.661-.58.508,1.807,1.033,3.6Q132.892,197.46,134.737,197.825Zm-14.43-.677q-.768-1.38-1.5-2.794-1.464-.472-2.886-.973.789,1.336,1.616,2.64Q118.9,196.6,120.307,197.148Zm10.182-.221q-.518-1.774-1.019-3.565-1.833-.318-3.613-.669.439,1.455.89,2.9c.066.163.133.327.2.489Q128.691,196.52,130.489,196.926Zm-15.347-.016q-.735-.972-1.443-1.965-1.056-.5-2.083-1.013.772.933,1.571,1.844Q114.153,196.353,115.142,196.91Zm-1.915-.222q-.256-.287-.509-.576-.373-.224-.742-.451c.161.153.325.307.488.459Q112.844,196.405,113.227,196.687Zm42.264-.829q-.445-2.382-.873-4.773-1.964-.113-3.929-.237.443,2.32.9,4.63Q153.538,195.676,155.491,195.859Zm-29.216.049-.027-.067q-.51-1.628-1-3.27-1.808-.364-3.563-.763c.1.3.2.6.295.9q.507,1.167,1.038,2.315Q124.621,195.481,126.276,195.908Zm-9.655-.281q-.781-1.256-1.526-2.542-1.359-.491-2.68-1.009.8,1.212,1.644,2.392Q115.321,195.061,116.621,195.627Zm34.4-.206q-.457-2.3-.9-4.607-1.95-.125-3.891-.265.455,2.236.926,4.456Q149.087,195.222,151.026,195.421Zm-4.434-.481q-.468-2.209-.919-4.433-.823-.061-1.642-.124-1.107-.057-2.2-.124.471,2.171.96,4.327Q144.669,194.777,146.591,194.94Zm-24.285-.122q-.419-.92-.825-1.852-.214-.65-.425-1.3-1.714-.4-3.375-.831.731,1.534,1.5,3.031Q120.722,194.357,122.306,194.818ZM111.6,194.8q-.63-.751-1.243-1.516-.8-.419-1.59-.85.687.729,1.393,1.442C110.632,194.191,111.111,194.5,111.6,194.8Zm30.623-.275q-.485-2.144-.953-4.3-1.92-.121-3.792-.271.484,2.081.985,4.147Q140.316,194.328,142.219,194.527Zm-4.341-.5q-.5-2.054-.976-4.121-1.9-.157-3.749-.344.495,1.988,1.007,3.96Q135.994,193.791,137.879,194.028Zm-24.865-.058q-.775-1.117-1.517-2.259-1.232-.5-2.429-1.019.8,1.071,1.638,2.119C111.464,193.206,112.232,193.591,113.014,193.97Zm5.415-.352q-.747-1.468-1.456-2.972-1.56-.416-3.075-.862.763,1.426,1.566,2.816Q116.922,193.124,118.428,193.618Zm15.144-.182q-.508-1.959-1-3.932-1.877-.2-3.706-.421.5,1.891,1.027,3.764Q131.707,193.157,133.572,193.436Zm-4.274-.693q-.516-1.86-1.015-3.734-1.855-.236-3.658-.5.513,1.787,1.043,3.558Q127.456,192.42,129.3,192.743Zm-21.426-.419q-.367-.4-.727-.8-.344-.2-.685-.4c.334.306.669.608,1.009.91Zm6.772-.024q-.77-1.355-1.5-2.742-1.471-.445-2.9-.919.787,1.31,1.615,2.588Q113.228,191.778,114.643,192.3Zm-5.183-.149q-.736-.951-1.445-1.924-1.063-.478-2.1-.976.772.912,1.571,1.8Q108.463,191.612,109.461,192.151Zm15.6-.21q-.523-1.754-1.03-3.525-1.829-.279-3.607-.592.518,1.677,1.054,3.34C122.649,191.434,123.845,191.694,125.057,191.941Zm-4.209-.923q-.528-1.645-1.038-3.3-1.8-.325-3.554-.686.469,1.4.949,2.795l.15.322Q119.072,190.6,120.848,191.018Zm-9.9-.161q-.782-1.233-1.527-2.494-1.368-.467-2.694-.961.8,1.188,1.643,2.345Q109.64,190.316,110.948,190.856Zm43.566-.351q-.433-2.426-.851-4.865-1.979-.047-3.966-.1.433,2.369.881,4.729Q152.545,190.393,154.514,190.506Zm-4.5-.274q-.446-2.35-.876-4.709-1.966-.056-3.929-.124.445,2.291.906,4.566Q148.063,190.106,150.018,190.232Zm-44.113-.114q-.632-.735-1.244-1.484c-.541-.271-1.078-.546-1.607-.825q.687.711,1.391,1.4Q105.167,189.672,105.9,190.118Zm38.211-.3,1.438.109q-.457-2.265-.9-4.544-1.555-.056-3.1-.121l-.784-.017q.461,2.224.939,4.437C142.5,189.727,143.308,189.773,144.116,189.814Zm-27.447.147q-.526-1.523-1.037-3.064-1.778-.376-3.5-.788.15.416.3.83.53,1.071,1.082,2.122Q115.068,189.528,116.669,189.962Zm24.472-.32c-.316-1.466-.627-2.94-.932-4.415q-1.942-.05-3.835-.129.475,2.142.966,4.267Q139.217,189.519,141.141,189.642Zm-4.374-.323q-.487-2.113-.958-4.244-1.92-.084-3.793-.2.487,2.052.991,4.092Q134.862,189.159,136.767,189.319Zm-29.436-.046q-.776-1.1-1.517-2.216-1.24-.476-2.443-.976.8,1.052,1.638,2.075Q106.153,188.727,107.331,189.273Zm25.1-.363q-.5-2.026-.983-4.068-1.9-.12-3.751-.27.5,1.963,1.015,3.91Q130.543,188.712,132.428,188.91Zm-19.664-.076q-.414-.8-.817-1.614-.231-.632-.458-1.266-1.66-.407-3.266-.85.761,1.4,1.564,2.768Q111.251,188.368,112.763,188.834Zm15.359-.426q-.512-1.934-1.006-3.884-1.879-.158-3.7-.348c.339,1.244.686,2.487,1.038,3.72Q126.261,188.168,128.123,188.408Zm-4.27-.6q-.522-1.838-1.026-3.691-1.854-.2-3.654-.431.52,1.77,1.057,3.52Q122.015,187.521,123.853,187.8Zm-21.682-.086q-.367-.388-.73-.781-.5-.277-.992-.56c.235.213.473.427.71.638C101.5,187.253,101.831,187.486,102.171,187.719Zm6.8-.128q-.77-1.333-1.5-2.7-1.478-.418-2.912-.867.787,1.289,1.613,2.543Q107.548,187.1,108.97,187.591Zm-5.2-.065q-.736-.932-1.444-1.887-1.071-.46-2.114-.941.772.893,1.571,1.762C102.435,186.821,103.1,187.178,103.769,187.526Zm15.85-.433q-.531-1.737-1.043-3.488-1.829-.243-3.6-.519.527,1.662,1.071,3.308Q117.8,186.761,119.619,187.093Zm-4.2-.831q-.536-1.627-1.054-3.272-1.8-.289-3.546-.614.53,1.548,1.078,3.081Q113.631,185.878,115.421,186.261Zm-10.155-.043q-.781-1.211-1.525-2.452-1.374-.442-2.708-.914.8,1.167,1.641,2.3Q103.951,185.7,105.266,186.219Zm-5.059-.654q-.632-.721-1.246-1.456-.889-.427-1.757-.87c.427.44.858.872,1.3,1.3Q99.345,185.061,100.208,185.565Zm11.048-.266q-.537-1.512-1.058-3.04-1.77-.338-3.484-.715.469,1.264.949,2.513l.179.338Q109.52,184.866,111.255,185.3Zm42.309-.231q-.422-2.472-.83-4.952-1.992.015-4,.025c.282,1.609.569,3.22.86,4.823Q151.581,185.02,153.564,185.067Zm-4.527-.119q-.436-2.4-.856-4.8-1.981.009-3.967.01.435,2.342.886,4.669Q147.065,184.891,149.038,184.948Zm-7.415-.261q1.456.062,2.92.115-.447-2.317-.881-4.649-1.969,0-3.928-.015.45,2.271.916,4.528Zm-1.533-.036q-.464-2.254-.912-4.518h-.1c-1.269.011-2.534.014-3.775.007q.464,2.195.946,4.38Q138.143,184.6,140.089,184.651Zm-38.447.054q-.774-1.074-1.516-2.178-1.246-.455-2.457-.936.8,1.032,1.636,2.036Q100.456,184.179,101.642,184.7Zm34.039-.21q-.477-2.172-.939-4.359c-1.3-.009-2.573-.029-3.838-.057q.479,2.116.973,4.215Q133.756,184.409,135.681,184.495Zm-4.374-.237q-.492-2.09-.966-4.193-1.924-.048-3.8-.127.492,2.029,1,4.044Q129.4,184.135,131.307,184.257Zm-24.188-.069q-.533-1.387-1.05-2.789-1.738-.391-3.42-.823c.08.2.16.4.241.6q.593,1.059,1.212,2.1Q105.588,183.747,107.119,184.189Zm19.849-.255q-.5-2-.993-4.02-1.9-.085-3.752-.2.5,1.94,1.027,3.866Q125.082,183.772,126.968,183.934Zm-4.3-.417q-.518-1.914-1.018-3.841c-1.253-.082-2.484-.175-3.7-.279q.518,1.848,1.051,3.681Q120.8,183.314,122.665,183.516Zm-26.308-.353q-.348-.364-.691-.731-.46-.247-.915-.5.358.318.722.633C95.765,182.767,96.058,182.965,96.356,183.164ZM118.4,183q-.529-1.818-1.04-3.653-1.852-.164-3.652-.363c.352,1.166.71,2.331,1.073,3.486Q116.563,182.752,118.4,183Zm-15.107.01q-.447-.763-.879-1.537c-.145-.356-.288-.711-.431-1.069q-1.579-.416-3.108-.867.782,1.267,1.607,2.5Q101.864,182.539,103.292,183.009Zm-5.217.017q-.735-.915-1.444-1.854-1.109-.456-2.187-.935.748.86,1.523,1.7Q97.006,182.492,98.075,183.026Zm16.1-.654q-.539-1.719-1.06-3.455-1.824-.208-3.6-.451.537,1.649,1.091,3.28Q112.361,182.077,114.172,182.372ZM99.581,181.7q-.779-1.19-1.519-2.411-1.383-.421-2.72-.871.8,1.148,1.635,2.261C97.833,181.035,98.7,181.374,99.581,181.7Zm10.4-.078q-.546-1.614-1.074-3.246-1.794-.254-3.536-.546.542,1.539,1.1,3.061Q108.2,181.281,109.983,181.626ZM94.454,181.1q-.621-.7-1.223-1.414c-.579-.269-1.155-.543-1.721-.822q.643.648,1.3,1.281Q93.622,180.63,94.454,181.1Zm11.377-.349q-.55-1.5-1.082-3.021c-1.174-.2-2.334-.418-3.471-.646q.543,1.42,1.1,2.824Q104.077,180.35,105.831,180.751Zm-9.879-.494q-.773-1.057-1.51-2.141-1.262-.438-2.489-.9.786,1.008,1.6,1.985C94.342,179.558,95.142,179.912,95.952,180.256Zm5.762-.525q-.547-1.381-1.078-2.778-1.727-.356-3.4-.753.437,1.049.885,2.089c.1.168.2.337.3.5Q100.038,179.283,101.714,179.731Zm46.369-.157q-.425-2.443-.837-4.895-1.995.071-4,.137.427,2.388.867,4.767Q146.1,179.583,148.082,179.574Zm.55,0q2.011-.01,4.008-.025-.412-2.513-.811-5.034l-4.037.147Q148.206,177.12,148.633,179.572Zm-5.077.011q-.439-2.371-.863-4.748-1.984.063-3.966.117.44,2.314.893,4.614Q141.581,179.581,143.556,179.582Zm-4.491-.021q-.452-2.293-.889-4.6L136.6,175q-1.18.043-2.343.077.455,2.249.926,4.486C136.46,179.574,137.753,179.572,139.065,179.561Zm-4.444,0q-.468-2.227-.921-4.466-1.966.053-3.88.079.469,2.171.954,4.327Q132.675,179.547,134.621,179.563Zm-4.41-.074q-.482-2.146-.948-4.306-1.946.022-3.841.015.483,2.087.982,4.16Q128.282,179.438,130.211,179.489Zm-4.376-.156q-.5-2.062-.975-4.138-1.926-.012-3.8-.054.5,2,1.01,3.987Q123.928,179.246,125.835,179.333Zm-4.339-.243q-.509-1.973-1-3.963-1.9-.048-3.751-.128.509,1.91,1.035,3.806Q119.612,178.964,121.5,179.09Zm-4.3-.337q-.521-1.882-1.026-3.78-1.878-.087-3.7-.207.521,1.817,1.059,3.616Q115.333,178.585,117.194,178.753Zm-26.574.026q-.341-.351-.678-.708c-.3-.155-.6-.313-.892-.472.242.211.485.419.731.627Q90.2,178.5,90.62,178.779Zm1.738-.149q-.726-.895-1.426-1.815-1.1-.435-2.177-.894.748.846,1.523,1.669Q91.3,178.121,92.357,178.63Zm5.268-.08q-.538-1.249-1.059-2.51-1.691-.412-3.325-.867l.105.231q.7,1.122,1.445,2.216Q96.186,178.1,97.625,178.55Zm15.307-.235q-.532-1.786-1.048-3.588-1.852-.128-3.648-.291.532,1.718,1.081,3.419C110.5,178.02,111.711,178.174,112.932,178.315Zm-4.222-.547q-.542-1.685-1.067-3.388-1.823-.172-3.589-.381.54,1.613,1.1,3.211Q106.9,177.509,108.711,177.768ZM93.9,177.307q-.519-.784-1.019-1.581c-.114-.249-.228-.5-.341-.751q-1.466-.419-2.885-.873.79,1.127,1.616,2.22Q92.565,176.83,93.9,177.307Zm10.632-.2q-.55-1.581-1.082-3.177-1.791-.219-3.525-.477.547,1.506,1.11,2.993Q102.754,176.793,104.531,177.1Zm-15.785-.331q-.615-.685-1.212-1.385-.868-.387-1.716-.791.643.638,1.3,1.258Q87.924,176.323,88.746,176.773Zm11.646-.463q-.554-1.47-1.091-2.954-1.757-.27-3.456-.579.55,1.39,1.114,2.761Q98.648,175.945,100.392,176.31Zm-10.132-.392q-.764-1.037-1.5-2.106c-.844-.279-1.674-.567-2.493-.866q.784.991,1.6,1.954Q89.047,175.424,90.26,175.918Zm6.032-.544q-.553-1.349-1.089-2.716-1.72-.323-3.381-.688.545,1.263,1.106,2.511Q94.58,174.949,96.292,175.374Zm32.85-.751q-.474-2.208-.933-4.424-1.971.087-3.886.146.476,2.154.969,4.3Q127.241,174.647,129.142,174.622Zm-4.41.015q-.49-2.132-.964-4.277-1.949.055-3.845.08.492,2.079,1,4.143Q122.847,174.628,124.732,174.638Zm4.967-.022q1.978-.028,3.888-.082-.458-2.278-.9-4.567-1.987.117-3.923.207Q129.222,172.4,129.7,174.615Zm-9.341-.045q-.506-2.053-.995-4.123-1.927.021-3.8.01.508,2,1.033,3.981Q118.489,174.523,120.357,174.57Zm13.782-.053q1.265-.037,2.5-.083l1.434-.035q-.443-2.343-.871-4.694-1.544.09-3.081.173l-.885.055Q133.678,172.229,134.139,174.517Zm4.481-.132q1.983-.053,3.973-.116-.429-2.417-.845-4.839-2,.125-4,.244Q138.175,172.033,138.62,174.385Zm-53.675.153q-.344-.348-.684-.7-.456-.229-.907-.464c.244.208.487.413.735.618Q84.514,174.267,84.945,174.538Zm31.075-.125q-.521-1.972-1.025-3.959-1.9-.016-3.753-.064.522,1.912,1.062,3.809Q114.171,174.325,116.02,174.413Zm27.122-.162q2.009-.065,4.009-.137-.416-2.486-.819-4.978-2.006.13-4.038.258Q142.712,171.828,143.142,174.251Zm-56.474.1q-.723-.88-1.418-1.785-1.1-.418-2.179-.86.746.832,1.521,1.642Q85.615,173.864,86.668,174.353Zm61.029-.258,4.043-.148q-.4-2.552-.794-5.109l-2.995.194-1.076.07Q147.28,171.6,147.7,174.095Zm-55.471.184q-.545-1.222-1.075-2.459l-.565-.129q-1.385-.321-2.731-.672.356.752.718,1.5c.176.266.355.531.534.794Q90.64,173.816,92.226,174.279Zm19.5-.122q-.535-1.883-1.053-3.784-1.879-.055-3.7-.145.536,1.82,1.09,3.624Q109.9,174.027,111.722,174.157Zm-4.258-.361q-.548-1.789-1.079-3.6-1.852-.1-3.646-.23.549,1.724,1.114,3.428C105.058,173.546,106.264,173.678,107.464,173.8Zm-4.217-.474q-.56-1.691-1.1-3.4-1.822-.142-3.585-.321.558,1.619,1.134,3.219Q101.47,173.1,103.248,173.322Zm-15.024-.305-.111-.166q-.487-1-.962-2.017-1.6-.428-3.136-.9.768,1.084,1.574,2.136C86.452,172.4,87.333,172.713,88.224,173.017Zm10.851-.291c-.378-1.054-.751-2.118-1.117-3.184q-1.789-.189-3.518-.418.565,1.507,1.147,3Q97.328,172.448,99.075,172.726Zm-16-.161q-.616-.675-1.214-1.367-.873-.376-1.726-.768.643.627,1.3,1.239Q82.243,172.124,83.071,172.564ZM94.944,172q-.572-1.47-1.126-2.957-1.752-.24-3.445-.52.568,1.389,1.152,2.759Q93.229,171.664,94.944,172Zm-10.362-.311q-.629-.844-1.236-1.709l-.152-.295q-1.3-.41-2.561-.85.763.952,1.556,1.873Q83.368,171.211,84.582,171.686Zm6.273-.562q-.571-1.349-1.126-2.713-1.451-.248-2.859-.527l-.5-.1q.564,1.261,1.144,2.5Q89.175,170.734,90.855,171.125ZM79.278,170.4q-.348-.347-.691-.7c-.309-.151-.617-.3-.922-.458.245.206.491.409.74.611C78.695,170.035,78.985,170.217,79.278,170.4ZM81,170.182q-.7-.844-1.377-1.711-1.1-.4-2.178-.827.722.794,1.47,1.563Q79.938,169.707,81,170.182Zm5.81-.087q-.564-1.217-1.111-2.449-1.663-.348-3.27-.738.551,1.12,1.116,2.221Q85.164,169.641,86.806,170.094Zm32.426-.2q-.5-2.111-.977-4.235-1.95.087-3.849.143.5,2.058,1.016,4.1Q117.343,169.915,119.232,169.893Zm.56-.007q1.948-.026,3.853-.082-.48-2.184-.946-4.381-1.972.12-3.891.209Q119.292,167.766,119.792,169.887Zm-4.937.011q-.513-2.033-1.009-4.081-1.93.052-3.8.072.515,1.978,1.047,3.939Q112.983,169.881,114.855,169.9Zm9.345-.11q1.974-.062,3.893-.149-.465-2.256-.914-4.521-1.991.15-3.929.272Q123.718,167.594,124.2,169.788Zm-13.684.023q-.529-1.952-1.04-3.917-1.905.015-3.756,0,.53,1.89,1.079,3.766Q108.664,169.753,110.516,169.81Zm18.129-.2q2-.094,3.929-.21-.448-2.322-.884-4.657l-.052,0q-1.981.176-3.912.325Q128.179,167.35,128.645,169.613Zm-22.428.012q-.544-1.863-1.069-3.742-1.879-.025-3.7-.085.544,1.8,1.107,3.582Q104.391,169.524,106.217,169.624Zm26.906-.254,1.02-.063q1.472-.079,2.953-.165-.434-2.391-.855-4.788-2,.178-4,.347Q132.673,167.04,133.123,169.37Zm-31.163-.038q-.557-1.77-1.1-3.555-1.851-.067-3.645-.172.557,1.7,1.133,3.387C99.555,169.121,100.76,169.234,101.96,169.332Zm35.682-.222q2-.118,4.009-.244-.421-2.461-.829-4.926c-1.34.123-2.689.245-4.039.365Q137.206,166.71,137.642,169.11Zm4.555-.278q2.033-.128,4.044-.259-.407-2.526-.8-5.057l-1.273.117-2.8.257Q141.775,166.364,142.2,168.832Zm-44.449.095q-.568-1.669-1.119-3.357-1.82-.113-3.582-.264.568,1.6,1.155,3.181C95.382,168.649,96.566,168.8,97.748,168.927Zm-14.96-.039q-.543-1.07-1.072-2.155-1.609-.4-3.162-.85.236.434.474.865.426.576.863,1.141Q81.328,168.413,82.788,168.887Zm64-.349,1.19-.077,2.886-.187q-.395-2.588-.779-5.182c-1.365.123-2.73.248-4.1.374Q146.375,166,146.784,168.539Zm-53.2-.139q-.578-1.564-1.138-3.147-1.785-.161-3.512-.362.576,1.49,1.172,2.962C91.257,168.051,92.42,168.234,93.58,168.4Zm-16.176.052q-.592-.641-1.169-1.3-.871-.363-1.722-.742.613.588,1.244,1.163Q76.569,168.021,77.4,168.451Zm12.055-.711q-.584-1.453-1.151-2.924-1.745-.212-3.433-.465.581,1.374,1.181,2.73Q87.75,167.438,89.458,167.74Zm-10.57-.225-.309-.414q-.4-.716-.786-1.442-1.431-.426-2.817-.89.733.907,1.5,1.784Q77.673,167.054,78.888,167.516Zm6.5-.576q-.586-1.334-1.154-2.686-.542-.084-1.077-.173-1.148-.19-2.27-.4.581,1.25,1.179,2.483C83.162,166.44,84.272,166.7,85.384,166.939Zm-11.767-.595q-.324-.318-.643-.64-.455-.216-.905-.437.328.27.661.536Q73.17,166.077,73.617,166.344Zm1.67-.3q-.671-.8-1.317-1.622-1.108-.388-2.185-.8.681.74,1.384,1.457Q74.222,165.582,75.287,166.048Zm6.066-.065q-.58-1.205-1.144-2.43-1.649-.319-3.244-.681.571,1.115,1.158,2.212Q79.728,165.562,81.353,165.982Zm27.977-.653q-.52-2.008-1.023-4.033-1.932.082-3.809.13.524,1.958,1.064,3.9Q107.42,165.344,109.33,165.329Zm.565-.005q1.882-.019,3.815-.071-.5-2.086-.99-4.184-1.954.117-3.854.2Q109.372,163.306,109.895,165.324Zm-4.9-.007q-.537-1.93-1.057-3.877-1.908.044-3.76.053.541,1.878,1.1,3.738Q103.106,165.292,104.991,165.317Zm9.278-.08c1.271-.037,2.554-.084,3.859-.142q-.486-2.158-.958-4.33-1.975.151-3.9.27Q113.763,163.144,114.269,165.238Zm-13.575-.027q-.554-1.849-1.091-3.716-1.881,0-3.705-.03.558,1.794,1.136,3.573Q98.837,165.143,100.694,165.211Zm17.987-.14q1.925-.089,3.9-.209-.471-2.231-.927-4.472-1.993.181-3.935.333Q118.193,162.9,118.682,165.071ZM96.444,165q-.571-1.765-1.125-3.549-1.852-.04-3.646-.118.577,1.712,1.173,3.4Q94.616,164.888,96.444,165Zm26.688-.173c1.3-.081,2.606-.171,3.937-.271q-.455-2.3-.9-4.61-2.012.211-3.971.392Q122.659,162.589,123.131,164.829Zm-45.768.025q-.564-1.066-1.113-2.147-1.589-.373-3.125-.79.547.961,1.108,1.909Q75.785,164.369,77.363,164.854Zm14.878-.171q-.589-1.678-1.159-3.375-1.819-.086-3.58-.212.594,1.622,1.208,3.222Q90.446,164.521,92.241,164.683Zm35.374-.167q1.961-.151,3.971-.329-.44-2.368-.867-4.74l-1.56.175q-1.231.139-2.444.268Q127.159,162.207,127.616,164.516Zm-55.94-.164c-.367-.394-.731-.794-1.088-1.2q-.873-.352-1.728-.721.553.524,1.12,1.035C70.539,163.77,71.107,164.066,71.675,164.352Zm60.456-.211q2-.168,4.011-.346-.427-2.437-.841-4.876c-1.344.157-2.694.314-4.041.467Q131.69,161.766,132.132,164.141Zm-44.043.1q-.606-1.588-1.192-3.192-1.782-.135-3.507-.311.611,1.527,1.243,3.034Q86.331,164.031,88.088,164.244Zm48.6-.5q2.028-.18,4.045-.365-.413-2.5-.815-5.007c-1.345.16-2.706.321-4.073.481Q136.257,161.3,136.685,163.747Zm-52.7-.071q-.622-1.491-1.222-3-1.693-.181-3.33-.4l-.1-.013q.625,1.427,1.273,2.835Q82.27,163.408,83.988,163.676Zm57.285-.344,2.9-.267,1.177-.108q-.4-2.565-.791-5.131l-4.063.48-.041,0Q140.858,160.822,141.272,163.332Zm-67.868.2q-.53-.907-1.046-1.825-1.519-.428-2.986-.9l.109.171q.651.791,1.326,1.56Q72.093,163.055,73.4,163.53Zm72.485-.623c1.374-.126,2.741-.251,4.108-.375q-.388-2.623-.767-5.25-2.06.236-4.134.48Q145.488,160.336,145.89,162.907Zm-65.95.06q-.633-1.387-1.247-2.8-1.692-.239-3.331-.522.639,1.323,1.3,2.62Q78.27,162.641,79.94,162.967Zm-12.075-.687q-.27-.263-.537-.53c-.306-.141-.608-.283-.91-.428.147.119.3.239.446.358C67.2,161.883,67.529,162.082,67.865,162.279Zm8.08-.177q-.64-1.275-1.261-2.572-1.638-.293-3.221-.629.642,1.2,1.3,2.382Q74.328,161.716,75.945,162.1Zm-6.314-.051c-.2-.231-.391-.465-.583-.7-.175-.274-.348-.547-.521-.824q-1.212-.4-2.388-.84.672.723,1.368,1.426Q68.562,161.6,69.631,162.051Zm2.37-.985q-.638-1.15-1.258-2.321-1.573-.347-3.093-.738c.423.71.854,1.416,1.289,2.112Q70.442,160.617,72,161.066Zm-5.977-.658q-.547-.581-1.078-1.174-.877-.342-1.733-.7.548.513,1.111,1.014Q65.168,159.989,66.025,160.409Zm2.072-.573q-.62-1.007-1.223-2.031-1.492-.4-2.932-.84.379.566.764,1.125.324.375.655.745Q66.7,159.356,68.1,159.835ZM62.23,158.4c-.181-.174-.359-.349-.538-.525q-.435-.2-.864-.4c.168.133.336.265.505.4C61.632,158.049,61.928,158.222,62.23,158.4Zm1.982-.019q-.573-.833-1.131-1.681-1.312-.419-2.578-.873.79.844,1.616,1.658Q63.148,157.941,64.211,158.376Zm-3.589-1.59q-.561-.584-1.106-1.182l-.15-.2q-.9-.341-1.78-.7.722.666,1.464,1.3Q59.827,156.405,60.622,156.786Zm-3.748-1.95c-.273-.257-.542-.516-.81-.778q-.447-.2-.888-.4c.35.274.705.545,1.061.811C56.448,154.594,56.661,154.716,56.874,154.836Z" transform="translate(-34.502 451.799) rotate(-14)" stroke="rgba(0,0,0,0)" stroke-miterlimit="10" stroke-width="1" opacity="0.337" fill="url(#linear-gradient)"/>
  </g>
</svg>
