<svg xmlns="http://www.w3.org/2000/svg" width="77.94" height="84.475" viewBox="0 0 77.94 84.475">
  <g id="Exp-1.-O" transform="translate(-6.535 -1.983)">
    <path id="Path_15613" data-name="Path 15613" d="M46.063,34.448a.71.71,0,0,0-1.347-.339A25.52,25.52,0,0,1,34.05,44.771a.71.71,0,0,0,.346,1.344,24,24,0,0,1,6.382.641.711.711,0,0,0,.852-.528,5.7,5.7,0,0,1,4.54-4.546.709.709,0,0,0,.534-.853,24.041,24.041,0,0,1-.64-6.382Z" transform="translate(11.37 13.3)" fill="#8f94fa" fill-rule="evenodd"/>
    <path id="Path_15614" data-name="Path 15614" d="M20.54,15.215A14.583,14.583,0,0,0,13.4,27.033a.71.71,0,1,0,1.419,0A13.2,13.2,0,0,1,21.144,16.5a.71.71,0,0,0-.6-1.284Z" transform="translate(2.88 5.519)" fill="#738bab" fill-rule="evenodd"/>
    <path id="Path_15615" data-name="Path 15615" d="M17.185,17.237A21.269,21.269,0,1,1,13.5,22.173a.71.71,0,0,0-1.249-.674,22.722,22.722,0,1,0,3.928-5.265.709.709,0,0,0,1,1Z" transform="translate(1.257 3.188)" fill="#738bab" fill-rule="evenodd"/>
    <path id="Path_15616" data-name="Path 15616" d="M58.224,39.957a25.593,25.593,0,1,1,.8-5.739.709.709,0,1,0,1.418.037,26.9,26.9,0,1,0-.847,6.057.709.709,0,1,0-1.374-.355Z" transform="translate(0 1.93)" fill="#738bab" fill-rule="evenodd"/>
    <path id="Path_15617" data-name="Path 15617" d="M69.776,61.8a4.161,4.161,0,0,1-.288.744,18.608,18.608,0,0,1-3.109,3.887,18.608,18.608,0,0,1-3.887,3.109,4.16,4.16,0,0,1-.744.288L44.881,52.961a.709.709,0,0,0-1,1L60.859,70.947a1.584,1.584,0,0,0,1.731.115,17.42,17.42,0,0,0,4.791-3.626,17.384,17.384,0,0,0,3.626-4.793,1.584,1.584,0,0,0-.114-1.731L50.323,40.34a7.1,7.1,0,0,0-10.035,0h0a7.1,7.1,0,0,0,0,10.035.709.709,0,0,0,1-1,5.677,5.677,0,0,1,0-8.028h0a5.677,5.677,0,0,1,8.028,0Z" transform="translate(13.278 15.208)" fill="#738bab" fill-rule="evenodd"/>
    <g id="Group_3918" data-name="Group 3918" transform="translate(27.335 1.983)">
      <path id="Path_15618" data-name="Path 15618" d="M24.032,24.317A3.362,3.362,0,0,1,25.291,21.4a3.1,3.1,0,0,1,4.07.255,3.018,3.018,0,0,1,.685,2.034,6.889,6.889,0,0,1-1.91,4.546,10.728,10.728,0,0,0-2.723,6.338,1.419,1.419,0,0,0,2.834.155A8.091,8.091,0,0,1,30.4,29.947c1.306-1.721,2.509-3.439,2.486-6.283a5.782,5.782,0,0,0-1.4-3.9,6,6,0,0,0-7.878-.656,6.1,6.1,0,0,0-2.413,5.271,1.42,1.42,0,0,0,2.838-.067Z" transform="translate(-21.191 4.708)" fill="#fb8e91" fill-rule="evenodd"/>
      <circle id="Ellipse_374" data-name="Ellipse 374" cx="1.746" cy="1.746" r="1.746" transform="translate(3.762 42.553)" fill="#fb8e91"/>
      <path id="Path_15619" data-name="Path 15619" d="M44.067,11.228l4.258-7.1a1.419,1.419,0,1,0-2.434-1.46l-4.258,7.1a1.419,1.419,0,1,0,2.434,1.46Z" transform="translate(-12.707 -1.983)" fill="#84d8f4" fill-rule="evenodd"/>
      <path id="Path_15620" data-name="Path 15620" d="M48.685,15.9,64.3,4.55a1.419,1.419,0,0,0-1.669-2.3L47.016,13.608a1.419,1.419,0,0,0,1.669,2.3Z" transform="translate(-10.611 -1.983)" fill="#84d8f4" fill-rule="evenodd"/>
      <path id="Path_15621" data-name="Path 15621" d="M50.194,19.617l11.354-2.838a1.419,1.419,0,1,0-.688-2.753L49.505,16.864a1.419,1.419,0,0,0,.688,2.753Z" transform="translate(-9.772 3.047)" fill="#84d8f4" fill-rule="evenodd"/>
    </g>
  </g>
</svg>
