<svg xmlns="http://www.w3.org/2000/svg" width="12.409" height="11.833" viewBox="0 0 12.409 11.833">
  <g id="Path_15609" data-name="Path 15609" transform="translate(0 -11.877)" fill="none">
    <path d="M12.116,16.152,8.1,15.779,6.5,12.071a.322.322,0,0,0-.592,0l-1.6,3.707-4.019.373a.322.322,0,0,0-.183.563l3.033,2.664-.887,3.938a.322.322,0,0,0,.479.348L6.2,21.6l3.471,2.061a.322.322,0,0,0,.479-.348l-.887-3.938L12.3,16.714A.322.322,0,0,0,12.116,16.152Z" stroke="none"/>
    <path d="M 6.204056739807129 13.91280555725098 L 4.995307445526123 16.71966171264648 L 1.95233154296875 17.00186920166016 L 4.248247146606445 19.01881217956543 L 3.57634162902832 22.00008773803711 L 6.204057216644287 20.43979263305664 L 8.831784248352051 22.00009155273438 L 8.159867286682129 19.01881217956543 L 10.45579433441162 17.00186347961426 L 7.412817001342773 16.71963310241699 L 6.204056739807129 13.91280555725098 M 6.204043388366699 11.87674903869629 C 6.324004650115967 11.87674903869629 6.443967342376709 11.94164657592773 6.499857425689697 12.07144165039062 L 8.096406936645508 15.77874183654785 L 12.11562728881836 16.15151214599609 C 12.39704704284668 16.17762184143066 12.51078701019287 16.52765274047852 12.29845714569092 16.71417236328125 L 9.265947341918945 19.37820243835449 L 10.15342712402344 23.31592178344727 C 10.21556663513184 23.59162139892578 9.917787551879883 23.80795288085938 9.674777030944824 23.66365242004395 L 6.204057216644287 21.60279083251953 L 2.73333740234375 23.66365242004395 C 2.490323066711426 23.80794906616211 2.192566871643066 23.59162139892578 2.254707336425781 23.31592178344727 L 3.142167091369629 19.37820243835449 L 0.1096572875976562 16.71417236328125 C -0.1026725769042969 16.52765274047852 0.01106739044189453 16.17762184143066 0.2924871444702148 16.15151214599609 L 4.311707496643066 15.77877235412598 L 5.908236980438232 12.07144165039062 C 5.964122295379639 11.94164657592773 6.084082126617432 11.87674903869629 6.204043388366699 11.87674903869629 Z" stroke="none" fill="#acacac"/>
  </g>
</svg>
