<svg id="star" xmlns="http://www.w3.org/2000/svg" width="12.409" height="11.833" viewBox="0 0 12.409 11.833">
  <path id="Path_15550" data-name="Path 15550" d="M12.116,16.152,8.1,15.779,6.5,12.071a.322.322,0,0,0-.592,0l-1.6,3.707-4.019.373a.322.322,0,0,0-.183.563l3.033,2.664-.887,3.938a.322.322,0,0,0,.479.348L6.2,21.6l3.471,2.061a.322.322,0,0,0,.479-.348l-.887-3.938L12.3,16.714A.322.322,0,0,0,12.116,16.152Z" transform="translate(0 -11.877)" fill="#ffdc64"/>
  <path id="Path_15551" data-name="Path 15551" d="M6.5,12.071a.322.322,0,0,0-.592,0l-1.6,3.707-4.019.373a.322.322,0,0,0-.183.563l3.033,2.664-.887,3.938a.322.322,0,0,0,.479.348l.775-.46a14.205,14.205,0,0,1,3.781-9.3Z" transform="translate(0 -11.877)" fill="#ffc850"/>
</svg>
