<?xml version="1.0" encoding="utf-8"?>
<!-- Generator: Adobe Illustrator 26.4.1, SVG Export Plug-In . SVG Version: 6.00 Build 0)  -->
<svg version="1.1" id="Layer_1" xmlns="http://www.w3.org/2000/svg" xmlns:xlink="http://www.w3.org/1999/xlink" x="0px" y="0px"
	 viewBox="0 0 512 512" style="enable-background:new 0 0 512 512;" xml:space="preserve">
<style type="text/css">
	.st0{fill:#62D2F9;}
	.st1{fill:#F8A940;}
</style>
<g>
	<path class="st0" d="M312,288c0,26.5,21.5,48,48,48s48-21.5,48-48s-21.5-48-48-48C333.5,240,312,261.5,312,288z M360,256
		c17.7,0,32,14.3,32,32s-14.3,32-32,32s-32-14.3-32-32C328,270.3,342.3,256,360,256z"/>
	<path class="st0" d="M384,352h-48c-30.9,0-56,25.1-56,56v24c0,4.4,3.6,8,8,8s8-3.6,8-8v-24c0-22.1,17.9-40,40-40h48
		c22.1,0,40,17.9,40,40v24c0,4.4,3.6,8,8,8s8-3.6,8-8v-24C440,377.1,414.9,352,384,352z"/>
	<path class="st0" d="M320,400c-4.4,0-8,3.6-8,8v24c0,4.4,3.6,8,8,8s8-3.6,8-8v-24C328,403.6,324.4,400,320,400z"/>
	<path class="st0" d="M400,400c-4.4,0-8,3.6-8,8v24c0,4.4,3.6,8,8,8s8-3.6,8-8v-24C408,403.6,404.4,400,400,400z"/>
	<path class="st0" d="M144,176c0,26.5,21.5,48,48,48s48-21.5,48-48s-21.5-48-48-48C165.5,128,144,149.5,144,176z M192,144
		c17.7,0,32,14.3,32,32s-14.3,32-32,32s-32-14.3-32-32C160,158.3,174.3,144,192,144z"/>
	<path class="st0" d="M216,240h-48c-30.9,0-56,25.1-56,56v24c0,4.4,3.6,8,8,8s8-3.6,8-8v-24c0-22.1,17.9-40,40-40h48
		c22.1,0,40,17.9,40,40v24c0,4.4,3.6,8,8,8s8-3.6,8-8v-24C272,265.1,246.9,240,216,240z"/>
	<path class="st0" d="M152,288c-4.4,0-8,3.6-8,8v24c0,4.4,3.6,8,8,8s8-3.6,8-8v-24C160,291.6,156.4,288,152,288z"/>
	<path class="st0" d="M232,288c-4.4,0-8,3.6-8,8v24c0,4.4,3.6,8,8,8s8-3.6,8-8v-24C240,291.6,236.4,288,232,288z"/>
	<path class="st1" d="M280,176v16c0,4.4,3.6,8,8,8c1.7,0,3.4-0.6,4.8-1.6l29.9-22.4H376c13.2,0,24-10.8,24-24V88
		c0-13.2-10.8-24-24-24h-96c-13.2,0-24,10.8-24,24v64C256,165.2,266.8,176,280,176z M272,88c0-4.4,3.6-8,8-8h96c4.4,0,8,3.6,8,8v64
		c0,4.4-3.6,8-8,8h-56c-1.7,0-3.4,0.6-4.8,1.6L296,176v-8c0-4.4-3.6-8-8-8h-8c-4.4,0-8-3.6-8-8V88z"/>
	<circle class="st1" cx="328" cy="120" r="8"/>
	<circle class="st1" cx="360" cy="120" r="8"/>
	<circle class="st1" cx="296" cy="120" r="8"/>
</g>
</svg>
