<?xml version="1.0" encoding="utf-8"?>
<!-- Generator: Adobe Illustrator 26.4.1, SVG Export Plug-In . SVG Version: 6.00 Build 0)  -->
<svg version="1.1" id="Capa_1" xmlns="http://www.w3.org/2000/svg" xmlns:xlink="http://www.w3.org/1999/xlink" x="0px" y="0px"
	 viewBox="0 0 512 512" style="enable-background:new 0 0 512 512;" xml:space="preserve">
<style type="text/css">
	.st0{fill:#62D2F9;}
	.st1{fill:none;stroke:#F8A940;stroke-width:23;stroke-miterlimit:10;}
</style>
<g>
	<g>
		<path class="st0" d="M483.5,104.7H372.4v-38c0-17.6-14.2-31.8-31.8-31.8H171.5c-17.6,0-31.8,14.3-31.8,31.8v38H28.5
			C12.8,104.7,0,117.5,0,133.3v112.3c-0.1,10.8,6.1,20.8,15.8,25.6l7.5,3.7v170.7c0,17.4,14.1,31.5,31.5,31.5h402.4
			c17.4,0,31.5-14.1,31.5-31.5V274.8l7.5-3.7c9.7-4.8,15.8-14.8,15.8-25.6V133.3C512,117.5,499.2,104.7,483.5,104.7z M162.9,66.7
			c0-4.7,3.8-8.6,8.5-8.6h169.1c4.7,0,8.5,3.8,8.5,8.6v38H162.9L162.9,66.7z M465.5,445.6c0,4.6-3.7,8.2-8.3,8.3H54.8
			c-4.6,0-8.2-3.7-8.3-8.3V286.5L96,311.2c4,2,8.3,3,12.8,3h30.9v11.6c0,19.3,15.6,34.9,34.9,34.9s34.9-15.6,34.9-34.9v-11.6h93.1
			v11.6c0,19.3,15.6,34.9,34.9,34.9s34.9-15.6,34.9-34.9v-11.6h30.9c4.4,0,8.8-1,12.8-3l49.4-24.7L465.5,445.6L465.5,445.6z
			 M162.9,325.8v-46.5c0-6.4,5.2-11.6,11.6-11.6s11.6,5.2,11.6,11.6v46.5c0,6.4-5.2,11.6-11.6,11.6
			C168.1,337.5,162.9,332.2,162.9,325.8z M325.8,325.8v-46.5c0-6.4,5.2-11.6,11.6-11.6c6.4,0,11.6,5.2,11.6,11.6v46.5
			c0,6.4-5.2,11.6-11.6,11.6C331,337.5,325.8,332.2,325.8,325.8z M488.7,245.6c0,2-1.1,3.8-2.9,4.7l-80.2,40.1
			c-0.7,0.4-1.5,0.6-2.3,0.6h-31v-11.6c0-19.3-15.6-34.9-34.9-34.9s-34.9,15.6-34.9,34.9v11.6h-93.1v-11.6
			c0-19.3-15.6-34.9-34.9-34.9s-34.9,15.6-34.9,34.9v11.6h-30.9c-0.8,0-1.6-0.2-2.3-0.6l-80.2-40.1c-1.8-0.9-2.9-2.7-2.9-4.7V133.3
			c0-2.9,2.4-5.3,5.3-5.3h454.9c2.9,0,5.3,2.4,5.3,5.3L488.7,245.6L488.7,245.6z"/>
	</g>
	<path class="st1" d="M174.5,348.9L174.5,348.9c-13,0-23.5-10.5-23.5-23.5v-45.9c0-13,10.5-23.5,23.5-23.5h0
		c13,0,23.5,10.5,23.5,23.5v45.9C198,338.4,187.5,348.9,174.5,348.9z"/>
	<path class="st1" d="M337.5,348.9L337.5,348.9c-13,0-23.5-10.5-23.5-23.5v-45.9c0-13,10.5-23.5,23.5-23.5h0
		c13,0,23.5,10.5,23.5,23.5v45.9C360.9,338.4,350.4,348.9,337.5,348.9z"/>
</g>
</svg>
