<?xml version="1.0" encoding="utf-8"?>
<!-- Generator: Adobe Illustrator 26.4.1, SVG Export Plug-In . SVG Version: 6.00 Build 0)  -->
<svg version="1.1" id="Layer_1" xmlns="http://www.w3.org/2000/svg" xmlns:xlink="http://www.w3.org/1999/xlink" x="0px" y="0px"
	 viewBox="0 0 512 512" style="enable-background:new 0 0 512 512;" xml:space="preserve">
<style type="text/css">
	.st0{fill:#62D2F9;}
	.st1{fill:#F8A940;}
</style>
<g>
	<path class="st0" d="M426,18.4H158.4c-2.4,0-4,1.2-4.8,2l-72.4,72c-1.2,1.2-2,3.2-2,4.8v389.2c0,4,3.2,6.8,6.8,7.2h339.6
		c4,0,6.8-3.2,7.2-6.8V25.2C432.8,21.2,429.6,18.4,426,18.4L426,18.4z M151.6,42v48.4h-48.4L151.6,42z M418.8,479.6H93.2V104.4h65.2
		c4,0,6.8-3.2,7.2-6.8V32.4h253.2L418.8,479.6z"/>
	<path class="st0" d="M123.6,169.2H226c4,0,7.2-3.2,7.2-7.2s-3.2-7.2-7.2-7.2H123.6c-4,0-7.2,3.2-7.2,7.2S119.6,169.2,123.6,169.2
		L123.6,169.2z"/>
	<path class="st0" d="M123.6,212.6H226c4,0,7.2-3.2,7.2-7.2s-3.2-7.2-7.2-7.2H123.6c-4,0-7.2,3.2-7.2,7.2S119.6,212.6,123.6,212.6
		L123.6,212.6z"/>
	<path class="st0" d="M123.6,256h260c4,0,7.2-3.2,7.2-7.2s-3.2-7.2-7.2-7.2h-260c-4,0-7.2,3.2-7.2,7.2S119.6,256,123.6,256
		L123.6,256z"/>
	<path class="st1" d="M240,303h-29.6c-4,0-7.2,3.2-7.2,7.2v137.2c0,4,3.2,6.8,6.8,7.2h30c4,0,6.8-3.2,7.2-6.8V310.2
		C247.2,306.2,244,303,240,303L240,303z M233.2,440.6h-16V317h15.6L233.2,440.6z"/>
	<path class="st1" d="M301.6,355.8H272c-4,0-7.2,3.2-7.2,7.2v84.4c0,4,3.2,6.8,6.8,7.2h29.6c4,0,6.8-3.2,7.2-6.8V363
		C308.8,359,305.6,355.8,301.6,355.8z M294.8,440.6h-15.6v-70.8h15.6V440.6z"/>
	<path class="st1" d="M178,355.8h-29.6c-4,0-7.2,3.2-7.2,7.2v84.4c0,4,3.2,6.8,6.8,7.2h29.6c4,0,6.8-3.2,7.2-6.8V363
		C185.2,359,182,355.8,178,355.8z M171.2,440.6h-15.6v-70.8h15.6V440.6z"/>
	<path class="st1" d="M363.6,303H334c-4,0-7.2,3.2-7.2,7.2v137.2c0,4,3.2,6.8,6.8,7.2h29.6c4,0,6.8-3.2,7.2-6.8V310.2
		C370.8,306.2,367.6,303,363.6,303L363.6,303z M356.8,440.6h-15.6V317h15.6V440.6z"/>
	<path class="st1" d="M326.8,58.4c-39.9,0-72.3,32.4-72.3,72.3s32.4,72.3,72.3,72.3s72.3-32.4,72.3-72.3S366.7,58.4,326.8,58.4
		L326.8,58.4z M326.8,188c-31.6,0-57.3-25.7-57.3-57.3c0-29.1,21.7-53.1,49.8-56.8v56.8c0,4.1,3.4,7.5,7.5,7.5h56.8
		C379.9,166.3,355.9,188,326.8,188z M334.3,123.2V73.9c25.6,3.4,45.9,23.7,49.3,49.3H334.3z"/>
</g>
</svg>
