<?xml version="1.0" encoding="utf-8"?>
<!-- Generator: Adobe Illustrator 26.4.1, SVG Export Plug-In . SVG Version: 6.00 Build 0)  -->
<svg version="1.1" id="Capa_1" xmlns="http://www.w3.org/2000/svg" xmlns:xlink="http://www.w3.org/1999/xlink" x="0px" y="0px"
	 viewBox="0 0 512 512" style="enable-background:new 0 0 512 512;" xml:space="preserve">
<style type="text/css">
	.st0{fill:#62D2F9;}
	.st1{fill:#F8A940;}
</style>
<g>
	<g>
		<path class="st0" d="M453.3,194.7H324c-4.1,0-7.5,3.4-7.5,7.5s3.4,7.5,7.5,7.5h129.3c4.1,0,7.5-3.4,7.5-7.5
			S457.5,194.7,453.3,194.7z"/>
		<path class="st0" d="M453.3,239.9H324c-4.1,0-7.5,3.4-7.5,7.5s3.4,7.5,7.5,7.5h129.3c4.1,0,7.5-3.4,7.5-7.5
			S457.5,239.9,453.3,239.9z"/>
		<path class="st0" d="M460.8,292.6c0-4.1-3.4-7.5-7.5-7.5H324c-4.1,0-7.5,3.4-7.5,7.5s3.4,7.5,7.5,7.5h129.3
			C457.5,300.1,460.8,296.8,460.8,292.6z"/>
		<path class="st0" d="M324,330.3c-4.1,0-7.5,3.4-7.5,7.5s3.4,7.5,7.5,7.5h64.7c4.1,0,7.5-3.4,7.5-7.5s-3.4-7.5-7.5-7.5H324z"/>
		<path class="st0" d="M498.6,88.2l-77.3-77.3C414.4,4,405,0,395.1,0H140.6c-20.5,0-37.1,16.6-37.1,37.1v76.8c0,4.1,3.4,7.5,7.5,7.5
			s7.5-3.4,7.5-7.5V37.1c0-12.2,9.9-22.1,22.1-22.1H395c1.6,0,3.2,0.2,4.8,0.5v68.3c0,14.3,11.6,25.9,25.9,25.9H494
			c0.3,1.6,0.5,3.2,0.5,4.8V475c0,12.2-9.9,22.1-22.1,22.1H371.6c8.8-13.1,7.4-31.1-4.2-42.6l-68.2-68.2c-5-5-12.2-6.3-18.4-4
			l-14.7-14.7c41.4-57.5,35.3-137.1-15.3-187.7c-56.2-56.2-148.4-57.3-205.8,0c-56.7,56.7-56.7,149,0,205.8
			c50.6,50.6,130.3,56.6,187.7,15.3l14.7,14.7c-2.3,6.2-0.9,13.4,4,18.4l63.1,63.1h-174c-12.2,0-22.1-9.9-22.1-22.1v-24
			c0-4.1-3.4-7.5-7.5-7.5s-7.5,3.4-7.5,7.5v24c0,20.5,16.6,37.1,37.1,37.1h331.8c20.5,0,37.1-16.6,37.1-37.1V114.4
			C509.5,104.7,505.6,95.2,498.6,88.2L498.6,88.2z M55.7,374.9C4.8,324,4.8,241.2,55.7,190.3c51.5-51.5,134.2-50.3,184.6,0
			c46.9,46.9,51.2,121.3,10.2,173.2c-6.3,8-13.6,15.2-21.5,21.5C177.3,425.9,102.7,421.9,55.7,374.9z M244.6,391.4
			c4.2-3.8,8.3-7.8,12.1-12.1l12.4,12.4l-12.2,12.2L244.6,391.4L244.6,391.4L244.6,391.4z M330.3,491.5l-68.2-68.2c-1-1-1-2.6,0-3.5
			l0.1-0.1l0,0l22.9-22.9c1-1,2.6-1,3.5,0l68.2,68.2c7.3,7.3,7.3,19.2,0,26.5S337.6,498.8,330.3,491.5L330.3,491.5z M414.8,83.8
			V25.6l69.1,69.1h-58.2C419.7,94.7,414.8,89.8,414.8,83.8z"/>
		<path id="Path_50" class="st1" d="M150.2,382.1c-21.8,0.6-43.4-3.4-63.6-11.6c-5.7-2.8-9.3-8.7-9.3-15V319c0-4.4,1.7-8.6,4.8-11.7
			l26.3-26.9c3.8-3.6,9.8-3.5,13.5,0.3c3.5,3.6,3.6,9.4,0.1,13.1l-26.3,26.9l0.6,33.3c35.1,12.1,73.2,12.1,108.2,0v-34.4l-24.8-26
			c-3.5-4-3.1-10,0.9-13.4c3.8-3.3,9.6-3.1,13.1,0.5l25.4,27.5c2.9,3.1,4.4,7.1,4.4,11.3v35.9c0,6.5-3.6,12.4-9.5,15.2
			C193.8,378.7,172,382.6,150.2,382.1"/>
		<path id="Path_51" class="st1" d="M151.4,283.7c-28.1,1.5-52.2-20.1-53.7-48.2s20.1-52.2,48.2-53.7s52.2,20.1,53.7,48.2v0.1
			c0,0.9,0,1.8,0,2.6C200.3,260.2,178.7,282.9,151.4,283.7 M151.3,200.9c-17.6-1.5-33.2,11.5-34.7,29.1s11.5,33.2,29.1,34.7
			s33.2-11.5,34.7-29.1l0,0c0.1-1,0.1-1.9,0.1-2.8C181.2,215.9,168.2,201.7,151.3,200.9"/>
	</g>
</g>
</svg>
