<svg xmlns="http://www.w3.org/2000/svg" width="23" height="23.713" viewBox="0 0 23 23.713">
  <g id="Trainingschedule" transform="translate(-18 -264)">
    <path id="Path_34" data-name="Path 34" d="M51.233,385.393a6.146,6.146,0,0,1-2.507-.459.649.649,0,0,1-.366-.6V382.9a.656.656,0,0,1,.189-.463l1.041-1.059.54.531-1.013,1.03v1.339a6.536,6.536,0,0,0,4.258,0v-1.319L52.4,381.9l.555-.514,1,1.086a.654.654,0,0,1,.173.447v1.415a.659.659,0,0,1-.373.6,6.279,6.279,0,0,1-2.523.456" transform="translate(-14.2 -97.682)" fill="#62d2f9"/>
    <path id="Path_35" data-name="Path 35" d="M51.745,379.39a2.012,2.012,0,1,1,1.907-2.112c0,.034,0,.069,0,.1a1.962,1.962,0,0,1-1.91,2.009m0-3.263a1.258,1.258,0,1,0,1.148,1.359c0-.036,0-.071,0-.107a1.206,1.206,0,0,0-1.152-1.255Z" transform="translate(-14.664 -95.486)" fill="#62d2f9"/>
    <path id="Path_36" data-name="Path 36" d="M39.351,385.393a6.141,6.141,0,0,1-2.507-.459.658.658,0,0,1-.368-.6V382.9a.657.657,0,0,1,.19-.463l1.041-1.059.54.531-1.013,1.031v1.339a6.553,6.553,0,0,0,4.258,0v-1.32l-.977-1.058.555-.514,1,1.085a.664.664,0,0,1,.173.447v1.417a.66.66,0,0,1-.374.6,6.3,6.3,0,0,1-2.522.456" transform="translate(-9.859 -97.682)" fill="#62d2f9"/>
    <path id="Path_37" data-name="Path 37" d="M39.865,379.39a2.012,2.012,0,1,1,1.907-2.112c0,.034,0,.069,0,.1a1.962,1.962,0,0,1-1.909,2.009m0-3.263a1.258,1.258,0,1,0,1.145,1.361c0-.036,0-.072,0-.109a1.206,1.206,0,0,0-1.15-1.255Z" transform="translate(-10.325 -95.486)" fill="#62d2f9"/>
    <path id="Path_38" data-name="Path 38" d="M27.489,385.393a6.146,6.146,0,0,1-2.507-.459.659.659,0,0,1-.366-.6V382.9a.653.653,0,0,1,.189-.463l1.041-1.059.54.531-1.013,1.031v1.339a6.536,6.536,0,0,0,4.258,0v-1.318l-.977-1.057.556-.514,1,1.085a.659.659,0,0,1,.173.448v1.414a.663.663,0,0,1-.373.6,6.309,6.309,0,0,1-2.523.454" transform="translate(-5.527 -97.682)" fill="#62d2f9"/>
    <path id="Path_39" data-name="Path 39" d="M28,379.39a2.012,2.012,0,1,1,1.907-2.112c0,.034,0,.069,0,.1A1.962,1.962,0,0,1,28,379.39m0-3.263a1.258,1.258,0,1,0,1.147,1.36c0-.036,0-.072,0-.108A1.206,1.206,0,0,0,28,376.125Z" transform="translate(-5.991 -95.486)" fill="#62d2f9"/>
    <g id="Rectangle_2375" data-name="Rectangle 2375" transform="translate(18 264)" fill="none" stroke="#62d2f9" stroke-width="1">
      <rect width="23" height="14" rx="2" stroke="none"/>
      <rect x="0.5" y="0.5" width="22" height="13" rx="1.5" fill="none"/>
    </g>
    <circle id="Ellipse_277" data-name="Ellipse 277" cx="3" cy="3" r="3" transform="translate(27 268)" fill="none" stroke="#f8a940" stroke-linecap="round" stroke-linejoin="round" stroke-width="1"/>
    <path id="Path_15822" data-name="Path 15822" d="M12,6V7.763l1.175.588" transform="translate(17.938 263.31)" fill="none" stroke="#f8a940" stroke-linecap="round" stroke-linejoin="round" stroke-width="1"/>
  </g>
</svg>
