<svg xmlns="http://www.w3.org/2000/svg" xmlns:xlink="http://www.w3.org/1999/xlink" width="1370" height="137" viewBox="0 0 1370 137">
  <defs>
    <clipPath id="clip-path">
      <rect id="Rectangle_2182" data-name="Rectangle 2182" width="1370" height="137" transform="translate(5776 12171)" fill="#fff"/>
    </clipPath>
    <clipPath id="clip-path-2">
      <rect id="Rectangle_2177" data-name="Rectangle 2177" width="1369.555" height="684.778"/>
    </clipPath>
    <linearGradient id="linear-gradient" x1="0.068" y1="0.197" x2="0.883" y2="0.641" gradientUnits="objectBoundingBox">
      <stop offset="0.184" stop-color="#003d8f"/>
      <stop offset="0.515" stop-color="#5118ed"/>
      <stop offset="0.92" stop-color="#e0f"/>
    </linearGradient>
    <linearGradient id="linear-gradient-2" x1="0.009" y1="0.409" x2="0.929" y2="0.575" gradientUnits="objectBoundingBox">
      <stop offset="0" stop-color="#e0f"/>
      <stop offset="1" stop-color="#0cf"/>
    </linearGradient>
    <linearGradient id="linear-gradient-3" x1="0.454" y1="1.076" x2="0.589" y2="0.015" gradientUnits="objectBoundingBox">
      <stop offset="0.179" stop-color="#006bfa"/>
      <stop offset="0.515" stop-color="#5118ed"/>
      <stop offset="0.92" stop-color="#e0f"/>
    </linearGradient>
    <linearGradient id="linear-gradient-4" x1="0.343" y1="0.059" x2="0.599" y2="1.062" gradientUnits="objectBoundingBox">
      <stop offset="0.119" stop-color="#006bfa"/>
      <stop offset="0.515" stop-color="#5118ed"/>
      <stop offset="0.92" stop-color="#e0f"/>
    </linearGradient>
    <linearGradient id="linear-gradient-5" x1="0.149" y1="1.107" x2="0.846" y2="-0.039" gradientUnits="objectBoundingBox">
      <stop offset="0.119" stop-color="#006bfa"/>
      <stop offset="0.42" stop-color="#8318ed"/>
      <stop offset="0.708" stop-color="#e0f"/>
      <stop offset="0.998" stop-color="#f6ff00"/>
    </linearGradient>
    <linearGradient id="linear-gradient-6" x1="0.55" y1="0.012" x2="0.421" y2="1.005" gradientUnits="objectBoundingBox">
      <stop offset="0" stop-color="#0052cb"/>
      <stop offset="0.466" stop-color="#c943ff"/>
      <stop offset="1" stop-color="#3d18dc"/>
    </linearGradient>
    <linearGradient id="linear-gradient-7" x1="4.252" y1="-14.65" x2="4.815" y2="-13.741" xlink:href="#linear-gradient"/>
    <linearGradient id="linear-gradient-8" x1="1.031" y1="-0.333" x2="1.799" y2="-0.023" gradientUnits="objectBoundingBox">
      <stop offset="0.122" stop-color="#ff00f6"/>
      <stop offset="0.295" stop-color="#fca1e4"/>
      <stop offset="0.439" stop-color="#00fff5"/>
      <stop offset="0.689" stop-color="#5efff2"/>
      <stop offset="1" stop-color="#e240ff"/>
    </linearGradient>
    <linearGradient id="linear-gradient-9" x1="1" y1="-0.286" x2="1.763" y2="0.023" xlink:href="#linear-gradient-8"/>
    <linearGradient id="linear-gradient-10" x1="0.965" y1="-0.242" x2="1.724" y2="0.066" xlink:href="#linear-gradient-8"/>
    <linearGradient id="linear-gradient-11" x1="0.927" y1="-0.194" x2="1.682" y2="0.112" xlink:href="#linear-gradient-8"/>
    <linearGradient id="linear-gradient-12" x1="0.891" y1="-0.151" x2="1.645" y2="0.156" xlink:href="#linear-gradient-8"/>
    <linearGradient id="linear-gradient-13" x1="0.853" y1="-0.109" x2="1.604" y2="0.197" xlink:href="#linear-gradient-8"/>
    <linearGradient id="linear-gradient-14" x1="0.81" y1="-0.07" x2="1.56" y2="0.237" xlink:href="#linear-gradient-8"/>
    <linearGradient id="linear-gradient-15" x1="0.771" y1="-0.031" x2="1.522" y2="0.276" xlink:href="#linear-gradient-8"/>
    <linearGradient id="linear-gradient-16" x1="0.729" y1="0.009" x2="1.481" y2="0.318" xlink:href="#linear-gradient-8"/>
    <linearGradient id="linear-gradient-17" x1="0.682" y1="0.044" x2="1.436" y2="0.354" xlink:href="#linear-gradient-8"/>
    <linearGradient id="linear-gradient-18" x1="0.637" y1="0.083" x2="1.393" y2="0.395" xlink:href="#linear-gradient-8"/>
    <linearGradient id="linear-gradient-19" x1="0.586" y1="0.115" x2="1.346" y2="0.429" xlink:href="#linear-gradient-8"/>
    <linearGradient id="linear-gradient-20" x1="0.538" y1="0.151" x2="1.303" y2="0.467" xlink:href="#linear-gradient-8"/>
    <linearGradient id="linear-gradient-21" x1="0.485" y1="0.184" x2="1.255" y2="0.503" xlink:href="#linear-gradient-8"/>
    <linearGradient id="linear-gradient-22" x1="0.429" y1="0.218" x2="1.205" y2="0.54" xlink:href="#linear-gradient-8"/>
    <linearGradient id="linear-gradient-23" x1="0.371" y1="0.25" x2="1.155" y2="0.576" xlink:href="#linear-gradient-8"/>
    <linearGradient id="linear-gradient-24" x1="0.313" y1="0.284" x2="1.106" y2="0.614" xlink:href="#linear-gradient-8"/>
    <linearGradient id="linear-gradient-25" x1="0.251" y1="0.314" x2="1.053" y2="0.648" xlink:href="#linear-gradient-8"/>
    <linearGradient id="linear-gradient-26" x1="0.18" y1="0.346" x2="0.993" y2="0.686" xlink:href="#linear-gradient-8"/>
    <linearGradient id="linear-gradient-27" x1="0.114" y1="0.375" x2="0.94" y2="0.72" xlink:href="#linear-gradient-8"/>
    <linearGradient id="linear-gradient-28" x1="0.041" y1="0.401" x2="0.88" y2="0.75" xlink:href="#linear-gradient-8"/>
    <linearGradient id="linear-gradient-29" x1="2.444" y1="-0.674" x2="1.658" y2="-0.07" gradientUnits="objectBoundingBox">
      <stop offset="0.083" stop-color="#fff"/>
      <stop offset="0.257" stop-color="#ffefd4"/>
      <stop offset="0.403" stop-color="#d0eeee"/>
      <stop offset="0.522" stop-color="#b4edfe"/>
      <stop offset="0.693" stop-color="#47fcf9"/>
      <stop offset="1" stop-color="#a80071"/>
    </linearGradient>
    <linearGradient id="linear-gradient-30" x1="2.434" y1="-0.707" x2="1.632" y2="-0.14" xlink:href="#linear-gradient-29"/>
    <linearGradient id="linear-gradient-31" x1="2.418" y1="-0.741" x2="1.599" y2="-0.206" xlink:href="#linear-gradient-29"/>
    <linearGradient id="linear-gradient-32" x1="2.408" y1="-0.758" x2="1.57" y2="-0.251" xlink:href="#linear-gradient-29"/>
    <linearGradient id="linear-gradient-33" x1="2.406" y1="-0.769" x2="1.542" y2="-0.288" xlink:href="#linear-gradient-29"/>
    <linearGradient id="linear-gradient-34" x1="2.398" y1="-0.769" x2="1.506" y2="-0.31" xlink:href="#linear-gradient-29"/>
    <linearGradient id="linear-gradient-35" x1="2.4" y1="-0.755" x2="1.474" y2="-0.325" xlink:href="#linear-gradient-29"/>
    <linearGradient id="linear-gradient-36" x1="2.4" y1="-0.735" x2="1.436" y2="-0.331" xlink:href="#linear-gradient-29"/>
    <linearGradient id="linear-gradient-37" x1="2.411" y1="-0.715" x2="1.4" y2="-0.334" xlink:href="#linear-gradient-29"/>
    <linearGradient id="linear-gradient-38" x1="2.425" y1="-0.695" x2="1.36" y2="-0.333" xlink:href="#linear-gradient-29"/>
    <linearGradient id="linear-gradient-39" x1="2.45" y1="-0.67" x2="1.32" y2="-0.325" xlink:href="#linear-gradient-29"/>
    <linearGradient id="linear-gradient-40" x1="2.479" y1="-0.645" x2="1.272" y2="-0.316" xlink:href="#linear-gradient-29"/>
    <linearGradient id="linear-gradient-41" x1="2.518" y1="-0.62" x2="1.217" y2="-0.305" xlink:href="#linear-gradient-29"/>
    <linearGradient id="linear-gradient-42" x1="2.582" y1="-0.6" x2="1.166" y2="-0.296" xlink:href="#linear-gradient-29"/>
    <linearGradient id="linear-gradient-43" x1="2.65" y1="-0.572" x2="1.092" y2="-0.278" xlink:href="#linear-gradient-29"/>
    <linearGradient id="linear-gradient-44" x1="2.752" y1="-0.548" x2="1.011" y2="-0.263" xlink:href="#linear-gradient-29"/>
    <linearGradient id="linear-gradient-45" x1="2.892" y1="-0.526" x2="0.914" y2="-0.249" xlink:href="#linear-gradient-29"/>
    <linearGradient id="linear-gradient-46" x1="3.085" y1="-0.498" x2="0.782" y2="-0.228" xlink:href="#linear-gradient-29"/>
    <linearGradient id="linear-gradient-47" x1="3.377" y1="-0.471" x2="0.598" y2="-0.208" xlink:href="#linear-gradient-29"/>
    <linearGradient id="linear-gradient-48" x1="3.643" y1="-0.445" x2="0.376" y2="-0.187" xlink:href="#linear-gradient-29"/>
    <linearGradient id="linear-gradient-49" x1="3.127" y1="-0.419" x2="0.15" y2="-0.165" xlink:href="#linear-gradient-29"/>
    <linearGradient id="linear-gradient-50" x1="0.5" x2="0.5" y2="1" gradientUnits="objectBoundingBox">
      <stop offset="0" stop-color="#008acc"/>
      <stop offset="1" stop-color="#163160"/>
    </linearGradient>
  </defs>
  <g id="Group_4193" data-name="Group 4193" transform="translate(-5773 -12278)">
    <g id="Mask_Group_561" data-name="Mask Group 561" transform="translate(-3 107)" clip-path="url(#clip-path)">
      <g id="Group_3963" data-name="Group 3963" transform="translate(5776 12170.786)">
        <g id="Group_3871" data-name="Group 3871" clip-path="url(#clip-path-2)">
          <rect id="Rectangle_2176" data-name="Rectangle 2176" width="1369.555" height="684.778" fill="#0006b0"/>
        </g>
        <g id="Group_3872" data-name="Group 3872" clip-path="url(#clip-path-2)">
          <path id="Path_15521" data-name="Path 15521" d="M706.2,377.351a211.165,211.165,0,0,1-7.533,98.266,257.88,257.88,0,0,1-12.326,30.473c-18.147,35.266-41.087,69.163-69.847,97.238a310.023,310.023,0,0,1-30.473,25.679c-141.064,91.76-313.971,14.723-457.432-32.185a305.41,305.41,0,0,1-34.581-18.831C37.855,543.409-8.025,494.448-27.2,428.024c-15.408-59.918-10.272-121.548,13.7-178.042,20.2-46.565,73.271-63.684,121.548-60.6,15.065,0,30.13.685,44.853,1.712,38.005,2.739,76.01,8.9,114.015,3.424,57.179-7.875,94.842-41.429,140.037-74.3C492.547,58.587,578.144,15.1,682.915-2.016,756.871-14,840.757-31.8,914.37-10.233,948.952.038,982.506,20.924,995.859,56.19c22.255,58.548-30.815,81.489-76.353,102.032C817.817,203.76,696.953,242.792,706.2,377.351Z" transform="translate(-87.159 -49.342)" opacity="0.8" fill="url(#linear-gradient)"/>
          <path id="Path_15522" data-name="Path 15522" d="M428.69,314.352c-47.25-73.614-193.45-118.467-210.912,5.821-15.75,111.619,131.135,78.749,178.727,140.379,58.548,76.01-11.984,199.27-81.489,242.069C230.79,755.006,125.676,735.49,55.829,669.067-92.426,528.687-85.578,273.608,28.438,112,86.3,30.854,184.567-.3,280.778,17.843,329.74,27.088,372.2,56.191,420.815,65.435,473.2,75.365,517.369,48.316,567.7,40.441c53.413-8.217,110.249,13.353,115.727,74.641,4.451,50.674-39.375,102.717-54.782,149.966-14.723,44.853-22.94,90.733-70.532,111.619C495.8,403.031,462.929,357.493,428.69,314.352Z" transform="translate(-136.633 31.118)" fill="url(#linear-gradient-2)"/>
          <path id="Path_15523" data-name="Path 15523" d="M1038.5,311.105c5.478,73.271,48.962,250.286-85.255,225.634C870.729,521.675,819.371,376.5,736.855,401.5c-39.375,11.984-76.7,61.63-109.907,85.94-49.3,36.293-88.336,83.885-137.3,119.151-69.5,50.674-186.26,95.869-263.982,39.717-46.565-33.554-69.163-94.5-51.7-149.282,16.777-52.728,63.684-78.407,105.456-109.222,46.907-34.581,43.483-53.413,27.391-106.141-18.147-58.549-5.478-102.717,48.277-136.613,46.565-29.1,98.608-20.886,147.57-40.744,41.771-16.777,60.945-62.315,107.852-67.451C695.084,27.265,705.7,108.069,717,170.726c14.038,79.092,48.619,123.6,133.189,101.69C918.664,254.269,1025.147,201.541,1038.5,311.105Z" transform="translate(407.408 87.435)" fill="url(#linear-gradient-3)"/>
          <path id="Path_15524" data-name="Path 15524" d="M608.727,195.061c1.027,89.363-41.429,172.906-108.195,230.77-26.022,22.255-58.548,48.277-94.842,47.934-47.592-.685-59.576-45.538-86.624-76.01-124.287-142.091-317.052,177.015-479,65.4-94.842-65.4,36.978-104.086,55.125-158.868,13.353-40.4-3.766-84.228,8.217-124.63,10.614-35.608,40.4-60.945,69.847-81.146C4.753,76.937,37.964,63.926,62.616,33.8,88.98,1.269,102.676-42.557,141.708-63.785c76.7-41.429,130.108,19.859,142.776,89.363C296.126,89.948,301.6,177.6,388.228,168.013,450.2,160.138,596.743,69.4,608.727,195.061Z" transform="translate(-470.059 -187.186)" fill="url(#linear-gradient-4)"/>
          <path id="Path_15525" data-name="Path 15525" d="M1113.333,317.5c-13.011,89.021-123.945,111.619-157.156,189.683-14.038,32.869-11.984,92.1-61.63,93.13-39.375.685-63.342-52.385-90.733-73.271-46.907-35.951-83.543-17.462-132.162,4.793-63,28.761-127.711,51.016-191.738,77.38-102.032,42.456-220.5,88.336-331.09,42.114C48.161,609.218,3.993,459.594,62.2,368.861c56.837-88.336,157.157-88.679,245.835-56.837,81.489,29.1,254.737,120.521,280.416-19.859,8.9-47.934-15.407-103.4,7.19-148.6,23.282-46.565,83.2-53.07,126-31.5,75.326,38.005,65.739,189.683,166.4,180.439,54.44-5.136,88.336-60.945,142.091-68.135C1086.627,216.155,1122.578,263.747,1113.333,317.5Z" transform="translate(87.767 242.988)" fill="url(#linear-gradient-5)"/>
          <path id="Path_15526" data-name="Path 15526" d="M1066.652,152.837c1.027,97.238-50.674,198.928-132.5,252-34.239,22.255-73.956,39.717-113.673,19.516-47.25-23.967-76.7-80.8-138.325-71.217-121.891,18.831,14.038,203.037-126.341,222.553C460.966,588.7,416.8,452.77,362.358,399.7c-63.684-61.972-163.32-69.847-181.124-170.852-15.75-89.021,42.456-128.4,116.07-158.868,82.173-33.9,146.2-95.869,227-129.765,82.858-34.924,205.776-16.092,234.879,80.8,10.956,36.636,2.4,80.8,43.483,99.978,29.1,13.7,63.684-.685,91.76-9.244C956.745,92.919,1057.065,53.2,1066.652,152.837Z" transform="translate(433.011 -184.337)" fill="url(#linear-gradient-6)"/>
          <path id="Path_15527" data-name="Path 15527" d="M309.954,279.379c-49.989-69.847,8.56-158.184,84.57-172.222,37.32-6.848,79.776,6.163,113.673-16.092,32.869-21.57,35.608-60.945,47.592-94.842,29.788-84.912,114.358-117.1,184.205-49.989C795.12-.7,811.554,89.7,847.163,156.119c38.005,71.9,70.532,157.5-5.821,216.047C793.75,408.8,707.81,443.383,650.631,408.46c-58.206-35.266-33.212-135.586-110.249-147.912C455.127,246.852,381.856,380.384,309.954,279.379Z" transform="translate(706.256 -217.749)" fill="url(#linear-gradient-7)"/>
        </g>
        <g id="Group_3915" data-name="Group 3915" opacity="0.8" clip-path="url(#clip-path-2)">
          <g id="Group_3874" data-name="Group 3874" transform="translate(-488.589 -236.591)">
            <g id="Group_3873" data-name="Group 3873">
              <path id="Path_15528" data-name="Path 15528" d="M316.1,750.579a71.775,71.775,0,0,1-33.212-7.875,78.809,78.809,0,0,1-35.951-31.157,127.715,127.715,0,0,1-10.956-21.57c-5.136-16.777-5.821-36.636-6.505-56.494-1.712-44.853-3.081-91.418-55.809-103.744C146.961,524.26,120.939,525.629,95.6,527c-30.815,1.712-59.576,3.082-89.363-6.505a35.918,35.918,0,0,1-23.282-23.282c-4.109-9.587-6.505-20.543-8.9-30.815-4.793-20.543-9.587-41.771-27.391-55.809-5.821-6.163-13.011-11.641-20.886-17.119a239.522,239.522,0,0,0-23.625-14.038,188.043,188.043,0,0,0-22.255-8.217c-7.19-2.054-15.065-3.766-22.6-5.136l.342-1.37c7.533,1.37,15.407,2.739,22.6,5.136a219.752,219.752,0,0,1,22.6,8.217A187.232,187.232,0,0,1-73.537,392.1,134.255,134.255,0,0,1-52.652,409.56c17.8,14.38,22.94,35.951,27.733,56.494,2.4,10.272,4.793,20.886,8.9,30.473a35.383,35.383,0,0,0,22.6,22.6c29.445,9.587,58.206,8.217,88.679,6.505,25.337-1.37,51.358-2.739,78.407,2.739,53.413,12.668,55.125,59.576,56.837,105.113.685,20.2,1.37,39.717,6.505,55.809a111.777,111.777,0,0,0,10.614,21.228c9.245,14.38,20.886,24.31,35.608,30.815,33.9,16.777,76.7,4.793,99.635-27.734,8.56-12.668,14.38-27.391,19.859-41.429,6.848-17.462,14.038-35.608,26.706-49.989,6.163-7.19,13.353-14.38,20.543-21.228,42.8-39.717,71.559-34.581,107.852-28.418,17.462,3.081,37.32,6.505,61.288,4.793,23.625-1.712,38.005-10.956,42.456-27.733,8.9-32.869-23.967-84.228-50.674-103.059-74.641-52.043-153.048-54.44-227-48.962-41.771,3.081-64.027-1.37-72.586-13.7-11.984-17.462,3.766-50.331,27.391-100.32,36.293-76.7,91.075-192.423,94.842-352.661h1.37c-3.766,160.58-58.549,276.308-95.184,353.345-23.282,49.646-39.032,82.173-27.391,98.95,8.217,11.984,30.13,16.092,71.217,13.011,73.956-5.478,153.048-3.081,228.373,49.646,30.473,21.228,59.918,72.586,51.016,104.429-4.793,17.119-19.859,27.049-43.826,28.761s-43.826-1.712-61.63-4.793c-35.951-6.163-64.369-10.956-106.825,28.076-7.19,6.848-14.38,14.038-20.543,21.228-12.326,14.38-19.174,31.5-26.706,49.646-5.478,14.038-11.3,28.418-19.859,41.429A81.47,81.47,0,0,1,316.1,750.579Z" transform="translate(142.7 69.1)" fill="url(#linear-gradient-8)"/>
            </g>
          </g>
          <g id="Group_3876" data-name="Group 3876" transform="translate(-480.372 -233.509)">
            <g id="Group_3875" data-name="Group 3875">
              <path id="Path_15529" data-name="Path 15529" d="M328.43,754.9a74.371,74.371,0,0,1-30.815-6.505c-15.065-5.821-27.049-15.75-37.32-29.788a98.311,98.311,0,0,1-11.641-21.228c-5.821-16.435-7.19-36.636-8.56-56.152-3.082-44.853-6.505-91.075-59.233-101.689-26.706-4.451-52.728-2.4-78.065,0-30.473,2.739-59.576,5.136-89.363-3.424a37.218,37.218,0,0,1-24.31-22.6c-4.451-9.587-7.19-20.2-9.929-30.473-5.478-20.2-11.3-41.429-29.1-55.125a151.341,151.341,0,0,0-21.228-16.435A221.708,221.708,0,0,0-95.1,398.476a159.008,159.008,0,0,0-22.6-7.533,130.747,130.747,0,0,0-22.6-4.109v-1.37c7.533,1.027,15.407,2.4,22.94,4.109a145.747,145.747,0,0,1,22.6,7.533,228.265,228.265,0,0,1,24.31,13.011,137.149,137.149,0,0,1,21.571,16.435c18.489,14.038,23.967,35.266,29.445,55.467,2.739,10.272,5.478,20.886,9.929,30.13a36.966,36.966,0,0,0,23.282,21.913c29.788,8.56,58.548,6.163,89.021,3.424,25.337-2.4,51.358-4.451,78.407,0,53.755,10.614,57.179,57.521,60.26,103.059,1.37,20.2,2.739,39.375,8.217,55.809a111.315,111.315,0,0,0,11.3,20.886c9.929,14.038,21.913,23.625,36.636,29.445,34.581,15.75,76.7,2.4,98.608-31.157,8.217-13.011,13.353-27.734,18.489-41.771,6.505-17.8,13.011-35.951,24.994-51.016a238.989,238.989,0,0,1,19.859-21.913c41.429-41.087,70.19-37.32,106.825-32.185,17.8,2.4,37.663,5.136,61.288,2.4s37.663-12.326,41.429-29.1c7.875-33.212-27.049-83.543-54.1-101C539,391.286,460.25,391.971,386.636,399.846c-41.429,4.451-64.027,1.027-72.929-11.3-12.668-17.119,2.054-50.674,23.625-101.347,33.9-77.722,84.57-195.162,82.858-355.4h1.37c1.712,160.238-49.3,278.02-82.858,356.084-21.57,50.331-35.951,83.543-23.967,99.978,8.56,11.641,30.815,15.065,71.9,10.614,73.956-7.875,152.705-8.217,229.743,41.429,31.157,20.2,62.315,70.19,54.782,102.374-4.109,17.119-18.831,27.391-42.8,30.13s-43.826,0-61.63-2.4c-36.293-4.793-64.712-8.9-105.8,31.842a294.309,294.309,0,0,0-19.859,21.913c-11.984,14.723-18.147,32.185-24.652,50.674-5.136,14.38-10.272,29.1-18.489,42.114A82.718,82.718,0,0,1,328.43,754.9Z" transform="translate(140.3 68.2)" fill="url(#linear-gradient-9)"/>
            </g>
          </g>
          <g id="Group_3878" data-name="Group 3878" transform="translate(-471.469 -230.085)">
            <g id="Group_3877" data-name="Group 3877">
              <path id="Path_15530" data-name="Path 15530" d="M340.96,758.642a74.894,74.894,0,0,1-28.418-5.478c-15.065-5.478-27.733-14.723-38.348-28.418a115.532,115.532,0,0,1-12.326-20.886c-6.163-16.092-8.217-36.293-10.272-55.809-4.793-44.853-9.587-90.733-63-99.635-27.049-3.766-52.728-.342-78.065,2.739-30.473,3.766-59.233,7.19-89.363-.342A37.61,37.61,0,0,1-3.826,529.241C-8.619,520-11.7,509.383-14.782,499.111c-6.163-20.2-12.668-40.744-31.157-53.755a138.474,138.474,0,0,0-21.913-15.75c-7.19-4.451-15.407-8.217-24.31-12.326a217.748,217.748,0,0,0-22.6-6.848,168.342,168.342,0,0,0-22.94-3.424v-1.37a168.342,168.342,0,0,1,22.94,3.424,162.083,162.083,0,0,1,22.94,6.848,236.115,236.115,0,0,1,24.652,12.326,138.474,138.474,0,0,1,21.913,15.75c18.831,13.353,25.337,34.239,31.5,54.44C-10.674,508.7-7.592,518.97-2.8,528.214A34.766,34.766,0,0,0,21.511,549.1c30.13,7.533,58.548,4.109,89.021.342,24.994-3.081,51.016-6.163,78.407-2.739,54.1,8.9,59.233,55.467,64.027,100.662,2.054,20.2,4.109,39.375,10.272,55.467,3.424,7.19,7.19,14.38,11.984,20.543,10.272,13.7,22.6,22.94,37.663,28.076,34.924,14.38,77.038-.342,97.581-34.581,7.533-13.353,12.326-28.076,16.777-42.456,5.821-17.8,11.641-36.293,23.282-51.7a238.973,238.973,0,0,1,19.174-22.6c40.059-42.456,69.163-39.717,105.8-35.951,17.8,1.712,37.663,3.766,61.288.342s36.978-13.7,40.4-30.473c6.848-33.554-29.788-82.516-57.864-99.293-78.407-46.907-156.814-43.826-230.428-33.212-41.429,5.821-64.027,3.424-73.271-8.56-13.011-16.435,0-50.674,20.2-102.032C366.639,211.847,413.2,92.7,406.013-67.2h1.37c7.533,159.9-39.032,279.389-70.19,358.481-19.859,51.016-33.212,84.912-20.543,100.662,8.9,11.3,31.157,14.038,72.244,8.217,73.614-10.614,152.363-13.7,231.113,33.554,31.842,19.174,64.711,68.135,58.206,100.662-3.424,17.119-17.8,28.076-41.771,31.5-23.625,3.424-43.826,1.37-61.63-.342-36.293-3.766-65.054-6.505-104.771,35.608a193.776,193.776,0,0,0-18.831,22.6c-11.3,15.065-17.119,32.869-22.94,51.358-4.451,14.38-9.245,29.445-17.119,42.8C396.084,743.577,368.351,758.642,340.96,758.642Z" transform="translate(137.7 67.2)" fill="url(#linear-gradient-10)"/>
            </g>
          </g>
          <g id="Group_3880" data-name="Group 3880" transform="translate(-462.225 -227.004)">
            <g id="Group_3879" data-name="Group 3879">
              <path id="Path_15531" data-name="Path 15531" d="M352.9,761.6a69.914,69.914,0,0,1-26.022-4.793c-15.408-4.793-28.076-13.7-39.032-27.049a96.821,96.821,0,0,1-13.011-20.2c-6.848-16.092-9.587-35.951-12.326-55.467-6.163-44.511-12.668-90.391-66.423-97.238-27.049-2.739-52.728,1.37-77.722,5.478C87.9,567.119,59.477,571.57,29,565.065A35.373,35.373,0,0,1,3.325,544.179c-5.136-9.245-8.56-19.516-11.984-29.788-6.848-19.859-14.038-40.4-32.869-52.728a143.969,143.969,0,0,0-22.6-15.065A170.547,170.547,0,0,0-89.12,435.3a160.6,160.6,0,0,0-22.94-5.821A167.96,167.96,0,0,0-135,426.74v-1.37a167.955,167.955,0,0,1,22.94,2.739,165.327,165.327,0,0,1,23.282,5.821c9.244,3.766,17.462,7.533,24.994,11.3a123.547,123.547,0,0,1,22.6,15.065c19.174,12.668,26.364,33.212,33.554,53.413,3.424,9.929,7.19,20.2,11.984,29.445a35.621,35.621,0,0,0,24.994,20.2c30.13,6.505,58.891,2.054,89.021-2.739,24.994-4.109,51.016-8.217,78.065-5.478,54.44,6.848,60.945,53.413,67.451,98.608,2.739,20.2,5.478,39.032,12.326,55.125a96.82,96.82,0,0,0,13.011,20.2c10.956,13.353,23.625,21.913,38.69,26.706,35.608,13.353,76.7-3.081,96.211-38.005,7.19-13.7,11.3-28.761,15.407-43.141,5.136-18.147,10.272-36.978,21.228-52.385A284.733,284.733,0,0,1,478.9,598.962c38.348-43.826,67.451-42.114,104.429-39.717,17.8,1.027,38.005,2.4,61.288-1.712s36.636-15.065,39.375-32.185c5.478-33.554-32.527-81.489-61.288-97.238-79.777-44.168-158.184-38.348-231.112-25.337-41.087,7.533-63.684,5.478-73.614-5.821-13.7-16.092-1.712-50.674,16.777-102.717C362.833,214.116,405.29,93.253,392.279-66.3h1.37C406.659,93.6,364.2,214.8,336.127,294.578c-18.147,51.7-30.13,85.94-16.777,101.347,9.587,10.956,31.842,12.668,72.244,5.478,73.271-13.011,152.021-19.174,232.14,25.337,32.527,17.8,67.108,65.739,61.63,98.608-2.739,17.462-16.777,28.761-40.4,33.212s-43.826,3.081-61.63,1.712c-36.636-2.4-65.4-4.109-103.4,39.032a284.728,284.728,0,0,0-18.147,23.282c-10.956,15.407-15.75,33.212-21.228,52.043-4.109,14.723-8.217,29.445-15.408,43.483C409.741,745.5,381.665,761.6,352.9,761.6Z" transform="translate(135 66.3)" fill="url(#linear-gradient-11)"/>
            </g>
          </g>
          <g id="Group_3882" data-name="Group 3882" transform="translate(-451.611 -223.238)">
            <g id="Group_3881" data-name="Group 3881">
              <path id="Path_15532" data-name="Path 15532" d="M364.564,763.381a77.051,77.051,0,0,1-23.282-3.766q-23.111-6.163-40.06-25.679a113.713,113.713,0,0,1-13.7-19.859c-7.19-15.75-10.956-35.608-14.38-54.782-7.875-44.168-16.092-90.048-69.5-94.842-27.049-1.712-52.728,3.424-77.38,8.217-30.13,5.821-58.548,11.3-89.363,5.821a35.793,35.793,0,0,1-26.364-19.859c-5.478-8.9-9.244-19.174-13.011-29.1-7.533-19.516-15.408-40.06-34.924-51.7a123.965,123.965,0,0,0-22.94-14.038,226.385,226.385,0,0,0-25.337-10.614,212.93,212.93,0,0,0-23.282-5.136,172.4,172.4,0,0,0-22.94-1.712v-1.37a177.528,177.528,0,0,1,23.282,1.712,121.8,121.8,0,0,1,23.282,5.136A226.391,226.391,0,0,1-60,462.421a146.3,146.3,0,0,1,22.94,14.38C-17.2,488.785-9.325,509.328-1.792,529.187c3.766,9.929,7.875,20.2,13.011,29.1A35.256,35.256,0,0,0,36.9,577.464c30.473,5.478,58.891,0,88.679-5.821,24.994-4.793,50.674-9.929,77.722-8.217,54.782,5.136,63,51.358,70.875,96.211,3.424,20.2,6.848,39.032,14.038,54.44a87.006,87.006,0,0,0,13.7,19.516c11.3,13.011,24.31,21.228,39.375,25.337,35.951,11.984,76.7-5.821,94.842-41.429,6.505-14.038,10.272-29.1,14.038-43.483,4.451-18.147,9.245-37.32,19.516-53.413a224.208,224.208,0,0,1,17.462-23.967C524.117,551.1,553.22,551.785,590.2,553.154c17.8.685,38.005,1.027,61.288-3.766,23.282-5.136,35.951-16.435,38.348-33.554,4.451-33.9-35.608-80.119-64.369-94.842-81.489-41.429-159.553-32.527-232.14-17.119-41.087,8.56-63.684,7.533-73.956-3.766-14.38-15.75-3.424-50.331,13.011-103.059,25.337-80.8,63.342-203.379,44.853-362.247h1.37c18.489,159.211-19.516,281.786-44.853,362.932-16.435,52.043-27.391,86.624-13.353,101.689,9.929,10.614,32.185,11.641,72.586,3.082,72.586-15.75,150.993-24.31,232.824,17.119,32.869,16.777,69.5,63.342,65.054,96.211-2.4,17.462-15.75,29.445-39.375,34.581-23.282,5.136-43.826,4.451-61.63,4.109-36.636-1.027-65.4-2.054-102.032,42.8-6.163,7.875-11.984,15.75-17.462,23.967-10.272,15.75-14.723,33.9-19.516,52.728-3.424,14.723-7.19,29.788-14.038,43.826C422.77,746.262,394.009,763.381,364.564,763.381Z" transform="translate(131.9 65.2)" fill="url(#linear-gradient-12)"/>
            </g>
          </g>
          <g id="Group_3884" data-name="Group 3884" transform="translate(-440.654 -219.471)">
            <g id="Group_3883" data-name="Group 3883">
              <path id="Path_15533" data-name="Path 15533" d="M375.639,764.823a73.476,73.476,0,0,1-20.886-3.081c-15.75-3.766-29.1-11.641-41.087-24.31a102.644,102.644,0,0,1-14.38-19.516c-7.875-15.408-11.984-35.266-16.092-54.44-9.244-43.826-19.174-89.364-72.929-92.445-27.049-.685-52.728,5.136-77.037,10.956-29.788,6.848-58.206,13.353-89.021,8.9a36.31,36.31,0,0,1-27.049-18.831c-5.821-8.9-9.929-18.831-14.038-28.761-8.217-19.516-16.777-39.375-36.636-50.331A166.2,166.2,0,0,0-56.8,479.614a272.071,272.071,0,0,0-25.679-9.587,132.572,132.572,0,0,0-23.282-4.109c-7.533-.685-15.408-1.027-22.94-1.027v-1.37c7.875,0,15.407.342,23.282,1.027A169.741,169.741,0,0,1-81.793,469a240.6,240.6,0,0,1,25.679,9.587A152.814,152.814,0,0,1-32.489,491.94c20.2,11.3,28.761,31.5,36.978,51.016,4.109,9.587,8.56,19.859,14.038,28.418a36.212,36.212,0,0,0,26.364,18.489c30.473,4.451,58.891-2.054,88.679-8.9C158.222,575.14,183.9,569.319,210.95,570c54.782,3.081,64.711,48.962,74.3,93.472,4.109,19.859,8.217,38.69,16.092,54.1a112.168,112.168,0,0,0,14.38,19.174c11.641,12.326,24.994,20.2,40.4,23.967,36.293,10.614,76.353-8.56,93.472-44.853,6.163-14.038,9.245-29.445,12.326-44.168,3.766-18.489,7.875-37.32,17.8-53.755,4.793-8.217,10.614-16.435,16.435-24.652,35.266-46.565,64.369-46.565,101.347-46.907,17.8,0,38.005-.342,60.945-6.163s35.608-17.462,36.978-34.581c3.081-33.9-38.348-78.749-67.793-92.787-83.543-38.348-161.265-26.706-233.167-8.56-40.4,10.272-63.342,9.929-73.614-.685-15.065-15.407-5.478-50.674,9.245-103.744C352.7,218.028,386.6,94.426,362.286-63.758l1.37-.342c24.31,158.526-9.929,282.471-32.185,364.3-14.38,52.728-23.967,87.652-9.929,102.374,10.272,10.272,32.527,10.614,72.586.342,71.9-18.147,150.309-29.445,233.509,9.244,33.554,15.75,71.559,60.945,68.478,93.815-1.712,17.462-14.723,29.788-38.005,35.951-23.282,5.821-43.483,6.163-61.288,6.163-36.636,0-65.4.342-100.32,46.222a216.606,216.606,0,0,0-16.435,24.31c-9.929,16.092-13.7,34.239-17.462,53.413-3.081,14.723-6.163,30.13-12.326,44.511C435.557,746.334,406.111,764.823,375.639,764.823Z" transform="translate(128.7 64.1)" fill="url(#linear-gradient-13)"/>
            </g>
          </g>
          <g id="Group_3886" data-name="Group 3886" transform="translate(-429.356 -215.363)">
            <g id="Group_3885" data-name="Group 3885">
              <path id="Path_15534" data-name="Path 15534" d="M387.156,765.339a68.557,68.557,0,0,1-18.489-2.4c-15.75-3.081-29.445-10.614-41.771-22.94-5.821-5.478-10.614-11.984-15.065-18.831-8.56-15.065-13.353-34.924-18.147-53.755-10.956-43.483-22.255-88.679-76.01-90.048-27.049,0-52.386,6.848-76.7,13.353C111.191,598.6,83.457,606.128,52.3,602.7a36.419,36.419,0,0,1-27.733-18.147C18.746,576,13.952,566.068,9.5,556.482.6,537.308-8.645,517.792-28.846,507.52c-6.848-4.793-15.065-8.9-23.967-12.668a210.929,210.929,0,0,0-26.022-8.56,170.555,170.555,0,0,0-23.625-3.424,171.027,171.027,0,0,0-22.94-.342v-1.37a176.162,176.162,0,0,1,23.282.342,170.551,170.551,0,0,1,23.625,3.424,209.662,209.662,0,0,1,26.022,8.9c8.9,3.766,17.119,7.875,23.967,12.668,20.543,10.614,29.788,30.473,38.69,49.646,4.451,9.587,9.244,19.516,15.065,28.076a35.3,35.3,0,0,0,26.706,17.462c30.815,3.424,58.548-4.109,88.336-11.984,24.31-6.505,49.646-13.353,77.037-13.7,55.125,1.37,66.423,46.907,77.38,90.733,4.793,19.859,9.587,38.348,17.8,53.413a97.1,97.1,0,0,0,14.723,18.489c12.326,11.984,25.679,19.516,41.087,22.6,36.636,9.587,76.01-11.3,91.76-47.934,5.821-14.38,8.217-29.788,10.956-44.511,3.082-18.489,6.505-37.663,15.75-54.44a276.853,276.853,0,0,1,15.75-24.994c33.554-47.592,62.657-48.962,99.635-50.331,17.8-.685,38.005-1.37,60.945-8.217,22.94-6.505,34.924-18.831,35.951-35.951,2.054-34.239-41.087-77.38-70.874-90.048-84.228-35.608-161.608-21.571-232.825-1.027-39.717,11.984-62.657,12.326-73.614,2.054-15.408-14.723-6.848-49.989,5.821-103.744C347.1,219.571,376.884,94.941,347.1-62.558l1.37-.342c29.788,157.5,0,282.471-19.516,364.987-12.668,53.413-20.886,88.679-6.163,102.717,10.614,9.929,32.869,9.245,72.586-2.054,71.217-20.543,148.939-34.924,233.509,1.027,33.9,14.38,73.614,58.548,71.9,91.418-1.027,17.462-13.7,30.473-36.636,36.978-22.94,6.848-43.141,7.533-60.945,8.217-36.636,1.37-65.4,2.739-98.608,49.646a276.861,276.861,0,0,0-15.75,24.994c-9.245,16.435-12.326,34.924-15.75,54.1-2.4,15.065-5.136,30.473-10.956,44.853C448.444,745.48,418.314,765.339,387.156,765.339Z" transform="translate(125.4 62.9)" fill="url(#linear-gradient-14)"/>
            </g>
          </g>
          <g id="Group_3888" data-name="Group 3888" transform="translate(-416.687 -211.254)">
            <g id="Group_3887" data-name="Group 3887">
              <path id="Path_15535" data-name="Path 15535" d="M397.361,764.827a82.115,82.115,0,0,1-15.75-1.712c-15.75-2.739-29.788-9.587-42.456-21.57a102.209,102.209,0,0,1-15.75-18.489c-8.9-14.723-14.38-34.239-19.859-53.07-12.326-42.8-24.994-87.309-78.065-87.309h-1.027c-27.049,1.027-52.043,8.9-76.353,16.092-29.445,8.9-57.179,17.462-88.336,15.065a37.632,37.632,0,0,1-28.418-17.119c-6.163-8.56-11.3-18.147-16.092-27.734C5.669,550.149-4.261,530.975-24.8,521.388a145.546,145.546,0,0,0-24.31-11.641,213.886,213.886,0,0,0-26.022-7.875,171.688,171.688,0,0,0-23.625-2.739,171.2,171.2,0,0,0-22.94.685v-1.37a176.339,176.339,0,0,1,23.282-.685A171.689,171.689,0,0,1-74.793,500.5a202.6,202.6,0,0,1,26.364,7.875c8.9,3.424,17.462,7.19,24.31,11.641,20.886,9.929,30.815,29.445,40.4,48.277,4.793,9.245,9.929,19.174,16.092,27.391a35.025,35.025,0,0,0,27.391,16.435c30.815,2.4,58.548-6.163,87.652-15.065,24.31-7.533,49.3-15.065,76.7-16.092h1.37c54.1,0,66.766,44.853,79.092,87.994,5.478,19.516,10.956,38.005,19.859,52.728a110.865,110.865,0,0,0,15.408,18.147c12.668,11.641,26.364,18.489,41.771,21.228,36.978,8.217,75.668-13.7,90.048-51.016,5.136-14.38,7.19-29.788,9.244-44.853,2.4-18.489,5.136-38.005,13.7-55.125,4.451-8.56,9.245-17.119,14.723-25.679,31.842-48.962,60.945-51.016,97.923-53.755,17.8-1.37,38.005-2.739,60.6-10.272s34.239-19.859,34.581-37.32c.685-34.239-43.826-76.01-73.956-87.652-85.255-32.527-162.292-15.75-232.482,7.19-39.717,14.038-62.315,15.408-73.614,5.136-15.75-14.038-8.56-49.989,2.054-104.086,16.777-83.2,41.771-208.857,6.848-364.987l1.37-.342c35.266,156.472,9.929,282.471-6.848,365.671-10.614,53.755-17.8,89.363-2.739,102.717,10.956,9.587,33.212,8.217,72.244-4.451,70.532-22.94,147.57-40.06,233.509-7.19C663.4,408.4,704.484,450.856,703.8,484.068c-.342,17.462-12.668,30.815-35.608,38.347-22.6,7.533-42.8,8.9-60.945,10.272-36.293,2.739-65.4,4.793-96.9,53.07a237.359,237.359,0,0,0-14.723,25.679c-8.56,16.777-10.956,35.266-13.7,54.44-2.054,15.065-4.109,30.473-9.245,45.2C460.361,743.941,429.546,764.827,397.361,764.827Z" transform="translate(121.7 61.7)" fill="url(#linear-gradient-15)"/>
            </g>
          </g>
          <g id="Group_3890" data-name="Group 3890" transform="translate(-404.019 -206.46)">
            <g id="Group_3889" data-name="Group 3889">
              <path id="Path_15536" data-name="Path 15536" d="M407.909,763.488a58.973,58.973,0,0,1-13.353-1.37c-16.092-2.054-30.13-8.56-43.141-19.859a101.484,101.484,0,0,1-16.435-17.8c-9.587-14.723-15.75-33.9-21.913-52.385-13.7-41.429-27.391-84.57-77.722-84.57h-4.451c-27.049,2.054-51.7,10.614-75.668,18.831-29.1,9.929-56.494,19.516-87.652,18.147a36.429,36.429,0,0,1-29.1-16.092c-6.505-8.217-11.984-17.8-17.119-27.049C11.081,562.848.467,544.016-20.419,535.114a148.631,148.631,0,0,0-24.652-10.956,226.061,226.061,0,0,0-26.364-6.848A174.267,174.267,0,0,0-95.06,515.6a171.882,171.882,0,0,0-22.94,1.37V515.6a173.608,173.608,0,0,1,23.282-1.37,183.646,183.646,0,0,1,23.967,1.712,232.571,232.571,0,0,1,26.706,6.848A152.643,152.643,0,0,1-19.05,533.745c21.228,8.9,31.842,28.076,42.114,46.907C28.2,589.9,33.678,599.483,40.184,607.7A35.711,35.711,0,0,0,68.26,623.108c30.815,1.37,58.206-8.217,86.967-18.147,23.967-8.217,48.619-16.777,76.01-18.831,54.782-2.739,69.5,42.114,83.543,85.255,6.163,19.516,12.326,37.663,21.57,52.043a111.956,111.956,0,0,0,16.092,17.462c13.011,11.3,27.049,17.462,42.8,19.516,37.32,6.848,74.983-16.435,87.994-54.1,4.793-14.723,6.163-30.13,7.875-45.2,1.712-18.831,3.766-38.005,11.984-55.467a273.4,273.4,0,0,1,14.038-26.022c30.13-49.989,59.233-53.07,95.869-57.179,17.8-2.054,37.663-4.109,59.918-12.326s33.554-21.228,33.212-38.348c-.342-34.239-46.222-74.641-77.037-84.912-86.282-29.788-162.635-10.272-232.14,15.408-39.032,14.38-61.972,16.435-73.614,6.848-16.435-13.353-10.272-49.646-1.37-104.086,13.7-83.543,34.581-210.227-5.821-364.986l.685-.342C357.578,95.145,336.692,221.486,323,305.371c-8.9,54.1-14.723,89.706,1.027,102.717,11.3,9.244,33.554,7.19,72.244-7.19,69.5-25.337,146.2-44.853,232.824-15.065,34.924,11.984,77.722,53.07,78.065,86.282.342,17.462-11.641,31.157-34.239,39.717-22.6,8.217-42.456,10.614-60.26,12.326-36.293,4.109-65.054,7.19-94.842,56.494a210.409,210.409,0,0,0-13.7,26.022c-7.875,17.119-9.929,35.608-11.984,55.125-1.37,15.065-3.082,30.473-7.875,45.538C472.278,740.89,441.121,763.488,407.909,763.488Z" transform="translate(118 60.3)" fill="url(#linear-gradient-16)"/>
            </g>
          </g>
          <g id="Group_3892" data-name="Group 3892" transform="translate(-389.981 -201.667)">
            <g id="Group_3891" data-name="Group 3891">
              <path id="Path_15537" data-name="Path 15537" d="M417.487,761.121c-3.424,0-7.19-.342-10.614-.685-16.092-1.37-30.473-7.533-43.826-18.489a134.784,134.784,0,0,1-17.119-17.119c-9.929-14.38-16.777-33.212-23.625-51.7-15.408-42.114-31.157-85.94-85.255-81.489-27.049,3.081-51.358,12.326-74.983,21.57-28.418,10.956-55.125,21.228-85.94,21.228h-.685A36.033,36.033,0,0,1,46,619.372c-6.848-7.875-12.668-17.462-18.147-26.364-10.956-18.147-22.255-36.635-43.141-44.853a152.078,152.078,0,0,0-24.994-9.929,181.984,181.984,0,0,0-26.706-5.821,135.01,135.01,0,0,0-23.625-1.027c-7.533.342-15.407,1.027-22.94,2.054l-.342-1.37a130.85,130.85,0,0,1,23.282-2.054,138.955,138.955,0,0,1,23.967,1.027,224.672,224.672,0,0,1,26.706,5.821,156.25,156.25,0,0,1,25.337,9.929c21.571,8.217,32.869,27.049,43.826,45.2,5.478,8.9,10.956,18.489,17.8,26.364a34.885,34.885,0,0,0,28.418,14.38h.685c30.473,0,57.179-10.272,85.6-21.228,23.625-9.244,48.277-18.489,75.326-21.57,54.782-4.451,70.875,39.717,86.282,82.173,6.848,19.174,13.7,37.32,23.282,51.358a113.167,113.167,0,0,0,16.777,17.119c13.353,10.614,27.391,16.777,43.141,18.146,37.32,5.478,74.641-19.174,86.282-57.179,4.109-14.723,5.136-30.473,6.163-45.538,1.37-18.831,2.4-38.348,9.929-55.809,3.766-8.9,8.217-17.8,13.011-26.706,28.418-51.016,57.521-55.125,93.815-60.6,17.462-2.4,37.663-5.478,59.576-14.38s32.869-22.255,31.842-39.375c-1.712-34.239-48.962-72.929-80.119-82.173-87.309-26.706-162.977-4.451-231.455,23.282-38.69,15.75-61.288,18.489-73.271,9.587-16.777-13.011-11.984-48.962-5.136-103.744,10.956-84.228,27.049-211.254-18.831-364.644l1.37-.342c45.88,153.733,29.445,280.759,18.831,364.986-6.848,54.44-11.641,90.391,4.451,102.717,11.641,8.9,33.554,5.821,71.9-9.587,68.82-28.076,144.488-50.331,232.482-23.282,35.266,10.614,79.434,50.331,80.8,83.543.685,17.462-10.614,31.5-32.869,40.744s-42.114,11.984-59.918,14.723c-36.293,5.136-64.711,9.245-92.787,59.918a268.808,268.808,0,0,0-13.011,26.364c-7.533,17.462-8.56,35.951-9.929,55.467-1.027,15.065-2.054,30.815-6.163,45.538C483.569,737.5,451.726,761.121,417.487,761.121Z" transform="translate(113.9 58.9)" fill="url(#linear-gradient-17)"/>
            </g>
          </g>
          <g id="Group_3894" data-name="Group 3894" transform="translate(-375.943 -195.846)">
            <g id="Group_3893" data-name="Group 3893">
              <path id="Path_15538" data-name="Path 15538" d="M427.066,757.685a65.971,65.971,0,0,1-8.217-.342c-16.092-1.027-30.473-6.505-44.511-16.777a89.93,89.93,0,0,1-17.462-16.777c-10.614-14.038-18.147-32.527-25.337-50.674-16.777-41.771-34.239-84.912-87.994-78.407-26.706,3.766-51.016,14.038-74.3,23.967-28.418,11.984-54.782,23.282-86.282,24.31a37.281,37.281,0,0,1-30.13-14.038C45.645,621.072,39.824,612.17,34,603.268c-11.641-17.462-23.282-35.951-44.853-43.141-7.533-3.766-16.092-6.505-25.337-8.9a264.664,264.664,0,0,0-26.706-5.136,136.1,136.1,0,0,0-23.625,0,131.813,131.813,0,0,0-22.94,3.082l-.342-1.37c7.533-1.37,15.408-2.4,22.94-3.082a186.606,186.606,0,0,1,23.967,0c9.929,1.37,18.831,2.739,27.049,5.136A141.942,141.942,0,0,1-10.165,559.1c21.57,7.533,33.9,26.022,45.2,43.826,5.821,8.9,11.641,18.147,18.831,25.679a35.682,35.682,0,0,0,29.1,13.353c30.815-1.027,57.521-12.326,85.6-24.31,23.282-9.929,47.592-20.2,74.641-23.967,54.782-6.505,72.244,36.978,89.364,79.092C340.1,691.6,347.289,709.409,357.9,723.1a99.371,99.371,0,0,0,17.462,16.435c13.7,10.272,28.076,15.75,43.826,16.777,37.663,4.109,73.614-21.571,84.228-60.26,3.766-15.065,4.109-30.473,4.451-45.538.685-18.831,1.027-38.348,7.875-56.152,3.424-8.9,7.533-18.147,11.984-27.049,26.706-52.043,55.467-57.179,91.76-63.684,17.462-3.082,37.32-6.848,58.891-16.435,21.57-9.929,31.842-23.282,30.473-40.744-2.739-33.9-51.358-71.217-82.858-79.434-88.336-23.625-162.977,1.37-230.428,31.5-38.005,17.119-60.6,20.886-72.929,11.984-17.119-12.326-13.7-48.619-8.56-103.744,7.875-84.57,19.859-211.939-31.5-363.617l1.37-.342c51.358,151.336,39.375,279.047,31.5,363.617-5.136,54.782-8.56,90.733,8.217,102.717,11.984,8.56,33.9,4.793,71.559-11.984,67.793-30.473,142.776-55.125,231.455-31.5,35.608,9.587,81.146,47.592,83.885,80.461,1.37,17.462-9.244,32.185-31.157,41.771-21.913,9.929-41.771,13.353-59.233,16.777-35.951,6.505-64.369,11.641-90.733,63a270.883,270.883,0,0,0-11.984,27.049c-6.848,17.8-7.533,36.293-7.875,55.809-.342,15.065-1.027,30.815-4.451,45.88C494.516,732.349,462.332,757.685,427.066,757.685Z" transform="translate(109.8 57.2)" fill="url(#linear-gradient-18)"/>
            </g>
          </g>
          <g id="Group_3896" data-name="Group 3896" transform="translate(-360.878 -191.053)">
            <g id="Group_3895" data-name="Group 3895">
              <path id="Path_15539" data-name="Path 15539" d="M435.917,754.292a33.223,33.223,0,0,1-5.821-.342c-16.092-.342-30.815-5.478-45.2-15.408a100.278,100.278,0,0,1-18.147-16.092C355.8,709.1,347.58,690.608,339.706,672.8c-18.147-41.087-37.32-83.543-90.733-75.326-26.706,4.793-50.331,16.092-73.271,26.706-27.733,13.011-54.1,25.337-85.255,27.391a37.041,37.041,0,0,1-30.473-13.011c-7.533-7.533-13.7-16.435-19.859-24.994C28.132,596.451,15.463,578.647-6.107,571.8a132.886,132.886,0,0,0-25.679-8.217,266.747,266.747,0,0,0-27.049-4.109,183.287,183.287,0,0,0-23.625.685,163.768,163.768,0,0,0-22.6,3.766l-.342-1.37a177.9,177.9,0,0,1,22.94-3.766,188.589,188.589,0,0,1,23.967-.685,266.748,266.748,0,0,1,27.049,4.109,136.461,136.461,0,0,1,26.022,8.217c21.913,6.848,34.581,24.652,46.907,42.114C47.648,621.1,53.811,630,61.343,637.537a35.9,35.9,0,0,0,29.445,12.326c30.815-2.054,57.179-14.038,84.912-27.049,22.94-10.614,46.565-21.913,73.614-26.706,54.44-8.217,73.614,34.581,92.1,76.01,8.217,18.489,16.092,36.293,27.049,49.646a110.694,110.694,0,0,0,17.8,15.75c14.038,9.587,28.761,14.723,44.511,15.065,37.663,3.081,72.929-24.31,81.831-63,3.081-15.065,3.081-30.815,3.081-45.538,0-18.831-.342-38.348,6.163-56.494a268.624,268.624,0,0,1,10.956-27.391c24.994-52.728,53.413-58.891,89.363-66.766,17.462-3.766,36.978-8.217,58.549-18.489,21.228-10.614,31.157-24.652,29.1-41.771-4.109-33.9-53.755-69.163-85.6-76.353-89.021-20.543-162.635,6.848-229.4,39.375-37.32,18.489-59.918,22.94-72.244,14.38-17.462-11.641-15.408-48.277-12.326-103.4,4.793-84.57,11.984-212.624-44.511-362.59l1.37-.342c56.494,149.966,48.962,278.362,44.168,362.932-3.081,54.782-5.136,90.733,11.641,102.032,11.984,8.217,33.9,3.424,71.217-14.723,66.766-32.869,140.722-60.26,230.085-39.717,35.951,8.217,82.516,44.853,86.624,77.722,2.054,17.462-8.217,32.185-29.788,42.8s-41.429,15.065-58.891,18.831c-35.608,7.875-64.027,14.038-88.679,66.081a268.61,268.61,0,0,0-10.956,27.391c-6.163,17.8-6.163,36.293-6.163,56.152,0,15.065,0,30.815-3.081,45.88C504.737,727.243,472.21,754.292,435.917,754.292Z" transform="translate(105.4 55.8)" fill="url(#linear-gradient-19)"/>
            </g>
          </g>
          <g id="Group_3898" data-name="Group 3898" transform="translate(-344.443 -185.232)">
            <g id="Group_3897" data-name="Group 3897">
              <path id="Path_15540" data-name="Path 15540" d="M443.8,749.144h-3.766c-15.75,0-30.473-4.451-44.853-13.7a115.7,115.7,0,0,1-18.831-15.407c-11.3-13.011-20.2-31.157-28.761-48.962-19.859-40.4-40.059-82.173-93.13-72.244-26.364,5.821-49.646,17.8-72.244,29.1-27.391,14.038-53.07,27.049-84.228,30.13a37.049,37.049,0,0,1-30.815-11.641c-7.533-7.19-14.38-16.092-20.543-24.31C33.959,605.341,20.948,587.879-.965,582.058a136.947,136.947,0,0,0-26.022-7.19c-8.217-1.712-17.119-2.4-27.049-3.081a185.785,185.785,0,0,0-23.625,1.37,175.626,175.626,0,0,0-22.6,4.451l-.342-1.37A175.647,175.647,0,0,1-78,571.787a142.757,142.757,0,0,1,23.967-1.37c9.929.685,18.831,1.712,27.391,3.081a136.945,136.945,0,0,1,26.022,7.19c22.255,6.163,35.608,23.625,48.277,40.4,6.505,8.56,13.011,17.119,20.543,24.31,7.875,8.56,18.489,12.668,29.788,11.3,30.815-3.081,56.494-16.092,83.885-30.13,22.6-11.641,45.88-23.282,72.586-29.445,54.1-10.272,74.641,31.842,94.5,72.929,8.9,18.147,17.462,35.608,28.761,48.619a86.9,86.9,0,0,0,18.489,15.065c14.038,9.245,28.761,13.7,44.168,13.7h.685c38.005,1.712,72.244-26.706,79.777-66.081,2.4-15.065,2.054-30.815,1.37-45.88-.685-18.831-1.37-38.348,4.109-56.494a227.218,227.218,0,0,1,10.272-27.733c22.94-53.755,51.358-60.945,86.967-69.847,17.119-4.451,36.636-9.244,57.864-20.543,20.886-11.3,30.13-25.679,27.734-42.8-5.136-33.9-56.152-67.451-87.994-73.614-89.706-17.462-162.635,12.668-227.689,47.592-36.978,19.516-58.891,24.994-71.9,17.119-18.147-10.956-17.119-47.592-15.75-102.717,1.027-84.57,4.109-212.623-57.521-360.193l1.027-.342c61.972,147.912,58.891,275.965,56.837,360.878-1.37,54.782-2.054,91.075,15.408,101.689,12.326,7.533,34.239,2.4,70.532-17.119,65.4-34.924,138.325-65.054,228.373-47.592,36.293,6.848,84.228,41.771,89.021,74.641,2.739,17.462-7.19,32.527-28.418,43.826s-40.744,16.435-58.206,20.886c-35.266,8.9-63.342,16.092-86.282,69.163Q530.936,566.137,526.314,580c-5.478,18.147-4.793,36.636-4.109,56.152.685,15.065,1.37,30.815-1.37,46.223C514.33,721.068,481.119,749.144,443.8,749.144Z" transform="translate(100.6 54.1)" fill="url(#linear-gradient-20)"/>
            </g>
          </g>
          <g id="Group_3900" data-name="Group 3900" transform="translate(-328.693 -179.754)">
            <g id="Group_3899" data-name="Group 3899">
              <path id="Path_15541" data-name="Path 15541" d="M448.056,743.9c-14.723,0-28.761-4.109-42.456-12.326a98.576,98.576,0,0,1-19.174-14.723c-11.984-12.668-21.228-30.473-30.473-47.935-21.228-39.717-42.8-80.8-95.526-68.82-26.364,6.848-49.3,19.516-71.217,31.5-26.706,15.065-52.043,29.1-83.2,33.212a36.355,36.355,0,0,1-31.157-10.614c-7.875-6.848-14.723-15.408-21.57-23.625C39.928,614.131,26.233,597.354,4.32,592.218a174.644,174.644,0,0,0-26.364-6.505,171.381,171.381,0,0,0-27.391-2.054,190.513,190.513,0,0,0-23.625,2.4,180.7,180.7,0,0,0-22.6,5.478l-.342-1.37a180.725,180.725,0,0,1,22.6-5.478,195.9,195.9,0,0,1,23.967-2.4c9.929.342,18.831,1.027,27.391,2.054A118.859,118.859,0,0,1,4.32,590.849c22.255,5.136,36.293,22.255,49.646,38.69,6.505,8.217,13.7,16.777,21.571,23.625a34.45,34.45,0,0,0,30.13,10.272c30.815-4.109,55.809-18.147,82.516-32.869,22.255-12.326,45.2-24.994,71.559-31.842,53.755-11.984,75.668,29.445,96.9,69.505,9.587,17.8,18.489,34.924,30.473,47.592,5.821,5.478,11.984,10.614,18.831,14.38,14.723,8.9,29.445,12.668,45.538,11.984h.685c37.663,0,70.532-29.445,76.7-68.82,2.054-15.408,1.027-30.815-.342-45.88-1.37-18.831-2.739-38.005,2.054-56.837a224.1,224.1,0,0,1,9.245-28.076c21.228-54.44,48.962-62.657,84.57-72.929,17.119-5.136,36.293-10.614,56.837-22.6s29.445-26.706,26.022-43.483c-6.163-33.554-58.549-65.4-90.733-70.19-90.391-14.038-161.95,18.147-225.977,55.467-35.951,20.886-58.206,27.049-71.217,19.516-18.489-10.614-18.831-46.907-19.516-102.032-.342-84.57-1.712-212.623-68.478-358.139l1.027-.685c67.108,145.858,68.478,273.911,69.5,358.824.685,54.782,1.027,91.075,18.831,101,12.668,7.19,34.239,1.027,69.847-19.516,64.369-37.32,136.271-69.847,226.661-55.467,36.636,5.821,85.6,39.032,91.76,71.559,3.424,17.119-5.821,32.869-26.706,44.853-20.543,11.984-40.06,17.8-57.179,22.6-34.924,10.272-62.657,18.489-83.885,72.244a224.092,224.092,0,0,0-9.244,28.076c-4.793,18.147-3.424,36.636-2.054,56.152,1.027,15.065,2.4,30.815.342,46.223-6.505,39.717-39.717,69.847-78.065,69.847h-4.109Z" transform="translate(96 52.5)" fill="url(#linear-gradient-21)"/>
            </g>
          </g>
          <g id="Group_3902" data-name="Group 3902" transform="translate(-311.574 -173.934)">
            <g id="Group_3901" data-name="Group 3901">
              <path id="Path_15542" data-name="Path 15542" d="M455.11,737.722c-13.7,0-26.706-3.424-40.059-10.614a110.253,110.253,0,0,1-19.859-14.038c-12.326-12.326-22.255-29.788-32.185-46.565-22.6-39.032-45.88-79.092-97.923-65.4-26.022,7.532-48.277,21.228-70.19,34.239-26.364,15.75-51.016,30.815-81.831,35.951a35.416,35.416,0,0,1-31.5-9.587c-8.217-6.505-15.408-15.065-22.255-22.94-13.7-15.75-28.076-32.185-50.331-36.636a143.184,143.184,0,0,0-26.364-5.478,229.026,229.026,0,0,0-27.391-1.37A149.167,149.167,0,0,0-68.4,598.369c-7.533,1.712-15.065,3.766-22.255,6.163l-.342-1.37c7.19-2.4,14.723-4.451,22.255-6.163a144.227,144.227,0,0,1,23.625-3.081,225.337,225.337,0,0,1,27.391,1.37,153.4,153.4,0,0,1,26.706,5.478c22.6,4.451,36.978,20.886,51.016,36.978,6.848,7.875,14.038,16.092,22.255,22.94a34.757,34.757,0,0,0,30.473,9.245c30.473-5.136,55.125-20.2,81.489-35.951,21.571-13.011,44.168-26.706,70.532-34.239,53.07-14.038,76.7,26.706,99.293,66.081,10.272,17.462,19.859,34.239,31.842,46.565a95.526,95.526,0,0,0,19.516,13.7c15.065,8.217,30.13,11.641,45.88,10.272,38.005-1.027,70.19-31.842,74.983-71.217,1.37-15.407-.342-30.815-1.712-45.88-2.054-18.831-4.109-38.005,0-56.837A207.043,207.043,0,0,1,542.762,534c19.174-55.125,46.907-64.369,81.831-75.668,16.777-5.478,35.951-11.984,56.152-24.652s28.418-27.733,24.652-44.511c-7.532-33.212-60.945-63.342-93.13-67.108-90.391-11.3-160.923,23.625-223.58,63-35.266,22.255-57.179,29.1-70.532,21.913-18.831-9.929-20.543-46.222-22.94-101.347C291.106,221.057,285.285,93,213.384-50.115l1.027-.685c72.244,143.461,78.065,271.514,82.173,356.427,2.4,54.782,4.109,90.733,22.255,100.32,13.011,6.848,34.239,0,69.163-21.913,63-39.375,133.532-74.641,224.607-63.342,36.636,4.451,86.967,35.951,94.157,68.135,3.766,17.119-4.793,32.869-24.994,45.88-20.2,12.668-39.375,19.174-56.494,24.652-34.581,11.3-61.972,20.543-81.146,74.983a207.045,207.045,0,0,0-8.217,28.418c-4.109,18.489-2.4,36.978,0,56.152,1.712,15.065,3.424,30.473,1.712,45.88-5.136,40.4-37.663,71.559-76.01,72.586A43.647,43.647,0,0,1,455.11,737.722Z" transform="translate(91 50.8)" fill="url(#linear-gradient-22)"/>
            </g>
          </g>
          <g id="Group_3904" data-name="Group 3904" transform="translate(-294.112 -167.771)">
            <g id="Group_3903" data-name="Group 3903">
              <path id="Path_15543" data-name="Path 15543" d="M461.922,730.619c-12.668,0-24.994-3.081-37.663-9.587a114.7,114.7,0,0,1-20.2-13.353c-12.668-11.984-23.282-29.1-33.9-45.538-23.967-38.005-48.619-77.38-100.32-61.972-25.679,8.56-47.592,22.94-68.82,36.636-25.679,16.777-49.989,32.527-80.461,39.032a35.816,35.816,0,0,1-31.842-8.56c-8.217-6.505-15.75-14.38-23.282-22.255-14.38-15.407-29.1-31.157-51.7-34.924a127.921,127.921,0,0,0-26.706-4.451,239.394,239.394,0,0,0-27.391-.342,144.713,144.713,0,0,0-23.282,4.109,162.489,162.489,0,0,0-21.913,6.848l-.342-1.027a167.16,167.16,0,0,1,22.255-6.848,142.29,142.29,0,0,1,23.625-4.109,238.26,238.26,0,0,1,27.391.342,155.185,155.185,0,0,1,26.706,4.451c22.6,3.766,37.663,19.859,52.386,35.266,7.19,7.875,14.723,15.75,22.94,21.913a35.114,35.114,0,0,0,30.815,8.217c30.473-6.163,54.44-21.913,80.119-38.69,21.228-13.7,43.141-28.076,69.163-36.636,52.728-15.75,77.722,23.967,101.689,62.657,10.956,17.119,20.886,33.554,33.554,45.2A104.285,104.285,0,0,0,424.6,720.005c15.408,7.533,30.473,10.614,46.222,8.9,37.663-2.4,68.82-34.239,72.244-73.956,1.027-15.407-1.37-30.815-3.424-45.538-2.739-18.489-5.478-38.005-1.712-56.837a220.739,220.739,0,0,1,7.19-28.761c17.462-55.809,44.511-65.739,79.434-78.749,16.777-6.163,35.608-13.011,55.125-26.706,19.516-13.353,27.391-28.761,22.94-45.2-8.56-32.869-63-60.945-95.526-64.027-90.733-7.532-159.9,29.788-221.183,71.559-34.581,23.282-56.152,30.815-69.5,24.31-19.174-9.245-21.913-45.538-26.706-100.662-6.848-84.57-17.119-212.281-94.157-352.661L196.571-49c77.037,140.722,87.652,268.775,94.5,353.345,4.451,54.44,7.533,90.733,25.679,99.635,13.011,6.163,34.239-1.37,68.478-24.31,61.63-41.771,131.135-79.434,222.21-71.559,36.978,3.081,87.994,32.869,96.554,64.711,4.451,17.119-3.766,33.212-23.625,46.565s-38.69,20.543-55.467,26.706c-34.239,12.668-61.288,22.6-78.407,77.722a220.723,220.723,0,0,0-7.19,28.761c-3.766,18.489-1.027,36.978,1.712,56.152,2.054,15.065,4.451,30.473,3.424,45.88-3.424,40.4-35.266,72.586-73.614,74.983C468.085,730.619,465,730.619,461.922,730.619Z" transform="translate(85.9 49)" fill="url(#linear-gradient-23)"/>
            </g>
          </g>
          <g id="Group_3906" data-name="Group 3906" transform="translate(-275.623 -161.265)">
            <g id="Group_3905" data-name="Group 3905">
              <path id="Path_15544" data-name="Path 15544" d="M468.007,722.933c-11.641,0-23.282-2.739-35.266-8.217A107.221,107.221,0,0,1,412.2,702.047c-13.011-11.3-24.31-28.076-35.266-44.168-24.994-37.32-51.016-75.668-102.374-58.548-25.337,9.587-46.907,24.31-67.451,39.032-24.994,17.462-48.962,34.239-79.092,41.771A36.506,36.506,0,0,1,95.83,672.6c-8.56-6.163-16.435-13.7-23.967-21.228C56.8,636.651,41.39,621.243,19.135,618.5A129.3,129.3,0,0,0-7.571,615.08a251.929,251.929,0,0,0-27.391.685,201.152,201.152,0,0,0-23.282,4.793c-7.19,2.054-14.723,4.794-21.913,7.533l-.342-1.027c7.19-3.081,14.38-5.478,21.913-7.875A201.088,201.088,0,0,1-35.3,614.4a251.914,251.914,0,0,1,27.391-.685,132.151,132.151,0,0,1,27.049,3.766c22.94,2.739,38.348,18.489,53.413,33.212,7.533,7.533,15.065,15.065,23.625,21.228a35.522,35.522,0,0,0,31.157,7.19c30.13-7.19,53.755-23.967,78.749-41.429,20.886-14.38,42.114-29.445,67.793-39.032,52.043-17.8,78.407,21.228,103.744,58.891,11.3,16.777,22.255,32.869,35.266,44.168a93.879,93.879,0,0,0,20.2,12.326c15.408,7.19,30.815,9.587,46.565,7.19,37.663-3.766,67.793-36.636,69.847-76.353.342-15.408-2.4-30.815-5.136-45.538-3.424-18.489-6.848-37.663-3.766-56.494a232.654,232.654,0,0,1,6.163-29.1c15.407-56.152,42.456-67.451,76.353-81.489,16.435-6.848,35.266-14.38,54.44-28.418s26.364-29.445,21.228-46.223c-9.929-32.527-65.054-58.891-97.581-60.6-91.075-4.793-159.211,34.924-218.786,78.749-33.554,24.652-54.782,32.869-68.82,26.706-19.516-8.56-23.625-44.853-30.13-99.635-9.587-84.228-24.31-211.6-106.14-349.237l1.027-.685c81.831,137.983,96.9,265.351,106.483,349.579,6.505,54.44,10.614,90.391,29.1,98.608,13.353,5.821,34.239-2.4,67.451-26.706,60.26-43.826,128.4-83.543,220.156-79.092,36.978,2.054,89.364,29.788,98.608,61.288,5.136,16.777-2.4,33.212-21.913,47.592-19.174,14.038-38.005,21.913-54.44,28.761-33.9,13.7-60.6,24.652-75.668,80.461a215.586,215.586,0,0,0-6.163,28.761c-3.082,18.831.342,36.978,3.766,56.152,2.739,14.723,5.478,30.13,5.136,45.88-2.054,40.4-32.527,73.956-70.875,77.722A73.914,73.914,0,0,1,468.007,722.933Z" transform="translate(80.5 47.1)" fill="url(#linear-gradient-24)"/>
            </g>
          </g>
          <g id="Group_3908" data-name="Group 3908" transform="translate(-257.819 -154.76)">
            <g id="Group_3907" data-name="Group 3907">
              <path id="Path_15545" data-name="Path 15545" d="M474.234,714.219c-10.956,0-21.57-2.4-32.869-6.848a108.732,108.732,0,0,1-21.228-11.984C406.784,684.431,394.8,668,383.159,652.246,356.795,615.953,329.4,578.29,278.73,597.464c-24.994,10.272-45.88,26.022-66.081,41.429C188,657.382,165.057,674.844,134.927,683.4a36.842,36.842,0,0,1-32.527-6.163c-8.9-5.821-16.777-13.353-24.652-20.543-15.407-14.38-31.5-29.1-53.755-31.157A130.573,130.573,0,0,0-2.714,622.8,195.854,195.854,0,0,0-30.1,624.513a185.757,185.757,0,0,0-22.94,5.478,188.171,188.171,0,0,0-21.571,8.56l-.685-1.027a188.189,188.189,0,0,1,21.571-8.56,152.159,152.159,0,0,1,23.282-5.478,266.955,266.955,0,0,1,27.391-1.712,134.017,134.017,0,0,1,27.049,2.739c22.94,2.054,39.032,17.119,54.44,31.5,7.875,7.19,15.75,14.723,24.31,20.2a35.771,35.771,0,0,0,31.5,6.163c29.788-8.217,52.728-25.679,77.38-44.168,20.2-15.407,41.087-31.157,66.423-41.429,51.358-19.516,79.092,18.489,105.8,55.125,11.984,16.435,23.282,31.842,36.636,42.8a95.879,95.879,0,0,0,20.886,11.641c15.75,6.505,31.157,8.56,46.565,5.478,37.663-5.136,66.423-38.69,67.108-78.749,0-15.407-3.424-30.473-6.505-45.2-4.109-18.489-8.217-37.32-5.821-56.494a216.1,216.1,0,0,1,5.136-29.1c13.353-56.837,40.059-68.82,73.614-83.885,16.092-7.19,34.581-15.75,53.413-30.473,18.489-14.723,25.337-30.473,19.859-46.907-10.956-32.185-67.108-56.494-99.635-57.179H590.3c-89.021,0-154.075,41.429-211.254,86.282-32.869,25.679-53.755,34.924-67.793,29.1-19.174-7.875-24.652-43.826-32.869-98.608C265.377,216.727,246.2,90.044,159.921-44.515l1.027-.685c86.624,134.9,105.8,261.927,118.467,345.813,8.217,54.1,13.7,90.048,32.527,97.581,13.7,5.478,33.9-3.766,66.423-29.1,58.891-45.88,125.314-88.336,217.075-86.624,36.978.685,90.048,26.706,100.662,57.864,5.478,16.777-1.37,33.212-20.2,48.277-18.831,14.723-37.32,23.282-53.413,30.473-33.212,15.065-59.576,27.049-72.929,83.2a216.092,216.092,0,0,0-5.136,29.1c-2.4,18.831,1.712,36.978,5.821,56.152,3.081,14.723,6.505,30.13,6.505,45.538-.685,40.744-30.13,74.983-68.135,80.119C483.821,713.534,479.028,714.219,474.234,714.219Z" transform="translate(75.3 45.2)" fill="url(#linear-gradient-25)"/>
            </g>
          </g>
          <g id="Group_3910" data-name="Group 3910" transform="translate(-238.645 -148.254)">
            <g id="Group_3909" data-name="Group 3909">
              <path id="Path_15546" data-name="Path 15546" d="M479.492,704.82c-9.929,0-19.859-2.054-30.473-5.821a106.586,106.586,0,0,1-21.571-10.956c-14.038-10.614-26.364-26.364-38.348-41.771-27.733-35.266-56.152-71.9-106.141-51.016-24.652,11.3-44.853,27.734-64.711,43.483-23.967,19.174-46.223,37.663-76.01,46.907a37.382,37.382,0,0,1-32.869-5.136c-8.9-5.478-17.119-12.668-25.337-19.516-15.75-13.7-32.185-28.076-54.782-29.1A136.577,136.577,0,0,0,2.2,630.179a195.722,195.722,0,0,0-27.049,2.739,154.974,154.974,0,0,0-22.94,6.505c-7.19,2.739-14.38,5.821-21.228,9.245l-.685-1.027c6.848-3.424,14.038-6.505,21.228-9.245a191.956,191.956,0,0,1,22.94-6.505c9.929-1.37,18.831-2.4,27.391-2.739a136.576,136.576,0,0,1,27.049,1.712c22.94,1.37,39.717,15.75,55.467,29.445,7.875,6.848,16.092,14.038,25.337,19.516a35.763,35.763,0,0,0,31.5,5.136c29.445-9.245,52.043-27.734,75.668-46.907,19.516-16.092,40.06-32.527,65.054-43.826,50.674-21.228,79.777,15.75,107.51,51.7,12.668,16.092,24.31,31.157,38.005,41.429a95.848,95.848,0,0,0,21.228,10.956c16.092,6.163,31.157,7.19,46.907,3.766,37.32-6.163,65.054-41.087,64.369-81.146-.685-15.408-4.451-30.473-8.217-45.2-4.793-18.147-9.587-36.978-7.875-56.152a225.263,225.263,0,0,1,4.109-29.445c11.3-57.179,37.663-70.19,70.532-86.624,16.092-7.875,33.9-16.777,52.043-32.185s24.31-31.5,18.147-47.592c-11.984-31.5-67.451-53.413-100.32-53.413H587c-91.418,1.712-156.129,46.222-212.966,93.815-30.473,27.049-51.016,36.636-65.054,31.5-19.859-7.19-26.706-42.8-36.978-97.238-15.75-83.2-39.375-209.2-130.45-341.019l1.027-.685c91.075,132.162,115.043,258.161,130.45,341.362,10.272,53.755,16.777,89.363,35.951,96.211,13.7,4.793,33.9-4.793,65.4-31.5,56.837-47.934,121.89-92.445,213.651-94.157h1.712c36.978,0,89.706,23.967,101.347,54.44,6.163,16.435-.342,33.212-18.489,48.962-18.147,15.408-36.293,24.31-52.385,32.527-32.869,16.092-58.548,29.1-69.847,85.6a220.3,220.3,0,0,0-4.109,29.1c-1.712,18.831,2.739,36.636,7.875,55.809,3.766,14.723,7.533,29.788,8.217,45.2.685,40.744-27.391,76.01-65.4,82.516A76.014,76.014,0,0,1,479.492,704.82Z" transform="translate(69.7 43.3)" fill="url(#linear-gradient-26)"/>
            </g>
          </g>
          <g id="Group_3912" data-name="Group 3912" transform="translate(-218.102 -141.407)">
            <g id="Group_3911" data-name="Group 3911">
              <path id="Path_15547" data-name="Path 15547" d="M483.78,694.836a87.509,87.509,0,0,1-27.733-4.793,106.4,106.4,0,0,1-21.913-10.272c-14.38-9.929-27.391-25.337-39.717-40.4-28.761-34.581-58.891-69.847-107.853-47.592-24.31,11.984-44.168,29.1-63,45.88-23.282,20.2-45.2,39.375-74.3,49.646-10.956,4.109-22.94,2.4-32.869-4.109-9.244-5.136-17.8-11.984-26.022-18.831C73.94,651.01,57.163,637.315,34.566,636.972a139.9,139.9,0,0,0-27.049-.685c-8.56.685-17.462,1.712-27.049,3.424a143.85,143.85,0,0,0-22.6,7.19,166.088,166.088,0,0,0-20.886,9.929L-63.7,655.8a166.071,166.071,0,0,1,20.886-9.929,147.639,147.639,0,0,1,22.94-7.19c9.929-1.712,18.831-3.081,27.391-3.424a139.9,139.9,0,0,1,27.049.685c22.94.342,40.059,14.38,56.494,27.734,8.217,6.505,16.777,13.353,25.679,18.489a36.206,36.206,0,0,0,31.842,3.766c29.1-10.272,51.016-29.445,73.956-49.3,19.174-16.777,39.032-33.9,63.342-45.88C335.868,567.81,366,603.761,395.1,638.342c13.011,15.75,25.337,30.13,39.375,40.059a124.566,124.566,0,0,0,21.571,10.272c16.092,5.478,31.5,6.163,46.907,2.4,36.978-7.533,63.342-43.483,61.288-83.2-1.027-15.407-5.478-30.13-9.929-44.853-5.136-18.147-10.614-36.636-9.587-55.809a220.477,220.477,0,0,1,3.081-29.445c9.245-57.521,34.924-71.559,67.451-89.021,15.75-8.56,33.554-18.147,51.016-33.9,17.462-16.092,23.283-32.185,16.435-47.934-13.011-31.5-70.875-51.7-103.4-49.989-91.075,4.793-154.76,51.358-209.542,101-30.815,28.076-51.016,38.348-65.4,33.9-20.2-6.505-28.076-42.114-40.4-95.869-17.8-82.858-45.88-207.83-141.407-336.568l1.027-.685C219.456,87.438,247.531,212.41,266.02,295.268,278,348.681,285.879,383.947,305.4,390.11c14.038,4.451,33.554-5.821,64.369-33.554,55.125-49.646,118.467-96.211,210.227-101.347,36.978-2.054,91.76,20.2,104.429,50.674,6.848,16.092,1.027,33.212-16.777,49.646-17.8,16.092-35.608,25.679-51.358,34.239-32.185,17.462-57.521,31.157-66.766,87.994a220.478,220.478,0,0,0-3.082,29.445c-1.027,18.831,4.109,36.636,9.587,55.467,4.109,14.38,8.56,29.445,9.929,44.853,2.054,40.4-24.652,77.037-62.315,84.57A81.506,81.506,0,0,1,483.78,694.836Z" transform="translate(63.7 41.3)" fill="url(#linear-gradient-27)"/>
            </g>
          </g>
          <g id="Group_3914" data-name="Group 3914" transform="translate(-198.243 -133.189)">
            <g id="Group_3913" data-name="Group 3913">
              <path id="Path_15548" data-name="Path 15548" d="M142.4,689.7a34.688,34.688,0,0,1-19.174-5.478c-9.244-4.793-18.147-11.3-26.706-17.8-16.435-12.326-33.9-25.337-55.809-25.337H39.681a178.078,178.078,0,0,0-27.049,0c-8.56.685-17.119,2.4-27.049,4.451a171.808,171.808,0,0,0-22.255,7.875,166.8,166.8,0,0,0-20.543,10.614L-57.9,663a166.809,166.809,0,0,1,20.543-10.614,118.346,118.346,0,0,1,22.6-7.875c9.929-2.054,18.489-3.766,27.049-4.451a118.923,118.923,0,0,1,27.049,0h1.027c22.6,0,39.717,13.011,56.494,25.679,8.56,6.505,17.119,13.011,26.364,17.8a35.984,35.984,0,0,0,31.842,2.739c28.761-11.3,49.989-31.157,72.244-52.043,18.489-17.462,37.663-35.266,61.63-48.277,48.962-24.652,80.461,10.272,110.934,43.826,13.7,15.065,26.364,29.445,40.744,38.69a103.82,103.82,0,0,0,21.913,9.587c16.435,4.793,31.842,5.136,46.907.685,36.636-8.9,61.972-45.538,58.549-85.255-1.712-15.408-6.505-30.13-11.3-44.511-5.821-17.8-11.984-36.293-11.641-55.467a216.564,216.564,0,0,1,2.054-29.445c7.19-57.864,32.527-72.586,64.369-91.075,15.408-8.9,32.869-19.174,49.989-35.608s21.913-32.869,14.723-48.619c-14.38-31.157-72.586-49.3-105.113-46.222-91.075,8.217-152.705,56.837-205.776,108.537-30.13,29.1-49.646,40.059-64.369,36.293-20.543-5.821-29.788-41.087-43.483-94.5C235.87,210.7,203.685,86.757,103.365-38.215l1.027-.685c101,123.945,133.189,248.232,154.76,330.405,13.7,53.07,22.94,87.994,42.8,93.472,14.038,3.766,33.554-7.19,63-35.951,53.413-51.7,115.385-100.662,206.8-108.537,36.978-3.424,92.445,17.119,106.141,46.907,7.19,16.092,2.054,33.212-15.065,49.989s-34.581,27.049-49.989,35.951c-31.5,18.489-56.494,32.869-63.684,90.391a216.565,216.565,0,0,0-2.054,29.445c-.342,18.831,5.478,36.636,11.641,55.125,4.793,14.38,9.587,29.1,11.3,44.511,3.424,40.4-21.913,77.722-59.576,86.624a80.669,80.669,0,0,1-47.592-.685,114.925,114.925,0,0,1-22.255-9.587c-14.723-9.587-28.076-24.31-41.087-39.032-30.13-33.212-61.288-67.793-109.564-43.483-23.967,13.011-43.141,30.815-61.288,47.934-22.6,21.228-43.826,40.744-72.586,52.385A39.036,39.036,0,0,1,142.4,689.7Z" transform="translate(57.9 38.9)" fill="url(#linear-gradient-28)"/>
            </g>
          </g>
        </g>
        <g id="Group_3919" data-name="Group 3919" clip-path="url(#clip-path-2)">
          <g id="Group_3916" data-name="Group 3916" transform="translate(125.999 364.644)" opacity="0.7">
            <path id="Path_15549" data-name="Path 15549" d="M59.74,119.168H49.468V129.44h-2.4V119.168H36.8v-2.4H47.072V106.5h2.4v10.272H59.74Z" transform="translate(-36.8 -106.5)" fill="#fff"/>
          </g>
          <g id="Group_3917" data-name="Group 3917" transform="translate(651.224 43.826)" opacity="0.7">
            <path id="Path_15550" data-name="Path 15550" d="M213.14,25.468H202.868V35.74h-2.4V25.468H190.2v-2.4h10.272V12.8h2.4V23.072H213.14Z" transform="translate(-190.2 -12.8)" fill="#e9ffc7"/>
          </g>
          <g id="Group_3918" data-name="Group 3918" transform="translate(1251.774 162.635)" opacity="0.4">
            <path id="Path_15551" data-name="Path 15551" d="M388.54,60.168H378.268V70.44h-2.4V60.168H365.6v-2.4h10.272V47.5h2.4V57.772H388.54Z" transform="translate(-365.6 -47.5)" fill="#fff"/>
          </g>
          <circle id="Ellipse_337" data-name="Ellipse 337" cx="4.109" cy="4.109" r="4.109" transform="translate(73.614 156.814)" fill="#eeff8c" opacity="0.4"/>
          <circle id="Ellipse_338" data-name="Ellipse 338" cx="4.109" cy="4.109" r="4.109" transform="translate(438.258 313.628)" fill="#8cffa3" opacity="0.3"/>
          <path id="Path_15552" data-name="Path 15552" d="M392.754,26.077A16.777,16.777,0,1,1,375.977,9.3,16.8,16.8,0,0,1,392.754,26.077Z" transform="translate(870.661 22.542)" fill="#fff" opacity="0.8"/>
          <circle id="Ellipse_339" data-name="Ellipse 339" cx="4.109" cy="4.109" r="4.109" transform="translate(673.136 632.735)" fill="#ff14e8"/>
        </g>
        <g id="Group_3962" data-name="Group 3962" opacity="0.9" clip-path="url(#clip-path-2)">
          <g id="Group_3921" data-name="Group 3921" transform="translate(690.598 59.857)">
            <g id="Group_3920" data-name="Group 3920">
              <path id="Path_15553" data-name="Path 15553" d="M865.592,489.355c-15.065,0-29.1-3.081-40.06-9.929-15.065-9.929-22.94-26.364-23.282-49.3-.342-20.2,3.766-41.087,7.875-61.288,7.875-40.059,15.407-78.065-8.56-111.961-11.641-16.777-27.049-26.706-45.2-29.1-24.994-3.766-54.44,6.848-82.173,29.1-3.081,2.4-6.163,5.136-9.587,7.875-32.185,26.364-80.461,66.081-116.755,57.864-14.038-3.082-25.337-13.353-33.554-30.473-12.326-26.022-8.217-59.233-3.424-94.157,4.109-30.473,8.217-61.972,0-88.336-19.858-64.369-71.9-96.211-146.542-90.048-57.521,4.793-134.559,32.185-161.607,93.815l-1.027-.685c27.391-61.972,104.429-89.706,162.635-94.5,74.983-6.163,127.711,26.022,147.912,90.733,8.217,26.706,4.109,58.549,0,89.021-4.451,34.581-8.9,67.451,3.424,93.13,7.875,16.435,18.831,26.706,32.527,29.445,35.608,7.875,83.543-31.5,115.385-57.521,3.424-2.739,6.505-5.478,9.587-7.875,28.076-22.6,57.521-33.212,83.2-29.445q28.247,4.109,46.222,29.788c23.967,34.581,16.092,74.641,8.56,112.988-4.109,20.2-7.875,40.744-7.533,60.945.342,22.6,8.217,38.69,22.94,48.277,28.076,18.147,75.668,8.56,110.934-6.505,76.353-32.527,154.76-46.565,221.526-56.494l.342,1.37c-66.423,9.587-144.83,23.967-221.183,56.152C915.923,482.165,889.559,489.355,865.592,489.355Z" transform="translate(-201.7 -17.482)" fill="url(#linear-gradient-29)"/>
            </g>
          </g>
          <g id="Group_3923" data-name="Group 3923" transform="translate(695.734 46.793)">
            <g id="Group_3922" data-name="Group 3922">
              <path id="Path_15554" data-name="Path 15554" d="M853.739,516.066c-18.831,0-34.924-4.109-46.222-12.326-14.723-10.614-21.913-28.076-21.228-51.358.685-20.543,5.821-41.087,10.956-61.288,9.929-40.059,19.516-77.722-2.739-113.673C783.549,259.959,768.826,249,750.68,245.578c-24.994-4.793-54.44,4.109-83.2,24.994-3.081,2.4-6.505,4.793-9.929,7.533-33.212,24.652-83.885,62.315-119.494,52.386-14.038-3.766-24.652-14.723-31.842-32.527-10.956-27.049-5.136-59.918,1.37-94.842,5.478-30.473,11.3-62.315,4.451-89.363-16.777-65.739-66.766-101-141.749-98.608-57.864,1.712-135.928,25.679-166.059,86.282l-1.027-.685C233.673,39.46,312.422,15.835,370.286,13.781c75.326-2.4,126,32.869,142.776,99.293,6.848,27.391,1.027,59.233-4.451,89.706-6.505,34.581-12.326,67.451-1.37,94.157,7.19,17.119,17.462,27.734,31.157,31.5,34.924,9.929,84.912-27.391,118.124-52.043,3.424-2.739,6.848-5.136,10.272-7.533,29.1-21.228,59.233-30.13,84.228-25.337,18.489,3.766,33.554,14.723,44.51,32.527,22.255,36.293,12.326,76.01,2.739,114.358-5.136,20.2-10.272,40.744-10.956,60.945q-1.027,34.41,20.543,50.331c27.049,19.516,74.983,12.326,110.592-1.027,77.722-28.761,156.814-39.032,223.922-45.2v1.37c-67.108,6.163-145.858,16.435-223.58,45.2C895.51,511.615,872.912,516.066,853.739,516.066Z" transform="translate(-203.2 -13.667)" fill="url(#linear-gradient-30)"/>
            </g>
          </g>
          <g id="Group_3925" data-name="Group 3925" transform="translate(701.897 34.173)">
            <g id="Group_3924" data-name="Group 3924">
              <path id="Path_15555" data-name="Path 15555" d="M840.131,542.119c-21.913,0-40.06-5.136-52.385-15.065-14.38-11.641-20.543-29.445-18.489-53.07,1.712-20.543,8.217-41.429,14.038-61.288,11.984-39.717,23.282-77.38,3.424-114.7-9.929-18.489-23.967-30.13-42.114-34.581-24.652-6.163-54.44,1.37-84.228,20.886-3.424,2.054-6.848,4.451-10.614,6.848-34.581,23.282-86.624,58.206-121.891,46.565-13.7-4.451-23.967-16.092-30.13-34.239-9.587-27.733-1.712-60.945,6.505-95.869,7.19-30.473,14.723-61.972,9.245-89.706C500.482,50.448,451.862,12.786,377.222,11.074,319.358,9.7,240.266,29.563,206.712,89.138L205,88.8c33.554-60.26,113.673-80.119,171.537-78.749,75.326,1.712,124.287,39.717,137.64,107.852,5.478,28.076-2.054,59.576-9.245,90.391-8.217,34.581-16.092,67.451-6.505,95.184,6.163,17.8,16.092,29.1,29.445,33.554,34.581,11.641,86.282-23.282,120.521-46.223,3.766-2.4,7.19-4.793,10.614-6.848,30.13-19.859,60.6-27.391,85.255-21.228,18.489,4.793,32.869,16.435,43.141,35.266,20.2,37.663,8.217,77.38-3.081,115.727-6.163,19.859-12.326,40.744-14.038,60.945-2.054,23.282,4.109,40.744,18.147,52.043C814.452,547.6,862.387,542.8,898.68,531.5c79.434-24.994,158.868-31.157,225.977-33.554v1.37c-67.108,2.739-146.543,8.9-225.634,33.554C877.794,539.037,857.593,542.119,840.131,542.119Z" transform="translate(-205 -9.981)" fill="url(#linear-gradient-31)"/>
            </g>
          </g>
          <g id="Group_3927" data-name="Group 3927" transform="translate(709.087 21.641)">
            <g id="Group_3926" data-name="Group 3926">
              <path id="Path_15556" data-name="Path 15556" d="M825.454,568.11c-25.337,0-45.88-6.163-59.233-17.8-14.038-12.326-19.516-30.815-16.092-54.782,2.739-20.543,10.272-41.087,17.462-60.945,14.038-39.717,27.391-77.037,9.244-115.385-8.9-19.174-22.6-31.5-40.4-36.978-24.31-7.533-54.44-1.37-85.255,16.777-3.424,2.054-7.19,4.109-10.956,6.505-35.608,21.571-89.364,54.1-123.945,40.4-13.7-5.478-23.282-17.462-28.761-36.293-8.217-28.761,1.37-61.63,11.3-96.211,8.9-30.473,17.8-61.972,14.038-90.048C503.267,54.869,457.044,13.782,382.4,8.3,324.882,4.2,244.42,19.945,208.127,78.151l-1.027-.685C243.736,18.576,324.539,2.826,382.4,6.935c75.668,5.136,122.233,46.222,131.82,115.727,4.109,28.418-5.136,60.26-14.038,90.733-9.929,34.581-19.516,67.108-11.3,95.527,5.136,18.489,14.723,30.473,27.734,35.608,33.9,13.353,87.309-19.174,122.575-40.4,3.766-2.4,7.533-4.451,10.956-6.505,31.157-18.489,61.63-24.31,86.282-16.777,18.147,5.478,32.185,18.489,41.429,37.663,18.147,39.032,4.109,78.407-9.245,116.412-7.19,19.859-14.38,40.4-17.119,60.945-3.424,23.283,2.054,41.429,15.75,53.413,24.994,22.255,72.929,19.859,109.564,10.272,80.461-20.886,160.238-22.94,227.689-21.913v1.37c-67.451-.685-146.885,1.027-227.346,21.913C858.666,565.713,841.2,568.11,825.454,568.11Z" transform="translate(-207.1 -6.321)" fill="url(#linear-gradient-32)"/>
            </g>
          </g>
          <g id="Group_3929" data-name="Group 3929" transform="translate(717.647 7.879)">
            <g id="Group_3928" data-name="Group 3928">
              <path id="Path_15557" data-name="Path 15557" d="M810.15,594.287c-29.1,0-52.728-7.19-66.766-21.228-13.7-13.353-18.146-32.185-13.353-56.152,4.109-20.543,12.326-41.087,20.543-60.6,16.092-39.032,31.5-76.01,15.407-116.07-7.875-19.859-20.886-33.212-38.69-39.717-23.625-8.56-54.1-4.109-85.6,12.326-3.424,1.712-7.19,3.766-11.3,5.821-36.636,19.859-92.1,49.646-125.657,34.239-13.353-6.163-22.6-18.831-26.706-38.348-6.505-29.445,4.451-61.972,16.435-96.554,10.272-30.13,21.228-61.63,18.489-90.048C506.451,58.791,462.625,14.965,388.327,5.378,331.148-1.812,250,9.829,210.627,66.666l-1.027-.685C249.317,8.46,330.806-3.181,388.669,4.351,463.31,13.938,508.163,58.106,513.984,128.3c2.4,29.1-8.217,60.26-18.831,90.733-11.641,34.239-22.94,66.766-16.435,95.869,4.451,18.831,13.011,31.5,26.022,37.32,33.212,15.065,87.994-14.723,124.63-34.239,3.766-2.054,7.533-4.109,11.3-5.821,31.842-16.777,62.657-21.228,86.624-12.668,18.146,6.505,31.5,20.2,39.375,40.4,16.092,40.4,0,79.434-15.407,117.1-8.217,19.516-16.435,40.06-20.543,60.6-4.451,23.625,0,42.114,13.011,55.125,20.2,19.859,60.945,26.022,108.88,16.092,81.489-16.777,161.265-14.723,228.373-10.272v1.37c-67.108-4.451-146.885-6.505-228.031,10.272A240.617,240.617,0,0,1,810.15,594.287Z" transform="translate(-209.6 -2.301)" fill="url(#linear-gradient-33)"/>
            </g>
          </g>
          <g id="Group_3931" data-name="Group 3931" transform="translate(727.234 -5.46)">
            <g id="Group_3930" data-name="Group 3930">
              <path id="Path_15558" data-name="Path 15558" d="M793.776,619.823c-33.212,0-60.26-8.56-74.983-24.652-13.011-14.038-16.777-33.554-10.614-57.864,5.136-20.543,14.38-40.744,23.625-60.26,18.147-38.69,35.266-74.983,21.57-116.07-6.848-20.543-19.516-34.581-36.978-42.114-23.282-9.929-53.755-6.848-85.94,8.217-3.424,1.712-7.533,3.424-11.3,5.478-37.663,17.8-94.157,45.2-127.026,28.076-13.353-6.848-21.57-20.2-24.994-40.059-5.136-29.788,7.875-62.315,21.57-96.554,11.984-29.788,24.31-60.945,23.282-90.048-2.4-70.532-44.168-117.1-117.782-130.45C337.03-7.091,255.541.442,213.427,55.909l-1.027-.685C255.2-.586,337.03-8.118,394.209,2.5c74.3,13.7,116.412,60.26,118.809,131.82,1.027,29.445-11.3,60.26-23.282,90.391-13.7,33.9-26.364,66.081-21.228,95.869,3.424,19.516,11.641,32.527,24.31,39.032,32.185,16.777,88.679-10.272,126-28.076,4.109-2.054,7.875-3.766,11.3-5.478,32.527-15.408,63.684-18.147,86.967-8.217,17.8,7.533,30.473,21.913,37.663,42.8,14.038,41.429-4.109,80.119-21.57,117.1-9.245,19.516-18.489,39.375-23.625,59.918-5.821,23.625-2.4,42.8,10.614,56.494,19.174,20.886,59.576,29.1,107.51,21.571,82.173-12.668,161.608-6.163,228.716,1.712v1.37c-66.766-7.875-146.2-14.38-228.373-1.712A205.78,205.78,0,0,1,793.776,619.823Z" transform="translate(-212.4 1.595)" fill="url(#linear-gradient-34)"/>
            </g>
          </g>
          <g id="Group_3933" data-name="Group 3933" transform="translate(737.848 -18.977)">
            <g id="Group_3932" data-name="Group 3932">
              <path id="Path_15559" data-name="Path 15559" d="M1027.989,658.153c-66.423-11.641-145.173-22.255-227.689-13.7-48.619,5.136-88.679-5.478-107.168-27.734-12.326-15.065-15.065-34.924-7.875-59.233,6.163-20.543,16.435-40.4,26.706-59.576,20.2-38.005,39.375-73.956,27.391-116.07-5.821-21.228-17.462-36.293-34.924-44.511-22.6-10.956-53.07-9.587-85.94,3.766-3.766,1.37-7.532,3.081-11.641,4.793C568.5,361.986,510.639,386.3,478.8,367.807c-13.011-7.533-20.543-21.571-22.94-41.771-3.424-30.473,10.956-62.315,26.364-96.211,13.353-29.445,27.391-60.26,28.076-89.363C511.666,68.9,472.292,19.94,399.705,2.478c-56.152-13.7-137.983-10.272-183.178,43.141l-1.027-.685c45.538-54.1,127.711-57.179,184.548-43.826,73.271,17.8,112.988,67.108,111.619,139.01-.685,29.788-14.723,60.26-28.076,90.048-15.407,33.554-29.788,65.4-26.364,95.526q3.6,29.788,22.6,41.087c31.5,18.489,89.021-5.821,127.026-21.913,4.109-1.712,8.217-3.424,11.641-4.793,33.212-13.7,64.027-15.065,86.967-3.766,17.462,8.56,29.445,23.967,35.608,45.538,11.984,42.8-8.217,80.461-27.734,117.1-10.272,19.174-20.543,38.69-26.706,59.233-7.19,23.625-4.451,43.141,7.533,57.864,18.147,21.913,57.864,32.185,106.141,27.391,82.858-8.56,161.95,2.4,228.031,13.7Z" transform="translate(-215.5 5.542)" fill="url(#linear-gradient-35)"/>
            </g>
          </g>
          <g id="Group_3935" data-name="Group 3935" transform="translate(748.462 -32.519)">
            <g id="Group_3934" data-name="Group 3934">
              <path id="Path_15560" data-name="Path 15560" d="M998.9,696.158c-65.739-15.065-143.8-30.13-226.661-26.022-48.619,2.4-87.994-9.929-105.456-33.212-11.984-15.75-13.7-36.293-5.136-60.26,7.19-20.543,18.831-39.717,29.788-58.549,22.255-37.32,43.141-72.586,33.554-115.727-4.793-21.913-15.75-37.663-32.869-46.907-21.913-12.326-52.385-12.326-85.94-.685-3.766,1.37-7.875,2.739-11.984,4.451-39.032,14.038-97.923,35.608-129.081,15.408-12.668-8.217-19.858-22.94-20.886-43.483-2.054-30.815,14.38-62.315,31.5-95.526,15.065-29.1,30.473-59.233,32.527-88.679,5.136-71.9-31.5-123.6-103.4-144.83-55.467-16.777-137.3-17.8-185.232,33.9L218.6,35C266.877-17.038,349.393-16.011,405.2.766c72.244,21.571,109.222,73.614,104.086,146.2-2.054,29.788-17.8,60.26-32.869,89.363-17.119,33.212-33.212,64.369-31.157,94.842,1.37,20.2,8.217,34.581,20.543,42.456,30.473,19.859,89.021-1.37,127.711-15.408,4.109-1.37,8.217-3.082,11.984-4.451,33.9-11.984,64.712-11.641,86.967.685,17.119,9.587,28.418,25.679,33.212,47.934,9.587,43.826-12.326,80.8-33.554,116.755-10.956,18.831-22.6,38.005-29.788,58.206-8.217,23.625-6.848,43.483,4.794,59.233,17.119,22.94,56.152,35.266,104.086,32.869,83.2-4.109,161.608,10.956,227,26.022Z" transform="translate(-218.6 9.498)" fill="url(#linear-gradient-36)"/>
            </g>
          </g>
          <g id="Group_3937" data-name="Group 3937" transform="translate(761.815 -47.586)">
            <g id="Group_3936" data-name="Group 3936">
              <path id="Path_15561" data-name="Path 15561" d="M966.511,734.558C901.8,715.726,824.42,696.553,741.562,696.21c-48.277,0-86.967-14.723-103.4-39.032-11.3-16.777-11.984-37.32-2.054-61.288,8.217-20.2,20.886-39.032,32.869-57.521,23.967-36.293,46.907-70.874,39.375-115.043-3.766-22.255-14.038-39.032-30.473-49.3-21.228-13.353-51.7-15.065-85.255-5.136-3.766,1.027-7.875,2.4-12.326,3.766-39.717,12.326-99.293,30.815-129.423,8.9-12.326-8.9-18.831-24.31-18.831-45.2-.342-31.157,17.462-61.972,36.293-94.842,16.435-28.418,33.554-58.206,37.32-87.994,8.9-72.244-24.994-126.342-95.526-151.678-54.44-19.859-135.928-24.994-186.6,24.31L222.5,25.128C273.516-24.861,355.689-19.382,410.472.476,481.688,26.155,515.927,80.6,507.025,153.524c-3.766,30.13-20.886,59.576-37.32,88.336-18.831,32.527-36.636,63-36.293,94.157.342,20.543,6.505,35.608,18.489,44.168,29.445,21.57,89.021,3.081,128.053-8.9,4.451-1.37,8.217-2.739,12.326-3.766,34.239-10.272,64.712-8.217,86.624,5.136,16.777,10.614,27.391,27.391,31.157,50.331,7.19,44.511-16.435,80.8-39.717,115.727-11.984,18.147-24.652,37.32-32.869,57.179-9.587,23.625-8.9,43.826,2.054,60.26,16.092,23.967,54.1,38.348,102.032,38.348,83.2.342,160.58,19.516,225.634,38.347Z" transform="translate(-222.5 13.898)" fill="url(#linear-gradient-37)"/>
            </g>
          </g>
          <g id="Group_3939" data-name="Group 3939" transform="translate(775.511 -60.729)">
            <g id="Group_3938" data-name="Group 3938">
              <path id="Path_15562" data-name="Path 15562" d="M932.164,770.911c-63.684-22.255-140.037-45.88-222.9-50.331-47.934-2.739-85.94-19.174-101-44.511-10.614-17.462-10.272-38.348,1.027-62.315,9.245-19.859,22.6-38.348,35.951-56.152,26.022-35.608,50.331-69.163,45.538-114.015-2.4-22.94-11.984-40.4-28.076-51.7-20.543-14.38-50.673-17.8-84.912-9.244q-5.649,1.541-12.326,3.081c-40.06,10.272-100.662,25.679-129.423,2.054-11.984-9.587-17.462-25.337-16.777-46.907,1.37-31.5,20.886-61.63,41.429-93.472,18.147-28.076,36.636-56.837,41.771-86.624C515.134,88.187,483.977,32.035,414.814,2.59,361.4-20.008,280.255-29.937,227.185,17.313l-.685-1.027C279.913-31.306,361.744-21.72,415.5,1.22,485,31.008,516.5,87.5,503.835,160.774c-5.136,30.13-23.967,59.233-42.114,87.309-20.543,31.842-39.717,61.63-41.087,93.13-1.027,20.886,4.451,36.293,16.435,45.88,28.418,22.94,88.336,7.533,128.4-2.4q6.677-1.541,12.326-3.082c34.581-8.56,65.054-5.136,85.94,9.587q24.652,17.462,28.761,52.386c5.136,45.2-20.886,80.461-45.88,114.7C633.6,576.091,620.247,594.58,611,614.439c-10.956,23.625-11.3,44.168-1.027,60.945,14.723,24.652,52.043,41.087,99.978,43.826,83.2,4.451,159.553,28.076,223.237,50.674Z" transform="translate(-226.5 17.737)" fill="url(#linear-gradient-38)"/>
            </g>
          </g>
          <g id="Group_3941" data-name="Group 3941" transform="translate(790.233 -73.545)">
            <g id="Group_3940" data-name="Group 3940">
              <path id="Path_15563" data-name="Path 15563" d="M895.719,805.663c-62.315-26.022-137.3-53.755-219.814-62.657-47.592-5.136-84.57-23.967-98.266-49.989-9.587-18.147-8.217-39.375,4.109-63,10.272-19.516,24.652-37.663,38.69-54.782,27.733-34.581,54.1-67.108,51.358-112.3-1.37-23.282-9.929-41.429-25.679-53.755-19.859-15.408-49.646-20.2-83.885-13.7-3.766.685-8.217,1.712-12.326,2.4-40.4,8.217-101.347,20.543-129.081-4.451-11.641-10.272-16.435-26.706-14.38-48.277,3.081-31.842,23.967-61.288,46.223-92.1,19.516-27.391,39.717-55.467,46.222-85.255C515.325,95.206,487.249,37,419.8,3.788c-52.043-25.679-132.5-40.06-188.314,5.136L230.8,7.9C286.952-37.3,367.755-23.26,420.483,2.761c68.135,33.554,96.211,92.445,79.777,165.374-6.848,30.13-27.049,58.206-46.565,85.6-22.255,30.815-43.141,60.26-45.88,91.76-2.054,21.228,2.739,36.978,14.038,47.25,27.049,24.31,87.994,12.326,128.053,4.109,4.451-1.027,8.56-1.712,12.668-2.4,34.581-6.505,64.711-1.712,84.912,14.038,16.092,12.326,24.994,30.815,26.364,54.782,2.739,45.88-24.994,80.119-51.7,113.331-14.038,17.119-28.418,35.266-38.69,54.782-12.326,23.282-13.7,44.168-4.109,61.972,13.7,25.679,49.989,44.168,97.238,49.3,82.858,8.9,157.841,36.636,220.156,62.657Z" transform="translate(-230.8 21.48)" fill="url(#linear-gradient-39)"/>
            </g>
          </g>
          <g id="Group_3943" data-name="Group 3943" transform="translate(804.271 -87.906)">
            <g id="Group_3942" data-name="Group 3942">
              <path id="Path_15564" data-name="Path 15564" d="M858.39,840.139C797.445,810.693,724.174,778.851,642,765.156c-47.25-7.875-82.858-28.418-95.526-55.125-8.9-18.831-6.505-40.4,7.19-63.684,11.3-19.174,26.706-36.636,41.429-53.413,29.445-33.212,57.521-64.711,57.179-110.592,0-23.967-7.875-42.456-23.282-55.809-18.831-16.435-48.277-22.94-82.858-18.147-4.109.685-8.217,1.027-12.669,1.712-40.744,6.163-102.032,15.065-128.738-10.956-11.3-11.3-15.408-27.733-11.984-49.646,4.451-31.842,27.049-60.26,51.016-90.733,20.886-26.364,42.456-53.755,50.673-83.543,20.2-72.244-4.793-132.5-70.532-169.825C373.225-23.366,293.448-41.855,235.585.6L234.9-.426c58.206-42.8,138.667-24.31,189.683,4.793C490.664,42.03,516,102.633,495.8,175.562c-8.217,30.13-30.13,57.521-51.016,83.885C421.16,289.578,398.562,318,394.111,349.5c-3.081,21.228,1.027,37.663,11.641,48.619,26.022,26.022,86.967,16.777,127.369,10.614,4.451-.685,8.56-1.37,12.668-1.712,34.924-4.793,64.711,1.712,83.885,18.147C645.082,438.517,653.3,457.69,653.3,482c.343,46.565-29.1,79.434-57.521,111.619-14.723,16.777-30.13,33.9-41.429,53.07C541,669.629,538.6,690.515,547.159,709c12.326,26.364,47.592,46.907,94.5,54.44C723.831,776.8,797.1,808.981,858.39,838.427Z" transform="translate(-234.9 25.674)" fill="url(#linear-gradient-40)"/>
            </g>
          </g>
          <g id="Group_3945" data-name="Group 3945" transform="translate(821.391 -100.779)">
            <g id="Group_3944" data-name="Group 3944">
              <path id="Path_15565" data-name="Path 15565" d="M817.852,872.535c-59.233-32.869-130.793-69.162-211.939-86.967-46.565-10.272-81.146-32.869-92.445-60.6-7.875-19.516-4.451-41.087,10.614-64.027,12.326-18.831,28.418-35.608,44.168-51.7,31.157-31.842,60.6-62.315,63-108.537,1.027-24.31-5.821-43.483-20.543-57.864-18.147-17.462-46.907-25.337-81.489-22.255-4.109.342-8.217.685-12.668,1.027-40.744,4.109-102.374,9.929-127.711-17.8-10.614-11.984-14.038-29.1-9.587-51.016,6.163-31.842,30.13-59.576,55.467-88.679,22.255-25.679,45.2-52.043,55.125-81.489,23.967-71.9,2.054-133.874-61.63-174.961C379.252-24.182,300.5-46.779,240.585-7.062L239.9-8.089c60.6-40.059,139.695-17.119,189,14.723,64.027,41.429,86.282,104.086,61.972,176.33-9.929,29.788-32.869,56.494-55.125,82.173-25.337,29.1-48.962,56.494-55.125,87.994-4.109,21.57-1.027,38.348,9.245,49.646,24.652,27.391,85.94,21.228,126.684,17.462,4.451-.342,8.56-.685,12.668-1.027,34.924-3.082,64.027,5.136,82.516,22.6,15.065,14.38,21.913,34.239,20.886,58.891-2.054,46.907-33.212,78.749-63.342,109.564-15.75,16.092-31.842,32.527-44.168,51.358-14.723,22.6-18.147,43.483-10.272,63,10.957,27.391,45.2,49.646,91.418,59.576C687.4,802,759.3,838.3,818.538,871.165Z" transform="translate(-239.9 29.434)" fill="url(#linear-gradient-41)"/>
            </g>
          </g>
          <g id="Group_3947" data-name="Group 3947" transform="translate(838.853 -113.056)">
            <g id="Group_3946" data-name="Group 3946">
              <path id="Path_15566" data-name="Path 15566" d="M776.045,903.482c-57.521-36.293-127.026-76.7-207.145-98.95-45.88-12.668-79.092-37.32-89.021-65.739-7.19-20.2-2.4-41.771,13.7-64.369,13.353-18.489,30.473-34.239,46.907-49.646,32.869-30.473,64.027-59.576,68.478-106.141,2.4-24.652-3.424-44.511-17.8-59.576-17.119-18.147-45.538-27.733-79.777-26.364-4.109,0-8.217.342-12.668.685-40.744,1.712-102.717,4.451-126.341-24.652-10.272-12.668-12.668-30.13-7.19-52.043,7.875-31.842,33.212-58.548,60.26-86.624,23.625-24.652,47.934-49.989,59.233-79.434,27.734-71.217,9.245-134.9-52.385-179.754-47.25-34.581-124.63-61.972-186.6-24.994L245-15.148c62.315-37.32,140.379-9.929,187.972,24.994,61.972,45.2,80.461,109.564,52.728,181.124-11.3,29.445-35.951,55.125-59.576,79.777-26.706,28.076-52.043,54.44-59.918,85.94-5.478,21.571-3.081,38.69,6.848,51.016,23.282,28.418,84.57,25.679,125.314,23.967,4.451-.342,8.9-.342,12.668-.685,34.581-1.37,63.342,8.217,80.8,27.049,14.38,15.408,20.543,35.608,18.147,60.6-4.793,47.25-37.32,77.722-68.82,107.168-16.435,15.407-33.554,31.157-46.565,49.3-16.092,21.913-20.543,43.141-13.7,63,9.929,28.076,42.8,52.043,87.994,64.712,80.119,22.255,149.966,62.657,207.488,98.95Z" transform="translate(-245 33.02)" fill="url(#linear-gradient-42)"/>
            </g>
          </g>
          <g id="Group_3949" data-name="Group 3949" transform="translate(856.657 -125.192)">
            <g id="Group_3948" data-name="Group 3948">
              <path id="Path_15567" data-name="Path 15567" d="M732.626,932.616C677.159,892.9,609.708,848.731,530.959,822.025c-44.853-15.408-76.7-41.771-85.255-70.875-6.163-20.886-.342-42.456,17.119-64.369,14.038-17.8,32.185-32.869,49.3-47.592,34.581-29.1,67.108-56.837,73.956-103.744,3.766-24.652-1.37-45.538-14.723-61.288-16.092-19.174-43.826-30.13-78.065-30.815H480.628C439.884,443,378.254,442.658,356,412.185c-9.587-13.353-11.3-31.157-4.451-53.07,9.587-31.842,36.293-57.179,64.711-84.228,24.652-23.625,50.331-47.934,63.342-77.038,31.5-70.19,16.092-135.586-42.8-184.205C390.58-23.334,314.569-54.833,250.885-20.937l-.685-1.027C314.569-56.2,390.922-24.361,436.8,13.3c59.233,48.619,74.641,114.7,43.141,185.575-13.011,29.1-38.69,53.755-63.684,77.38C388.183,302.963,361.476,328.3,351.89,359.8c-6.505,21.571-5.136,39.032,4.451,52.043,21.913,29.788,83.2,30.473,123.6,30.473h12.668c34.581.685,62.657,11.641,79.092,31.157,13.7,16.092,18.831,37.663,15.065,62.315-7.19,47.25-41.429,76.353-74.3,104.429-17.119,14.723-35.266,29.788-49.3,47.592-17.119,21.57-22.6,42.8-16.777,63,8.217,28.761,40.06,54.782,84.57,69.847,79.092,26.706,146.542,71.217,202.009,110.934Z" transform="translate(-250.2 36.564)" fill="url(#linear-gradient-43)"/>
            </g>
          </g>
          <g id="Group_3951" data-name="Group 3951" transform="translate(874.804 -137.112)">
            <g id="Group_3950" data-name="Group 3950">
              <path id="Path_15568" data-name="Path 15568" d="M687.937,960.229C634.524,917.088,569.471,869.154,492.091,838c-43.826-17.8-74.3-45.88-81.488-75.668-5.136-21.57,1.712-43.141,20.2-64.027,15.065-17.119,33.9-31.5,51.7-45.538,35.951-27.734,69.847-53.755,79.434-100.662,5.136-24.994,1.027-46.222-11.641-63-15.065-19.859-42.456-32.527-76.353-34.924-4.109-.342-8.217-.685-12.668-.685-40.744-2.4-102.032-6.163-122.918-37.663-9.245-13.7-9.929-32.185-2.054-54.1,11.3-31.5,39.375-55.809,68.82-81.489,26.022-22.6,52.728-45.88,67.108-74.3,34.924-69.163,23.282-135.928-33.212-187.972-43.483-40.06-117.439-76.01-182.836-45.2l-.685-1.027c66.081-31.157,140.722,4.793,184.548,45.2,56.837,52.385,68.478,119.494,33.212,189.341-14.38,28.761-41.429,52.043-67.451,74.641-29.445,25.679-57.521,49.646-68.478,80.8-7.533,21.57-7.19,39.375,1.712,52.728,20.543,31.157,81.489,34.924,121.89,37.32,4.451.342,8.9.685,12.668.685,34.239,2.4,61.63,15.065,77.038,35.266,13.011,17.119,17.119,39.032,11.984,64.027-9.587,47.25-45.2,74.983-79.777,101.347-18.147,13.7-36.636,28.076-51.7,45.2-18.147,20.886-24.994,42.114-19.859,63,6.848,29.1,36.978,57.179,80.8,74.641,77.38,31.157,142.434,79.434,195.847,122.575Z" transform="translate(-255.5 40.046)" fill="url(#linear-gradient-44)"/>
            </g>
          </g>
          <g id="Group_3953" data-name="Group 3953" transform="translate(895.004 -147.63)">
            <g id="Group_3952" data-name="Group 3952">
              <path id="Path_15569" data-name="Path 15569" d="M640.767,985.479c-51.016-46.222-113.331-98.266-189-133.874-42.8-20.2-71.9-50.331-77.38-80.461-4.109-21.913,3.766-43.483,23.625-63.684,16.092-16.435,35.266-30.13,54.1-43.141,37.32-26.022,72.587-50.331,84.57-97.238,6.505-24.994,3.424-46.907-8.56-64.369-14.038-20.886-40.4-34.581-73.956-38.69-4.109-.342-8.217-1.027-12.668-1.37-40.4-4.793-101.347-11.641-120.521-44.511-8.56-14.38-8.217-32.869.685-54.782,13.011-31.157,42.114-54.1,72.929-78.407,27.049-21.228,55.125-43.483,70.875-71.217,38.69-68.135,30.473-135.928-23.282-191.4-41.429-42.8-113.331-82.858-180.439-55.125l-.342-1.027c67.451-28.076,140.037,12.326,181.809,55.467,54.1,55.809,62.315,124.287,23.282,192.765-16.092,28.076-44.168,50.331-71.217,71.9-30.815,24.31-59.918,47.25-72.586,78.065-8.9,21.571-9.245,39.375-.685,53.755,18.831,32.185,79.434,39.032,119.494,43.826,4.451.342,8.56,1.027,12.668,1.37,33.9,4.109,60.6,18.147,74.983,39.375,12.326,17.8,15.065,40.4,8.9,65.4-11.984,47.25-49.3,72.929-84.912,97.923-18.831,13.011-38.005,26.364-54.1,42.8-19.516,20.2-27.049,41.087-23.282,62.657,5.478,29.788,34.239,59.576,76.7,79.434,75.668,35.608,138.325,87.652,189.341,133.874Z" transform="translate(-261.4 43.118)" fill="url(#linear-gradient-45)"/>
            </g>
          </g>
          <g id="Group_3955" data-name="Group 3955" transform="translate(915.205 -159.059)">
            <g id="Group_3954" data-name="Group 3954">
              <path id="Path_15570" data-name="Path 15570" d="M592.912,1009.662c-48.619-49.3-108.195-105.113-181.809-144.831-41.771-22.6-68.82-54.44-72.929-85.255-3.081-22.255,6.163-43.826,27.049-63.342,16.777-15.75,36.978-28.418,56.152-40.4,38.69-24.31,74.983-46.907,89.364-93.815,7.533-24.652,5.821-47.592-5.478-65.739-13.011-21.571-38.69-36.636-71.9-42.8-3.766-.685-8.217-1.37-12.669-2.054-40.059-6.848-100.32-17.119-117.782-51.016-7.875-15.065-6.848-33.9,3.424-55.467,14.38-30.815,44.853-52.385,77.038-75.326,28.076-20.2,57.179-40.744,74.641-68.135C500.467,154.717,495.673,85.9,445,27.006,405.967-18.19,336.12-62.7,267.642-38.048l-.342-1.37c68.82-24.652,139.352,19.859,178.727,65.4,51.016,59.233,55.809,128.738,13.353,195.846-17.462,27.734-46.565,48.619-74.983,68.478-32.185,22.94-62.315,44.511-76.7,74.983-9.929,21.228-11.3,39.717-3.424,54.44,17.462,33.212,77.38,43.483,117.1,50.331,4.451.685,8.56,1.37,12.668,2.054,33.554,6.163,59.233,21.571,72.586,43.483,11.3,18.831,13.353,41.771,5.478,66.766-14.38,47.25-53.07,71.217-90.048,94.5-19.516,11.984-39.375,24.652-56.152,40.4-20.543,19.174-29.445,40.059-26.364,61.972,4.109,30.473,30.815,61.972,72.244,84.228,73.614,40.06,133.532,95.869,182.151,145.173Z" transform="translate(-267.3 46.456)" fill="url(#linear-gradient-46)"/>
            </g>
          </g>
          <g id="Group_3957" data-name="Group 3957" transform="translate(935.748 -168.78)">
            <g id="Group_3956" data-name="Group 3956">
              <path id="Path_15571" data-name="Path 15571" d="M543.787,1030.925c-45.88-52.385-102.374-111.619-173.933-155.787-40.4-24.994-66.081-58.549-68.478-89.706-1.712-22.94,8.217-43.826,30.13-62.315,17.8-15.065,38.348-26.706,58.206-38.005,39.717-22.255,77.38-43.483,94.157-89.706,8.9-24.652,8.217-47.934-2.054-67.108-11.984-22.255-36.636-39.032-69.163-46.565-3.766-1.027-8.217-1.712-12.326-2.739-39.375-8.9-98.95-22.6-115.043-57.521-7.19-15.75-5.136-34.581,6.163-55.809,16.092-30.13,47.592-50.331,80.8-71.9,29.1-18.831,59.576-38.005,78.065-65.054,45.538-65.054,44.511-134.9-3.081-196.531C410.6-15.416,343.147-64.035,273.642-42.807l-.342-1.37C343.49-65.4,411.283-16.785,448.261,31.492c47.934,62.315,48.962,132.847,3.081,198.243-18.831,27.049-49.3,46.565-78.407,65.4-33.212,21.228-64.711,41.429-80.461,71.559-11.3,20.886-13.353,39.375-6.163,54.782,15.75,34.581,74.983,47.934,114.015,56.837,4.451,1.027,8.56,2.054,12.326,2.739,32.869,7.875,57.864,24.652,70.19,47.25,10.614,19.516,11.3,43.141,2.054,68.135C467.777,643,428.4,665.253,390.055,686.824c-19.858,11.3-40.744,22.94-58.206,37.663-21.57,18.489-31.5,39.032-29.788,61.288,2.4,30.815,27.733,64.027,67.793,88.679,71.559,44.168,128.4,103.744,174.276,156.129Z" transform="translate(-273.3 49.295)" fill="url(#linear-gradient-47)"/>
            </g>
          </g>
          <g id="Group_3959" data-name="Group 3959" transform="translate(941.682 -178.048)">
            <g id="Group_3958" data-name="Group 3958">
              <path id="Path_15572" data-name="Path 15572" d="M504.32,1050.154c-43.141-55.125-96.554-118.124-165.374-166.4-39.032-27.391-63-62.315-63.684-94.157-.685-22.94,10.614-43.826,33.212-61.288,18.489-14.38,39.717-24.994,60.26-35.266,41.087-20.543,79.434-39.717,98.95-85.6,10.272-24.652,10.614-47.934,1.37-68.135-10.957-22.94-34.581-41.087-66.766-50.331-3.766-1.027-7.875-2.4-12.326-3.424-38.69-10.956-97.581-27.733-111.619-63.684-6.505-16.092-3.424-35.266,9.245-56.152,17.462-29.788,49.989-48.277,84.57-68.135,30.13-17.462,61.288-35.266,81.489-61.288,48.962-63,51.358-133.532,7.19-198.586C426.6-12.279,361.887-64.665,291.355-47.2l-.342-1.37c71.217-17.462,136.613,34.924,170.852,85.6,44.511,65.4,41.772,136.271-7.533,199.955-20.2,26.022-51.7,44.168-81.831,61.63-34.239,19.859-66.766,38.348-84.228,67.793-12.326,20.886-15.408,39.375-8.9,55.125,14.038,35.266,72.244,52.043,110.934,63,4.451,1.37,8.56,2.4,12.326,3.424,32.527,9.587,56.494,27.733,67.451,51.016,9.587,20.2,9.245,44.168-1.37,69.163-19.516,46.223-59.918,66.423-99.293,86.282-20.543,10.272-41.771,20.886-59.918,34.924C287.246,746.8,275.947,767,276.632,789.6c.685,31.157,24.31,66.081,63,93.13C408.794,931,462.207,994,505.348,1049.469Z" transform="translate(-275.033 52.002)" fill="url(#linear-gradient-48)"/>
            </g>
          </g>
          <g id="Group_3961" data-name="Group 3961" transform="translate(920.307 -186.38)">
            <g id="Group_3960" data-name="Group 3960">
              <path id="Path_15573" data-name="Path 15573" d="M483.845,1067.351c-40.059-57.864-90.048-124.287-156.472-176.673-37.663-29.445-59.576-66.423-58.548-98.266.685-23.282,13.011-43.483,36.636-59.918,19.174-13.353,41.087-22.94,61.972-32.185,42.114-18.489,81.488-35.951,103.059-81.146,11.641-24.31,13.353-47.934,4.793-68.82-9.929-23.625-32.527-42.8-63.684-54.1-3.766-1.37-7.875-2.739-11.984-4.109-38.005-13.353-95.526-33.212-108.195-70.19-5.821-16.777-1.712-35.608,11.984-56.494,19.174-29.1,52.728-46.222,87.994-64.369,31.157-16.092,63-32.527,84.57-57.521,52.043-60.945,58.549-132.162,17.8-199.955-31.5-52.386-93.472-108.537-164.689-94.5l-.342-1.37C400.644-66.3,463.3-9.8,494.8,42.924c41.087,68.135,34.581,139.695-17.8,201.325-21.57,25.337-53.755,41.771-84.912,57.864-35.266,18.147-68.478,35.266-87.652,64.027-13.353,20.2-17.462,39.032-11.984,55.467,12.326,36.293,69.5,56.152,107.51,69.163,4.109,1.37,8.217,2.739,11.984,4.109,31.842,11.3,54.782,30.815,64.711,54.782,8.56,20.886,7.19,45.2-4.793,69.847-21.913,45.538-63.342,64.027-103.744,81.831-20.886,9.244-42.8,18.831-61.972,32.185-23.282,16.435-35.266,36.293-35.951,59.233-1.027,31.5,20.886,67.793,58.206,97.238,66.423,52.385,116.755,118.809,156.814,176.673Z" transform="translate(-268.79 54.435)" fill="url(#linear-gradient-49)"/>
            </g>
          </g>
        </g>
      </g>
    </g>
    <rect id="Rectangle_2183" data-name="Rectangle 2183" width="1370" height="136" transform="translate(5773 12278)" opacity="0.757" fill="url(#linear-gradient-50)"/>
  </g>
</svg>
