<svg id="Group_3985" data-name="Group 3985" xmlns="http://www.w3.org/2000/svg" width="21.061" height="21.061" viewBox="0 0 21.061 21.061">
  <ellipse id="Ellipse_346" data-name="Ellipse 346" cx="10.53" cy="10.53" rx="10.53" ry="10.53" fill="#0077b5"/>
  <g id="Group_3978" data-name="Group 3978" transform="translate(5.83 5.052)">
    <path id="Path_15627" data-name="Path 15627" d="M36.183,34.392A1.392,1.392,0,1,1,34.792,33,1.392,1.392,0,0,1,36.183,34.392Z" transform="translate(-33.4 -33)" fill="#fff"/>
    <path id="Path_15628" data-name="Path 15628" d="M38.916,69.625v6.149a.344.344,0,0,1-.344.346H37.105a.344.344,0,0,1-.345-.345v-6.15a.345.345,0,0,1,.345-.345h1.467A.345.345,0,0,1,38.916,69.625Z" transform="translate(-36.448 -65.914)" fill="#fff"/>
    <path id="Path_15629" data-name="Path 15629" d="M77.166,71.828V74.8a.316.316,0,0,1-.317.317H75.271a.316.316,0,0,1-.317-.317V71.92c0-.431.126-1.885-1.125-1.885-.97,0-1.167,1-1.206,1.443V74.8a.317.317,0,0,1-.313.317H70.786a.316.316,0,0,1-.316-.317V68.6a.316.316,0,0,1,.316-.317H72.31a.317.317,0,0,1,.317.317v.536a2.16,2.16,0,0,1,2.032-.957C77.181,68.18,77.166,70.535,77.166,71.828Z" transform="translate(-67.031 -64.916)" fill="#fff"/>
  </g>
</svg>
