<?xml version="1.0" encoding="utf-8"?>
<!-- Generator: Adobe Illustrator 26.3.1, SVG Export Plug-In . SVG Version: 6.00 Build 0)  -->
<svg version="1.1" xmlns="http://www.w3.org/2000/svg" xmlns:xlink="http://www.w3.org/1999/xlink" x="0px" y="0px"
	 viewBox="0 0 476.6 320" style="enable-background:new 0 0 476.6 320;" xml:space="preserve">
<style type="text/css">
	.st0{fill-rule:evenodd;clip-rule:evenodd;fill:#D9F3FF;}
	.st1{fill-rule:evenodd;clip-rule:evenodd;fill:none;stroke:#50C3DC;stroke-width:2.126;stroke-miterlimit:22.9256;}
	
		.st2{fill-rule:evenodd;clip-rule:evenodd;fill:none;stroke:#247C96;stroke-width:2.8346;stroke-linecap:round;stroke-miterlimit:22.9256;}
	.st3{fill-rule:evenodd;clip-rule:evenodd;fill:#6EA5D4;}
	.st4{fill:#AADDEE;}
	.st5{fill:#5994C1;}
</style>
<g id="_x2014_ÎÓÈ_x5F_2">
</g>
<g id="_x2014_ÎÓÈ_x5F_3">
</g>
<g id="_x31_">
	<g>
		<path class="st0" d="M171.4,277.1H72.7H60.3c-5.9,0-10.7-4.8-10.7-10.7l0,0c0-5.9,4.8-10.7,10.7-10.7h47.5
			c5.9,0,10.7-4.8,10.7-10.7l0,0c0-5.9-4.8-10.7-10.7-10.7H30.2c-5.9,0-10.7-4.8-10.7-10.7l0,0c0-5.9,4.8-10.7,10.7-10.7H127
			c5.9,0,10.7-4.8,10.7-10.7l0,0c0-5.9-4.8-10.7-10.7-10.7H78.2c-5.9,0-10.7-4.8-10.7-10.7l0,0c0-5.9,4.8-10.7,10.7-10.7h92.7
			c5.9,0,10.7-4.8,10.7-10.7l0,0c0-5.9-4.8-10.7-10.7-10.7H61.1c-5.9,0-10.7-4.8-10.7-10.7l0,0c0-5.9,4.8-10.7,10.7-10.7h76.2
			c5.9,0,10.7-4.8,10.7-10.7l0,0c0-5.9-4.8-10.7-10.7-10.7h-10.5c-5.9,0-10.7-4.8-10.7-10.7l0,0c0-5.9,4.8-10.7,10.7-10.7h12h70.4
			h100.1c24.5,0,27.5,0,52,0h1.2c5.9,0,10.7,4.8,10.7,10.7l0,0c0,5.9-4.8,10.7-10.7,10.7h-21.3c-5.9,0-10.7,4.8-10.7,10.7l0,0
			c0,5.9,4.8,10.7,10.7,10.7H404c5.9,0,10.7,4.8,10.7,10.7l0,0c0,5.9-4.8,10.7-10.7,10.7h-30.6c-5.9,0-10.7,4.8-10.7,10.7l0,0
			c0,5.9,4.8,10.7,10.7,10.7h56.4c5.9,0,10.7,4.8,10.7,10.7l0,0c0,5.9-4.8,10.7-10.7,10.7H376c-5.9,0-10.7,4.8-10.7,10.7l0,0
			c0,5.9,4.8,10.7,10.7,10.7h33.3c5.9,0,10.7,4.8,10.7,10.7l0,0c0,5.9-4.8,10.7-10.7,10.7h-31.5c-5.9,0-10.7,4.8-10.7,10.7l0,0
			c0,5.9,4.8,10.7,10.7,10.7h9.7h58.8c5.9,0,10.7,4.8,10.7,10.7l0,0c0,5.9-4.8,10.7-10.7,10.7H171.4z"/>
		<g>
			<path class="st1" d="M160,78.2l-3.2,3.2 M152.5,85.7l-3.2,3.2"/>
			<path class="st1" d="M160,88.9l-3.2-3.2 M152.5,81.4l-3.2-3.2"/>
		</g>
		<ellipse transform="matrix(0.2094 -0.9778 0.9778 0.2094 193.0748 431.8961)" class="st1" cx="363.6" cy="96.6" rx="6" ry="6"/>
		<circle class="st1" cx="69.6" cy="175.7" r="6"/>
		<circle class="st1" cx="44.6" cy="109.3" r="6"/>
		<g>
			<path class="st1" d="M56.8,208l-3.2,3.2 M49.3,215.6l-3.2,3.2"/>
			<path class="st1" d="M56.8,218.8l-3.2-3.2 M49.3,211.2l-3.2-3.2"/>
		</g>
		<g>
			<path class="st1" d="M445.7,204.4l-3.2,3.2 M438.2,211.9l-3.2,3.2"/>
			<path class="st1" d="M445.7,215.1l-3.2-3.2 M438.2,207.6l-3.2-3.2"/>
		</g>
		<path class="st1" d="M425.9,244.8c3.3,0,6,2.7,6,6c0,3.3-2.7,6-6,6c-3.3,0-6-2.7-6-6C419.9,247.5,422.6,244.8,425.9,244.8z"/>
		<circle class="st1" cx="160.7" cy="116.1" r="6"/>
		<circle class="st1" cx="437.1" cy="154.8" r="6"/>
		<g>
			<path class="st1" d="M408.3,116.7l-3.2,3.2 M400.8,124.2l-3.2,3.2"/>
			<path class="st1" d="M408.3,127.4l-3.2-3.2 M400.8,119.8l-3.2-3.2"/>
		</g>
		<g>
			<path class="st1" d="M100.8,126.1l-3.2,3.2 M93.3,133.7l-3.2,3.2"/>
			<path class="st1" d="M100.8,136.9l-3.2-3.2 M93.3,129.3l-3.2-3.2"/>
		</g>
		<g>
			<path class="st1" d="M106.2,252.4l-3.2,3.2 M98.6,259.9l-3.2,3.2"/>
			<path class="st1" d="M106.2,263.1l-3.2-3.2 M98.6,255.6l-3.2-3.2"/>
		</g>
		<line class="st2" x1="201" y1="201.9" x2="293.6" y2="201.9"/>
		<line class="st2" x1="247.3" y1="201.9" x2="247.3" y2="262.1"/>
		<line class="st2" x1="147.4" y1="230.7" x2="196.3" y2="230.7"/>
		<line class="st2" x1="172.1" y1="230.7" x2="172.1" y2="262.1"/>
		<line class="st2" x1="177.4" y1="262.1" x2="166.8" y2="262.1"/>
		<line class="st2" x1="147.4" y1="180.2" x2="147.4" y2="230.7"/>
		<circle class="st3" cx="323.3" cy="141.1" r="14.9"/>
		<path class="st3" d="M291.8,222.6v28.2c0,3.8-3.1,6.9-6.9,6.9l0,0c-3.8,0-6.9-3.1-6.9-6.9v-35.2l0,0l0-0.2l0-0.2l0-0.2l0-0.2
			l0-0.2l0-0.2l0-0.2l0-0.2l0-0.2l0-0.2l0-0.2l0-0.2h0l0.1-0.2h0l0.1-0.2l0.1-0.2l0.1-0.2h0l0.1-0.2l0.1-0.2l0.1-0.2l0.1-0.1
			l0.1-0.1l0.1-0.1l0.1-0.1l0.1-0.1l0.1-0.1h0l0.1-0.1h0l0.1-0.1h0l0.1-0.1l0.1-0.1h0l0.1-0.1l0.1-0.1l0.1-0.1l0.1-0.1l0.1-0.1h0
			l0.1-0.1l0.1-0.1l0.1-0.1h0l0.1-0.1h0l0.1-0.1h0l0.1-0.1l0.1-0.1l0.1-0.1h0l0.1-0.1l0.1-0.1h0l0.1-0.1l0.1-0.1h0l0.2-0.1h0
			l0.2-0.1h0l0.2-0.1l0.2-0.1l0.2-0.1h0l0.2-0.1l0.2,0l0.2,0l0.2,0l0.2,0h0l0.2,0l0.2,0l0.2,0h0l0.2,0h0l0.2,0h0l0.2,0l0.2,0l0.2,0
			H306v-24.2l-10.5,8.1h-22c-3.5,0-6.3-2.9-6.3-6.3l0,0c0-3.5,2.9-6.3,6.3-6.3h18.6c6.8-3.9,23.2-17.9,31.2-17.9l0,0
			c9.5,0,17.3,7.8,17.3,17.3v30.4v5.5c0,4-3.2,7.2-7.2,7.2h-18.2h-2.1H291.8z"/>
		<line class="st2" x1="347.3" y1="230.7" x2="298.3" y2="230.7"/>
		<line class="st2" x1="322.6" y1="230.7" x2="322.6" y2="262.1"/>
		<line class="st2" x1="317.3" y1="262.1" x2="327.8" y2="262.1"/>
		<line class="st2" x1="347.3" y1="180.2" x2="347.3" y2="230.7"/>
		<line class="st2" x1="230.1" y1="262.1" x2="264.5" y2="262.1"/>
		<g>
			<path class="st4" d="M351.8,33l-57.9-3c-3.2-0.2-5.9,2.5-5.7,5.8l3.8,59.4c0.2,3,2.8,5.3,5.8,5.1l15.3-1.1l7.6,15.5
				c0.2,0.4,0.7,0.4,0.9,0l6.8-16.5l20.7-1.3c2.7-0.2,4.9-2.4,5.1-5.1l2.8-53C357.1,35.7,354.8,33.2,351.8,33z"/>
			<g>
				<path class="st5" d="M320.9,79c-2.3,0-4.2,1.8-4.2,4c0,2.3,1.8,4.2,4.1,4.2c2.3,0,4.1-1.8,4.2-4.1C325,80.9,323.2,79,320.9,79z"
					/>
				<path class="st5" d="M333.1,50.4c-2-4.1-6.3-6.4-11.7-6.5c-8.4-0.1-12.6,5.1-14.3,8l7,4.1c1.5-2.5,3.6-3.9,5.9-3.8
					c2.1,0,4.1,1.3,4.9,3.2c0.7,1.8,0.3,3.8-1.3,5.4l0,0c-1.4,1.4-2.5,2.5-3.5,3.7c0,0,0,0,0,0c-3.1,3.8-3,6.4-3,6.4l0,0
					c-0.1,0.9-0.1,2.5-0.2,3.2l8.4,0.1c0-0.7,0-3.2,0.3-4c0.8-1.8,1.9-2.9,3.2-4.1c1-1,2.2-2,3.3-3.6C334.6,59,335,54.3,333.1,50.4z
					"/>
			</g>
		</g>
	</g>
</g>
</svg>
