<svg xmlns="http://www.w3.org/2000/svg" width="391.136" height="318.698" viewBox="0 0 391.136 318.698">
  <g id="Group_4213" data-name="Group 4213" transform="translate(-6288.248 -12212.609)">
    <ellipse id="Ellipse_363" data-name="Ellipse 363" cx="148.108" cy="112.024" rx="148.108" ry="112.024" transform="translate(6372.178 12212.609) rotate(22)" fill="#ebfbff" style="mix-blend-mode: multiply;isolation: isolate"/>
    <ellipse id="Ellipse_363-2" data-name="Ellipse 363" cx="108.599" cy="82.141" rx="108.599" ry="82.141" transform="translate(6430.798 12316.352) rotate(-13)" fill="#ebfbff" style="mix-blend-mode: multiply;isolation: isolate"/>
    <path id="Path_16040" data-name="Path 16040" d="M1001.528,549.374h-146.7A11.73,11.73,0,0,1,843.1,537.644V428.431A11.73,11.73,0,0,1,854.831,416.7h146.7a11.73,11.73,0,0,1,11.731,11.731V537.644A11.724,11.724,0,0,1,1001.528,549.374Z" transform="translate(5561.836 11881.374)" fill="#ececec" style="mix-blend-mode: multiply;isolation: isolate"/>
    <path id="Path_16041" data-name="Path 16041" d="M942.928,490.074h-146.7A11.73,11.73,0,0,1,784.5,478.344V367.549A10.146,10.146,0,0,1,794.649,357.4H944.5a10.146,10.146,0,0,1,10.149,10.149V478.344A11.714,11.714,0,0,1,942.928,490.074Z" transform="translate(5614.129 11934.292)" fill="#fff"/>
    <path id="Path_16042" data-name="Path 16042" d="M954.658,393.668H784.5V367.624A10.219,10.219,0,0,1,794.724,357.4h149.71a10.219,10.219,0,0,1,10.224,10.224Z" transform="translate(5614.129 11934.292)" fill="#9dd6f4"/>
    <rect id="Rectangle_2582" data-name="Rectangle 2582" width="170.158" height="5.887" transform="translate(6398.629 12322.073)" fill="#80c3e7"/>
    <path id="Path_16043" data-name="Path 16043" d="M926,822.7a1.608,1.608,0,0,1,1.6-1.6h11.827a1.608,1.608,0,0,1,1.6,1.6v6.016a1.608,1.608,0,0,1-1.6,1.6H927.6a1.608,1.608,0,0,1-1.6-1.6Z" transform="translate(5487.857 11520.497)" fill="#f8f8f8"/>
    <path id="Path_16044" data-name="Path 16044" d="M1119.4,822.7a1.608,1.608,0,0,1,1.6-1.6h11.828a1.608,1.608,0,0,1,1.6,1.6v6.016a1.608,1.608,0,0,1-1.6,1.6H1121a1.608,1.608,0,0,1-1.6-1.6Z" transform="translate(5315.271 11520.497)" fill="#f8f8f8"/>
    <path id="Path_16045" data-name="Path 16045" d="M1312.7,822.7a1.607,1.607,0,0,1,1.6-1.6h11.827a1.607,1.607,0,0,1,1.6,1.6v6.016a1.607,1.607,0,0,1-1.6,1.6H1314.3a1.607,1.607,0,0,1-1.6-1.6Z" transform="translate(5142.774 11520.497)" fill="#f8f8f8"/>
    <path id="Path_16046" data-name="Path 16046" d="M1506.1,822.7a1.608,1.608,0,0,1,1.6-1.6h11.828a1.608,1.608,0,0,1,1.6,1.6v6.016a1.608,1.608,0,0,1-1.6,1.6H1507.7a1.608,1.608,0,0,1-1.6-1.6Z" transform="translate(4970.188 11520.497)" fill="#e8e9ea"/>
    <path id="Path_16047" data-name="Path 16047" d="M1699.5,822.7a1.608,1.608,0,0,1,1.6-1.6h11.828a1.608,1.608,0,0,1,1.6,1.6v6.016a1.608,1.608,0,0,1-1.6,1.6H1701.1a1.608,1.608,0,0,1-1.6-1.6Z" transform="translate(4797.602 11520.497)" fill="#e8e9ea"/>
    <path id="Path_16048" data-name="Path 16048" d="M1892.9,822.7a1.608,1.608,0,0,1,1.6-1.6h11.828a1.608,1.608,0,0,1,1.6,1.6v6.016a1.608,1.608,0,0,1-1.6,1.6H1894.5a1.608,1.608,0,0,1-1.6-1.6Z" transform="translate(4625.016 11520.497)" fill="#e8e9ea"/>
    <path id="Path_16049" data-name="Path 16049" d="M2086.2,822.7a1.607,1.607,0,0,1,1.6-1.6h11.827a1.607,1.607,0,0,1,1.6,1.6v6.016a1.607,1.607,0,0,1-1.6,1.6H2087.8a1.608,1.608,0,0,1-1.6-1.6Z" transform="translate(4452.519 11520.497)" fill="#d2d3d5"/>
    <path id="Path_16050" data-name="Path 16050" d="M926,961.9a1.608,1.608,0,0,1,1.6-1.6h11.827a1.608,1.608,0,0,1,1.6,1.6v6.016a1.608,1.608,0,0,1-1.6,1.6H927.6a1.608,1.608,0,0,1-1.6-1.6Z" transform="translate(5487.857 11396.277)" fill="#e8e9ea"/>
    <path id="Path_16051" data-name="Path 16051" d="M1119.4,961.9a1.608,1.608,0,0,1,1.6-1.6h11.828a1.608,1.608,0,0,1,1.6,1.6v6.016a1.608,1.608,0,0,1-1.6,1.6H1121a1.608,1.608,0,0,1-1.6-1.6Z" transform="translate(5315.271 11396.277)" fill="#e8e9ea"/>
    <path id="Path_16052" data-name="Path 16052" d="M1312.7,961.9a1.608,1.608,0,0,1,1.6-1.6h11.827a1.608,1.608,0,0,1,1.6,1.6v6.016a1.608,1.608,0,0,1-1.6,1.6H1314.3a1.608,1.608,0,0,1-1.6-1.6Z" transform="translate(5142.774 11396.277)" fill="#e8e9ea"/>
    <path id="Path_16053" data-name="Path 16053" d="M1506.1,961.9a1.608,1.608,0,0,1,1.6-1.6h11.828a1.608,1.608,0,0,1,1.6,1.6v6.016a1.608,1.608,0,0,1-1.6,1.6H1507.7a1.608,1.608,0,0,1-1.6-1.6Z" transform="translate(4970.188 11396.277)" fill="#e8e9ea"/>
    <path id="Path_16054" data-name="Path 16054" d="M1699.5,961.9a1.608,1.608,0,0,1,1.6-1.6h11.828a1.608,1.608,0,0,1,1.6,1.6v6.016a1.608,1.608,0,0,1-1.6,1.6H1701.1a1.608,1.608,0,0,1-1.6-1.6Z" transform="translate(4797.602 11396.277)" fill="#e8e9ea"/>
    <path id="Path_16055" data-name="Path 16055" d="M1892.9,961.9a1.608,1.608,0,0,1,1.6-1.6h11.828a1.608,1.608,0,0,1,1.6,1.6v6.016a1.608,1.608,0,0,1-1.6,1.6H1894.5a1.608,1.608,0,0,1-1.6-1.6Z" transform="translate(4625.016 11396.277)" fill="#e8e9ea"/>
    <path id="Path_16056" data-name="Path 16056" d="M2086.2,961.9a1.608,1.608,0,0,1,1.6-1.6h11.827a1.608,1.608,0,0,1,1.6,1.6v6.016a1.608,1.608,0,0,1-1.6,1.6H2087.8a1.608,1.608,0,0,1-1.6-1.6Z" transform="translate(4452.519 11396.277)" fill="#d2d3d5"/>
    <path id="Path_16057" data-name="Path 16057" d="M926,1101.1a1.608,1.608,0,0,1,1.6-1.6h11.827a1.608,1.608,0,0,1,1.6,1.6v6.016a1.608,1.608,0,0,1-1.6,1.6H927.6a1.608,1.608,0,0,1-1.6-1.6Z" transform="translate(5487.857 11272.059)" fill="#e8e9ea"/>
    <path id="Path_16058" data-name="Path 16058" d="M1119.4,1101.1a1.608,1.608,0,0,1,1.6-1.6h11.828a1.608,1.608,0,0,1,1.6,1.6v6.016a1.608,1.608,0,0,1-1.6,1.6H1121a1.608,1.608,0,0,1-1.6-1.6Z" transform="translate(5315.271 11272.059)" fill="#e8e9ea"/>
    <path id="Path_16059" data-name="Path 16059" d="M1312.7,1101.1a1.607,1.607,0,0,1,1.6-1.6h11.827a1.607,1.607,0,0,1,1.6,1.6v6.016a1.608,1.608,0,0,1-1.6,1.6H1314.3a1.608,1.608,0,0,1-1.6-1.6Z" transform="translate(5142.774 11272.059)" fill="#e8e9ea"/>
    <path id="Path_16060" data-name="Path 16060" d="M1506.1,1101.1a1.608,1.608,0,0,1,1.6-1.6h11.828a1.608,1.608,0,0,1,1.6,1.6v6.016a1.608,1.608,0,0,1-1.6,1.6H1507.7a1.608,1.608,0,0,1-1.6-1.6Z" transform="translate(4970.188 11272.059)" fill="#e8e9ea"/>
    <path id="Path_16061" data-name="Path 16061" d="M1699.5,1101.1a1.608,1.608,0,0,1,1.6-1.6h11.828a1.608,1.608,0,0,1,1.6,1.6v6.016a1.608,1.608,0,0,1-1.6,1.6H1701.1a1.608,1.608,0,0,1-1.6-1.6Z" transform="translate(4797.602 11272.059)" fill="#e8e9ea"/>
    <path id="Path_16062" data-name="Path 16062" d="M1892.9,1101.1a1.608,1.608,0,0,1,1.6-1.6h11.828a1.608,1.608,0,0,1,1.6,1.6v6.016a1.608,1.608,0,0,1-1.6,1.6H1894.5a1.608,1.608,0,0,1-1.6-1.6Z" transform="translate(4625.016 11272.059)" fill="#e8e9ea"/>
    <path id="Path_16063" data-name="Path 16063" d="M2086.2,1101.1a1.607,1.607,0,0,1,1.6-1.6h11.827a1.607,1.607,0,0,1,1.6,1.6v6.016a1.608,1.608,0,0,1-1.6,1.6H2087.8a1.608,1.608,0,0,1-1.6-1.6Z" transform="translate(4452.519 11272.059)" fill="#d2d3d5"/>
    <path id="Path_16064" data-name="Path 16064" d="M926,1240.3a1.608,1.608,0,0,1,1.6-1.6h11.827a1.608,1.608,0,0,1,1.6,1.6v6.016a1.608,1.608,0,0,1-1.6,1.6H927.6a1.608,1.608,0,0,1-1.6-1.6Z" transform="translate(5487.857 11147.839)" fill="#e8e9ea"/>
    <path id="Path_16065" data-name="Path 16065" d="M1119.4,1240.3a1.608,1.608,0,0,1,1.6-1.6h11.828a1.608,1.608,0,0,1,1.6,1.6v6.016a1.608,1.608,0,0,1-1.6,1.6H1121a1.608,1.608,0,0,1-1.6-1.6Z" transform="translate(5315.271 11147.839)" fill="#e8e9ea"/>
    <path id="Path_16066" data-name="Path 16066" d="M1312.7,1240.3a1.607,1.607,0,0,1,1.6-1.6h11.827a1.607,1.607,0,0,1,1.6,1.6v6.016a1.608,1.608,0,0,1-1.6,1.6H1314.3a1.608,1.608,0,0,1-1.6-1.6Z" transform="translate(5142.774 11147.839)" fill="#e8e9ea"/>
    <path id="Path_16067" data-name="Path 16067" d="M1506.1,1240.3a1.608,1.608,0,0,1,1.6-1.6h11.828a1.608,1.608,0,0,1,1.6,1.6v6.016a1.608,1.608,0,0,1-1.6,1.6H1507.7a1.608,1.608,0,0,1-1.6-1.6Z" transform="translate(4970.188 11147.839)" fill="#e8e9ea"/>
    <path id="Path_16068" data-name="Path 16068" d="M1699.5,1240.3a1.608,1.608,0,0,1,1.6-1.6h11.828a1.608,1.608,0,0,1,1.6,1.6v6.016a1.608,1.608,0,0,1-1.6,1.6H1701.1a1.608,1.608,0,0,1-1.6-1.6Z" transform="translate(4797.602 11147.839)" fill="#e8e9ea"/>
    <path id="Path_16069" data-name="Path 16069" d="M1892.9,1240.3a1.608,1.608,0,0,1,1.6-1.6h11.828a1.608,1.608,0,0,1,1.6,1.6v6.016a1.608,1.608,0,0,1-1.6,1.6H1894.5a1.608,1.608,0,0,1-1.6-1.6Z" transform="translate(4625.016 11147.839)" fill="#e8e9ea"/>
    <path id="Path_16070" data-name="Path 16070" d="M2086.2,1240.3a1.607,1.607,0,0,1,1.6-1.6h11.827a1.607,1.607,0,0,1,1.6,1.6v6.016a1.608,1.608,0,0,1-1.6,1.6H2087.8a1.608,1.608,0,0,1-1.6-1.6Z" transform="translate(4452.519 11147.839)" fill="#d2d3d5"/>
    <path id="Path_16071" data-name="Path 16071" d="M926,1379.5a1.608,1.608,0,0,1,1.6-1.6h11.827a1.608,1.608,0,0,1,1.6,1.6v6.016a1.608,1.608,0,0,1-1.6,1.6H927.6a1.608,1.608,0,0,1-1.6-1.6Z" transform="translate(5487.857 11023.62)" fill="#e8e9ea"/>
    <path id="Path_16072" data-name="Path 16072" d="M1119.4,1379.5a1.608,1.608,0,0,1,1.6-1.6h11.828a1.608,1.608,0,0,1,1.6,1.6v6.016a1.608,1.608,0,0,1-1.6,1.6H1121a1.608,1.608,0,0,1-1.6-1.6Z" transform="translate(5315.271 11023.62)" fill="#e8e9ea"/>
    <path id="Path_16073" data-name="Path 16073" d="M1312.7,1379.5a1.608,1.608,0,0,1,1.6-1.6h11.827a1.608,1.608,0,0,1,1.6,1.6v6.016a1.607,1.607,0,0,1-1.6,1.6H1314.3a1.607,1.607,0,0,1-1.6-1.6Z" transform="translate(5142.774 11023.62)" fill="#e8e9ea"/>
    <path id="Path_16074" data-name="Path 16074" d="M1506.1,1379.5a1.608,1.608,0,0,1,1.6-1.6h11.828a1.608,1.608,0,0,1,1.6,1.6v6.016a1.608,1.608,0,0,1-1.6,1.6H1507.7a1.608,1.608,0,0,1-1.6-1.6Z" transform="translate(4970.188 11023.62)" fill="#e8e9ea"/>
    <path id="Path_16075" data-name="Path 16075" d="M1699.5,1379.5a1.608,1.608,0,0,1,1.6-1.6h11.828a1.608,1.608,0,0,1,1.6,1.6v6.016a1.608,1.608,0,0,1-1.6,1.6H1701.1a1.608,1.608,0,0,1-1.6-1.6Z" transform="translate(4797.602 11023.62)" fill="#e8e9ea"/>
    <path id="Path_16076" data-name="Path 16076" d="M1892.9,1379.5a1.608,1.608,0,0,1,1.6-1.6h11.828a1.608,1.608,0,0,1,1.6,1.6v6.016a1.608,1.608,0,0,1-1.6,1.6H1894.5a1.608,1.608,0,0,1-1.6-1.6Z" transform="translate(4625.016 11023.62)" fill="#ff94a7"/>
    <path id="Path_16077" data-name="Path 16077" d="M2086.2,1379.5a1.608,1.608,0,0,1,1.6-1.6h11.827a1.608,1.608,0,0,1,1.6,1.6v6.016a1.607,1.607,0,0,1-1.6,1.6H2087.8a1.608,1.608,0,0,1-1.6-1.6Z" transform="translate(4452.519 11023.62)" fill="#f8f8f8"/>
    <path id="Path_16078" data-name="Path 16078" d="M1857.551,418.5a9.051,9.051,0,1,1,9.051-9.051A9.057,9.057,0,0,1,1857.551,418.5Zm0-11.429a2.368,2.368,0,1,0,2.368,2.368A2.375,2.375,0,0,0,1857.551,407.072Z" transform="translate(4664.637 11895.921)" fill="#fff"/>
    <path id="Path_16079" data-name="Path 16079" d="M1891.907,307.953h0a4.905,4.905,0,0,1-4.907-4.907V286.407a4.905,4.905,0,0,1,4.907-4.907h0a4.905,4.905,0,0,1,4.907,4.907v16.638A4.905,4.905,0,0,1,1891.907,307.953Z" transform="translate(4630.281 12002.024)" fill="#969eb5"/>
    <path id="Path_16080" data-name="Path 16080" d="M1619.151,418.5a9.051,9.051,0,1,1,9.051-9.051A9.057,9.057,0,0,1,1619.151,418.5Zm0-11.429a2.368,2.368,0,1,0,2.368,2.368A2.375,2.375,0,0,0,1619.151,407.072Z" transform="translate(4877.38 11895.921)" fill="#fff"/>
    <path id="Path_16081" data-name="Path 16081" d="M1653.507,307.953h0a4.905,4.905,0,0,1-4.907-4.907V286.407a4.905,4.905,0,0,1,4.907-4.907h0a4.905,4.905,0,0,1,4.907,4.907v16.638A4.905,4.905,0,0,1,1653.507,307.953Z" transform="translate(4843.024 12002.024)" fill="#969eb5"/>
    <path id="Path_16082" data-name="Path 16082" d="M1380.751,418.5a9.051,9.051,0,1,1,9.051-9.051A9.057,9.057,0,0,1,1380.751,418.5Zm0-11.429a2.368,2.368,0,1,0,2.368,2.368A2.375,2.375,0,0,0,1380.751,407.072Z" transform="translate(5090.124 11895.921)" fill="#fff"/>
    <path id="Path_16083" data-name="Path 16083" d="M1415.108,307.953h0a4.905,4.905,0,0,1-4.907-4.907V286.407a4.905,4.905,0,0,1,4.907-4.907h0a4.905,4.905,0,0,1,4.907,4.907v16.638A4.9,4.9,0,0,1,1415.108,307.953Z" transform="translate(5055.768 12002.024)" fill="#969eb5"/>
    <path id="Path_16084" data-name="Path 16084" d="M1142.451,418.5a9.051,9.051,0,1,1,9.051-9.051A9.057,9.057,0,0,1,1142.451,418.5Zm0-11.429a2.368,2.368,0,1,0,2.368,2.368A2.375,2.375,0,0,0,1142.451,407.072Z" transform="translate(5302.778 11895.921)" fill="#fff"/>
    <path id="Path_16085" data-name="Path 16085" d="M1176.807,307.953h0a4.905,4.905,0,0,1-4.907-4.907V286.407a4.905,4.905,0,0,1,4.907-4.907h0a4.905,4.905,0,0,1,4.907,4.907v16.638A4.905,4.905,0,0,1,1176.807,307.953Z" transform="translate(5268.422 12002.024)" fill="#969eb5"/>
    <path id="Path_16086" data-name="Path 16086" d="M2095.951,418.5a9.051,9.051,0,1,1,9.051-9.051A9.057,9.057,0,0,1,2095.951,418.5Zm0-11.429a2.368,2.368,0,1,0,2.368,2.368A2.375,2.375,0,0,0,2095.951,407.072Z" transform="translate(4451.894 11895.921)" fill="#fff"/>
    <path id="Path_16087" data-name="Path 16087" d="M2130.307,307.953h0a4.905,4.905,0,0,1-4.907-4.907V286.407a4.905,4.905,0,0,1,4.907-4.907h0a4.905,4.905,0,0,1,4.907,4.907v16.638A4.905,4.905,0,0,1,2130.307,307.953Z" transform="translate(4417.537 12002.024)" fill="#969eb5"/>
    <path id="Path_16088" data-name="Path 16088" d="M904.051,418.5a9.051,9.051,0,1,1,9.051-9.051A9.057,9.057,0,0,1,904.051,418.5Zm0-11.429a2.368,2.368,0,1,0,2.368,2.368A2.375,2.375,0,0,0,904.051,407.072Z" transform="translate(5515.521 11895.921)" fill="#fff"/>
    <path id="Path_16089" data-name="Path 16089" d="M938.407,307.953h0a4.905,4.905,0,0,1-4.907-4.907V286.407a4.905,4.905,0,0,1,4.907-4.907h0a4.905,4.905,0,0,1,4.907,4.907v16.638A4.905,4.905,0,0,1,938.407,307.953Z" transform="translate(5481.165 12002.024)" fill="#969eb5"/>
    <path id="Path_16090" data-name="Path 16090" d="M2128.231,554.828a41.106,41.106,0,0,0-44.178,63.334l-7.092,22.342a.632.632,0,0,0,.861.764l21.61-9.858a41.41,41.41,0,0,0,8.61,3.132,41.118,41.118,0,0,0,20.189-79.714Z" transform="translate(4461.091 11759.347)" fill="#ececec" style="mix-blend-mode: multiply;isolation: isolate"/>
    <path id="Path_16091" data-name="Path 16091" d="M2059.231,525.128a41.106,41.106,0,0,0-44.178,63.334l-7.092,22.342a.631.631,0,0,0,.861.764l21.61-9.858a41.412,41.412,0,0,0,8.61,3.132,41.118,41.118,0,0,0,20.19-79.714Z" transform="translate(4522.665 11785.851)" fill="#ff94a7"/>
    <path id="Path_16092" data-name="Path 16092" d="M2341.535,682.023h-3.767a1.827,1.827,0,0,1-1.83-1.711l-3.078-44.243a1.836,1.836,0,0,1,1.83-1.969h9.933a1.836,1.836,0,0,1,1.829,1.969l-3.078,44.243A1.844,1.844,0,0,1,2341.535,682.023Z" transform="translate(4232.408 11687.372)" fill="#fff"/>
    <path id="Path_16093" data-name="Path 16093" d="M2367.949,1149.069h-3.509a1.846,1.846,0,0,1-1.84-1.84v-3.089a1.846,1.846,0,0,1,1.84-1.84h3.509a1.846,1.846,0,0,1,1.84,1.84v3.089A1.846,1.846,0,0,1,2367.949,1149.069Z" transform="translate(4205.865 11233.864)" fill="#fff"/>
    <rect id="Rectangle_2583" data-name="Rectangle 2583" width="60.192" height="88.937" transform="translate(6359.951 12356.384)" fill="#ade"/>
    <rect id="Rectangle_2584" data-name="Rectangle 2584" width="46.89" height="16.272" transform="translate(6365.935 12363.175)" fill="#f1fafc"/>
    <rect id="Rectangle_2585" data-name="Rectangle 2585" width="8.341" height="8.341" transform="translate(6365.935 12389.487)" fill="#6ea5d4"/>
    <rect id="Rectangle_2586" data-name="Rectangle 2586" width="8.341" height="8.341" transform="translate(6365.935 12402.854)" fill="#6ea5d4"/>
    <rect id="Rectangle_2587" data-name="Rectangle 2587" width="8.341" height="8.341" transform="translate(6365.935 12416.231)" fill="#6ea5d4"/>
    <rect id="Rectangle_2588" data-name="Rectangle 2588" width="8.341" height="8.341" transform="translate(6365.935 12429.598)" fill="#6ea5d4"/>
    <rect id="Rectangle_2589" data-name="Rectangle 2589" width="8.341" height="8.341" transform="translate(6378.601 12389.487)" fill="#6ea5d4"/>
    <rect id="Rectangle_2590" data-name="Rectangle 2590" width="8.341" height="8.341" transform="translate(6378.601 12402.854)" fill="#6ea5d4"/>
    <rect id="Rectangle_2591" data-name="Rectangle 2591" width="8.341" height="8.341" transform="translate(6378.601 12416.231)" fill="#6ea5d4"/>
    <rect id="Rectangle_2592" data-name="Rectangle 2592" width="8.341" height="8.341" transform="translate(6378.601 12429.598)" fill="#6ea5d4"/>
    <rect id="Rectangle_2593" data-name="Rectangle 2593" width="8.341" height="8.341" transform="translate(6391.257 12389.487)" fill="#6ea5d4"/>
    <rect id="Rectangle_2594" data-name="Rectangle 2594" width="8.341" height="8.341" transform="translate(6391.257 12402.854)" fill="#6ea5d4"/>
    <rect id="Rectangle_2595" data-name="Rectangle 2595" width="8.341" height="8.341" transform="translate(6391.257 12416.231)" fill="#6ea5d4"/>
    <rect id="Rectangle_2596" data-name="Rectangle 2596" width="8.341" height="8.341" transform="translate(6391.257 12429.598)" fill="#6ea5d4"/>
    <rect id="Rectangle_2597" data-name="Rectangle 2597" width="8.341" height="8.341" transform="translate(6403.924 12389.487)" fill="#ffe18c"/>
    <rect id="Rectangle_2598" data-name="Rectangle 2598" width="8.341" height="8.341" transform="translate(6403.924 12402.854)" fill="#ffe18c"/>
    <rect id="Rectangle_2599" data-name="Rectangle 2599" width="8.341" height="21.707" transform="translate(6403.924 12416.231)" fill="#fbaaa9"/>
    <path id="Path_16094" data-name="Path 16094" d="M950.6,1566.4l.667,2.045a13.131,13.131,0,0,1,5.026-4.746c.441-.258.9-.495,1.378-.732,7.146-3.444,17.381-3.659,24.86-.635a19.743,19.743,0,0,1,2.712,1.313,12.235,12.235,0,0,1,5.316,5.4l.624-1.173-.043,3.358a6.486,6.486,0,0,1-.021,1.582v.065l-.011.011a6.822,6.822,0,0,1-.42,1.625,11.2,11.2,0,0,1-4.369,5.09c-.377.258-.764.506-1.184.743-7.426,4.283-19.081,4.628-27.088.99a19.849,19.849,0,0,1-1.851-.936c-3.013-1.743-4.875-3.9-5.607-6.145h0C949.219,1571.675,950.6,1566.4,950.6,1566.4Z" transform="translate(5466.458 10860.925)" fill="#ffb68c"/>
    <path id="Path_16095" data-name="Path 16095" d="M958.462,1545.836a17.506,17.506,0,0,0,1.851.936c8.007,3.627,19.673,3.293,27.088-.99.42-.237.807-.484,1.184-.743a11.2,11.2,0,0,0,4.369-5.09c1.464-3.8-.355-7.932-5.456-10.87a22.6,22.6,0,0,0-2.712-1.313c-7.469-3.035-17.7-2.82-24.86.635-.474.226-.936.474-1.378.732C950.53,1533.751,950.5,1541.23,958.462,1545.836Z" transform="translate(5464.199 10891.778)" fill="#fed583"/>
    <path id="Path_16096" data-name="Path 16096" d="M1066.06,1601.864l1.614-.936a5.953,5.953,0,0,1-2.174-2.1l2.508-.85a5.206,5.206,0,0,0,2.088,2.066,2.877,2.877,0,0,0,2.7.344c.646-.377.506-.926-.334-1.9-1.216-1.41-1.614-2.626.032-3.573a7.07,7.07,0,0,1,5.919-.075l1.614-.936,1.679.969-1.5.861a5.528,5.528,0,0,1,1.916,1.754l-2.422.829a5.088,5.088,0,0,0-1.883-1.754,2.44,2.44,0,0,0-2.421-.3c-.56.323-.323.872.592,2.034,1.324,1.593,1.205,2.6-.323,3.487a7.279,7.279,0,0,1-6.188.054l-1.733,1Z" transform="translate(5363.371 10830.864)" fill="#ffb68c"/>
    <path id="Path_16097" data-name="Path 16097" d="M905.3,1711.741l.818,1.991a13.143,13.143,0,0,1,4.66-5.1c.42-.291.861-.56,1.324-.829,6.877-3.971,17.069-4.94,24.742-2.475a20.739,20.739,0,0,1,2.8,1.108,12.236,12.236,0,0,1,5.7,4.994l.538-1.216.215,3.358a6.52,6.52,0,0,1,.1,1.582v.065l-.011.011a7.35,7.35,0,0,1-.291,1.647,11.22,11.22,0,0,1-3.982,5.4c-.355.291-.721.56-1.119.829-7.081,4.821-18.683,6.027-26.937,3-.656-.237-1.3-.506-1.916-.8-3.132-1.517-5.155-3.519-6.048-5.715h0C904.32,1717.1,905.3,1711.741,905.3,1711.741Z" transform="translate(5506.6 10732.633)" fill="#ffb68c"/>
    <path id="Path_16098" data-name="Path 16098" d="M912.352,1690.612a17.887,17.887,0,0,0,1.916.8c8.254,3.024,19.856,1.819,26.937-3,.4-.269.764-.538,1.119-.829a11.22,11.22,0,0,0,3.982-5.4c1.173-3.9-.947-7.878-6.253-10.439a22.28,22.28,0,0,0-2.8-1.109c-7.673-2.464-17.865-1.5-24.742,2.475-.452.269-.893.538-1.324.829C903.559,1679.15,904.065,1686.608,912.352,1690.612Z" transform="translate(5505.897 10763.598)" fill="#fed583"/>
    <path id="Path_16099" data-name="Path 16099" d="M1034.248,1743.556l-1.679.807a6,6,0,0,1,2.012,2.26l-2.561.667a5.2,5.2,0,0,0-1.937-2.217,2.836,2.836,0,0,0-2.669-.538c-.667.323-.57.883.194,1.927,1.108,1.5,1.421,2.734-.291,3.562a7.043,7.043,0,0,1-5.908-.366l-1.679.807-1.6-1.087,1.56-.753a5.658,5.658,0,0,1-1.786-1.894l2.475-.646a5,5,0,0,0,1.754,1.894,2.463,2.463,0,0,0,2.4.484c.581-.28.387-.85-.441-2.066-1.205-1.679-1.012-2.68.581-3.455a7.28,7.28,0,0,1,6.177.4l1.808-.872Z" transform="translate(5405.848 10698.32)" fill="#ffb68c"/>
    <path id="Path_16100" data-name="Path 16100" d="M1116.226,1657.239l-.248,2.131a13.049,13.049,0,0,1,6.543-2.228c.506-.043,1.033-.075,1.55-.086,7.942-.172,17.338,3.874,22.88,9.729a21.311,21.311,0,0,1,1.927,2.314,12.191,12.191,0,0,1,2.594,7.125l1.055-.807-1.431,3.046a6.977,6.977,0,0,1-.678,1.431l-.022.054-.011.011a7.075,7.075,0,0,1-1.055,1.3,11.192,11.192,0,0,1-6.091,2.82,13.742,13.742,0,0,1-1.377.183c-8.534.818-19.275-3.7-25.065-10.321a20.332,20.332,0,0,1-1.291-1.625c-2.023-2.83-2.83-5.564-2.551-7.921h0C1112.782,1661.469,1116.226,1657.239,1116.226,1657.239Z" transform="translate(5321.072 10774.511)" fill="#ffb68c"/>
    <path id="Path_16101" data-name="Path 16101" d="M1130.013,1640.817c.4.549.829,1.1,1.291,1.625,5.79,6.619,16.541,11.149,25.065,10.321.474-.043.936-.108,1.378-.183a11.267,11.267,0,0,0,6.091-2.82c2.906-2.852,2.959-7.361-.463-12.161a21.3,21.3,0,0,0-1.926-2.314c-5.542-5.855-14.948-9.9-22.88-9.729-.527.011-1.044.043-1.55.086C1127.807,1626.536,1124.675,1633.326,1130.013,1640.817Z" transform="translate(5308.124 10802.62)" fill="#fed583"/>
    <path id="Path_16102" data-name="Path 16102" d="M1257.777,1698.8l-1.561-1.022a6,6,0,0,1-.9,2.884l-1.883-1.851a5.21,5.21,0,0,0,.915-2.8,2.845,2.845,0,0,0-.9-2.561c-.624-.409-1.055-.043-1.55,1.152-.71,1.722-1.625,2.626-3.207,1.571a7.065,7.065,0,0,1-2.723-5.252l-1.561-1.022.118-1.937,1.442.947a5.69,5.69,0,0,1,.71-2.508l1.819,1.8a4.967,4.967,0,0,0-.721,2.475,2.434,2.434,0,0,0,.818,2.3c.538.355.926-.108,1.55-1.442.829-1.894,1.786-2.249,3.261-1.27a7.277,7.277,0,0,1,2.82,5.51l1.668,1.1Z" transform="translate(5203.724 10748.32)" fill="#ffb68c"/>
  </g>
</svg>
