<?xml version="1.0" encoding="utf-8"?>
<!-- Generator: Adobe Illustrator 26.3.1, SVG Export Plug-In . SVG Version: 6.00 Build 0)  -->
<svg version="1.1" xmlns="http://www.w3.org/2000/svg" xmlns:xlink="http://www.w3.org/1999/xlink" x="0px" y="0px"
	 viewBox="0 0 3900 2400" style="enable-background:new 0 0 3900 2400;" xml:space="preserve">
<style type="text/css">
	.st0{opacity:0.75;}
	.st1{opacity:0.16;}
	.st2{fill:#70A5C5;}
	.st3{fill:#FFFFFF;}
</style>
<g id="background">
</g>
<g id="Layer_1">
	<g class="st0">
		<g>
			<ellipse class="st1" cx="1852.4" cy="2074.2" rx="590.9" ry="43.4"/>
			<path class="st2" d="M2187.3,904c54.6,62.5,149.6,68.9,212.2,14.3c22-19.2,36.9-43.4,44.8-69.4l-247.8-152
				C2138.9,752.2,2134.2,843.3,2187.3,904z"/>
			<path class="st2" d="M1614.7,1740l-114.8,205.9c-22.5,40.3-8,91.2,32.3,113.6c12.9,7.2,26.8,10.6,40.6,10.6
				c29.3,0,57.7-15.5,73-42.9l159.8-286.6c-25.5,0.3-50.1,0.5-73.4,0.5C1689.4,1741.1,1649.4,1740.6,1614.7,1740z"/>
			<path class="st2" d="M2053.6,2005.9c9.1,38.5,43.4,64.4,81.2,64.4c6.3,0,12.8-0.7,19.2-2.2c44.9-10.6,72.7-55.5,62.2-100.4
				l-58.8-250c-50.5,7.7-108.3,13-167.7,16.6L2053.6,2005.9z"/>
			<path class="st2" d="M2546.5,891.6l11.9-19.4l-86-52.7l42.5-84.3c0,0-21.2-54.8-95.9-100.6c-74.7-45.8-133.2-39.9-133.2-39.9
				l-39.4,53.7l-16.5,22.4l-13.7-8.4l-72.2-44.3l-11.9,19.4L2546.5,891.6z"/>
			<path class="st2" d="M1976.7,852.1c0,0-282.1,75.8-347.2,353.9c-65.1,278.1-140.9,515-140.9,515s492.5,22.1,722.1-28.7
				c0,0-67.7-203-90.5-249.4s-207.5-153-207.5-153c-0.3-20.3,28.5-53.2,62.9-85.2l-61.2-183.6c-5.8-17.4-4.5-36.1,3.7-52.5
				c8.2-16.4,22.4-28.7,39.8-34.5c7.1-2.4,14.4-3.5,21.8-3.5c29.7,0,55.9,18.9,65.3,47.1l44.3,133l72.8-196.6L1991.5,780
				L1976.7,852.1z"/>
			<path class="st2" d="M2284,1338c-4.8,4.7-4.9,12.4-0.2,17.2l4,4.1c4.7,4.8,12.4,4.9,17.2,0.2l38.9-38l-43.8,0.7L2284,1338z"/>
			<path class="st2" d="M2030.4,982.4c-9.3-28-39.6-43.2-67.6-33.8c-28,9.3-43.1,39.6-33.8,67.6l86.1,258.2
				c7.3,21.9,27.7,36.6,50.7,36.6c0.3,0,0.6,0,0.9,0l300.2-5.1c29.5-0.5,53-24.8,52.5-54.4c-0.5-29.5-24.9-52.9-54.4-52.5
				l-260.9,4.5L2030.4,982.4z"/>
			<g>
				<path class="st2" d="M2051.8,508c13.8-8.1,26.8-4,33.4,7.2c6.5,11,4.5,25-8.7,32.8c-14.4,8.4-27.2,3.5-33.8-7.8
					C2036.6,529.8,2039.4,515.3,2051.8,508z M1952.8,378.3c-4.6-7.9-4.1-17.3,9.1-25.1c13.5-8,21.8-4.1,27,4.6l18.4,31.3l48.5,96.6
					l-23.4,13.7l-60.8-89.3L1952.8,378.3z"/>
			</g>
			<g>
				<path class="st2" d="M2077,326c-4.8,2.8-9.3,5.5-12.3,8.8c-2.2,2.1-2.3,5.1,0,9.1l9.6,16.3l-32,15.8l-24-40.8
					c8.4-12.1,25.5-30.1,44.9-41.6c38.3-22.5,65.1-7.2,76.5,12.2c12.4,21.1,12.5,40,0.4,66.4c-9.9,21.8-11.3,27.9-0.7,45.9l8,13.5
					l-29.6,17.4l-13.9-19.1c-16.2-22.3-12.5-35.5-2.9-57.8c6.8-16.1,12.3-25.4,3.7-40.1C2098.2,320.8,2088,319.6,2077,326z
					 M2142.2,454.8c13.5-7.9,26.4-4.1,33.2,7.4c6.1,10.4,4.3,24.8-8.9,32.5c-13.8,8.1-26.7,3.6-33.3-7.7
					C2126.6,476.1,2129.8,462.1,2142.2,454.8z"/>
			</g>
			<path class="st3" d="M2352.8,844.1c12.8,0,23.2,10.4,23.2,23.2c0,12.8-10.4,23.2-23.2,23.2c-12.8,0-23.2-10.4-23.2-23.2
				C2329.7,854.5,2340,844.1,2352.8,844.1z"/>
			<path class="st2" d="M2631.7,1035l-19.6-20c-20-20.5-77.8,3.4-129.1,53.5c-51.3,50.1-76.6,107.3-56.6,127.8
				c0.5,0.5,1.1,0.8,1.6,1.3l-10.2,9.9c6.9,7.9,11.9,17.3,14.6,27.7l16.7-16.3c22.4,15.5,77.1-8.4,125.9-56.1
				C2626.3,1112.7,2651.7,1055.5,2631.7,1035z"/>
			<path class="st3" d="M2604.7,1031.8c-17.4-17.8-67.6,3-112.1,46.4c-44.5,43.5-66.5,93.1-49.2,111c17.4,17.8,67.6-3,112.1-46.4
				C2600,1099.3,2622,1049.6,2604.7,1031.8z"/>
			
				<rect x="2499.7" y="1087.1" transform="matrix(0.946 -0.3242 0.3242 0.946 -217.0209 877.1147)" class="st2" width="48.2" height="5.5"/>
			
				<rect x="2485.4" y="1102.6" transform="matrix(0.946 -0.3242 0.3242 0.946 -221.9414 878.5417)" class="st2" width="80.6" height="5.5"/>
			
				<rect x="2472.3" y="1123.7" transform="matrix(0.946 -0.3242 0.3242 0.946 -229.488 875.4224)" class="st2" width="80.6" height="5.5"/>
		</g>
	</g>
</g>
</svg>
