<svg xmlns="http://www.w3.org/2000/svg" width="364.303" height="239.922" viewBox="0 0 364.303 239.922">
  <g id="No_time_sheets" data-name="No time sheets" transform="translate(-5.5 -50.6)">
    <g id="Group_4058" data-name="Group 4058" transform="translate(5.5 50.6)">
      <g id="Group_4057" data-name="Group 4057">
        <path id="Path_15831" data-name="Path 15831" d="M212.329,90.841H61.121A20.2,20.2,0,0,1,41,70.721h0A20.2,20.2,0,0,1,61.121,50.6H212.329A20.2,20.2,0,0,1,232.45,70.721h0A20.3,20.3,0,0,1,212.329,90.841Z" transform="translate(13.112 -50.6)" fill="#f0f9ff"/>
        <path id="Path_15832" data-name="Path 15832" d="M282.675,117.241H75.221A20.2,20.2,0,0,1,55.1,97.121h0A20.2,20.2,0,0,1,75.221,77H282.675A20.2,20.2,0,0,1,302.8,97.121h0A20.1,20.1,0,0,1,282.675,117.241Z" transform="translate(20.504 -36.759)" fill="#f0f9ff"/>
        <path id="Path_15833" data-name="Path 15833" d="M267.075,195.541H59.621A20.2,20.2,0,0,1,39.5,175.421h0A20.2,20.2,0,0,1,59.621,155.3H267.075A20.2,20.2,0,0,1,287.2,175.421h0A20.2,20.2,0,0,1,267.075,195.541Z" transform="translate(12.326 4.292)" fill="#f0f9ff"/>
        <path id="Path_15834" data-name="Path 15834" d="M284.9,143.741H25.621A20.2,20.2,0,0,1,5.5,123.621h0A20.2,20.2,0,0,1,25.621,103.5H284.9a20.2,20.2,0,0,1,20.121,20.121h0A20.2,20.2,0,0,1,284.9,143.741Z" transform="translate(-5.5 -22.865)" fill="#f0f9ff"/>
        <path id="Path_15835" data-name="Path 15835" d="M236.451,221.841H93.321A20.2,20.2,0,0,1,73.2,201.721h0A20.2,20.2,0,0,1,93.321,181.6h143.13a20.2,20.2,0,0,1,20.121,20.121h0A20.2,20.2,0,0,1,236.451,221.841Z" transform="translate(29.994 18.081)" fill="#f0f9ff"/>
        <path id="Path_15836" data-name="Path 15836" d="M323.678,169.041H75.221A20.2,20.2,0,0,1,55.1,148.921h0A20.2,20.2,0,0,1,75.221,128.8H323.678A20.2,20.2,0,0,1,343.8,148.921h0A20.1,20.1,0,0,1,323.678,169.041Z" transform="translate(20.504 -9.601)" fill="#f0f9ff"/>
      </g>
    </g>
    <g id="Group_4059" data-name="Group 4059" transform="translate(99.226 103.188)">
      <path id="Path_15837" data-name="Path 15837" d="M43.167,74.1h67.428a8.36,8.36,0,0,1,8.367,8.367v58.766a8.36,8.36,0,0,1-8.367,8.367H43.167a8.36,8.36,0,0,1-8.367-8.367V82.467A8.36,8.36,0,0,1,43.167,74.1Zm9.253,4.43A5.217,5.217,0,1,1,47.2,83.747,5.252,5.252,0,0,1,52.42,78.53Zm24.412,0a5.217,5.217,0,1,1-5.217,5.217,5.252,5.252,0,0,1,5.217-5.217Zm24.51,0a5.217,5.217,0,1,1-5.217,5.217,5.127,5.127,0,0,1,5.217-5.217Zm13.879,16.636v46.068a4.726,4.726,0,0,1-4.725,4.725H43.167a4.726,4.726,0,0,1-4.725-4.725V95.165Z" transform="translate(-34.8 -66.225)" fill="#ade" fill-rule="evenodd"/>
      <path id="Path_15838" data-name="Path 15838" d="M52.656,66.1a2.751,2.751,0,0,1,2.756,2.756V83.228a2.756,2.756,0,1,1-5.512,0V68.856A2.817,2.817,0,0,1,52.656,66.1Z" transform="translate(-35.036 -66.1)" fill="#6ea5d4" fill-rule="evenodd"/>
      <path id="Path_15839" data-name="Path 15839" d="M77.456,66.1a2.751,2.751,0,0,1,2.756,2.756V83.228a2.756,2.756,0,1,1-5.512,0V68.856A2.817,2.817,0,0,1,77.456,66.1Z" transform="translate(-35.424 -66.1)" fill="#6ea5d4" fill-rule="evenodd"/>
      <path id="Path_15840" data-name="Path 15840" d="M102.356,66.1a2.751,2.751,0,0,1,2.756,2.756V83.228a2.756,2.756,0,1,1-5.512,0V68.856a2.69,2.69,0,0,1,2.756-2.756Z" transform="translate(-35.814 -66.1)" fill="#6ea5d4" fill-rule="evenodd"/>
      <path id="Path_15841" data-name="Path 15841" d="M47.4,131.492v9.548a.465.465,0,0,0,.492.492H57.44a.465.465,0,0,0,.492-.492v-9.548A.465.465,0,0,0,57.44,131h-9.45a.551.551,0,0,0-.591.492Z" transform="translate(-34.997 -67.116)" fill="#6ea5d4" fill-rule="evenodd"/>
      <path id="Path_15842" data-name="Path 15842" d="M47.4,116.392v9.548a.465.465,0,0,0,.492.492H57.44a.465.465,0,0,0,.492-.492v-9.548a.465.465,0,0,0-.492-.492h-9.45a.551.551,0,0,0-.591.492Z" transform="translate(-34.997 -66.879)" fill="#6ea5d4" fill-rule="evenodd"/>
      <path id="Path_15843" data-name="Path 15843" d="M63.9,131.492v9.548a.465.465,0,0,0,.492.492H73.94a.465.465,0,0,0,.492-.492v-9.548A.465.465,0,0,0,73.94,131H64.392a.527.527,0,0,0-.492.492Z" transform="translate(-35.255 -67.116)" fill="#6ea5d4" fill-rule="evenodd"/>
      <path id="Path_15844" data-name="Path 15844" d="M80.4,131.492v9.548a.465.465,0,0,0,.492.492H90.44a.465.465,0,0,0,.492-.492v-9.548A.465.465,0,0,0,90.44,131H80.892a.465.465,0,0,0-.492.492Z" transform="translate(-35.514 -67.116)" fill="#6ea5d4" fill-rule="evenodd"/>
      <path id="Path_15845" data-name="Path 15845" d="M96.9,131.492v9.548a.465.465,0,0,0,.492.492h9.548a.465.465,0,0,0,.492-.492v-9.548a.465.465,0,0,0-.492-.492H97.392a.465.465,0,0,0-.492.492Z" transform="translate(-35.772 -67.116)" fill="#6ea5d4" fill-rule="evenodd"/>
      <path id="Path_15846" data-name="Path 15846" d="M63.9,116.392v9.548a.465.465,0,0,0,.492.492H73.94a.465.465,0,0,0,.492-.492v-9.548a.465.465,0,0,0-.492-.492H64.392a.527.527,0,0,0-.492.492Z" transform="translate(-35.255 -66.879)" fill="#6ea5d4" fill-rule="evenodd"/>
      <path id="Path_15847" data-name="Path 15847" d="M80.4,116.392v9.548a.465.465,0,0,0,.492.492H90.44a.465.465,0,0,0,.492-.492v-9.548a.465.465,0,0,0-.492-.492H80.892a.465.465,0,0,0-.492.492Z" transform="translate(-35.514 -66.879)" fill="#6ea5d4" fill-rule="evenodd"/>
      <path id="Path_15848" data-name="Path 15848" d="M96.9,116.392v9.548a.465.465,0,0,0,.492.492h9.548a.465.465,0,0,0,.492-.492v-9.548a.465.465,0,0,0-.492-.492H97.392a.465.465,0,0,0-.492.492Z" transform="translate(-35.772 -66.879)" fill="#6ea5d4" fill-rule="evenodd"/>
      <path id="Path_15849" data-name="Path 15849" d="M63.9,101.292v9.548a.465.465,0,0,0,.492.492H73.94a.465.465,0,0,0,.492-.492v-9.548a.465.465,0,0,0-.492-.492H64.392a.527.527,0,0,0-.492.492Z" transform="translate(-35.255 -66.643)" fill="#6ea5d4" fill-rule="evenodd"/>
      <path id="Path_15850" data-name="Path 15850" d="M80.4,101.292v9.548a.465.465,0,0,0,.492.492H90.44a.465.465,0,0,0,.492-.492v-9.548a.465.465,0,0,0-.492-.492H80.892a.465.465,0,0,0-.492.492Z" transform="translate(-35.514 -66.643)" fill="#6ea5d4" fill-rule="evenodd"/>
      <path id="Path_15851" data-name="Path 15851" d="M96.9,101.292v9.548a.465.465,0,0,0,.492.492h9.548a.465.465,0,0,0,.492-.492v-9.548a.465.465,0,0,0-.492-.492H97.392a.465.465,0,0,0-.492.492Z" transform="translate(-35.772 -66.643)" fill="#6ea5d4" fill-rule="evenodd"/>
    </g>
    <g id="Group_4081" data-name="Group 4081" transform="translate(134.607 103.188)">
      <ellipse id="Ellipse_355" data-name="Ellipse 355" cx="95.268" cy="5.335" rx="95.268" ry="5.335" transform="translate(0 114.626)" fill="#d5ebfa"/>
      <g id="Group_4074" data-name="Group 4074" transform="translate(37.04 34.027)">
        <g id="Group_4060" data-name="Group 4060" transform="translate(77.281 80.141)">
          <line id="Line_285" data-name="Line 285" x1="36.278" y1="11.737" fill="none" stroke="#6ea5d4" stroke-linecap="round" stroke-linejoin="round" stroke-width="1"/>
          <line id="Line_286" data-name="Line 286" y1="9.146" x2="2.896" transform="translate(36.278 2.591)" fill="none" stroke="#6ea5d4" stroke-linecap="round" stroke-linejoin="round" stroke-width="1"/>
        </g>
        <g id="Group_4061" data-name="Group 4061" transform="translate(0 80.141)">
          <line id="Line_287" data-name="Line 287" y1="11.227" x2="33.608" transform="translate(2.896 0.51)" fill="none" stroke="#6ea5d4" stroke-linecap="round" stroke-linejoin="round" stroke-width="1"/>
          <line id="Line_288" data-name="Line 288" x1="2.896" y1="9.146" transform="translate(0 2.591)" fill="none" stroke="#6ea5d4" stroke-linecap="round" stroke-linejoin="round" stroke-width="1"/>
        </g>
        <g id="Group_4062" data-name="Group 4062" transform="translate(36.806 0)">
          <rect id="Rectangle_2563" data-name="Rectangle 2563" width="7.164" height="4.725" transform="matrix(0.966, -0.259, 0.259, 0.966, 6.887, 1.869)" fill="#ade"/>
          <line id="Line_289" data-name="Line 289" x2="1.219" y2="4.573" transform="translate(8.161 6.519)" fill="none" stroke="#6ea5d4" stroke-linecap="round" stroke-linejoin="round" stroke-width="1"/>
          <rect id="Rectangle_2564" data-name="Rectangle 2564" width="14.328" height="4.725" transform="matrix(0.966, -0.259, 0.259, 0.966, 0, 3.71)" fill="none" stroke="#6ea5d4" stroke-linecap="round" stroke-linejoin="round" stroke-width="1"/>
        </g>
        <path id="Path_15852" data-name="Path 15852" d="M145.279,184.957a38.106,38.106,0,1,1,52.13-13.871A38.008,38.008,0,0,1,145.279,184.957Z" transform="translate(-108.391 -104.054)" fill="none" stroke="#6ea5d4" stroke-linecap="round" stroke-linejoin="round" stroke-width="1"/>
        <path id="Path_15853" data-name="Path 15853" d="M134.811,160.134a31.849,31.849,0,0,1,22.559-39.022,32.181,32.181,0,0,1,23.322,2.744,31.586,31.586,0,0,0-26.675-4.878A32.02,32.02,0,0,0,131.458,158a31.342,31.342,0,0,0,15.548,19.663A30.572,30.572,0,0,1,134.811,160.134Z" transform="translate(-106.155 -101.942)" fill="#ade"/>
        <g id="Group_4065" data-name="Group 4065" transform="translate(28.352 20.39)">
          <line id="Line_290" data-name="Line 290" x1="1.219" y1="4.573" transform="translate(33.839 50.606)" fill="none" stroke="#6ea5d4" stroke-linecap="round" stroke-linejoin="round" stroke-width="1"/>
          <line id="Line_291" data-name="Line 291" x1="4.725" y2="1.219" transform="translate(0 33.687)" fill="none" stroke="#6ea5d4" stroke-linecap="round" stroke-linejoin="round" stroke-width="1"/>
          <line id="Line_292" data-name="Line 292" y1="1.219" x2="4.725" transform="translate(50.606 20.121)" fill="none" stroke="#6ea5d4" stroke-linecap="round" stroke-linejoin="round" stroke-width="1"/>
          <line id="Line_293" data-name="Line 293" x1="1.219" y1="4.573" transform="translate(20.273)" fill="none" stroke="#6ea5d4" stroke-linecap="round" stroke-linejoin="round" stroke-width="1"/>
          <g id="Group_4063" data-name="Group 4063">
            <line id="Line_294" data-name="Line 294" y1="1.677" x2="0.457" transform="translate(20.273 53.502)" fill="none" stroke="#6ea5d4" stroke-linecap="round" stroke-linejoin="round" stroke-width="1"/>
            <line id="Line_295" data-name="Line 295" x1="1.677" y1="0.457" transform="translate(0 20.121)" fill="none" stroke="#6ea5d4" stroke-linecap="round" stroke-linejoin="round" stroke-width="1"/>
            <line id="Line_296" data-name="Line 296" x2="1.677" y2="0.457" transform="translate(53.655 34.449)" fill="none" stroke="#6ea5d4" stroke-linecap="round" stroke-linejoin="round" stroke-width="1"/>
            <line id="Line_297" data-name="Line 297" y1="1.524" x2="0.457" transform="translate(34.601)" fill="none" stroke="#6ea5d4" stroke-linecap="round" stroke-linejoin="round" stroke-width="1"/>
          </g>
          <g id="Group_4064" data-name="Group 4064" transform="translate(7.469 7.317)">
            <line id="Line_298" data-name="Line 298" y1="1.219" x2="1.219" transform="translate(0 39.174)" fill="none" stroke="#6ea5d4" stroke-linecap="round" stroke-linejoin="round" stroke-width="1"/>
            <line id="Line_299" data-name="Line 299" x1="1.219" y1="1.219" fill="none" stroke="#6ea5d4" stroke-linecap="round" stroke-linejoin="round" stroke-width="1"/>
            <line id="Line_300" data-name="Line 300" x2="1.219" y2="1.219" transform="translate(39.174 39.174)" fill="none" stroke="#6ea5d4" stroke-linecap="round" stroke-linejoin="round" stroke-width="1"/>
            <line id="Line_301" data-name="Line 301" y1="1.219" x2="1.219" transform="translate(39.174)" fill="none" stroke="#6ea5d4" stroke-linecap="round" stroke-linejoin="round" stroke-width="1"/>
          </g>
        </g>
        <g id="Group_4066" data-name="Group 4066" transform="translate(52.435 45.778)">
          <line id="Line_302" data-name="Line 302" x2="6.25" y2="3.506" transform="translate(5.64 3.573)" fill="none" stroke="#6ea5d4" stroke-linecap="round" stroke-linejoin="round" stroke-width="1"/>
          <line id="Line_303" data-name="Line 303" y1="4.268" x2="2.439" transform="translate(0 4.335)" fill="none" stroke="#6ea5d4" stroke-linecap="round" stroke-linejoin="round" stroke-width="1"/>
          <path id="Path_15854" data-name="Path 15854" d="M152.719,142.1a2.366,2.366,0,1,0-2.9-1.677A2.36,2.36,0,0,0,152.719,142.1Z" transform="translate(-148.451 -137.456)" fill="none" stroke="#6ea5d4" stroke-linecap="round" stroke-linejoin="round" stroke-width="1"/>
        </g>
        <path id="Path_15855" data-name="Path 15855" d="M171.339,182.566a33.369,33.369,0,1,1,23.626-40.851A33.343,33.343,0,0,1,171.339,182.566Z" transform="translate(-106.71 -102.424)" fill="none" stroke="#6ea5d4" stroke-linecap="round" stroke-linejoin="round" stroke-width="1"/>
        <g id="Group_4067" data-name="Group 4067" transform="translate(86.503 64.746)">
          <path id="Path_15856" data-name="Path 15856" d="M173.9,149.9a19.044,19.044,0,0,1,0,26.98" transform="translate(-169.861 -149.9)" fill="none" stroke="#6ea5d4" stroke-linecap="round" stroke-linejoin="round" stroke-width="1"/>
          <path id="Path_15857" data-name="Path 15857" d="M171.936,171.189a2.371,2.371,0,1,1,3.353,0A2.392,2.392,0,0,1,171.936,171.189Z" transform="translate(-171.25 -140.856)" fill="none" stroke="#6ea5d4" stroke-linecap="round" stroke-linejoin="round" stroke-width="1"/>
        </g>
        <g id="Group_4069" data-name="Group 4069" transform="translate(45.424 56.668)">
          <g id="Group_4068" data-name="Group 4068" transform="translate(15.548 0.762)">
            <path id="Path_15858" data-name="Path 15858" d="M163.646,145.1c1.677,6.4.3,9.6-2.134,10.213-2.591.61-5.335-1.372-7.012-7.774Z" transform="translate(-154.5 -145.1)" fill="none" stroke="#6ea5d4" stroke-linecap="round" stroke-linejoin="round" stroke-width="1"/>
            <path id="Path_15859" data-name="Path 15859" d="M159.863,153.174c-.915,0-2.744-1.677-3.963-6.4l4.878-1.372c.762,3.658.762,5.335.61,6.1-.3,1.067-.762,1.372-1.219,1.372,0,.3-.152.3-.3.3Z" transform="translate(-153.766 -144.943)" fill="#ade"/>
          </g>
          <line id="Line_304" data-name="Line 304" y1="7.317" x2="27.59" fill="none" stroke="#6ea5d4" stroke-linecap="round" stroke-linejoin="round" stroke-width="1"/>
        </g>
        <g id="Group_4072" data-name="Group 4072" transform="translate(41.156 34.413)">
          <g id="Group_4070" data-name="Group 4070" transform="translate(0 4.878)">
            <line id="Line_305" data-name="Line 305" x1="7.774" y1="4.573" transform="translate(0 1.677)" fill="none" stroke="#6ea5d4" stroke-linecap="round" stroke-linejoin="round" stroke-width="1"/>
            <line id="Line_306" data-name="Line 306" y1="7.774" x2="4.42" transform="translate(1.677)" fill="none" stroke="#6ea5d4" stroke-linecap="round" stroke-linejoin="round" stroke-width="1"/>
          </g>
          <g id="Group_4071" data-name="Group 4071" transform="translate(18.139)">
            <line id="Line_307" data-name="Line 307" x1="7.774" y1="4.573" transform="translate(0 1.677)" fill="none" stroke="#6ea5d4" stroke-linecap="round" stroke-linejoin="round" stroke-width="1"/>
            <line id="Line_308" data-name="Line 308" y1="7.926" x2="4.42" transform="translate(1.677)" fill="none" stroke="#6ea5d4" stroke-linecap="round" stroke-linejoin="round" stroke-width="1"/>
          </g>
        </g>
        <g id="Group_4073" data-name="Group 4073" transform="translate(23.746 72.215)">
          <path id="Path_15860" data-name="Path 15860" d="M146.878,177.055A14.23,14.23,0,0,1,132.7,154.8" transform="translate(-130.078 -154.8)" fill="none" stroke="#6ea5d4" stroke-linecap="round" stroke-linejoin="round" stroke-width="1"/>
          <path id="Path_15861" data-name="Path 15861" d="M143.087,167.506a2.626,2.626,0,0,0-1.982,2.744,2.524,2.524,0,0,0,2.744,1.982,2.393,2.393,0,0,0-.762-4.725Z" transform="translate(-124.306 -148.147)" fill="none" stroke="#6ea5d4" stroke-linecap="round" stroke-linejoin="round" stroke-width="1"/>
        </g>
      </g>
      <g id="Group_4077" data-name="Group 4077" transform="translate(91.305)">
        <g id="Group_4075" data-name="Group 4075" transform="translate(19.206)">
          <path id="Path_15862" data-name="Path 15862" d="M165.8,85.1v9.451" transform="translate(-161.075 -85.1)" fill="none" stroke="#ade" stroke-miterlimit="10" stroke-width="1"/>
          <path id="Path_15863" data-name="Path 15863" d="M162.7,88.2h9.451" transform="translate(-162.7 -83.475)" fill="none" stroke="#ade" stroke-miterlimit="10" stroke-width="1"/>
        </g>
        <g id="Group_4076" data-name="Group 4076" transform="translate(7.926 22.102)">
          <path id="Path_15864" data-name="Path 15864" d="M158.5,99.6v9.6" transform="translate(-153.622 -99.6)" fill="none" stroke="#ade" stroke-miterlimit="10" stroke-width="1"/>
          <path id="Path_15865" data-name="Path 15865" d="M155.3,102.8h9.6" transform="translate(-155.3 -97.922)" fill="none" stroke="#ade" stroke-miterlimit="10" stroke-width="1"/>
        </g>
        <circle id="Ellipse_356" data-name="Ellipse 356" cx="2.439" cy="2.439" r="2.439" transform="translate(32.772 12.347)" fill="none" stroke="#ade" stroke-miterlimit="10" stroke-width="1"/>
        <circle id="Ellipse_357" data-name="Ellipse 357" cx="2.439" cy="2.439" r="2.439" transform="translate(0 5.487)" fill="none" stroke="#ade" stroke-miterlimit="10" stroke-width="1"/>
      </g>
      <g id="Group_4080" data-name="Group 4080" transform="translate(52.13 14.023)">
        <g id="Group_4078" data-name="Group 4078" transform="translate(20.425 6.707)">
          <path id="Path_15866" data-name="Path 15866" d="M140.9,108.151V98.7" transform="translate(-136.175 -98.7)" fill="none" stroke="#ade" stroke-miterlimit="10" stroke-width="1"/>
          <path id="Path_15867" data-name="Path 15867" d="M137.8,101.8h9.451" transform="translate(-137.8 -97.075)" fill="none" stroke="#ade" stroke-miterlimit="10" stroke-width="1"/>
        </g>
        <g id="Group_4079" data-name="Group 4079">
          <path id="Path_15868" data-name="Path 15868" d="M127.6,103.751V94.3" transform="translate(-122.722 -94.3)" fill="none" stroke="#ade" stroke-miterlimit="10" stroke-width="1"/>
          <path id="Path_15869" data-name="Path 15869" d="M124.4,97.4H134" transform="translate(-124.4 -92.675)" fill="none" stroke="#ade" stroke-miterlimit="10" stroke-width="1"/>
        </g>
        <path id="Path_15870" data-name="Path 15870" d="M130.736,110.136a2.371,2.371,0,1,0,3.353,0A2.392,2.392,0,0,0,130.736,110.136Z" transform="translate(-121.438 -86.357)" fill="none" stroke="#ade" stroke-miterlimit="10" stroke-width="1"/>
      </g>
    </g>
  </g>
</svg>
