<?xml version="1.0" encoding="utf-8"?>
<!-- Generator: Adobe Illustrator 26.3.1, SVG Export Plug-In . SVG Version: 6.00 Build 0)  -->
<svg version="1.1" xmlns="http://www.w3.org/2000/svg" xmlns:xlink="http://www.w3.org/1999/xlink" x="0px" y="0px"
	 viewBox="0 0 6000 3400" style="enable-background:new 0 0 6000 3400;" xml:space="preserve">
<style type="text/css">
	.st0{fill:#E6EAFF;}
	.st1{opacity:0.44;}
	.st2{fill:#32AB8D;}
	.st3{fill:#FFFFFF;}
	.st4{fill:#2BCA96;}
	.st5{fill:url(#SVGID_1_);}
	.st6{fill:url(#SVGID_00000029012781789509065150000012270219122555752127_);}
	.st7{opacity:0.37;fill:#16168C;}
	.st8{fill:url(#SVGID_00000062165443732824957890000002156167538284177048_);}
	.st9{fill:url(#SVGID_00000171703801281134418510000006341196545714711953_);}
	.st10{fill:#E5D6E9;}
	.st11{fill:#030D74;}
</style>
<g id="Background">
</g>
<g id="Computer">
	<g>
		<g>
			<path class="st0" d="M1389.8,3020.2c0,0-833.3-1673.4,53.5-2544.8c847.5-832.8,1259.8,246.5,2378.5,246.5
				c884.5,0,1636.4,490.8,881,2038l-55.6,260.3H1389.8z"/>
			<path class="st0" d="M4287.1,3020.9L4287.1,3020.9c-611,0-1106.4-495.3-1106.4-1106.4v0c0-611,495.3-1106.4,1106.4-1106.4h0
				c611,0,1106.4,495.3,1106.4,1106.4v0C5393.5,2525.6,4898.2,3020.9,4287.1,3020.9z"/>
			<path class="st0" d="M1575.2,3020.9L1575.2,3020.9c-418.7,0-758.1-339.4-758.1-758.1v0c0-418.7,339.4-758.1,758.1-758.1h0
				c418.7,0,758.1,339.4,758.1,758.1v0C2333.3,2681.5,1993.9,3020.9,1575.2,3020.9z"/>
			<path class="st0" d="M2655.3,829.8L2655.3,829.8c-184.7,0-334.4-149.7-334.4-334.4v0c0-184.7,149.7-334.4,334.4-334.4h0
				c184.7,0,334.4,149.7,334.4,334.4v0C2989.7,680.1,2840,829.8,2655.3,829.8z"/>
		</g>
		<g class="st1">
			<path class="st2" d="M1526.7,2019.6c-20.3-4.7-41.1-8.4-59.8-17.6s-35.4-25.1-39.5-45.6c-5.3-26.1,10.6-54.8-0.6-79
				c-9-19.5-32.3-28-53.6-30.4s-43.6-0.8-63.6-8.7c-44.4-17.6-58.8-80.1-34.6-121.3s75.8-60.4,123.4-57.1
				c47.7,3.3,91.9,25.6,132.2,51.2c115.1,73.3,208.2,179.4,269,301.3c15.3,30.7,28.5,62.4,39.6,94.9c6,17.6,17.8,123.3,17.8,123.3
				s-108.8-100.8-128.5-115.8C1668.6,2069.7,1599.6,2036.7,1526.7,2019.6z"/>
			<path class="st3" d="M1858.2,2234.5c-1.9,0.7-4.1-0.1-5.1-2c-1.5-3.1-150.2-307.3-444-469.6c-2-1.1-2.7-3.6-1.6-5.5
				c1.1-2,3.5-2.7,5.5-1.6c296.1,163.7,445.9,470.2,447.4,473.2c1,2,0.1,4.5-1.9,5.4C1858.4,2234.4,1858.3,2234.5,1858.2,2234.5z"/>
			<path class="st4" d="M1554,2209c-15.2,4.7-30.3,10.3-46.1,11.4c-15.8,1.1-33-2.9-43.5-14.8c-13.5-15.2-14.1-40.1-30.8-51.8
				c-13.4-9.4-32-6-47,0.6c-15,6.6-29,16.3-45.2,18.7c-36,5.5-69.5-30.1-69.4-66.6c0.1-36.4,26.7-68.9,59.3-85
				c32.6-16.1,70.3-18.5,106.7-17.1c103.9,4,206,38,292.9,94.9c21.9,14.3,42.8,30.1,62.5,47.3c10.7,9.3,59.1,74.3,59.1,74.3
				s-110.4-24.5-129.1-26.8C1666.7,2187.3,1608.6,2192.1,1554,2209z"/>
			<path class="st3" d="M1853.9,2224.8c-1.2,0.4-2.6,0.3-3.7-0.4c-2.1-1.4-216.8-144.3-472.2-138.2c-2.2,0-4.1-1.7-4.1-4
				c-0.1-2.2,1.7-4.1,4-4.1c258.1-6.1,474.8,138.2,476.9,139.6c1.9,1.3,2.3,3.8,1.1,5.6C1855.3,2224,1854.6,2224.5,1853.9,2224.8z"
				/>
		</g>
		<g class="st1">
			<path class="st2" d="M4392.3,2376.8c16-3.7,32.4-6.6,47.1-13.8s27.9-19.8,31.1-35.9c4.1-20.6-8.3-43.1,0.5-62.2
				c7.1-15.4,25.4-22,42.2-23.9c16.8-1.9,34.3-0.6,50.1-6.9c34.9-13.8,46.2-63.1,27.2-95.5s-59.6-47.6-97.1-44.9
				c-37.5,2.6-72.3,20.1-104,40.3c-90.5,57.7-163.9,141.2-211.7,237.1c-12,24.2-22.5,49.1-31.1,74.7c-4.7,13.8-14,97-14,97
				s85.6-79.3,101.1-91.1C4280.6,2416.2,4334.9,2390.2,4392.3,2376.8z"/>
			<path class="st3" d="M4131.4,2545.9c1.5,0.6,3.3-0.1,4-1.6c1.2-2.4,118.2-241.8,349.4-369.6c1.5-0.9,2.1-2.8,1.3-4.3
				s-2.8-2.1-4.3-1.3c-233,128.8-350.9,370-352.1,372.4c-0.8,1.6-0.1,3.5,1.5,4.3C4131.2,2545.9,4131.3,2545.9,4131.4,2545.9z"/>
			<path class="st4" d="M4370.8,2525.8c11.9,3.7,23.8,8.1,36.3,9c12.5,0.9,26-2.3,34.3-11.6c10.6-11.9,11.1-31.6,24.2-40.7
				c10.6-7.4,25.2-4.7,37,0.5c11.8,5.2,22.8,12.8,35.6,14.7c28.3,4.3,54.7-23.7,54.6-52.4c0-28.7-21-54.2-46.7-66.9
				s-55.3-14.6-84-13.5c-81.8,3.1-162.1,29.9-230.5,74.7c-17.2,11.3-33.7,23.7-49.2,37.2c-8.4,7.3-46.5,58.5-46.5,58.5
				s86.8-19.3,101.6-21.1C4282.1,2508.8,4327.8,2512.6,4370.8,2525.8z"/>
			<path class="st3" d="M4134.8,2538.3c0.9,0.3,2,0.2,2.9-0.3c1.7-1.1,170.6-113.6,371.6-108.8c1.8,0,3.2-1.4,3.3-3.1
				c0-1.8-1.4-3.2-3.1-3.3c-203.1-4.8-373.6,108.7-375.3,109.9c-1.5,1-1.8,3-0.9,4.4C4133.7,2537.6,4134.2,2538,4134.8,2538.3z"/>
		</g>
		<linearGradient id="SVGID_1_" gradientUnits="userSpaceOnUse" x1="2937.0872" y1="1353.4902" x2="2937.0872" y2="2977.5286">
			<stop  offset="0" style="stop-color:#FFFFFF"/>
			<stop  offset="0.8847" style="stop-color:#FFFFFF"/>
			<stop  offset="0.9432" style="stop-color:#FDFDFD"/>
			<stop  offset="0.9642" style="stop-color:#F7F6F7"/>
			<stop  offset="0.9792" style="stop-color:#EDEBED"/>
			<stop  offset="0.9912" style="stop-color:#DEDADF"/>
			<stop  offset="0.9954" style="stop-color:#D7D2D8"/>
		</linearGradient>
		<path class="st5" d="M4234.1,2977.5H1640V1446.4c0-51.3,41.6-92.9,92.9-92.9h2408.3c51.3,0,92.9,41.6,92.9,92.9V2977.5z"/>
		
			<linearGradient id="SVGID_00000053531249541645287990000010557557964888554167_" gradientUnits="userSpaceOnUse" x1="2937.0872" y1="2962.032" x2="2937.0872" y2="3020.9189">
			<stop  offset="5.454660e-02" style="stop-color:#FFFFFF"/>
			<stop  offset="6.433949e-02" style="stop-color:#FDFDFD"/>
			<stop  offset="0.1355" style="stop-color:#F4F1F4"/>
			<stop  offset="0.2354" style="stop-color:#EFEAEF"/>
			<stop  offset="0.5133" style="stop-color:#EEE8EE"/>
			<stop  offset="0.7158" style="stop-color:#E8E3E9"/>
			<stop  offset="0.967" style="stop-color:#D9D4DA"/>
			<stop  offset="0.9954" style="stop-color:#D7D2D8"/>
		</linearGradient>
		<path style="fill:url(#SVGID_00000053531249541645287990000010557557964888554167_);" d="M4418.6,3020.9H1455.6
			c-32.5,0-58.9-26.4-58.9-58.9l0,0h3080.7l0,0C4477.4,2994.6,4451.1,3020.9,4418.6,3020.9z"/>
		<path class="st7" d="M1703.3,2807.9c0,50.9,41.6,92.1,92.9,92.1h2280.2c51.3,0,92.9-41.2,92.9-92.1V1535.2H1703.3V2807.9z"/>
		<path class="st7" d="M4109.5,1406.2H1763.1c-33,0-59.8,26.8-59.8,59.8v58h2465.9v-58C4169.3,1432.9,4142.5,1406.2,4109.5,1406.2z"
			/>
		<circle class="st7" cx="1813" cy="1471.5" r="21.9"/>
		<circle class="st7" cx="1905" cy="1471.5" r="21.9"/>
		<circle class="st7" cx="1997" cy="1471.5" r="21.9"/>
		
			<linearGradient id="SVGID_00000038393354691059770650000000828075492664473483_" gradientUnits="userSpaceOnUse" x1="3105.2712" y1="1915.191" x2="3105.2712" y2="3341.4729">
			<stop  offset="0.1459" style="stop-color:#FFFFFF"/>
			<stop  offset="0.7124" style="stop-color:#D8CCDD"/>
		</linearGradient>
		<path style="fill:url(#SVGID_00000038393354691059770650000000828075492664473483_);" d="M3541.2,2952.8
			c61.4,0.4,96.1,70.9,58.7,119.6c-35,45.4-88.8,75.7-148.3,75.7h-616.7c-52.1,0-96.9,40-99.3,92.1c-2.6,55.5,41.6,101.4,96.6,101.4
			h619.5c210.3,0,380.7-170.4,380.7-380.7v-8.1h1.1l0-269.1c0-3.5-0.8-6.8-1-10.2c0-85.2,0-179.1,0-266
			c0-244.3-336.4-492.2-722.3-492.2c-385.9,0-732.9,318.7-732.9,559.4c0,240.8,0,478,0,478h1139.6L3541.2,2952.8z"/>
		
			<linearGradient id="SVGID_00000131329056146373313080000014068808010668541605_" gradientUnits="userSpaceOnUse" x1="2377.1382" y1="2279.8867" x2="2377.1382" y2="2952.6265">
			<stop  offset="0.339" style="stop-color:#FFFFFF"/>
			<stop  offset="1" style="stop-color:#E5D6E9"/>
		</linearGradient>
		<circle style="fill:url(#SVGID_00000131329056146373313080000014068808010668541605_);" cx="2377.1" cy="2616.3" r="336.4"/>
		<path class="st3" d="M2068.7,2246.7c-1.2-19.5,19.2-33,36.7-24.3l79.7,39.7l100.5,50c8.3,4.1,9,15.6,1.3,20.7l-93.6,62l-93.6,62
			c-7.7,5.1-18,0-18.6-9.3l-6.9-112L2068.7,2246.7z"/>
		<path class="st10" d="M2125.8,2310.4c-0.5-8.5,8.3-14.3,15.9-10.5l47.1,23.5l48.8,24.3c6.8,3.4,7.4,13,1.1,17.2l-45.4,30.1
			l-45.4,30.1c-6.4,4.2-14.9,0-15.4-7.7l-3.3-54.4L2125.8,2310.4z"/>
		<path class="st3" d="M2686.9,2246.7c1.2-19.5-19.2-33-36.7-24.3l-79.7,39.7l-100.5,50c-8.3,4.1-9,15.6-1.3,20.7l93.6,62l93.6,62
			c7.7,5.1,18,0,18.6-9.3l6.9-112L2686.9,2246.7z"/>
		<path class="st10" d="M2629.8,2310.4c0.5-8.5-8.3-14.3-15.9-10.5l-47.1,23.5l-48.8,24.3c-6.8,3.4-7.4,13-1.1,17.2l45.4,30.1
			l45.4,30.1c6.4,4.2,14.9,0,15.4-7.7l3.3-54.4L2629.8,2310.4z"/>
		<path class="st10" d="M2376,2752c-6.6,11.5-23.2,11.5-29.8,0l-14.5-25.2l-19.6-33.9c-4.4-7.6,1.1-17.1,9.9-17.1h39.2h39.2
			c8.8,0,14.2,9.5,9.9,17.1l-19.6,33.9L2376,2752z"/>
		<path class="st11" d="M2264,2621.8h-60.5c-3,0-5.5-2.5-5.5-5.5l0,0c0-3,2.5-5.5,5.5-5.5h60.5c3,0,5.5,2.5,5.5,5.5l0,0
			C2269.5,2619.3,2267,2621.8,2264,2621.8z"/>
		<path class="st11" d="M2507,2621.8h-60.5c-3,0-5.5-2.5-5.5-5.5l0,0c0-3,2.5-5.5,5.5-5.5h60.5c3,0,5.5,2.5,5.5,5.5l0,0
			C2512.5,2619.3,2510,2621.8,2507,2621.8z"/>
		<g>
			<g>
				<path class="st3" d="M2074.1,1968.5h-34.5c-4.4,0-9.7-2.5-9.7-9.3c0-6.9,5.2-9.3,9.7-9.3h56.8c6.4,0,9.8,4.3,9.8,10.5
					c0,2.6-1.5,5.6-3.8,8l-44.2,48.4h39.3c4.4,0,9.7,2.5,9.7,9.3c0,6.9-5.2,9.3-9.7,9.3h-60.9c-7,0-10.6-4.6-10.6-9.3
					c0-3.4,1-6.4,3.1-8.7L2074.1,1968.5z"/>
			</g>
			<g>
				<path class="st3" d="M2291.9,1876.7h-44.8c-5.7,0-12.5-3.2-12.5-12.1c0-8.9,6.8-12.1,12.5-12.1h73.6c8.3,0,12.7,5.5,12.7,13.6
					c0,3.4-1.9,7.2-4.9,10.4l-57.3,62.8h50.9c5.7,0,12.5,3.2,12.5,12.1s-6.8,12.1-12.5,12.1h-79c-9.1,0-13.8-5.9-13.8-12.1
					c0-4.5,1.3-8.3,4-11.2L2291.9,1876.7z"/>
			</g>
			<g>
				<path class="st3" d="M2196.9,2078.4h-30.5c-3.9,0-8.5-2.2-8.5-8.2c0-6.1,4.6-8.2,8.5-8.2h50.2c5.6,0,8.7,3.8,8.7,9.3
					c0,2.3-1.3,4.9-3.3,7.1l-39,42.8h34.7c3.9,0,8.5,2.2,8.5,8.2c0,6.1-4.6,8.2-8.5,8.2h-53.8c-6.2,0-9.4-4-9.4-8.2
					c0-3,0.9-5.6,2.7-7.7L2196.9,2078.4z"/>
			</g>
		</g>
	</g>
</g>
</svg>
