<svg xmlns="http://www.w3.org/2000/svg" width="205.612" height="195.943" viewBox="0 0 205.612 195.943">
  <g id="Group_4874" data-name="Group 4874" transform="translate(-672 -402)">
    <path id="Path_16122" data-name="Path 16122" d="M441.993,1231.537H284.019a23.82,23.82,0,0,1-23.819-23.818h0a23.821,23.821,0,0,1,23.819-23.818H441.993a23.821,23.821,0,0,1,23.819,23.818h0A23.821,23.821,0,0,1,441.993,1231.537Z" transform="translate(411.8 -658.374)" fill="#e6f4ff"/>
    <path id="Path_16123" data-name="Path 16123" d="M480.55,659.223H323.812A21.511,21.511,0,0,1,302.3,637.712h0A21.511,21.511,0,0,1,323.812,616.2H480.55a21.511,21.511,0,0,1,21.512,21.512h0A21.511,21.511,0,0,1,480.55,659.223Z" transform="translate(375.551 -169.564)" fill="#e6f4ff"/>
    <path id="Path_16124" data-name="Path 16124" d="M743.338,419.052H639.976A12.075,12.075,0,0,1,627.9,406.976h0A12.075,12.075,0,0,1,639.976,394.9H743.338a12.075,12.075,0,0,1,12.076,12.076h0A12.075,12.075,0,0,1,743.338,419.052Z" transform="translate(95.197 20.982)" fill="#e6f4ff"/>
    <path id="Path_16125" data-name="Path 16125" d="M610.277,961.581H448.8a17.941,17.941,0,0,0,0-35.881H609.985a17.2,17.2,0,0,0-12.118,5.253,17.944,17.944,0,0,0,12.41,30.628Z" transform="translate(249.409 -436.055)" fill="#e6f4ff"/>
    <g id="Group_4850" data-name="Group 4850" transform="translate(699.682 426.958)">
      <path id="Path_16126" data-name="Path 16126" d="M551.422,596.472H549.81a1,1,0,1,1,0-2h1.612a10.359,10.359,0,0,0,2.543-.306,1,1,0,1,1,.472,1.945A12.973,12.973,0,0,1,551.422,596.472Zm-7.129,0h-4.419a1,1,0,1,1,0-2h4.419a1,1,0,1,1,0,2Zm-9.936,0h-4.419a1,1,0,1,1,0-2h4.419a1,1,0,1,1,0,2Zm-9.936,0H520a1,1,0,1,1,0-2h4.419a1,1,0,1,1,0,2Zm-9.922,0H510.08a1,1,0,1,1,0-2H514.5a1,1,0,0,1,1,1A1.014,1.014,0,0,1,514.5,596.472Zm-9.936,0h-4.419a1,1,0,1,1,0-2h4.419a1,1,0,1,1,0,2Zm-9.936,0h-4.419a1,1,0,1,1,0-2h4.419a1,1,0,1,1,0,2Zm-9.936,0h-4.419a1,1,0,1,1,0-2h4.419a1,1,0,1,1,0,2Zm-9.922,0h-2.543a13.76,13.76,0,0,1-2.015-.153,1,1,0,1,1,.306-1.973,11.654,11.654,0,0,0,1.709.139h2.543a1,1,0,0,1,1,1A1.012,1.012,0,0,1,474.769,596.472Zm-9.463-2.237a.923.923,0,0,1-.584-.195,12.9,12.9,0,0,1-3.28-3.446,1,1,0,0,1,1.681-1.1,10.843,10.843,0,0,0,2.765,2.918,1,1,0,0,1,.222,1.39A.956.956,0,0,1,465.306,594.235Zm93.759-.584a1.036,1.036,0,0,1-.764-.347.992.992,0,0,1,.111-1.4,10.8,10.8,0,0,0,2.529-3.127,1,1,0,1,1,1.765.959,12.82,12.82,0,0,1-2.988,3.7A1.033,1.033,0,0,1,559.065,593.651Zm-98.6-7.754a.983.983,0,0,1-.987-.889c-.042-.445-.069-.9-.069-1.362v-3.154a1,1,0,1,1,2,0v3.154a10.682,10.682,0,0,0,.056,1.153.99.99,0,0,1-.889,1.1Zm102.764-.931h-.028a1,1,0,0,1-.973-1.028v-4.391a1,1,0,0,1,2,0v4.447A1,1,0,0,1,563.234,584.966ZM460.4,575.975a1,1,0,0,1-1-1v-4.419a1,1,0,0,1,2,0v4.419A1,1,0,0,1,460.4,575.975Zm102.834-.945a1,1,0,0,1-1-1V569.61a1,1,0,0,1,2,0v4.419A1,1,0,0,1,563.234,575.03ZM460.4,566.039a1,1,0,0,1-1-1v-4.419a1,1,0,0,1,2,0v4.419A1,1,0,0,1,460.4,566.039Zm102.834-.945a1,1,0,0,1-1-1v-4.419a1,1,0,0,1,2,0v4.419A1,1,0,0,1,563.234,565.094ZM460.4,556.1a1,1,0,0,1-1-1v-4.419a1,1,0,1,1,2,0V555.1A1,1,0,0,1,460.4,556.1Zm102.834-.931a1,1,0,0,1-1-1v-4.419a1,1,0,0,1,2,0v4.419A1,1,0,0,1,563.234,555.172ZM460.4,546.181a1,1,0,0,1-1-1v-4.419a1,1,0,0,1,2,0v4.419A1,1,0,0,1,460.4,546.181Zm102.834-.945a1,1,0,0,1-1-1v-4.419a1,1,0,0,1,2,0v4.419A1,1,0,0,1,563.234,545.236ZM460.4,536.245a1,1,0,0,1-1-1v-4.419a1,1,0,0,1,2,0v4.419A1,1,0,0,1,460.4,536.245Zm102.834-.945a1,1,0,0,1-1-1V529.88a1,1,0,0,1,2,0V534.3A1,1,0,0,1,563.234,535.3ZM460.4,526.309a1,1,0,0,1-1-1v-4.419a1,1,0,0,1,2,0v4.419A1,1,0,0,1,460.4,526.309Zm102.834-.931a1,1,0,0,1-1-1v-4.419a1,1,0,0,1,2,0v4.419A1,1,0,0,1,563.234,525.378Zm-102.834-9a1,1,0,0,1-1-1v-4.419a1,1,0,0,1,2,0v4.419A1,1,0,0,1,460.4,516.373Zm102.834-.931a1,1,0,0,1-1-1v-4.419a1,1,0,0,1,2,0v4.419A1,1,0,0,1,563.234,515.442ZM460.4,506.451a1,1,0,0,1-1-1v-4.419a1,1,0,0,1,2,0v4.419A1,1,0,0,1,460.4,506.451Zm102.834-.945a1,1,0,0,1-1-1v-4.447a1,1,0,1,1,2,0v4.447A1,1,0,0,1,563.234,505.506ZM460.4,496.515a1,1,0,0,1-1-1V491.1a1,1,0,0,1,2,0v4.419A1,1,0,0,1,460.4,496.515Zm101.083-.584a1,1,0,0,1-.792-.389,6.65,6.65,0,0,0-.653-.75l-2.321-2.321a1,1,0,0,1,1.417-1.417l2.321,2.321a10.935,10.935,0,0,1,.834.945,1.009,1.009,0,0,1-.181,1.4A1.087,1.087,0,0,1,561.483,495.931Zm-6.962-7.073a1.011,1.011,0,0,1-.709-.292l-3.127-3.127a1,1,0,0,1,1.417-1.417l3.127,3.127a1,1,0,0,1-.709,1.709Zm-93.982-2.265a.57.57,0,0,1-.153-.014,1,1,0,0,1-.834-1.14,12.96,12.96,0,0,1,1.6-4.489,1,1,0,1,1,1.723,1,10.808,10.808,0,0,0-1.348,3.78A.989.989,0,0,1,460.54,486.593Zm86.95-4.767a1.011,1.011,0,0,1-.709-.292l-2.724-2.724c-.111-.111-.236-.222-.361-.334a1,1,0,1,1,1.32-1.515c.153.139.306.278.445.417l2.724,2.724a1.006,1.006,0,0,1,0,1.417A.9.9,0,0,1,547.49,481.826Zm-81.7-3.321a.978.978,0,0,1-.834-.459,1.008,1.008,0,0,1,.292-1.39,12.735,12.735,0,0,1,4.405-1.807,1,1,0,0,1,.4,1.959,10.681,10.681,0,0,0-3.71,1.515A.978.978,0,0,1,465.792,478.5Zm73.568-1.876h-.07c-.181-.014-.361-.014-.542-.014h-3.808a1,1,0,1,1,0-2h3.808c.222,0,.459.014.681.028a.995.995,0,0,1-.069,1.987Zm-9.936-.028h-4.419a1,1,0,0,1,0-2h4.419a1,1,0,1,1,0,2Zm-9.922,0h-4.419a1,1,0,1,1,0-2H519.5a1,1,0,0,1,1,1A1.014,1.014,0,0,1,519.5,476.6Zm-9.936,0h-4.419a1,1,0,1,1,0-2h4.419a1,1,0,1,1,0,2Zm-9.936,0h-4.419a1,1,0,0,1,0-2h4.419a1,1,0,0,1,0,2Zm-9.936,0h-4.419a1,1,0,0,1,0-2h4.419a1,1,0,0,1,0,2Zm-9.922,0h-4.419a1,1,0,0,1,0-2h4.419a1,1,0,0,1,0,2Z" transform="translate(-459.4 -474.6)" fill="#80bdf0"/>
    </g>
    <g id="Group_4869" data-name="Group 4869" transform="translate(730.703 458.438)">
      <g id="Group_4864" data-name="Group 4864">
        <g id="Group_4852" data-name="Group 4852" transform="translate(70.923 76.134)">
          <g id="Group_4851" data-name="Group 4851">
            <path id="Path_16127" data-name="Path 16127" d="M1216.346,1269.456l-.987.834-5.211,4.377-3.21-3.821-.473-.57-.472-.57-5.92-7.046-.473-.57-.472-.57-5.183-6.184-.472-.57-.473-.57c.208-.139.4-.278.611-.417.9-.639,1.765-1.306,2.626-2.015s1.668-1.459,2.446-2.237c.181-.181.347-.347.514-.528l.472.57.473.57,5.183,6.184.473.57.472.57,5.92,7.046.473.57.472.556,2.376,2.835Z" transform="translate(-1193 -1249)" fill="#b7a6dd"/>
          </g>
        </g>
        <g id="Group_4854" data-name="Group 4854" transform="translate(81.485 89.948)">
          <g id="Group_4853" data-name="Group 4853">
            <path id="Path_16128" data-name="Path 16128" d="M1298.3,1395.584l-28.627-34.116a2.84,2.84,0,0,1,.347-4l10.005-8.394a2.84,2.84,0,0,1,4,.347l28.627,34.116a6.655,6.655,0,0,1-.82,9.38l-4.155,3.488A6.655,6.655,0,0,1,1298.3,1395.584Z" transform="translate(-1269.007 -1348.407)" fill="#d6cdea"/>
          </g>
        </g>
        <g id="Group_4857" data-name="Group 4857">
          <g id="Group_4855" data-name="Group 4855" transform="translate(0.731 0.739)">
            <path id="Path_16129" data-name="Path 16129" d="M773.917,723.861a48.707,48.707,0,1,0-9.811,71.511c.208-.139.4-.278.611-.417s.4-.292.6-.431c.889-.653,1.751-1.334,2.613-2.043s1.668-1.459,2.46-2.21c.181-.167.347-.333.528-.514s.347-.347.514-.528A48.708,48.708,0,0,0,773.917,723.861Zm-62.048,1.834a38.463,38.463,0,0,1,52.918,55.628c-.167.181-.333.361-.514.542s-.347.347-.514.528c-.778.778-1.584,1.515-2.446,2.237s-1.723,1.39-2.626,2.015c-.208.139-.4.278-.611.417s-.417.278-.611.4a38.489,38.489,0,0,1-50.347-7.587A38.517,38.517,0,0,1,711.869,725.695Z" transform="translate(-687.897 -706.456)" fill="#d6cdea"/>
          </g>
          <g id="Group_4856" data-name="Group 4856">
            <path id="Path_16130" data-name="Path 16130" d="M779.336,736.038a49.467,49.467,0,1,0-51.57,63.785c1.459.125,2.918.195,4.363.195a49.4,49.4,0,0,0,27.918-8.671c.208-.139.4-.278.6-.431s.4-.278.6-.431c.889-.653,1.751-1.334,2.6-2.043s1.668-1.445,2.46-2.21c.181-.167.361-.347.528-.514s.347-.347.514-.528a48.751,48.751,0,0,0,8.727-12.1,49.35,49.35,0,0,0,5.225-18.218A48.756,48.756,0,0,0,779.336,736.038Zm.528,18.719a47.676,47.676,0,0,1-13.438,29.322c-.167.181-.347.347-.528.514s-.347.347-.528.514q-1.188,1.147-2.46,2.21c-.848.709-1.723,1.39-2.613,2.043-.195.139-.389.292-.6.431s-.4.278-.611.417a47.972,47.972,0,1,1-27.1-87.617c1.417,0,2.835.056,4.266.181a47.962,47.962,0,0,1,43.607,51.987Z" transform="translate(-682.635 -701.135)" fill="#b7a6dd"/>
          </g>
        </g>
        <g id="Group_4861" data-name="Group 4861" transform="translate(9.483 9.497)">
          <g id="Group_4858" data-name="Group 4858" transform="translate(0.755 0.745)">
            <path id="Path_16131" data-name="Path 16131" d="M825.54,788.844a39.2,39.2,0,1,0-8.671,58.073c.208-.139.417-.278.611-.417s.4-.278.611-.417c.889-.625,1.765-1.306,2.626-2.015s1.668-1.459,2.446-2.237c.181-.181.347-.347.514-.528s.347-.361.514-.542A39.21,39.21,0,0,0,825.54,788.844Zm-1.834,51.375c-.167.181-.333.361-.514.542s-.347.347-.514.528c-.778.778-1.584,1.515-2.446,2.237s-1.723,1.39-2.626,2.015c-.208.139-.4.278-.611.417s-.417.278-.611.4a38.489,38.489,0,0,1-50.347-7.588,38.469,38.469,0,1,1,57.67,1.445Z" transform="translate(-756.309 -774.842)" fill="#fcfcfc"/>
          </g>
          <g id="Group_4859" data-name="Group 4859">
            <path id="Path_16132" data-name="Path 16132" d="M821.42,783.754a39.939,39.939,0,1,0-34.088,65.452c1.2.1,2.376.153,3.557.153a39.511,39.511,0,0,0,21.762-6.49c.208-.139.417-.264.611-.417s.4-.278.611-.417c.9-.639,1.765-1.306,2.626-2.029s1.668-1.459,2.446-2.223c.181-.167.347-.347.514-.528s.347-.361.514-.528a39.96,39.96,0,0,0,1.445-52.973Zm-33.935,63.993a38.474,38.474,0,1,1,31.545-12.159c-.167.181-.333.361-.514.542s-.347.347-.514.528c-.778.778-1.584,1.515-2.446,2.237s-1.723,1.39-2.626,2.015c-.208.139-.4.278-.611.417s-.417.278-.611.4A38.031,38.031,0,0,1,787.485,847.747Z" transform="translate(-750.879 -769.479)" fill="#b7a6dd"/>
          </g>
          <g id="Group_4860" data-name="Group 4860" transform="translate(1.499 1.499)">
            <path id="Path_16133" data-name="Path 16133" d="M828.316,844.887c-.167.181-.334.361-.514.542s-.347.347-.514.528c-.778.778-1.584,1.515-2.446,2.237s-1.723,1.39-2.626,2.015c-.208.139-.4.278-.611.417s-.417.278-.611.4a38.489,38.489,0,0,1-50.347-7.587,38.469,38.469,0,1,1,57.67,1.445Z" transform="translate(-761.663 -780.263)" fill="#fff"/>
          </g>
        </g>
        <g id="Group_4863" data-name="Group 4863" transform="translate(92.985 95.306)">
          <g id="Group_4862" data-name="Group 4862">
            <path id="Path_16134" data-name="Path 16134" d="M1376.367,1416.472a1.282,1.282,0,0,1-.973-.445l-23.318-26.931a1.29,1.29,0,1,1,1.946-1.7l23.318,26.931a1.293,1.293,0,0,1-.973,2.14Z" transform="translate(-1351.765 -1386.965)" fill="#fff"/>
          </g>
        </g>
      </g>
      <g id="Group_4866" data-name="Group 4866" transform="translate(13.223 3.676)">
        <g id="Group_4865" data-name="Group 4865">
          <path id="Path_16135" data-name="Path 16135" d="M778.738,746.642a1.014,1.014,0,0,1-.584-.195.948.948,0,0,1-.167-1.32,45.441,45.441,0,0,1,10.728-9.894,46.116,46.116,0,0,1,13.118-5.975,45.406,45.406,0,0,1,29.183,1.626.942.942,0,0,1-.695,1.751,44.108,44.108,0,0,0-50.847,13.66A.956.956,0,0,1,778.738,746.642Z" transform="translate(-777.792 -727.589)" fill="#fff"/>
        </g>
      </g>
      <g id="Group_4868" data-name="Group 4868" transform="translate(6.889 24.963)">
        <g id="Group_4867" data-name="Group 4867">
          <path id="Path_16136" data-name="Path 16136" d="M733.153,889.541a1.029,1.029,0,0,1-.347-.07.937.937,0,0,1-.528-1.223,45.018,45.018,0,0,1,3.544-7.032.939.939,0,1,1,1.6.987,43.232,43.232,0,0,0-3.391,6.754A.95.95,0,0,1,733.153,889.541Z" transform="translate(-732.21 -880.768)" fill="#fff"/>
        </g>
      </g>
    </g>
    <g id="Group_4870" data-name="Group 4870" transform="translate(700.001 402)">
      <path id="Path_16137" data-name="Path 16137" d="M462.7,313.01a1,1,0,0,1-1-1V296a1,1,0,0,1,2,0v16.023A.993.993,0,0,1,462.7,313.01Z" transform="translate(-461.7 -295)" fill="#80bdf0"/>
    </g>
    <g id="Group_4871" data-name="Group 4871" transform="translate(681.77 409.546)">
      <path id="Path_16138" data-name="Path 16138" d="M342.826,362.627a1.011,1.011,0,0,1-.709-.292l-11.326-11.326a1,1,0,0,1,1.417-1.417l11.326,11.326a1,1,0,0,1-.709,1.709Z" transform="translate(-330.5 -349.3)" fill="#80bdf0"/>
    </g>
    <g id="Group_4872" data-name="Group 4872" transform="translate(674.21 427.778)">
      <path id="Path_16139" data-name="Path 16139" d="M293.123,482.5H277.1a1,1,0,0,1,0-2h16.023a1,1,0,0,1,0,2Z" transform="translate(-276.1 -480.5)" fill="#80bdf0"/>
    </g>
    <g id="Group_4873" data-name="Group 4873" transform="translate(767.611 484.934)">
      <path id="Path_16140" data-name="Path 16140" d="M961.12,924.081c-1.807,0-2.835-1.2-3.1-3.6l-.375-5.684a3.639,3.639,0,0,1,.723-2.751,4.89,4.89,0,0,1,2.557-1.417,8.9,8.9,0,0,0,4.294-2.237,5.549,5.549,0,0,0,1.515-4.072,6.27,6.27,0,0,0-1.487-4.391,6.176,6.176,0,0,0-9.186.973,7.279,7.279,0,0,1-2.14,2.279,4.039,4.039,0,0,1-2.529.25,4.181,4.181,0,0,1-2.682-1.487,2.575,2.575,0,0,1-.1-2.877,12.6,12.6,0,0,1,4.892-5.308,14.334,14.334,0,0,1,7.546-1.959,15.355,15.355,0,0,1,6.906,1.487,11.058,11.058,0,0,1,4.7,4.294,12.7,12.7,0,0,1,1.709,6.726,9.851,9.851,0,0,1-2.752,7.254,15.287,15.287,0,0,1-7.3,3.919l-.25,4.989C963.872,922.886,962.885,924.081,961.12,924.081Zm-.07,13.577a4.639,4.639,0,0,1-3.377-1.39,4.731,4.731,0,0,1,0-6.754,4.639,4.639,0,0,1,3.377-1.39,4.751,4.751,0,0,1,3.446,1.39,4.584,4.584,0,0,1,1.417,3.4,4.528,4.528,0,0,1-1.417,3.349A4.808,4.808,0,0,1,961.051,937.658Z" transform="translate(-948.228 -891.8)" fill="#b7a6dd"/>
    </g>
  </g>
</svg>
