<svg xmlns="http://www.w3.org/2000/svg" xmlns:xlink="http://www.w3.org/1999/xlink" width="147.452" height="86.608" viewBox="0 0 147.452 86.608">
  <defs>
    <linearGradient id="linear-gradient" x1="0.5" y1="0.982" x2="0.5" y2="0.068" gradientUnits="objectBoundingBox">
      <stop offset="0" stop-color="#d1c2fb"/>
      <stop offset="1" stop-color="#e2d9fd"/>
    </linearGradient>
    <linearGradient id="linear-gradient-2" x1="0.5" y1="1" x2="0.5" gradientUnits="objectBoundingBox">
      <stop offset="0" stop-color="#8260e6"/>
      <stop offset="1" stop-color="#8b67f6"/>
    </linearGradient>
    <linearGradient id="linear-gradient-3" x1="0.35" y1="0.258" x2="0.893" y2="0.811" gradientUnits="objectBoundingBox">
      <stop offset="0.204" stop-color="#a285f8"/>
      <stop offset="1" stop-color="#8b67f6"/>
    </linearGradient>
    <linearGradient id="linear-gradient-4" x1="0.682" y1="0.929" x2="0.357" y2="0.214" gradientUnits="objectBoundingBox">
      <stop offset="0" stop-color="#a285f8"/>
      <stop offset="1" stop-color="#8b67f6"/>
    </linearGradient>
    <linearGradient id="linear-gradient-5" x1="0.5" y1="1" x2="0.5" gradientUnits="objectBoundingBox">
      <stop offset="0" stop-color="#ff3265"/>
      <stop offset="1" stop-color="#ff8094"/>
    </linearGradient>
    <linearGradient id="linear-gradient-6" x1="0.835" y1="0.974" x2="0.34" y2="0.088" gradientUnits="objectBoundingBox">
      <stop offset="0" stop-color="#ff8094"/>
      <stop offset="1" stop-color="#ff3265"/>
    </linearGradient>
  </defs>
  <g id="Group_4192" data-name="Group 4192" transform="translate(-3645.5 -12117)" opacity="0.546">
    <path id="Path_16032" data-name="Path 16032" d="M932.695,497.942c-1.517-1.583-4.569-2.45-5.935-3.852-.7-.716.885-3.533.885-3.533-3.088-4.051-5.171-1.216-5.171-1.216.144,4.448-4.551,5.556-5.845,5.779a1.051,1.051,0,0,0-.331.048c-5.249,1.613-3.154,13.158.259,17.3a57.663,57.663,0,0,0,4.984,12.43c8.867.6,13.2-7.217,13.2-7.217a11.793,11.793,0,0,0-.8-3.455C940.965,513.55,935.307,500.669,932.695,497.942Z" transform="translate(2780.379 11645.405)" fill="#8b67f6"/>
    <path id="Path_16031" data-name="Path 16031" d="M187.858,377H318.714c6.874-9.565,8.6-20.2,3.419-27.16-6.447-8.65-21.405-8.7-35.147-.746-.518-9.023-4.1-16.481-10.624-20.249a20.316,20.316,0,0,0-13.827-2.143c.1-8.054-2.721-14.82-8.361-18.076-10.275-5.929-25.992,2.059-35.105,17.854a48.927,48.927,0,0,0-4.93,11.834,15.689,15.689,0,0,0-9.15-1.818c-12.039,1.415-20.027,17.559-17.854,36.062Q187.415,374.835,187.858,377Z" transform="translate(3462.999 11816.174)" fill="url(#linear-gradient)"/>
    <g id="Group_4182" data-name="Group 4182" transform="translate(3695.521 12133.778)">
      <g id="Group_4160" data-name="Group 4160" transform="translate(0 0.003)">
        <path id="Path_15985" data-name="Path 15985" d="M959.189,490.556s-1.577,2.817-.885,3.533c1.366,1.4,4.418,2.269,5.935,3.852,2.612,2.727,8.271,15.608,1.246,16.289a11.792,11.792,0,0,1,.8,3.455s-4.334,7.819-13.2,7.217c0,0-9.643-16.776-5.243-29.736,0,0,6.344-.662,6.176-5.827C954.024,489.34,956.1,486.505,959.189,490.556Z" transform="translate(-946.692 -488.376)" fill="#f0bea5"/>
      </g>
      <g id="Group_4161" data-name="Group 4161" transform="translate(6.923 0)" opacity="0.2">
        <path id="Path_15986" data-name="Path 15986" d="M1066.214,493.448a8.753,8.753,0,0,1,1.059-2.944c-1.758-2.305-3.184-2.384-4.093-2.022a3.713,3.713,0,0,1-1.126,1.764,4.863,4.863,0,0,1-.355,1.27C1061.706,493.586,1064.746,496.578,1066.214,493.448Z" transform="translate(-1061.7 -488.321)" fill="#ab595c"/>
      </g>
    </g>
    <g id="Group_4191" data-name="Group 4191" transform="translate(3645.5 12193.128)">
      <line id="Line_309" data-name="Line 309" x2="30.97" transform="translate(86.234)" fill="none" stroke="#8b67f6" stroke-miterlimit="10" stroke-width="3"/>
      <line id="Line_310" data-name="Line 310" x2="12.274" transform="translate(0)" fill="none" stroke="#8b67f6" stroke-miterlimit="10" stroke-width="3"/>
      <line id="Line_311" data-name="Line 311" x2="13.417" transform="translate(134.034)" fill="none" stroke="#8b67f6" stroke-miterlimit="10" stroke-width="3"/>
    </g>
    <g id="Group_4181" data-name="Group 4181" transform="translate(3657.767 12157.667)">
      <path id="Path_15987" data-name="Path 15987" d="M408.648,1511h0a1.354,1.354,0,0,1-1.348-1.348v-2.9a1.354,1.354,0,0,1,1.348-1.348h0a1.354,1.354,0,0,1,1.348,1.348v2.9A1.354,1.354,0,0,1,408.648,1511Z" transform="translate(-402.015 -1468.068)" fill="#ab595c"/>
      <path id="Path_15988" data-name="Path 15988" d="M458.119,917.628h-10.1a2.62,2.62,0,0,1-2.618-2.618V903.018a2.62,2.62,0,0,1,2.618-2.618h10.1a2.62,2.62,0,0,1,2.618,2.618v11.991A2.624,2.624,0,0,1,458.119,917.628Zm-10.1-16.018a1.417,1.417,0,0,0-1.415,1.415v11.991a1.417,1.417,0,0,0,1.415,1.415h10.1a1.417,1.417,0,0,0,1.415-1.415v-12a1.417,1.417,0,0,0-1.415-1.415h-10.1Z" transform="translate(-437.822 -899.485)" fill="#fff"/>
      <path id="Path_15989" data-name="Path 15989" d="M345.654,990.6H323.846a4.344,4.344,0,0,0-4.346,4.346v25.9a4.344,4.344,0,0,0,4.346,4.346h21.808a4.344,4.344,0,0,0,4.346-4.346v-25.9A4.348,4.348,0,0,0,345.654,990.6Z" transform="translate(-319.5 -984.256)" fill="#8b67f6"/>
      <path id="Path_15990" data-name="Path 15990" d="M496.03,887.933h-7.163a1.369,1.369,0,0,1-1.366-1.366h0a1.369,1.369,0,0,1,1.366-1.366h7.163a1.369,1.369,0,0,1,1.366,1.366h0A1.369,1.369,0,0,1,496.03,887.933Z" transform="translate(-477.387 -885.2)" fill="#ab595c"/>
      <path id="Path_15991" data-name="Path 15991" d="M420.11,1020.941v-25.9a4.344,4.344,0,0,0-4.346-4.346H398.446a4.344,4.344,0,0,0-4.346,4.346v25.9a4.344,4.344,0,0,0,4.346,4.346h17.318A4.344,4.344,0,0,0,420.11,1020.941Z" transform="translate(-389.609 -984.349)" fill="#9776f7"/>
    </g>
    <g id="Group_4188" data-name="Group 4188" transform="translate(3665.4 12172.547)">
      <path id="Path_15992" data-name="Path 15992" d="M483.159,1231.6H459.593a3.3,3.3,0,0,0-3.293,3.293v10.763a3.3,3.3,0,0,0,3.293,3.293h23.566a3.3,3.3,0,0,0,3.293-3.293v-10.763A3.3,3.3,0,0,0,483.159,1231.6Zm2.089,14.061a2.09,2.09,0,0,1-2.089,2.089H459.593a2.09,2.09,0,0,1-2.089-2.089V1234.9a2.09,2.09,0,0,1,2.089-2.089h23.566a2.09,2.09,0,0,1,2.089,2.089Z" transform="translate(-455.698 -1225.629)" fill="#fff"/>
      <path id="Path_15993" data-name="Path 15993" d="M739.88,1161.7H697.046a4.344,4.344,0,0,1-4.346-4.346v-20.6a4.344,4.344,0,0,1,4.346-4.346H739.88a4.344,4.344,0,0,1,4.346,4.346v20.6A4.34,4.34,0,0,1,739.88,1161.7Z" transform="translate(-677.868 -1132.4)" fill="#ffdf95"/>
      <path id="Path_15994" data-name="Path 15994" d="M739.88,1246.279H697.046a4.344,4.344,0,0,1-4.346-4.346v-15.187a4.344,4.344,0,0,1,4.346-4.346H739.88a4.344,4.344,0,0,1,4.346,4.346v15.187A4.34,4.34,0,0,1,739.88,1246.279Z" transform="translate(-677.868 -1216.983)" fill="#ffd168"/>
      <g id="Group_4165" data-name="Group 4165" transform="translate(19.852 8.764)" opacity="0.25">
        <path id="Path_15995" data-name="Path 15995" d="M816.99,1278h0a1.134,1.134,0,0,1-1.132,1.132H777.232A1.134,1.134,0,0,1,776.1,1278h0" transform="translate(-776.1 -1278)" fill="#ab595c"/>
        <path id="Path_15996" data-name="Path 15996" d="M816.99,1371.2h0a1.134,1.134,0,0,1-1.132,1.132H777.232a1.134,1.134,0,0,1-1.132-1.132h0" transform="translate(-776.1 -1365.59)" fill="#ab595c"/>
        <path id="Path_15997" data-name="Path 15997" d="M816.99,1464.5h0a1.134,1.134,0,0,1-1.132,1.132H777.232a1.134,1.134,0,0,1-1.132-1.132h0" transform="translate(-776.1 -1453.274)" fill="#ab595c"/>
        <path id="Path_15998" data-name="Path 15998" d="M816.99,1557.7h0a1.134,1.134,0,0,1-1.132,1.132H777.232a1.134,1.134,0,0,1-1.132-1.132h0" transform="translate(-776.1 -1540.864)" fill="#ab595c"/>
      </g>
      <path id="Path_15999" data-name="Path 15999" d="M453.915,1237.844h-3.72a1.49,1.49,0,0,1-1.487-1.487v-10.763a1.49,1.49,0,0,1,1.487-1.487h3.72V1221.7h-3.72a3.9,3.9,0,0,0-3.895,3.895v10.763a3.9,3.9,0,0,0,3.895,3.895h3.72Z" transform="translate(-446.3 -1216.325)" fill="#ab595c"/>
    </g>
    <path id="Path_16033" data-name="Path 16033" d="M964.245,591.57a16.934,16.934,0,0,0-4.021-2.522,5.411,5.411,0,0,1-4.659,1.866,7.3,7.3,0,0,1-1.962-.4,6.143,6.143,0,0,1-2.245-1.451,4.125,4.125,0,0,1-.746-1.059,9.976,9.976,0,0,1-2.769.789c-4.4,12.954,5.243,29.736,5.243,29.736,8.867.6,13.2-7.217,13.2-7.217a11.791,11.791,0,0,0-.8-3.455C972.516,607.178,966.857,594.3,964.245,591.57Z" transform="translate(2748.829 11551.777)" fill="url(#linear-gradient-2)"/>
    <path id="Path_16034" data-name="Path 16034" d="M964.942,776.352a20.433,20.433,0,0,1,8.9,2.474c3.431,2.016,9.21,4.677,10.2,1.258,1.083-3.732-11.154-9.348-19.822-6.019-.241.132-.283.638.163.578-.337.114-.295.626.078.59-.373.036-.2.6.138.56C964.364,775.846,964.274,776.448,964.942,776.352Z" transform="translate(2732.523 11377.866)" fill="url(#linear-gradient-3)"/>
    <g id="Group_4183" data-name="Group 4183" transform="translate(3693.499 12140.522)">
      <path id="Path_16002" data-name="Path 16002" d="M920.443,614.461a22.5,22.5,0,0,1,11.178-4.3,16.165,16.165,0,0,1,.211,2.793c-4.015-.181-7.759,8.6-13.676,6.086-4.219-1.788-7.885-16.752-1.854-18.606,2.071-.638,4.731,4.99,6.176,12.653Z" transform="translate(-913.123 -600.381)" fill="#f0bea5"/>
      <path id="Path_16003" data-name="Path 16003" d="M930.844,610.248a23.527,23.527,0,0,0-8.638,3l.247-.169c-1.445-7.663-4.1-13.291-6.176-12.653-6.031,1.854-2.372,16.818,1.854,18.606,5.129,2.173,8.626-4.129,12.081-5.73C929.868,612.957,929.748,610.591,930.844,610.248Z" transform="translate(-913.098 -600.381)" fill="url(#linear-gradient-4)"/>
    </g>
    <g id="Group_4184" data-name="Group 4184" transform="translate(3696.565 12150.917)">
      <path id="Path_16004" data-name="Path 16004" d="M964.942,776.35a20.178,20.178,0,0,1,3.287.409c.042-.018.066-.03.066-.03a20.141,20.141,0,0,1,6.242-3.22,18.8,18.8,0,0,0-10.317.554c-.241.132-.283.638.163.578-.337.114-.295.626.078.59-.373.036-.2.6.138.56C964.364,775.845,964.274,776.447,964.942,776.35Z" transform="translate(-964.042 -773.049)" fill="#f0bea5"/>
      <g id="Group_4168" data-name="Group 4168" transform="translate(0.341 1.224)">
        <path id="Path_16005" data-name="Path 16005" d="M969.7,793.745a23.662,23.662,0,0,1,4.376-.355" transform="translate(-969.7 -793.376)" fill="none" stroke="#ab595c" stroke-miterlimit="10" stroke-width="3"/>
        <path id="Path_16006" data-name="Path 16006" d="M971,805.12a40.072,40.072,0,0,1,4.292-.259" transform="translate(-970.922 -804.161)" fill="none" stroke="#ab595c" stroke-miterlimit="10" stroke-width="3"/>
        <path id="Path_16007" data-name="Path 16007" d="M973.3,816.929a23.213,23.213,0,0,1,4.153,0" transform="translate(-973.083 -815.411)" fill="none" stroke="#ab595c" stroke-miterlimit="10" stroke-width="3"/>
      </g>
      <path id="Path_16008" data-name="Path 16008" d="M1077.715,773.6q-.036.406-.108.831a7.442,7.442,0,0,1-.307,1.168,22.8,22.8,0,0,1,3.678-1.571A23.373,23.373,0,0,0,1077.715,773.6Z" transform="translate(-1070.482 -773.567)" fill="#ae95f9"/>
    </g>
    <g id="Group_4186" data-name="Group 4186" transform="translate(3701.865 12160.153)">
      <g id="Group_4170" data-name="Group 4170" transform="translate(0.001 0)">
        <path id="Path_16009" data-name="Path 16009" d="M1052.371,936.938a1.326,1.326,0,0,1-.241-1.035c.782-3.919,15.319-9.932,27.581-9.372,7.651.241,9.685,10.462,14.754,19.756a1.342,1.342,0,0,0,1.324.692,1.193,1.193,0,0,1,.138-.012l7.982-.488a1.327,1.327,0,0,1,1.384.662h0a1.332,1.332,0,0,1-.451,1.782c-1.4.885-3.714,2.39-5.761,3.8a3.569,3.569,0,0,1-4.84-.722c-4.779-6.1-15.307-6.513-14.248-16.987C1074.727,934.729,1061.4,949.14,1052.371,936.938Z" transform="translate(-1052.106 -926.494)" fill="#f0bea5"/>
      </g>
      <path id="Path_16010" data-name="Path 16010" d="M1090.776,943.457a20.178,20.178,0,0,1,1.565-1.391c-3.7-7.922-6.146-15.325-12.641-15.524-12.261-.554-26.8,5.454-27.581,9.372a1.3,1.3,0,0,0,.241,1.035c9.029,12.2,22.356-2.209,27.635-1.926-.692,6.862,3.588,9.4,7.964,12.057A18.879,18.879,0,0,1,1090.776,943.457Z" transform="translate(-1052.094 -926.506)" fill="url(#linear-gradient-5)"/>
    </g>
    <g id="Group_4185" data-name="Group 4185" transform="translate(3695.672 12117)">
      <path id="Path_16011" data-name="Path 16011" d="M973.825,219.857a4.734,4.734,0,0,0-1.288-2.588v-.03a6.652,6.652,0,0,0-8.217-6.465,6.722,6.722,0,0,1-4.8-.584,4.812,4.812,0,0,0-7.121,4.226v.006a.361.361,0,0,1-.283.355,3.786,3.786,0,0,0-2.661,5.044,5.44,5.44,0,0,1,.253,3.082,4.815,4.815,0,0,0,8.957,3.257l2.986,1.342,1.2.1c.006.1.018.2.03.3a3.787,3.787,0,1,0,6.916-2.636c.018,0,.036-.006.06-.006A4.741,4.741,0,0,0,973.825,219.857Z" transform="translate(-949.2 -209.6)" fill="#ab595c"/>
      <path id="Path_16012" data-name="Path 16012" d="M1053.852,320.2a4.521,4.521,0,0,1-3.2,3.383,1.8,1.8,0,0,0-1.138-.4,1.812,1.812,0,1,0,0,3.624,1.584,1.584,0,0,0,.168-.006,3.476,3.476,0,0,1-.867,5.4c.2,1.685,8.385,7.145,11.72-7.627C1060.046,320.964,1054.562,323.932,1053.852,320.2Z" transform="translate(-1041.771 -313.543)" fill="#f0bea5"/>
    </g>
    <g id="Group_4187" data-name="Group 4187" transform="translate(3715.885 12168.667)">
      <g id="Group_4173" data-name="Group 4173" transform="translate(0 0)">
        <path id="Path_16013" data-name="Path 16013" d="M1298.875,1067.939c-2.889-.15-8.193,4.1-13.875,5.971a56.912,56.912,0,0,0,9.535,1.95.484.484,0,0,1,.283.825c-6.483,6.3-4.352,25.3-4.352,25.3h14.212v-1.9l-9.661-3.973c-1.986-4.515,8.036-13.947,9.739-21.58C1305.28,1072.195,1302.523,1069.9,1298.875,1067.939Z" transform="translate(-1285 -1067.935)" fill="#f0bea5"/>
      </g>
      <g id="Group_4175" data-name="Group 4175" transform="translate(3.883 24.454)">
        <path id="Path_16014" data-name="Path 16014" d="M1366.24,1482.1l-3.8-1.992a14.675,14.675,0,0,1-5.423-4.894l-.421-.638a.864.864,0,0,0-1.2-.241h0c-1.721.909-1.5,5.1-.217,6.657h0a2.048,2.048,0,0,1-2.655-1.956h0c0-1.318-1.709-2.257-3.022-.7v5a1.337,1.337,0,0,0,1.336,1.336h14.856a1.351,1.351,0,0,0,1.336-1.1A1.314,1.314,0,0,0,1366.24,1482.1Z" transform="translate(-1349.5 -1474.191)" fill="#8b67f6"/>
        <g id="Group_4174" data-name="Group 4174" transform="translate(0.006 3.341)">
          <path id="Path_16015" data-name="Path 16015" d="M1366.334,1534.256c-4.43.162-9.24-5.05-11.058-1.1h0a2.048,2.048,0,0,1-2.655-1.956h0c0-1.318-1.709-2.257-3.022-.7v5a1.337,1.337,0,0,0,1.336,1.336h14.856a1.351,1.351,0,0,0,1.336-1.1A1.149,1.149,0,0,0,1366.334,1534.256Z" transform="translate(-1349.6 -1529.687)" fill="#fff"/>
        </g>
        <path id="Path_16016" data-name="Path 16016" d="M1475.092,1547.79l2.793-3.028c-.295-.211-.584-.427-.861-.662l-2.727,2.955a.548.548,0,0,0,.03.765h0A.542.542,0,0,0,1475.092,1547.79Z" transform="translate(-1466.652 -1539.892)" fill="#ab595c"/>
        <path id="Path_16017" data-name="Path 16017" d="M1529.022,1566.861c-.217-.114-.433-.235-.644-.361l-1.481,1.607a.547.547,0,0,0,.03.765.542.542,0,0,0,.764-.03l1.667-1.806Z" transform="translate(-1516.086 -1560.944)" fill="#ab595c"/>
        <path id="Path_16018" data-name="Path 16018" d="M1579.836,1585.4l-.439.476a.541.541,0,0,0,.795.734l.638-.686Z" transform="translate(-1565.426 -1578.706)" fill="#ab595c"/>
        <path id="Path_16019" data-name="Path 16019" d="M1349.6,1626.806a1.341,1.341,0,0,0,1.336,1.294h14.856a1.351,1.351,0,0,0,1.336-1.1c.012-.066.018-.132.024-.2H1349.6Z" transform="translate(-1349.594 -1617.614)" fill="#8b67f6"/>
      </g>
      <path id="Path_16020" data-name="Path 16020" d="M1294.812,1076.685c-2.691,2.612-3.895,7.416-4.388,12.141a25.2,25.2,0,0,1,4.045,0c.813.06,1.625.151,2.438.265,2.612-4.49,6.8-9.86,7.849-14.555.524-2.342-2.233-4.635-5.881-6.6-2.889-.15-8.193,4.1-13.875,5.971a56.912,56.912,0,0,0,9.535,1.95A.484.484,0,0,1,1294.812,1076.685Z" transform="translate(-1285 -1067.935)" fill="url(#linear-gradient-6)"/>
    </g>
    <g id="Group_4190" data-name="Group 4190" transform="translate(3762.704 12173.148)">
      <path id="Path_16021" data-name="Path 16021" d="M2147.36,1154.059h-7.56v-7.879a3.78,3.78,0,1,1,7.56,0Zm-6.754-.807h5.941v-7.073a2.974,2.974,0,1,0-5.947,0v7.073Z" transform="translate(-2135.165 -1142.4)" fill="#ab595c"/>
      <path id="Path_16022" data-name="Path 16022" d="M2079.63,1221.651v-11.136a8.439,8.439,0,0,0-8.415-8.415h0a8.439,8.439,0,0,0-8.415,8.415v11.136a1.947,1.947,0,0,0,1.944,1.944h12.942A1.951,1.951,0,0,0,2079.63,1221.651Z" transform="translate(-2062.8 -1198.506)" fill="#a285f8"/>
      <path id="Path_16023" data-name="Path 16023" d="M2121.412,1280.166v-12.31a5.573,5.573,0,0,0-5.556-5.556h0a5.574,5.574,0,0,0-5.556,5.556v12.31Z" transform="translate(-2107.441 -1255.083)" fill="#c5b3fa"/>
      <rect id="Rectangle_2581" data-name="Rectangle 2581" width="11.118" height="0.548" transform="translate(2.859 14.067)" fill="#ab595c"/>
      <path id="Path_16024" data-name="Path 16024" d="M2178.635,1349.445h0a1.541,1.541,0,0,1-1.535-1.535v-1.475a1.542,1.542,0,0,1,1.535-1.535h0a1.541,1.541,0,0,1,1.535,1.535v1.475A1.541,1.541,0,0,1,2178.635,1349.445Z" transform="translate(-2170.22 -1332.711)" fill="#ab595c"/>
    </g>
    <g id="Group_4189" data-name="Group 4189" transform="translate(3740.739 12178.213)">
      <path id="Path_16025" data-name="Path 16025" d="M1714.026,1226.907l-4.292.644a14.737,14.737,0,0,1-7.259-.71l-.7-.259a.914.914,0,0,0-1.138.506h0c-.939,1.728,1.559,4.924,3.5,5.417h0a2.078,2.078,0,0,1-3.311,0h0c-.728-1.047-2.685-.788-2.926,1.21l1.992,2.859.133.193.638.915a1.339,1.339,0,0,0,1.866.283l12.472-8.692a1.373,1.373,0,0,0,.518-1.649A1.289,1.289,0,0,0,1714.026,1226.907Z" transform="translate(-1697.9 -1226.53)" fill="#8b67f6"/>
      <g id="Group_4179" data-name="Group 4179" transform="translate(0 0.322)">
        <g id="Group_4178" data-name="Group 4178">
          <path id="Path_16026" data-name="Path 16026" d="M1714.026,1231.941c-3.63,2.721-10.546,1.391-9.89,5.592h0a2.078,2.078,0,0,1-3.311,0h0c-.728-1.047-2.685-.788-2.926,1.21l1.992,2.859.133.193.638.915a1.339,1.339,0,0,0,1.866.283L1715,1234.3a1.373,1.373,0,0,0,.518-1.649A1.23,1.23,0,0,0,1714.026,1231.941Z" transform="translate(-1697.9 -1231.886)" fill="#fff"/>
        </g>
      </g>
      <path id="Path_16027" data-name="Path 16027" d="M1832.965,1249.863l.668-4.039c-.361.006-.728,0-1.09-.024l-.656,3.943a.507.507,0,0,0,.445.59h0A.579.579,0,0,0,1832.965,1249.863Z" transform="translate(-1823.816 -1244.64)" fill="#ab595c"/>
      <path id="Path_16028" data-name="Path 16028" d="M1877.183,1242.654q-.37.054-.74.09l-.355,2.143a.507.507,0,0,0,.445.59.581.581,0,0,0,.626-.469l.4-2.408Z" transform="translate(-1865.355 -1241.633)" fill="#ab595c"/>
      <path id="Path_16029" data-name="Path 16029" d="M1920.39,1236.669l-.1.632a.507.507,0,0,0,.445.59.582.582,0,0,0,.626-.469l.151-.921Z" transform="translate(-1906.895 -1235.9)" fill="#ab595c"/>
      <path id="Path_16030" data-name="Path 16030" d="M1744.2,1251.969a1.34,1.34,0,0,0,1.842.247l12.472-8.692a1.373,1.373,0,0,0,.518-1.649,1.641,1.641,0,0,0-.1-.175Z" transform="translate(-1741.413 -1240.787)" fill="#8b67f6"/>
    </g>
  </g>
</svg>
