<svg xmlns="http://www.w3.org/2000/svg" width="138.044" height="86.852" viewBox="0 0 138.044 86.852">
  <g id="total_hours_worked" data-name="total hours worked" transform="translate(-374.1 -689.531)">
    <g id="Group_4096" data-name="Group 4096" transform="translate(382.974 691.155)" style="mix-blend-mode: multiply;isolation: isolate">
      <ellipse id="Ellipse_363" data-name="Ellipse 363" cx="55.051" cy="41.639" rx="55.051" ry="41.639" transform="translate(0 0)" fill="#ebfbff"/>
    </g>
    <g id="Group_4097" data-name="Group 4097" transform="translate(374.1 756.052)" style="mix-blend-mode: multiply;isolation: isolate">
      <path id="Path_15956" data-name="Path 15956" d="M459.8,2766.954c4.837-.971,7.722-2.2,7.722-3.535,0-3.158-16.178-5.719-36.136-5.719s-36.136,2.561-36.136,5.719c0,1.663,4.484,3.158,11.64,4.2-19.681.99-32.794,2.762-32.794,4.785,0,3.1,30.9,5.623,69.02,5.623s69.023-2.516,69.023-5.62C512.144,2769.774,489.864,2767.562,459.8,2766.954Z" transform="translate(-374.1 -2757.7)" fill="#ebfbff"/>
    </g>
    <g id="Group_4118" data-name="Group 4118" transform="translate(378.632 689.531)" opacity="0.795">
      <g id="Group_4098" data-name="Group 4098" transform="translate(19.347 7.933)">
        <rect id="Rectangle_2568" data-name="Rectangle 2568" width="9.91" height="5.172" transform="translate(0 4.685) rotate(-28.215)" fill="#75aaaf"/>
      </g>
      <g id="Group_4099" data-name="Group 4099" transform="translate(8.671 9.938)">
        <circle id="Ellipse_364" data-name="Ellipse 364" cx="31.495" cy="31.495" r="31.495" fill="#6fccd6"/>
      </g>
      <g id="Group_4100" data-name="Group 4100" transform="translate(0 1.267)">
        <circle id="Ellipse_365" data-name="Ellipse 365" cx="28.401" cy="28.401" r="28.401" transform="translate(0 40.164) rotate(-45)" fill="#d5f2f8"/>
      </g>
      <g id="Group_4102" data-name="Group 4102" transform="translate(27.708 18.345)">
        <g id="Group_4101" data-name="Group 4101">
          <path id="Path_15957" data-name="Path 15957" d="M1380.48,1267.418a.626.626,0,0,1-.553-.331l-3.371-6.282a.627.627,0,1,1,1.106-.592l3.371,6.281a.627.627,0,0,1-.257.849A.611.611,0,0,1,1380.48,1267.418Z" transform="translate(-1376.482 -1259.882)" fill="#00b7c9"/>
        </g>
      </g>
      <g id="Group_4103" data-name="Group 4103" transform="translate(18.455 13.026)">
        <path id="Path_15958" data-name="Path 15958" d="M1135.788,1110c-.084-.164-.167-.325-.254-.489a28.413,28.413,0,0,0-46.734-4.892l21.926,18.472Z" transform="translate(-1088.8 -1094.537)" fill="#d5f2f8"/>
      </g>
      <g id="Group_4105" data-name="Group 4105" transform="translate(48.926 57.639)">
        <g id="Group_4104" data-name="Group 4104">
          <path id="Path_15959" data-name="Path 15959" d="M2040.18,2489.118a.627.627,0,0,1-.553-.331l-3.371-6.282a.627.627,0,1,1,1.106-.592l3.371,6.282a.627.627,0,0,1-.257.849A.618.618,0,0,1,2040.18,2489.118Z" transform="translate(-2036.182 -2481.582)" fill="#00b7c9"/>
        </g>
      </g>
      <g id="Group_4107" data-name="Group 4107" transform="translate(56.562 28.943)">
        <g id="Group_4106" data-name="Group 4106">
          <path id="Path_15960" data-name="Path 15960" d="M2274.21,1594.007a.627.627,0,0,1-.3-1.18l6.282-3.371a.627.627,0,1,1,.591,1.106l-6.281,3.371A.651.651,0,0,1,2274.21,1594.007Z" transform="translate(-2273.582 -1589.382)" fill="#6fccd6"/>
        </g>
      </g>
      <g id="Group_4109" data-name="Group 4109" transform="translate(17.158 49.952)">
        <g id="Group_4108" data-name="Group 4108">
          <path id="Path_15961" data-name="Path 15961" d="M1049.11,2247.208a.627.627,0,0,1-.3-1.181l6.282-3.371a.627.627,0,0,1,.592,1.106l-6.282,3.371A.614.614,0,0,1,1049.11,2247.208Z" transform="translate(-1048.482 -2242.582)" fill="#6fccd6"/>
        </g>
      </g>
      <g id="Group_4110" data-name="Group 4110" transform="translate(33.61 34.85)">
        <circle id="Ellipse_366" data-name="Ellipse 366" cx="4.78" cy="4.78" r="4.78" transform="translate(0 6.759) rotate(-45)" fill="#6fccd6"/>
      </g>
      <g id="Group_4111" data-name="Group 4111" transform="translate(42.378 33.51)">
        <path id="Path_15962" data-name="Path 15962" d="M1832.6,1738.859c.27-.209.547-.405.823-.595s.559-.38.839-.566c.563-.37,1.135-.724,1.711-1.071q1.727-1.037,3.516-1.965c1.19-.621,2.393-1.216,3.622-1.766.614-.277,1.232-.543,1.856-.794q.468-.188.946-.367c.318-.119.637-.231.962-.334-.27.209-.547.405-.823.6s-.56.38-.839.566c-.563.37-1.135.724-1.711,1.071q-1.727,1.037-3.516,1.965c-1.19.621-2.4,1.212-3.622,1.762-.615.277-1.232.544-1.856.794-.312.125-.627.251-.943.367S1832.925,1738.753,1832.6,1738.859Z" transform="translate(-1832.6 -1731.4)" fill="#f1ca6f"/>
      </g>
      <g id="Group_4113" data-name="Group 4113" transform="translate(21.807 26.091)">
        <g id="Group_4112" data-name="Group 4112">
          <path id="Path_15963" data-name="Path 15963" d="M1211.724,1517.076a.73.73,0,0,1-.473-.171l-17.951-14.856a.745.745,0,1,1,.949-1.148l17.951,14.856a.748.748,0,0,1,.1,1.049A.759.759,0,0,1,1211.724,1517.076Z" transform="translate(-1193.032 -1500.732)" fill="#6fccd6"/>
        </g>
      </g>
      <g id="Group_4114" data-name="Group 4114" transform="translate(36.056 37.263)">
        <circle id="Ellipse_367" data-name="Ellipse 367" cx="3.056" cy="3.056" r="3.056" transform="translate(0 4.321) rotate(-45)" fill="#fff"/>
      </g>
      <g id="Group_4115" data-name="Group 4115" transform="translate(11.37)">
        <path id="Path_15964" data-name="Path 15964" d="M888.771,695.722l-15.394,8.26a3.29,3.29,0,0,1-4.455-1.344h0a3.29,3.29,0,0,1,1.344-4.455l15.394-8.26a3.29,3.29,0,0,1,4.455,1.344h0A3.29,3.29,0,0,1,888.771,695.722Z" transform="translate(-868.532 -689.532)" fill="#6fccd6"/>
      </g>
    </g>
    <g id="Group_4122" data-name="Group 4122" transform="translate(432.819 740.194)">
      <path id="Path_15970" data-name="Path 15970" d="M2206.167,2264.7h32.762a2.552,2.552,0,0,1,2.512,3.007l-3.644,20.09a2.549,2.549,0,0,1-2.512,2.1h-33.01a2.553,2.553,0,0,1-2.506-3.04l3.9-20.089A2.547,2.547,0,0,1,2206.167,2264.7Z" transform="translate(-2199.722 -2264.7)" fill="#fff"/>
    </g>
    <g id="Group_4159" data-name="Group 4159">
      <g id="Group_4119" data-name="Group 4119" transform="translate(446.989 733.942)">
        <path id="Path_15967" data-name="Path 15967" d="M2680.277,2070.673l7.433,29.308a3.673,3.673,0,0,1-3.561,4.577H2640.3V2070.3Z" transform="translate(-2640.3 -2070.3)" fill="#737db0"/>
      </g>
      <g id="Group_4120" data-name="Group 4120" transform="translate(420.218 732.759)">
        <path id="Path_15968" data-name="Path 15968" d="M1817.368,2033.5h54.845a2.7,2.7,0,0,1,2.657,3.181l-6.291,34.669a2.7,2.7,0,0,1-2.657,2.219h-55.273a2.7,2.7,0,0,1-2.65-3.213l6.719-34.666A2.7,2.7,0,0,1,1817.368,2033.5Z" transform="translate(-1807.948 -2033.5)" fill="#6fcdd6"/>
      </g>
      <g id="Group_4121" data-name="Group 4121" transform="translate(426.829 736.644)">
        <path id="Path_15969" data-name="Path 15969" d="M2021.45,2154.3h43.022a2.765,2.765,0,0,1,2.721,3.258l-4.857,26.77a2.763,2.763,0,0,1-2.721,2.271h-43.354a2.764,2.764,0,0,1-2.714-3.29l5.188-26.77A2.764,2.764,0,0,1,2021.45,2154.3Z" transform="translate(-2013.496 -2154.3)" fill="#cdf1f5"/>
      </g>
      <g id="Group_4123" data-name="Group 4123" transform="translate(439.102 738.352)">
        <rect id="Rectangle_2569" data-name="Rectangle 2569" width="29.661" height="0.257" transform="matrix(0.167, -0.986, 0.986, 0.167, 0, 29.246)" fill="#cdf1f5"/>
      </g>
      <g id="Group_4124" data-name="Group 4124" transform="translate(446.452 738.514)">
        <rect id="Rectangle_2570" data-name="Rectangle 2570" width="29.661" height="0.257" transform="matrix(0.167, -0.986, 0.986, 0.167, 0, 29.246)" fill="#cdf1f5"/>
      </g>
      <g id="Group_4125" data-name="Group 4125" transform="translate(454.631 738.348)">
        <rect id="Rectangle_2571" data-name="Rectangle 2571" width="29.661" height="0.257" transform="matrix(0.167, -0.986, 0.986, 0.167, 0, 29.246)" fill="#cdf1f5"/>
      </g>
      <g id="Group_4126" data-name="Group 4126" transform="translate(461.982 738.515)">
        <rect id="Rectangle_2572" data-name="Rectangle 2572" width="29.661" height="0.257" transform="matrix(0.167, -0.986, 0.986, 0.167, 0, 29.246)" fill="#cdf1f5"/>
      </g>
      <g id="Group_4127" data-name="Group 4127" transform="translate(434.388 744.363)">
        <rect id="Rectangle_2573" data-name="Rectangle 2573" width="43.91" height="0.257" fill="#cdf1f5"/>
      </g>
      <g id="Group_4128" data-name="Group 4128" transform="translate(433.149 750.475)">
        <rect id="Rectangle_2574" data-name="Rectangle 2574" width="43.91" height="0.257" fill="#cdf1f5"/>
      </g>
      <g id="Group_4129" data-name="Group 4129" transform="translate(431.991 755.926)">
        <rect id="Rectangle_2575" data-name="Rectangle 2575" width="43.91" height="0.257" fill="#cdf1f5"/>
      </g>
      <g id="Group_4130" data-name="Group 4130" transform="translate(430.753 761.214)">
        <rect id="Rectangle_2576" data-name="Rectangle 2576" width="43.91" height="0.257" fill="#cdf1f5"/>
      </g>
      <g id="Group_4133" data-name="Group 4133" transform="translate(459.128 745.839)">
        <g id="Group_4131" data-name="Group 4131" transform="translate(0 0.153)">
          <rect id="Rectangle_2577" data-name="Rectangle 2577" width="5.596" height="0.354" transform="matrix(0.856, -0.517, 0.517, 0.856, 0, 2.892)" fill="#6fcdd6"/>
        </g>
        <g id="Group_4132" data-name="Group 4132" transform="translate(0.091 0)">
          <rect id="Rectangle_2578" data-name="Rectangle 2578" width="0.354" height="5.596" transform="matrix(0.575, -0.818, 0.818, 0.575, 0, 0.289)" fill="#6fcdd6"/>
        </g>
      </g>
      <g id="Group_4136" data-name="Group 4136" transform="translate(434.592 756.989)">
        <g id="Group_4134" data-name="Group 4134" transform="translate(0 0.154)">
          <rect id="Rectangle_2579" data-name="Rectangle 2579" width="5.596" height="0.354" transform="matrix(0.856, -0.517, 0.517, 0.856, 0, 2.892)" fill="#6fcdd6"/>
        </g>
        <g id="Group_4135" data-name="Group 4135" transform="translate(0.09 0)">
          <rect id="Rectangle_2580" data-name="Rectangle 2580" width="0.354" height="5.596" transform="matrix(0.575, -0.818, 0.818, 0.575, 0, 0.289)" fill="#6fcdd6"/>
        </g>
      </g>
      <g id="Group_4137" data-name="Group 4137" transform="translate(466.658 750.619)">
        <path id="Path_15971" data-name="Path 15971" d="M3255.384,2593.255l-1.383-.823-1.46.675.354-1.573-1.094-1.181,1.6-.148.788-1.406.637,1.479,1.579.315-1.209,1.061Z" transform="translate(-3251.801 -2588.8)" fill="#9ae3f4"/>
      </g>
      <g id="Group_4138" data-name="Group 4138" transform="translate(448.312 756.47)">
        <path id="Path_15972" data-name="Path 15972" d="M2688.422,2775.161H2681.4l.743-4.461h7.021Z" transform="translate(-2681.4 -2770.7)" fill="#ec8a9f"/>
      </g>
      <g id="Group_4139" data-name="Group 4139" transform="translate(445.42 740.194)">
        <circle id="Ellipse_368" data-name="Ellipse 368" cx="1.817" cy="1.817" r="1.817" fill="#6fcdd6"/>
      </g>
      <g id="Group_4140" data-name="Group 4140" transform="translate(446.066 740.842)">
        <circle id="Ellipse_369" data-name="Ellipse 369" cx="0.827" cy="0.827" r="0.827" transform="translate(0 1.169) rotate(-45)" fill="#fff"/>
      </g>
      <g id="Group_4141" data-name="Group 4141" transform="translate(433.568 734.043)">
        <circle id="Ellipse_370" data-name="Ellipse 370" cx="0.827" cy="0.827" r="0.827" transform="translate(0 1.632) rotate(-80.782)" fill="#fff"/>
      </g>
      <g id="Group_4142" data-name="Group 4142" transform="translate(442.525 734.003)">
        <circle id="Ellipse_371" data-name="Ellipse 371" cx="0.827" cy="0.827" r="0.827" transform="translate(0 1.609) rotate(-76.714)" fill="#fff"/>
      </g>
      <g id="Group_4143" data-name="Group 4143" transform="translate(450.196 733.738)">
        <circle id="Ellipse_372" data-name="Ellipse 372" cx="0.827" cy="0.827" r="0.827" transform="translate(0 1.169) rotate(-45)" fill="#fff"/>
      </g>
      <g id="Group_4144" data-name="Group 4144" transform="translate(459.424 733.96)">
        <circle id="Ellipse_373" data-name="Ellipse 373" cx="0.827" cy="0.827" r="0.827" transform="translate(0 1.632) rotate(-80.782)" fill="#fff"/>
      </g>
      <g id="Group_4145" data-name="Group 4145" transform="translate(467.214 733.738)">
        <circle id="Ellipse_374" data-name="Ellipse 374" cx="0.827" cy="0.827" r="0.827" transform="translate(0 1.169) rotate(-45)" fill="#fff"/>
      </g>
      <g id="Group_4146" data-name="Group 4146" transform="translate(476.442 733.96)">
        <circle id="Ellipse_375" data-name="Ellipse 375" cx="0.827" cy="0.827" r="0.827" transform="translate(0 1.632) rotate(-80.782)" fill="#fff"/>
      </g>
      <g id="Group_4147" data-name="Group 4147" transform="translate(434.191 728.307)">
        <path id="Path_15973" data-name="Path 15973" d="M2242.724,1902.107a.365.365,0,0,1-.061-.007.321.321,0,0,1-.254-.376l1.239-6.362a.321.321,0,1,1,.63.122l-1.238,6.362A.32.32,0,0,1,2242.724,1902.107Z" transform="translate(-2242.402 -1895.102)" fill="#091b80"/>
      </g>
      <g id="Group_4148" data-name="Group 4148" transform="translate(434.191 728.307)">
        <path id="Path_15974" data-name="Path 15974" d="M2242.724,1902.107a.365.365,0,0,1-.061-.007.321.321,0,0,1-.254-.376l1.239-6.362a.321.321,0,1,1,.63.122l-1.238,6.362A.32.32,0,0,1,2242.724,1902.107Z" transform="translate(-2242.402 -1895.102)" fill="#737db0"/>
      </g>
      <g id="Group_4149" data-name="Group 4149" transform="translate(443.197 728.307)">
        <path id="Path_15975" data-name="Path 15975" d="M2522.724,1902.107a.37.37,0,0,1-.061-.007.321.321,0,0,1-.254-.376l1.238-6.362a.321.321,0,0,1,.631.122l-1.239,6.362A.32.32,0,0,1,2522.724,1902.107Z" transform="translate(-2522.402 -1895.102)" fill="#091b80"/>
      </g>
      <g id="Group_4150" data-name="Group 4150" transform="translate(443.197 728.307)">
        <path id="Path_15976" data-name="Path 15976" d="M2522.724,1902.107a.37.37,0,0,1-.061-.007.321.321,0,0,1-.254-.376l1.238-6.362a.321.321,0,0,1,.631.122l-1.239,6.362A.32.32,0,0,1,2522.724,1902.107Z" transform="translate(-2522.402 -1895.102)" fill="#737db0"/>
      </g>
      <g id="Group_4151" data-name="Group 4151" transform="translate(451.045 728.307)">
        <path id="Path_15977" data-name="Path 15977" d="M2766.724,1902.107a.37.37,0,0,1-.061-.007.321.321,0,0,1-.254-.376l1.239-6.362a.321.321,0,1,1,.63.122l-1.238,6.362A.32.32,0,0,1,2766.724,1902.107Z" transform="translate(-2766.402 -1895.102)" fill="#737db0"/>
      </g>
      <g id="Group_4152" data-name="Group 4152" transform="translate(460.051 728.307)">
        <path id="Path_15978" data-name="Path 15978" d="M3046.724,1902.107a.362.362,0,0,1-.061-.007.321.321,0,0,1-.254-.376l1.238-6.362a.321.321,0,0,1,.631.122l-1.238,6.362A.326.326,0,0,1,3046.724,1902.107Z" transform="translate(-3046.403 -1895.102)" fill="#091b80"/>
      </g>
      <g id="Group_4153" data-name="Group 4153" transform="translate(460.051 728.307)">
        <path id="Path_15979" data-name="Path 15979" d="M3046.724,1902.107a.362.362,0,0,1-.061-.007.321.321,0,0,1-.254-.376l1.238-6.362a.321.321,0,0,1,.631.122l-1.238,6.362A.326.326,0,0,1,3046.724,1902.107Z" transform="translate(-3046.403 -1895.102)" fill="#737db0"/>
      </g>
      <g id="Group_4154" data-name="Group 4154" transform="translate(468.147 728.224)">
        <path id="Path_15980" data-name="Path 15980" d="M3298.424,1899.507a.42.42,0,0,1-.061-.006.321.321,0,0,1-.254-.376l1.238-6.362a.321.321,0,1,1,.63.122l-1.238,6.362A.326.326,0,0,1,3298.424,1899.507Z" transform="translate(-3298.103 -1892.502)" fill="#737db0"/>
      </g>
      <g id="Group_4155" data-name="Group 4155" transform="translate(477.149 728.224)">
        <path id="Path_15981" data-name="Path 15981" d="M3578.324,1899.507a.431.431,0,0,1-.061-.006.321.321,0,0,1-.254-.376l1.238-6.362a.321.321,0,1,1,.631.122l-1.238,6.362A.32.32,0,0,1,3578.324,1899.507Z" transform="translate(-3578.003 -1892.502)" fill="#091b80"/>
      </g>
      <g id="Group_4156" data-name="Group 4156" transform="translate(477.149 728.224)">
        <path id="Path_15982" data-name="Path 15982" d="M3578.324,1899.507a.431.431,0,0,1-.061-.006.321.321,0,0,1-.254-.376l1.238-6.362a.321.321,0,1,1,.631.122l-1.238,6.362A.32.32,0,0,1,3578.324,1899.507Z" transform="translate(-3578.003 -1892.502)" fill="#737db0"/>
      </g>
    </g>
  </g>
</svg>
