<svg id="Group_3984" data-name="Group 3984" xmlns="http://www.w3.org/2000/svg" width="21.061" height="21.061" viewBox="0 0 21.061 21.061">
  <ellipse id="Ellipse_345" data-name="Ellipse 345" cx="10.53" cy="10.53" rx="10.53" ry="10.53" fill="#03a9f4"/>
  <path id="twitter" d="M10.909,49.049a4.663,4.663,0,0,1-1.289.353,2.224,2.224,0,0,0,.984-1.236,4.47,4.47,0,0,1-1.418.541,2.236,2.236,0,0,0-3.869,1.529,2.3,2.3,0,0,0,.052.51A6.331,6.331,0,0,1,.76,48.408,2.237,2.237,0,0,0,1.447,51.4a2.209,2.209,0,0,1-1.01-.275v.025a2.247,2.247,0,0,0,1.792,2.2,2.232,2.232,0,0,1-.586.074,1.977,1.977,0,0,1-.423-.038,2.258,2.258,0,0,0,2.09,1.558,4.494,4.494,0,0,1-2.773.954A4.189,4.189,0,0,1,0,55.86a6.3,6.3,0,0,0,3.431,1A6.322,6.322,0,0,0,9.8,50.5c0-.1,0-.194-.008-.289A4.462,4.462,0,0,0,10.909,49.049Z" transform="translate(5.077 -41.982)" fill="#fff"/>
</svg>
