<svg id="Capa_1" enable-background="new 0 0 512 512" height="512" viewBox="0 0 512 512" width="512" xmlns="http://www.w3.org/2000/svg"><g><path d="m290.416 39.584c-24.444-24.445-58.194-39.584-95.416-39.584h-15v150h150v-15c0-37.222-15.139-70.972-39.584-95.416z" fill="#fed843"/><path d="m330 135c0-37.222-15.139-70.972-39.584-95.416l-110.416 110.416h150z" fill="#fabe2c"/><path d="m150 180v-120h-15c-74.443 0-135 60.557-135 135 0 37.222 15.139 70.972 39.584 95.416s58.194 39.584 95.416 39.584c74.443 0 135-60.557 135-135v-15z" fill="#f66"/><path d="m270 195v-15h-120l-110.416 110.416c24.444 24.445 58.194 39.584 95.416 39.584 74.443 0 135-60.557 135-135z" fill="#e62e6b"/><g><path d="m347 300h-45v152h45 45v-152z" fill="#fed843"/><path d="m347 300h45v152h-45z" fill="#fabe2c"/><path d="m347 482h-165v30h165 165v-30z" fill="#474f54"/><path d="m347 482h165v30h-165z" fill="#32393f"/></g><path d="m467 240h-45v212h45 45v-212z" fill="#f66"/><path d="m467 240h45v212h-45z" fill="#e62e6b"/><path d="m227 360h-45v92h45 45v-92z" fill="#97de3d"/><path d="m227 360h45v92h-45z" fill="#59c36a"/></g></svg>