<svg id="Layer_1" data-name="Layer 1" xmlns="http://www.w3.org/2000/svg" viewBox="0 0 321.4 141.73"><defs><style>.cls-1{fill:#c2e5f9;}.cls-1,.cls-2{isolation:isolate;opacity:0.3;}.cls-2{fill:#a6d3f1;}.cls-3{fill:#d8efef;}.cls-4{fill:#eeedee;}.cls-5{fill:#addff5;}.cls-6{fill:#5e7283;}.cls-7{fill:#fff;}.cls-8{opacity:0.5;}.cls-9{fill:#fbcac2;}.cls-10{fill:#d5eef5;}</style></defs><path class="cls-1" d="M337.26,101.48l-.27-.18-.45-.24a2.18,2.18,0,0,0-.27-.15l-.29-.15a10.59,10.59,0,0,0-1.51-.59,12.44,12.44,0,0,0-1.87-.49,13.37,13.37,0,0,0-4.39-.1,15,15,0,0,0-4.62,1.43,21,21,0,0,0-2.19,1.26,18.18,18.18,0,0,0-2,1.57,19.62,19.62,0,0,0-1.8,1.85,18.73,18.73,0,0,0-1.51,2c-.44.67-.86,1.33-1.21,2-.19.37-.37.71-.54,1.06a53.11,53.11,0,0,0,1-20.15,40.32,40.32,0,0,1-.37-7.87c.12.07.24.15.39.22.35.17.76.37,1.21.54a14,14,0,0,0,1.5.45,13,13,0,0,0,1.71.24,10.14,10.14,0,0,0,1.82,0A12,12,0,0,0,325.34,83a14.11,14.11,0,0,0,3.41-2.3,17.75,17.75,0,0,0,2.69-3.1,16.6,16.6,0,0,0,1-1.61c.27-.51.52-1,.69-1.43.1-.22.17-.42.25-.59s.12-.32.17-.47.07-.24.1-.29a.56.56,0,0,0,0-.1.16.16,0,0,0-.07,0c-.05,0-.13-.1-.22-.15l-.35-.22c-.15-.08-.3-.17-.47-.25a13,13,0,0,0-1.21-.54,12,12,0,0,0-1.5-.44,10.3,10.3,0,0,0-3.53-.18,12.55,12.55,0,0,0-3.72,1.06,14.27,14.27,0,0,0-3.41,2.27,13.81,13.81,0,0,0-1.45,1.51,14.7,14.7,0,0,0-1.23,1.62,14.85,14.85,0,0,0-1,1.63l-.37.74a107,107,0,0,1,4.64-21.5.8.8,0,0,1,.22.12c.13.07.27.12.45.2a9.23,9.23,0,0,0,1.13.39,13.29,13.29,0,0,0,1.43.3,12.69,12.69,0,0,0,3.43,0,15.1,15.1,0,0,0,3.7-1,16.12,16.12,0,0,0,3.48-2,17.67,17.67,0,0,0,2.83-2.67,13.24,13.24,0,0,0,1.06-1.35c.32-.45.57-.84.79-1.21.1-.17.2-.35.27-.49s.15-.28.2-.4l.13-.25,0-.09a.16.16,0,0,0-.07-.05l-.2-.13-.32-.17c-.12-.07-.27-.12-.44-.2s-.72-.27-1.14-.39a12.8,12.8,0,0,0-1.43-.3,12.23,12.23,0,0,0-3.42,0,13.48,13.48,0,0,0-3.7,1,16.65,16.65,0,0,0-3.48,2,16.87,16.87,0,0,0-2.84,2.66c-.39.47-.76.94-1.06,1.38l-.42.62c2-6.24,4.12-11.37,5.21-13.89.07,0,.14-.07.22-.1.34-.17.71-.39,1.16-.66s.86-.59,1.33-1a18.72,18.72,0,0,0,2.76-2.79,21.09,21.09,0,0,0,2.37-3.68,21.33,21.33,0,0,0,1.6-4.14,21,21,0,0,0,.72-4.05,15,15,0,0,0,.05-1.75,12,12,0,0,0-.08-1.43c0-.19-.05-.39-.07-.54s-.05-.3-.08-.42a2,2,0,0,1,0-.27.21.21,0,0,1,0-.1l-.07,0a1.71,1.71,0,0,0-.22.09l-.35.15-.47.22c-.34.18-.71.4-1.16.67s-.86.59-1.33,1a18.72,18.72,0,0,0-2.76,2.79,19.91,19.91,0,0,0-2.37,3.67,22.48,22.48,0,0,0-1.63,4.15,21.62,21.62,0,0,0-.71,4,13.15,13.15,0,0,0,0,1.75c0,.55,0,1,.07,1.43,0,.2,0,.4.08.55a3.66,3.66,0,0,0,.07.42.87.87,0,0,0,.05.19c-1.19,2.82-3.26,8-5.23,14.09,0-.42.05-.89.05-1.41a15.07,15.07,0,0,0-.1-1.73,18,18,0,0,0-.81-3.82,15.88,15.88,0,0,0-1.73-3.65,14.79,14.79,0,0,0-2.47-3,12,12,0,0,0-2.83-2,9.82,9.82,0,0,0-1.36-.56,10.44,10.44,0,0,0-1.16-.35c-.17-.05-.32-.07-.47-.1a3.5,3.5,0,0,0-.37,0,1,1,0,0,0-.22,0h-.07a.4.4,0,0,1,0,.1,1,1,0,0,1-.05.27c0,.12,0,.27-.05.44s0,.37,0,.57c0,.42-.05.91-.05,1.46a14.78,14.78,0,0,0,.1,1.72,18.68,18.68,0,0,0,.82,3.82,16.71,16.71,0,0,0,1.72,3.68,14.44,14.44,0,0,0,2.45,3,12,12,0,0,0,2.83,2,9.82,9.82,0,0,0,1.36.56,8.67,8.67,0,0,0,1.16.35c.17.05.32.07.47.1a3.19,3.19,0,0,0,.37,0h0v.05a107.16,107.16,0,0,0-4.64,21.73h0a15.28,15.28,0,0,0-.19-1.85,19,19,0,0,0-.42-1.93,13.53,13.53,0,0,0-.69-1.9,13,13,0,0,0-2.12-3.33A11.19,11.19,0,0,0,308,68.87a10.19,10.19,0,0,0-3.33-1.13,8.78,8.78,0,0,0-1.58-.15,11.05,11.05,0,0,0-1.33,0c-.2,0-.37,0-.54,0l-.42.07a1.21,1.21,0,0,1-.27,0l-.1,0a.21.21,0,0,1,0,.1,1.68,1.68,0,0,1-.05.32c0,.13,0,.3,0,.5a4,4,0,0,0,0,.61,12.27,12.27,0,0,0,0,1.58,15.49,15.49,0,0,0,.19,1.85,15.65,15.65,0,0,0,1.11,3.85A13.31,13.31,0,0,0,303.71,80a10.66,10.66,0,0,0,2.94,2.37,8.88,8.88,0,0,0,1.65.72,11.46,11.46,0,0,0,1.68.42,8.74,8.74,0,0,0,1.58.14c.49,0,1,0,1.35,0l.55-.08.42-.07a1.12,1.12,0,0,1,.27,0h0a39.53,39.53,0,0,0,.37,7.55,53.11,53.11,0,0,1-1.28,20.79,2.94,2.94,0,0,1-.05-.35,1.74,1.74,0,0,1,0-.34l-.07-.37a19.9,19.9,0,0,0-1.19-3.85,17.34,17.34,0,0,0-1-2.07,18.41,18.41,0,0,0-1.36-2,13.26,13.26,0,0,0-1.65-1.7A16.75,16.75,0,0,0,306,99.7,14,14,0,0,0,301.74,98a15.29,15.29,0,0,0-2.22-.27,15,15,0,0,0-2.14.08,14.57,14.57,0,0,0-2,.34,13.87,13.87,0,0,0-1.63.5l-.34.12c-.1.05-.2.07-.3.12l-.49.22c-.12,0-.25.13-.32.15l-.1,0a.41.41,0,0,0,0,.13c0,.07,0,.22,0,.37s0,.34.08.56a1.73,1.73,0,0,1,.05.35l.07.37a19.9,19.9,0,0,0,1.19,3.85,15.93,15.93,0,0,0,2.39,4,14.3,14.3,0,0,0,5.57,4.19,11.51,11.51,0,0,0,2.17.66,14,14,0,0,0,2.22.28,15.17,15.17,0,0,0,2.15-.08,16.48,16.48,0,0,0,2-.34,13.3,13.3,0,0,0,1.63-.5l.34-.12a1.25,1.25,0,0,1,.3-.12,3.81,3.81,0,0,0,.49-.23.33.33,0,0,1,.13,0c-.52,2-1.09,3.77-1.66,5.4a61.86,61.86,0,0,1-8.95,17.21l.54.59a63.57,63.57,0,0,0,9.13-17.53c.49-1.43,1-3,1.48-4.76,0,0,0,0,.05,0s.27.15.44.25l.27.15.3.15c.42.19.94.41,1.5.61a13.52,13.52,0,0,0,1.88.5,15.66,15.66,0,0,0,2.12.22,14.54,14.54,0,0,0,2.27-.13,13.05,13.05,0,0,0,2.32-.51,17.76,17.76,0,0,0,6.51-3.78,21,21,0,0,0,1.8-1.85,18,18,0,0,0,1.5-2,21.4,21.4,0,0,0,1.21-2c.35-.64.64-1.23.87-1.75.05-.12.12-.25.17-.37s.1-.25.15-.34.14-.4.22-.57l.12-.37.05-.13S337.33,101.53,337.26,101.48Z" transform="translate(-34.2 -4.13)"/><path class="cls-1" d="M161.43,83.13c-.08,0-.2,0-.35,0h-.89c-.12,0-.24,0-.37,0-.52.05-1.11.12-1.75.24a16,16,0,0,0-2,.57,15.24,15.24,0,0,0-2.12.94,16.66,16.66,0,0,0-2.07,1.35,17,17,0,0,0-3.6,3.85,17.83,17.83,0,0,0-1.38,2.39,19.15,19.15,0,0,0-1.06,2.62,20,20,0,0,0-.69,2.74,19.72,19.72,0,0,0-.35,2.71,24.34,24.34,0,0,0-.05,2.54,10.84,10.84,0,0,0,.08,1.31,58.24,58.24,0,0,0-10-19.71,43.1,43.1,0,0,1-4.61-7.28h.51c.42,0,.92-.07,1.46-.14a11.93,11.93,0,0,0,3.43-1.11,11.91,11.91,0,0,0,1.7-1,12.58,12.58,0,0,0,2.93-3.06,15.9,15.9,0,0,0,2-4,18.55,18.55,0,0,0,.84-4.41c0-.72.07-1.41,0-2.07s0-1.24-.12-1.76a6.34,6.34,0,0,0-.1-.69c0-.19,0-.39-.08-.54a2.42,2.42,0,0,0-.07-.34.41.41,0,0,1,0-.13h-.09l-.3,0c-.12,0-.27,0-.44,0h-.57c-.42,0-.91.08-1.46.15a11.49,11.49,0,0,0-1.67.4,11.88,11.88,0,0,0-3.46,1.75,14,14,0,0,0-3,3,15.39,15.39,0,0,0-2,4,20,20,0,0,0-.57,2.22,16.93,16.93,0,0,0-.27,2.2,18.1,18.1,0,0,0,0,2.07,8.22,8.22,0,0,0,0,.89,117.16,117.16,0,0,1-7.33-22.94,1.13,1.13,0,0,0,.3,0,3.61,3.61,0,0,0,.52,0,12.32,12.32,0,0,0,1.3-.24,9.73,9.73,0,0,0,1.53-.5,13,13,0,0,0,3.26-1.87,16.26,16.26,0,0,0,3-3,18.4,18.4,0,0,0,2.22-3.82,19.6,19.6,0,0,0,1.23-4.07c.12-.67.22-1.28.27-1.88s.08-1.11.1-1.58v-.61a3.32,3.32,0,0,0,0-.47c0-.12,0-.25,0-.32v-.1h-.34a3,3,0,0,0-.4,0c-.15,0-.32,0-.52.05a12.62,12.62,0,0,0-1.3.25,15.79,15.79,0,0,0-1.53.49A13,13,0,0,0,127.88,36a16.26,16.26,0,0,0-3,3,18,18,0,0,0-2.22,3.8,19.25,19.25,0,0,0-1.23,4.07c-.12.66-.22,1.28-.27,1.87a7.34,7.34,0,0,0,0,.81c-1.46-7.05-2.27-13-2.64-16l.15-.22a12.35,12.35,0,0,0,.71-1.26,13.52,13.52,0,0,0,.74-1.65,20.1,20.1,0,0,0,1.11-4.14,24.1,24.1,0,0,0-.47-9.6,22.91,22.91,0,0,0-1.53-4.24,16.83,16.83,0,0,0-.91-1.7,10.65,10.65,0,0,0-.86-1.31c-.12-.17-.25-.34-.37-.49a2.4,2.4,0,0,0-.3-.37,1.66,1.66,0,0,0-.19-.22l-.08-.08-.05.08a1.21,1.21,0,0,0-.17.22c-.07.1-.15.19-.25.34s-.19.3-.32.47a13.54,13.54,0,0,0-.71,1.26,17.46,17.46,0,0,0-.74,1.65,20.2,20.2,0,0,0-1.11,4.15,23.53,23.53,0,0,0-.25,4.78,23.17,23.17,0,0,0,.72,4.81,23.66,23.66,0,0,0,1.52,4.24,17.8,17.8,0,0,0,.92,1.7,9.93,9.93,0,0,0,.86,1.31c.12.17.25.35.37.49a2,2,0,0,0,.3.37,1.63,1.63,0,0,0,.14.18c.42,3.33,1.26,9.32,2.72,16.2-.2-.39-.45-.86-.72-1.36a17.79,17.79,0,0,0-1-1.6,20.5,20.5,0,0,0-2.86-3.18,19.12,19.12,0,0,0-3.63-2.54,15.85,15.85,0,0,0-4-1.48,14.22,14.22,0,0,0-3.75-.35,11.1,11.1,0,0,0-1.6.2,11.92,11.92,0,0,0-1.28.32,3.12,3.12,0,0,0-.49.17,2.34,2.34,0,0,0-.37.15,1.43,1.43,0,0,1-.25.1l-.08.05a.24.24,0,0,1,0,.1c0,.07,0,.17.1.3s.13.27.2.44.17.37.27.57c.2.42.45.88.74,1.4s.64,1,1,1.61a20.5,20.5,0,0,0,2.86,3.18,19.52,19.52,0,0,0,3.62,2.54,15.68,15.68,0,0,0,4,1.5,14.25,14.25,0,0,0,3.75.35,10.92,10.92,0,0,0,1.6-.2,11.35,11.35,0,0,0,1.28-.32,3.25,3.25,0,0,0,.5-.17,2.81,2.81,0,0,0,.37-.15s0,0,0,0v0a117,117,0,0,0,7.45,23.16h0c-.35-.54-.74-1.08-1.19-1.65a21.38,21.38,0,0,0-1.45-1.6A15.28,15.28,0,0,0,124,70.6a13.1,13.1,0,0,0-3.85-2A12.35,12.35,0,0,0,116,68a10.77,10.77,0,0,0-3.77.74,11.56,11.56,0,0,0-1.58.71,13.92,13.92,0,0,0-1.26.77l-.47.34a2.59,2.59,0,0,0-.34.3,1.54,1.54,0,0,0-.22.2l-.08.07a.55.55,0,0,1,.05.12,2.14,2.14,0,0,0,.15.32,3.85,3.85,0,0,0,.22.5l.32.61c.25.45.52,1,.87,1.48a19.77,19.77,0,0,0,1.18,1.66,17.81,17.81,0,0,0,3.13,3.06,13.79,13.79,0,0,0,3.85,2,11.89,11.89,0,0,0,4.07.64,13.52,13.52,0,0,0,2-.22,11.07,11.07,0,0,0,1.8-.52,10.47,10.47,0,0,0,1.58-.72c.47-.27.88-.51,1.25-.76a5.75,5.75,0,0,0,.47-.35,1.74,1.74,0,0,0,.35-.29,2.53,2.53,0,0,0,.22-.2l0,0a45.5,45.5,0,0,0,4.46,7,57.84,57.84,0,0,1,10.09,20.42,3.23,3.23,0,0,0-.25-.29,2.21,2.21,0,0,0-.25-.3l-.27-.32c-.39-.44-.86-.94-1.4-1.45s-1.16-1-1.8-1.56a22.2,22.2,0,0,0-2.12-1.4,17.07,17.07,0,0,0-4.84-1.85,13.75,13.75,0,0,0-2.54-.3,14.92,14.92,0,0,0-5,.67,13,13,0,0,0-2.24.93,15.31,15.31,0,0,0-2,1.24,16,16,0,0,0-1.68,1.4,17.14,17.14,0,0,0-1.28,1.36c-.1.1-.17.2-.25.29l-.22.3c-.15.17-.24.35-.34.47a2.33,2.33,0,0,0-.22.32l-.08.12.08.13c0,.07.14.19.24.34s.25.32.4.5a2.82,2.82,0,0,0,.24.29,2.85,2.85,0,0,1,.27.32c.4.45.87.94,1.41,1.46a23.26,23.26,0,0,0,1.8,1.53,22.2,22.2,0,0,0,2.12,1.4,14.87,14.87,0,0,0,2.35,1.11,15.4,15.4,0,0,0,5.05,1.06,14.32,14.32,0,0,0,2.54-.12,14.14,14.14,0,0,0,2.44-.54,14.42,14.42,0,0,0,2.25-.94,14.07,14.07,0,0,0,2-1.26,17.13,17.13,0,0,0,1.67-1.4,15.7,15.7,0,0,0,1.29-1.36,3.15,3.15,0,0,0,.24-.3l.22-.29c.15-.18.25-.35.35-.47a1.27,1.27,0,0,1,.07-.12c.57,2.14,1,4.19,1.36,6,1.7,9.23,1.53,17.19.89,21.21l.84.28c.66-4.12.83-12.26-.89-21.63-.3-1.63-.69-3.43-1.19-5.33h1c.12,0,.24,0,.37,0a12.74,12.74,0,0,0,1.75-.24,15.46,15.46,0,0,0,2-.57,14.84,14.84,0,0,0,2.13-.94,16.66,16.66,0,0,0,2.07-1.35,18.42,18.42,0,0,0,1.92-1.76,18,18,0,0,0,1.68-2.12,20.28,20.28,0,0,0,3.13-7.74,21.63,21.63,0,0,0,.35-2.71,22,22,0,0,0,.07-2.54c0-.79-.07-1.51-.12-2.15,0-.15,0-.3-.05-.44a2.08,2.08,0,0,1-.05-.4c0-.25-.08-.47-.1-.64s-.07-.32-.07-.42a.59.59,0,0,1,0-.15Z" transform="translate(-34.2 -4.13)"/><path class="cls-1" d="M159.65,91.56a1.69,1.69,0,0,1,.32,0h.49a1.23,1.23,0,0,1,.32,0l.35,0a14.4,14.4,0,0,1,1.6.25,11.48,11.48,0,0,1,1.88.54,14.6,14.6,0,0,1,1.95.89,17.24,17.24,0,0,1,1.89,1.26,15.38,15.38,0,0,1,3.28,3.57,16,16,0,0,1,1.26,2.22,16.4,16.4,0,0,1,.94,2.42,19.29,19.29,0,0,1,.62,2.52,23.52,23.52,0,0,1,.29,2.51,18.45,18.45,0,0,1,0,2.34c0,.42-.05.82-.08,1.21a54,54,0,0,1,9.38-18,41.06,41.06,0,0,0,4.31-6.66,2.64,2.64,0,0,1-.47,0c-.39,0-.84-.07-1.33-.14a11.15,11.15,0,0,1-1.55-.37,10.73,10.73,0,0,1-1.61-.67,8.29,8.29,0,0,1-1.55-1,12.32,12.32,0,0,1-2.69-2.83,14.15,14.15,0,0,1-1.8-3.73,17,17,0,0,1-.74-4.07,15.17,15.17,0,0,1,0-1.9c0-.59.07-1.13.12-1.6a4.28,4.28,0,0,1,.1-.64c0-.2.05-.35.07-.49a2.45,2.45,0,0,1,.08-.32.56.56,0,0,0,0-.1h.1s.15,0,.27,0h.42a3.38,3.38,0,0,1,.54,0,12.46,12.46,0,0,1,1.34.15,9,9,0,0,1,1.52.39,11,11,0,0,1,3.19,1.65,11.74,11.74,0,0,1,2.68,2.84A13.67,13.67,0,0,1,189,77.5a20.37,20.37,0,0,1,.49,2c.12.69.2,1.38.25,2s0,1.31,0,1.9a6.81,6.81,0,0,1-.05.82,107,107,0,0,0,7-21.07,1.42,1.42,0,0,1-.28,0,4.28,4.28,0,0,1-.46-.05,8.44,8.44,0,0,1-1.21-.25,11.84,11.84,0,0,1-4.39-2.22,14.22,14.22,0,0,1-2.69-2.78,17.28,17.28,0,0,1-2-3.53,18.94,18.94,0,0,1-1.11-3.78,14.22,14.22,0,0,1-.22-1.72c0-.54-.08-1-.08-1.46v-.56c0-.18,0-.33,0-.45s0-.22,0-.29V46h.32a2.56,2.56,0,0,1,.37,0,4.19,4.19,0,0,1,.47,0,7.7,7.7,0,0,1,1.19.25,12.13,12.13,0,0,1,1.4.47,11.71,11.71,0,0,1,3,1.75,14.51,14.51,0,0,1,2.69,2.78,15.94,15.94,0,0,1,2,3.53,18.38,18.38,0,0,1,1.11,3.78c.1.61.18,1.18.23,1.72,0,.27,0,.52,0,.74,1.4-6.49,2.21-12,2.56-14.75,0-.07-.1-.12-.15-.2-.2-.32-.42-.71-.66-1.15a13,13,0,0,1-.67-1.53A19.55,19.55,0,0,1,197,35.23a21.89,21.89,0,0,1,.72-4.44,20,20,0,0,1,1.45-3.87,16.07,16.07,0,0,1,.86-1.56c.28-.47.55-.86.79-1.21a4.51,4.51,0,0,1,.35-.44c.1-.12.2-.25.27-.32s.15-.15.17-.2l.08-.07,0,.07s.1.13.14.2.15.2.23.32a3.39,3.39,0,0,1,.27.44c.2.32.42.72.66,1.16s.45,1,.67,1.53a19.55,19.55,0,0,1,1.16,8.24,21.89,21.89,0,0,1-.72,4.44,20,20,0,0,1-1.45,3.87,16.07,16.07,0,0,1-.86,1.56c-.3.47-.55.86-.79,1.2a3.73,3.73,0,0,1-.35.45c-.1.12-.2.25-.27.32a.53.53,0,0,1-.15.15c-.39,3.06-1.23,8.58-2.64,14.92.18-.37.42-.79.69-1.23s.62-1,1-1.46A17.25,17.25,0,0,1,202,56.39a16,16,0,0,1,3.38-2.29A14.15,14.15,0,0,1,209,52.77a12,12,0,0,1,3.45-.28,9.29,9.29,0,0,1,1.48.2c.44.1.84.2,1.18.3l.45.14c.12,0,.25.1.34.15l.23.1.07,0a.43.43,0,0,1,0,.09s0,.15-.1.28a4.18,4.18,0,0,1-.18.39c-.07.15-.14.32-.24.52-.2.37-.42.81-.72,1.28s-.61,1-1,1.46a20.39,20.39,0,0,1-2.66,2.91,17.63,17.63,0,0,1-3.36,2.32A15.39,15.39,0,0,1,204.29,64a12,12,0,0,1-3.45.27,9.33,9.33,0,0,1-1.48-.19c-.45-.1-.84-.2-1.18-.3a3.92,3.92,0,0,1-.45-.15c-.12,0-.25-.1-.34-.15s0,0,0,0v.05a107.22,107.22,0,0,1-7.08,21.28h0a14.45,14.45,0,0,1,1.11-1.5c.42-.49.87-1,1.36-1.48a16,16,0,0,1,1.55-1.31,13.89,13.89,0,0,1,3.55-1.82,11.19,11.19,0,0,1,3.75-.55,10.63,10.63,0,0,1,3.48.72,11.53,11.53,0,0,1,1.46.67c.44.24.81.49,1.16.71l.44.32c.12.1.25.2.32.27a1.85,1.85,0,0,1,.2.2l.07.07,0,.1a2.65,2.65,0,0,1-.12.3,3.57,3.57,0,0,1-.22.44,5.3,5.3,0,0,1-.3.57c-.22.42-.49.86-.81,1.36a18.55,18.55,0,0,1-1.11,1.5,17.14,17.14,0,0,1-2.91,2.79A12.91,12.91,0,0,1,199.65,90a10.81,10.81,0,0,1-3.74.57,10.3,10.3,0,0,1-1.8-.22,11.13,11.13,0,0,1-1.66-.49,8.11,8.11,0,0,1-1.45-.7c-.45-.24-.82-.49-1.16-.71l-.45-.32-.32-.27c-.09-.08-.14-.15-.19-.2h0a40.82,40.82,0,0,1-4.2,6.39,53.16,53.16,0,0,0-9.49,18.72c.07-.1.15-.17.22-.27l.22-.27a3.65,3.65,0,0,1,.27-.3c.37-.42.82-.86,1.31-1.33a19.18,19.18,0,0,1,1.68-1.41,21.53,21.53,0,0,1,2-1.28,14.73,14.73,0,0,1,2.17-1,15.6,15.6,0,0,1,2.29-.64,12.69,12.69,0,0,1,2.35-.25,13.3,13.3,0,0,1,4.56.67,14.62,14.62,0,0,1,2.07.88,13.91,13.91,0,0,1,1.83,1.16,14.51,14.51,0,0,1,1.53,1.31c.44.45.84.86,1.16,1.26a1.52,1.52,0,0,0,.22.27,2.34,2.34,0,0,1,.2.27c.12.17.22.32.32.45s.14.22.19.29a.1.1,0,0,1,0,.2c-.05.07-.12.17-.22.29a4.35,4.35,0,0,1-.37.45,2.13,2.13,0,0,0-.22.27,2.44,2.44,0,0,1-.27.3c-.37.42-.82.86-1.31,1.33a17.54,17.54,0,0,1-1.68,1.4,21.59,21.59,0,0,1-2,1.29,14.73,14.73,0,0,1-2.17,1,14.42,14.42,0,0,1-4.66.93,14,14,0,0,1-2.34-.12,13.35,13.35,0,0,1-2.25-.52,15.68,15.68,0,0,1-2.07-.88,13.91,13.91,0,0,1-1.83-1.16,15.14,15.14,0,0,1-2.68-2.57,2.15,2.15,0,0,0-.23-.27,2.22,2.22,0,0,1-.19-.27c-.13-.17-.23-.32-.32-.45a.36.36,0,0,0-.08-.09c-.54,2-1,3.84-1.31,5.52a63.21,63.21,0,0,0-1,19.54l-.76.24c-.59-3.8-.67-11.29,1-19.93.3-1.5.67-3.15,1.13-4.91h-.86l-.34,0a14.85,14.85,0,0,1-1.63-.25,11.48,11.48,0,0,1-1.88-.54,13.94,13.94,0,0,1-1.94-.89,16.45,16.45,0,0,1-1.9-1.26,15.79,15.79,0,0,1-1.76-1.62,14.59,14.59,0,0,1-1.52-2,18.09,18.09,0,0,1-2.2-4.63,19.29,19.29,0,0,1-.62-2.52,24.13,24.13,0,0,1-.29-2.51,18.61,18.61,0,0,1,0-2.35c0-.74.08-1.38.15-2,0-.15,0-.27.05-.4a1.5,1.5,0,0,0,0-.37c0-.22.07-.41.1-.59s0-.29.07-.39a.58.58,0,0,0,0-.13S159.58,91.56,159.65,91.56Z" transform="translate(-34.2 -4.13)"/><path class="cls-2" d="M108.89,105.13C98.8,93.39,92,115.73,90.37,121.83c-.59-4.81-1.43-9.82-2.49-15-.77-3.72-1.66-7.55-2.64-11.44,3.94-1.14,22.74-7.33,12.8-15C88.52,73,85.56,88.87,84.87,94q-2.27-8.66-5.26-17.73c6.49-3.13,14.56-10.93,9.55-14.58-7-5.15-9.52,6.74-10.29,12.34-2.24-6.64-4.46-12.53-6.38-17.37C74.93,54,86.57,45.83,79.84,42.83c-8-3.58-8,8.68-7.75,12.85-1.85-4.57-3.35-8.07-4.29-10.14C67,29.73,64,26.45,59.78,30.59,52.31,38,64.42,44.9,67.26,46.38c1,2.17,2.46,5.65,4.26,10.11-3-2.37-15.24-11.37-15.54-.32-.19,7.52,13.1,3,15.86,1.13,2,4.89,4.2,10.86,6.44,17.54-3.53-4-12.77-13.1-15.66-4C59.09,82,74.09,77.53,78.55,76.59v.15a1.25,1.25,0,0,1,.3-.12c1.8,5.45,3.67,11.69,5.4,18.4-1.92-3.19-11.67-18.18-17.56-5.92-6,12.45,14.8,7.37,17.73,6.56a213.53,213.53,0,0,1,5.13,26.61c-2.41-4.81-14.1-26.49-21.73-12.18-7.2,13.51,18.6,13.19,21.86,13.12a138.38,138.38,0,0,1,1,17.61l.81,0a138.74,138.74,0,0,0-1-17.63C94.49,122.32,118.51,116.3,108.89,105.13Z" transform="translate(-34.2 -4.13)"/><path class="cls-1" d="M237.19,97.26c9-14.92,20.75,8.53,23.71,15-.25-5.46-.27-11.15-.08-17.1q.23-6.39.77-13.17c-4.59-.52-26.59-3.8-17-14.18,9.15-9.94,15.44,7,17.17,12.6.56-6.68,1.4-13.56,2.46-20.64-7.77-2.24-18.18-9.35-13.34-14.35,6.81-7,11.81,5.64,13.74,11.71,1.23-7.77,2.56-14.72,3.79-20.45-3.2-2.54-17.66-9.34-10.75-13.93,8.21-5.48,10.48,8.11,11,12.77,1.18-5.4,2.19-9.57,2.83-12-2.14-17.66.64-21.85,6.05-18.08,9.69,6.78-2.42,16.72-5.31,18.89-.66,2.59-1.67,6.71-2.81,12,2.89-3.2,14.75-15.49,17.14-3.3,1.63,8.31-14,5.79-17.36,4.24C268,43,266.62,50.08,265.39,57.92c3.15-5,11.66-16.94,16.57-7.37,6,11.74-11.44,9.56-16.57,9.39,0,.1,0,.17,0,.17a1.81,1.81,0,0,1-.37-.09c-1,6.38-1.87,13.66-2.51,21.41,1.53-3.9,9.49-22.35,18.35-9.9,9,12.68-15,11-18.4,10.61a244.89,244.89,0,0,0-.67,30.46c1.78-5.8,10.63-32,21.78-17.61,10.53,13.62-18.1,18.15-21.73,18.67a156.55,156.55,0,0,0,2.2,19.71l-.89.2A156.72,156.72,0,0,1,261,113.83C256.41,113.56,228.64,111.47,237.19,97.26Z" transform="translate(-34.2 -4.13)"/><path class="cls-3" d="M102.6,125c52.68-8.24,107.51-12,206-4.24s7.79,11.39,31.64,13.83-9.74,11.2-61.29,11.3-249.28,0-244.67-7.15,36.33-2.62,42.5-5.28S77.76,128.83,102.6,125Z" transform="translate(-34.2 -4.13)"/><path class="cls-4" d="M152.77,132.83a3.08,3.08,0,0,0-1.36,2.56c.1,2.54,3.92,3.16,5.48,3.38a71.82,71.82,0,0,0,8.28.47c9.35.39,18.65.29,28,.74a156.3,156.3,0,0,0,19.24-.25c7.28-.54,14.55-2.51,20.15-6.86,2-1.57,6.88-5.35,5.65-7.94-1.11-2.34-5-2.64-7.35-3.2-7.89-1.88-16-2.22-24.05-2.49a158.6,158.6,0,0,0-24.46.88c-10.19,1.24-21.09,5.21-29.43,12.58C152.87,132.78,152.82,132.8,152.77,132.83Z" transform="translate(-34.2 -4.13)"/><rect class="cls-5" x="139.19" y="76.16" width="62.6" height="42.77"/><polygon class="cls-5" points="139.19 76.16 123.84 89.2 123.84 131.97 139.19 122.67 139.19 76.16"/><path class="cls-6" d="M173.12,80.22c-4.12,3.5-8.24,7-12.36,10.53L159,92.23c-.27.22.34.24.49.1l12.36-10.54,1.75-1.47c.3-.23-.32-.23-.49-.1Z" transform="translate(-34.2 -4.13)"/><path class="cls-6" d="M173.68,130.33v-46a9.09,9.09,0,0,0,0-1.88v-.07c0-.27-.61-.13-.61.07v46.05a9,9,0,0,0,0,1.87v.08c0,.25.61.12.61-.08Z" transform="translate(-34.2 -4.13)"/><path class="cls-6" d="M180.07,80.07h-6.49c-.34,0-.49.44,0,.44H180c.35,0,.5-.44,0-.44Z" transform="translate(-34.2 -4.13)"/><path class="cls-6" d="M204.22,80.07H186.63c-.34,0-.49.44,0,.44h17.59c.34,0,.47-.44.05-.44Z" transform="translate(-34.2 -4.13)"/><path class="cls-6" d="M234.23,80.07H210.38c-.34,0-.49.44,0,.44h23.86c.34,0,.46-.44,0-.44Z" transform="translate(-34.2 -4.13)"/><path class="cls-7" d="M208.56,122.69c1,.37,1.92.76,2.91,1.13a18,18,0,0,0,5.15,1.31c.87.07,2.42.17,2.32-1.16-.07-1.06-1.23-.79-1.92-1.28-2.89-2.1-1.63-7.94-1.7-10.93a84.3,84.3,0,0,0-1-11.66c-.62-3.8-2.1-7.35-3.16-11-.94-3.25-1.68-6.56-2.76-9.77a.68.68,0,0,0-1.11-.24c-.45.44-1,.91-1.16,1.13-.69.79-1.41,1.58-2.07,2.42a8,8,0,0,1-1.71,1.9c-.61.37-1.23.12-2,.12-3.7,0-7.4,0-11.1,0-.86,0-1.53-1-2.05-1.6-1.4-1.6-2.86-3.16-4.31-4.71a.27.27,0,0,0-.45.07A125.73,125.73,0,0,0,178.17,92a49.55,49.55,0,0,0-2,14.47c0,4.07.89,8,1,12.09,0,.89.05,2-.84,2.59s-2.79-.37-2.44,1.23c.22,1.11,3.35,1.36,4.24,1.48a10.71,10.71,0,0,0,4.14-.42Z" transform="translate(-34.2 -4.13)"/><path class="cls-6" d="M212.51,92.23c-1.34-4-2.2-8.17-3.51-12.21-.19-.62-.32-1.36-1.11-1.36-.64,0-1,.52-1.45.92a43.69,43.69,0,0,0-3.5,4.09,1.77,1.77,0,0,1-1.58.81c-.55,0-1.06-.07-1.61-.07H196.6c-2.2,0-4.37,0-6.56,0a2.05,2.05,0,0,1-1.43-.37,5,5,0,0,1-.84-.88c-.62-.72-1.26-1.43-1.9-2.12s-1.43-1.58-2.17-2.35c-.37-.39-.77-1-1.36-.54a1.91,1.91,0,0,0-.47.94c-.22.56-.44,1.16-.64,1.72-.39,1.09-.74,2.17-1.08,3.26-.72,2.29-1.34,4.64-2,6.93-.08.22.56.15.61-.07,1.11-3.85,2.1-7.72,3.56-11.47a3.09,3.09,0,0,1,.27-.69c.19-.3.07-.27.37,0s.66.72,1,1.09L186,82c.54.61,1.06,1.26,1.62,1.85a2.52,2.52,0,0,0,1.41.89,23.82,23.82,0,0,0,2.93,0h3.29c1.94,0,3.92-.07,5.87.08,1.55.1,2.24-1,3.1-2.12.6-.77,1.24-1.46,1.88-2.2.22-.24.44-.49.69-.74s.94-1.16,1.28-.44a11,11,0,0,1,.54,1.65c.18.54.32,1.11.5,1.65.29,1,.56,2.08.84,3.11.59,2.22,1.2,4.42,1.92,6.61.1.25.71.08.67-.12Z" transform="translate(-34.2 -4.13)"/><path class="cls-6" d="M189.2,90.18a1,1,0,1,1-1-1A1,1,0,0,1,189.2,90.18Z" transform="translate(-34.2 -4.13)"/><path class="cls-6" d="M202.37,90.16a1,1,0,1,1-1-1A1,1,0,0,1,202.37,90.16Z" transform="translate(-34.2 -4.13)"/><path class="cls-6" d="M194.6,92.33v.51c0,.15.15.2.27.18s.35-.1.35-.25v-.52c0-.15-.15-.19-.28-.17s-.34.1-.34.25Z" transform="translate(-34.2 -4.13)"/><path class="cls-6" d="M194.85,92.7l-1-.62a.13.13,0,0,1,.07-.25l2.1,0a.13.13,0,0,1,.05.24l-1.09.57A.06.06,0,0,1,194.85,92.7Z" transform="translate(-34.2 -4.13)"/><g class="cls-8"><circle class="cls-9" cx="152.41" cy="90.96" r="3.23"/><circle class="cls-9" cx="169.06" cy="91.09" r="3.23"/></g><path class="cls-6" d="M186.76,91.14h2.71c.25,0,.66-.39.22-.39H187c-.25,0-.64.39-.22.39Z" transform="translate(-34.2 -4.13)"/><path class="cls-6" d="M199.93,91.14h2.71c.25,0,.67-.39.22-.39h-2.71c-.25,0-.64.39-.22.39Z" transform="translate(-34.2 -4.13)"/><rect class="cls-5" x="123.85" y="89.2" width="62.6" height="42.77"/><path class="cls-10" d="M220.64,93.91c-2,3-4.31,8.78-5.74,11.37-.87,1.55-2.52,2-4.29,2l-52.54.13v28.41h62.6V93.91Z" transform="translate(-34.2 -4.13)"/><polygon class="cls-5" points="201.76 83.23 186.44 89.2 186.44 131.97 201.76 119.15 201.76 83.23"/><path class="cls-10" d="M236,98.71l-5.08,4.89a4.17,4.17,0,0,1-4.88-1.36l-5.36-7.13v41L236,123.28Z" transform="translate(-34.2 -4.13)"/><path class="cls-6" d="M220.32,95.24V134.6c0,.2.62.08.62-.17V95.06c0-.17-.62,0-.62.18Z" transform="translate(-34.2 -4.13)"/><path class="cls-6" d="M235.64,98.37V121.6a14.61,14.61,0,0,0,0,1.48s0,.37.05.13,0,0-.15.07l-3.7,3.11-10.53,8.8c-.07.05-.89.64-.86.74,0-.07.42-.07,0-.07H158.1l.29.22V106.56c0-.35-.64-.27-.64,0v29.52c0,.17.15.22.3.22h61.63a2.45,2.45,0,0,0,1.21-.1,6.85,6.85,0,0,0,1-.81c.69-.57,1.36-1.13,2.05-1.73,1.92-1.6,3.85-3.2,5.77-4.83l5.13-4.29c.42-.35.86-.69,1.26-1.06a.63.63,0,0,0,.25-.47c.09-1.33,0-2.71,0-4V98.34c0-.34-.67-.27-.67,0Z" transform="translate(-34.2 -4.13)"/><path class="cls-10" d="M220.64,93.34H158.05l-6.42,10.85a.78.78,0,0,0,.67,1.16h60.21a1.81,1.81,0,0,0,1.55-.89Z" transform="translate(-34.2 -4.13)"/><path class="cls-6" d="M170.67,93.17H159.58a13.26,13.26,0,0,0-1.41,0c-.47,0-.57.41-.77.76l-3.2,5.43c-.91,1.55-1.88,3.1-2.76,4.68a.92.92,0,0,0,.74,1.48h57.34c1.55,0,3.9.42,4.86-1.13,2-3.31,4-6.71,5.92-10l.59-1c.07-.13,0-.17-.17-.17H179.33c-.22,0-.66.34-.25.34h41.39l-.17-.17c-1.58,2.69-3.18,5.37-4.76,8.09-.59,1-1.14,2.07-1.8,3-.5.74-1,.74-1.78.74H154c-.5,0-1,0-1.51,0-1.23-.1-.47-1.26-.12-1.82,1.82-3.09,3.62-6.17,5.45-9.25.15-.25.29-.52.44-.77-.15,0-.27.13-.42.18h12.51c.29,0,.71-.37.29-.37Z" transform="translate(-34.2 -4.13)"/><path class="cls-10" d="M236,80.29l-15.32,13,8.56,8.26a.56.56,0,0,0,.79.05l13.86-12.23c.27-.28.57-.79.25-1.11Z" transform="translate(-34.2 -4.13)"/><path class="cls-6" d="M235.71,80.22c-4.46,3.79-8.92,7.62-13.41,11.42l-1.93,1.62c-.05,0-.1.13-.05.18l6.91,6.68c.47.44.94.91,1.41,1.36s.78.64,1.35.37a4.81,4.81,0,0,0,.67-.52c.44-.4.89-.79,1.33-1.16q4.44-3.92,8.9-7.84c1-.87,2-1.73,3-2.62.32-.29.74-.66.69-1.13s-.46-.67-.69-.89l-7.57-7.5c-.15-.15-.74.08-.57.25Q239,83.7,242.3,87c.44.45.89.87,1.31,1.31a.75.75,0,0,1,0,1.19c-.69.69-1.48,1.3-2.22,1.94-2.88,2.54-5.77,5.08-8.65,7.65-.92.79-1.81,1.6-2.72,2.39-.24.22-.27.27-.57,0s-.69-.67-1-1c-2.49-2.42-5-4.81-7.47-7.23a1.21,1.21,0,0,0,0,.18q6.69-5.7,13.41-11.42l1.93-1.63C236.5,80.09,235.89,80.09,235.71,80.22Z" transform="translate(-34.2 -4.13)"/><path class="cls-7" d="M173.78,91.17a4.16,4.16,0,0,1,3-.18,2.34,2.34,0,0,1,1.18.84,1.22,1.22,0,0,1,0,1.38,4.11,4.11,0,0,1-.54.08,2.21,2.21,0,0,0-.57.17c-.29.15-.29.35-.27.64a1,1,0,0,1-.29.67,2,2,0,0,1-1.48.52,2.93,2.93,0,0,1-2.72-1.43c-.27-.57,0-.94.25-1.43A2.74,2.74,0,0,1,173.78,91.17Z" transform="translate(-34.2 -4.13)"/><path class="cls-6" d="M173.91,91.34c1.11-.47,3.47-.57,3.94.94.08.24.08.74,0,.81a4.6,4.6,0,0,1-.57.08,1.1,1.1,0,0,0-.91.64c-.1.32,0,.59-.24.88a1.62,1.62,0,0,1-1.16.4,3.46,3.46,0,0,1-1.71-.44,1.44,1.44,0,0,1-.78-1.73,2.87,2.87,0,0,1,1.48-1.58c.37-.2,0-.49-.28-.35-1.38.7-2.76,2.42-1.25,3.73a3.34,3.34,0,0,0,4,.25,1.88,1.88,0,0,0,.49-.89c.3-.82.62-.42,1.16-.67s.52-1.08.3-1.55c-.79-1.63-3.35-1.48-4.74-.89C173.24,91.17,173.61,91.46,173.91,91.34Z" transform="translate(-34.2 -4.13)"/><path class="cls-6" d="M170,101.16a13.06,13.06,0,0,1,2.66-5.31c.13-.14-.47,0-.57.05a13.74,13.74,0,0,0-2.71,5.36c0,.14.57.07.62-.1Z" transform="translate(-34.2 -4.13)"/><path class="cls-6" d="M173.12,98.32a10.62,10.62,0,0,1,1-1.5c.15-.18-.47-.1-.57,0a9.88,9.88,0,0,0-1,1.58c-.05.12.22.1.25.1a1,1,0,0,0,.37-.2Z" transform="translate(-34.2 -4.13)"/><path class="cls-6" d="M172,101.38a13,13,0,0,1,.84-2.49c.07-.15-.54-.08-.62.1a12.37,12.37,0,0,0-.84,2.49c0,.17.6.07.62-.1Z" transform="translate(-34.2 -4.13)"/><path class="cls-6" d="M174.74,100.15a9.51,9.51,0,0,1,1.14-3.75c.15-.27-.49-.23-.59,0a9.48,9.48,0,0,0-1.16,3.82c0,.28.59.18.61,0Z" transform="translate(-34.2 -4.13)"/></svg>