<?xml version="1.0" encoding="utf-8"?>
<!-- Generator: Adobe Illustrator 26.5.0, SVG Export Plug-In . SVG Version: 6.00 Build 0)  -->
<svg version="1.1" id="Capa_1" xmlns="http://www.w3.org/2000/svg" xmlns:xlink="http://www.w3.org/1999/xlink" x="0px" y="0px"
	 viewBox="0 0 548.3 548.3" style="enable-background:new 0 0 548.3 548.3;" xml:space="preserve">
<style type="text/css">
	.st0{fill:#4CAF50;}
</style>
<g>
	<path class="st0" d="M481.2,198h-12.9v-62c0-0.4-0.1-0.8-0.1-1.2c0-2.5-0.8-4.9-2.5-6.8L362.5,10c0,0-0.1,0-0.1-0.1
		c-0.6-0.7-1.3-1.3-2.1-1.8c-0.2-0.2-0.5-0.3-0.7-0.4c-0.7-0.4-1.4-0.7-2.1-0.9c-0.2-0.1-0.4-0.1-0.6-0.2c-0.8-0.2-1.6-0.3-2.4-0.3
		H100.9c-11.6,0-21,9.4-21,21V198H67.1c-16.6,0-30,13.4-30,30V384c0,16.6,13.4,30,30,30h12.9v106.8c0,11.6,9.4,21,21,21h346.4
		c11.6,0,21-9.4,21-21V414h12.9c16.6,0,30-13.4,30-30V228C511.2,211.4,497.8,198,481.2,198z M100.9,27.4h243.2v107.4
		c0,5.8,4.7,10.5,10.5,10.5h92.7V198H100.9V27.4z M259,312.3c-26.1-9.1-43-23.5-43-46.3c0-26.8,22.3-47.2,59.3-47.2
		c17.7,0,30.7,3.7,40,7.9l-7.9,28.6c-6.3-3-17.4-7.5-32.8-7.5c-15.3,0-22.8,7-22.8,15.1c0,10,8.8,14.4,29.1,22.1
		c27.7,10.2,40.7,24.6,40.7,46.7c0,26.3-20.2,48.6-63.3,48.6c-17.9,0-35.6-4.7-44.4-9.5l7.2-29.3c9.5,4.9,24.2,9.8,39.3,9.8
		c16.3,0,24.9-6.7,24.9-17C285.3,324.6,277.8,319,259,312.3z M74.3,302c0-53.5,38.2-83.3,85.6-83.3c18.4,0,32.3,3.7,38.6,7
		l-7.2,28.1c-7.2-3-17.2-5.8-29.8-5.8c-28.1,0-50,17-50,51.9c0,31.4,18.6,51.2,50.2,51.2c10.7,0,22.6-2.3,29.5-5.1l5.4,27.7
		c-6.5,3.3-21.2,6.8-40.2,6.8C102.2,380.4,74.3,346.7,74.3,302z M447.4,515.2H100.9V414h346.4V515.2z M423.9,378.1h-41.4
		l-50.2-156.8h38.9l19.1,66.3c5.4,18.6,10.2,36.5,14,56h0.7c4-18.8,8.8-37.4,14.2-55.4l20-67h37.7L423.9,378.1z"/>
</g>
<path class="st0" d="M407,474.8H142.5c-5.6,0-10.2-4.6-10.2-10.2v0c0-5.6,4.6-10.2,10.2-10.2H407c5.6,0,10.2,4.6,10.2,10.2v0
	C417.3,470.2,412.7,474.8,407,474.8z"/>
<path class="st0" d="M298.4,152.1H140.3c-4.4,0-8-3.6-8-8v-4.5c0-4.4,3.6-8,8-8h158.2c4.4,0,8,3.6,8,8v4.5
	C306.4,148.5,302.8,152.1,298.4,152.1z"/>
<path class="st0" d="M298.4,89.2H140.3c-4.4,0-8-3.6-8-8v-4.5c0-4.4,3.6-8,8-8h158.2c4.4,0,8,3.6,8,8v4.5
	C306.4,85.6,302.8,89.2,298.4,89.2z"/>
</svg>
