<svg id="Capa_1" enable-background="new 0 0 512 512" height="512" viewBox="0 0 512 512" width="512" xmlns="http://www.w3.org/2000/svg"><path d="m174.544 25.989c0-14.353-11.636-25.989-25.99-25.989h-110.933c-14.354 0-25.99 11.636-25.99 25.989v460.021c0 14.354 11.636 25.989 25.989 25.989h110.934c14.354 0 25.989-11.636 25.989-25.989h24.293v-460.021z" fill="#0e80ac"/><path d="m148.554 0h-35.473c14.354 0 25.989 11.636 25.989 25.989v460.021c0 14.354-11.636 25.989-25.989 25.989h35.473c14.354 0 25.989-11.636 25.989-25.989v-460.021c.001-14.353-11.635-25.989-25.989-25.989z" fill="#057195"/><path d="m337.456 25.989c0-14.353-11.636-25.989-25.989-25.989h-110.934c-14.354 0-25.989 11.636-25.989 25.989v460.021c0 14.354 11.636 25.989 25.989 25.989h110.934c14.354 0 25.989-11.636 25.989-25.989h24.293v-460.021z" fill="#fd7e42"/><path d="m311.467 0h-35.473c14.354 0 25.989 11.636 25.989 25.989v460.021c0 14.354-11.636 25.989-25.989 25.989h35.473c14.354 0 25.989-11.636 25.989-25.989v-460.021c0-14.353-11.636-25.989-25.989-25.989z" fill="#fa6931"/><path d="m210.017 236.153v-189.875c0-6.389 5.179-11.568 11.568-11.568h68.829c6.389 0 11.569 5.179 11.569 11.568v189.875c0 6.389-5.179 11.568-11.569 11.568h-68.829c-6.389 0-11.568-5.179-11.568-11.568z" fill="#f1faff"/><path d="m474.379 512h-110.933c-14.354 0-25.989-11.636-25.989-25.989v-460.022c-.001-14.353 11.635-25.989 25.989-25.989h110.934c14.354 0 25.989 11.636 25.989 25.989v460.021c0 14.354-11.636 25.99-25.99 25.99z" fill="#fdcb82"/><path d="m474.379 0h-35.473c14.354 0 25.989 11.636 25.989 25.989v460.021c0 14.354-11.636 25.989-25.989 25.989h35.473c14.354 0 25.989-11.636 25.989-25.989v-460.021c.001-14.353-11.635-25.989-25.989-25.989z" fill="#fbbe66"/><path d="m372.929 236.153v-189.875c0-6.389 5.179-11.568 11.568-11.568h68.829c6.389 0 11.568 5.179 11.568 11.568v189.875c0 6.389-5.179 11.568-11.568 11.568h-68.829c-6.388 0-11.568-5.179-11.568-11.568z" fill="#f1faff"/><circle cx="93.088" cy="417.038" fill="#f1faff" r="45.963"/><path d="m93.088 437.603c-11.339 0-20.565-9.225-20.565-20.565 0-11.339 9.225-20.565 20.565-20.565s20.565 9.225 20.565 20.565c-.001 11.34-9.226 20.565-20.565 20.565z" fill="#3c5959"/><path d="m47.104 236.153v-189.875c0-6.389 5.179-11.568 11.568-11.568h68.829c6.389 0 11.568 5.179 11.568 11.568v189.875c0 6.389-5.179 11.568-11.568 11.568h-68.828c-6.389 0-11.569-5.179-11.569-11.568z" fill="#f1faff"/><g fill="#0e80ac"><path d="m109.955 84.887h-33.736c-4.267 0-7.726-3.459-7.726-7.726s3.459-7.726 7.726-7.726h33.736c4.267 0 7.726 3.459 7.726 7.726.001 4.267-3.459 7.726-7.726 7.726z"/><path d="m109.955 126.037h-33.736c-4.267 0-7.726-3.459-7.726-7.726s3.459-7.726 7.726-7.726h33.736c4.267 0 7.726 3.459 7.726 7.726.001 4.267-3.459 7.726-7.726 7.726z"/><path d="m272.868 84.887h-33.735c-4.267 0-7.726-3.459-7.726-7.726s3.459-7.726 7.726-7.726h33.735c4.267 0 7.726 3.459 7.726 7.726s-3.459 7.726-7.726 7.726z"/><path d="m272.868 126.037h-33.735c-4.267 0-7.726-3.459-7.726-7.726s3.459-7.726 7.726-7.726h33.735c4.267 0 7.726 3.459 7.726 7.726s-3.459 7.726-7.726 7.726z"/><path d="m435.78 84.887h-33.735c-4.267 0-7.726-3.459-7.726-7.726s3.459-7.726 7.726-7.726h33.735c4.267 0 7.726 3.459 7.726 7.726.001 4.267-3.459 7.726-7.726 7.726z"/><path d="m435.78 126.037h-33.735c-4.267 0-7.726-3.459-7.726-7.726s3.459-7.726 7.726-7.726h33.735c4.267 0 7.726 3.459 7.726 7.726.001 4.267-3.459 7.726-7.726 7.726z"/></g><circle cx="93.088" cy="417.038" fill="#f1faff" r="52.326"/><path d="m93.088 440.822c-13.114 0-23.784-10.669-23.784-23.784 0-13.114 10.669-23.784 23.784-23.784s23.784 10.669 23.784 23.784c-.001 13.115-10.67 23.784-23.784 23.784z" fill="#3c5959"/><circle cx="256" cy="417.038" fill="#f1faff" r="52.326"/><path d="m256 440.822c-13.114 0-23.784-10.669-23.784-23.784 0-13.114 10.669-23.784 23.784-23.784 13.114 0 23.784 10.669 23.784 23.784s-10.67 23.784-23.784 23.784z" fill="#3c5959"/><circle cx="418.912" cy="417.038" fill="#f1faff" r="52.326"/><path d="m418.913 440.822c-13.114 0-23.784-10.669-23.784-23.784 0-13.114 10.669-23.784 23.784-23.784 13.114 0 23.784 10.669 23.784 23.784-.001 13.115-10.67 23.784-23.784 23.784z" fill="#3c5959"/></svg>