<?xml version="1.0" encoding="utf-8"?>
<!-- Generator: Adobe Illustrator 26.0.1, SVG Export Plug-In . SVG Version: 6.00 Build 0)  -->
<svg version="1.1" id="Layer_1" xmlns="http://www.w3.org/2000/svg" xmlns:xlink="http://www.w3.org/1999/xlink" x="0px" y="0px"
	 viewBox="0 0 1024 1024" style="enable-background:new 0 0 1024 1024;" xml:space="preserve">
<style type="text/css">
	.st0{fill:#ECF3FE;}
	.st1{opacity:0.15;fill:#232323;}
	.st2{fill:#FFFFFF;}
	.st3{fill:#F4B545;}
	.st4{fill:#E4ECF9;}
	.st5{fill:#5B97EF;}
	.st6{fill:#CECECE;}
	.st7{fill:#EDEDED;}
	.st8{fill:#52D1BD;}
	.st9{fill:#3B82F4;}
	.st10{opacity:0.29;fill:#474747;}
	.st11{fill:#434444;}
	.st12{fill:#5E5E5E;}
	.st13{fill:#565555;}
	.st14{fill:#383838;}
	.st15{opacity:0.1;fill:#232323;}
	.st16{fill:#4786D1;}
</style>
<circle class="st0" cx="72.5" cy="812.5" r="39.1"/>
<g>
	<g>
		<path class="st0" d="M855.8,211c-159.1-126.2-444.9-92.7-602.6,30.8C78.5,378.9,115.5,584.3,122.7,619.3
			c25,121.8,127.1,315.5,321.7,341.7c216.3,29.1,387.5-170.2,450-289.4C910.8,640.3,1049.6,364.7,855.8,211z"/>
		<path class="st1" d="M734.3,719.2L557.8,321.6c-6.5-14.7-23.9-21.4-38.6-14.9l-319,141.6c-14.7,6.5-21.4,23.9-14.9,38.6
			l176.5,397.6c6.5,14.7,23.9,21.4,38.6,14.9l319-141.6C734.1,751.3,740.8,733.9,734.3,719.2z"/>
		<g>
			<path class="st2" d="M728.3,733.2l-319,141.6c-14.7,6.5-32.1-0.2-38.6-14.9L194.1,462.3c-6.5-14.7,0.2-32.1,14.9-38.6l319-141.6
				c14.7-6.5,32.1,0.2,38.6,14.9l176.5,397.6C749.7,709.3,743,726.7,728.3,733.2z"/>
			<path class="st3" d="M364.4,419.5l-108.3,48.1c-5.5,2.4-12-0.1-14.4-5.6l0,0c-2.4-5.5,0.1-12,5.6-14.4l108.3-48.1
				c5.5-2.4,12,0.1,14.4,5.6v0C372.4,410.5,369.9,417,364.4,419.5z"/>
			<path class="st4" d="M551.2,396.8L311.4,503.3c-5.5,2.4-12-0.1-14.4-5.6l0,0c-2.4-5.5,0.1-12,5.6-14.4l239.8-106.5
				c5.5-2.4,12,0.1,14.4,5.6l0,0C559.2,387.9,556.7,394.4,551.2,396.8z"/>
			<path class="st4" d="M572.2,444L299.4,565.1c-5.5,2.4-12-0.1-14.4-5.6l0,0c-2.4-5.5,0.1-12,5.6-14.4L563.3,424
				c5.5-2.4,12,0.1,14.4,5.6l0,0C580.2,435,577.7,441.5,572.2,444z"/>
			<path class="st4" d="M593.1,491.2L320.4,612.2c-5.5,2.4-12-0.1-14.4-5.6v0c-2.4-5.5,0.1-12,5.6-14.4l272.7-121.1
				c5.5-2.4,12,0.1,14.4,5.6v0C601.1,482.2,598.6,488.7,593.1,491.2z"/>
			<path class="st4" d="M614.1,538.3L341.3,659.4c-5.5,2.4-12-0.1-14.4-5.6l0,0c-2.4-5.5,0.1-12,5.6-14.4l272.7-121.1
				c5.5-2.4,12,0.1,14.4,5.6l0,0C622.1,529.4,619.6,535.9,614.1,538.3z"/>
			<path class="st4" d="M635,585.5L362.3,706.6c-5.5,2.4-12-0.1-14.4-5.6l0,0c-2.4-5.5,0.1-12,5.6-14.4l272.7-121.1
				c5.5-2.4,12,0.1,14.4,5.6l0,0C643,576.6,640.5,583.1,635,585.5z"/>
			<path class="st4" d="M656,632.7L383.2,753.8c-5.5,2.4-12-0.1-14.4-5.6h0c-2.4-5.5,0.1-12,5.6-14.4l272.7-121.1
				c5.5-2.4,12,0.1,14.4,5.6l0,0C663.9,623.8,661.4,630.3,656,632.7z"/>
			<path class="st4" d="M676.9,679.9L404.2,801c-5.5,2.4-12-0.1-14.4-5.6v0c-2.4-5.5,0.1-12,5.6-14.4L668,659.9
				c5.5-2.4,12,0.1,14.4,5.6v0C684.9,671,682.4,677.5,676.9,679.9z"/>
		</g>
		<path class="st1" d="M890.3,737.9l0-274.6c0-0.3,0-0.7,0-1c0-0.2,0-0.5,0-0.7c0-0.3,0-0.6-0.1-0.9c0-0.2-0.1-0.5-0.1-0.7
			c0-0.2-0.1-0.5-0.1-0.7c-0.1-0.3-0.1-0.6-0.2-0.9c-0.2-0.6-0.3-1.2-0.6-1.8c0,0,0,0,0,0c-0.1-0.4-0.3-0.7-0.5-1.1
			c-0.6-1.3-1.3-2.6-2.1-3.7c-0.2-0.3-0.4-0.5-0.6-0.8c-0.5-0.6-1-1.2-1.5-1.7c-0.2-0.2-0.4-0.4-0.5-0.5c-0.2-0.2-0.5-0.5-0.8-0.7
			c0,0-0.1-0.1-0.1-0.1l-1-0.8c0,0,0,0,0,0l-29.2-22.1v-44.8l-31.5-31.5l-17.2-17.2l-45.5-45.5v0l0,0h-88.9L636.7,261
			c-7.2-5.5-17.2-5.5-24.4,0l-32.8,24.9H423.9c-18.8,0-34.2,15.4-34.2,34.2v109.9l-22.6,17.2l-1,0.8c0,0-0.1,0.1-0.1,0.1
			c-2.7,2.2-4.8,5.2-6.1,8.6c-0.8,2.1-1.2,4.4-1.2,6.8l0,274.6l0,0v1l0,0v2.8c0,0.5,0,1,0.1,1.5c0,0.1,0,0.2,0,0.3
			c0,0.1,0,0.2,0,0.3c0,0.1,0,0.1,0,0.1c0,0,0,0,0,0c0,0.1,0,0.1,0,0.1c0,0.3,0.1,0.6,0.1,0.9c0,0,0,0.1,0,0.2c0,0.1,0,0.2,0.1,0.3
			c0,0.1,0.1,0.2,0.1,0.4c0,0.1,0,0.1,0,0.2c0,0.1,0,0.1,0,0.2c0.1,0.3,0.2,0.7,0.3,1c0,0.1,0,0.1,0.1,0.2c0,0.1,0.1,0.3,0.1,0.4
			c0,0.1,0.1,0.3,0.1,0.4c0.1,0.3,0.3,0.7,0.4,1c0,0,0,0,0,0c0.1,0.2,0.2,0.4,0.3,0.7c0,0.1,0.1,0.2,0.1,0.3
			c0.1,0.3,0.3,0.6,0.4,0.9c0,0,0.1,0.1,0.1,0.1c0,0.1,0.1,0.1,0.1,0.2c0.1,0.2,0.2,0.3,0.3,0.5c0,0.1,0.1,0.1,0.1,0.2
			c0.2,0.3,0.4,0.6,0.6,0.9c0,0.1,0.1,0.1,0.1,0.2c0.2,0.3,0.4,0.6,0.6,0.8c0.1,0.1,0.2,0.3,0.3,0.4c0.2,0.2,0.3,0.4,0.5,0.6
			c0.1,0.1,0.1,0.1,0.2,0.2c0.3,0.3,0.6,0.7,1,1c0.1,0.1,0.2,0.2,0.3,0.3c0.1,0.1,0.3,0.2,0.4,0.4c0.6,0.5,1.1,0.9,1.7,1.3
			c0.1,0.1,0.2,0.1,0.3,0.2c0.2,0.1,0.3,0.2,0.5,0.3c0.2,0.1,0.5,0.3,0.7,0.4c0.2,0.1,0.3,0.2,0.5,0.2c0.2,0.1,0.4,0.2,0.6,0.3
			c0.2,0.1,0.4,0.2,0.6,0.3c0.3,0.1,0.6,0.2,0.9,0.4c0.1,0,0.1,0,0.1,0.1c0.1,0,0.2,0.1,0.3,0.1c0.2,0,0.3,0.1,0.5,0.2
			c0.1,0,0.2,0.1,0.2,0.1c0,0,0,0,0,0c0.4,0.1,0.8,0.2,1.2,0.3c0.1,0,0.2,0.1,0.3,0.1c0.1,0,0.1,0,0.2,0c0.1,0,0.2,0,0.2,0
			c0.3,0.1,0.5,0.1,0.8,0.1c0,0,0,0,0.1,0c0.1,0,0.1,0,0.2,0c0.1,0,0.1,0,0.2,0c0.2,0,0.3,0,0.5,0.1c0.1,0,0.1,0,0.2,0
			c0.1,0,0.1,0,0.2,0c0.2,0,0.5,0,0.7,0c0.4,0,0.7,0,1.1,0h1.1l0,0l490.6,0c0.4,0,0.7,0,1.1,0c0.2,0,0.5,0,0.7,0c0.1,0,0.1,0,0.2,0
			c0.1,0,0.2,0,0.4,0c0.1,0,0.1,0,0.2,0c0.1,0,0.3,0,0.4,0c0,0,0,0,0.1,0c0.2,0,0.3-0.1,0.5-0.1c0.1,0,0.3,0,0.4-0.1
			c0,0,0.1,0,0.1,0c0,0,0,0,0,0c0.2,0,0.4-0.1,0.5-0.1c0.4-0.1,0.8-0.2,1.2-0.3c0,0,0,0,0,0c0.1,0,0.2-0.1,0.3-0.1
			c0.1,0,0.2-0.1,0.4-0.1c0.1,0,0.1,0,0.2-0.1c0.1,0,0.1,0,0.2-0.1c0.1,0,0.2-0.1,0.3-0.1c0.9-0.3,1.7-0.7,2.5-1.1c0,0,0,0,0.1,0
			c0.1-0.1,0.3-0.1,0.4-0.2c0.1-0.1,0.2-0.1,0.4-0.2c0.1-0.1,0.3-0.2,0.4-0.3c0.1,0,0.1-0.1,0.2-0.1c0.1,0,0.1-0.1,0.2-0.1
			c0.2-0.2,0.5-0.3,0.7-0.5c0,0,0.1-0.1,0.1-0.1c0.1-0.1,0.3-0.2,0.4-0.3c0.1-0.1,0.3-0.2,0.4-0.3c0,0,0.1-0.1,0.1-0.1
			c0,0,0.1-0.1,0.1-0.1c0.1-0.1,0.3-0.2,0.4-0.3c0.1-0.1,0.2-0.2,0.3-0.3c0.1-0.1,0.2-0.2,0.2-0.2c0.1-0.1,0.2-0.2,0.3-0.3
			c0.2-0.2,0.3-0.3,0.5-0.5c0.2-0.2,0.3-0.4,0.5-0.6c0.1-0.1,0.2-0.2,0.3-0.3c0.2-0.3,0.5-0.6,0.7-0.9c0.1-0.1,0.2-0.3,0.3-0.4
			c0.1-0.1,0.1-0.2,0.2-0.3c0.1-0.2,0.3-0.4,0.4-0.6c0.1-0.1,0.2-0.3,0.2-0.4c0.1-0.1,0.2-0.3,0.2-0.4c0.1-0.1,0.2-0.3,0.2-0.4
			c0.2-0.4,0.4-0.9,0.6-1.3c0,0,0-0.1,0-0.1c0-0.1,0.1-0.3,0.2-0.5c0.1-0.2,0.1-0.3,0.2-0.5c0,0,0,0,0,0c0.1-0.1,0.1-0.3,0.1-0.4
			c0-0.1,0.1-0.3,0.1-0.4c0-0.1,0-0.1,0.1-0.2c0,0,0-0.1,0-0.1c0-0.2,0.1-0.4,0.2-0.6c0-0.1,0.1-0.2,0.1-0.3c0-0.1,0-0.1,0-0.2
			c0-0.1,0-0.1,0.1-0.2c0,0,0-0.1,0-0.1c0,0,0-0.1,0-0.1c0-0.2,0.1-0.5,0.1-0.7c0-0.2,0.1-0.5,0.1-0.7c0-0.1,0-0.2,0-0.3
			c0-0.1,0-0.1,0-0.2c0-0.2,0-0.3,0-0.5c0-0.2,0-0.3,0-0.5c0-0.4,0-0.7,0-1v-0.9v-1.9V737.9L890.3,737.9z"/>
		<g>
			<path class="st5" d="M909.7,443.2l0,278.3c0,0.3,0,0.7,0,1c0,0.2,0,0.3,0,0.5c0,0.1,0,0.3,0,0.5c0,0.1,0,0.1,0,0.2
				c0,0.1,0,0.2,0,0.3c0,0.2-0.1,0.5-0.1,0.7c0,0.2-0.1,0.5-0.1,0.7c0,0.1,0,0.2-0.1,0.3c0,0.1,0,0.2,0,0.3c0,0.1,0,0.2-0.1,0.3
				c0,0.2-0.1,0.4-0.2,0.6c0,0,0,0.1,0,0.1c-0.1,0.4-0.2,0.7-0.3,1c0,0,0,0,0,0c-0.1,0.2-0.1,0.4-0.2,0.5c-0.1,0.2-0.1,0.3-0.2,0.5
				c0,0,0,0.1,0,0.1c-0.2,0.4-0.4,0.9-0.6,1.3c-0.1,0.1-0.1,0.3-0.2,0.4c-0.1,0.1-0.2,0.3-0.2,0.4c-0.1,0.1-0.1,0.3-0.2,0.4
				c-0.2,0.3-0.3,0.5-0.5,0.8c-0.1,0.2-0.2,0.3-0.3,0.5c-0.3,0.4-0.5,0.7-0.8,1c-0.2,0.3-0.4,0.5-0.6,0.7c-0.2,0.2-0.4,0.5-0.7,0.7
				c-0.1,0.1-0.2,0.2-0.3,0.3c-0.1,0.1-0.2,0.2-0.3,0.3c-0.1,0.1-0.2,0.2-0.4,0.3c0,0-0.1,0.1-0.1,0.1c-0.3,0.3-0.6,0.5-1,0.8
				c0,0-0.1,0-0.1,0.1c-0.3,0.2-0.5,0.4-0.8,0.5c-0.1,0.1-0.2,0.1-0.3,0.2c-0.1,0.1-0.3,0.2-0.4,0.3c-0.1,0.1-0.2,0.1-0.4,0.2
				c-0.1,0.1-0.3,0.2-0.4,0.2c-0.9,0.5-1.9,1-2.8,1.3c-0.1,0-0.1,0-0.2,0.1c-0.1,0-0.1,0-0.2,0.1c-0.2,0.1-0.5,0.2-0.7,0.2
				c-0.4,0.1-0.8,0.2-1.2,0.3c-0.2,0-0.4,0.1-0.6,0.1c-0.1,0-0.3,0-0.4,0.1c-0.2,0-0.3,0.1-0.5,0.1c0,0,0,0-0.1,0
				c-0.1,0-0.3,0-0.4,0c-0.1,0-0.1,0-0.2,0c-0.1,0-0.2,0-0.4,0c-0.1,0-0.1,0-0.2,0c-0.2,0-0.5,0-0.7,0c-0.4,0-0.7,0-1.1,0l-491.7,0
				c-0.4,0-0.7,0-1.1,0c-0.2,0-0.5,0-0.7,0c-0.3,0-0.5,0-0.8-0.1c-0.2,0-0.3,0-0.5-0.1c-0.4,0-0.8-0.1-1.1-0.2c-0.1,0-0.2,0-0.3-0.1
				c-0.4-0.1-0.8-0.2-1.2-0.3c-0.2-0.1-0.5-0.1-0.7-0.2c-1.1-0.4-2.1-0.8-3.1-1.4c-0.2-0.1-0.5-0.3-0.7-0.4
				c-0.3-0.2-0.5-0.3-0.8-0.5c-1.6-1.1-3-2.4-4.2-3.9c-0.3-0.3-0.6-0.7-0.8-1.1c-0.9-1.2-1.6-2.5-2.2-4c-0.1-0.3-0.3-0.7-0.4-1
				c-0.1-0.3-0.2-0.7-0.3-1c-0.1-0.4-0.2-0.7-0.3-1.1c-0.1-0.3-0.1-0.7-0.2-1c0,0,0-0.1,0-0.2c0-0.3-0.1-0.7-0.1-1c0,0,0,0,0-0.1
				c0-0.3,0-0.5-0.1-0.8c0-0.5-0.1-1-0.1-1.5l0-278.3c0-2.4,0.4-4.7,1.2-6.8c1.2-3.4,3.3-6.3,6.1-8.6c0,0,0.1-0.1,0.1-0.1l1-0.8
				c3.2-2.3,7.2-3.7,11.5-3.7l491.7,0c0.5,0,1,0,1.4,0.1c0.1,0,0.2,0,0.3,0c0.5,0,0.9,0.1,1.4,0.1c0.1,0,0.2,0,0.3,0
				c0.4,0.1,0.8,0.1,1.1,0.2c0.1,0,0.2,0,0.3,0.1c0.5,0.1,0.9,0.2,1.4,0.4c0.4,0.1,0.9,0.3,1.3,0.5c0.6,0.2,1.1,0.5,1.7,0.8
				c0.3,0.1,0.6,0.3,0.9,0.5c0.5,0.3,1,0.6,1.5,1c0,0,0,0,0,0l1,0.8c0,0,0.1,0.1,0.1,0.1c0.3,0.2,0.5,0.4,0.8,0.7
				c0.2,0.2,0.4,0.3,0.5,0.5c0.5,0.5,1.1,1.1,1.5,1.7c0.2,0.3,0.4,0.5,0.6,0.8c0.8,1.1,1.5,2.4,2.1,3.7c0.2,0.4,0.3,0.7,0.5,1.1
				c0,0,0,0,0,0c0.2,0.6,0.4,1.2,0.6,1.8c0.1,0.3,0.1,0.6,0.2,0.9c0,0.2,0.1,0.5,0.1,0.7c0,0.2,0.1,0.5,0.1,0.7
				c0,0.3,0.1,0.6,0.1,0.9c0,0.2,0,0.5,0,0.7C909.7,442.5,909.7,442.9,909.7,443.2z"/>
			<path class="st5" d="M908.5,436.4l-529.2,0c1.2-3.4,3.3-6.3,6.1-8.6c0,0,0.1-0.1,0.1-0.1l1-0.8l245.2-186.1
				c7.2-5.5,17.2-5.5,24.4,0l245.2,186.1c0,0,0,0,0,0l1,0.8c0,0,0.1,0.1,0.1,0.1c0.3,0.2,0.5,0.4,0.8,0.7c0.2,0.2,0.4,0.3,0.5,0.5
				c0.5,0.5,1.1,1.1,1.5,1.7c0.2,0.3,0.4,0.5,0.6,0.8c0.8,1.1,1.5,2.4,2.1,3.7C908.2,435.6,908.4,436,908.5,436.4
				C908.5,436.4,908.5,436.4,908.5,436.4z"/>
			<g>
				<path class="st2" d="M872.1,360v273.1c0,10.2-8.3,18.6-18.6,18.6H427.8c-10.2,0-18.6-8.3-18.6-18.6V299.9
					c0-18.8,15.4-34.2,34.2-34.2h334.4l30.3,30.3l32.4,32.4L872.1,360z"/>
				<path class="st6" d="M782.5,353.6c1.6,1.6,4.3,12.8,89.7,18.5V360L782.5,353.6z"/>
				<path class="st7" d="M777.9,341.4c0,10.2,8.3,18.5,18.5,18.5h75.7l-94.3-94.3V341.4z"/>
			</g>
			<g>
				<circle class="st8" cx="640.7" cy="423.3" r="76.9"/>
				<path class="st2" d="M691.6,381.6c-0.2-0.6-0.8-0.9-1.4-0.7l-0.6,0.2c-4.9,1.7-9.2,3.8-13.3,6c-4.2,2.2-8,4.7-11.8,7.2
					c-7.5,5.1-14.3,10.7-20.6,16.7c-3.2,3-6.2,6.1-9.1,9.3c-2.9,3.2-5.7,6.5-8.4,9.8c-2,2.5-3.9,5-5.7,7.5l-3.3-1.5l-3.4-1.4
					c-4.6-1.9-9.3-3.6-14.3-5c-5-1.4-10.1-2.6-15.8-3.2l-0.7-0.1c-0.3,0-0.7,0.1-0.9,0.4c-0.4,0.5-0.3,1.1,0.1,1.5l10.8,9.3
					c3.6,3.1,7.2,6.2,10.8,9.2l10.9,9.2c3.6,3.1,7.3,6.1,11,9.1c0,0,0,0,0.1,0c1,0.8,2.4,0.6,3.1-0.4l0,0l15.9-20.3l15.7-20.5
					c5.3-6.8,10.3-13.7,15.5-20.6c5.2-6.9,10.2-13.9,15.3-20.8C691.6,382.4,691.7,382,691.6,381.6z"/>
			</g>
			<path class="st9" d="M644,589.8L644,589.8c-0.8,0.9-1.7,1.6-2.7,2.3l-242,149.3h-1.1c-2,0-4-0.3-5.8-0.9
				c-0.3-0.1-0.5-0.2-0.8-0.2c-3.2-1.1-6-3-8.2-5.4c-0.2-0.2-0.4-0.5-0.6-0.7c-0.6-0.7-1.2-1.5-1.7-2.3c-0.2-0.3-0.3-0.5-0.5-0.8
				c-0.1-0.3-0.3-0.6-0.4-0.9c-1.3-2.6-2-5.5-2-8.6l0-278.3c0-2.4,0.4-4.7,1.2-6.8c1.2-3.4,3.3-6.3,6.1-8.6c0,0,0.1-0.1,0.1-0.1
				l1-0.8c3.2-2.3,7.2-3.7,11.5-3.7l4.5,0l21.3,13.1l195.9,120.9l7.4,4.5l14.1,8.7c1,0.6,2,1.4,2.7,2.3v0
				C648.3,577.6,648.3,585.1,644,589.8z"/>
			<path class="st9" d="M909.7,443.2l0,278.3c0,0.3,0,0.7,0,1c0,0.2,0,0.3,0,0.5c0,0.1,0,0.3,0,0.5c0,0.1,0,0.1,0,0.2
				c0,0.1,0,0.2,0,0.3c0,0.2-0.1,0.5-0.1,0.7c0,0.2-0.1,0.5-0.1,0.7c0,0,0,0.1,0,0.1c0,0.1,0,0.1-0.1,0.2c0,0.1,0,0.2,0,0.3
				c0,0.1,0,0.2-0.1,0.3c0,0.2-0.1,0.4-0.2,0.6c0,0,0,0.1,0,0.1c-0.1,0.4-0.2,0.7-0.3,1c0,0,0,0,0,0c-0.1,0.2-0.1,0.3-0.2,0.5
				c0,0.1-0.1,0.3-0.2,0.5c0,0,0,0.1,0,0.1c-0.2,0.4-0.4,0.9-0.6,1.3c-0.1,0.1-0.1,0.3-0.2,0.4c-0.1,0.1-0.2,0.3-0.2,0.4
				c-0.1,0.1-0.1,0.3-0.2,0.4c-0.2,0.3-0.3,0.5-0.5,0.8c-0.1,0.2-0.2,0.3-0.3,0.5c-0.3,0.4-0.5,0.7-0.8,1c-0.2,0.3-0.4,0.5-0.6,0.7
				c-0.2,0.2-0.4,0.5-0.7,0.7c-0.1,0.1-0.2,0.2-0.3,0.3c-0.1,0.1-0.2,0.2-0.3,0.3c-0.1,0.1-0.2,0.2-0.4,0.3c0,0-0.1,0.1-0.1,0.1
				c-0.3,0.3-0.6,0.5-1,0.8c0,0-0.1,0-0.1,0.1c-0.3,0.2-0.5,0.4-0.8,0.5c-0.1,0.1-0.2,0.1-0.3,0.2c-0.1,0.1-0.3,0.2-0.4,0.3
				c-0.1,0.1-0.2,0.1-0.4,0.2c-0.1,0.1-0.3,0.2-0.4,0.2c-0.9,0.5-1.9,1-2.8,1.3c-0.1,0-0.1,0-0.2,0.1c-0.1,0-0.1,0-0.2,0.1
				c-0.2,0.1-0.5,0.2-0.7,0.2c-0.4,0.1-0.8,0.2-1.2,0.3c-0.2,0-0.4,0.1-0.6,0.1c-0.1,0-0.3,0-0.4,0.1c-0.2,0-0.3,0.1-0.5,0.1h0
				c-0.1,0-0.3,0-0.4,0.1c-0.1,0-0.1,0-0.2,0c-0.1,0-0.2,0-0.4,0c-0.1,0-0.1,0-0.2,0c-0.2,0-0.5,0-0.7,0c-0.4,0-0.7,0-1.1,0h-1.1
				l-242-149.3c-1-0.6-2-1.4-2.7-2.3l0,0c-4.4-4.8-4.4-12.3,0-17.1v0c0.8-0.8,1.7-1.6,2.7-2.3l14-8.7l7.4-4.5L864,436.4l21.3-13.1
				l4.5,0c0.5,0,1,0,1.4,0.1c0.1,0,0.2,0,0.3,0c0.5,0,0.9,0.1,1.4,0.1c0.1,0,0.2,0,0.3,0c0.4,0.1,0.8,0.1,1.1,0.2
				c0.1,0,0.2,0,0.3,0.1c0.5,0.1,0.9,0.2,1.4,0.4c0.4,0.1,0.9,0.3,1.3,0.5c0.6,0.2,1.1,0.5,1.7,0.8c0.3,0.1,0.6,0.3,0.9,0.5
				c0.5,0.3,1,0.6,1.5,1c0,0,0,0,0,0l1,0.8c0,0,0.1,0.1,0.1,0.1c0.3,0.2,0.5,0.4,0.8,0.7c0.2,0.2,0.4,0.3,0.5,0.5
				c0.5,0.5,1.1,1.1,1.5,1.7c0.2,0.3,0.4,0.5,0.6,0.8c0.8,1.1,1.5,2.4,2.1,3.7c0.2,0.4,0.3,0.7,0.5,1.1c0,0,0,0,0,0
				c0.2,0.6,0.4,1.2,0.6,1.8c0.1,0.3,0.1,0.6,0.2,0.9c0,0.2,0.1,0.5,0.1,0.7c0,0.2,0.1,0.5,0.1,0.7c0,0.3,0.1,0.6,0.1,0.9
				c0,0.2,0,0.5,0,0.7C909.7,442.5,909.7,442.9,909.7,443.2z"/>
			<path class="st10" d="M909.7,717.8l0,2.9c0,11.5-8.9,20.8-19.9,20.8l-491.7,0c-11,0-19.9-9.3-19.9-20.8l0-2.9l252.9-166.4
				c7.9-5.2,17.8-5.2,25.7,0L909.7,717.8z"/>
			<path class="st5" d="M909.7,718.8l0,2.8c0,11-8.9,19.9-19.9,19.9l-491.7,0c-11,0-19.9-8.9-19.9-19.9l0-2.8l252.9-159.4
				c7.9-4.9,17.8-5,25.7,0L909.7,718.8z"/>
		</g>
		<path class="st1" d="M747,684.9l-0.8-0.5c3-6.1,0.9-13.6-5.1-17.1c-5.9-3.5-13.5-1.8-17.5,3.7l-0.8-0.5c-1.5-0.9-3.5-0.4-4.4,1.1
			l-4.5,7.5c-0.9,1.5-0.4,3.5,1.2,4.4l0.7,0.4l-4.6,7.7c-2.2-0.8-4.7,0-5.9,2.1L588.6,889.4c-1.1,1.9-0.8,4.3,0.7,5.9l1.5,13.7
			c0.5,4.4,5.1,7.2,9.2,5.5l12.8-5.2c2.1,0.6,4.4-0.3,5.6-2.2l8.9-15l102.6-172.1l5-8.5c1.3-2.1,0.8-4.8-1-6.3l4.6-7.7l0.7,0.4
			c1.5,0.9,3.5,0.4,4.4-1.2l0.2-0.3l4.3-7.2c0.3-0.5,0.4-1,0.4-1.4C748.6,686.6,748.1,685.5,747,684.9z"/>
		<g>
			<path class="st11" d="M588.6,901.6l16.4-5.9l-26.5-17.4l1.1,17.4C579.9,900.1,584.4,903.1,588.6,901.6z"/>
			<path class="st11" d="M726.7,699.8l-17-11.1c-1.4-0.9-1.8-2.9-0.9-4.3l6.6-10.1c0.9-1.4,2.9-1.8,4.3-0.9l17,11.1
				c1.4,0.9,1.8,2.9,0.9,4.3l-6.6,10.1C730,700.4,728.1,700.8,726.7,699.8z"/>
			<path class="st11" d="M723.7,685.9L723.7,685.9c-6.1-4-7.8-12.2-3.8-18.3l2.1-3.2c4-6.1,12.2-7.8,18.3-3.8l0,0
				c6.1,4,7.8,12.2,3.8,18.3l-2.1,3.2C738,688.2,729.7,689.9,723.7,685.9z"/>
			<path class="st12" d="M600.4,896.4l-20.6-13.5c-2.3-1.5-2.9-4.6-1.5-6.9l124.9-190.4c1.5-2.3,4.5-2.9,6.8-1.4l20.6,13.5
				c2.3,1.5,2.9,4.6,1.4,6.9l-5.4,8.3L616.8,880.3l-9.6,14.6C605.8,897.2,602.7,897.8,600.4,896.4z"/>
			<path class="st13" d="M616.8,880.3l-12.4-8.1c-2.1-1.4-2.7-4.2-1.3-6.3l104.9-160c1.4-2.1,4.2-2.7,6.4-1.3l12.3,8.1L616.8,880.3z
				"/>
			<path class="st11" d="M710.5,717l-42.1,64.2c-1.1,1.7-3.5,2.2-5.2,1.1l-3.8-2.5c-1.7-1.1-2.2-3.5-1.1-5.2l42.1-64.2
				c1.1-1.7,3.5-2.2,5.2-1.1l3.8,2.5C711.1,713,711.6,715.3,710.5,717z"/>
			
				<rect x="697.9" y="715" transform="matrix(0.5484 -0.8362 0.8362 0.5484 -286.4931 911.4886)" class="st14" width="5.5" height="12.1"/>
			<path class="st12" d="M737,691.1l-23.5-15.4c-1.5-1-1.9-3-1-4.5l4.8-7.3c1-1.5,3-1.9,4.5-1l23.5,15.5c1,0.7,1.5,1.8,1.4,3
				c-0.1,0.5-0.2,1-0.5,1.4l-4.6,7l-0.2,0.3C740.5,691.7,738.5,692.1,737,691.1z"/>
			<path class="st13" d="M741.7,689.9l-14.9-9.8c-1.3-0.9-1.7-2.7-0.8-4l2.2-3.4c0.9-1.3,2.7-1.7,4.1-0.8l14.6,9.6
				c-0.1,0.5-0.2,1-0.5,1.4L741.7,689.9z"/>
		</g>
		<path class="st8" d="M251.6,557c-0.1,0-0.3,0-0.4,0c-6.6-0.7-13.2-1.8-19.5-3.1c-2-0.4-3.2-2.3-2.8-4.3c0.4-2,2.3-3.2,4.3-2.8
			c6.1,1.3,12.5,2.3,18.8,3c2,0.2,3.4,2,3.2,4C255,555.6,253.4,557,251.6,557z M213.6,549c-0.4,0-0.7-0.1-1.1-0.2
			c-6.4-2.1-12.7-4.5-18.5-7.2c-1.8-0.8-2.6-3-1.8-4.8c0.8-1.8,3-2.6,4.8-1.8c5.6,2.6,11.6,4.9,17.7,6.8c1.9,0.6,3,2.7,2.4,4.6
			C216.6,548.1,215.1,549,213.6,549z M178.4,532.8c-0.7,0-1.3-0.2-2-0.6c-5.8-3.7-11.2-7.8-16-12.1c-1.5-1.3-1.6-3.7-0.3-5.1
			c1.3-1.5,3.6-1.6,5.1-0.3c4.5,4,9.5,7.8,15,11.3c1.7,1.1,2.2,3.3,1.1,5C180.8,532.2,179.6,532.8,178.4,532.8z M149.8,506.8
			c-1.1,0-2.2-0.5-2.9-1.5c-4.1-5.7-7.5-11.6-9.9-17.7c-0.7-1.9,0.2-4,2.1-4.7c1.9-0.7,4,0.2,4.7,2.1c2.2,5.5,5.2,11,9,16.1
			c1.2,1.6,0.8,3.9-0.8,5.1C151.3,506.6,150.6,506.8,149.8,506.8z M180.5,480.5c-1.7,0-3.3-1.2-3.6-3c-0.4-2,1-3.9,3-4.2
			c6-1.1,11.8-3.3,16.8-6.4c1.7-1.1,4-0.5,5,1.2c1.1,1.7,0.5,4-1.2,5c-5.8,3.6-12.5,6.2-19.4,7.4
			C180.9,480.5,180.7,480.5,180.5,480.5z M161.3,479.6c-0.4,0-0.7-0.1-1.1-0.2c-6.2-2-12.2-5.7-17.8-10.9c-1.5-1.4-1.5-3.7-0.1-5.2
			c1.4-1.5,3.7-1.5,5.2-0.1c4.8,4.5,9.8,7.6,15,9.3c1.9,0.6,3,2.7,2.4,4.6C164.2,478.6,162.8,479.6,161.3,479.6z M135.9,471
			c-1.9,0-3.4-1.4-3.6-3.3c-0.3-3-0.4-6-0.4-9.1c0-1.5,0-3,0.1-4.5c-0.9-0.2-1.7-0.8-2.2-1.6c-3.3-5.4-6.3-11.5-8.9-18
			c-0.7-1.9,0.2-4,2.1-4.7c1.9-0.7,4,0.2,4.7,2.1c1.9,4.7,3.9,9.1,6.2,13.2c0.7-0.6,1.7-0.9,2.7-0.8c2,0.2,3.4,2.1,3.2,4.1
			c-0.4,3.3-0.6,6.8-0.6,10.2c0,2.8,0.1,5.6,0.4,8.4c0.2,2-1.3,3.8-3.3,4C136.2,471,136,471,135.9,471z M212.2,460
			c-0.6,0-1.3-0.2-1.9-0.5c-1.7-1-2.3-3.3-1.2-5c0.6-1,1.1-2,1.6-3.1c1.9-4.1,3.1-8.8,3.4-13.7c0.1-2,1.9-3.5,3.9-3.4
			c2,0.1,3.5,1.9,3.4,3.9c-0.4,5.8-1.8,11.5-4.1,16.3c-0.6,1.3-1.3,2.5-2,3.7C214.6,459.4,213.4,460,212.2,460z M140.9,432.8
			c-0.5,0-0.9-0.1-1.4-0.3c-1.9-0.8-2.8-2.9-2-4.8c2.7-6.7,6.5-12.6,11-17.5c1.4-1.5,3.7-1.5,5.2-0.1c1.5,1.4,1.5,3.7,0.2,5.2
			c-4,4.2-7.2,9.3-9.6,15.2C143.7,432,142.3,432.8,140.9,432.8z M215,422.5c-1.5,0-2.9-0.9-3.4-2.4c-2.2-5.8-5.6-10.7-9.9-14
			c-1.6-1.2-1.9-3.5-0.7-5.1c1.2-1.6,3.5-1.9,5.1-0.7c5.4,4.1,9.7,10.1,12.3,17.2c0.7,1.9-0.3,4-2.1,4.7
			C215.9,422.4,215.4,422.5,215,422.5z M118.4,418.3c-1.6,0-3.1-1.1-3.5-2.8c-1.6-6.4-2.8-13-3.5-19.6c-0.2-2,1.2-3.8,3.2-4
			c2-0.2,3.8,1.2,4,3.2c0.7,6.3,1.9,12.6,3.4,18.7c0.5,2-0.7,3.9-2.7,4.4C119,418.3,118.7,418.3,118.4,418.3z M167,405.3
			c-1.4,0-2.7-0.8-3.3-2.1c-0.8-1.8,0-4,1.8-4.8c6.8-3.1,13.8-4.8,20.2-4.8h0.1c2,0,3.6,1.6,3.6,3.6c0,2-1.6,3.6-3.6,3.6h-0.1
			c-5.4,0-11.3,1.4-17.2,4.1C168,405.2,167.5,405.3,167,405.3z M114,379.8C114,379.8,114,379.8,114,379.8c-2.1,0-3.7-1.7-3.6-3.7
			c0.1-6,0.6-11.8,1.4-17.3c0.1-0.9,0.3-1.8,0.4-2.7c0.4-2,2.3-3.3,4.2-2.9c2,0.4,3.3,2.3,2.9,4.2c-0.1,0.8-0.3,1.6-0.4,2.5
			c-0.8,5.2-1.3,10.6-1.4,16.3C117.6,378.2,116,379.8,114,379.8z M120.9,341.8c-0.4,0-0.8-0.1-1.3-0.2c-1.9-0.7-2.9-2.8-2.2-4.7
			c2.3-6.1,5.1-12.3,8.4-18.1c1-1.8,3.2-2.4,5-1.4c1.8,1,2.4,3.2,1.4,5c-3.1,5.6-5.8,11.3-7.9,17.1
			C123.8,340.8,122.4,341.8,120.9,341.8z M139.8,308c-0.8,0-1.6-0.2-2.2-0.8c-1.6-1.2-1.9-3.5-0.7-5.1c4-5.1,8.4-10.2,13.1-14.9
			c1.4-1.4,3.7-1.4,5.2,0c1.4,1.4,1.4,3.7,0,5.2c-4.5,4.6-8.8,9.3-12.5,14.2C142,307.5,140.9,308,139.8,308z M167.2,280.4
			c-1.1,0-2.1-0.5-2.9-1.4c-1.3-1.6-1-3.9,0.6-5.1c5.1-4,10.5-7.9,16.1-11.5c1.7-1.1,3.9-0.6,5,1.1c1.1,1.7,0.6,3.9-1.1,5
			c-5.4,3.5-10.6,7.2-15.5,11.1C168.8,280.2,168,280.4,167.2,280.4z M199.8,259.4c-1.3,0-2.6-0.7-3.2-2c-0.9-1.8-0.2-4,1.6-4.9
			c5.7-3,11.8-5.8,17.9-8.3c1.9-0.8,4,0.1,4.8,2c0.8,1.9-0.1,4-2,4.8c-5.9,2.5-11.8,5.2-17.3,8.1
			C200.9,259.3,200.3,259.4,199.8,259.4z M235.6,244.5c-1.5,0-3-1-3.5-2.5c-0.6-1.9,0.4-4,2.3-4.6c4.6-1.5,9.4-2.9,14.1-4.1
			c1.9-0.5,3.9,0.7,4.5,2.6c0.5,1.9-0.7,3.9-2.6,4.5c-4.6,1.2-9.2,2.6-13.7,4C236.4,244.4,236,244.5,235.6,244.5z"/>
		<g>
			
				<ellipse transform="matrix(0.9984 -5.694094e-02 5.694094e-02 0.9984 -13.2703 16.1995)" class="st15" cx="277.6" cy="241" rx="52.3" ry="52.3"/>
			<g>
				
					<ellipse transform="matrix(1 -4.004329e-03 4.004329e-03 1 -0.9288 1.1494)" class="st8" cx="286.6" cy="232.5" rx="52.3" ry="52.3"/>
				<path class="st2" d="M283.4,254.6l12.3,10.8c2.8,2.5,7.2,0.6,7.4-3.1l1.1-16.3c0.1-1.5,0.9-2.8,2.2-3.5l14.1-8.3
					c3.2-1.9,2.8-6.6-0.6-8l-15.2-6.1c-1.4-0.6-2.4-1.7-2.7-3.2l-3.6-16c-0.8-3.6-5.4-4.7-7.8-1.9l-10.5,12.6
					c-0.9,1.1-2.4,1.7-3.9,1.6l-16.3-1.5c-3.7-0.3-6.2,3.7-4.2,6.8l8.7,13.9c0.8,1.2,0.9,2.8,0.3,4.2l-6.5,15
					c-1.5,3.4,1.6,7,5.2,6.1l15.9-4C280.7,253.2,282.3,253.6,283.4,254.6z"/>
			</g>
		</g>
	</g>
	<path class="st16" d="M183.9,591.6l7.7-4c1.7-0.9,3.8,0.6,3.4,2.5l-1.5,8.5c-0.1,0.8,0.1,1.6,0.7,2.1l6.2,6.1
		c1.4,1.4,0.6,3.8-1.3,4l-8.6,1.2c-0.8,0.1-1.4,0.6-1.8,1.3l-3.8,7.8c-0.9,1.8-3.4,1.8-4.3,0l-3.8-7.8c-0.3-0.7-1-1.2-1.8-1.3
		l-8.6-1.2c-1.9-0.3-2.7-2.7-1.3-4l6.2-6.1c0.6-0.5,0.8-1.3,0.7-2.1l-1.5-8.5c-0.3-1.9,1.7-3.4,3.4-2.5l7.7,4
		C182.4,592,183.2,592,183.9,591.6z"/>
	<circle class="st16" cx="243.6" cy="963.8" r="12.2"/>
	
		<ellipse transform="matrix(0.7071 -0.7071 0.7071 0.7071 -195.509 874.4896)" class="st16" cx="957.8" cy="673.2" rx="12.2" ry="12.2"/>
	<path class="st16" d="M528.1,209.6l-16.5,14.1c-2.2,1.8-5,2.4-7.7,1.5c-2.7-0.9-4.6-3.2-5.1-6l-4-21.3c-0.5-2.8,0.4-5.6,2.6-7.4
		c0,0,0,0,0,0c2.2-1.8,5-2.4,7.7-1.5l20.5,7.2c2.7,0.9,4.6,3.2,5.1,6C531.2,205,530.2,207.8,528.1,209.6z M499.4,197.1l4,21.3
		c0.3,1.6,1.5,2.2,2,2.3c0.5,0.2,1.8,0.5,3-0.6L525,206c1.2-1.1,1.1-2.4,1-2.9c-0.1-0.5-0.5-1.8-2-2.3l-20.5-7.2
		c-1.5-0.5-2.6,0.2-3,0.6c0,0,0,0,0,0C500,194.5,499.1,195.5,499.4,197.1L499.4,197.1z"/>
	<g>
		<path class="st16" d="M909.7,286.9c-11.3,0-20.4-9.2-20.4-20.4c0-11.3,9.2-20.4,20.4-20.4c11.3,0,20.4,9.2,20.4,20.4
			C930.1,277.8,921,286.9,909.7,286.9z M909.7,251.7c-8.2,0-14.8,6.6-14.8,14.8s6.6,14.8,14.8,14.8c8.2,0,14.8-6.6,14.8-14.8
			S917.9,251.7,909.7,251.7z"/>
		<circle class="st16" cx="909.7" cy="266.5" r="10.4"/>
	</g>
</g>
<ellipse transform="matrix(2.031890e-03 -1 1 2.031890e-03 540.2629 768.6783)" class="st0" cx="655.3" cy="113.7" rx="96.3" ry="96.3"/>
<circle class="st0" cx="748.5" cy="846.7" r="58.1"/>
</svg>
