<svg id="Capa_1" enable-background="new 0 0 512.003 512.003" height="512" viewBox="0 0 512.003 512.003" width="512" xmlns="http://www.w3.org/2000/svg"><g><path d="m496.072 34.52v152.43c0 19.07-15.46 34.53-34.53 34.53h-51.52l-103.56 69.04v-69.04h-37.18c-19.07 0-34.52-15.46-34.52-34.53v-152.43c0-19.06 15.45-34.52 34.52-34.52h192.26c19.07 0 34.53 15.46 34.53 34.52z" fill="#fd6b53"/><path d="m496.072 110.85v76.1c0 19.07-15.46 34.53-34.53 34.53h-51.52l-103.56 69.04v-69.04h-37.18c-19.07 0-34.52-15.46-34.52-34.53v-76.1z" fill="#e43135"/><path d="m412.962 95.85v30h-32.55v32.55h-30v-32.55h-32.55v-30h32.55v-32.55h30v32.55z" fill="#f0f7ff"/><path d="m412.962 110.85v15h-32.55v32.55h-30v-32.55h-32.55v-15z" fill="#dfe7f4"/><path d="m372.342 478.89v.01c-22.45 32.09-65.42 42.51-99.87 23.89-52.79-28.52-101.37-63.55-142.32-105.01l-.01-.01c-41.59-41-76.56-89.69-105.01-142.36-6.22-11.53-9.2-24-9.2-36.35 0-24.55 11.76-48.56 33.11-63.49l42.9 38.54 13.38 64.64c21.7 32.69 46.25 63.1 73.69 90.16l.01.01c26.12 26.44 55.35 50.25 86.79 71.45l66.23 18.49z" fill="#2a4979"/><path d="m372.342 478.89v.01c-22.45 32.09-65.42 42.51-99.87 23.89-52.79-28.52-101.37-63.55-142.32-105.01l48.87-48.86c26.12 26.44 55.35 50.25 86.79 71.45l66.23 18.49z" fill="#202a58"/><path d="m408.742 426.847c-.06.08-18.13 25.91-36.39 52.04h-.01c-37.29-16.52-73.16-36.03-106.53-58.52l41.17-52.96z" fill="#2a4979"/><path d="m160.512 220.937-55.19 37.81c-21.58-32.48-40.33-67.23-56.28-103.18l52.03-36.39z" fill="#506da4"/></g></svg>