<?xml version="1.0" encoding="UTF-8"?><svg id="Layer_1" xmlns="http://www.w3.org/2000/svg" viewBox="0 0 49 49.99"><defs><style>.cls-1{fill:#fff;}</style></defs><path class="cls-1" d="M28.81,.02L.81,5.33c-.47,.09-.81,.52-.81,1V43.65c0,.48,.34,.91,.81,1l28,5.31c.06,.01,.12,.03,.19,.03,.23,0,.45-.07,.62-.22,.23-.19,.38-.48,.38-.78V.99c0-.3-.14-.59-.38-.78-.23-.19-.52-.24-.81-.19Zm3.19,5.97v7h2v2h-2v5h2v2h-2v5h2v2h-2v6h2v2h-2v7h15c1.1,0,2-.9,2-2V7.99c0-1.1-.9-2-2-2h-15Zm4,7h8v2h-8v-2ZM6.69,15.68h5.12l2.69,5.59c.21,.44,.4,.98,.56,1.59h.03c.11-.36,.31-.93,.59-1.66l2.97-5.53h4.69l-5.59,9.25,5.75,9.44h-4.97l-3.25-6.09c-.12-.23-.25-.64-.38-1.25h-.03c-.06,.29-.21,.73-.44,1.31l-3.25,6.03H6.19l5.97-9.34L6.69,15.68Zm29.31,4.31h8v2h-8v-2Zm0,7h8v2h-8v-2Zm0,8h8v2h-8v-2Z"/></svg>