<svg id="Group_3835" data-name="Group 3835" xmlns="http://www.w3.org/2000/svg" width="17.299" height="17.299" viewBox="0 0 17.299 17.299">
  <path id="Path_15852" data-name="Path 15852" d="M0,24.146A8.65,8.65,0,1,0,8.65,15.5,8.65,8.65,0,0,0,0,24.146" transform="translate(0 -15.497)" fill="#426ab6"/>
  <path id="Path_15853" data-name="Path 15853" d="M60.055,46.577v1.168H62.06l-.264,2.05H60.055V55.1H57.965V49.795H56.231v-2.05h1.734V46.167a2.961,2.961,0,0,1,.379-1.514,2.36,2.36,0,0,1,2.243-1.179,12.737,12.737,0,0,1,1.548.089V45.4h-.926c-.543,0-.882.123-1.012.368a.778.778,0,0,0-.089.2,2.134,2.134,0,0,0-.052.61" transform="translate(-50.533 -40.639)" fill="#fff"/>
</svg>
