<svg id="Id" xmlns="http://www.w3.org/2000/svg" width="41.817" height="28.071" viewBox="0 0 41.817 28.071">
  <path id="Path_15251" data-name="Path 15251" d="M38.2,0H3.614A3.618,3.618,0,0,0,0,3.614V24.457a3.618,3.618,0,0,0,3.614,3.614H38.2a3.618,3.618,0,0,0,3.614-3.614V3.614A3.618,3.618,0,0,0,38.2,0Zm2.372,24.457A2.375,2.375,0,0,1,38.2,26.829H3.614a2.375,2.375,0,0,1-2.372-2.372V3.614A2.375,2.375,0,0,1,3.614,1.242H38.2a2.375,2.375,0,0,1,2.372,2.372Zm0,0" fill="#27276d"/>
  <path id="Path_15252" data-name="Path 15252" d="M58.627,60.832H44.219a.621.621,0,0,0-.621.621v1.49a.621.621,0,0,0,1.242,0v-.869H58.006V77.228H44.84v-11.8a.621.621,0,0,0-1.242,0V77.849a.621.621,0,0,0,.621.621H58.627a.621.621,0,0,0,.621-.621v-16.4A.621.621,0,0,0,58.627,60.832Zm0,0" transform="translate(-40.037 -55.864)" fill="#fd5c70"/>
  <path id="Path_15253" data-name="Path 15253" d="M280.81,78.465H265.242a.621.621,0,1,0,0,1.242H280.81a.621.621,0,0,0,0-1.242Zm0,0" transform="translate(-243.008 -72.056)" fill="#27276d"/>
  <path id="Path_15254" data-name="Path 15254" d="M416.747,133.625h-3.478a.621.621,0,0,0,0,1.242h3.478a.621.621,0,0,0,0-1.242Zm0,0" transform="translate(-378.946 -122.711)" fill="#27276d"/>
  <path id="Path_15255" data-name="Path 15255" d="M265.242,134.867h9.605a.621.621,0,1,0,0-1.242h-9.605a.621.621,0,1,0,0,1.242Zm0,0" transform="translate(-243.008 -122.711)" fill="#27276d"/>
  <path id="Path_15256" data-name="Path 15256" d="M280.81,188.785H265.242a.621.621,0,1,0,0,1.242H280.81a.621.621,0,0,0,0-1.242Zm0,0" transform="translate(-243.008 -173.366)" fill="#27276d"/>
  <path id="Path_15257" data-name="Path 15257" d="M273.689,243.945h-8.446a.621.621,0,1,0,0,1.242h8.446a.621.621,0,0,0,0-1.242Zm0,0" transform="translate(-243.008 -224.021)" fill="#27276d"/>
  <path id="Path_15258" data-name="Path 15258" d="M86.18,112.171a.621.621,0,0,0,1.242,0,3.105,3.105,0,0,1,6.21,0,.621.621,0,0,0,1.242,0,4.349,4.349,0,0,0-2.111-3.726,4.348,4.348,0,1,0-4.473,0A4.349,4.349,0,0,0,86.18,112.171Zm1.242-7.453a3.105,3.105,0,1,1,3.105,3.105A3.109,3.109,0,0,1,87.422,104.718Zm0,0" transform="translate(-79.141 -92.173)" fill="#fd5c70"/>
</svg>
