<?xml version="1.0" encoding="utf-8"?>
<!-- Generator: Adobe Illustrator 26.0.3, SVG Export Plug-In . SVG Version: 6.00 Build 0)  -->
<svg version="1.1" id="Capa_1" xmlns="http://www.w3.org/2000/svg" xmlns:xlink="http://www.w3.org/1999/xlink" x="0px" y="0px"
	 viewBox="0 0 512 512" style="enable-background:new 0 0 512 512;" xml:space="preserve">
<style type="text/css">
	.st0{fill:#FFFFFF;}
</style>
<g>
	<g>
		<path class="st0" d="M256,0C114.5,0,0,114.5,0,256c0,141.5,114.5,256,256,256c141.5,0,256-114.5,256-256C512,114.5,397.5,0,256,0z
			 M256,472c-119.4,0-216-96.6-216-216c0-119.4,96.6-216,216-216c119.4,0,216,96.6,216,216C472,375.4,375.4,472,256,472z"/>
	</g>
</g>
<g>
	<g>
		<path class="st0" d="M256,214.3c-11,0-20,9-20,20v128.8c0,11,9,20,20,20c11,0,20-9,20-20V234.3C276,223.3,267,214.3,256,214.3z"/>
	</g>
</g>
<g>
	<g>
		<circle class="st0" cx="256" cy="162.8" r="27"/>
	</g>
</g>
</svg>
