<svg id="Group_3836" data-name="Group 3836" xmlns="http://www.w3.org/2000/svg" xmlns:xlink="http://www.w3.org/1999/xlink" width="17.299" height="17.299" viewBox="0 0 17.299 17.299">
  <defs>
    <linearGradient id="linear-gradient" y1="0.5" x2="1" y2="0.5" gradientUnits="objectBoundingBox">
      <stop offset="0" stop-color="#ffb304"/>
      <stop offset="0.502" stop-color="#c8297d"/>
      <stop offset="1" stop-color="#5951a5"/>
    </linearGradient>
  </defs>
  <path id="Path_15854" data-name="Path 15854" d="M390.337,0q-.389,0-.77.034a8.621,8.621,0,0,0-5.346,2.5A8.615,8.615,0,0,0,381.7,8.122q-.016.262-.016.528a8.644,8.644,0,0,0,7.88,8.616q.38.034.77.034a8.641,8.641,0,0,0,8.65-8.65q0-.266-.016-.528A8.641,8.641,0,0,0,390.337,0Z" transform="translate(-381.688 0)" fill="url(#linear-gradient)"/>
  <path id="Path_15855" data-name="Path 15855" d="M420.23,31.383c0-.278-.008-.5-.012-.675s-.009-.355-.018-.554a4.319,4.319,0,0,0-.274-1.445,3.122,3.122,0,0,0-1.743-1.742,4.361,4.361,0,0,0-1.443-.274l-.56-.024c-.176-.008-.4-.012-.675-.012h-2.435c-.274,0-.5,0-.674.012l-.56.024a4.284,4.284,0,0,0-1.445.274,3.124,3.124,0,0,0-1.742,1.742,4.285,4.285,0,0,0-.274,1.445c-.008.2-.015.384-.019.554s-.008.4-.011.675-.007.685-.007,1.217,0,.951.007,1.23.007.5.011.674.011.356.019.555a4.276,4.276,0,0,0,.274,1.443,3.132,3.132,0,0,0,1.742,1.743,4.314,4.314,0,0,0,1.445.274l.555.024c.17.008.4.011.674.011h2.44c.275,0,.5,0,.675-.011l.56-.024a4.305,4.305,0,0,0,1.443-.274,3.13,3.13,0,0,0,1.743-1.743,4.31,4.31,0,0,0,.274-1.443c.008-.2.013-.383.018-.555s.008-.4.012-.674.007-.689.007-1.23,0-.938-.007-1.217m-1.068,2.422q0,.405-.012.656c-.008.167-.016.35-.023.549a3.27,3.27,0,0,1-.2,1.1,1.847,1.847,0,0,1-.441.691,1.742,1.742,0,0,1-.679.441,3.287,3.287,0,0,1-1.11.2c-.2.008-.382.015-.549.019l-.656.012q-.405.006-1.194.005t-1.2-.005l-.656-.012c-.167,0-.351-.011-.549-.019a3.227,3.227,0,0,1-1.1-.2,2.078,2.078,0,0,1-.693-.441,1.882,1.882,0,0,1-.442-.691,3.283,3.283,0,0,1-.2-1.1c-.008-.2-.016-.382-.024-.549s-.011-.386-.011-.656v-2.4c0-.27,0-.489.011-.656s.016-.35.024-.548a3.326,3.326,0,0,1,.2-1.11,1.788,1.788,0,0,1,.442-.681,1.887,1.887,0,0,1,.693-.441,3.232,3.232,0,0,1,1.1-.2c.175-.016.336-.026.483-.03s.324-.007.531-.007h2.59q.405,0,.656.012l.549.024a3.292,3.292,0,0,1,1.11.2,1.949,1.949,0,0,1,1.121,1.122,3.313,3.313,0,0,1,.2,1.11c.007.2.015.382.023.548s.012.386.012.656Z" transform="translate(-405.638 -23.956)" fill="#fff"/>
  <path id="Path_15856" data-name="Path 15856" d="M442.177,56.056a3.059,3.059,0,1,0,.9,2.159,2.943,2.943,0,0,0-.9-2.159m-.764,3.567a1.983,1.983,0,1,1-2.8-2.8,1.983,1.983,0,1,1,2.8,2.8" transform="translate(-431.361 -49.572)" fill="#fff"/>
  <path id="Path_15857" data-name="Path 15857" d="M492.791,47.736a.691.691,0,0,1-.209.508.677.677,0,0,1-.5.209.715.715,0,0,1-.716-.717.671.671,0,0,1,.209-.494.69.69,0,0,1,.506-.209.672.672,0,0,1,.5.209.687.687,0,0,1,.2.494" transform="translate(-480.257 -42.266)" fill="#fff"/>
</svg>
