<svg id="Group_3837" data-name="Group 3837" xmlns="http://www.w3.org/2000/svg" width="17.299" height="17.299" viewBox="0 0 17.299 17.299">
  <path id="Path_15858" data-name="Path 15858" d="M440.4,423.487a8.65,8.65,0,1,0,8.65-8.649,8.65,8.65,0,0,0-8.65,8.649" transform="translate(-440.402 -414.838)" fill="#007abb"/>
  <path id="Path_15859" data-name="Path 15859" d="M518.578,473.709v4.027h-2.357v-3.752a2.286,2.286,0,0,0-.263-1.161.949.949,0,0,0-.892-.451,1.128,1.128,0,0,0-.8.269,1.744,1.744,0,0,0-.429.589.6.6,0,0,0-.057.269v4.238h-2.334v-7.047h2.334V471.7a.03.03,0,0,0-.035.034h.035V471.7a3.9,3.9,0,0,1,.7-.767,2.113,2.113,0,0,1,1.419-.4,2.583,2.583,0,0,1,1.922.767,3.33,3.33,0,0,1,.755,2.414" transform="translate(-504.252 -464.886)" fill="#fff"/>
  <path id="Path_15860" data-name="Path 15860" d="M476.617,440a1.1,1.1,0,0,1-.377.847,1.374,1.374,0,0,1-.961.343,1.319,1.319,0,0,1-.967-.343,1.141,1.141,0,0,1-.349-.847,1.109,1.109,0,0,1,.372-.87,1.414,1.414,0,0,1,.978-.332,1.271,1.271,0,0,1,.9.332,1.3,1.3,0,0,1,.4.87" transform="translate(-470.562 -436.374)" fill="#fff"/>
  <rect id="Rectangle_2400" data-name="Rectangle 2400" width="2.356" height="7.047" transform="translate(3.527 5.803)" fill="#fff"/>
</svg>
