<?xml version="1.0" encoding="UTF-8"?><svg id="Layer_2" xmlns="http://www.w3.org/2000/svg" viewBox="0 0 21.64 25.68"><defs><style>.cls-1{fill:#ef8f35;}.cls-2{fill:#49a1f7;fill-rule:evenodd;}</style></defs><g id="Layer_1-2"><g><g><path class="cls-2" d="M.9,21.59c0-4.4,0-12.38,0-16.79,0-.07,0-.15,.01-.24H3.01c.93,0,1.56-.63,1.56-1.55,0-.63,0-1.25,0-1.88,0-.07,0-.15,.01-.24h.22c2.93,0,8.15,0,11.08,0,.44,0,.54,.1,.54,.54,0,.19,0,6.52,0,12.23,.08,0,.16,0,.24,0,.22,0,.44,.02,.66,.05,0-5.53,0-11.99,0-12.18,0-.91-.63-1.53-1.55-1.53C12.62,0,8.27,0,5.11,0c-.48,0-.87,.16-1.21,.5C2.78,1.64,1.65,2.77,.51,3.89,.16,4.24,0,4.64,0,5.12c0,4.61,0,11.69,0,16.3,0,.98,.61,1.58,1.59,1.58,.42,0,3.29,0,6.33,0,.07-.32,.19-.62,.36-.9H1.42c-.41,0-.52-.11-.52-.51Z"/><g><path class="cls-1" d="M8.94,3.87c-.66,0-1.16,.35-1.16,.9v5.12c0,.56,.5,.9,1.16,.9s1.16-.36,1.16-.9V4.77c0-.54-.52-.9-1.16-.9Z"/><path class="cls-1" d="M8.94,12.74c-.64,0-1.15,.52-1.15,1.15s.52,1.15,1.15,1.15,1.15-.52,1.15-1.15c0-.64-.52-1.15-1.15-1.15Z"/></g></g><path class="cls-1" d="M10.31,24.22c-1.43-1.72-1.2-4.27,.51-5.71l4.35-3.64c.23-.19,.57-.16,.76,.07s.16,.57-.07,.76l-4.35,3.64c-1.26,1.05-1.43,2.93-.38,4.18s2.93,1.43,4.18,.38l4.56-3.81c.8-.67,.91-1.86,.24-2.66s-1.86-.91-2.66-.24l-4.15,3.46c-.34,.29-.39,.8-.1,1.14s.8,.39,1.14,.1l3.94-3.29c.23-.19,.57-.16,.76,.07s.16,.57-.07,.76l-3.94,3.29c-.8,.67-1.99,.56-2.66-.24s-.56-1.99,.24-2.66l4.15-3.46c1.26-1.05,3.13-.88,4.18,.38s.88,3.14-.38,4.18l-4.56,3.81c-1.72,1.43-4.27,1.2-5.71-.51Z"/></g></g></svg>