<svg id="Flat-Expanded" enable-background="new 0 0 64 64" height="512" viewBox="0 0 64 64" width="512" xmlns="http://www.w3.org/2000/svg"><path d="m2 48h9v14h-9z" fill="#4ac3ed"/><path d="m28 52h17v2h-17z" fill="#304b68"/><path d="m23 54v-44h36v42l-2 2z" fill="#e55648"/><path d="m48 2c-3.66 0-5.87 3.07-7 5.34-1.13-2.27-3.34-5.34-7-5.34-2.09 0-3.72 1.52-3.72 3.46 0 1.5.97 2.92 2.66 3.89 1.9 1.1 4.61 1.65 8.06 1.65s6.17-.55 8.06-1.65c1.69-.97 2.66-2.39 2.66-3.89 0-1.94-1.63-3.46-3.72-3.46zm-14.06 5.62c-1.05-.61-1.66-1.39-1.66-2.16 0-.83.74-1.46 1.72-1.46 2.96 0 4.75 3.12 5.55 4.96-2.95-.16-4.66-.79-5.61-1.34zm14.12 0c-.94.55-2.66 1.18-5.61 1.34.79-1.84 2.57-4.96 5.55-4.96.98 0 1.72.63 1.72 1.46 0 .77-.6 1.55-1.66 2.16z" fill="#f4b34a"/><path d="m11 61h35l14.392-8.095c.993-.559 1.608-1.61 1.608-2.75 0-1.743-1.412-3.155-3.155-3.155h-.152c-.457 0-.908.099-1.322.29l-12.371 5.71h-17 8.5c1.933 0 3.5-1.567 3.5-3.5 0-1.933-1.567-3.5-3.5-3.5h-13.5l-4 4h-8z" fill="#f4d4be"/><g fill="#eae8e5"><path d="m41 36.647 3.641-11.649-7.286-.012z"/><path d="m48.905 15h-6.761l3.756 6.762z"/><path d="m37.7 23h6.6l-3.3-5.94z"/><path d="m36.1 21.762 3.756-6.762h-6.761z"/><path d="m47.682 22.678 8.458-1.538-5.382-5.382z"/><path d="m25.86 21.14 8.458 1.538-3.076-6.92z"/><path d="m46.774 24.876-4.159 13.307 13.308-14.971z"/><path d="m39.385 38.183-4.159-13.308-9.149-1.663z"/></g><path d="m50.187 36.495c.54 2.116 2.202 3.778 4.318 4.318.2.051.2.322 0 .374-2.116.54-3.778 2.202-4.318 4.318-.051.2-.322.2-.374 0-.54-2.116-2.202-3.778-4.318-4.318-.2-.051-.2-.322 0-.374 2.116-.54 3.778-2.202 4.318-4.318.051-.2.323-.2.374 0z" fill="#f4b34a"/><path d="m28 53h9v2h-9z" fill="#edc3ae"/></svg>