<svg xmlns="http://www.w3.org/2000/svg" xmlns:xlink="http://www.w3.org/1999/xlink" width="321.077" height="269.118" viewBox="0 0 321.077 269.118">
  <defs>
    <linearGradient id="linear-gradient" x1="0.5" y1="-0.227" x2="0.5" y2="0.559" gradientUnits="objectBoundingBox">
      <stop offset="0" stop-color="#e5e5e5"/>
      <stop offset="0.476" stop-color="#f3f3f3"/>
      <stop offset="1" stop-color="#fff"/>
    </linearGradient>
    <linearGradient id="linear-gradient-2" x1="480.709" y1="0.412" x2="481.315" y2="0.823" gradientUnits="objectBoundingBox">
      <stop offset="0" stop-color="#4e9cff"/>
      <stop offset="0.984" stop-color="#176ad4"/>
    </linearGradient>
    <linearGradient id="linear-gradient-3" x1="1.154" y1="0.568" x2="0.42" y2="0.49" gradientUnits="objectBoundingBox">
      <stop offset="0" stop-color="#f2bfad"/>
      <stop offset="1" stop-color="#f2dad4"/>
    </linearGradient>
    <linearGradient id="linear-gradient-4" x1="0.202" y1="0.241" x2="1.023" y2="0.87" gradientUnits="objectBoundingBox">
      <stop offset="0" stop-color="#0054be"/>
      <stop offset="0.409" stop-color="#176ad4"/>
      <stop offset="1" stop-color="#176ad4"/>
    </linearGradient>
    <linearGradient id="linear-gradient-5" x1="0.51" y1="0.622" x2="0.569" y2="1.822" gradientUnits="objectBoundingBox">
      <stop offset="0" stop-color="#f2bfad"/>
      <stop offset="0.704" stop-color="#f2dad4"/>
    </linearGradient>
    <linearGradient id="linear-gradient-6" x1="0.404" y1="0.306" x2="0.835" y2="1.076" xlink:href="#linear-gradient-3"/>
    <linearGradient id="linear-gradient-7" x1="0.386" y1="0.075" x2="0.681" y2="1.17" gradientUnits="objectBoundingBox">
      <stop offset="0" stop-color="#f6dbdb"/>
      <stop offset="1" stop-color="#eb9a99"/>
    </linearGradient>
    <linearGradient id="linear-gradient-8" x1="0.314" y1="0.412" x2="0.919" y2="0.823" xlink:href="#linear-gradient-2"/>
  </defs>
  <g id="Group_3098" data-name="Group 3098" transform="translate(1055.532 824.555)">
    <g id="Group_3096" data-name="Group 3096">
      <path id="Path_15543" data-name="Path 15543" d="M-791.274-694.572a2.23,2.23,0,0,0-2.549-1.859,2.231,2.231,0,0,0-1.859,2.549c.32,2.078.728,8.587-1.518,11.206a3,3,0,0,1-1.811,1.042l.2-12.4a3.224,3.224,0,0,0-3.224-3.278,3.226,3.226,0,0,0-3.224,3.3l.583,23.528a3.013,3.013,0,0,1-1.887-1.052c-2.246-2.619-1.839-9.129-1.519-11.206a2.23,2.23,0,0,0-1.859-2.549,2.229,2.229,0,0,0-2.548,1.859c-.161,1.024-1.45,10.139,2.534,14.794a7.551,7.551,0,0,0,5.391,2.65l.253,10.241h4.868l.354-21.4a7.533,7.533,0,0,0,5.277-2.642C-789.824-684.433-791.113-693.548-791.274-694.572Z" fill="#bdbdbd"/>
      <path id="Path_15544" data-name="Path 15544" d="M-999.131-674.627a1.423,1.423,0,0,0-1.625-1.185,1.421,1.421,0,0,0-1.185,1.625c.2,1.324.464,5.474-.968,7.144a1.91,1.91,0,0,1-1.155.663l.131-7.9a2.056,2.056,0,0,0-2.056-2.089,2.056,2.056,0,0,0-2.055,2.106l.372,15a1.919,1.919,0,0,1-1.2-.671c-1.432-1.669-1.172-5.819-.968-7.143a1.422,1.422,0,0,0-1.185-1.625,1.422,1.422,0,0,0-1.625,1.185c-.1.653-.924,6.463,1.615,9.431a4.818,4.818,0,0,0,3.437,1.689l.162,6.528h3.1l.225-13.639a4.8,4.8,0,0,0,3.364-1.684C-998.207-668.164-999.029-673.974-999.131-674.627Z" fill="#bdbdbd"/>
      <ellipse id="Ellipse_304" data-name="Ellipse 304" cx="160.539" cy="56.834" rx="160.539" ry="56.834" transform="translate(-1055.532 -669.105)" fill="url(#linear-gradient)"/>
    </g>
    <g id="Group_3097" data-name="Group 3097">
      <path id="Path_15545" data-name="Path 15545" d="M-869.367-681.159s-.093,5.469,0,6.017-2.14,3.753-3.053,3.611a10.007,10.007,0,0,1-3-.751c-.264-.3-.148-1.022-.054-1.677s.777-6.612.777-6.916S-870.381-681.991-869.367-681.159Z" fill="#ffd3bc"/>
      <path id="Path_15546" data-name="Path 15546" d="M-872.908-675.457c-1.142.617-1.783,2.495-1.945,2.519s-.464-.024-.464-.209.046-.812-.163-.812-.44,1.021-.487,2.505-.574,5.026,0,5.476c.36.282,3.666,2.018,3.759,2.251s-.07,1.856.209,2.111.928.882,1.438.905a22.17,22.17,0,0,0,4.849,0,10.663,10.663,0,0,0,3.2-1.184c.046-.185-.348-4.129-.789-4.617s-3.619-4.849-3.875-5.243a4.51,4.51,0,0,1-.44-1.9,2.45,2.45,0,0,0-1.442-2.064A6.554,6.554,0,0,0-872.908-675.457Z" fill="url(#linear-gradient-2)"/>
      <path id="Path_15547" data-name="Path 15547" d="M-902.7-678s0,3.185-.092,3.733,2.141,3.753,3.054,3.611a10.009,10.009,0,0,0,3-.75c.263-.3.147-1.022.053-1.678s-.682-4.327-.682-4.632S-901.689-678.829-902.7-678Z" fill="#ffd3bc"/>
      <path id="Path_15548" data-name="Path 15548" d="M-899.763-748.28c-1.292,4.7-3.736,20.8-3.736,28.619s-.783,27.77-.783,30.8-.326,10.552.457,10.944a7.832,7.832,0,0,0,5.092,1.175,3.351,3.351,0,0,0,3.2-3.395c.065-1.436.653-11.75,1.241-15.733s2.676-11.662,4.047-16.6,4.57-14.874,5.418-14.836,6.136,21.8,6.576,23.034,1.28,18.758,1.335,20.228,0,2.887.925,3.486a16.234,16.234,0,0,0,5.229,2.178c1.47.109,2.45-2.233,2.723-2.94s.755-24.148.581-30.578.334-18.42.037-22.33-1.254-12.289-1.862-14.051S-899.763-748.28-899.763-748.28Z" fill="#192b59"/>
      <path id="Path_15549" data-name="Path 15549" d="M-908.889-802.9c1.233-1.371,6.989-7.857,8.131-8.086s3.922-.731,4.542-1.37,3.242-8.871,2.2-10.368-5.043-1.072-6.256,1.476-1.153,3.884-3.156,5.643-10.727,8.893-11.539,9.614.8,4.221,2.074,4.828S-908.889-802.9-908.889-802.9Z" fill="url(#linear-gradient-3)"/>
      <path id="Path_15550" data-name="Path 15550" d="M-892.983-800.922c-2.941.617-7.827,1.139-9.439,1.66s-7.969,2.751-7.922,1.8,2.941-5.123,2.419-5.55-3.652-.949-4.174-1.613-1.233-2.229-1.945-2.039-8.96,7.873-8.4,10.815c1.332,6.935,20.828,11.988,21.272,15.013s-1.512,32.026-.444,33.093,12.365,5.16,18.059,5.516,15.681-1.628,16.226-3.127-2.778-30.314-2.392-30.314.494,9.071,4.831,11.416c2.863,1.549,6.8-.046,7.554-.9s-2.69-12.914-4.249-16.98-3.05-12.471-6.575-15.453-8.5-2.474-10.211-3.175-7.46-.2-8.909-.35A52.608,52.608,0,0,0-892.983-800.922Z" fill="url(#linear-gradient-4)"/>
      <path id="Path_15551" data-name="Path 15551" d="M-856.25-770.6s-5.07,1.532-5.466,2.06-1.1,2.637,0,3.516,2.3,1.536,3.607.522,2.492-2.379,3.245-2.551,3.006.151,3.952-.22,2.741-7.543,2.017-7.978S-856.25-770.6-856.25-770.6Z" fill="url(#linear-gradient-5)"/>
      <path id="Path_15552" data-name="Path 15552" d="M-892.96-801.891c-1.637-.34-4.795-3.429-5.085-6.568-.283-3.058-2.531-11.654,5.3-14.877,7.346-3.025,14.9.087,15.992,3.817,1.014,3.484-7.608,3.641-10.77,5.909s-3.376,3.775-4.165,3.417S-892.96-801.891-892.96-801.891Z" fill="#e64d4e"/>
      <path id="Path_15553" data-name="Path 15553" d="M-893.093-808.015c-.1,1.4-.456,8.177.131,9.174.539.916,1.5,3.579,5.25,3.461s6.189-3.871,6.395-4.311-.235-5.867-.235-6.776-5.045-3.051-7.069-2.992S-892.995-809.332-893.093-808.015Z" fill="url(#linear-gradient-6)"/>
      <path id="Path_15554" data-name="Path 15554" d="M-892.747-807.994c.423-.013-.077,2.57.69,3.413s4.106,5.245,7.638,4.815c3.056-.372,2.617-3,3.058-5.172.4-1.968,1.67-2.137,2.115-7.276.173-1.988,1.113-5.1-.613-5.677s-8.209-2.109-9.82,0-1.764,7.173-2.608,6.521-2.608-3.836-3.644-2.11S-895.011-807.929-892.747-807.994Z" fill="#f2dad4"/>
      <path id="Path_15555" data-name="Path 15555" d="M-865.475-781.717l-10.282,13a1.021,1.021,0,0,0,.818,1.655l19.005-.323a1.02,1.02,0,0,0,.8-.409l9.713-12.98a.927.927,0,0,0-.75-1.483l-18.512.153A1.023,1.023,0,0,0-865.475-781.717Z" fill="url(#linear-gradient-7)"/>
      <path id="Path_15556" data-name="Path 15556" d="M-849.218-776.481c-1,.1-2.454.663-2.454,1.186s1.167.667,1.488.716.745.149.624.31-.362.966-1.006.825a39.234,39.234,0,0,0-4-.181c-.543,0-1.187.382-1.227.784s-.161.483-.483.5-.9.322-.9.845,1.292.993,1.292,1.178a23.161,23.161,0,0,0,3.031,2.021c.5.287,1.425,1.02,1.948,1.02a1.584,1.584,0,0,0,1.464-1.216c.066-.719,1.1-1.242,1.111-1.6s-.326-.614-.287-.837.941-.535.941-1.1a6.38,6.38,0,0,0-.405-1.555c-.053-.236-.262-.745-.053-.811s.942-.745.811-1.372S-848.756-776.528-849.218-776.481Z" fill="#ffd3bc"/>
      <path id="Path_15557" data-name="Path 15557" d="M-899.256-674.578c1.141.617,1.782,2.495,1.945,2.518s.464-.023.464-.209-.046-.812.162-.812.441,1.021.488,2.506.574,5.025,0,5.476c-.361.282-3.666,2.018-3.759,2.25s.07,1.856-.209,2.112-.928.881-1.438.9a22.108,22.108,0,0,1-4.849,0,10.633,10.633,0,0,1-3.2-1.183c-.047-.186.348-4.13.789-4.617s3.619-4.849,3.874-5.244a4.5,4.5,0,0,0,.441-1.9,2.451,2.451,0,0,1,1.441-2.064A6.558,6.558,0,0,1-899.256-674.578Z" fill="url(#linear-gradient-8)"/>
    </g>
  </g>
</svg>
