<svg id="Layer_1" enable-background="new 0 0 68 68" height="512" viewBox="0 0 68 68" width="512" xmlns="http://www.w3.org/2000/svg"><g><g><path d="m66 15.5050583v45.6601563c0 2.761425-2.238575 5-5 5h-54c-2.7614236 0-5-2.238575-5-5v-45.6601563c0-2.7614241 2.2385764-5 5-5h54c2.761425 0 5 2.2385759 5 5z" fill="#d2dbea"/></g><g><g><path d="m66 11.5047073v45.6601563c0 2.761425-2.238575 5-5 5h-54c-2.7614236 0-5-2.238575-5-5v-45.6601563c0-2.7614231 2.2385764-4.9999995 5-4.9999995h54c2.761425 0 5 2.2385764 5 4.9999995z" fill="#e9edf4"/></g><g><path d="m66 11.5047073v8.6634121h-64v-8.6634121c0-2.7614231 2.2385764-4.9999995 5-4.9999995h54c2.761425 0 5 2.2385764 5 4.9999995z" fill="#f14f4a"/></g><g><g><circle cx="13.79" cy="13.335" fill="#e23737" r="2.039"/></g><g><g><path d="m8.3076172 6.5047078v-1.5537109c0-1.7182617 1.3979492-3.1162109 3.1162109-3.1162109s3.1162109 1.3979492 3.1162109 3.1162109v8.3837891c0 .4143066-.3359375.75-.75.75s-.75-.3356934-.75-.75v-8.3837891c0-.8911133-.7250977-1.6162109-1.6162109-1.6162109s-1.6162109.7250976-1.6162109 1.6162109v1.5537109z" fill="#342c37"/></g></g></g><g><g><circle cx="28.171" cy="13.335" fill="#e23737" r="2.039"/></g><g><g><path d="m22.6887646 6.5047078v-1.5537109c0-1.7182617 1.3979492-3.1162109 3.1162109-3.1162109s3.1162109 1.3979492 3.1162109 3.1162109v8.3837891c0 .4143066-.3359375.75-.75.75s-.75-.3356934-.75-.75v-8.3837891c0-.8911133-.7250977-1.6162109-1.6162109-1.6162109s-1.6162109.7250977-1.6162109 1.6162109v1.5537109z" fill="#342c37"/></g></g></g><g><g><circle cx="42.552" cy="13.335" fill="#e23737" r="2.039"/></g><g><g><path d="m37.069912 6.5047078v-1.5537109c0-1.7182617 1.3979492-3.1162109 3.1162109-3.1162109s3.1162109 1.3979492 3.1162109 3.1162109v8.3837891c0 .4143066-.3359375.75-.75.75s-.75-.3356934-.75-.75v-8.3837891c0-.8911133-.7250977-1.6162109-1.6162109-1.6162109s-1.6162109.7250976-1.6162109 1.6162109v1.5537109z" fill="#342c37"/></g></g></g><g><g><circle cx="56.933" cy="13.335" fill="#e23737" r="2.039"/></g><g><g><path d="m51.4510574 6.5047078v-1.5537109c0-1.7182617 1.3979492-3.1162109 3.1162109-3.1162109s3.1162109 1.3979492 3.1162109 3.1162109v8.3837891c0 .4143066-.3359375.75-.75.75s-.75-.3356934-.75-.75v-8.3837891c0-.8911133-.7250977-1.6162109-1.6162109-1.6162109s-1.6162109.7250977-1.6162109 1.6162109v1.5537109z" fill="#342c37"/></g></g></g><g><circle cx="35.587" cy="41.664" fill="#ffc90d" r="15.167"/></g><g><circle cx="35.587" cy="41.664" fill="#ffab02" r="10.707"/></g><g><g><g><path d="m39.3945084 44.3590012c0 1.6955757-1.2429581 3.1162834-2.9211922 3.4891281v1.1189651c0 .4881668-.3992882.8878899-.8878899.8878899-.488163 0-.887886-.3997231-.887886-.8878899v-1.1189651c-1.6691284-.3815155-2.9209766-1.8022232-2.9209766-3.4891281 0-.4885979.3995075-.8878899.8878918-.8878899.4883804 0 .887886.399292.887886.8878899 0 1.003212.9145546 1.8113289 2.0330849 1.8113289 1.118969 0 2.0333023-.8081169 2.0333023-1.8113289 0-.9945412-.9143333-1.8026581-2.0333023-1.8026581-2.095295 0-3.8088627-1.6158028-3.8088627-3.5871086 0-1.6869011 1.2518482-3.1076126 2.9209766-3.4891281v-1.1189651c0-.4881668.3997231-.8878899.887886-.8878899.4886017 0 .8878899.3997231.8878899.8878899v1.1189651c1.6782341.3728447 2.9211922 1.7931213 2.9211922 3.4891281 0 .4886017-.3995056.8878899-.8878899.8878899-.4881668 0-.8878899-.3992882-.8878899-.8878899 0-1.003212-.9143333-1.8113289-2.0333023-1.8113289-1.1185303 0-2.0330849.8081169-2.0330849 1.8113289 0 .9945412.9145546 1.8113289 2.0330849 1.8113289 2.1044045 0 3.8090821 1.6071319 3.8090821 3.5784378z" fill="#ffc90d"/></g></g></g></g></g></svg>