<?xml version="1.0" encoding="utf-8"?>
<!-- Generator: Adobe Illustrator 26.0.3, SVG Export Plug-In . SVG Version: 6.00 Build 0)  -->
<svg version="1.1" id="Layer_1" xmlns="http://www.w3.org/2000/svg" xmlns:xlink="http://www.w3.org/1999/xlink" x="0px" y="0px"
	 viewBox="0 0 512 512" style="enable-background:new 0 0 512 512;" xml:space="preserve">
<style type="text/css">
	.st0{fill:#27276D;}
	.st1{fill:#FD5C70;}
</style>
<path class="st0" d="M256,8C119,8,8,119,8,256s111,248,248,248s248-111,248-248C503.8,119.1,392.9,8.2,256,8z M256,488
	C127.9,488,24,384.1,24,256S127.9,24,256,24s232,103.9,232,232C487.9,384.1,384.1,487.9,256,488z"/>
<path class="st1" d="M428.7,374c-96.2-93.4-249.2-93.4-345.4,0c-3.1,3.1-3.2,8.2-0.1,11.3c3.1,3.1,8.1,3.2,11.2,0.2
	c90-87.3,233.1-87.3,323.1,0c3.2,3.1,8.3,3,11.3-0.2C431.9,382.1,431.8,377.1,428.7,374z"/>
<path class="st1" d="M256,272c53,0,96-43,96-96s-43-96-96-96s-96,43-96,96C160.1,229,203,271.9,256,272z M256,96
	c44.2,0,80,35.8,80,80s-35.8,80-80,80s-80-35.8-80-80C176.1,131.8,211.8,96.1,256,96z"/>
</svg>
