<svg height="512" viewBox="0 0 128 128" width="512" xmlns="http://www.w3.org/2000/svg"><path d="m70.56 101.03h-37.35a6.367 6.367 0 0 1 -6.5-6.21v-71.3a6.367 6.367 0 0 1 6.5-6.21h52.66a6.367 6.367 0 0 1 6.5 6.21v52.57a1.75 1.75 0 0 1 -2.251 1.677 15.2 15.2 0 0 0 -4.359-.637 15.04 15.04 0 0 0 -13.615 21.409 1.75 1.75 0 0 1 -1.585 2.491zm-37.35-80.22a2.87 2.87 0 0 0 -3 2.71v71.3a2.87 2.87 0 0 0 3 2.71h34.81a18.545 18.545 0 0 1 17.74-23.9 18.693 18.693 0 0 1 3.11.26v-50.37a2.87 2.87 0 0 0 -3-2.71z" fill="#27276d"/><path d="m85.76 110.69a18.615 18.615 0 0 1 -16.784-10.667 18.539 18.539 0 0 1 16.784-26.393 18.747 18.747 0 0 1 5.361.783 18.535 18.535 0 0 1 -5.361 36.277zm0-33.56a15 15 0 1 0 4.352.635 15.048 15.048 0 0 0 -4.352-.635z" fill="#fd5c70"/><path d="m84.519 97.781a1.744 1.744 0 0 1 -1.238-.513l-5.256-5.255a1.75 1.75 0 1 1 2.475-2.475l4.019 4.018 6.506-6.507a1.75 1.75 0 0 1 2.475 2.474l-7.744 7.745a1.743 1.743 0 0 1 -1.237.513z" fill="#fd5c70"/><g fill="#27276d"><path d="m75.377 34.155h-31.677a1.75 1.75 0 0 1 0-3.5h31.677a1.75 1.75 0 0 1 0 3.5z"/><path d="m75.377 46.5h-31.677a1.75 1.75 0 0 1 0-3.5h31.677a1.75 1.75 0 0 1 0 3.5z"/><path d="m75.377 58.854h-31.677a1.75 1.75 0 0 1 0-3.5h31.677a1.75 1.75 0 0 1 0 3.5z"/><path d="m75.377 71.2h-31.677a1.75 1.75 0 0 1 0-3.5h31.677a1.75 1.75 0 1 1 0 3.5z"/><path d="m59.54 83.551h-15.84a1.75 1.75 0 0 1 0-3.5h15.84a1.75 1.75 0 1 1 0 3.5z"/></g></svg>