<svg height="512" viewBox="0 0 128 128" width="512" xmlns="http://www.w3.org/2000/svg"><g><path d="m109 52.731a1.75 1.75 0 0 0 -1.75 1.75 14.576 14.576 0 0 1 -14.56 14.56h-23.97a1.749 1.749 0 0 0 -1.75 1.75v3.631a1.811 1.811 0 0 1 -1.81 1.809h-2.32a1.811 1.811 0 0 1 -1.81-1.809v-3.631a1.749 1.749 0 0 0 -1.75-1.75h-23.97a14.576 14.576 0 0 1 -14.56-14.56 1.75 1.75 0 1 0 -3.5 0v44.84a9.941 9.941 0 0 0 9.93 9.93h73.64a9.941 9.941 0 0 0 9.93-9.93v-44.84a1.75 1.75 0 0 0 -1.75-1.75zm-1.75 46.59a6.438 6.438 0 0 1 -6.43 6.43h-73.64a6.438 6.438 0 0 1 -6.43-6.43v-34.166a18.047 18.047 0 0 0 14.56 7.386h22.22v1.881a5.315 5.315 0 0 0 5.31 5.309h2.32a5.315 5.315 0 0 0 5.31-5.309v-1.881h22.22a18.047 18.047 0 0 0 14.56-7.386z" fill="#27276d"/><path d="m72.58 18.749h-17.17a13.436 13.436 0 0 0 -13.42 13.42v6.92a1.749 1.749 0 0 0 1.75 1.75h7a1.749 1.749 0 0 0 1.75-1.75v-6.92a2.923 2.923 0 0 1 2.92-2.92h17.17a2.929 2.929 0 0 1 2.93 2.92v6.92a1.749 1.749 0 0 0 1.75 1.75h7a1.749 1.749 0 0 0 1.75-1.75v-6.92a13.441 13.441 0 0 0 -13.43-13.42zm9.93 18.59h-3.5v-5.17a6.433 6.433 0 0 0 -6.43-6.42h-17.17a6.427 6.427 0 0 0 -6.42 6.42v5.17h-3.5v-5.17a9.931 9.931 0 0 1 9.92-9.92h17.17a9.936 9.936 0 0 1 9.93 9.92z" fill="#fd5c70"/><path d="m104.62 37.339h-81.24a6.137 6.137 0 0 0 -6.13 6.13v11.01a18.08 18.08 0 0 0 18.06 18.059h23.97a1.749 1.749 0 0 0 1.75-1.75v-3.64a1.807 1.807 0 0 1 1.81-1.8h2.32a1.807 1.807 0 0 1 1.81 1.8v3.64a1.749 1.749 0 0 0 1.75 1.75h23.97a18.08 18.08 0 0 0 18.06-18.059v-11.01a6.137 6.137 0 0 0 -6.13-6.13zm2.63 17.14a14.576 14.576 0 0 1 -14.56 14.559h-22.22v-1.89a5.311 5.311 0 0 0 -5.31-5.3h-2.32a5.311 5.311 0 0 0 -5.31 5.3v1.89h-22.22a14.576 14.576 0 0 1 -14.56-14.559v-11.01a2.633 2.633 0 0 1 2.63-2.63h81.24a2.633 2.633 0 0 1 2.63 2.63z" fill="#27276d"/><path d="m65.16 61.852h-2.32a5.31 5.31 0 0 0 -5.31 5.3v7.271a5.315 5.315 0 0 0 5.31 5.309h2.32a5.315 5.315 0 0 0 5.31-5.309v-7.272a5.31 5.31 0 0 0 -5.31-5.299zm1.81 12.57a1.811 1.811 0 0 1 -1.81 1.809h-2.32a1.811 1.811 0 0 1 -1.81-1.809v-7.271a1.807 1.807 0 0 1 1.81-1.8h2.32a1.807 1.807 0 0 1 1.81 1.8z" fill="#fd5c70"/></g></svg>