<svg height="512" viewBox="0 0 128 128" width="512" xmlns="http://www.w3.org/2000/svg"><g><g fill="#27276d"><path d="m34.114 25.686v-14.727a1.75 1.75 0 1 0 -3.5 0v14.727a1.75 1.75 0 0 0 3.5 0z"/><path d="m39.727 20.072a1.75 1.75 0 0 0 0-3.5h-14.727a1.75 1.75 0 0 0 0 3.5z"/><path d="m112.114 63.6v-14.732a1.75 1.75 0 1 0 -3.5 0v14.732a1.75 1.75 0 0 0 3.5 0z"/><path d="m117.727 57.981a1.75 1.75 0 0 0 0-3.5h-14.727a1.75 1.75 0 0 0 0 3.5z"/></g><path d="m99.932 37.231a29.114 29.114 0 1 0 -29.114 29.114 29.147 29.147 0 0 0 29.114-29.114zm-54.727 0a25.614 25.614 0 1 1 25.613 25.614 25.642 25.642 0 0 1 -25.613-25.614z" fill="#fd5c70"/><path d="m72.571 23.185v-13.317a1.75 1.75 0 1 0 -3.5 0v13.317a1.75 1.75 0 1 0 3.5 0z" fill="#fd5c70"/><path d="m72.571 64.6v-13.3a1.75 1.75 0 1 0 -3.5 0v13.3a1.75 1.75 0 0 0 3.5 0z" fill="#fd5c70"/><path d="m73.186 49.538h-11.761a1.75 1.75 0 0 0 0 3.5h11.761a8.777 8.777 0 0 0 0-17.553h-4.735a5.276 5.276 0 1 1 0-10.551h11.76a1.75 1.75 0 0 0 0-3.5h-11.76a8.776 8.776 0 1 0 0 17.551h4.735a5.277 5.277 0 0 1 0 10.553z" fill="#fd5c70"/><path d="m32.364 118.8a1.75 1.75 0 0 0 1.75-1.75v-32.05a9.079 9.079 0 0 0 -9.069-9.068h-13.863a1.749 1.749 0 0 0 -1.75 1.75v39.368a1.749 1.749 0 0 0 1.75 1.75zm-19.432-39.364h12.113a5.575 5.575 0 0 1 5.569 5.564v30.3h-17.682z" fill="#27276d"/><path d="m84.067 85.577a7.888 7.888 0 0 0 -5.617-2.323h-20.085c-4.425-5.08-10.365-7.515-16.407-6.691-5.133.7-9.426 3.665-11.2 7.742a1.768 1.768 0 0 0 -.145.7v25.95a1.75 1.75 0 0 0 1.411 1.717l33.211 6.559a34.881 34.881 0 0 0 6.759.663 34.3 34.3 0 0 0 22.408-8.33l21.89-18.774a8.31 8.31 0 0 0 -10.727-12.69l-16.9 12.951a12.467 12.467 0 0 1 -3.149 1.749 7.923 7.923 0 0 0 -1.449-9.222zm6.733 10.247 16.969-13.007a4.811 4.811 0 0 1 6.247 7.319l-21.896 18.77a30.862 30.862 0 0 1 -26.211 6.894l-31.8-6.281v-24.129c1.367-2.765 4.589-4.852 8.32-5.359 5.063-.682 10.073 1.528 13.76 6.074a1.748 1.748 0 0 0 1.36.649h20.9a4.43 4.43 0 1 1 0 8.86 1.75 1.75 0 0 0 0 3.5h2.651a16.024 16.024 0 0 0 9.7-3.29z" fill="#27276d"/><path d="m78.45 99.114a1.75 1.75 0 1 0 0-3.5h-20.9a1.75 1.75 0 1 0 0 3.5z" fill="#27276d"/></g></svg>