<svg xmlns="http://www.w3.org/2000/svg" width="13.914" height="13.914" viewBox="0 0 13.914 13.914">
  <g id="Outline_Expand" transform="translate(-10 -10)">
    <path id="Path_15529" data-name="Path 15529" d="M23.547,14.211h-2.38a.366.366,0,0,0,0,.732h1.387L18.13,18.72a1.8,1.8,0,0,1-2.346,0l-4.425-3.777h1.387a.366.366,0,0,0,0-.732h-2.38a.366.366,0,0,0-.366.366v8.971a.366.366,0,0,0,.366.366H23.547a.366.366,0,0,0,.366-.366V14.577A.366.366,0,0,0,23.547,14.211ZM23.181,22.8l-3.87-3.033a.366.366,0,1,0-.452.576l3.627,2.843H11.427l3.627-2.843a.366.366,0,1,0-.452-.576L10.732,22.8V15.371l4.576,3.906a2.555,2.555,0,0,0,3.3,0l4.576-3.906Zm-9.337-9.683a3.11,3.11,0,0,1,5.834-1.5l.051-.113a.366.366,0,1,1,.667.3l-.415.915a.37.37,0,0,1-.476.186l-.866-.366a.366.366,0,0,1,.285-.675l.075.031a2.378,2.378,0,1,0,.25,1.865.366.366,0,0,1,.705.2,3.113,3.113,0,0,1-6.11-.841Z" transform="translate(0)" fill="#008acc"/>
  </g>
</svg>
