<svg xmlns="http://www.w3.org/2000/svg" width="17.299" height="17.299" viewBox="0 0 17.299 17.299">
  <g id="Group_4087" data-name="Group 4087" transform="translate(-1167.932 -892.125)">
    <path id="Path_16051" data-name="Path 16051" d="M440.4,423.487a8.65,8.65,0,1,0,8.65-8.649,8.65,8.65,0,0,0-8.65,8.649" transform="translate(727.53 477.287)" fill="#00aced"/>
    <path id="twitter-156" d="M73.038,147.521a4.84,4.84,0,0,1-1.162,1.2q.007.1.007.3a6.574,6.574,0,0,1-.273,1.861,6.745,6.745,0,0,1-.828,1.782,7,7,0,0,1-1.323,1.511,5.894,5.894,0,0,1-1.851,1.048,6.771,6.771,0,0,1-2.317.391,6.434,6.434,0,0,1-3.558-1.04,4.987,4.987,0,0,0,.559.028,4.537,4.537,0,0,0,2.877-.99A2.323,2.323,0,0,1,63,152a2.944,2.944,0,0,0,.438.036,2.4,2.4,0,0,0,.61-.079,2.281,2.281,0,0,1-1.331-.8,2.238,2.238,0,0,1-.527-1.474v-.028a2.294,2.294,0,0,0,1.048.294,2.311,2.311,0,0,1-.753-.825,2.32,2.32,0,0,1,.036-2.274,6.562,6.562,0,0,0,2.113,1.711,6.459,6.459,0,0,0,2.665.713,2.6,2.6,0,0,1-.057-.531,2.319,2.319,0,0,1,4.01-1.585,4.546,4.546,0,0,0,1.471-.559,2.253,2.253,0,0,1-1.018,1.277,4.6,4.6,0,0,0,1.334-.359Z" transform="translate(1109.195 749.752)" fill="#fff"/>
  </g>
</svg>
