<?xml version="1.0" encoding="utf-8"?>
<!-- Generator: Adobe Illustrator 25.2.0, SVG Export Plug-In . SVG Version: 6.00 Build 0)  -->
<svg version="1.0" id="Layer_1" xmlns="http://www.w3.org/2000/svg" xmlns:xlink="http://www.w3.org/1999/xlink" x="0px" y="0px"
	 viewBox="0 0 20 20" style="enable-background:new 0 0 20 20;" xml:space="preserve">
<style type="text/css">
	.st0{fill:none;}
	.st1{fill:#FFFFFF;}
</style>
<g>
	<path class="st0" d="M14.64,9.47l-2.71,0c-0.19,0-0.35,0.16-0.35,0.35v2.7c0,0.19,0.16,0.35,0.35,0.35h2.71
		c0.19,0,0.35-0.16,0.35-0.35v-2.7C14.98,9.63,14.83,9.47,14.64,9.47z"/>
	<rect x="12.82" y="7.22" class="st0" width="1.07" height="1.19"/>
	<path class="st0" d="M16.02,4.39h-4.58c-0.46,0-0.9,0.18-1.22,0.51L7.99,7.13C7.53,7.59,6.92,7.84,6.27,7.84h-1.4
		c-0.96,0-1.73,0.78-1.73,1.73v4.35c0,0.96,0.78,1.73,1.73,1.73h11.16c0.96,0,1.73-0.78,1.73-1.73v-7.8
		C17.76,5.17,16.98,4.39,16.02,4.39z M15.68,12.52c0,0.57-0.46,1.04-1.04,1.04h-2.7c-0.57,0-1.04-0.46-1.04-1.04v-2.7
		c0-0.57,0.46-1.04,1.04-1.04h0.19V7.13c0.01-0.34,0.29-0.6,0.63-0.59h1.2c0.34-0.01,0.62,0.26,0.63,0.59v1.39
		c0,0.1-0.03,0.18-0.08,0.26h0.14c0.57,0,1.04,0.46,1.04,1.04V12.52z"/>
	<path class="st1" d="M16.02,3.7h-4.58c-0.64,0-1.26,0.25-1.71,0.71L7.5,6.64C7.17,6.97,6.73,7.15,6.27,7.15H4.87
		c-1.34,0-2.42,1.08-2.42,2.42v4.35c0,1.34,1.09,2.42,2.42,2.42h11.16c1.34,0,2.42-1.09,2.42-2.42v-7.8
		C18.45,4.78,17.36,3.7,16.02,3.7z M17.76,13.92c0,0.96-0.78,1.73-1.73,1.73H4.87c-0.96,0-1.73-0.78-1.73-1.73V9.57
		c0-0.96,0.78-1.73,1.73-1.73h1.4c0.64,0,1.26-0.25,1.71-0.71l2.23-2.23c0.32-0.33,0.76-0.51,1.22-0.51h4.58
		c0.96,0,1.73,0.78,1.73,1.73V13.92z"/>
	<path class="st1" d="M14.64,8.78H14.5c0.04-0.08,0.07-0.17,0.08-0.26V7.13c-0.01-0.34-0.29-0.6-0.63-0.59h-1.2
		c-0.34-0.01-0.62,0.26-0.63,0.59v1.65h-0.19c-0.57,0-1.04,0.46-1.04,1.04v2.7c0,0.57,0.46,1.04,1.04,1.04h2.7
		c0.57,0,1.04-0.47,1.04-1.04v-2.7C15.68,9.24,15.21,8.78,14.64,8.78z M12.82,7.22h1.07v1.19h-1.07V7.22z M14.98,12.52
		c0,0.19-0.16,0.35-0.35,0.35h-2.71c-0.19,0-0.35-0.15-0.35-0.35v-2.7c0-0.19,0.16-0.35,0.35-0.35l2.71,0
		c0.19,0,0.35,0.16,0.35,0.35V12.52z"/>
</g>
</svg>
