<?xml version="1.0" encoding="utf-8"?>
<!-- Generator: Adobe Illustrator 25.2.0, SVG Export Plug-In . SVG Version: 6.00 Build 0)  -->
<svg version="1.0" id="Layer_1" xmlns="http://www.w3.org/2000/svg" xmlns:xlink="http://www.w3.org/1999/xlink" x="0px" y="0px"
	 viewBox="0 0 20 20" style="enable-background:new 0 0 20 20;" xml:space="preserve">
<style type="text/css">
	.st0{fill:none;}
	.st1{fill:#FFFFFF;}
</style>
<g id="Group_2908" transform="translate(-226.481 -463.457)">
	<rect id="Rectangle_1373" x="228.66" y="464.98" class="st0" width="17" height="17"/>
	<path id="Path_4368" class="st1" d="M236.73,474.11c1.04,0,2.07,0.22,3.02,0.64c0.76,0.34,1.25,1.1,1.25,1.94v1.15h-8.54v-1.14
		c-0.01-0.84,0.48-1.6,1.25-1.94C234.66,474.33,235.69,474.11,236.73,474.11z M231.04,474.29c0.79,0,1.42-0.64,1.42-1.42
		c0-0.79-0.64-1.42-1.42-1.42c-0.79,0-1.42,0.64-1.42,1.42C229.62,473.65,230.25,474.29,231.04,474.29L231.04,474.29z
		 M231.84,475.07c-0.94-0.16-1.91-0.04-2.78,0.34c-0.53,0.23-0.87,0.74-0.87,1.32v1.12h3.2v-1.14
		C231.39,476.13,231.55,475.56,231.84,475.07L231.84,475.07z M242.42,474.29c0.79,0,1.42-0.64,1.42-1.42c0-0.79-0.64-1.42-1.42-1.42
		c-0.79,0-1.42,0.64-1.42,1.42C240.99,473.65,241.63,474.29,242.42,474.29C242.42,474.29,242.42,474.29,242.42,474.29L242.42,474.29
		z M245.26,476.73c0-0.57-0.34-1.09-0.87-1.32c-0.87-0.39-1.84-0.5-2.78-0.34c0.29,0.49,0.45,1.06,0.45,1.63v1.14h3.2L245.26,476.73
		z M236.73,469.31c1.18,0,2.13,0.96,2.13,2.13s-0.96,2.13-2.13,2.13s-2.13-0.96-2.13-2.13
		C234.59,470.26,235.55,469.31,236.73,469.31C236.73,469.31,236.73,469.31,236.73,469.31L236.73,469.31z"/>
</g>
</svg>
