<?xml version="1.0" encoding="utf-8"?>
<!-- Generator: Adobe Illustrator 25.2.0, SVG Export Plug-In . SVG Version: 6.00 Build 0)  -->
<svg version="1.0" id="Layer_1" xmlns="http://www.w3.org/2000/svg" xmlns:xlink="http://www.w3.org/1999/xlink" x="0px" y="0px"
	 viewBox="0 0 20 20" style="enable-background:new 0 0 20 20;" xml:space="preserve">
<style type="text/css">
	.st0{fill:#FFFFFF;}
</style>
<g id="Group_2960" transform="translate(-186.481 -466.887)">
	<g id="Group_2957">
		<path id="Path_4431" class="st0" d="M194.47,484.52c-1.54,0.01-3.08-0.2-4.56-0.63c-0.73-0.22-1.23-0.89-1.23-1.65l-0.01-2.73
			c0-0.46,0.18-0.9,0.5-1.23l2.17-2.19l0.71,0.7l-2.17,2.19c-0.14,0.14-0.21,0.33-0.21,0.52l0.01,2.73c0,0.32,0.2,0.61,0.51,0.7
			c2.89,0.81,5.96,0.79,8.84-0.08c0.31-0.1,0.51-0.38,0.51-0.71l-0.01-2.59c0-0.19-0.08-0.38-0.21-0.51l-2.25-2.27l0.71-0.7
			l2.25,2.27c0.32,0.32,0.5,0.76,0.5,1.21l0.01,2.59c0.01,0.77-0.5,1.45-1.23,1.67C197.73,484.28,196.1,484.51,194.47,484.52z"/>
	</g>
	<g id="Group_2958">
		<path id="Path_4432" class="st0" d="M194.59,477.57c-2.29,0.01-4.15-1.84-4.16-4.12c-0.01-2.29,1.84-4.15,4.12-4.16
			c2.29-0.01,4.15,1.84,4.16,4.12c0,0,0,0,0,0C198.72,475.69,196.88,477.56,194.59,477.57z M194.56,470.28
			c-1.74,0.01-3.14,1.42-3.13,3.16c0.01,1.74,1.42,3.14,3.16,3.13c1.74-0.01,3.14-1.42,3.13-3.16c0,0,0,0,0,0
			C197.7,471.68,196.29,470.28,194.56,470.28L194.56,470.28z"/>
	</g>
	<g id="Group_2959">
		<path id="Path_4433" class="st0" d="M194.59,477.16h-0.62l0.01,3.02l0.63,1.23l0.61-1.22l-0.01-3.04L194.59,477.16z"/>
	</g>
	<g id="Path_4366">
		<path id="Path_4434" class="st0" d="M202.16,471.45c-1.66,0.01-2.99,1.36-2.98,3.02c0.01,1.66,1.36,2.99,3.02,2.98
			c1.66-0.01,2.99-1.36,2.98-3.01C205.17,472.78,203.82,471.44,202.16,471.45C202.16,471.45,202.16,471.45,202.16,471.45z
			 M202.19,476.85c-1.33,0.01-2.4-1.06-2.41-2.39c-0.01-1.33,1.06-2.4,2.39-2.41c1.33-0.01,2.4,1.06,2.41,2.39
			C204.58,475.76,203.51,476.84,202.19,476.85C202.19,476.85,202.19,476.85,202.19,476.85z"/>
	</g>
	<g id="Path_4367">
		<path id="Path_4435" class="st0" d="M202.32,472.95h-0.45l0.01,1.8l1.58,0.94l0.22-0.37l-1.35-0.8L202.32,472.95z"/>
	</g>
</g>
</svg>
