<svg xmlns="http://www.w3.org/2000/svg" width="14.345" height="17.766" viewBox="0 0 14.345 17.766"><defs><style>.a{fill:#fff;}</style></defs><g transform="translate(-148.5 -621.384)"><path class="a" d="M167.82,634.851h.8V623.487h-8.742v.538h7.946Z" transform="translate(-6.645 -1.228)"/><path class="a" d="M168.262,621.384h-10.49V622.8h.874v-.538h8.742v11.364h-.8v.875h1.67Z" transform="translate(-5.416)"/><path class="a" d="M154.193,625.218h1.233v-.437h-1.67v1.7h.437Z" transform="translate(-3.07 -1.984)"/><path class="a" d="M175.477,653.9h-1.748v.437h2.185v-1.412h-.437Z" transform="translate(-14.738 -18.423)"/><path class="a" d="M167.383,625.218v10.389h.437V624.781h-7.946v.437Z" transform="translate(-6.645 -1.984)"/><rect class="a" width="0.874" height="0.437" transform="translate(152.355 622.797)"/><rect class="a" width="0.437" height="0.875" transform="translate(160.738 633.623)"/><path class="a" d="M175.04,653.458h-1.311v.437h1.748v-.975h-.437Z" transform="translate(-14.738 -18.423)"/><path class="a" d="M159.874,625.832v.437h7.072v9.952h.437V625.832Z" transform="translate(-6.645 -2.598)"/><path class="a" d="M155.244,626.269h.8v-.437h-1.233v1.259h.437Z" transform="translate(-3.685 -2.598)"/><rect class="a" width="0.874" height="0.437" transform="translate(152.355 623.234)"/><rect class="a" width="0.437" height="0.875" transform="translate(160.301 633.623)"/><path class="a" d="M158.553,641.628,157.38,642.8l-1.158-1.158-1.2,1.2-1.2-1.2-1.188,1.188-1.179-1.179L150.2,642.9l-1.265-1.265V629.3h1.748v-.437H148.5v12.955l1.7,1.7,1.248-1.248,1.18,1.18,1.187-1.187,1.2,1.2,1.2-1.2,1.158,1.158,1.61-1.61v-1.532h-.437Z" transform="translate(0 -4.367)"/><rect class="a" width="0.796" height="0.437" transform="translate(151.56 624.493)"/><path class="a" d="M165.2,629.3v8.693h.437v-9.13h-5.761v.437Z" transform="translate(-6.645 -4.367)"/><rect class="a" width="0.437" height="0.538" transform="translate(158.553 634.497)"/><rect class="a" width="0.874" height="0.437" transform="translate(152.355 624.493)"/><rect class="a" width="0.437" height="0.875" transform="translate(158.553 633.623)"/><rect class="a" width="0.437" height="0.437" transform="translate(150.685 624.493)"/><rect class="a" width="0.437" height="0.437" transform="translate(158.553 635.472)"/><rect class="a" width="0.437" height="0.437" transform="translate(151.123 624.493)"/><rect class="a" width="0.437" height="0.437" transform="translate(158.553 635.035)"/><path class="a" d="M158.73,642.06l-.736.736-1.158-1.158-1.2,1.2-1.2-1.2-1.187,1.187-1.18-1.18-1.248,1.248-.828-.828V630.348H151.3v-.437h-1.748v12.337l1.265,1.265,1.248-1.248,1.179,1.179,1.188-1.188,1.2,1.2,1.2-1.2,1.158,1.158,1.173-1.173V640.89h-.437Z" transform="translate(-0.614 -4.981)"/><path class="a" d="M164.761,630.348V638.6h.437V629.91h-5.324v.437Z" transform="translate(-6.645 -4.981)"/><rect class="a" width="0.437" height="0.538" transform="translate(158.116 634.497)"/><rect class="a" width="0.796" height="0.437" transform="translate(151.56 624.929)"/><rect class="a" width="0.874" height="0.437" transform="translate(152.355 624.929)"/><rect class="a" width="0.437" height="0.875" transform="translate(158.116 633.623)"/><rect class="a" width="0.437" height="0.437" transform="translate(150.685 624.929)"/><rect class="a" width="0.437" height="0.437" transform="translate(158.116 635.472)"/><rect class="a" width="0.437" height="0.437" transform="translate(158.116 635.035)"/><rect class="a" width="0.437" height="0.437" transform="translate(151.123 624.929)"/><g transform="translate(151.559 627.314)"><g transform="translate(0)"><g transform="translate(0.122 0.109)"><path class="a" d="M156.653,641.486a1.559,1.559,0,0,0,1.587,1.3c.956,0,1.578-.345,1.578-1.281,0-.67-.316-1.153-1.568-1.489-1.281-.335-1.952-.749-1.952-1.764a1.705,1.705,0,0,1,1.9-1.646c1.528,0,1.962.937,2.021,1.518h-.512a1.376,1.376,0,0,0-1.519-1.074c-1,0-1.36.542-1.36,1.154,0,.66.365,1.035,1.479,1.321,1.637.434,2.051,1.054,2.051,1.942,0,1.114-.759,1.775-2.149,1.764a1.915,1.915,0,0,1-2.061-1.744Zm1.4,2.661v-8.24h.463v8.24Z" transform="translate(-156.15 -635.907)"/></g><path class="a" d="M158.453,644.1h-.682v-.931a1.981,1.981,0,0,1-1.9-1.829l-.014-.121h.715l.018.088a1.441,1.441,0,0,0,1.183,1.187v-2.606c-1.091-.32-1.755-.763-1.755-1.793a1.765,1.765,0,0,1,1.755-1.744v-.711h.682v.726a1.786,1.786,0,0,1,1.7,1.59l.012.12h-.717l-.021-.08a1.2,1.2,0,0,0-.979-.954v2.3c1.305.4,1.844.982,1.844,1.965a1.75,1.75,0,0,1-.489,1.294,2.2,2.2,0,0,1-1.355.562Zm-.463-.219h.244v-.7c-.064,0-.13,0-.2,0h-.048Zm0-.918c.027,0,.054,0,.079,0,.056,0,.111,0,.165,0v-.225c-.079,0-.162.005-.244,0Zm-1.887-1.525a1.771,1.771,0,0,0,1.669,1.511v-.232a1.645,1.645,0,0,1-1.378-1.279Zm2.35,1.28v.226a1.962,1.962,0,0,0,1.2-.5,1.538,1.538,0,0,0,.425-1.139c0-.73-.287-1.31-1.625-1.737v.286c.919.311,1.3.758,1.3,1.49A1.276,1.276,0,0,1,158.453,642.722Zm-.463-.2c.082,0,.165,0,.244,0v-2.5c-.059-.017-.12-.035-.184-.052l-.06-.016Zm.463-2.428V642.5a1.055,1.055,0,0,0,1.083-1.15C159.536,640.832,159.341,640.412,158.453,640.094Zm-.463-.367.115.031.129.036v-.283l-.126-.034-.119-.032Zm-.219-3.152a1.554,1.554,0,0,0-1.536,1.524c0,.79.41,1.22,1.536,1.565v-.284c-.873-.28-1.222-.67-1.222-1.329a1.208,1.208,0,0,1,1.222-1.251Zm.219,2.642.174.047.07.019v-2.269c-.078-.007-.16-.009-.244-.009Zm-.219-2.2a.98.98,0,0,0-1,1.032c0,.475.175.82,1,1.1Zm1.847.844h.3a1.558,1.558,0,0,0-1.47-1.272v.234A1.4,1.4,0,0,1,159.619,637.862Zm-1.6-1.074c.074,0,.147,0,.216.008v-.227c-.078,0-.159-.008-.244-.005v.225Zm.01-.444c.071,0,.139,0,.206.006v-.487h-.244v.482Z" transform="translate(-155.856 -635.644)"/></g></g></g></svg>