<?xml version="1.0" encoding="utf-8"?>
<!-- Generator: Adobe Illustrator 25.2.0, SVG Export Plug-In . SVG Version: 6.00 Build 0)  -->
<svg version="1.0" id="Layer_1" xmlns="http://www.w3.org/2000/svg" xmlns:xlink="http://www.w3.org/1999/xlink" x="0px" y="0px"
	 viewBox="0 0 20 20" style="enable-background:new 0 0 20 20;" xml:space="preserve">
<style type="text/css">
	.st0{fill:#FFFFFF;}
</style>
<g id="Group_2925" transform="translate(-407.26 -510.276)">
	<g id="Group_2918" transform="translate(411.632 514.459)">
		<path id="Path_4402" class="st0" d="M6,10.7c-0.98,0-1.95-0.13-2.89-0.41c-0.49-0.15-0.82-0.6-0.82-1.11V7.46
			c0-0.31,0.12-0.6,0.34-0.82l1.37-1.37c0.15-0.15,0.4-0.15,0.55,0s0.15,0.4,0,0.55l0,0L3.18,7.18C3.11,7.26,3.07,7.35,3.07,7.46
			v1.72c0,0.17,0.11,0.32,0.27,0.37c1.8,0.52,3.72,0.51,5.52-0.03c0.16-0.05,0.27-0.2,0.27-0.37V7.52c0-0.1-0.04-0.2-0.11-0.27
			L7.6,5.81C7.45,5.66,7.44,5.42,7.59,5.26S7.99,5.1,8.14,5.25c0,0,0.01,0.01,0.01,0.01L9.57,6.7C9.78,6.92,9.9,7.21,9.9,7.52v1.63
			c0,0.52-0.34,0.97-0.83,1.12C8.07,10.56,7.04,10.7,6,10.7z"/>
	</g>
	<g id="Group_2919" transform="translate(412.755 510.276)">
		<path id="Path_4403" class="st0" d="M4.98,10.51c-1.48,0-2.68-1.2-2.68-2.68c0-1.48,1.2-2.68,2.68-2.68c1.48,0,2.68,1.2,2.68,2.68
			C7.65,9.31,6.46,10.51,4.98,10.51z M4.98,5.92c-1.05,0-1.9,0.85-1.9,1.9c0,1.05,0.85,1.9,1.9,1.9c1.05,0,1.9-0.85,1.9-1.9
			C6.87,6.78,6.02,5.93,4.98,5.92L4.98,5.92z"/>
	</g>
	<g id="Group_2920" transform="translate(408.486 512.173)">
		<path id="Path_4404" class="st0" d="M4.12,8.8c-1.01,0-1.82-0.82-1.82-1.83c0-1.01,0.82-1.82,1.83-1.82
			c1.01,0,1.82,0.82,1.82,1.82C5.94,7.98,5.13,8.8,4.12,8.8z M4.12,5.92c-0.58,0-1.05,0.47-1.05,1.05c0,0.58,0.47,1.05,1.05,1.05
			s1.05-0.47,1.05-1.05l0,0C5.17,6.39,4.7,5.92,4.12,5.92L4.12,5.92z"/>
	</g>
	<g id="Group_2921" transform="translate(422.839 519.051)">
		<path id="Path_4405" class="st0" d="M2.29,5.15"/>
	</g>
	<g id="Group_2922" transform="translate(407.26 515.392)">
		<path id="Path_4406" class="st0" d="M4.68,9.11C4.16,9.1,3.64,9.03,3.14,8.88C2.64,8.74,2.3,8.28,2.3,7.76V6.89
			c0-0.31,0.12-0.61,0.34-0.82l0.8-0.8c0.15-0.15,0.4-0.15,0.55,0c0.15,0.15,0.15,0.4,0,0.55l-0.8,0.8
			C3.11,6.69,3.07,6.79,3.07,6.89v0.88c0,0.17,0.11,0.33,0.28,0.37c0.47,0.14,0.96,0.21,1.46,0.2c0.21-0.01,0.39,0.16,0.4,0.37
			c0,0,0,0,0,0.01c0.01,0.21-0.16,0.39-0.37,0.4L4.68,9.11z"/>
	</g>
	<g id="Group_2923" transform="translate(418.69 512.173)">
		<path id="Path_4407" class="st0" d="M4.12,8.8C3.11,8.8,2.3,7.98,2.3,6.97c0-1.01,0.82-1.82,1.82-1.82c1.01,0,1.82,0.82,1.82,1.82
			C5.94,7.98,5.13,8.79,4.12,8.8z M4.12,5.92c-0.58,0-1.05,0.47-1.05,1.05c0,0.58,0.47,1.05,1.05,1.05s1.05-0.47,1.05-1.05l0,0
			C5.17,6.39,4.7,5.92,4.12,5.92L4.12,5.92z"/>
	</g>
	<g id="Group_2924" transform="translate(420.648 515.392)">
		<path id="Path_4408" class="st0" d="M2.83,9.11H2.67C2.46,9.1,2.29,8.92,2.3,8.71c0-0.21,0.17-0.38,0.38-0.37
			c0.01,0,0.01,0,0.02,0c0.49,0.01,0.98-0.06,1.46-0.2c0.17-0.05,0.28-0.2,0.28-0.37V6.89c0-0.1-0.04-0.2-0.11-0.28l-0.8-0.8
			c-0.15-0.15-0.15-0.4,0-0.55s0.4-0.15,0.55,0l0.8,0.8c0.22,0.22,0.34,0.51,0.34,0.82v0.88c0,0.52-0.35,0.98-0.85,1.12
			C3.86,9.03,3.35,9.1,2.83,9.11z"/>
	</g>
</g>
</svg>
