<?xml version="1.0" encoding="utf-8"?>
<!-- Generator: Adobe Illustrator 25.2.0, SVG Export Plug-In . SVG Version: 6.00 Build 0)  -->
<svg version="1.0" id="Layer_1" xmlns="http://www.w3.org/2000/svg" xmlns:xlink="http://www.w3.org/1999/xlink" x="0px" y="0px"
	 viewBox="0 0 20 20" style="enable-background:new 0 0 20 20;" xml:space="preserve">
<style type="text/css">
	.st0{fill:#FFFFFF;}
</style>
<g id="Group_2906" transform="translate(-168.271 -554.855)">
	<g id="Group_2900" transform="translate(176.755 565.42)">
		<path id="Path_4386" class="st0" d="M6.11,7.48c-0.97,0-1.93-0.13-2.86-0.41c-0.48-0.15-0.8-0.59-0.8-1.09V4.27
			c0-0.3,0.12-0.59,0.33-0.81L4.14,2.1c0.14-0.14,0.38-0.14,0.52,0c0.14,0.14,0.14,0.38,0,0.52L3.3,3.99
			C3.22,4.06,3.18,4.17,3.18,4.27v1.71c0,0.17,0.11,0.33,0.28,0.38c1.8,0.51,3.7,0.51,5.49-0.02c0.17-0.05,0.28-0.21,0.28-0.39V4.33
			c0-0.1-0.04-0.2-0.12-0.28l-1.4-1.43c-0.14-0.15-0.14-0.38,0-0.52c0.15-0.14,0.38-0.14,0.52,0l0,0l1.4,1.43
			c0.21,0.21,0.33,0.5,0.33,0.8v1.62c0,0.51-0.33,0.96-0.82,1.1C8.16,7.33,7.13,7.48,6.11,7.48z"/>
	</g>
	<g id="Group_2901" transform="translate(177.87 561.265)">
		<path id="Path_4387" class="st0" d="M5.09,7.29c-1.46,0-2.65-1.19-2.65-2.65c0-1.46,1.19-2.65,2.65-2.65s2.65,1.19,2.65,2.65
			C7.73,6.1,6.55,7.29,5.09,7.29z M5.09,2.73c-1.05,0-1.91,0.85-1.91,1.91c0,1.05,0.85,1.91,1.91,1.91S7,5.69,7,4.64l0,0
			C6.99,3.59,6.14,2.74,5.09,2.73L5.09,2.73z"/>
	</g>
	<g id="Group_2902" transform="translate(168.271 563.877)">
		<path id="Path_4388" class="st0" d="M6.11,7.48c-0.97,0-1.93-0.13-2.86-0.41c-0.48-0.15-0.8-0.59-0.8-1.09V4.27
			c0-0.3,0.12-0.59,0.34-0.81L4.14,2.1c0.14-0.14,0.38-0.14,0.52,0c0.14,0.14,0.14,0.38,0,0.52L3.3,3.99
			C3.23,4.06,3.18,4.17,3.18,4.27v1.71c0,0.17,0.11,0.33,0.28,0.38c1.8,0.51,3.7,0.51,5.49-0.02c0.17-0.05,0.28-0.21,0.28-0.39V4.33
			c0-0.11-0.04-0.21-0.12-0.28l-1.4-1.43c-0.14-0.15-0.14-0.38,0-0.52c0.15-0.14,0.38-0.14,0.52,0l1.4,1.43
			c0.21,0.21,0.33,0.5,0.33,0.8v1.62c0,0.51-0.33,0.96-0.82,1.1C8.16,7.34,7.14,7.48,6.11,7.48z"/>
	</g>
	<g id="Group_2903" transform="translate(169.386 559.722)">
		<path id="Path_4389" class="st0" d="M5.09,7.29c-1.46,0-2.65-1.18-2.65-2.65c0-1.46,1.18-2.65,2.65-2.65s2.65,1.18,2.65,2.65
			c0,0,0,0,0,0C7.73,6.1,6.55,7.29,5.09,7.29z M5.09,2.73c-1.05,0-1.91,0.85-1.91,1.91s0.85,1.91,1.91,1.91S6.99,5.7,7,4.64
			c0,0,0,0,0,0C6.99,3.59,6.14,2.74,5.09,2.73z"/>
	</g>
	<g id="Group_2904" transform="translate(171.832 564.995)">
		<path id="Path_4390" class="st0" d="M2.83,1.99H2.44v1.79l0.39,0.73l0.38-0.72v-1.8L2.83,1.99z"/>
	</g>
	<g id="Group_2905" transform="translate(174.639 554.855)">
		<path id="Path_4391" class="st0" d="M9.69,7.58c-0.16,0-0.32-0.06-0.43-0.18L8.62,6.76L3.05,6.75c-0.34,0-0.61-0.27-0.61-0.61V4.9
			c0-0.15,0.12-0.28,0.28-0.28C2.87,4.62,3,4.74,3,4.9v1.24c0,0.03,0.02,0.05,0.05,0.05c0,0,0,0,0,0h5.54
			c0.16,0,0.31,0.06,0.43,0.18L9.65,7l0.09-0.04V6.75c0-0.34,0.27-0.61,0.61-0.61c0.1,0,0.12-0.02,0.12-0.05v-3.5
			c0-0.03-0.02-0.05-0.05-0.05l0,0H3.05C3.02,2.54,3,2.57,3,2.59c0,0,0,0,0,0v0.74c0,0.15-0.12,0.28-0.28,0.28
			c-0.15,0-0.28-0.12-0.28-0.28V2.59c0-0.34,0.27-0.61,0.61-0.61h7.37c0.34,0,0.61,0.27,0.61,0.61v3.5c0,0.34-0.27,0.61-0.61,0.61
			c-0.1,0-0.12,0.02-0.12,0.05v0.21C10.29,7.3,10.02,7.57,9.69,7.58L9.69,7.58z"/>
	</g>
</g>
</svg>
