<?xml version="1.0" encoding="utf-8"?>
<!-- Generator: Adobe Illustrator 25.2.0, SVG Export Plug-In . SVG Version: 6.00 Build 0)  -->
<svg version="1.0" id="Layer_1" xmlns="http://www.w3.org/2000/svg" xmlns:xlink="http://www.w3.org/1999/xlink" x="0px" y="0px"
	 viewBox="0 0 20 20" style="enable-background:new 0 0 20 20;" xml:space="preserve">
<style type="text/css">
	.st0{fill:none;}
	.st1{fill:#FFFFFF;}
</style>
<g id="Group_2890" transform="translate(-60.5 -503.5)">
	<path id="Path_4376" class="st0" d="M72.85,507.54c0-0.07-0.05-0.12-0.12-0.12h0h-3.57c-0.07,0-0.12,0.05-0.12,0.12l0,0v1.4h3.81
		V507.54z"/>
	<path id="Path_4377" class="st0" d="M76.76,510.47H65.13c-0.37,0-0.66,0.3-0.66,0.66v7.82c0,0.37,0.3,0.66,0.66,0.66h11.63
		c0.37,0,0.66-0.3,0.66-0.66v-7.82C77.42,510.77,77.13,510.47,76.76,510.47z"/>
	<path id="Path_4378" class="st1" d="M76.76,508.94h-2.38v-1.4c0-0.91-0.74-1.64-1.65-1.65h-3.57c-0.91,0-1.64,0.74-1.65,1.65v1.4
		h-2.39c-1.21,0-2.19,0.98-2.19,2.19v7.82c0,1.21,0.98,2.19,2.19,2.19h11.63c1.21,0,2.19-0.98,2.19-2.19v-7.82
		C78.95,509.92,77.97,508.95,76.76,508.94z M69.04,507.54c0-0.07,0.05-0.12,0.12-0.12h0h3.57c0.07,0,0.12,0.05,0.12,0.12l0,0v1.4
		h-3.81L69.04,507.54z M77.42,518.95c0,0.37-0.3,0.66-0.66,0.66H65.13c-0.37,0-0.66-0.3-0.66-0.66v-7.82c0-0.37,0.3-0.66,0.66-0.66
		h11.63c0.37,0,0.66,0.3,0.66,0.66V518.95z"/>
</g>
</svg>
