<?xml version="1.0" encoding="utf-8"?>
<!-- Generator: Adobe Illustrator 25.2.0, SVG Export Plug-In . SVG Version: 6.00 Build 0)  -->
<svg version="1.0" id="Layer_1" xmlns="http://www.w3.org/2000/svg" xmlns:xlink="http://www.w3.org/1999/xlink" x="0px" y="0px"
	 viewBox="0 0 20 20" style="enable-background:new 0 0 20 20;" xml:space="preserve">
<style type="text/css">
	.st0{fill:#FFFFFF;}
</style>
<g id="Group_2944" transform="translate(-527.534 -513.659)">
	<g id="Group_2939" transform="translate(527.534 513.659)">
		<path id="Path_4417" class="st0" d="M15.81,18.06H5.08c-0.63,0-1.15-0.51-1.15-1.15V3.12c0-0.63,0.51-1.15,1.15-1.15h8.11
			c0.3,0,0.6,0.12,0.81,0.34l2.62,2.62c0.21,0.22,0.34,0.51,0.34,0.81v11.18C16.96,17.55,16.44,18.06,15.81,18.06z M5.08,2.74
			c-0.21,0-0.38,0.17-0.38,0.38v13.79c0,0.21,0.17,0.38,0.38,0.38h10.72c0.21,0,0.38-0.17,0.38-0.38V5.74c0-0.1-0.04-0.2-0.11-0.27
			l-2.61-2.61c-0.07-0.07-0.17-0.11-0.27-0.11H5.08z"/>
	</g>
	<g id="Group_2940" transform="translate(529.832 521.219)">
		<path id="Path_4418" class="st0" d="M9.83,2.74H4.32c-0.21,0-0.38-0.17-0.38-0.38c0-0.21,0.17-0.38,0.38-0.38h5.51
			c0.21,0,0.38,0.17,0.38,0.38C10.21,2.57,10.04,2.74,9.83,2.74z"/>
	</g>
	<g id="Group_2941" transform="translate(529.832 523.107)">
		<path id="Path_4419" class="st0" d="M7.45,2.74H4.32c-0.21,0-0.38-0.17-0.38-0.38c0-0.21,0.17-0.38,0.38-0.38h3.14
			c0.21,0,0.38,0.17,0.38,0.38S7.67,2.74,7.45,2.74C7.46,2.74,7.46,2.74,7.45,2.74z"/>
	</g>
	<g id="Group_2942" transform="translate(533.279 524.337)">
		<path id="Path_4420" class="st0" d="M5.44,5.61L4.05,4.22C3.9,4.07,3.91,3.83,4.06,3.68c0.15-0.14,0.38-0.14,0.53,0l0.85,0.85
			l2.44-2.44c0.16-0.14,0.4-0.13,0.54,0.03c0.13,0.15,0.13,0.37,0,0.51L5.44,5.61z"/>
	</g>
	<g id="Group_2943" transform="translate(529.832 516.723)">
		<path id="Path_4421" class="st0" d="M9.68,5.04h-4.6c-0.63,0-1.15-0.51-1.15-1.15V3.12c0-0.63,0.51-1.15,1.15-1.15h4.6
			c0.63,0,1.15,0.51,1.15,1.15v0.77C10.83,4.52,10.31,5.04,9.68,5.04z M5.08,2.74c-0.21,0-0.38,0.17-0.38,0.38v0.77
			c0,0.21,0.17,0.38,0.38,0.38h4.6c0.21,0,0.38-0.17,0.38-0.38V3.12c0-0.21-0.17-0.38-0.38-0.38H5.08z"/>
	</g>
</g>
</svg>
