<svg xmlns="http://www.w3.org/2000/svg" viewBox="0 0 500 503.24"><defs><style>.cls-1{fill:#fff;}</style></defs><g id="Layer_2" data-name="Layer 2"><g id="Layer_1-2" data-name="Layer 1"><path class="cls-1" d="M289.72,336.82a267.71,267.71,0,0,1-86.12-13.56,27.38,27.38,0,0,1-18.25-25.74V241.19a27.42,27.42,0,0,1,8-19.26l39.55-39.54a15.21,15.21,0,0,1,21.87,21.13l-.37.38-38.54,38.54v52.74A259,259,0,0,0,369,294.6V244.11l-39.55-40.24a15.21,15.21,0,0,1,21.69-21.3l40.46,41.16a27.14,27.14,0,0,1,7.82,19.1v54.24a27.39,27.39,0,0,1-19.23,26.13A308.75,308.75,0,0,1,289.72,336.82Z"/><path class="cls-1" d="M292.36,65.58a76.84,76.84,0,1,1-76.83,76.84h0A76.92,76.92,0,0,1,292.36,65.58Zm0,123.26A46.42,46.42,0,1,0,246,142.42,46.42,46.42,0,0,0,292.36,188.84Z"/><path class="cls-1" d="M287.07,0C404.67,0,500,95.33,500,212.93S404.67,425.86,287.07,425.86,74.14,330.53,74.14,212.93,169.52.12,287.07,0Zm0,395.44A182.51,182.51,0,1,0,104.56,212.93,182.51,182.51,0,0,0,287.07,395.44Z"/><path class="cls-1" d="M15.22,503.24A15.19,15.19,0,0,1,4.45,477.3L108.27,373.48A15.21,15.21,0,1,1,129.78,395L26,498.8A15.2,15.2,0,0,1,15.22,503.24Z"/></g></g></svg>