<?xml version="1.0" encoding="utf-8"?>
<!-- Generator: Adobe Illustrator 25.2.0, SVG Export Plug-In . SVG Version: 6.00 Build 0)  -->
<svg version="1.0" id="Layer_1" xmlns="http://www.w3.org/2000/svg" xmlns:xlink="http://www.w3.org/1999/xlink" x="0px" y="0px"
	 viewBox="0 0 20 20" style="enable-background:new 0 0 20 20;" xml:space="preserve">
<style type="text/css">
	.st0{fill:#FFFFFF;}
</style>
<g id="Group_2917" transform="translate(-377.96 -603.662)">
	<g id="Group_2909" transform="translate(378.357 606.337)">
		<path id="Path_4394" class="st0" d="M3.13,6.6c-0.2,0-0.37-0.16-0.37-0.37V2.37c0-0.2,0.16-0.37,0.37-0.37S3.5,2.17,3.5,2.37l0,0
			v3.85C3.5,6.43,3.33,6.6,3.13,6.6C3.13,6.6,3.13,6.6,3.13,6.6z"/>
	</g>
	<g id="Group_2910" transform="translate(381.923 604.554)">
		<path id="Path_4395" class="st0" d="M3.13,6.6c-0.2,0-0.37-0.16-0.37-0.37V2.37c0.01-0.2,0.18-0.36,0.39-0.35
			C3.34,2.03,3.49,2.19,3.5,2.37v3.85C3.5,6.43,3.33,6.6,3.13,6.6z"/>
	</g>
	<g id="Group_2911" transform="translate(383.706 605.446)">
		<path id="Path_4396" class="st0" d="M3.13,4.81c-0.2,0-0.37-0.17-0.37-0.37l0,0V2.37c0.01-0.2,0.18-0.36,0.39-0.35
			C3.34,2.03,3.49,2.18,3.5,2.37v2.07C3.5,4.65,3.33,4.81,3.13,4.81z"/>
	</g>
	<g id="Group_2912" transform="translate(380.139 603.662)">
		<path id="Path_4397" class="st0" d="M3.13,8.38c-0.2,0-0.37-0.16-0.37-0.37V2.37c0.01-0.2,0.18-0.36,0.39-0.35
			C3.34,2.03,3.49,2.18,3.5,2.37v5.64C3.5,8.21,3.33,8.38,3.13,8.38z"/>
	</g>
	<g id="Group_2913" transform="translate(377.96 605.884)">
		<path id="Path_4398" class="st0" d="M5.38,14.13c-0.54,0-1.02-0.34-1.2-0.85L2.82,9.28C2.6,8.62,2.95,7.91,3.61,7.68c0,0,0,0,0,0
			l4.54-1.54c0.06-0.02,0.12-0.05,0.17-0.09l4.53-3.76c0.53-0.45,1.33-0.37,1.77,0.16c0.1,0.12,0.18,0.26,0.23,0.41l2.64,7.8
			c0.22,0.66-0.13,1.37-0.79,1.6c-0.12,0.04-0.24,0.06-0.37,0.07l-5.83,0.16c-0.05,0-0.11,0.01-0.15,0.03l-4.57,1.55
			C5.65,14.1,5.51,14.12,5.38,14.13z M13.65,2.74c-0.12,0-0.24,0.04-0.33,0.12L8.8,6.62c-0.12,0.1-0.25,0.18-0.4,0.22L3.86,8.38
			C3.58,8.48,3.44,8.77,3.53,9.05l1.35,3.99c0.09,0.27,0.39,0.42,0.66,0.33l4.57-1.55c0.12-0.04,0.25-0.06,0.37-0.07l5.83-0.16
			c0.29-0.01,0.52-0.25,0.51-0.54c0-0.05-0.01-0.1-0.03-0.15l-2.64-7.8c-0.05-0.16-0.19-0.29-0.35-0.34
			C13.75,2.75,13.7,2.74,13.65,2.74L13.65,2.74z M13.09,2.58L13.09,2.58z"/>
	</g>
	<g id="Group_2914" transform="translate(383.508 610.673)">
		<path id="Path_4399" class="st0" d="M4.56,6.96c-0.16,0-0.3-0.1-0.35-0.25L2.78,2.49C2.72,2.3,2.82,2.09,3.01,2.02
			s0.4,0.04,0.47,0.23l1.43,4.22c0.06,0.19-0.04,0.4-0.23,0.47C4.64,6.96,4.6,6.96,4.56,6.96z"/>
	</g>
	<g id="Group_2915" transform="translate(381.656 616.827)">
		<path id="Path_4400" class="st0" d="M4.98,4.86c-0.11,0-0.21-0.05-0.28-0.13L2.85,2.62C2.73,2.46,2.75,2.22,2.91,2.1
			C3.06,1.98,3.28,2,3.41,2.13l1.85,2.12C5.39,4.4,5.38,4.63,5.22,4.77C5.16,4.83,5.07,4.86,4.98,4.86L4.98,4.86z"/>
	</g>
	<g id="Group_2916" transform="translate(389.772 607.789)">
		<path id="Path_4401" class="st0" d="M4.69,7.35c-0.09,0-0.17-0.03-0.24-0.09C4.3,7.14,4.28,6.9,4.41,6.75c0,0,0,0,0,0
			c0.64-0.77,1.34-1.85,1.01-2.69C5.07,3.16,3.62,2.8,3.09,2.74c-0.2-0.02-0.35-0.21-0.32-0.41c0,0,0,0,0,0
			c0.02-0.2,0.2-0.34,0.4-0.32c0,0,0.01,0,0.01,0c0.1,0.01,2.35,0.29,2.93,1.78c0.37,0.94-0.01,2.1-1.13,3.43
			C4.9,7.31,4.8,7.35,4.69,7.35z"/>
	</g>
</g>
</svg>
