<?xml version="1.0" encoding="utf-8"?>
<!-- Generator: Adobe Illustrator 25.2.0, SVG Export Plug-In . SVG Version: 6.00 Build 0)  -->
<svg version="1.0" id="Layer_1" xmlns="http://www.w3.org/2000/svg" xmlns:xlink="http://www.w3.org/1999/xlink" x="0px" y="0px"
	 viewBox="0 0 20 20" style="enable-background:new 0 0 20 20;" xml:space="preserve">
<style type="text/css">
	.st0{fill:none;}
	.st1{fill:#FFFFFF;}
</style>
<g>
	<polygon class="st0" points="15.01,13.59 15.01,14.81 16.23,13.59 	"/>
	<path class="st0" d="M13.61,12.19h3.42V4.56L3.81,4.52L3.78,15.47l9.83,0.03V12.19z M14.3,6.41c-0.39-0.03-0.67-0.37-0.64-0.76
		c0.03-0.34,0.3-0.61,0.64-0.64h1.65c0.39-0.03,0.72,0.25,0.76,0.64c0.03,0.39-0.25,0.72-0.64,0.76c-0.04,0-0.08,0-0.12,0h-0.28
		l0.73,0.73c0.3,0.25,0.34,0.69,0.09,0.99c-0.17,0.2-0.42,0.27-0.66,0.23v0.44c0,0.38-0.31,0.7-0.7,0.7c-0.39,0-0.7-0.31-0.7-0.7
		V8.35c-0.03,0-0.05,0.02-0.08,0.02c-0.39,0-0.7-0.32-0.69-0.71c0-0.18,0.07-0.36,0.2-0.49l0.77-0.77H14.3z M4.52,9.56
		c0.04,0,0.08,0,0.12,0H15.9c0.39,0.03,0.67,0.37,0.64,0.76c-0.03,0.34-0.3,0.61-0.64,0.64H4.64c-0.39,0.03-0.72-0.25-0.76-0.64
		C3.85,9.93,4.13,9.59,4.52,9.56z M12.96,13.22H4.64c-0.39,0.03-0.72-0.25-0.76-0.64c-0.03-0.39,0.25-0.72,0.64-0.76
		c0.04,0,0.08,0,0.12,0h8.33c0.39,0.03,0.67,0.37,0.64,0.76C13.57,12.92,13.3,13.19,12.96,13.22z"/>
	<path class="st1" d="M4.64,10.95H15.9c0.34-0.03,0.61-0.3,0.64-0.64c0.03-0.39-0.25-0.72-0.64-0.76H4.64c-0.04,0-0.08,0-0.12,0
		c-0.39,0.03-0.67,0.37-0.64,0.76C3.91,10.7,4.25,10.99,4.64,10.95z"/>
	<path class="st1" d="M12.96,11.83H4.64c-0.04,0-0.08,0-0.12,0c-0.39,0.03-0.67,0.37-0.64,0.76c0.03,0.39,0.37,0.67,0.76,0.64h8.33
		c0.34-0.03,0.61-0.3,0.64-0.64C13.63,12.2,13.35,11.86,12.96,11.83z"/>
	<path class="st1" d="M18.48,12.83c-0.01-0.07-0.03-0.13-0.06-0.19V4.56c0-0.79-0.64-1.43-1.43-1.43H3.81
		c-0.79,0-1.43,0.64-1.43,1.43v10.91c0,0.79,0.64,1.43,1.43,1.43h10.5c0.38,0,0.74-0.15,1.01-0.41L18,13.81
		c0.14-0.13,0.24-0.29,0.31-0.47C18.43,13.2,18.5,13.02,18.48,12.83z M3.78,15.47L3.81,4.52l13.22,0.04v7.63h-3.42v3.31L3.78,15.47z
		 M15.01,14.81v-1.22h1.22L15.01,14.81z"/>
	<path class="st1" d="M13.66,7.66c0,0.39,0.31,0.7,0.69,0.71c0.03,0,0.05-0.01,0.08-0.02v0.44c0,0.39,0.31,0.7,0.7,0.7
		c0.38,0,0.7-0.32,0.7-0.7V8.35c0.24,0.04,0.49-0.03,0.66-0.23c0.25-0.3,0.21-0.74-0.09-0.99l-0.73-0.73h0.28c0.04,0,0.08,0,0.12,0
		c0.39-0.03,0.67-0.37,0.64-0.76c-0.03-0.39-0.37-0.67-0.76-0.64H14.3c-0.34,0.03-0.61,0.3-0.64,0.64
		c-0.03,0.39,0.25,0.72,0.64,0.76h0.32l-0.77,0.77C13.73,7.31,13.66,7.48,13.66,7.66z"/>
</g>
</svg>
