<svg xmlns="http://www.w3.org/2000/svg" width="15.011" height="17.571" viewBox="0 0 15.011 17.571"><defs><style>.a,.c,.d{fill:none;}.b{fill:#fff;}.c,.d{stroke:#fff;stroke-miterlimit:10;}.d{stroke-linecap:round;stroke-width:2px;}</style></defs><g transform="translate(-137.5 -217.5)"><path class="a" d="M142.009,225.163h9.058v9.059h-9.058Z" transform="translate(-0.705 -1.172)"/><path class="b" d="M145.7,225.079a3.775,3.775,0,1,0,3.778,3.775A3.773,3.773,0,0,0,145.7,225.079Zm0,6.794a3.02,3.02,0,1,1,3.02-3.02A3.019,3.019,0,0,1,145.7,231.873Z" transform="translate(-0.69 -1.157)"/><path class="b" d="M146.612,227.369h-.566v2.265l1.982,1.189.283-.465-1.7-1.008Z" transform="translate(-1.415 -1.56)"/><rect class="c" width="14.011" height="14.011" rx="2" transform="translate(138 220.56)"/><line class="d" y2="2" transform="translate(140.499 218.5)"/><line class="d" y2="2" transform="translate(149.499 218.5)"/></g></svg>