<svg xmlns="http://www.w3.org/2000/svg" width="17.131" height="17.953" viewBox="0 0 17.131 17.953"><defs><style>.a,.b{fill:none;stroke:#fff;stroke-miterlimit:10;}.a{stroke-linecap:round;}</style></defs><g transform="translate(-140.434 -441.968)"><rect class="a" width="7.306" height="6.393" rx="1" transform="translate(149.759 442.468)"/><path class="a" d="M156.3,455.169v-3.445l1.951,1.951" transform="translate(-2.893 -1.742)"/><path class="a" d="M155.853,455.169v-3.445l-1.951,1.951" transform="translate(-2.441 -1.742)"/><path class="b" d="M142.675,453.879v7.26s.521.935,1.488,0c0,0,.744.935,1.339,0v-7.26" transform="translate(-0.328 -2.148)"/><line class="b" y1="4.538" transform="translate(143.835 454.447)"/><path class="b" d="M140.934,456.581V453.2a1.126,1.126,0,0,1,1.175-1.175" transform="translate(0 -1.8)"/><circle class="b" cx="1.414" cy="1.414" r="1.414" transform="translate(142.422 446.933)"/><line class="b" x2="3.167" transform="translate(145.249 450.228)"/></g></svg>