<svg id="User" xmlns="http://www.w3.org/2000/svg" width="28.056" height="28.056" viewBox="0 0 28.056 28.056">
  <path id="Path_15259" data-name="Path 15259" d="M15.028,1A14.028,14.028,0,1,0,29.056,15.028,14.028,14.028,0,0,0,15.028,1Zm0,27.151A13.123,13.123,0,1,1,28.151,15.028,13.123,13.123,0,0,1,15.028,28.151Z" transform="translate(-1 -1)" fill="#27276d"/>
  <path id="Path_15260" data-name="Path 15260" d="M29.784,41.961a14.027,14.027,0,0,0-19.537,0,.453.453,0,1,0,.631.649,13.122,13.122,0,0,1,18.275,0,.453.453,0,1,0,.631-.649Z" transform="translate(-5.987 -21.257)" fill="#27276d"/>
  <path id="Path_15261" data-name="Path 15261" d="M25.43,20.86A5.43,5.43,0,1,0,20,15.43,5.43,5.43,0,0,0,25.43,20.86Zm0-9.955a4.525,4.525,0,1,1-4.525,4.525A4.525,4.525,0,0,1,25.43,10.905Z" transform="translate(-11.402 -5.927)" fill="#fd5c70"/>
</svg>
