<svg xmlns="http://www.w3.org/2000/svg" width="31.5" height="31.5" viewBox="0 0 31.5 31.5"><g transform="translate(-180 -22)"><rect width="31.5" height="31.5" rx="5" transform="translate(180 22)" fill="#757070"/><path d="M14.872,3.375h-.039a11.5,11.5,0,0,0,.006,23h.039a11.5,11.5,0,1,0-.006-23ZM24.833,14.1H20.543A21.778,21.778,0,0,0,20,9.888a16.836,16.836,0,0,0,2.747-1.161A9.907,9.907,0,0,1,24.833,14.1ZM14.1,14.1H10.682a19.656,19.656,0,0,1,.486-3.82,16.813,16.813,0,0,0,2.93.393Zm0,1.548v3.422a16.884,16.884,0,0,0-2.93.393,19.654,19.654,0,0,1-.486-3.815Zm1.548,0h3.388a19.54,19.54,0,0,1-.486,3.809,16.5,16.5,0,0,0-2.9-.387Zm0-1.548V10.673a16.885,16.885,0,0,0,2.9-.387,19.6,19.6,0,0,1,.486,3.815Zm6.047-6.519a15.354,15.354,0,0,1-2.1.857,11.417,11.417,0,0,0-1.465-3.013A10,10,0,0,1,21.693,7.582Zm-3.56,1.255a15.553,15.553,0,0,1-2.487.332V5.111A6.7,6.7,0,0,1,18.133,8.838ZM14.1,5.089V9.164a15.284,15.284,0,0,1-2.515-.337A6.7,6.7,0,0,1,14.1,5.089Zm-2.521.354a11.507,11.507,0,0,0-1.454,2.991,15.7,15.7,0,0,1-2.073-.851A9.852,9.852,0,0,1,11.578,5.443ZM7,8.732a16.5,16.5,0,0,0,2.72,1.15A20.9,20.9,0,0,0,9.173,14.1H4.917A9.856,9.856,0,0,1,7,8.732ZM4.912,15.649H9.168a21.722,21.722,0,0,0,.542,4.213,17.51,17.51,0,0,0-2.72,1.15A9.908,9.908,0,0,1,4.912,15.649Zm3.134,6.519a15.468,15.468,0,0,1,2.078-.851,11.548,11.548,0,0,0,1.454,3A10.1,10.1,0,0,1,8.046,22.168Zm3.538-1.25a15.365,15.365,0,0,1,2.515-.337v4.08A6.686,6.686,0,0,1,11.583,20.918Zm4.063,3.721V20.575a15.553,15.553,0,0,1,2.487.332A6.7,6.7,0,0,1,15.646,24.639Zm2.487-.315A11.417,11.417,0,0,0,19.6,21.311a15.1,15.1,0,0,1,2.1.862A10.117,10.117,0,0,1,18.133,24.324Zm4.615-3.306A16.836,16.836,0,0,0,20,19.856a21.664,21.664,0,0,0,.542-4.207h4.289A9.863,9.863,0,0,1,22.749,21.018Z" transform="translate(180.625 22.625)" fill="#fff"/></g></svg>