<svg id="Layer_1_1_" enable-background="new 0 0 64 64" height="512" viewBox="0 0 64 64" width="512" xmlns="http://www.w3.org/2000/svg"><g><circle cx="52" cy="20" fill="#ff8088" r="9"/></g><g><path d="m57 18h-3v-3h-4v3h-3v4h3v3h4v-3h3z" fill="#eaeaea"/></g><g><circle cx="12" cy="20" fill="#90d2fc" r="9"/></g><g><path d="m9 19h6v5h-6z" fill="#eaeaea"/></g><g><path d="m12 15-5 4h10z" fill="#ff8088"/></g><g><circle cx="32" cy="11" fill="#ffe990" r="9"/></g><path d="m32 10c-.552 0-1-.449-1-1s.448-1 1-1 1 .449 1 1h2c0-1.302-.839-2.402-2-2.816v-1.184h-2v1.184c-1.161.414-2 1.514-2 2.816 0 1.654 1.346 3 3 3 .552 0 1 .449 1 1s-.448 1-1 1-1-.449-1-1h-2c0 1.302.839 2.402 2 2.816v1.184h2v-1.184c1.161-.414 2-1.514 2-2.816 0-1.654-1.346-3-3-3z" fill="#a8a8a8"/><path d="m23.417 49.3c-.001-.002-3.624-5.12-3.624-5.12-.351-.496-.921-.791-1.529-.791-1.393 0-2.298 1.465-1.675 2.711l1.208 2.714-4.028-1.277-2.769-5.537-.71-2.841c-.197-.79-.989-1.306-1.825-1.121-.806.178-1.288 1.02-1.152 1.835l.643 3.858-2.633-3.071c-.622-.725-1.687-.872-2.482-.342-.882.588-1.107 1.786-.5 2.654l5.753 8.219c.092.132.2.252.321.358 1.32 1.155 2.641 2.311 3.961 3.466 1.416 1.239 3.985 2.703 3.833 4.817-.051.724-.131 1.446-.209 2.168h9c-.216-4.233 1.075-8.959-1.583-12.7z" fill="#e6c197"/><path d="m61.159 40.317c-.795-.53-1.86-.383-2.482.342l-2.632 3.071.643-3.858c.136-.814-.346-1.657-1.152-1.835-.837-.185-1.628.331-1.825 1.121l-.711 2.842-2.769 5.537-4.028 1.277 1.208-2.714c.623-1.245-.283-2.711-1.675-2.711-.608 0-1.178.295-1.529.791 0 0-3.622 5.119-3.624 5.12-2.658 3.741-1.367 8.467-1.583 12.7h9c-.078-.722-.158-1.444-.21-2.168-.152-2.114 2.417-3.578 3.833-4.817 1.32-1.155 2.641-2.311 3.961-3.466.121-.106.229-.226.321-.358l5.753-8.219c.608-.869.383-2.067-.499-2.655z" fill="#e6c197"/><g><path d="m23.417 49.3c-.001-.002-3.624-5.12-3.624-5.12-.351-.496-.921-.791-1.529-.791-1.393 0-2.298 1.465-1.675 2.711l1.208 2.714-7.082-2.245c-.316-.118-.597-.315-.816-.571l-4.576-5.338c-.622-.725-1.687-.872-2.482-.342-.882.588-1.107 1.786-.5 2.654l5.753 8.219c.092.132.2.252.321.358 1.32 1.155 2.641 2.311 3.961 3.466 1.416 1.239 3.985 2.703 3.833 4.817-.051.724-.131 1.446-.209 2.168h9c-.216-4.233 1.075-8.959-1.583-12.7z" fill="#ffdbac"/></g><g><path d="m40.583 49.3c.001-.002 3.624-5.12 3.624-5.12.351-.496.921-.791 1.529-.791 1.393 0 2.298 1.465 1.675 2.711l-1.208 2.714 7.082-2.245c.316-.118.597-.315.816-.571l4.576-5.339c.622-.725 1.687-.872 2.482-.342.882.588 1.107 1.786.5 2.654l-5.753 8.219c-.092.132-.2.252-.321.358-1.32 1.155-2.641 2.311-3.961 3.466-1.416 1.239-3.985 2.703-3.833 4.817.051.725.131 1.447.209 2.169h-9c.216-4.233-1.075-8.959 1.583-12.7z" fill="#ffdbac"/></g><g><circle cx="32" cy="28" fill="#ffd6a8" r="5"/></g><g><path d="m36.974 27.738c-.139-2.637-2.302-4.738-4.974-4.738s-4.835 2.101-4.974 4.738c1.368-1.083 3.091-1.738 4.974-1.738s3.606.655 4.974 1.738z" fill="#999"/></g><g><path d="m39 47h-14v-8c0-3.314 2.686-6 6-6h2c3.314 0 6 2.686 6 6z" fill="#dbdbdb"/></g><g><path d="m32 33-2 7 2 3 2-3z" fill="#a8a8a8"/></g></svg>