<svg id="Group_3838" data-name="Group 3838" xmlns="http://www.w3.org/2000/svg" width="17.299" height="17.299" viewBox="0 0 17.299 17.299">
  <path id="Path_15861" data-name="Path 15861" d="M0,405.834a8.65,8.65,0,1,0,8.65-8.65A8.65,8.65,0,0,0,0,405.834" transform="translate(0 -397.184)" fill="#ce373e"/>
  <path id="Path_15862" data-name="Path 15862" d="M38.356,444.339q-.017-.466-.073-.949a6.035,6.035,0,0,0-.148-.852,1.534,1.534,0,0,0-.382-.662,1.447,1.447,0,0,0-.668-.388,6.486,6.486,0,0,0-1.122-.144c-.5-.03-1.021-.055-1.562-.071s-1.2-.032-1.98-.048l-1.992.042c-.54.012-1.061.036-1.562.071a8.263,8.263,0,0,0-1.121.138,1.446,1.446,0,0,0-.662.393,1.524,1.524,0,0,0-.388.668,5.674,5.674,0,0,0-.144.852c-.032.322-.055.637-.071.942s-.028.671-.036,1.092q.013.621.036,1.086c.016.309.039.624.071.942a5.3,5.3,0,0,0,.144.835,1.5,1.5,0,0,0,.382.674,1.441,1.441,0,0,0,.668.388,6.745,6.745,0,0,0,1.127.144q.745.048,1.562.071c.546.016,1.206.028,1.986.036q1.169-.013,1.98-.031c.541-.012,1.061-.035,1.562-.071a8.087,8.087,0,0,0,1.122-.138,1.448,1.448,0,0,0,.668-.388,1.517,1.517,0,0,0,.382-.674,5.306,5.306,0,0,0,.142-.841q.048-.483.073-.942c.016-.306.028-.669.035-1.092s-.017-.775-.029-1.085M31.229,447.2v-3.577l3.1,1.8Z" transform="translate(-23.765 -436.763)" fill="#fff"/>
</svg>
