<svg xmlns="http://www.w3.org/2000/svg" width="19.584" height="20.798" viewBox="0 0 19.584 20.798">
  <g id="Group_4020" data-name="Group 4020" transform="translate(3534.417 -9308.755)">
    <g id="Order_history" transform="translate(-3534.417 9308.755)">
      <path id="Path_15637" data-name="Path 15637" d="M53.779,65.3H46.084a6.564,6.564,0,0,0,1.376-4.045V48.692H59.33v6.623a.341.341,0,1,0,.682,0V48.346A.343.343,0,0,0,59.671,48H47.119a.343.343,0,0,0-.341.346V61.252A5.867,5.867,0,0,1,45.084,65.4a.349.349,0,0,0-.074.377.341.341,0,0,0,.315.214h8.453a.346.346,0,0,0,0-.692Z" transform="translate(-44.984 -48)" fill="#fff"/>
      <path id="Path_15638" data-name="Path 15638" d="M151.517,148.766h-8.664a.378.378,0,1,0,0,.755h8.664a.378.378,0,0,0,0-.755Z" transform="translate(-138.745 -144.874)" fill="#fff"/>
      <path id="Path_15639" data-name="Path 15639" d="M151.895,203.346a.378.378,0,0,0-.378-.378h-8.664a.378.378,0,1,0,0,.755h8.664A.378.378,0,0,0,151.895,203.346Z" transform="translate(-138.745 -196.742)" fill="#fff"/>
      <path id="Path_15640" data-name="Path 15640" d="M148.13,257.55a.378.378,0,0,0-.378-.378h-4.9a.378.378,0,0,0,0,.755h4.9A.378.378,0,0,0,148.13,257.55Z" transform="translate(-138.426 -248.61)" fill="#fff"/>
      <path id="Path_15641" data-name="Path 15641" d="M142.854,311.375a.378.378,0,1,0,0,.755h3.08a.378.378,0,0,0,0-.755Z" transform="translate(-138.359 -300.478)" fill="#fff"/>
    </g>
    <g id="contract" transform="translate(-3524.148 9313.206)">
      <path id="Path_15679" data-name="Path 15679" d="M226.1,356.343c.421-.091.124-.026.643-.14l-.5-.5C226.153,356.089,226.187,355.936,226.1,356.343Z" transform="translate(-222.085 -349.13)" fill="none"/>
      <path id="Path_15680" data-name="Path 15680" d="M243.5,225.021l.6.6c.075-.079,2.233-2.235,2.319-2.321l-.6-.6C245.77,222.751,243.549,224.97,243.5,225.021Z" transform="translate(-239.143 -218.746)" fill="none"/>
      <path id="Path_15681" data-name="Path 15681" d="M373.413,179.306c-.511.51-.421.421-.513.515l.594.594h0c.364-.366.25-.252.513-.515a.421.421,0,0,0-.6-.594Z" transform="translate(-365.998 -176.089)" fill="none"/>
      <path id="Path_15682" data-name="Path 15682" d="M31.257,24.2a.289.289,0,0,0-.407,0l-.195.2-.207-.207.181-.181a1.339,1.339,0,0,0-1.739-2.026l-.572.551c-1.2,1.2-5.367,5.365-5.369,5.37-.081.081-.14.122-.161.232-.006.03-.39,1.774-.39,1.8l-.289.289a.288.288,0,1,0,.407.407l.291-.293c.045,0,1.759-.378,1.8-.388.13-.031.142-.063.234-.157l3.474-3.476.572-.572c.964-.964.71-.712,1.155-1.153l.207.2L28.89,26.168l-.572.572-.334.334a.286.286,0,0,0,.336.454l.572-.551,2.367-2.367A.29.29,0,0,0,31.257,24.2Zm-8.311,5.6c.159-.742.1-.46.256-1.172l.917.917C23.169,29.76,23.712,29.642,22.945,29.8Zm1.711-.622L23.571,28.1C23.659,28,27.7,23.96,27.8,23.87l1.086,1.086C28.721,25.115,24.79,29.042,24.657,29.183Zm5.565-5.571c-.48.48-.271.27-.934.936h0l-1.08-1.084c.167-.171,0-.008.934-.936a.766.766,0,0,1,1.082,1.084Z" transform="translate(-22.025 -21.728)" fill="#fff"/>
    </g>
    <path id="Path_15683" data-name="Path 15683" d="M3.51.234A.234.234,0,0,0,3.275,0H.234a.234.234,0,0,0,0,.469H3.275A.234.234,0,0,0,3.51.234Z" transform="translate(-3521.919 9327.254) rotate(-45)" fill="#fff"/>
    <path id="Path_15684" data-name="Path 15684" d="M3.51.234a.234.234,0,0,1-.234.234H.234A.234.234,0,0,1,.234,0H3.275A.234.234,0,0,1,3.51.234Z" transform="translate(-3519.438 9327.586) rotate(-135)" fill="#fff"/>
    <g id="Ellipse_323" data-name="Ellipse 323" transform="translate(-3523.886 9322.807)" fill="none" stroke="#fff" stroke-width="0.6">
      <circle cx="3.373" cy="3.373" r="3.373" stroke="none"/>
      <circle cx="3.373" cy="3.373" r="3.073" fill="none"/>
    </g>
  </g>
</svg>
