<svg id="Group_4003" data-name="Group 4003" xmlns="http://www.w3.org/2000/svg" width="22.105" height="22.106" viewBox="0 0 22.105 22.106">
  <g id="Group_4002" data-name="Group 4002" transform="translate(0)">
    <path id="Path_15644" data-name="Path 15644" d="M262.579,265.359a2.769,2.769,0,1,0-1.959-.81A2.762,2.762,0,0,0,262.579,265.359Zm-1.456-4.226a2.06,2.06,0,1,1,0,2.913A2.053,2.053,0,0,1,261.123,261.134Z" transform="translate(-248.922 -248.933)" fill="#fff"/>
    <path id="Path_15645" data-name="Path 15645" d="M223.248,223.381a4.543,4.543,0,0,0-.974,5.009.355.355,0,0,0,.654-.278,3.851,3.851,0,1,1,3.567,2.344h-.023a3.826,3.826,0,0,1-2.687-1.093.355.355,0,1,0-.5.509,4.532,4.532,0,0,0,3.183,1.3h.027a4.561,4.561,0,1,0-3.252-7.786Z" transform="translate(-212.897 -213.029)" fill="#fff"/>
    <path id="Path_15646" data-name="Path 15646" d="M21.5,12.282H20.345a6.7,6.7,0,0,0-.9-2.186l.814-.814a.62.62,0,0,0,0-.877L19.076,7.227a.62.62,0,0,0-.877,0l-.814.814a6.7,6.7,0,0,0-2.186-.9V5.984a.621.621,0,0,0-.62-.62H12.913a.619.619,0,0,0-.479.226h-.212a5.474,5.474,0,0,0-.7-1.7l.623-.623a.564.564,0,0,0,0-.8l-.953-.953a.563.563,0,0,0-.8,0l-.623.622a5.474,5.474,0,0,0-1.7-.7V.563A.564.564,0,0,0,7.513,0H6.166A.564.564,0,0,0,5.6.563v.881a5.476,5.476,0,0,0-1.7.7l-.622-.622a.563.563,0,0,0-.8,0l-.952.952a.564.564,0,0,0,0,.8l.623.623a5.474,5.474,0,0,0-.7,1.7H.575a.564.564,0,0,0-.563.563V7.5a.564.564,0,0,0,.563.563h.881a5.474,5.474,0,0,0,.7,1.7l-.623.623a.564.564,0,0,0,0,.8l.952.953a.564.564,0,0,0,.8,0l.623-.623a5.473,5.473,0,0,0,1.7.7v.212a.619.619,0,0,0-.227.479v1.667a.621.621,0,0,0,.62.62H7.147a6.7,6.7,0,0,0,.9,2.186l-.814.814a.62.62,0,0,0,0,.877l1.179,1.179a.62.62,0,0,0,.877,0l.814-.814a6.7,6.7,0,0,0,2.186.9v1.152a.621.621,0,0,0,.62.62h1.667a.621.621,0,0,0,.62-.62V20.335a6.7,6.7,0,0,0,2.186-.9l.814.814a.62.62,0,0,0,.877,0l1.179-1.179a.62.62,0,0,0,0-.877l-.814-.814a6.7,6.7,0,0,0,.9-2.186H21.5a.621.621,0,0,0,.62-.62V12.9a.621.621,0,0,0-.62-.62ZM5.8,11.592a4.832,4.832,0,0,1-1.6-.664A.567.567,0,0,0,3.5,11l-.611.611-.833-.833.611-.611a.567.567,0,0,0,.074-.7,4.831,4.831,0,0,1-.664-1.6.567.567,0,0,0-.55-.445H.659V6.238h.865a.567.567,0,0,0,.55-.445,4.831,4.831,0,0,1,.664-1.6.567.567,0,0,0-.074-.7l-.611-.611.833-.833.611.611a.567.567,0,0,0,.7.074,4.831,4.831,0,0,1,1.6-.664.567.567,0,0,0,.445-.55V.647H7.429v.865a.567.567,0,0,0,.445.55,4.832,4.832,0,0,1,1.6.664.567.567,0,0,0,.7-.074l.611-.611.833.833-.611.611a.567.567,0,0,0-.074.7,4.831,4.831,0,0,1,.664,1.6.567.567,0,0,0,.55.445h.138v.9a6.7,6.7,0,0,0-2.186.9l-.814-.814L9.263,7.2a2.452,2.452,0,0,0-3.283-2.67.324.324,0,0,0,.227.606A1.8,1.8,0,0,1,8.624,7.09a.619.619,0,0,0-.208.137L7.238,8.405a.618.618,0,0,0-.137.208,1.813,1.813,0,0,1-.261.019A1.806,1.806,0,0,1,5.264,5.944.324.324,0,1,0,4.7,5.627,2.452,2.452,0,0,0,7.21,9.251c.009.01.018.021.028.031l.814.814a6.7,6.7,0,0,0-.9,2.186h-.9v-.139a.567.567,0,0,0-.445-.55ZM21.47,14.541H20.323a.624.624,0,0,0-.606.491,6.055,6.055,0,0,1-.832,2.01.624.624,0,0,0,.082.775l.81.81-1.14,1.14-.81-.81a.624.624,0,0,0-.775-.082,6.055,6.055,0,0,1-2.01.832.624.624,0,0,0-.491.606v1.147H12.94V20.312a.624.624,0,0,0-.491-.606,6.055,6.055,0,0,1-2.01-.832.624.624,0,0,0-.775.082l-.81.81-1.14-1.14.81-.81a.624.624,0,0,0,.082-.775,6.055,6.055,0,0,1-.832-2.01.624.624,0,0,0-.606-.491H6.023V12.929H7.169a.624.624,0,0,0,.606-.491,6.055,6.055,0,0,1,.832-2.01.624.624,0,0,0-.082-.775l-.81-.81L8.855,7.7l.81.81a.624.624,0,0,0,.775.082,6.055,6.055,0,0,1,2.01-.832.624.624,0,0,0,.491-.606V6.012h1.612V7.158a.624.624,0,0,0,.491.606,6.055,6.055,0,0,1,2.01.832.624.624,0,0,0,.775-.082l.81-.81,1.14,1.14-.81.81a.624.624,0,0,0-.082.775,6.056,6.056,0,0,1,.832,2.01.624.624,0,0,0,.606.491H21.47v1.612Z" transform="translate(-0.012 0)" fill="#fff"/>
  </g>
</svg>
