<svg id="employee" xmlns="http://www.w3.org/2000/svg" width="23.224" height="22.14" viewBox="0 0 23.224 22.14">
  <g id="Group_4001" data-name="Group 4001">
    <path id="Path_15630" data-name="Path 15630" d="M22.884,34.953a.343.343,0,0,0-.34.346v2.314a.058.058,0,0,1-.057.058H21.194V32.612a.34.34,0,1,0-.68,0v5.059h-2.5l.676-.757a.56.56,0,0,0,.132-.444l0-.01-.76-4.57.14-.214.036.026a.524.524,0,0,0,.438.084.534.534,0,0,0,.347-.284h0l.773-1.578,1.767.7a1.721,1.721,0,0,1,.981,1.563v1.5a.34.34,0,1,0,.68,0v-1.5a2.41,2.41,0,0,0-1.4-2.2l-.006,0-3.008-1.186V28.16a2.538,2.538,0,0,0,.9-1.57,1.177,1.177,0,0,0,.632-.283,1.207,1.207,0,0,0,.143-1.658v-.934A3.291,3.291,0,0,0,17.22,20.4a3.21,3.21,0,0,0-2.115.8,1.2,1.2,0,0,0-.263-.721V19.54a3.259,3.259,0,1,0-6.516,0V20.5a1.141,1.141,0,0,0-.263.693,3.225,3.225,0,0,0-1.283-.684.34.34,0,0,0-.416.247.347.347,0,0,0,.242.423,2.617,2.617,0,0,1,1.919,2.537v.518l-.064-.012a.4.4,0,0,0-.081-.234c-.087-.127-.243-.286-.747-.836a.531.531,0,0,0-.689-.086,4.8,4.8,0,0,1-2.88.807.543.543,0,0,0-.6.355l-.1.02v-.531A2.635,2.635,0,0,1,5.2,21.2a.347.347,0,0,0,.228-.431.339.339,0,0,0-.424-.232,3.284,3.284,0,0,0-1.661,1.179,3.325,3.325,0,0,0-.656,2v.959a1.14,1.14,0,0,0-.264.73,1.188,1.188,0,0,0,1.04,1.187A2.566,2.566,0,0,0,4.415,28.2v.59l-3,1.186-.006,0a2.41,2.41,0,0,0-1.4,2.2v5.43a.745.745,0,0,0,.738.751H11.214a.724.724,0,0,0,.4-.119.723.723,0,0,0,.4.119H22.486a.745.745,0,0,0,.738-.751V35.3A.343.343,0,0,0,22.884,34.953ZM3.434,25.875a.5.5,0,0,1-.327-.472.511.511,0,0,1,.327-.451Zm15.725,3.8-.668,1.362-.752-.544.835-1.049Zm-1.912.336-.88-1.105v-.332a2.7,2.7,0,0,0,.884.147h0a2.476,2.476,0,0,0,.874-.162v.349Zm.4,1.265-.125.192h-.548l-.125-.192.4-.289Zm-6.035-5.44-.88-1.105V24.4a2.7,2.7,0,0,0,.884.147h0a2.476,2.476,0,0,0,.874-.161v.349Zm.4,1.265-.125.192h-.548l-.125-.192.4-.289ZM8.932,22.382a1.2,1.2,0,0,0,.171.033,2.566,2.566,0,0,0,.948,1.611v.59l-.694.274a1.19,1.19,0,0,0-.15-.241v-.934A3.358,3.358,0,0,0,8.932,22.382Zm4.487-.367a1.834,1.834,0,1,1-3.669,0V20.394a5.5,5.5,0,0,0,3.1-.858c.307.335.489.529.566.62C13.419,21.017,13.419,21.35,13.419,22.016Zm.649.4a1.2,1.2,0,0,0,.17-.033,3.346,3.346,0,0,0-.276,1.333v.959a1.183,1.183,0,0,0-.135.2l-.658-.259v-.631A2.538,2.538,0,0,0,14.068,22.415Zm-3.785,2.853.835,1.049-.57.412h0l-.181.131L9.7,25.5Zm2.111.683.544-.683.585.231-.668,1.362-.181-.131h0l-.571-.413Zm.171,1.55.036.026a.524.524,0,0,0,.438.084.534.534,0,0,0,.347-.284h0l.574-1.171a1.189,1.189,0,0,0,.776.435,2.525,2.525,0,0,0,.949,1.61v.59l-2.892,1.141-.369-2.217Zm3.353,1.942.835,1.049L16,31.035l-.668-1.362Zm3.136-3.252a1.834,1.834,0,1,1-3.669,0V24.568a5.5,5.5,0,0,0,3.1-.858c.307.335.489.529.566.62C19.055,25.192,19.055,25.525,19.055,26.19Zm1.007-.787a.5.5,0,0,1-.327.471v-.942A.5.5,0,0,1,20.062,25.4Zm-5.419-1.689a2.578,2.578,0,1,1,5.155,0v.518l-.064-.012a.4.4,0,0,0-.081-.234c-.089-.131-.244-.287-.747-.836a.531.531,0,0,0-.689-.086,4.807,4.807,0,0,1-2.905.806.535.535,0,0,0-.573.356l-.1.02v-.531Zm.063,1.238v.922a.5.5,0,0,1-.327-.471A.51.51,0,0,1,14.706,24.953Zm-.279-3.724a.5.5,0,0,1-.327.471v-.942A.5.5,0,0,1,14.426,21.229Zm-2.842-4.312a2.6,2.6,0,0,1,2.578,2.624v.518l-.064-.012a.424.424,0,0,0-.1-.256c-.091-.125-.259-.3-.731-.815a.531.531,0,0,0-.689-.086,4.8,4.8,0,0,1-2.932.8.54.54,0,0,0-.546.357l-.1.02V19.54h0A2.6,2.6,0,0,1,11.584,16.917ZM9.07,20.778V21.7a.5.5,0,0,1-.327-.472A.511.511,0,0,1,9.07,20.778Zm-.606,4.155a.5.5,0,0,1,0,.942Zm-.032,1.658a1.189,1.189,0,0,0,.809-.478l.6,1.214h0a.534.534,0,0,0,.347.284.524.524,0,0,0,.438-.084l.036-.026.14.214-.369,2.217L7.534,28.791v-.63h0A2.541,2.541,0,0,0,8.432,26.591ZM5.975,30.009,5.1,28.9v-.332a2.7,2.7,0,0,0,.884.147h0a2.475,2.475,0,0,0,.874-.161v.349Zm.4,1.265-.125.192H5.7l-.125-.192.4-.289ZM7.3,29.442l.585.231-.668,1.362L7.038,30.9h0l-.571-.412ZM4.114,26.19V24.568a5.5,5.5,0,0,0,3.1-.858c.3.332.489.529.566.62V26.19a1.834,1.834,0,1,1-3.669,0Zm.533,3.252.835,1.049-.57.412h0l-.181.131-.668-1.362ZM2.711,37.671V32.612a.34.34,0,1,0-.68,0v5.059H.738a.058.058,0,0,1-.057-.058v-5.43a1.721,1.721,0,0,1,.98-1.562l1.765-.7L4.2,31.5h0a.534.534,0,0,0,.347.284.524.524,0,0,0,.438-.084l.036-.026.14.214L4.4,36.46l0,.01a.561.561,0,0,0,.132.444l.676.757h-2.5ZM5.084,36.5l.723-4.345h.338L6.867,36.5l-.892,1Zm6.188,1.11a.058.058,0,0,1-.057.058H9.922V32.612a.34.34,0,1,0-.68,0v5.059h-2.5l.676-.757a.56.56,0,0,0,.132-.444l0-.01-.76-4.57.14-.214.036.026a.525.525,0,0,0,.308.1.532.532,0,0,0,.477-.3h0l.773-1.578,1.767.7a1.721,1.721,0,0,1,.981,1.562v5.43Zm.34-6.688a2.451,2.451,0,0,0-.555-.627l.385-2.313h.338l.385,2.315A2.453,2.453,0,0,0,11.612,30.925Zm2.371,6.747h0V32.612a.34.34,0,1,0-.68,0v5.059H12.01a.058.058,0,0,1-.057-.058v-5.43a1.673,1.673,0,0,1,.4-1.109,1.835,1.835,0,0,1,.583-.453l1.765-.7.773,1.578h0a.534.534,0,0,0,.347.284.524.524,0,0,0,.438-.084l.036-.026.14.214-.76,4.57,0,.01a.561.561,0,0,0,.132.444l.676.757h-2.5ZM16.355,36.5l.723-4.345h.338l.723,4.345-.892,1Z" transform="translate(0 -16.224)" fill="#fff"/>
  </g>
</svg>
