<svg xmlns="http://www.w3.org/2000/svg" width="16.332" height="19.549" viewBox="0 0 16.332 19.549">
  <g id="Order_history" transform="translate(-44.984 -48)">
    <path id="Path_15637" data-name="Path 15637" d="M54.541,66.8H46.179a7.134,7.134,0,0,0,1.5-4.4V48.752h12.9v7.2a.371.371,0,1,0,.741,0V48.376A.373.373,0,0,0,60.945,48H47.3a.373.373,0,0,0-.371.376V62.4a6.376,6.376,0,0,1-1.84,4.506.38.38,0,0,0-.08.41.371.371,0,0,0,.342.232h9.186a.376.376,0,0,0,0-.752Z" fill="#fff"/>
    <path id="Path_15638" data-name="Path 15638" d="M152.3,148.766h-9.415a.41.41,0,0,0,0,.821H152.3a.41.41,0,0,0,0-.821Z" transform="translate(-93.438 -96.048)" fill="#fff"/>
    <path id="Path_15639" data-name="Path 15639" d="M152.712,203.379a.41.41,0,0,0-.41-.41h-9.415a.41.41,0,1,0,0,.821H152.3A.41.41,0,0,0,152.712,203.379Z" transform="translate(-93.438 -147.713)" fill="#fff"/>
    <path id="Path_15640" data-name="Path 15640" d="M148.62,257.582a.41.41,0,0,0-.41-.41h-5.323a.41.41,0,0,0,0,.821h5.323A.41.41,0,0,0,148.62,257.582Z" transform="translate(-93.09 -199.378)" fill="#fff"/>
    <path id="Path_15647" data-name="Path 15647" d="M6.144.41A.41.41,0,0,0,5.733,0H.41a.41.41,0,0,0,0,.821H5.733A.41.41,0,0,0,6.144.41Z" transform="translate(56.391 64.474) rotate(-45)" fill="#fff"/>
    <path id="Path_15648" data-name="Path 15648" d="M6.143.41a.41.41,0,0,1-.41.41H.41A.41.41,0,0,1,.41,0H5.733A.41.41,0,0,1,6.143.41Z" transform="translate(60.735 65.054) rotate(-135)" fill="#fff"/>
    <path id="Path_15641" data-name="Path 15641" d="M142.887,311.375a.41.41,0,0,0,0,.821h3.348a.41.41,0,1,0,0-.821Z" transform="translate(-93.018 -251.044)" fill="#fff"/>
  </g>
</svg>
