<svg xmlns="http://www.w3.org/2000/svg" width="14.521" height="18.94" viewBox="0 0 14.521 18.94">
  <g id="stop-sign" transform="translate(-50.627 -47.974)">
    <path id="Path_15635" data-name="Path 15635" d="M139.575,109.9a10.2,10.2,0,0,0,.574,3.1c.779,2.129,2.224,3.254,4.179,3.254h3.824a4.761,4.761,0,0,0,3.493-1.522.477.477,0,1,0-.688-.662,3.827,3.827,0,0,1-2.8,1.229h-3.824c-1.534,0-2.636-.877-3.275-2.607a9.371,9.371,0,0,1-.523-2.8,6.367,6.367,0,0,0-.437-2.446.988.988,0,1,1,1.728-.959,4.685,4.685,0,0,1,.49,1.133V109.9a.477.477,0,0,0,.568.469c.034-.007,3.413-.627,4.763,2.191a.477.477,0,1,0,.861-.412,4.769,4.769,0,0,0-3.555-2.683,6.729,6.729,0,0,0-1.682-.1V100.7a.806.806,0,0,1,1.613,0V107.4a.477.477,0,0,0,.955,0V99.081a.806.806,0,1,1,1.613,0v7.9a.477.477,0,0,0,.955,0v-5.9h0a.806.806,0,0,1,1.613,0v6.44a.477.477,0,1,0,.955,0v-3.84h0a.807.807,0,0,1,1.613,0v6.131a6.686,6.686,0,0,1-.639,2.813.477.477,0,0,0,.862.41,7.662,7.662,0,0,0,.732-3.223v-6.13a1.761,1.761,0,0,0-2.568-1.565v-1.034a1.762,1.762,0,0,0-2.567-1.566v-.435a1.761,1.761,0,1,0-3.522,0v.051a1.761,1.761,0,0,0-2.567,1.565v4.884a1.943,1.943,0,0,0-3.053,2.337A5.462,5.462,0,0,1,139.575,109.9Z" transform="translate(-88.386 -49.346)" fill="#fff"/>
  </g>
</svg>
