<svg xmlns="http://www.w3.org/2000/svg" width="23.417" height="23.417" viewBox="0 0 23.417 23.417">
  <path id="profile" d="M31.417,19.708a11.7,11.7,0,1,0-7.559,10.951,4.932,4.932,0,0,0,6.8-6.8,11.891,11.891,0,0,0,.605-2.253A11.441,11.441,0,0,0,31.417,19.708ZM19.708,30.662a10.946,10.946,0,1,1,10.4-7.519,4.93,4.93,0,0,0-4.943-1.416V20.617c0-1.156-.889-2.039-2.44-2.424a12.848,12.848,0,0,0-2.1-.343,3.449,3.449,0,0,0,1.747-3.176,2.516,2.516,0,0,0-2.665-2.757,2.516,2.516,0,0,0-2.664,2.757,3.452,3.452,0,0,0,1.741,3.174,12.025,12.025,0,0,0-2.1.346c-1.571.4-2.437,1.264-2.437,2.423v4.616a.378.378,0,0,0,.378.378h7a4.933,4.933,0,0,0,1.517,4.5A10.91,10.91,0,0,1,19.708,30.662ZM22.481,21.3a.378.378,0,0,0-.378.378v2.533a4.9,4.9,0,0,0-.279.644H17.314V21.679a.378.378,0,0,0-.755,0v3.177H15V20.617c0-1,1.017-1.472,1.87-1.691a11.46,11.46,0,0,1,5.672,0c.7.173,1.866.622,1.866,1.691V22a4.958,4.958,0,0,0-1.554,1.134V21.679A.378.378,0,0,0,22.481,21.3ZM17.8,14.675a1.766,1.766,0,0,1,1.909-2,1.766,1.766,0,0,1,1.909,2c0,1.449-.856,2.628-1.909,2.628S17.8,16.123,17.8,14.675Zm8.683,15.987a4.179,4.179,0,1,1,4.179-4.179A4.184,4.184,0,0,1,26.483,30.662Zm2.115-6.3h0a.9.9,0,0,0-.64.268l-2.393,2.417-1.044-1.044a.907.907,0,0,0-1.283,1.283h0l1.687,1.687a.908.908,0,0,0,1.283,0c.657-.657,2.677-2.706,3.035-3.067a.906.906,0,0,0-.642-1.545Zm.106,1.013c-.359.362-2.378,2.41-3.033,3.065a.152.152,0,0,1-.215,0l-1.687-1.687h0a.152.152,0,1,1,.215-.215L25.3,27.852a.378.378,0,0,0,.267.111h0a.377.377,0,0,0,.267-.112l2.66-2.686a.15.15,0,0,1,.106-.044h0a.15.15,0,0,1,.106.257Z" transform="translate(-8 -8)" fill="#fff"/>
</svg>
