<svg xmlns="http://www.w3.org/2000/svg" width="24.501" height="24.501" viewBox="0 0 24.501 24.501">
  <g id="Group_4004" data-name="Group 4004" transform="translate(3600 -8120)">
    <path id="profile" d="M32.5,20.251a12.244,12.244,0,1,0-7.909,11.458,5.132,5.132,0,0,0,2.746.793A5.237,5.237,0,0,0,32,29.564a4.938,4.938,0,0,0,.5-2.226,5.131,5.131,0,0,0-.793-2.746,12.441,12.441,0,0,0,.633-2.358A11.971,11.971,0,0,0,32.5,20.251ZM20.251,31.711a11.452,11.452,0,1,1,10.885-7.867,5.158,5.158,0,0,0-5.172-1.482V21.2c0-1.209-.931-2.134-2.553-2.536a13.443,13.443,0,0,0-2.2-.358,3.609,3.609,0,0,0,1.828-3.324A2.633,2.633,0,0,0,20.251,12.1a2.633,2.633,0,0,0-2.788,2.885,3.611,3.611,0,0,0,1.822,3.32,12.582,12.582,0,0,0-2.2.362c-1.644.423-2.55,1.323-2.55,2.535v4.83a.4.4,0,0,0,.4.4h7.323a5.162,5.162,0,0,0,1.588,4.708A11.415,11.415,0,0,1,20.251,31.711Zm2.9-9.794a.4.4,0,0,0-.4.4v2.65a5.131,5.131,0,0,0-.292.674h-4.72V22.312a.4.4,0,1,0-.79,0v3.325H15.329V21.2c0-1.047,1.064-1.54,1.956-1.77a11.991,11.991,0,0,1,5.935,0c.729.181,1.953.651,1.953,1.769v1.451a5.188,5.188,0,0,0-1.626,1.186V22.312A.4.4,0,0,0,23.152,21.917Zm-4.9-6.933a1.848,1.848,0,0,1,2-2.095,1.848,1.848,0,0,1,2,2.095c0,1.516-.9,2.749-2,2.749s-2-1.233-2-2.749Zm9.085,16.727a4.372,4.372,0,1,1,4.372-4.372A4.377,4.377,0,0,1,27.339,31.711Z" transform="translate(-3608 8112)" fill="#fff"/>
    <text id="_" data-name="!" transform="translate(-3581.379 8141.701)" fill="#fff" font-size="7" font-family="ProximaNova-Bold, Proxima Nova" font-weight="700"><tspan x="0" y="0">!</tspan></text>
  </g>
</svg>
