<svg id="Group_3855" data-name="Group 3855" xmlns="http://www.w3.org/2000/svg" width="22.051" height="25.239" viewBox="0 0 22.051 25.239">
  <g id="Group_3854" data-name="Group 3854" transform="translate(0)">
    <path id="Path_15896" data-name="Path 15896" d="M76.383,399.618h1.594a.4.4,0,1,0,0-.8H76.383a.931.931,0,0,0-.93.93v1.063a.931.931,0,0,0,.93.93h1.594a.4.4,0,1,0,0-.8H76.383a.133.133,0,0,1-.133-.133v-1.063A.133.133,0,0,1,76.383,399.618Z" transform="translate(-73.328 -379.161)" fill="#fd5c70"/>
    <path id="Path_15897" data-name="Path 15897" d="M205.73,399.618h1.86a.4.4,0,1,0,0-.8h-1.86a.931.931,0,0,0-.93.93v1.063a.931.931,0,0,0,.93.93h1.86a.4.4,0,1,0,0-.8h-1.86a.133.133,0,0,1-.133-.133v-1.063A.133.133,0,0,1,205.73,399.618Z" transform="translate(-196.299 -379.161)" fill="#fd5c70"/>
    <path id="Path_15898" data-name="Path 15898" d="M86.631,65.471h1.328a.4.4,0,0,0,0-.8H86.631a.4.4,0,0,0,0,.8Z" transform="translate(-83.575 -61.486)" fill="#27276d"/>
    <path id="Path_15899" data-name="Path 15899" d="M87.959,129.347H86.631a.4.4,0,1,0,0,.8h1.328a.4.4,0,1,0,0-.8Z" transform="translate(-83.575 -122.971)" fill="#27276d"/>
    <path id="Path_15900" data-name="Path 15900" d="M217.837,129.347h-1.86a.4.4,0,1,0,0,.8h1.86a.4.4,0,1,0,0-.8Z" transform="translate(-206.546 -122.971)" fill="#27276d"/>
    <path id="Path_15901" data-name="Path 15901" d="M86.631,97.808h1.328a.4.4,0,1,0,0-.8H86.631a.4.4,0,1,0,0,.8Z" transform="translate(-83.575 -92.229)" fill="#27276d"/>
    <path id="Path_15902" data-name="Path 15902" d="M348.513,64.674h-3.188a.4.4,0,0,0,0,.8h3.188a.4.4,0,0,0,0-.8Z" transform="translate(-329.517 -61.486)" fill="#27276d"/>
    <path id="Path_15903" data-name="Path 15903" d="M335.077,401.743h3.188a.931.931,0,0,0,.93-.93v-1.063a.931.931,0,0,0-.93-.93h-3.188a.931.931,0,0,0-.93.93v1.063A.931.931,0,0,0,335.077,401.743Zm-.133-1.993a.133.133,0,0,1,.133-.133h3.188a.133.133,0,0,1,.133.133v1.063a.133.133,0,0,1-.133.133h-3.188a.133.133,0,0,1-.133-.133v-1.063Z" transform="translate(-319.269 -379.161)" fill="#fd5c70"/>
    <path id="Path_15904" data-name="Path 15904" d="M348.513,97.011h-3.188a.4.4,0,1,0,0,.8h3.188a.4.4,0,1,0,0-.8Z" transform="translate(-329.517 -92.229)" fill="#27276d"/>
    <path id="Path_15905" data-name="Path 15905" d="M348.513,129.347h-3.188a.4.4,0,1,0,0,.8h3.188a.4.4,0,1,0,0-.8Z" transform="translate(-329.517 -122.971)" fill="#27276d"/>
    <path id="Path_15906" data-name="Path 15906" d="M217.832,97.011h-1.86a.4.4,0,1,0,0,.8h1.86a.4.4,0,1,0,0-.8Z" transform="translate(-206.541 -92.229)" fill="#27276d"/>
    <path id="Path_15907" data-name="Path 15907" d="M217.837,64.674h-1.86a.4.4,0,0,0,0,.8h1.86a.4.4,0,0,0,0-.8Z" transform="translate(-206.546 -61.486)" fill="#27276d"/>
    <path id="Path_15908" data-name="Path 15908" d="M52.927,0H33.8a1.463,1.463,0,0,0-1.461,1.461V23.778A1.463,1.463,0,0,0,33.8,25.239H52.927a1.463,1.463,0,0,0,1.461-1.461V1.461A1.463,1.463,0,0,0,52.927,0ZM38.873,24.442H33.8a.665.665,0,0,1-.664-.664V17.8h3.587a.4.4,0,0,0,0-.8H33.134V1.461A.665.665,0,0,1,33.8.8h5.075a1.453,1.453,0,0,0-.16.664V23.778A1.452,1.452,0,0,0,38.873,24.442Zm6.376,0H40.174a.665.665,0,0,1-.664-.664V17.8h4.118a.4.4,0,1,0,0-.8H39.51V1.461A.665.665,0,0,1,40.174.8h5.075a1.453,1.453,0,0,0-.16.664V23.778A1.453,1.453,0,0,0,45.249,24.442Zm8.342-.664a.665.665,0,0,1-.664.664H46.55a.665.665,0,0,1-.664-.664V17.8h7.7Zm0-6.775h-7.7V1.461A.665.665,0,0,1,46.55.8h6.376a.665.665,0,0,1,.664.664Z" transform="translate(-32.337 0)" fill="#27276d"/>
  </g>
</svg>
