<svg xmlns="http://www.w3.org/2000/svg" width="11.139" height="11.544" viewBox="0 0 11.139 11.544">
  <g id="layer1" transform="translate(0 0)">
    <path id="circle2859" d="M5.661,290.907a3.318,3.318,0,0,0-1.909,6.033,5.394,5.394,0,0,0-3.392,5,.524.524,0,0,0,1.047,0,4.337,4.337,0,0,1,6.62-3.69.525.525,0,1,0,.552-.893,5.366,5.366,0,0,0-.957-.454,3.316,3.316,0,0,0-1.961-5.995Zm0,1.048a2.274,2.274,0,1,1-2.272,2.276A2.27,2.27,0,0,1,5.661,291.955Zm5.3,6.282a.524.524,0,0,0-.425.24l-1.8,2.7L7.6,300.424a.526.526,0,0,0-.584.874l1.573,1.047a.523.523,0,0,0,.726-.147l2.095-3.142a.524.524,0,0,0-.449-.819Z" transform="translate(-0.36 -290.907)" fill="#989898"/>
  </g>
</svg>
