<svg xmlns="http://www.w3.org/2000/svg" width="11.142" height="11.544" viewBox="0 0 11.142 11.544">
  <g id="layer1" transform="translate(75 2)">
    <path id="circle2865" d="M5.66,290.907a3.318,3.318,0,0,0-1.909,6.033,5.394,5.394,0,0,0-3.392,5,.524.524,0,0,0,1.047,0,4.336,4.336,0,0,1,6.619-3.69.525.525,0,0,0,.553-.894,5.371,5.371,0,0,0-.957-.454,3.316,3.316,0,0,0-1.961-5.995Zm0,1.048a2.274,2.274,0,1,1-2.272,2.276A2.269,2.269,0,0,1,5.66,291.955Zm2.686,6.806a.523.523,0,0,0-.364.9l.937.938-.937.936a.523.523,0,1,0,.738.742l.939-.939.938.939a.525.525,0,1,0,.742-.742L10.4,300.6l.938-.937a.525.525,0,1,0-.742-.742l-.938.938-.94-.938A.523.523,0,0,0,8.345,298.761Z" transform="translate(-75.359 -292.907)" fill="#fff"/>
  </g>
</svg>
