<svg id="reset-password" xmlns="http://www.w3.org/2000/svg" width="20.003" height="20.003" viewBox="0 0 20.003 20.003">
  <path id="Path_15303" data-name="Path 15303" d="M19.417,9.416a.586.586,0,0,0-.586.586,8.827,8.827,0,1,1-3.476-7.023l-1.017.18a.586.586,0,1,0,.2,1.154l2.219-.392a.586.586,0,0,0,.484-.577V1.125a.586.586,0,0,0-1.172,0v.928A10,10,0,0,0,0,10a10,10,0,0,0,17.074,7.072A9.936,9.936,0,0,0,20,10a.586.586,0,0,0-.586-.586Z" transform="translate(0 0)" fill="#008acc"/>
  <path id="Path_15304" data-name="Path 15304" d="M155.1,91a3.129,3.129,0,0,0-3.126,3.126v1.563h-.391a.586.586,0,0,0-.586.586v5.47a.586.586,0,0,0,.586.586h7.032a.586.586,0,0,0,.586-.586v-5.47a.586.586,0,0,0-.586-.586h-.391V94.126A3.129,3.129,0,0,0,155.1,91Zm-1.953,3.126a1.953,1.953,0,0,1,3.907,0v1.563h-3.907Zm4.884,7.032h-5.86v-4.3h5.86Z" transform="translate(-145.101 -87.445)" fill="#008acc"/>
  <path id="Path_15305" data-name="Path 15305" d="M231.586,282.172h.781a.586.586,0,0,0,0-1.172h-.781a.586.586,0,0,0,0,1.172Z" transform="translate(-221.975 -270.022)" fill="#008acc"/>
</svg>
